M48
; DRILL file {KiCad (5.1.9)-1} date 05/15/21 10:40:34
; FORMAT={-:-/ absolute / inch / decimal}
; #@! TF.CreationDate,2021-05-15T10:40:34-04:00
; #@! TF.GenerationSoftware,Kicad,Pcbnew,(5.1.9)-1
; #@! TF.FileFunction,Plated,1,2,PTH
FMAT,2
INCH
T1C0.0157
T2C0.0197
T3C0.0394
T4C0.0591
T5C0.1575
%
G90
G05
T1
X7.9Y-2.95
T2
X4.9Y-2.95
X5.65Y-2.95
X6.4Y-2.95
X7.15Y-2.95
X8.65Y-2.95
X9.4Y-2.95
T3
X6.8Y-2.2
X6.9Y-2.2
X7.0Y-2.2
X7.1Y-2.2
X7.2Y-2.2
X7.3Y-2.2
X7.4Y-2.2
X7.5Y-2.2
X7.6Y-2.2
T4
X4.85Y-2.65
X5.1Y-2.55
X5.6Y-2.65
X5.85Y-2.55
X6.35Y-2.65
X6.6Y-2.55
X7.1Y-2.65
X7.35Y-2.55
X7.85Y-2.65
X8.1Y-2.55
X8.6Y-2.65
X8.85Y-2.55
X9.35Y-2.65
X9.6Y-2.55
T5
X5.0Y-2.75
X5.75Y-2.75
X6.5Y-2.75
X7.25Y-2.75
X8.0Y-2.75
X8.75Y-2.75
X9.5Y-2.75
T0
M30
