%TF.GenerationSoftware,KiCad,Pcbnew,(5.1.9)-1*%
%TF.CreationDate,2021-05-15T10:40:31-04:00*%
%TF.ProjectId,LowerBar,4c6f7765-7242-4617-922e-6b696361645f,rev?*%
%TF.SameCoordinates,Original*%
%TF.FileFunction,Paste,Top*%
%TF.FilePolarity,Positive*%
%FSLAX46Y46*%
G04 Gerber Fmt 4.6, Leading zero omitted, Abs format (unit mm)*
G04 Created by KiCad (PCBNEW (5.1.9)-1) date 2021-05-15 10:40:31*
%MOMM*%
%LPD*%
G01*
G04 APERTURE LIST*
G04 APERTURE END LIST*
%TO.C,D36*%
G36*
G01*
X241750000Y-75380001D02*
X241750000Y-74479999D01*
G75*
G02*
X241999999Y-74230000I249999J0D01*
G01*
X242650001Y-74230000D01*
G75*
G02*
X242900000Y-74479999I0J-249999D01*
G01*
X242900000Y-75380001D01*
G75*
G02*
X242650001Y-75630000I-249999J0D01*
G01*
X241999999Y-75630000D01*
G75*
G02*
X241750000Y-75380001I0J249999D01*
G01*
G37*
G36*
G01*
X239700000Y-75380001D02*
X239700000Y-74479999D01*
G75*
G02*
X239949999Y-74230000I249999J0D01*
G01*
X240600001Y-74230000D01*
G75*
G02*
X240850000Y-74479999I0J-249999D01*
G01*
X240850000Y-75380001D01*
G75*
G02*
X240600001Y-75630000I-249999J0D01*
G01*
X239949999Y-75630000D01*
G75*
G02*
X239700000Y-75380001I0J249999D01*
G01*
G37*
%TD*%
%TO.C,D35*%
G36*
G01*
X222700000Y-75380001D02*
X222700000Y-74479999D01*
G75*
G02*
X222949999Y-74230000I249999J0D01*
G01*
X223600001Y-74230000D01*
G75*
G02*
X223850000Y-74479999I0J-249999D01*
G01*
X223850000Y-75380001D01*
G75*
G02*
X223600001Y-75630000I-249999J0D01*
G01*
X222949999Y-75630000D01*
G75*
G02*
X222700000Y-75380001I0J249999D01*
G01*
G37*
G36*
G01*
X220650000Y-75380001D02*
X220650000Y-74479999D01*
G75*
G02*
X220899999Y-74230000I249999J0D01*
G01*
X221550001Y-74230000D01*
G75*
G02*
X221800000Y-74479999I0J-249999D01*
G01*
X221800000Y-75380001D01*
G75*
G02*
X221550001Y-75630000I-249999J0D01*
G01*
X220899999Y-75630000D01*
G75*
G02*
X220650000Y-75380001I0J249999D01*
G01*
G37*
%TD*%
%TO.C,D34*%
G36*
G01*
X203650000Y-75380001D02*
X203650000Y-74479999D01*
G75*
G02*
X203899999Y-74230000I249999J0D01*
G01*
X204550001Y-74230000D01*
G75*
G02*
X204800000Y-74479999I0J-249999D01*
G01*
X204800000Y-75380001D01*
G75*
G02*
X204550001Y-75630000I-249999J0D01*
G01*
X203899999Y-75630000D01*
G75*
G02*
X203650000Y-75380001I0J249999D01*
G01*
G37*
G36*
G01*
X201600000Y-75380001D02*
X201600000Y-74479999D01*
G75*
G02*
X201849999Y-74230000I249999J0D01*
G01*
X202500001Y-74230000D01*
G75*
G02*
X202750000Y-74479999I0J-249999D01*
G01*
X202750000Y-75380001D01*
G75*
G02*
X202500001Y-75630000I-249999J0D01*
G01*
X201849999Y-75630000D01*
G75*
G02*
X201600000Y-75380001I0J249999D01*
G01*
G37*
%TD*%
%TO.C,D33*%
G36*
G01*
X184600000Y-75380001D02*
X184600000Y-74479999D01*
G75*
G02*
X184849999Y-74230000I249999J0D01*
G01*
X185500001Y-74230000D01*
G75*
G02*
X185750000Y-74479999I0J-249999D01*
G01*
X185750000Y-75380001D01*
G75*
G02*
X185500001Y-75630000I-249999J0D01*
G01*
X184849999Y-75630000D01*
G75*
G02*
X184600000Y-75380001I0J249999D01*
G01*
G37*
G36*
G01*
X182550000Y-75380001D02*
X182550000Y-74479999D01*
G75*
G02*
X182799999Y-74230000I249999J0D01*
G01*
X183450001Y-74230000D01*
G75*
G02*
X183700000Y-74479999I0J-249999D01*
G01*
X183700000Y-75380001D01*
G75*
G02*
X183450001Y-75630000I-249999J0D01*
G01*
X182799999Y-75630000D01*
G75*
G02*
X182550000Y-75380001I0J249999D01*
G01*
G37*
%TD*%
%TO.C,D32*%
G36*
G01*
X165550000Y-75380001D02*
X165550000Y-74479999D01*
G75*
G02*
X165799999Y-74230000I249999J0D01*
G01*
X166450001Y-74230000D01*
G75*
G02*
X166700000Y-74479999I0J-249999D01*
G01*
X166700000Y-75380001D01*
G75*
G02*
X166450001Y-75630000I-249999J0D01*
G01*
X165799999Y-75630000D01*
G75*
G02*
X165550000Y-75380001I0J249999D01*
G01*
G37*
G36*
G01*
X163500000Y-75380001D02*
X163500000Y-74479999D01*
G75*
G02*
X163749999Y-74230000I249999J0D01*
G01*
X164400001Y-74230000D01*
G75*
G02*
X164650000Y-74479999I0J-249999D01*
G01*
X164650000Y-75380001D01*
G75*
G02*
X164400001Y-75630000I-249999J0D01*
G01*
X163749999Y-75630000D01*
G75*
G02*
X163500000Y-75380001I0J249999D01*
G01*
G37*
%TD*%
%TO.C,D31*%
G36*
G01*
X146500000Y-75380001D02*
X146500000Y-74479999D01*
G75*
G02*
X146749999Y-74230000I249999J0D01*
G01*
X147400001Y-74230000D01*
G75*
G02*
X147650000Y-74479999I0J-249999D01*
G01*
X147650000Y-75380001D01*
G75*
G02*
X147400001Y-75630000I-249999J0D01*
G01*
X146749999Y-75630000D01*
G75*
G02*
X146500000Y-75380001I0J249999D01*
G01*
G37*
G36*
G01*
X144450000Y-75380001D02*
X144450000Y-74479999D01*
G75*
G02*
X144699999Y-74230000I249999J0D01*
G01*
X145350001Y-74230000D01*
G75*
G02*
X145600000Y-74479999I0J-249999D01*
G01*
X145600000Y-75380001D01*
G75*
G02*
X145350001Y-75630000I-249999J0D01*
G01*
X144699999Y-75630000D01*
G75*
G02*
X144450000Y-75380001I0J249999D01*
G01*
G37*
%TD*%
%TO.C,D30*%
G36*
G01*
X127450000Y-75380001D02*
X127450000Y-74479999D01*
G75*
G02*
X127699999Y-74230000I249999J0D01*
G01*
X128350001Y-74230000D01*
G75*
G02*
X128600000Y-74479999I0J-249999D01*
G01*
X128600000Y-75380001D01*
G75*
G02*
X128350001Y-75630000I-249999J0D01*
G01*
X127699999Y-75630000D01*
G75*
G02*
X127450000Y-75380001I0J249999D01*
G01*
G37*
G36*
G01*
X125400000Y-75380001D02*
X125400000Y-74479999D01*
G75*
G02*
X125649999Y-74230000I249999J0D01*
G01*
X126300001Y-74230000D01*
G75*
G02*
X126550000Y-74479999I0J-249999D01*
G01*
X126550000Y-75380001D01*
G75*
G02*
X126300001Y-75630000I-249999J0D01*
G01*
X125649999Y-75630000D01*
G75*
G02*
X125400000Y-75380001I0J249999D01*
G01*
G37*
%TD*%
M02*
