%TF.GenerationSoftware,KiCad,Pcbnew,(5.1.9)-1*%
%TF.CreationDate,2021-06-11T12:02:02-04:00*%
%TF.ProjectId,LowerBar,4c6f7765-7242-4617-922e-6b696361645f,rev?*%
%TF.SameCoordinates,Original*%
%TF.FileFunction,Paste,Bot*%
%TF.FilePolarity,Positive*%
%FSLAX46Y46*%
G04 Gerber Fmt 4.6, Leading zero omitted, Abs format (unit mm)*
G04 Created by KiCad (PCBNEW (5.1.9)-1) date 2021-06-11 12:02:02*
%MOMM*%
%LPD*%
G01*
G04 APERTURE LIST*
G04 APERTURE END LIST*
%TO.C,R49*%
G36*
G01*
X245755000Y-73925000D02*
X247005000Y-73925000D01*
G75*
G02*
X247255000Y-74175000I0J-250000D01*
G01*
X247255000Y-74975000D01*
G75*
G02*
X247005000Y-75225000I-250000J0D01*
G01*
X245755000Y-75225000D01*
G75*
G02*
X245505000Y-74975000I0J250000D01*
G01*
X245505000Y-74175000D01*
G75*
G02*
X245755000Y-73925000I250000J0D01*
G01*
G37*
G36*
G01*
X245755000Y-70825000D02*
X247005000Y-70825000D01*
G75*
G02*
X247255000Y-71075000I0J-250000D01*
G01*
X247255000Y-71875000D01*
G75*
G02*
X247005000Y-72125000I-250000J0D01*
G01*
X245755000Y-72125000D01*
G75*
G02*
X245505000Y-71875000I0J250000D01*
G01*
X245505000Y-71075000D01*
G75*
G02*
X245755000Y-70825000I250000J0D01*
G01*
G37*
%TD*%
%TO.C,R48*%
G36*
G01*
X208650000Y-74305000D02*
X208650000Y-75555000D01*
G75*
G02*
X208400000Y-75805000I-250000J0D01*
G01*
X207600000Y-75805000D01*
G75*
G02*
X207350000Y-75555000I0J250000D01*
G01*
X207350000Y-74305000D01*
G75*
G02*
X207600000Y-74055000I250000J0D01*
G01*
X208400000Y-74055000D01*
G75*
G02*
X208650000Y-74305000I0J-250000D01*
G01*
G37*
G36*
G01*
X211750000Y-74305000D02*
X211750000Y-75555000D01*
G75*
G02*
X211500000Y-75805000I-250000J0D01*
G01*
X210700000Y-75805000D01*
G75*
G02*
X210450000Y-75555000I0J250000D01*
G01*
X210450000Y-74305000D01*
G75*
G02*
X210700000Y-74055000I250000J0D01*
G01*
X211500000Y-74055000D01*
G75*
G02*
X211750000Y-74305000I0J-250000D01*
G01*
G37*
%TD*%
%TO.C,R47*%
G36*
G01*
X170550000Y-74305000D02*
X170550000Y-75555000D01*
G75*
G02*
X170300000Y-75805000I-250000J0D01*
G01*
X169500000Y-75805000D01*
G75*
G02*
X169250000Y-75555000I0J250000D01*
G01*
X169250000Y-74305000D01*
G75*
G02*
X169500000Y-74055000I250000J0D01*
G01*
X170300000Y-74055000D01*
G75*
G02*
X170550000Y-74305000I0J-250000D01*
G01*
G37*
G36*
G01*
X173650000Y-74305000D02*
X173650000Y-75555000D01*
G75*
G02*
X173400000Y-75805000I-250000J0D01*
G01*
X172600000Y-75805000D01*
G75*
G02*
X172350000Y-75555000I0J250000D01*
G01*
X172350000Y-74305000D01*
G75*
G02*
X172600000Y-74055000I250000J0D01*
G01*
X173400000Y-74055000D01*
G75*
G02*
X173650000Y-74305000I0J-250000D01*
G01*
G37*
%TD*%
%TO.C,R46*%
G36*
G01*
X132450000Y-74305000D02*
X132450000Y-75555000D01*
G75*
G02*
X132200000Y-75805000I-250000J0D01*
G01*
X131400000Y-75805000D01*
G75*
G02*
X131150000Y-75555000I0J250000D01*
G01*
X131150000Y-74305000D01*
G75*
G02*
X131400000Y-74055000I250000J0D01*
G01*
X132200000Y-74055000D01*
G75*
G02*
X132450000Y-74305000I0J-250000D01*
G01*
G37*
G36*
G01*
X135550000Y-74305000D02*
X135550000Y-75555000D01*
G75*
G02*
X135300000Y-75805000I-250000J0D01*
G01*
X134500000Y-75805000D01*
G75*
G02*
X134250000Y-75555000I0J250000D01*
G01*
X134250000Y-74305000D01*
G75*
G02*
X134500000Y-74055000I250000J0D01*
G01*
X135300000Y-74055000D01*
G75*
G02*
X135550000Y-74305000I0J-250000D01*
G01*
G37*
%TD*%
M02*
