%TF.GenerationSoftware,KiCad,Pcbnew,(5.1.9)-1*%
%TF.CreationDate,2021-05-29T21:32:23-04:00*%
%TF.ProjectId,LowerBar,4c6f7765-7242-4617-922e-6b696361645f,rev?*%
%TF.SameCoordinates,Original*%
%TF.FileFunction,Copper,L2,Bot*%
%TF.FilePolarity,Positive*%
%FSLAX46Y46*%
G04 Gerber Fmt 4.6, Leading zero omitted, Abs format (unit mm)*
G04 Created by KiCad (PCBNEW (5.1.9)-1) date 2021-05-29 21:32:23*
%MOMM*%
%LPD*%
G01*
G04 APERTURE LIST*
%TA.AperFunction,ComponentPad*%
%ADD10O,1.700000X1.700000*%
%TD*%
%TA.AperFunction,ComponentPad*%
%ADD11R,1.700000X1.700000*%
%TD*%
%TA.AperFunction,ComponentPad*%
%ADD12C,3.000000*%
%TD*%
%TA.AperFunction,ComponentPad*%
%ADD13C,4.000000*%
%TD*%
%TA.AperFunction,ViaPad*%
%ADD14C,0.800000*%
%TD*%
%TA.AperFunction,ViaPad*%
%ADD15C,1.000000*%
%TD*%
%TA.AperFunction,Conductor*%
%ADD16C,0.254000*%
%TD*%
%TA.AperFunction,Conductor*%
%ADD17C,0.100000*%
%TD*%
G04 APERTURE END LIST*
D10*
%TO.P,J2,9*%
%TO.N,/GND*%
X193040000Y-55880000D03*
%TO.P,J2,8*%
%TO.N,/SW24*%
X190500000Y-55880000D03*
%TO.P,J2,7*%
%TO.N,/SW23*%
X187960000Y-55880000D03*
%TO.P,J2,6*%
%TO.N,/SW22*%
X185420000Y-55880000D03*
%TO.P,J2,5*%
%TO.N,/SW21*%
X182880000Y-55880000D03*
%TO.P,J2,4*%
%TO.N,/SW20*%
X180340000Y-55880000D03*
%TO.P,J2,3*%
%TO.N,/SW19*%
X177800000Y-55880000D03*
%TO.P,J2,2*%
%TO.N,/SW18*%
X175260000Y-55880000D03*
D11*
%TO.P,J2,1*%
%TO.N,/LED*%
X172720000Y-55880000D03*
%TD*%
D12*
%TO.P,SW1,2*%
%TO.N,/GND*%
X129540000Y-64770000D03*
%TO.P,SW1,1*%
%TO.N,/SW18*%
X123190000Y-67310000D03*
D13*
%TO.P,SW1,3*%
%TO.N,N/C*%
X127000000Y-69850000D03*
%TD*%
%TO.P,SW2,3*%
%TO.N,N/C*%
X146050000Y-69850000D03*
D12*
%TO.P,SW2,1*%
%TO.N,/SW19*%
X142240000Y-67310000D03*
%TO.P,SW2,2*%
%TO.N,/GND*%
X148590000Y-64770000D03*
%TD*%
%TO.P,SW3,2*%
%TO.N,/GND*%
X167640000Y-64770000D03*
%TO.P,SW3,1*%
%TO.N,/SW20*%
X161290000Y-67310000D03*
D13*
%TO.P,SW3,3*%
%TO.N,N/C*%
X165100000Y-69850000D03*
%TD*%
%TO.P,SW4,3*%
%TO.N,N/C*%
X184150000Y-69850000D03*
D12*
%TO.P,SW4,1*%
%TO.N,/SW21*%
X180340000Y-67310000D03*
%TO.P,SW4,2*%
%TO.N,/GND*%
X186690000Y-64770000D03*
%TD*%
%TO.P,SW5,2*%
%TO.N,/GND*%
X205740000Y-64770000D03*
%TO.P,SW5,1*%
%TO.N,/SW22*%
X199390000Y-67310000D03*
D13*
%TO.P,SW5,3*%
%TO.N,N/C*%
X203200000Y-69850000D03*
%TD*%
%TO.P,SW6,3*%
%TO.N,N/C*%
X222250000Y-69850000D03*
D12*
%TO.P,SW6,1*%
%TO.N,/SW23*%
X218440000Y-67310000D03*
%TO.P,SW6,2*%
%TO.N,/GND*%
X224790000Y-64770000D03*
%TD*%
%TO.P,SW7,2*%
%TO.N,/GND*%
X243840000Y-64770000D03*
%TO.P,SW7,1*%
%TO.N,/SW24*%
X237490000Y-67310000D03*
D13*
%TO.P,SW7,3*%
%TO.N,N/C*%
X241300000Y-69850000D03*
%TD*%
D14*
%TO.N,/GND*%
X200660000Y-74930000D03*
D15*
X219710000Y-74930000D03*
X238760000Y-74930000D03*
X181610000Y-74930000D03*
X162560000Y-74930000D03*
X143510000Y-74930000D03*
X124460000Y-74930000D03*
%TD*%
D16*
%TO.N,/GND*%
X171280498Y-54785820D02*
X171244188Y-54905518D01*
X171231928Y-55030000D01*
X171231928Y-56730000D01*
X171244188Y-56854482D01*
X171280498Y-56974180D01*
X171339463Y-57084494D01*
X171418815Y-57181185D01*
X171515506Y-57260537D01*
X171625820Y-57319502D01*
X171745518Y-57355812D01*
X171870000Y-57368072D01*
X173570000Y-57368072D01*
X173694482Y-57355812D01*
X173814180Y-57319502D01*
X173924494Y-57260537D01*
X174021185Y-57181185D01*
X174100537Y-57084494D01*
X174159502Y-56974180D01*
X174181513Y-56901620D01*
X174313368Y-57033475D01*
X174556589Y-57195990D01*
X174826842Y-57307932D01*
X175113740Y-57365000D01*
X175406260Y-57365000D01*
X175693158Y-57307932D01*
X175963411Y-57195990D01*
X176206632Y-57033475D01*
X176413475Y-56826632D01*
X176530000Y-56652240D01*
X176646525Y-56826632D01*
X176853368Y-57033475D01*
X177096589Y-57195990D01*
X177366842Y-57307932D01*
X177653740Y-57365000D01*
X177946260Y-57365000D01*
X178233158Y-57307932D01*
X178503411Y-57195990D01*
X178746632Y-57033475D01*
X178953475Y-56826632D01*
X179070000Y-56652240D01*
X179186525Y-56826632D01*
X179393368Y-57033475D01*
X179636589Y-57195990D01*
X179906842Y-57307932D01*
X180193740Y-57365000D01*
X180486260Y-57365000D01*
X180773158Y-57307932D01*
X181043411Y-57195990D01*
X181286632Y-57033475D01*
X181493475Y-56826632D01*
X181610000Y-56652240D01*
X181726525Y-56826632D01*
X181933368Y-57033475D01*
X182176589Y-57195990D01*
X182446842Y-57307932D01*
X182733740Y-57365000D01*
X183026260Y-57365000D01*
X183313158Y-57307932D01*
X183583411Y-57195990D01*
X183826632Y-57033475D01*
X184033475Y-56826632D01*
X184150000Y-56652240D01*
X184266525Y-56826632D01*
X184473368Y-57033475D01*
X184716589Y-57195990D01*
X184986842Y-57307932D01*
X185273740Y-57365000D01*
X185566260Y-57365000D01*
X185853158Y-57307932D01*
X186123411Y-57195990D01*
X186366632Y-57033475D01*
X186573475Y-56826632D01*
X186690000Y-56652240D01*
X186806525Y-56826632D01*
X187013368Y-57033475D01*
X187256589Y-57195990D01*
X187526842Y-57307932D01*
X187813740Y-57365000D01*
X188106260Y-57365000D01*
X188393158Y-57307932D01*
X188663411Y-57195990D01*
X188906632Y-57033475D01*
X189113475Y-56826632D01*
X189230000Y-56652240D01*
X189346525Y-56826632D01*
X189553368Y-57033475D01*
X189796589Y-57195990D01*
X190066842Y-57307932D01*
X190353740Y-57365000D01*
X190646260Y-57365000D01*
X190933158Y-57307932D01*
X191203411Y-57195990D01*
X191446632Y-57033475D01*
X191653475Y-56826632D01*
X191775195Y-56644466D01*
X191844822Y-56761355D01*
X192039731Y-56977588D01*
X192273080Y-57151641D01*
X192535901Y-57276825D01*
X192683110Y-57321476D01*
X192913000Y-57200155D01*
X192913000Y-56007000D01*
X193167000Y-56007000D01*
X193167000Y-57200155D01*
X193396890Y-57321476D01*
X193544099Y-57276825D01*
X193806920Y-57151641D01*
X194040269Y-56977588D01*
X194083279Y-56929872D01*
X249225000Y-56929872D01*
X249225000Y-57370128D01*
X249310890Y-57801925D01*
X249479369Y-58208669D01*
X249723962Y-58574729D01*
X250035271Y-58886038D01*
X250401331Y-59130631D01*
X250808075Y-59299110D01*
X251239872Y-59385000D01*
X251680128Y-59385000D01*
X252111925Y-59299110D01*
X252518669Y-59130631D01*
X252884729Y-58886038D01*
X253196038Y-58574729D01*
X253440631Y-58208669D01*
X253609110Y-57801925D01*
X253695000Y-57370128D01*
X253695000Y-56929872D01*
X253609110Y-56498075D01*
X253440631Y-56091331D01*
X253196038Y-55725271D01*
X252884729Y-55413962D01*
X252518669Y-55169369D01*
X252111925Y-55000890D01*
X251680128Y-54915000D01*
X251239872Y-54915000D01*
X250808075Y-55000890D01*
X250401331Y-55169369D01*
X250035271Y-55413962D01*
X249723962Y-55725271D01*
X249479369Y-56091331D01*
X249310890Y-56498075D01*
X249225000Y-56929872D01*
X194083279Y-56929872D01*
X194235178Y-56761355D01*
X194384157Y-56511252D01*
X194481481Y-56236891D01*
X194360814Y-56007000D01*
X193167000Y-56007000D01*
X192913000Y-56007000D01*
X192893000Y-56007000D01*
X192893000Y-55753000D01*
X192913000Y-55753000D01*
X192913000Y-55733000D01*
X193167000Y-55733000D01*
X193167000Y-55753000D01*
X194360814Y-55753000D01*
X194481481Y-55523109D01*
X194384157Y-55248748D01*
X194235178Y-54998645D01*
X194040269Y-54782412D01*
X193979386Y-54737000D01*
X253416990Y-54737000D01*
X253659667Y-54934922D01*
X253873000Y-55192797D01*
X253873000Y-78156991D01*
X253675078Y-78399667D01*
X253417203Y-78613000D01*
X114883009Y-78613000D01*
X114640333Y-78415078D01*
X114427000Y-78157203D01*
X114427000Y-75979872D01*
X114605000Y-75979872D01*
X114605000Y-76420128D01*
X114690890Y-76851925D01*
X114859369Y-77258669D01*
X115103962Y-77624729D01*
X115415271Y-77936038D01*
X115781331Y-78180631D01*
X116188075Y-78349110D01*
X116619872Y-78435000D01*
X117060128Y-78435000D01*
X117491925Y-78349110D01*
X117898669Y-78180631D01*
X118264729Y-77936038D01*
X118576038Y-77624729D01*
X118820631Y-77258669D01*
X118989110Y-76851925D01*
X119075000Y-76420128D01*
X119075000Y-75979872D01*
X249225000Y-75979872D01*
X249225000Y-76420128D01*
X249310890Y-76851925D01*
X249479369Y-77258669D01*
X249723962Y-77624729D01*
X250035271Y-77936038D01*
X250401331Y-78180631D01*
X250808075Y-78349110D01*
X251239872Y-78435000D01*
X251680128Y-78435000D01*
X252111925Y-78349110D01*
X252518669Y-78180631D01*
X252884729Y-77936038D01*
X253196038Y-77624729D01*
X253440631Y-77258669D01*
X253609110Y-76851925D01*
X253695000Y-76420128D01*
X253695000Y-75979872D01*
X253609110Y-75548075D01*
X253440631Y-75141331D01*
X253196038Y-74775271D01*
X252884729Y-74463962D01*
X252518669Y-74219369D01*
X252111925Y-74050890D01*
X251680128Y-73965000D01*
X251239872Y-73965000D01*
X250808075Y-74050890D01*
X250401331Y-74219369D01*
X250035271Y-74463962D01*
X249723962Y-74775271D01*
X249479369Y-75141331D01*
X249310890Y-75548075D01*
X249225000Y-75979872D01*
X119075000Y-75979872D01*
X118989110Y-75548075D01*
X118820631Y-75141331D01*
X118576038Y-74775271D01*
X118264729Y-74463962D01*
X117898669Y-74219369D01*
X117491925Y-74050890D01*
X117060128Y-73965000D01*
X116619872Y-73965000D01*
X116188075Y-74050890D01*
X115781331Y-74219369D01*
X115415271Y-74463962D01*
X115103962Y-74775271D01*
X114859369Y-75141331D01*
X114690890Y-75548075D01*
X114605000Y-75979872D01*
X114427000Y-75979872D01*
X114427000Y-67099721D01*
X121055000Y-67099721D01*
X121055000Y-67520279D01*
X121137047Y-67932756D01*
X121297988Y-68321302D01*
X121531637Y-68670983D01*
X121829017Y-68968363D01*
X122178698Y-69202012D01*
X122567244Y-69362953D01*
X122979721Y-69445000D01*
X123400279Y-69445000D01*
X123812756Y-69362953D01*
X124201302Y-69202012D01*
X124498578Y-69003379D01*
X124466261Y-69081399D01*
X124365000Y-69590475D01*
X124365000Y-70109525D01*
X124466261Y-70618601D01*
X124664893Y-71098141D01*
X124953262Y-71529715D01*
X125320285Y-71896738D01*
X125751859Y-72185107D01*
X126231399Y-72383739D01*
X126740475Y-72485000D01*
X127259525Y-72485000D01*
X127768601Y-72383739D01*
X128248141Y-72185107D01*
X128679715Y-71896738D01*
X129046738Y-71529715D01*
X129335107Y-71098141D01*
X129533739Y-70618601D01*
X129635000Y-70109525D01*
X129635000Y-69590475D01*
X129533739Y-69081399D01*
X129335107Y-68601859D01*
X129046738Y-68170285D01*
X128679715Y-67803262D01*
X128248141Y-67514893D01*
X127768601Y-67316261D01*
X127259525Y-67215000D01*
X126740475Y-67215000D01*
X126231399Y-67316261D01*
X125751859Y-67514893D01*
X125320285Y-67803262D01*
X125255905Y-67867642D01*
X125325000Y-67520279D01*
X125325000Y-67099721D01*
X140105000Y-67099721D01*
X140105000Y-67520279D01*
X140187047Y-67932756D01*
X140347988Y-68321302D01*
X140581637Y-68670983D01*
X140879017Y-68968363D01*
X141228698Y-69202012D01*
X141617244Y-69362953D01*
X142029721Y-69445000D01*
X142450279Y-69445000D01*
X142862756Y-69362953D01*
X143251302Y-69202012D01*
X143548578Y-69003379D01*
X143516261Y-69081399D01*
X143415000Y-69590475D01*
X143415000Y-70109525D01*
X143516261Y-70618601D01*
X143714893Y-71098141D01*
X144003262Y-71529715D01*
X144370285Y-71896738D01*
X144801859Y-72185107D01*
X145281399Y-72383739D01*
X145790475Y-72485000D01*
X146309525Y-72485000D01*
X146818601Y-72383739D01*
X147298141Y-72185107D01*
X147729715Y-71896738D01*
X148096738Y-71529715D01*
X148385107Y-71098141D01*
X148583739Y-70618601D01*
X148685000Y-70109525D01*
X148685000Y-69590475D01*
X148583739Y-69081399D01*
X148385107Y-68601859D01*
X148096738Y-68170285D01*
X147729715Y-67803262D01*
X147298141Y-67514893D01*
X146818601Y-67316261D01*
X146309525Y-67215000D01*
X145790475Y-67215000D01*
X145281399Y-67316261D01*
X144801859Y-67514893D01*
X144370285Y-67803262D01*
X144305905Y-67867642D01*
X144375000Y-67520279D01*
X144375000Y-67099721D01*
X159155000Y-67099721D01*
X159155000Y-67520279D01*
X159237047Y-67932756D01*
X159397988Y-68321302D01*
X159631637Y-68670983D01*
X159929017Y-68968363D01*
X160278698Y-69202012D01*
X160667244Y-69362953D01*
X161079721Y-69445000D01*
X161500279Y-69445000D01*
X161912756Y-69362953D01*
X162301302Y-69202012D01*
X162598578Y-69003379D01*
X162566261Y-69081399D01*
X162465000Y-69590475D01*
X162465000Y-70109525D01*
X162566261Y-70618601D01*
X162764893Y-71098141D01*
X163053262Y-71529715D01*
X163420285Y-71896738D01*
X163851859Y-72185107D01*
X164331399Y-72383739D01*
X164840475Y-72485000D01*
X165359525Y-72485000D01*
X165868601Y-72383739D01*
X166348141Y-72185107D01*
X166779715Y-71896738D01*
X167146738Y-71529715D01*
X167435107Y-71098141D01*
X167633739Y-70618601D01*
X167735000Y-70109525D01*
X167735000Y-69590475D01*
X167633739Y-69081399D01*
X167435107Y-68601859D01*
X167146738Y-68170285D01*
X166779715Y-67803262D01*
X166348141Y-67514893D01*
X165868601Y-67316261D01*
X165359525Y-67215000D01*
X164840475Y-67215000D01*
X164331399Y-67316261D01*
X163851859Y-67514893D01*
X163420285Y-67803262D01*
X163355905Y-67867642D01*
X163425000Y-67520279D01*
X163425000Y-67099721D01*
X178205000Y-67099721D01*
X178205000Y-67520279D01*
X178287047Y-67932756D01*
X178447988Y-68321302D01*
X178681637Y-68670983D01*
X178979017Y-68968363D01*
X179328698Y-69202012D01*
X179717244Y-69362953D01*
X180129721Y-69445000D01*
X180550279Y-69445000D01*
X180962756Y-69362953D01*
X181351302Y-69202012D01*
X181648578Y-69003379D01*
X181616261Y-69081399D01*
X181515000Y-69590475D01*
X181515000Y-70109525D01*
X181616261Y-70618601D01*
X181814893Y-71098141D01*
X182103262Y-71529715D01*
X182470285Y-71896738D01*
X182901859Y-72185107D01*
X183381399Y-72383739D01*
X183890475Y-72485000D01*
X184409525Y-72485000D01*
X184918601Y-72383739D01*
X185398141Y-72185107D01*
X185829715Y-71896738D01*
X186196738Y-71529715D01*
X186485107Y-71098141D01*
X186683739Y-70618601D01*
X186785000Y-70109525D01*
X186785000Y-69590475D01*
X186683739Y-69081399D01*
X186485107Y-68601859D01*
X186196738Y-68170285D01*
X185829715Y-67803262D01*
X185398141Y-67514893D01*
X184918601Y-67316261D01*
X184409525Y-67215000D01*
X183890475Y-67215000D01*
X183381399Y-67316261D01*
X182901859Y-67514893D01*
X182470285Y-67803262D01*
X182405905Y-67867642D01*
X182475000Y-67520279D01*
X182475000Y-67099721D01*
X197255000Y-67099721D01*
X197255000Y-67520279D01*
X197337047Y-67932756D01*
X197497988Y-68321302D01*
X197731637Y-68670983D01*
X198029017Y-68968363D01*
X198378698Y-69202012D01*
X198767244Y-69362953D01*
X199179721Y-69445000D01*
X199600279Y-69445000D01*
X200012756Y-69362953D01*
X200401302Y-69202012D01*
X200698578Y-69003379D01*
X200666261Y-69081399D01*
X200565000Y-69590475D01*
X200565000Y-70109525D01*
X200666261Y-70618601D01*
X200864893Y-71098141D01*
X201153262Y-71529715D01*
X201520285Y-71896738D01*
X201951859Y-72185107D01*
X202431399Y-72383739D01*
X202940475Y-72485000D01*
X203459525Y-72485000D01*
X203968601Y-72383739D01*
X204448141Y-72185107D01*
X204879715Y-71896738D01*
X205246738Y-71529715D01*
X205535107Y-71098141D01*
X205733739Y-70618601D01*
X205835000Y-70109525D01*
X205835000Y-69590475D01*
X205733739Y-69081399D01*
X205535107Y-68601859D01*
X205246738Y-68170285D01*
X204879715Y-67803262D01*
X204448141Y-67514893D01*
X203968601Y-67316261D01*
X203459525Y-67215000D01*
X202940475Y-67215000D01*
X202431399Y-67316261D01*
X201951859Y-67514893D01*
X201520285Y-67803262D01*
X201455905Y-67867642D01*
X201525000Y-67520279D01*
X201525000Y-67099721D01*
X216305000Y-67099721D01*
X216305000Y-67520279D01*
X216387047Y-67932756D01*
X216547988Y-68321302D01*
X216781637Y-68670983D01*
X217079017Y-68968363D01*
X217428698Y-69202012D01*
X217817244Y-69362953D01*
X218229721Y-69445000D01*
X218650279Y-69445000D01*
X219062756Y-69362953D01*
X219451302Y-69202012D01*
X219748578Y-69003379D01*
X219716261Y-69081399D01*
X219615000Y-69590475D01*
X219615000Y-70109525D01*
X219716261Y-70618601D01*
X219914893Y-71098141D01*
X220203262Y-71529715D01*
X220570285Y-71896738D01*
X221001859Y-72185107D01*
X221481399Y-72383739D01*
X221990475Y-72485000D01*
X222509525Y-72485000D01*
X223018601Y-72383739D01*
X223498141Y-72185107D01*
X223929715Y-71896738D01*
X224296738Y-71529715D01*
X224585107Y-71098141D01*
X224783739Y-70618601D01*
X224885000Y-70109525D01*
X224885000Y-69590475D01*
X224783739Y-69081399D01*
X224585107Y-68601859D01*
X224296738Y-68170285D01*
X223929715Y-67803262D01*
X223498141Y-67514893D01*
X223018601Y-67316261D01*
X222509525Y-67215000D01*
X221990475Y-67215000D01*
X221481399Y-67316261D01*
X221001859Y-67514893D01*
X220570285Y-67803262D01*
X220505905Y-67867642D01*
X220575000Y-67520279D01*
X220575000Y-67099721D01*
X235355000Y-67099721D01*
X235355000Y-67520279D01*
X235437047Y-67932756D01*
X235597988Y-68321302D01*
X235831637Y-68670983D01*
X236129017Y-68968363D01*
X236478698Y-69202012D01*
X236867244Y-69362953D01*
X237279721Y-69445000D01*
X237700279Y-69445000D01*
X238112756Y-69362953D01*
X238501302Y-69202012D01*
X238798578Y-69003379D01*
X238766261Y-69081399D01*
X238665000Y-69590475D01*
X238665000Y-70109525D01*
X238766261Y-70618601D01*
X238964893Y-71098141D01*
X239253262Y-71529715D01*
X239620285Y-71896738D01*
X240051859Y-72185107D01*
X240531399Y-72383739D01*
X241040475Y-72485000D01*
X241559525Y-72485000D01*
X242068601Y-72383739D01*
X242548141Y-72185107D01*
X242979715Y-71896738D01*
X243346738Y-71529715D01*
X243635107Y-71098141D01*
X243833739Y-70618601D01*
X243935000Y-70109525D01*
X243935000Y-69590475D01*
X243833739Y-69081399D01*
X243635107Y-68601859D01*
X243346738Y-68170285D01*
X242979715Y-67803262D01*
X242548141Y-67514893D01*
X242068601Y-67316261D01*
X241559525Y-67215000D01*
X241040475Y-67215000D01*
X240531399Y-67316261D01*
X240051859Y-67514893D01*
X239620285Y-67803262D01*
X239555905Y-67867642D01*
X239625000Y-67520279D01*
X239625000Y-67099721D01*
X239542953Y-66687244D01*
X239382012Y-66298698D01*
X239357260Y-66261653D01*
X242527952Y-66261653D01*
X242683962Y-66577214D01*
X243058745Y-66768020D01*
X243463551Y-66882044D01*
X243882824Y-66914902D01*
X244300451Y-66865334D01*
X244700383Y-66735243D01*
X244996038Y-66577214D01*
X245152048Y-66261653D01*
X243840000Y-64949605D01*
X242527952Y-66261653D01*
X239357260Y-66261653D01*
X239148363Y-65949017D01*
X238850983Y-65651637D01*
X238501302Y-65417988D01*
X238112756Y-65257047D01*
X237700279Y-65175000D01*
X237279721Y-65175000D01*
X236867244Y-65257047D01*
X236478698Y-65417988D01*
X236129017Y-65651637D01*
X235831637Y-65949017D01*
X235597988Y-66298698D01*
X235437047Y-66687244D01*
X235355000Y-67099721D01*
X220575000Y-67099721D01*
X220492953Y-66687244D01*
X220332012Y-66298698D01*
X220307260Y-66261653D01*
X223477952Y-66261653D01*
X223633962Y-66577214D01*
X224008745Y-66768020D01*
X224413551Y-66882044D01*
X224832824Y-66914902D01*
X225250451Y-66865334D01*
X225650383Y-66735243D01*
X225946038Y-66577214D01*
X226102048Y-66261653D01*
X224790000Y-64949605D01*
X223477952Y-66261653D01*
X220307260Y-66261653D01*
X220098363Y-65949017D01*
X219800983Y-65651637D01*
X219451302Y-65417988D01*
X219062756Y-65257047D01*
X218650279Y-65175000D01*
X218229721Y-65175000D01*
X217817244Y-65257047D01*
X217428698Y-65417988D01*
X217079017Y-65651637D01*
X216781637Y-65949017D01*
X216547988Y-66298698D01*
X216387047Y-66687244D01*
X216305000Y-67099721D01*
X201525000Y-67099721D01*
X201442953Y-66687244D01*
X201282012Y-66298698D01*
X201257260Y-66261653D01*
X204427952Y-66261653D01*
X204583962Y-66577214D01*
X204958745Y-66768020D01*
X205363551Y-66882044D01*
X205782824Y-66914902D01*
X206200451Y-66865334D01*
X206600383Y-66735243D01*
X206896038Y-66577214D01*
X207052048Y-66261653D01*
X205740000Y-64949605D01*
X204427952Y-66261653D01*
X201257260Y-66261653D01*
X201048363Y-65949017D01*
X200750983Y-65651637D01*
X200401302Y-65417988D01*
X200012756Y-65257047D01*
X199600279Y-65175000D01*
X199179721Y-65175000D01*
X198767244Y-65257047D01*
X198378698Y-65417988D01*
X198029017Y-65651637D01*
X197731637Y-65949017D01*
X197497988Y-66298698D01*
X197337047Y-66687244D01*
X197255000Y-67099721D01*
X182475000Y-67099721D01*
X182392953Y-66687244D01*
X182232012Y-66298698D01*
X182207260Y-66261653D01*
X185377952Y-66261653D01*
X185533962Y-66577214D01*
X185908745Y-66768020D01*
X186313551Y-66882044D01*
X186732824Y-66914902D01*
X187150451Y-66865334D01*
X187550383Y-66735243D01*
X187846038Y-66577214D01*
X188002048Y-66261653D01*
X186690000Y-64949605D01*
X185377952Y-66261653D01*
X182207260Y-66261653D01*
X181998363Y-65949017D01*
X181700983Y-65651637D01*
X181351302Y-65417988D01*
X180962756Y-65257047D01*
X180550279Y-65175000D01*
X180129721Y-65175000D01*
X179717244Y-65257047D01*
X179328698Y-65417988D01*
X178979017Y-65651637D01*
X178681637Y-65949017D01*
X178447988Y-66298698D01*
X178287047Y-66687244D01*
X178205000Y-67099721D01*
X163425000Y-67099721D01*
X163342953Y-66687244D01*
X163182012Y-66298698D01*
X163157260Y-66261653D01*
X166327952Y-66261653D01*
X166483962Y-66577214D01*
X166858745Y-66768020D01*
X167263551Y-66882044D01*
X167682824Y-66914902D01*
X168100451Y-66865334D01*
X168500383Y-66735243D01*
X168796038Y-66577214D01*
X168952048Y-66261653D01*
X167640000Y-64949605D01*
X166327952Y-66261653D01*
X163157260Y-66261653D01*
X162948363Y-65949017D01*
X162650983Y-65651637D01*
X162301302Y-65417988D01*
X161912756Y-65257047D01*
X161500279Y-65175000D01*
X161079721Y-65175000D01*
X160667244Y-65257047D01*
X160278698Y-65417988D01*
X159929017Y-65651637D01*
X159631637Y-65949017D01*
X159397988Y-66298698D01*
X159237047Y-66687244D01*
X159155000Y-67099721D01*
X144375000Y-67099721D01*
X144292953Y-66687244D01*
X144132012Y-66298698D01*
X144107260Y-66261653D01*
X147277952Y-66261653D01*
X147433962Y-66577214D01*
X147808745Y-66768020D01*
X148213551Y-66882044D01*
X148632824Y-66914902D01*
X149050451Y-66865334D01*
X149450383Y-66735243D01*
X149746038Y-66577214D01*
X149902048Y-66261653D01*
X148590000Y-64949605D01*
X147277952Y-66261653D01*
X144107260Y-66261653D01*
X143898363Y-65949017D01*
X143600983Y-65651637D01*
X143251302Y-65417988D01*
X142862756Y-65257047D01*
X142450279Y-65175000D01*
X142029721Y-65175000D01*
X141617244Y-65257047D01*
X141228698Y-65417988D01*
X140879017Y-65651637D01*
X140581637Y-65949017D01*
X140347988Y-66298698D01*
X140187047Y-66687244D01*
X140105000Y-67099721D01*
X125325000Y-67099721D01*
X125242953Y-66687244D01*
X125082012Y-66298698D01*
X125057260Y-66261653D01*
X128227952Y-66261653D01*
X128383962Y-66577214D01*
X128758745Y-66768020D01*
X129163551Y-66882044D01*
X129582824Y-66914902D01*
X130000451Y-66865334D01*
X130400383Y-66735243D01*
X130696038Y-66577214D01*
X130852048Y-66261653D01*
X129540000Y-64949605D01*
X128227952Y-66261653D01*
X125057260Y-66261653D01*
X124848363Y-65949017D01*
X124550983Y-65651637D01*
X124201302Y-65417988D01*
X123812756Y-65257047D01*
X123400279Y-65175000D01*
X122979721Y-65175000D01*
X122567244Y-65257047D01*
X122178698Y-65417988D01*
X121829017Y-65651637D01*
X121531637Y-65949017D01*
X121297988Y-66298698D01*
X121137047Y-66687244D01*
X121055000Y-67099721D01*
X114427000Y-67099721D01*
X114427000Y-64812824D01*
X127395098Y-64812824D01*
X127444666Y-65230451D01*
X127574757Y-65630383D01*
X127732786Y-65926038D01*
X128048347Y-66082048D01*
X129360395Y-64770000D01*
X129719605Y-64770000D01*
X131031653Y-66082048D01*
X131347214Y-65926038D01*
X131538020Y-65551255D01*
X131652044Y-65146449D01*
X131678189Y-64812824D01*
X146445098Y-64812824D01*
X146494666Y-65230451D01*
X146624757Y-65630383D01*
X146782786Y-65926038D01*
X147098347Y-66082048D01*
X148410395Y-64770000D01*
X148769605Y-64770000D01*
X150081653Y-66082048D01*
X150397214Y-65926038D01*
X150588020Y-65551255D01*
X150702044Y-65146449D01*
X150728189Y-64812824D01*
X165495098Y-64812824D01*
X165544666Y-65230451D01*
X165674757Y-65630383D01*
X165832786Y-65926038D01*
X166148347Y-66082048D01*
X167460395Y-64770000D01*
X167819605Y-64770000D01*
X169131653Y-66082048D01*
X169447214Y-65926038D01*
X169638020Y-65551255D01*
X169752044Y-65146449D01*
X169778189Y-64812824D01*
X184545098Y-64812824D01*
X184594666Y-65230451D01*
X184724757Y-65630383D01*
X184882786Y-65926038D01*
X185198347Y-66082048D01*
X186510395Y-64770000D01*
X186869605Y-64770000D01*
X188181653Y-66082048D01*
X188497214Y-65926038D01*
X188688020Y-65551255D01*
X188802044Y-65146449D01*
X188828189Y-64812824D01*
X203595098Y-64812824D01*
X203644666Y-65230451D01*
X203774757Y-65630383D01*
X203932786Y-65926038D01*
X204248347Y-66082048D01*
X205560395Y-64770000D01*
X205919605Y-64770000D01*
X207231653Y-66082048D01*
X207547214Y-65926038D01*
X207738020Y-65551255D01*
X207852044Y-65146449D01*
X207878189Y-64812824D01*
X222645098Y-64812824D01*
X222694666Y-65230451D01*
X222824757Y-65630383D01*
X222982786Y-65926038D01*
X223298347Y-66082048D01*
X224610395Y-64770000D01*
X224969605Y-64770000D01*
X226281653Y-66082048D01*
X226597214Y-65926038D01*
X226788020Y-65551255D01*
X226902044Y-65146449D01*
X226928189Y-64812824D01*
X241695098Y-64812824D01*
X241744666Y-65230451D01*
X241874757Y-65630383D01*
X242032786Y-65926038D01*
X242348347Y-66082048D01*
X243660395Y-64770000D01*
X244019605Y-64770000D01*
X245331653Y-66082048D01*
X245647214Y-65926038D01*
X245838020Y-65551255D01*
X245952044Y-65146449D01*
X245984902Y-64727176D01*
X245935334Y-64309549D01*
X245805243Y-63909617D01*
X245647214Y-63613962D01*
X245331653Y-63457952D01*
X244019605Y-64770000D01*
X243660395Y-64770000D01*
X242348347Y-63457952D01*
X242032786Y-63613962D01*
X241841980Y-63988745D01*
X241727956Y-64393551D01*
X241695098Y-64812824D01*
X226928189Y-64812824D01*
X226934902Y-64727176D01*
X226885334Y-64309549D01*
X226755243Y-63909617D01*
X226597214Y-63613962D01*
X226281653Y-63457952D01*
X224969605Y-64770000D01*
X224610395Y-64770000D01*
X223298347Y-63457952D01*
X222982786Y-63613962D01*
X222791980Y-63988745D01*
X222677956Y-64393551D01*
X222645098Y-64812824D01*
X207878189Y-64812824D01*
X207884902Y-64727176D01*
X207835334Y-64309549D01*
X207705243Y-63909617D01*
X207547214Y-63613962D01*
X207231653Y-63457952D01*
X205919605Y-64770000D01*
X205560395Y-64770000D01*
X204248347Y-63457952D01*
X203932786Y-63613962D01*
X203741980Y-63988745D01*
X203627956Y-64393551D01*
X203595098Y-64812824D01*
X188828189Y-64812824D01*
X188834902Y-64727176D01*
X188785334Y-64309549D01*
X188655243Y-63909617D01*
X188497214Y-63613962D01*
X188181653Y-63457952D01*
X186869605Y-64770000D01*
X186510395Y-64770000D01*
X185198347Y-63457952D01*
X184882786Y-63613962D01*
X184691980Y-63988745D01*
X184577956Y-64393551D01*
X184545098Y-64812824D01*
X169778189Y-64812824D01*
X169784902Y-64727176D01*
X169735334Y-64309549D01*
X169605243Y-63909617D01*
X169447214Y-63613962D01*
X169131653Y-63457952D01*
X167819605Y-64770000D01*
X167460395Y-64770000D01*
X166148347Y-63457952D01*
X165832786Y-63613962D01*
X165641980Y-63988745D01*
X165527956Y-64393551D01*
X165495098Y-64812824D01*
X150728189Y-64812824D01*
X150734902Y-64727176D01*
X150685334Y-64309549D01*
X150555243Y-63909617D01*
X150397214Y-63613962D01*
X150081653Y-63457952D01*
X148769605Y-64770000D01*
X148410395Y-64770000D01*
X147098347Y-63457952D01*
X146782786Y-63613962D01*
X146591980Y-63988745D01*
X146477956Y-64393551D01*
X146445098Y-64812824D01*
X131678189Y-64812824D01*
X131684902Y-64727176D01*
X131635334Y-64309549D01*
X131505243Y-63909617D01*
X131347214Y-63613962D01*
X131031653Y-63457952D01*
X129719605Y-64770000D01*
X129360395Y-64770000D01*
X128048347Y-63457952D01*
X127732786Y-63613962D01*
X127541980Y-63988745D01*
X127427956Y-64393551D01*
X127395098Y-64812824D01*
X114427000Y-64812824D01*
X114427000Y-63278347D01*
X128227952Y-63278347D01*
X129540000Y-64590395D01*
X130852048Y-63278347D01*
X147277952Y-63278347D01*
X148590000Y-64590395D01*
X149902048Y-63278347D01*
X166327952Y-63278347D01*
X167640000Y-64590395D01*
X168952048Y-63278347D01*
X185377952Y-63278347D01*
X186690000Y-64590395D01*
X188002048Y-63278347D01*
X204427952Y-63278347D01*
X205740000Y-64590395D01*
X207052048Y-63278347D01*
X223477952Y-63278347D01*
X224790000Y-64590395D01*
X226102048Y-63278347D01*
X242527952Y-63278347D01*
X243840000Y-64590395D01*
X245152048Y-63278347D01*
X244996038Y-62962786D01*
X244621255Y-62771980D01*
X244216449Y-62657956D01*
X243797176Y-62625098D01*
X243379549Y-62674666D01*
X242979617Y-62804757D01*
X242683962Y-62962786D01*
X242527952Y-63278347D01*
X226102048Y-63278347D01*
X225946038Y-62962786D01*
X225571255Y-62771980D01*
X225166449Y-62657956D01*
X224747176Y-62625098D01*
X224329549Y-62674666D01*
X223929617Y-62804757D01*
X223633962Y-62962786D01*
X223477952Y-63278347D01*
X207052048Y-63278347D01*
X206896038Y-62962786D01*
X206521255Y-62771980D01*
X206116449Y-62657956D01*
X205697176Y-62625098D01*
X205279549Y-62674666D01*
X204879617Y-62804757D01*
X204583962Y-62962786D01*
X204427952Y-63278347D01*
X188002048Y-63278347D01*
X187846038Y-62962786D01*
X187471255Y-62771980D01*
X187066449Y-62657956D01*
X186647176Y-62625098D01*
X186229549Y-62674666D01*
X185829617Y-62804757D01*
X185533962Y-62962786D01*
X185377952Y-63278347D01*
X168952048Y-63278347D01*
X168796038Y-62962786D01*
X168421255Y-62771980D01*
X168016449Y-62657956D01*
X167597176Y-62625098D01*
X167179549Y-62674666D01*
X166779617Y-62804757D01*
X166483962Y-62962786D01*
X166327952Y-63278347D01*
X149902048Y-63278347D01*
X149746038Y-62962786D01*
X149371255Y-62771980D01*
X148966449Y-62657956D01*
X148547176Y-62625098D01*
X148129549Y-62674666D01*
X147729617Y-62804757D01*
X147433962Y-62962786D01*
X147277952Y-63278347D01*
X130852048Y-63278347D01*
X130696038Y-62962786D01*
X130321255Y-62771980D01*
X129916449Y-62657956D01*
X129497176Y-62625098D01*
X129079549Y-62674666D01*
X128679617Y-62804757D01*
X128383962Y-62962786D01*
X128227952Y-63278347D01*
X114427000Y-63278347D01*
X114427000Y-56929872D01*
X114605000Y-56929872D01*
X114605000Y-57370128D01*
X114690890Y-57801925D01*
X114859369Y-58208669D01*
X115103962Y-58574729D01*
X115415271Y-58886038D01*
X115781331Y-59130631D01*
X116188075Y-59299110D01*
X116619872Y-59385000D01*
X117060128Y-59385000D01*
X117491925Y-59299110D01*
X117898669Y-59130631D01*
X118264729Y-58886038D01*
X118576038Y-58574729D01*
X118820631Y-58208669D01*
X118989110Y-57801925D01*
X119075000Y-57370128D01*
X119075000Y-56929872D01*
X118989110Y-56498075D01*
X118820631Y-56091331D01*
X118576038Y-55725271D01*
X118264729Y-55413962D01*
X117898669Y-55169369D01*
X117491925Y-55000890D01*
X117060128Y-54915000D01*
X116619872Y-54915000D01*
X116188075Y-55000890D01*
X115781331Y-55169369D01*
X115415271Y-55413962D01*
X115103962Y-55725271D01*
X114859369Y-56091331D01*
X114690890Y-56498075D01*
X114605000Y-56929872D01*
X114427000Y-56929872D01*
X114427000Y-55193010D01*
X114624922Y-54950333D01*
X114882797Y-54737000D01*
X171306593Y-54737000D01*
X171280498Y-54785820D01*
%TA.AperFunction,Conductor*%
D17*
G36*
X171280498Y-54785820D02*
G01*
X171244188Y-54905518D01*
X171231928Y-55030000D01*
X171231928Y-56730000D01*
X171244188Y-56854482D01*
X171280498Y-56974180D01*
X171339463Y-57084494D01*
X171418815Y-57181185D01*
X171515506Y-57260537D01*
X171625820Y-57319502D01*
X171745518Y-57355812D01*
X171870000Y-57368072D01*
X173570000Y-57368072D01*
X173694482Y-57355812D01*
X173814180Y-57319502D01*
X173924494Y-57260537D01*
X174021185Y-57181185D01*
X174100537Y-57084494D01*
X174159502Y-56974180D01*
X174181513Y-56901620D01*
X174313368Y-57033475D01*
X174556589Y-57195990D01*
X174826842Y-57307932D01*
X175113740Y-57365000D01*
X175406260Y-57365000D01*
X175693158Y-57307932D01*
X175963411Y-57195990D01*
X176206632Y-57033475D01*
X176413475Y-56826632D01*
X176530000Y-56652240D01*
X176646525Y-56826632D01*
X176853368Y-57033475D01*
X177096589Y-57195990D01*
X177366842Y-57307932D01*
X177653740Y-57365000D01*
X177946260Y-57365000D01*
X178233158Y-57307932D01*
X178503411Y-57195990D01*
X178746632Y-57033475D01*
X178953475Y-56826632D01*
X179070000Y-56652240D01*
X179186525Y-56826632D01*
X179393368Y-57033475D01*
X179636589Y-57195990D01*
X179906842Y-57307932D01*
X180193740Y-57365000D01*
X180486260Y-57365000D01*
X180773158Y-57307932D01*
X181043411Y-57195990D01*
X181286632Y-57033475D01*
X181493475Y-56826632D01*
X181610000Y-56652240D01*
X181726525Y-56826632D01*
X181933368Y-57033475D01*
X182176589Y-57195990D01*
X182446842Y-57307932D01*
X182733740Y-57365000D01*
X183026260Y-57365000D01*
X183313158Y-57307932D01*
X183583411Y-57195990D01*
X183826632Y-57033475D01*
X184033475Y-56826632D01*
X184150000Y-56652240D01*
X184266525Y-56826632D01*
X184473368Y-57033475D01*
X184716589Y-57195990D01*
X184986842Y-57307932D01*
X185273740Y-57365000D01*
X185566260Y-57365000D01*
X185853158Y-57307932D01*
X186123411Y-57195990D01*
X186366632Y-57033475D01*
X186573475Y-56826632D01*
X186690000Y-56652240D01*
X186806525Y-56826632D01*
X187013368Y-57033475D01*
X187256589Y-57195990D01*
X187526842Y-57307932D01*
X187813740Y-57365000D01*
X188106260Y-57365000D01*
X188393158Y-57307932D01*
X188663411Y-57195990D01*
X188906632Y-57033475D01*
X189113475Y-56826632D01*
X189230000Y-56652240D01*
X189346525Y-56826632D01*
X189553368Y-57033475D01*
X189796589Y-57195990D01*
X190066842Y-57307932D01*
X190353740Y-57365000D01*
X190646260Y-57365000D01*
X190933158Y-57307932D01*
X191203411Y-57195990D01*
X191446632Y-57033475D01*
X191653475Y-56826632D01*
X191775195Y-56644466D01*
X191844822Y-56761355D01*
X192039731Y-56977588D01*
X192273080Y-57151641D01*
X192535901Y-57276825D01*
X192683110Y-57321476D01*
X192913000Y-57200155D01*
X192913000Y-56007000D01*
X193167000Y-56007000D01*
X193167000Y-57200155D01*
X193396890Y-57321476D01*
X193544099Y-57276825D01*
X193806920Y-57151641D01*
X194040269Y-56977588D01*
X194083279Y-56929872D01*
X249225000Y-56929872D01*
X249225000Y-57370128D01*
X249310890Y-57801925D01*
X249479369Y-58208669D01*
X249723962Y-58574729D01*
X250035271Y-58886038D01*
X250401331Y-59130631D01*
X250808075Y-59299110D01*
X251239872Y-59385000D01*
X251680128Y-59385000D01*
X252111925Y-59299110D01*
X252518669Y-59130631D01*
X252884729Y-58886038D01*
X253196038Y-58574729D01*
X253440631Y-58208669D01*
X253609110Y-57801925D01*
X253695000Y-57370128D01*
X253695000Y-56929872D01*
X253609110Y-56498075D01*
X253440631Y-56091331D01*
X253196038Y-55725271D01*
X252884729Y-55413962D01*
X252518669Y-55169369D01*
X252111925Y-55000890D01*
X251680128Y-54915000D01*
X251239872Y-54915000D01*
X250808075Y-55000890D01*
X250401331Y-55169369D01*
X250035271Y-55413962D01*
X249723962Y-55725271D01*
X249479369Y-56091331D01*
X249310890Y-56498075D01*
X249225000Y-56929872D01*
X194083279Y-56929872D01*
X194235178Y-56761355D01*
X194384157Y-56511252D01*
X194481481Y-56236891D01*
X194360814Y-56007000D01*
X193167000Y-56007000D01*
X192913000Y-56007000D01*
X192893000Y-56007000D01*
X192893000Y-55753000D01*
X192913000Y-55753000D01*
X192913000Y-55733000D01*
X193167000Y-55733000D01*
X193167000Y-55753000D01*
X194360814Y-55753000D01*
X194481481Y-55523109D01*
X194384157Y-55248748D01*
X194235178Y-54998645D01*
X194040269Y-54782412D01*
X193979386Y-54737000D01*
X253416990Y-54737000D01*
X253659667Y-54934922D01*
X253873000Y-55192797D01*
X253873000Y-78156991D01*
X253675078Y-78399667D01*
X253417203Y-78613000D01*
X114883009Y-78613000D01*
X114640333Y-78415078D01*
X114427000Y-78157203D01*
X114427000Y-75979872D01*
X114605000Y-75979872D01*
X114605000Y-76420128D01*
X114690890Y-76851925D01*
X114859369Y-77258669D01*
X115103962Y-77624729D01*
X115415271Y-77936038D01*
X115781331Y-78180631D01*
X116188075Y-78349110D01*
X116619872Y-78435000D01*
X117060128Y-78435000D01*
X117491925Y-78349110D01*
X117898669Y-78180631D01*
X118264729Y-77936038D01*
X118576038Y-77624729D01*
X118820631Y-77258669D01*
X118989110Y-76851925D01*
X119075000Y-76420128D01*
X119075000Y-75979872D01*
X249225000Y-75979872D01*
X249225000Y-76420128D01*
X249310890Y-76851925D01*
X249479369Y-77258669D01*
X249723962Y-77624729D01*
X250035271Y-77936038D01*
X250401331Y-78180631D01*
X250808075Y-78349110D01*
X251239872Y-78435000D01*
X251680128Y-78435000D01*
X252111925Y-78349110D01*
X252518669Y-78180631D01*
X252884729Y-77936038D01*
X253196038Y-77624729D01*
X253440631Y-77258669D01*
X253609110Y-76851925D01*
X253695000Y-76420128D01*
X253695000Y-75979872D01*
X253609110Y-75548075D01*
X253440631Y-75141331D01*
X253196038Y-74775271D01*
X252884729Y-74463962D01*
X252518669Y-74219369D01*
X252111925Y-74050890D01*
X251680128Y-73965000D01*
X251239872Y-73965000D01*
X250808075Y-74050890D01*
X250401331Y-74219369D01*
X250035271Y-74463962D01*
X249723962Y-74775271D01*
X249479369Y-75141331D01*
X249310890Y-75548075D01*
X249225000Y-75979872D01*
X119075000Y-75979872D01*
X118989110Y-75548075D01*
X118820631Y-75141331D01*
X118576038Y-74775271D01*
X118264729Y-74463962D01*
X117898669Y-74219369D01*
X117491925Y-74050890D01*
X117060128Y-73965000D01*
X116619872Y-73965000D01*
X116188075Y-74050890D01*
X115781331Y-74219369D01*
X115415271Y-74463962D01*
X115103962Y-74775271D01*
X114859369Y-75141331D01*
X114690890Y-75548075D01*
X114605000Y-75979872D01*
X114427000Y-75979872D01*
X114427000Y-67099721D01*
X121055000Y-67099721D01*
X121055000Y-67520279D01*
X121137047Y-67932756D01*
X121297988Y-68321302D01*
X121531637Y-68670983D01*
X121829017Y-68968363D01*
X122178698Y-69202012D01*
X122567244Y-69362953D01*
X122979721Y-69445000D01*
X123400279Y-69445000D01*
X123812756Y-69362953D01*
X124201302Y-69202012D01*
X124498578Y-69003379D01*
X124466261Y-69081399D01*
X124365000Y-69590475D01*
X124365000Y-70109525D01*
X124466261Y-70618601D01*
X124664893Y-71098141D01*
X124953262Y-71529715D01*
X125320285Y-71896738D01*
X125751859Y-72185107D01*
X126231399Y-72383739D01*
X126740475Y-72485000D01*
X127259525Y-72485000D01*
X127768601Y-72383739D01*
X128248141Y-72185107D01*
X128679715Y-71896738D01*
X129046738Y-71529715D01*
X129335107Y-71098141D01*
X129533739Y-70618601D01*
X129635000Y-70109525D01*
X129635000Y-69590475D01*
X129533739Y-69081399D01*
X129335107Y-68601859D01*
X129046738Y-68170285D01*
X128679715Y-67803262D01*
X128248141Y-67514893D01*
X127768601Y-67316261D01*
X127259525Y-67215000D01*
X126740475Y-67215000D01*
X126231399Y-67316261D01*
X125751859Y-67514893D01*
X125320285Y-67803262D01*
X125255905Y-67867642D01*
X125325000Y-67520279D01*
X125325000Y-67099721D01*
X140105000Y-67099721D01*
X140105000Y-67520279D01*
X140187047Y-67932756D01*
X140347988Y-68321302D01*
X140581637Y-68670983D01*
X140879017Y-68968363D01*
X141228698Y-69202012D01*
X141617244Y-69362953D01*
X142029721Y-69445000D01*
X142450279Y-69445000D01*
X142862756Y-69362953D01*
X143251302Y-69202012D01*
X143548578Y-69003379D01*
X143516261Y-69081399D01*
X143415000Y-69590475D01*
X143415000Y-70109525D01*
X143516261Y-70618601D01*
X143714893Y-71098141D01*
X144003262Y-71529715D01*
X144370285Y-71896738D01*
X144801859Y-72185107D01*
X145281399Y-72383739D01*
X145790475Y-72485000D01*
X146309525Y-72485000D01*
X146818601Y-72383739D01*
X147298141Y-72185107D01*
X147729715Y-71896738D01*
X148096738Y-71529715D01*
X148385107Y-71098141D01*
X148583739Y-70618601D01*
X148685000Y-70109525D01*
X148685000Y-69590475D01*
X148583739Y-69081399D01*
X148385107Y-68601859D01*
X148096738Y-68170285D01*
X147729715Y-67803262D01*
X147298141Y-67514893D01*
X146818601Y-67316261D01*
X146309525Y-67215000D01*
X145790475Y-67215000D01*
X145281399Y-67316261D01*
X144801859Y-67514893D01*
X144370285Y-67803262D01*
X144305905Y-67867642D01*
X144375000Y-67520279D01*
X144375000Y-67099721D01*
X159155000Y-67099721D01*
X159155000Y-67520279D01*
X159237047Y-67932756D01*
X159397988Y-68321302D01*
X159631637Y-68670983D01*
X159929017Y-68968363D01*
X160278698Y-69202012D01*
X160667244Y-69362953D01*
X161079721Y-69445000D01*
X161500279Y-69445000D01*
X161912756Y-69362953D01*
X162301302Y-69202012D01*
X162598578Y-69003379D01*
X162566261Y-69081399D01*
X162465000Y-69590475D01*
X162465000Y-70109525D01*
X162566261Y-70618601D01*
X162764893Y-71098141D01*
X163053262Y-71529715D01*
X163420285Y-71896738D01*
X163851859Y-72185107D01*
X164331399Y-72383739D01*
X164840475Y-72485000D01*
X165359525Y-72485000D01*
X165868601Y-72383739D01*
X166348141Y-72185107D01*
X166779715Y-71896738D01*
X167146738Y-71529715D01*
X167435107Y-71098141D01*
X167633739Y-70618601D01*
X167735000Y-70109525D01*
X167735000Y-69590475D01*
X167633739Y-69081399D01*
X167435107Y-68601859D01*
X167146738Y-68170285D01*
X166779715Y-67803262D01*
X166348141Y-67514893D01*
X165868601Y-67316261D01*
X165359525Y-67215000D01*
X164840475Y-67215000D01*
X164331399Y-67316261D01*
X163851859Y-67514893D01*
X163420285Y-67803262D01*
X163355905Y-67867642D01*
X163425000Y-67520279D01*
X163425000Y-67099721D01*
X178205000Y-67099721D01*
X178205000Y-67520279D01*
X178287047Y-67932756D01*
X178447988Y-68321302D01*
X178681637Y-68670983D01*
X178979017Y-68968363D01*
X179328698Y-69202012D01*
X179717244Y-69362953D01*
X180129721Y-69445000D01*
X180550279Y-69445000D01*
X180962756Y-69362953D01*
X181351302Y-69202012D01*
X181648578Y-69003379D01*
X181616261Y-69081399D01*
X181515000Y-69590475D01*
X181515000Y-70109525D01*
X181616261Y-70618601D01*
X181814893Y-71098141D01*
X182103262Y-71529715D01*
X182470285Y-71896738D01*
X182901859Y-72185107D01*
X183381399Y-72383739D01*
X183890475Y-72485000D01*
X184409525Y-72485000D01*
X184918601Y-72383739D01*
X185398141Y-72185107D01*
X185829715Y-71896738D01*
X186196738Y-71529715D01*
X186485107Y-71098141D01*
X186683739Y-70618601D01*
X186785000Y-70109525D01*
X186785000Y-69590475D01*
X186683739Y-69081399D01*
X186485107Y-68601859D01*
X186196738Y-68170285D01*
X185829715Y-67803262D01*
X185398141Y-67514893D01*
X184918601Y-67316261D01*
X184409525Y-67215000D01*
X183890475Y-67215000D01*
X183381399Y-67316261D01*
X182901859Y-67514893D01*
X182470285Y-67803262D01*
X182405905Y-67867642D01*
X182475000Y-67520279D01*
X182475000Y-67099721D01*
X197255000Y-67099721D01*
X197255000Y-67520279D01*
X197337047Y-67932756D01*
X197497988Y-68321302D01*
X197731637Y-68670983D01*
X198029017Y-68968363D01*
X198378698Y-69202012D01*
X198767244Y-69362953D01*
X199179721Y-69445000D01*
X199600279Y-69445000D01*
X200012756Y-69362953D01*
X200401302Y-69202012D01*
X200698578Y-69003379D01*
X200666261Y-69081399D01*
X200565000Y-69590475D01*
X200565000Y-70109525D01*
X200666261Y-70618601D01*
X200864893Y-71098141D01*
X201153262Y-71529715D01*
X201520285Y-71896738D01*
X201951859Y-72185107D01*
X202431399Y-72383739D01*
X202940475Y-72485000D01*
X203459525Y-72485000D01*
X203968601Y-72383739D01*
X204448141Y-72185107D01*
X204879715Y-71896738D01*
X205246738Y-71529715D01*
X205535107Y-71098141D01*
X205733739Y-70618601D01*
X205835000Y-70109525D01*
X205835000Y-69590475D01*
X205733739Y-69081399D01*
X205535107Y-68601859D01*
X205246738Y-68170285D01*
X204879715Y-67803262D01*
X204448141Y-67514893D01*
X203968601Y-67316261D01*
X203459525Y-67215000D01*
X202940475Y-67215000D01*
X202431399Y-67316261D01*
X201951859Y-67514893D01*
X201520285Y-67803262D01*
X201455905Y-67867642D01*
X201525000Y-67520279D01*
X201525000Y-67099721D01*
X216305000Y-67099721D01*
X216305000Y-67520279D01*
X216387047Y-67932756D01*
X216547988Y-68321302D01*
X216781637Y-68670983D01*
X217079017Y-68968363D01*
X217428698Y-69202012D01*
X217817244Y-69362953D01*
X218229721Y-69445000D01*
X218650279Y-69445000D01*
X219062756Y-69362953D01*
X219451302Y-69202012D01*
X219748578Y-69003379D01*
X219716261Y-69081399D01*
X219615000Y-69590475D01*
X219615000Y-70109525D01*
X219716261Y-70618601D01*
X219914893Y-71098141D01*
X220203262Y-71529715D01*
X220570285Y-71896738D01*
X221001859Y-72185107D01*
X221481399Y-72383739D01*
X221990475Y-72485000D01*
X222509525Y-72485000D01*
X223018601Y-72383739D01*
X223498141Y-72185107D01*
X223929715Y-71896738D01*
X224296738Y-71529715D01*
X224585107Y-71098141D01*
X224783739Y-70618601D01*
X224885000Y-70109525D01*
X224885000Y-69590475D01*
X224783739Y-69081399D01*
X224585107Y-68601859D01*
X224296738Y-68170285D01*
X223929715Y-67803262D01*
X223498141Y-67514893D01*
X223018601Y-67316261D01*
X222509525Y-67215000D01*
X221990475Y-67215000D01*
X221481399Y-67316261D01*
X221001859Y-67514893D01*
X220570285Y-67803262D01*
X220505905Y-67867642D01*
X220575000Y-67520279D01*
X220575000Y-67099721D01*
X235355000Y-67099721D01*
X235355000Y-67520279D01*
X235437047Y-67932756D01*
X235597988Y-68321302D01*
X235831637Y-68670983D01*
X236129017Y-68968363D01*
X236478698Y-69202012D01*
X236867244Y-69362953D01*
X237279721Y-69445000D01*
X237700279Y-69445000D01*
X238112756Y-69362953D01*
X238501302Y-69202012D01*
X238798578Y-69003379D01*
X238766261Y-69081399D01*
X238665000Y-69590475D01*
X238665000Y-70109525D01*
X238766261Y-70618601D01*
X238964893Y-71098141D01*
X239253262Y-71529715D01*
X239620285Y-71896738D01*
X240051859Y-72185107D01*
X240531399Y-72383739D01*
X241040475Y-72485000D01*
X241559525Y-72485000D01*
X242068601Y-72383739D01*
X242548141Y-72185107D01*
X242979715Y-71896738D01*
X243346738Y-71529715D01*
X243635107Y-71098141D01*
X243833739Y-70618601D01*
X243935000Y-70109525D01*
X243935000Y-69590475D01*
X243833739Y-69081399D01*
X243635107Y-68601859D01*
X243346738Y-68170285D01*
X242979715Y-67803262D01*
X242548141Y-67514893D01*
X242068601Y-67316261D01*
X241559525Y-67215000D01*
X241040475Y-67215000D01*
X240531399Y-67316261D01*
X240051859Y-67514893D01*
X239620285Y-67803262D01*
X239555905Y-67867642D01*
X239625000Y-67520279D01*
X239625000Y-67099721D01*
X239542953Y-66687244D01*
X239382012Y-66298698D01*
X239357260Y-66261653D01*
X242527952Y-66261653D01*
X242683962Y-66577214D01*
X243058745Y-66768020D01*
X243463551Y-66882044D01*
X243882824Y-66914902D01*
X244300451Y-66865334D01*
X244700383Y-66735243D01*
X244996038Y-66577214D01*
X245152048Y-66261653D01*
X243840000Y-64949605D01*
X242527952Y-66261653D01*
X239357260Y-66261653D01*
X239148363Y-65949017D01*
X238850983Y-65651637D01*
X238501302Y-65417988D01*
X238112756Y-65257047D01*
X237700279Y-65175000D01*
X237279721Y-65175000D01*
X236867244Y-65257047D01*
X236478698Y-65417988D01*
X236129017Y-65651637D01*
X235831637Y-65949017D01*
X235597988Y-66298698D01*
X235437047Y-66687244D01*
X235355000Y-67099721D01*
X220575000Y-67099721D01*
X220492953Y-66687244D01*
X220332012Y-66298698D01*
X220307260Y-66261653D01*
X223477952Y-66261653D01*
X223633962Y-66577214D01*
X224008745Y-66768020D01*
X224413551Y-66882044D01*
X224832824Y-66914902D01*
X225250451Y-66865334D01*
X225650383Y-66735243D01*
X225946038Y-66577214D01*
X226102048Y-66261653D01*
X224790000Y-64949605D01*
X223477952Y-66261653D01*
X220307260Y-66261653D01*
X220098363Y-65949017D01*
X219800983Y-65651637D01*
X219451302Y-65417988D01*
X219062756Y-65257047D01*
X218650279Y-65175000D01*
X218229721Y-65175000D01*
X217817244Y-65257047D01*
X217428698Y-65417988D01*
X217079017Y-65651637D01*
X216781637Y-65949017D01*
X216547988Y-66298698D01*
X216387047Y-66687244D01*
X216305000Y-67099721D01*
X201525000Y-67099721D01*
X201442953Y-66687244D01*
X201282012Y-66298698D01*
X201257260Y-66261653D01*
X204427952Y-66261653D01*
X204583962Y-66577214D01*
X204958745Y-66768020D01*
X205363551Y-66882044D01*
X205782824Y-66914902D01*
X206200451Y-66865334D01*
X206600383Y-66735243D01*
X206896038Y-66577214D01*
X207052048Y-66261653D01*
X205740000Y-64949605D01*
X204427952Y-66261653D01*
X201257260Y-66261653D01*
X201048363Y-65949017D01*
X200750983Y-65651637D01*
X200401302Y-65417988D01*
X200012756Y-65257047D01*
X199600279Y-65175000D01*
X199179721Y-65175000D01*
X198767244Y-65257047D01*
X198378698Y-65417988D01*
X198029017Y-65651637D01*
X197731637Y-65949017D01*
X197497988Y-66298698D01*
X197337047Y-66687244D01*
X197255000Y-67099721D01*
X182475000Y-67099721D01*
X182392953Y-66687244D01*
X182232012Y-66298698D01*
X182207260Y-66261653D01*
X185377952Y-66261653D01*
X185533962Y-66577214D01*
X185908745Y-66768020D01*
X186313551Y-66882044D01*
X186732824Y-66914902D01*
X187150451Y-66865334D01*
X187550383Y-66735243D01*
X187846038Y-66577214D01*
X188002048Y-66261653D01*
X186690000Y-64949605D01*
X185377952Y-66261653D01*
X182207260Y-66261653D01*
X181998363Y-65949017D01*
X181700983Y-65651637D01*
X181351302Y-65417988D01*
X180962756Y-65257047D01*
X180550279Y-65175000D01*
X180129721Y-65175000D01*
X179717244Y-65257047D01*
X179328698Y-65417988D01*
X178979017Y-65651637D01*
X178681637Y-65949017D01*
X178447988Y-66298698D01*
X178287047Y-66687244D01*
X178205000Y-67099721D01*
X163425000Y-67099721D01*
X163342953Y-66687244D01*
X163182012Y-66298698D01*
X163157260Y-66261653D01*
X166327952Y-66261653D01*
X166483962Y-66577214D01*
X166858745Y-66768020D01*
X167263551Y-66882044D01*
X167682824Y-66914902D01*
X168100451Y-66865334D01*
X168500383Y-66735243D01*
X168796038Y-66577214D01*
X168952048Y-66261653D01*
X167640000Y-64949605D01*
X166327952Y-66261653D01*
X163157260Y-66261653D01*
X162948363Y-65949017D01*
X162650983Y-65651637D01*
X162301302Y-65417988D01*
X161912756Y-65257047D01*
X161500279Y-65175000D01*
X161079721Y-65175000D01*
X160667244Y-65257047D01*
X160278698Y-65417988D01*
X159929017Y-65651637D01*
X159631637Y-65949017D01*
X159397988Y-66298698D01*
X159237047Y-66687244D01*
X159155000Y-67099721D01*
X144375000Y-67099721D01*
X144292953Y-66687244D01*
X144132012Y-66298698D01*
X144107260Y-66261653D01*
X147277952Y-66261653D01*
X147433962Y-66577214D01*
X147808745Y-66768020D01*
X148213551Y-66882044D01*
X148632824Y-66914902D01*
X149050451Y-66865334D01*
X149450383Y-66735243D01*
X149746038Y-66577214D01*
X149902048Y-66261653D01*
X148590000Y-64949605D01*
X147277952Y-66261653D01*
X144107260Y-66261653D01*
X143898363Y-65949017D01*
X143600983Y-65651637D01*
X143251302Y-65417988D01*
X142862756Y-65257047D01*
X142450279Y-65175000D01*
X142029721Y-65175000D01*
X141617244Y-65257047D01*
X141228698Y-65417988D01*
X140879017Y-65651637D01*
X140581637Y-65949017D01*
X140347988Y-66298698D01*
X140187047Y-66687244D01*
X140105000Y-67099721D01*
X125325000Y-67099721D01*
X125242953Y-66687244D01*
X125082012Y-66298698D01*
X125057260Y-66261653D01*
X128227952Y-66261653D01*
X128383962Y-66577214D01*
X128758745Y-66768020D01*
X129163551Y-66882044D01*
X129582824Y-66914902D01*
X130000451Y-66865334D01*
X130400383Y-66735243D01*
X130696038Y-66577214D01*
X130852048Y-66261653D01*
X129540000Y-64949605D01*
X128227952Y-66261653D01*
X125057260Y-66261653D01*
X124848363Y-65949017D01*
X124550983Y-65651637D01*
X124201302Y-65417988D01*
X123812756Y-65257047D01*
X123400279Y-65175000D01*
X122979721Y-65175000D01*
X122567244Y-65257047D01*
X122178698Y-65417988D01*
X121829017Y-65651637D01*
X121531637Y-65949017D01*
X121297988Y-66298698D01*
X121137047Y-66687244D01*
X121055000Y-67099721D01*
X114427000Y-67099721D01*
X114427000Y-64812824D01*
X127395098Y-64812824D01*
X127444666Y-65230451D01*
X127574757Y-65630383D01*
X127732786Y-65926038D01*
X128048347Y-66082048D01*
X129360395Y-64770000D01*
X129719605Y-64770000D01*
X131031653Y-66082048D01*
X131347214Y-65926038D01*
X131538020Y-65551255D01*
X131652044Y-65146449D01*
X131678189Y-64812824D01*
X146445098Y-64812824D01*
X146494666Y-65230451D01*
X146624757Y-65630383D01*
X146782786Y-65926038D01*
X147098347Y-66082048D01*
X148410395Y-64770000D01*
X148769605Y-64770000D01*
X150081653Y-66082048D01*
X150397214Y-65926038D01*
X150588020Y-65551255D01*
X150702044Y-65146449D01*
X150728189Y-64812824D01*
X165495098Y-64812824D01*
X165544666Y-65230451D01*
X165674757Y-65630383D01*
X165832786Y-65926038D01*
X166148347Y-66082048D01*
X167460395Y-64770000D01*
X167819605Y-64770000D01*
X169131653Y-66082048D01*
X169447214Y-65926038D01*
X169638020Y-65551255D01*
X169752044Y-65146449D01*
X169778189Y-64812824D01*
X184545098Y-64812824D01*
X184594666Y-65230451D01*
X184724757Y-65630383D01*
X184882786Y-65926038D01*
X185198347Y-66082048D01*
X186510395Y-64770000D01*
X186869605Y-64770000D01*
X188181653Y-66082048D01*
X188497214Y-65926038D01*
X188688020Y-65551255D01*
X188802044Y-65146449D01*
X188828189Y-64812824D01*
X203595098Y-64812824D01*
X203644666Y-65230451D01*
X203774757Y-65630383D01*
X203932786Y-65926038D01*
X204248347Y-66082048D01*
X205560395Y-64770000D01*
X205919605Y-64770000D01*
X207231653Y-66082048D01*
X207547214Y-65926038D01*
X207738020Y-65551255D01*
X207852044Y-65146449D01*
X207878189Y-64812824D01*
X222645098Y-64812824D01*
X222694666Y-65230451D01*
X222824757Y-65630383D01*
X222982786Y-65926038D01*
X223298347Y-66082048D01*
X224610395Y-64770000D01*
X224969605Y-64770000D01*
X226281653Y-66082048D01*
X226597214Y-65926038D01*
X226788020Y-65551255D01*
X226902044Y-65146449D01*
X226928189Y-64812824D01*
X241695098Y-64812824D01*
X241744666Y-65230451D01*
X241874757Y-65630383D01*
X242032786Y-65926038D01*
X242348347Y-66082048D01*
X243660395Y-64770000D01*
X244019605Y-64770000D01*
X245331653Y-66082048D01*
X245647214Y-65926038D01*
X245838020Y-65551255D01*
X245952044Y-65146449D01*
X245984902Y-64727176D01*
X245935334Y-64309549D01*
X245805243Y-63909617D01*
X245647214Y-63613962D01*
X245331653Y-63457952D01*
X244019605Y-64770000D01*
X243660395Y-64770000D01*
X242348347Y-63457952D01*
X242032786Y-63613962D01*
X241841980Y-63988745D01*
X241727956Y-64393551D01*
X241695098Y-64812824D01*
X226928189Y-64812824D01*
X226934902Y-64727176D01*
X226885334Y-64309549D01*
X226755243Y-63909617D01*
X226597214Y-63613962D01*
X226281653Y-63457952D01*
X224969605Y-64770000D01*
X224610395Y-64770000D01*
X223298347Y-63457952D01*
X222982786Y-63613962D01*
X222791980Y-63988745D01*
X222677956Y-64393551D01*
X222645098Y-64812824D01*
X207878189Y-64812824D01*
X207884902Y-64727176D01*
X207835334Y-64309549D01*
X207705243Y-63909617D01*
X207547214Y-63613962D01*
X207231653Y-63457952D01*
X205919605Y-64770000D01*
X205560395Y-64770000D01*
X204248347Y-63457952D01*
X203932786Y-63613962D01*
X203741980Y-63988745D01*
X203627956Y-64393551D01*
X203595098Y-64812824D01*
X188828189Y-64812824D01*
X188834902Y-64727176D01*
X188785334Y-64309549D01*
X188655243Y-63909617D01*
X188497214Y-63613962D01*
X188181653Y-63457952D01*
X186869605Y-64770000D01*
X186510395Y-64770000D01*
X185198347Y-63457952D01*
X184882786Y-63613962D01*
X184691980Y-63988745D01*
X184577956Y-64393551D01*
X184545098Y-64812824D01*
X169778189Y-64812824D01*
X169784902Y-64727176D01*
X169735334Y-64309549D01*
X169605243Y-63909617D01*
X169447214Y-63613962D01*
X169131653Y-63457952D01*
X167819605Y-64770000D01*
X167460395Y-64770000D01*
X166148347Y-63457952D01*
X165832786Y-63613962D01*
X165641980Y-63988745D01*
X165527956Y-64393551D01*
X165495098Y-64812824D01*
X150728189Y-64812824D01*
X150734902Y-64727176D01*
X150685334Y-64309549D01*
X150555243Y-63909617D01*
X150397214Y-63613962D01*
X150081653Y-63457952D01*
X148769605Y-64770000D01*
X148410395Y-64770000D01*
X147098347Y-63457952D01*
X146782786Y-63613962D01*
X146591980Y-63988745D01*
X146477956Y-64393551D01*
X146445098Y-64812824D01*
X131678189Y-64812824D01*
X131684902Y-64727176D01*
X131635334Y-64309549D01*
X131505243Y-63909617D01*
X131347214Y-63613962D01*
X131031653Y-63457952D01*
X129719605Y-64770000D01*
X129360395Y-64770000D01*
X128048347Y-63457952D01*
X127732786Y-63613962D01*
X127541980Y-63988745D01*
X127427956Y-64393551D01*
X127395098Y-64812824D01*
X114427000Y-64812824D01*
X114427000Y-63278347D01*
X128227952Y-63278347D01*
X129540000Y-64590395D01*
X130852048Y-63278347D01*
X147277952Y-63278347D01*
X148590000Y-64590395D01*
X149902048Y-63278347D01*
X166327952Y-63278347D01*
X167640000Y-64590395D01*
X168952048Y-63278347D01*
X185377952Y-63278347D01*
X186690000Y-64590395D01*
X188002048Y-63278347D01*
X204427952Y-63278347D01*
X205740000Y-64590395D01*
X207052048Y-63278347D01*
X223477952Y-63278347D01*
X224790000Y-64590395D01*
X226102048Y-63278347D01*
X242527952Y-63278347D01*
X243840000Y-64590395D01*
X245152048Y-63278347D01*
X244996038Y-62962786D01*
X244621255Y-62771980D01*
X244216449Y-62657956D01*
X243797176Y-62625098D01*
X243379549Y-62674666D01*
X242979617Y-62804757D01*
X242683962Y-62962786D01*
X242527952Y-63278347D01*
X226102048Y-63278347D01*
X225946038Y-62962786D01*
X225571255Y-62771980D01*
X225166449Y-62657956D01*
X224747176Y-62625098D01*
X224329549Y-62674666D01*
X223929617Y-62804757D01*
X223633962Y-62962786D01*
X223477952Y-63278347D01*
X207052048Y-63278347D01*
X206896038Y-62962786D01*
X206521255Y-62771980D01*
X206116449Y-62657956D01*
X205697176Y-62625098D01*
X205279549Y-62674666D01*
X204879617Y-62804757D01*
X204583962Y-62962786D01*
X204427952Y-63278347D01*
X188002048Y-63278347D01*
X187846038Y-62962786D01*
X187471255Y-62771980D01*
X187066449Y-62657956D01*
X186647176Y-62625098D01*
X186229549Y-62674666D01*
X185829617Y-62804757D01*
X185533962Y-62962786D01*
X185377952Y-63278347D01*
X168952048Y-63278347D01*
X168796038Y-62962786D01*
X168421255Y-62771980D01*
X168016449Y-62657956D01*
X167597176Y-62625098D01*
X167179549Y-62674666D01*
X166779617Y-62804757D01*
X166483962Y-62962786D01*
X166327952Y-63278347D01*
X149902048Y-63278347D01*
X149746038Y-62962786D01*
X149371255Y-62771980D01*
X148966449Y-62657956D01*
X148547176Y-62625098D01*
X148129549Y-62674666D01*
X147729617Y-62804757D01*
X147433962Y-62962786D01*
X147277952Y-63278347D01*
X130852048Y-63278347D01*
X130696038Y-62962786D01*
X130321255Y-62771980D01*
X129916449Y-62657956D01*
X129497176Y-62625098D01*
X129079549Y-62674666D01*
X128679617Y-62804757D01*
X128383962Y-62962786D01*
X128227952Y-63278347D01*
X114427000Y-63278347D01*
X114427000Y-56929872D01*
X114605000Y-56929872D01*
X114605000Y-57370128D01*
X114690890Y-57801925D01*
X114859369Y-58208669D01*
X115103962Y-58574729D01*
X115415271Y-58886038D01*
X115781331Y-59130631D01*
X116188075Y-59299110D01*
X116619872Y-59385000D01*
X117060128Y-59385000D01*
X117491925Y-59299110D01*
X117898669Y-59130631D01*
X118264729Y-58886038D01*
X118576038Y-58574729D01*
X118820631Y-58208669D01*
X118989110Y-57801925D01*
X119075000Y-57370128D01*
X119075000Y-56929872D01*
X118989110Y-56498075D01*
X118820631Y-56091331D01*
X118576038Y-55725271D01*
X118264729Y-55413962D01*
X117898669Y-55169369D01*
X117491925Y-55000890D01*
X117060128Y-54915000D01*
X116619872Y-54915000D01*
X116188075Y-55000890D01*
X115781331Y-55169369D01*
X115415271Y-55413962D01*
X115103962Y-55725271D01*
X114859369Y-56091331D01*
X114690890Y-56498075D01*
X114605000Y-56929872D01*
X114427000Y-56929872D01*
X114427000Y-55193010D01*
X114624922Y-54950333D01*
X114882797Y-54737000D01*
X171306593Y-54737000D01*
X171280498Y-54785820D01*
G37*
%TD.AperFunction*%
%TD*%
M02*
