%TF.GenerationSoftware,KiCad,Pcbnew,(5.1.9)-1*%
%TF.CreationDate,2021-06-11T12:02:02-04:00*%
%TF.ProjectId,LowerBar,4c6f7765-7242-4617-922e-6b696361645f,rev?*%
%TF.SameCoordinates,Original*%
%TF.FileFunction,Legend,Top*%
%TF.FilePolarity,Positive*%
%FSLAX46Y46*%
G04 Gerber Fmt 4.6, Leading zero omitted, Abs format (unit mm)*
G04 Created by KiCad (PCBNEW (5.1.9)-1) date 2021-06-11 12:02:02*
%MOMM*%
%LPD*%
G01*
G04 APERTURE LIST*
%ADD10C,0.150000*%
%ADD11C,0.120000*%
G04 APERTURE END LIST*
D10*
X190904761Y-60388333D02*
X190952380Y-60245476D01*
X190952380Y-60007380D01*
X190904761Y-59912142D01*
X190857142Y-59864523D01*
X190761904Y-59816904D01*
X190666666Y-59816904D01*
X190571428Y-59864523D01*
X190523809Y-59912142D01*
X190476190Y-60007380D01*
X190428571Y-60197857D01*
X190380952Y-60293095D01*
X190333333Y-60340714D01*
X190238095Y-60388333D01*
X190142857Y-60388333D01*
X190047619Y-60340714D01*
X190000000Y-60293095D01*
X189952380Y-60197857D01*
X189952380Y-59959761D01*
X190000000Y-59816904D01*
X189952380Y-59483571D02*
X190952380Y-59245476D01*
X190238095Y-59055000D01*
X190952380Y-58864523D01*
X189952380Y-58626428D01*
X189952380Y-58340714D02*
X189952380Y-57674047D01*
X190952380Y-58102619D01*
X188364761Y-60388333D02*
X188412380Y-60245476D01*
X188412380Y-60007380D01*
X188364761Y-59912142D01*
X188317142Y-59864523D01*
X188221904Y-59816904D01*
X188126666Y-59816904D01*
X188031428Y-59864523D01*
X187983809Y-59912142D01*
X187936190Y-60007380D01*
X187888571Y-60197857D01*
X187840952Y-60293095D01*
X187793333Y-60340714D01*
X187698095Y-60388333D01*
X187602857Y-60388333D01*
X187507619Y-60340714D01*
X187460000Y-60293095D01*
X187412380Y-60197857D01*
X187412380Y-59959761D01*
X187460000Y-59816904D01*
X187412380Y-59483571D02*
X188412380Y-59245476D01*
X187698095Y-59055000D01*
X188412380Y-58864523D01*
X187412380Y-58626428D01*
X187412380Y-57816904D02*
X187412380Y-58007380D01*
X187460000Y-58102619D01*
X187507619Y-58150238D01*
X187650476Y-58245476D01*
X187840952Y-58293095D01*
X188221904Y-58293095D01*
X188317142Y-58245476D01*
X188364761Y-58197857D01*
X188412380Y-58102619D01*
X188412380Y-57912142D01*
X188364761Y-57816904D01*
X188317142Y-57769285D01*
X188221904Y-57721666D01*
X187983809Y-57721666D01*
X187888571Y-57769285D01*
X187840952Y-57816904D01*
X187793333Y-57912142D01*
X187793333Y-58102619D01*
X187840952Y-58197857D01*
X187888571Y-58245476D01*
X187983809Y-58293095D01*
X185824761Y-60388333D02*
X185872380Y-60245476D01*
X185872380Y-60007380D01*
X185824761Y-59912142D01*
X185777142Y-59864523D01*
X185681904Y-59816904D01*
X185586666Y-59816904D01*
X185491428Y-59864523D01*
X185443809Y-59912142D01*
X185396190Y-60007380D01*
X185348571Y-60197857D01*
X185300952Y-60293095D01*
X185253333Y-60340714D01*
X185158095Y-60388333D01*
X185062857Y-60388333D01*
X184967619Y-60340714D01*
X184920000Y-60293095D01*
X184872380Y-60197857D01*
X184872380Y-59959761D01*
X184920000Y-59816904D01*
X184872380Y-59483571D02*
X185872380Y-59245476D01*
X185158095Y-59055000D01*
X185872380Y-58864523D01*
X184872380Y-58626428D01*
X184872380Y-57769285D02*
X184872380Y-58245476D01*
X185348571Y-58293095D01*
X185300952Y-58245476D01*
X185253333Y-58150238D01*
X185253333Y-57912142D01*
X185300952Y-57816904D01*
X185348571Y-57769285D01*
X185443809Y-57721666D01*
X185681904Y-57721666D01*
X185777142Y-57769285D01*
X185824761Y-57816904D01*
X185872380Y-57912142D01*
X185872380Y-58150238D01*
X185824761Y-58245476D01*
X185777142Y-58293095D01*
X183284761Y-60388333D02*
X183332380Y-60245476D01*
X183332380Y-60007380D01*
X183284761Y-59912142D01*
X183237142Y-59864523D01*
X183141904Y-59816904D01*
X183046666Y-59816904D01*
X182951428Y-59864523D01*
X182903809Y-59912142D01*
X182856190Y-60007380D01*
X182808571Y-60197857D01*
X182760952Y-60293095D01*
X182713333Y-60340714D01*
X182618095Y-60388333D01*
X182522857Y-60388333D01*
X182427619Y-60340714D01*
X182380000Y-60293095D01*
X182332380Y-60197857D01*
X182332380Y-59959761D01*
X182380000Y-59816904D01*
X182332380Y-59483571D02*
X183332380Y-59245476D01*
X182618095Y-59055000D01*
X183332380Y-58864523D01*
X182332380Y-58626428D01*
X182665714Y-57816904D02*
X183332380Y-57816904D01*
X182284761Y-58055000D02*
X182999047Y-58293095D01*
X182999047Y-57674047D01*
X180744761Y-60388333D02*
X180792380Y-60245476D01*
X180792380Y-60007380D01*
X180744761Y-59912142D01*
X180697142Y-59864523D01*
X180601904Y-59816904D01*
X180506666Y-59816904D01*
X180411428Y-59864523D01*
X180363809Y-59912142D01*
X180316190Y-60007380D01*
X180268571Y-60197857D01*
X180220952Y-60293095D01*
X180173333Y-60340714D01*
X180078095Y-60388333D01*
X179982857Y-60388333D01*
X179887619Y-60340714D01*
X179840000Y-60293095D01*
X179792380Y-60197857D01*
X179792380Y-59959761D01*
X179840000Y-59816904D01*
X179792380Y-59483571D02*
X180792380Y-59245476D01*
X180078095Y-59055000D01*
X180792380Y-58864523D01*
X179792380Y-58626428D01*
X179792380Y-58340714D02*
X179792380Y-57721666D01*
X180173333Y-58055000D01*
X180173333Y-57912142D01*
X180220952Y-57816904D01*
X180268571Y-57769285D01*
X180363809Y-57721666D01*
X180601904Y-57721666D01*
X180697142Y-57769285D01*
X180744761Y-57816904D01*
X180792380Y-57912142D01*
X180792380Y-58197857D01*
X180744761Y-58293095D01*
X180697142Y-58340714D01*
X178204761Y-60388333D02*
X178252380Y-60245476D01*
X178252380Y-60007380D01*
X178204761Y-59912142D01*
X178157142Y-59864523D01*
X178061904Y-59816904D01*
X177966666Y-59816904D01*
X177871428Y-59864523D01*
X177823809Y-59912142D01*
X177776190Y-60007380D01*
X177728571Y-60197857D01*
X177680952Y-60293095D01*
X177633333Y-60340714D01*
X177538095Y-60388333D01*
X177442857Y-60388333D01*
X177347619Y-60340714D01*
X177300000Y-60293095D01*
X177252380Y-60197857D01*
X177252380Y-59959761D01*
X177300000Y-59816904D01*
X177252380Y-59483571D02*
X178252380Y-59245476D01*
X177538095Y-59055000D01*
X178252380Y-58864523D01*
X177252380Y-58626428D01*
X177347619Y-58293095D02*
X177300000Y-58245476D01*
X177252380Y-58150238D01*
X177252380Y-57912142D01*
X177300000Y-57816904D01*
X177347619Y-57769285D01*
X177442857Y-57721666D01*
X177538095Y-57721666D01*
X177680952Y-57769285D01*
X178252380Y-58340714D01*
X178252380Y-57721666D01*
X175664761Y-60388333D02*
X175712380Y-60245476D01*
X175712380Y-60007380D01*
X175664761Y-59912142D01*
X175617142Y-59864523D01*
X175521904Y-59816904D01*
X175426666Y-59816904D01*
X175331428Y-59864523D01*
X175283809Y-59912142D01*
X175236190Y-60007380D01*
X175188571Y-60197857D01*
X175140952Y-60293095D01*
X175093333Y-60340714D01*
X174998095Y-60388333D01*
X174902857Y-60388333D01*
X174807619Y-60340714D01*
X174760000Y-60293095D01*
X174712380Y-60197857D01*
X174712380Y-59959761D01*
X174760000Y-59816904D01*
X174712380Y-59483571D02*
X175712380Y-59245476D01*
X174998095Y-59055000D01*
X175712380Y-58864523D01*
X174712380Y-58626428D01*
X175712380Y-57721666D02*
X175712380Y-58293095D01*
X175712380Y-58007380D02*
X174712380Y-58007380D01*
X174855238Y-58102619D01*
X174950476Y-58197857D01*
X174998095Y-58293095D01*
X165727142Y-56332380D02*
X165250952Y-56332380D01*
X165250952Y-55332380D01*
X166060476Y-55808571D02*
X166393809Y-55808571D01*
X166536666Y-56332380D02*
X166060476Y-56332380D01*
X166060476Y-55332380D01*
X166536666Y-55332380D01*
X166965238Y-56332380D02*
X166965238Y-55332380D01*
X167203333Y-55332380D01*
X167346190Y-55380000D01*
X167441428Y-55475238D01*
X167489047Y-55570476D01*
X167536666Y-55760952D01*
X167536666Y-55903809D01*
X167489047Y-56094285D01*
X167441428Y-56189523D01*
X167346190Y-56284761D01*
X167203333Y-56332380D01*
X166965238Y-56332380D01*
X196088095Y-55380000D02*
X195992857Y-55332380D01*
X195850000Y-55332380D01*
X195707142Y-55380000D01*
X195611904Y-55475238D01*
X195564285Y-55570476D01*
X195516666Y-55760952D01*
X195516666Y-55903809D01*
X195564285Y-56094285D01*
X195611904Y-56189523D01*
X195707142Y-56284761D01*
X195850000Y-56332380D01*
X195945238Y-56332380D01*
X196088095Y-56284761D01*
X196135714Y-56237142D01*
X196135714Y-55903809D01*
X195945238Y-55903809D01*
X196564285Y-56332380D02*
X196564285Y-55332380D01*
X197135714Y-56332380D01*
X197135714Y-55332380D01*
X197611904Y-56332380D02*
X197611904Y-55332380D01*
X197850000Y-55332380D01*
X197992857Y-55380000D01*
X198088095Y-55475238D01*
X198135714Y-55570476D01*
X198183333Y-55760952D01*
X198183333Y-55903809D01*
X198135714Y-56094285D01*
X198088095Y-56189523D01*
X197992857Y-56284761D01*
X197850000Y-56332380D01*
X197611904Y-56332380D01*
X178292857Y-79192380D02*
X177816666Y-79192380D01*
X177816666Y-78192380D01*
X178769047Y-79192380D02*
X178673809Y-79144761D01*
X178626190Y-79097142D01*
X178578571Y-79001904D01*
X178578571Y-78716190D01*
X178626190Y-78620952D01*
X178673809Y-78573333D01*
X178769047Y-78525714D01*
X178911904Y-78525714D01*
X179007142Y-78573333D01*
X179054761Y-78620952D01*
X179102380Y-78716190D01*
X179102380Y-79001904D01*
X179054761Y-79097142D01*
X179007142Y-79144761D01*
X178911904Y-79192380D01*
X178769047Y-79192380D01*
X179435714Y-78525714D02*
X179626190Y-79192380D01*
X179816666Y-78716190D01*
X180007142Y-79192380D01*
X180197619Y-78525714D01*
X180959523Y-79144761D02*
X180864285Y-79192380D01*
X180673809Y-79192380D01*
X180578571Y-79144761D01*
X180530952Y-79049523D01*
X180530952Y-78668571D01*
X180578571Y-78573333D01*
X180673809Y-78525714D01*
X180864285Y-78525714D01*
X180959523Y-78573333D01*
X181007142Y-78668571D01*
X181007142Y-78763809D01*
X180530952Y-78859047D01*
X181435714Y-79192380D02*
X181435714Y-78525714D01*
X181435714Y-78716190D02*
X181483333Y-78620952D01*
X181530952Y-78573333D01*
X181626190Y-78525714D01*
X181721428Y-78525714D01*
X183150000Y-78668571D02*
X183292857Y-78716190D01*
X183340476Y-78763809D01*
X183388095Y-78859047D01*
X183388095Y-79001904D01*
X183340476Y-79097142D01*
X183292857Y-79144761D01*
X183197619Y-79192380D01*
X182816666Y-79192380D01*
X182816666Y-78192380D01*
X183150000Y-78192380D01*
X183245238Y-78240000D01*
X183292857Y-78287619D01*
X183340476Y-78382857D01*
X183340476Y-78478095D01*
X183292857Y-78573333D01*
X183245238Y-78620952D01*
X183150000Y-78668571D01*
X182816666Y-78668571D01*
X184245238Y-78525714D02*
X184245238Y-79192380D01*
X183816666Y-78525714D02*
X183816666Y-79049523D01*
X183864285Y-79144761D01*
X183959523Y-79192380D01*
X184102380Y-79192380D01*
X184197619Y-79144761D01*
X184245238Y-79097142D01*
X184578571Y-78525714D02*
X184959523Y-78525714D01*
X184721428Y-78192380D02*
X184721428Y-79049523D01*
X184769047Y-79144761D01*
X184864285Y-79192380D01*
X184959523Y-79192380D01*
X185150000Y-78525714D02*
X185530952Y-78525714D01*
X185292857Y-78192380D02*
X185292857Y-79049523D01*
X185340476Y-79144761D01*
X185435714Y-79192380D01*
X185530952Y-79192380D01*
X186007142Y-79192380D02*
X185911904Y-79144761D01*
X185864285Y-79097142D01*
X185816666Y-79001904D01*
X185816666Y-78716190D01*
X185864285Y-78620952D01*
X185911904Y-78573333D01*
X186007142Y-78525714D01*
X186150000Y-78525714D01*
X186245238Y-78573333D01*
X186292857Y-78620952D01*
X186340476Y-78716190D01*
X186340476Y-79001904D01*
X186292857Y-79097142D01*
X186245238Y-79144761D01*
X186150000Y-79192380D01*
X186007142Y-79192380D01*
X186769047Y-78525714D02*
X186769047Y-79192380D01*
X186769047Y-78620952D02*
X186816666Y-78573333D01*
X186911904Y-78525714D01*
X187054761Y-78525714D01*
X187150000Y-78573333D01*
X187197619Y-78668571D01*
X187197619Y-79192380D01*
X188769047Y-78668571D02*
X188911904Y-78716190D01*
X188959523Y-78763809D01*
X189007142Y-78859047D01*
X189007142Y-79001904D01*
X188959523Y-79097142D01*
X188911904Y-79144761D01*
X188816666Y-79192380D01*
X188435714Y-79192380D01*
X188435714Y-78192380D01*
X188769047Y-78192380D01*
X188864285Y-78240000D01*
X188911904Y-78287619D01*
X188959523Y-78382857D01*
X188959523Y-78478095D01*
X188911904Y-78573333D01*
X188864285Y-78620952D01*
X188769047Y-78668571D01*
X188435714Y-78668571D01*
X189864285Y-79192380D02*
X189864285Y-78668571D01*
X189816666Y-78573333D01*
X189721428Y-78525714D01*
X189530952Y-78525714D01*
X189435714Y-78573333D01*
X189864285Y-79144761D02*
X189769047Y-79192380D01*
X189530952Y-79192380D01*
X189435714Y-79144761D01*
X189388095Y-79049523D01*
X189388095Y-78954285D01*
X189435714Y-78859047D01*
X189530952Y-78811428D01*
X189769047Y-78811428D01*
X189864285Y-78763809D01*
X190340476Y-79192380D02*
X190340476Y-78525714D01*
X190340476Y-78716190D02*
X190388095Y-78620952D01*
X190435714Y-78573333D01*
X190530952Y-78525714D01*
X190626190Y-78525714D01*
D11*
%TO.C,J2*%
X171390000Y-55880000D02*
X171390000Y-54550000D01*
X171390000Y-54550000D02*
X172720000Y-54550000D01*
X173990000Y-54550000D02*
X194370000Y-54550000D01*
X194370000Y-57210000D02*
X194370000Y-54550000D01*
X173990000Y-57210000D02*
X194370000Y-57210000D01*
X173990000Y-57210000D02*
X173990000Y-54550000D01*
%TO.C,D41*%
X239440000Y-75890000D02*
X242300000Y-75890000D01*
X239440000Y-73970000D02*
X239440000Y-75890000D01*
X242300000Y-73970000D02*
X239440000Y-73970000D01*
%TO.C,D40*%
X220390000Y-75890000D02*
X223250000Y-75890000D01*
X220390000Y-73970000D02*
X220390000Y-75890000D01*
X223250000Y-73970000D02*
X220390000Y-73970000D01*
%TO.C,D39*%
X201340000Y-75890000D02*
X204200000Y-75890000D01*
X201340000Y-73970000D02*
X201340000Y-75890000D01*
X204200000Y-73970000D02*
X201340000Y-73970000D01*
%TO.C,D38*%
X182290000Y-75890000D02*
X185150000Y-75890000D01*
X182290000Y-73970000D02*
X182290000Y-75890000D01*
X185150000Y-73970000D02*
X182290000Y-73970000D01*
%TO.C,D37*%
X163240000Y-75890000D02*
X166100000Y-75890000D01*
X163240000Y-73970000D02*
X163240000Y-75890000D01*
X166100000Y-73970000D02*
X163240000Y-73970000D01*
%TO.C,D36*%
X144190000Y-75890000D02*
X147050000Y-75890000D01*
X144190000Y-73970000D02*
X144190000Y-75890000D01*
X147050000Y-73970000D02*
X144190000Y-73970000D01*
%TO.C,D35*%
X125140000Y-75890000D02*
X128000000Y-75890000D01*
X125140000Y-73970000D02*
X125140000Y-75890000D01*
X128000000Y-73970000D02*
X125140000Y-73970000D01*
%TO.C,SW1*%
X120015000Y-67691000D02*
X120015000Y-76835000D01*
X133985000Y-75692000D02*
X133985000Y-75565000D01*
X133985000Y-76835000D02*
X133985000Y-75692000D01*
X127000000Y-76835000D02*
X120015000Y-76835000D01*
X127000000Y-76835000D02*
X133985000Y-76835000D01*
X120015000Y-62865000D02*
X120015000Y-67691000D01*
X133985000Y-75438000D02*
X133985000Y-62865000D01*
X127000000Y-62865000D02*
X120015000Y-62865000D01*
X127000000Y-62865000D02*
X133985000Y-62865000D01*
X133985000Y-75438000D02*
X133985000Y-75565000D01*
%TO.C,SW2*%
X153035000Y-75438000D02*
X153035000Y-75565000D01*
X146050000Y-62865000D02*
X153035000Y-62865000D01*
X146050000Y-62865000D02*
X139065000Y-62865000D01*
X153035000Y-75438000D02*
X153035000Y-62865000D01*
X139065000Y-62865000D02*
X139065000Y-67691000D01*
X146050000Y-76835000D02*
X153035000Y-76835000D01*
X146050000Y-76835000D02*
X139065000Y-76835000D01*
X153035000Y-76835000D02*
X153035000Y-75692000D01*
X153035000Y-75692000D02*
X153035000Y-75565000D01*
X139065000Y-67691000D02*
X139065000Y-76835000D01*
%TO.C,SW3*%
X158115000Y-67691000D02*
X158115000Y-76835000D01*
X172085000Y-75692000D02*
X172085000Y-75565000D01*
X172085000Y-76835000D02*
X172085000Y-75692000D01*
X165100000Y-76835000D02*
X158115000Y-76835000D01*
X165100000Y-76835000D02*
X172085000Y-76835000D01*
X158115000Y-62865000D02*
X158115000Y-67691000D01*
X172085000Y-75438000D02*
X172085000Y-62865000D01*
X165100000Y-62865000D02*
X158115000Y-62865000D01*
X165100000Y-62865000D02*
X172085000Y-62865000D01*
X172085000Y-75438000D02*
X172085000Y-75565000D01*
%TO.C,SW4*%
X191135000Y-75438000D02*
X191135000Y-75565000D01*
X184150000Y-62865000D02*
X191135000Y-62865000D01*
X184150000Y-62865000D02*
X177165000Y-62865000D01*
X191135000Y-75438000D02*
X191135000Y-62865000D01*
X177165000Y-62865000D02*
X177165000Y-67691000D01*
X184150000Y-76835000D02*
X191135000Y-76835000D01*
X184150000Y-76835000D02*
X177165000Y-76835000D01*
X191135000Y-76835000D02*
X191135000Y-75692000D01*
X191135000Y-75692000D02*
X191135000Y-75565000D01*
X177165000Y-67691000D02*
X177165000Y-76835000D01*
%TO.C,SW5*%
X196215000Y-67691000D02*
X196215000Y-76835000D01*
X210185000Y-75692000D02*
X210185000Y-75565000D01*
X210185000Y-76835000D02*
X210185000Y-75692000D01*
X203200000Y-76835000D02*
X196215000Y-76835000D01*
X203200000Y-76835000D02*
X210185000Y-76835000D01*
X196215000Y-62865000D02*
X196215000Y-67691000D01*
X210185000Y-75438000D02*
X210185000Y-62865000D01*
X203200000Y-62865000D02*
X196215000Y-62865000D01*
X203200000Y-62865000D02*
X210185000Y-62865000D01*
X210185000Y-75438000D02*
X210185000Y-75565000D01*
%TO.C,SW6*%
X229235000Y-75438000D02*
X229235000Y-75565000D01*
X222250000Y-62865000D02*
X229235000Y-62865000D01*
X222250000Y-62865000D02*
X215265000Y-62865000D01*
X229235000Y-75438000D02*
X229235000Y-62865000D01*
X215265000Y-62865000D02*
X215265000Y-67691000D01*
X222250000Y-76835000D02*
X229235000Y-76835000D01*
X222250000Y-76835000D02*
X215265000Y-76835000D01*
X229235000Y-76835000D02*
X229235000Y-75692000D01*
X229235000Y-75692000D02*
X229235000Y-75565000D01*
X215265000Y-67691000D02*
X215265000Y-76835000D01*
%TO.C,SW7*%
X234315000Y-67691000D02*
X234315000Y-76835000D01*
X248285000Y-75692000D02*
X248285000Y-75565000D01*
X248285000Y-76835000D02*
X248285000Y-75692000D01*
X241300000Y-76835000D02*
X234315000Y-76835000D01*
X241300000Y-76835000D02*
X248285000Y-76835000D01*
X234315000Y-62865000D02*
X234315000Y-67691000D01*
X248285000Y-75438000D02*
X248285000Y-62865000D01*
X241300000Y-62865000D02*
X234315000Y-62865000D01*
X241300000Y-62865000D02*
X248285000Y-62865000D01*
X248285000Y-75438000D02*
X248285000Y-75565000D01*
%TO.C,MH3*%
D10*
X250126666Y-72452380D02*
X250126666Y-71452380D01*
X250460000Y-72166666D01*
X250793333Y-71452380D01*
X250793333Y-72452380D01*
X251269523Y-72452380D02*
X251269523Y-71452380D01*
X251269523Y-71928571D02*
X251840952Y-71928571D01*
X251840952Y-72452380D02*
X251840952Y-71452380D01*
X252221904Y-71452380D02*
X252840952Y-71452380D01*
X252507619Y-71833333D01*
X252650476Y-71833333D01*
X252745714Y-71880952D01*
X252793333Y-71928571D01*
X252840952Y-72023809D01*
X252840952Y-72261904D01*
X252793333Y-72357142D01*
X252745714Y-72404761D01*
X252650476Y-72452380D01*
X252364761Y-72452380D01*
X252269523Y-72404761D01*
X252221904Y-72357142D01*
%TO.C,MH4*%
X250126666Y-62047380D02*
X250126666Y-61047380D01*
X250460000Y-61761666D01*
X250793333Y-61047380D01*
X250793333Y-62047380D01*
X251269523Y-62047380D02*
X251269523Y-61047380D01*
X251269523Y-61523571D02*
X251840952Y-61523571D01*
X251840952Y-62047380D02*
X251840952Y-61047380D01*
X252745714Y-61380714D02*
X252745714Y-62047380D01*
X252507619Y-60999761D02*
X252269523Y-61714047D01*
X252888571Y-61714047D01*
%TO.C,MH2*%
X115506666Y-72452380D02*
X115506666Y-71452380D01*
X115840000Y-72166666D01*
X116173333Y-71452380D01*
X116173333Y-72452380D01*
X116649523Y-72452380D02*
X116649523Y-71452380D01*
X116649523Y-71928571D02*
X117220952Y-71928571D01*
X117220952Y-72452380D02*
X117220952Y-71452380D01*
X117649523Y-71547619D02*
X117697142Y-71500000D01*
X117792380Y-71452380D01*
X118030476Y-71452380D01*
X118125714Y-71500000D01*
X118173333Y-71547619D01*
X118220952Y-71642857D01*
X118220952Y-71738095D01*
X118173333Y-71880952D01*
X117601904Y-72452380D01*
X118220952Y-72452380D01*
%TO.C,MH1*%
X115506666Y-62047380D02*
X115506666Y-61047380D01*
X115840000Y-61761666D01*
X116173333Y-61047380D01*
X116173333Y-62047380D01*
X116649523Y-62047380D02*
X116649523Y-61047380D01*
X116649523Y-61523571D02*
X117220952Y-61523571D01*
X117220952Y-62047380D02*
X117220952Y-61047380D01*
X118220952Y-62047380D02*
X117649523Y-62047380D01*
X117935238Y-62047380D02*
X117935238Y-61047380D01*
X117840000Y-61190238D01*
X117744761Y-61285476D01*
X117649523Y-61333095D01*
%TO.C,J2*%
X169402380Y-56213333D02*
X170116666Y-56213333D01*
X170259523Y-56260952D01*
X170354761Y-56356190D01*
X170402380Y-56499047D01*
X170402380Y-56594285D01*
X169497619Y-55784761D02*
X169450000Y-55737142D01*
X169402380Y-55641904D01*
X169402380Y-55403809D01*
X169450000Y-55308571D01*
X169497619Y-55260952D01*
X169592857Y-55213333D01*
X169688095Y-55213333D01*
X169830952Y-55260952D01*
X170402380Y-55832380D01*
X170402380Y-55213333D01*
%TO.C,D41*%
X240085714Y-73732380D02*
X240085714Y-72732380D01*
X240323809Y-72732380D01*
X240466666Y-72780000D01*
X240561904Y-72875238D01*
X240609523Y-72970476D01*
X240657142Y-73160952D01*
X240657142Y-73303809D01*
X240609523Y-73494285D01*
X240561904Y-73589523D01*
X240466666Y-73684761D01*
X240323809Y-73732380D01*
X240085714Y-73732380D01*
X241514285Y-73065714D02*
X241514285Y-73732380D01*
X241276190Y-72684761D02*
X241038095Y-73399047D01*
X241657142Y-73399047D01*
X242561904Y-73732380D02*
X241990476Y-73732380D01*
X242276190Y-73732380D02*
X242276190Y-72732380D01*
X242180952Y-72875238D01*
X242085714Y-72970476D01*
X241990476Y-73018095D01*
%TO.C,D40*%
X221035714Y-73732380D02*
X221035714Y-72732380D01*
X221273809Y-72732380D01*
X221416666Y-72780000D01*
X221511904Y-72875238D01*
X221559523Y-72970476D01*
X221607142Y-73160952D01*
X221607142Y-73303809D01*
X221559523Y-73494285D01*
X221511904Y-73589523D01*
X221416666Y-73684761D01*
X221273809Y-73732380D01*
X221035714Y-73732380D01*
X222464285Y-73065714D02*
X222464285Y-73732380D01*
X222226190Y-72684761D02*
X221988095Y-73399047D01*
X222607142Y-73399047D01*
X223178571Y-72732380D02*
X223273809Y-72732380D01*
X223369047Y-72780000D01*
X223416666Y-72827619D01*
X223464285Y-72922857D01*
X223511904Y-73113333D01*
X223511904Y-73351428D01*
X223464285Y-73541904D01*
X223416666Y-73637142D01*
X223369047Y-73684761D01*
X223273809Y-73732380D01*
X223178571Y-73732380D01*
X223083333Y-73684761D01*
X223035714Y-73637142D01*
X222988095Y-73541904D01*
X222940476Y-73351428D01*
X222940476Y-73113333D01*
X222988095Y-72922857D01*
X223035714Y-72827619D01*
X223083333Y-72780000D01*
X223178571Y-72732380D01*
%TO.C,D39*%
X201985714Y-73732380D02*
X201985714Y-72732380D01*
X202223809Y-72732380D01*
X202366666Y-72780000D01*
X202461904Y-72875238D01*
X202509523Y-72970476D01*
X202557142Y-73160952D01*
X202557142Y-73303809D01*
X202509523Y-73494285D01*
X202461904Y-73589523D01*
X202366666Y-73684761D01*
X202223809Y-73732380D01*
X201985714Y-73732380D01*
X202890476Y-72732380D02*
X203509523Y-72732380D01*
X203176190Y-73113333D01*
X203319047Y-73113333D01*
X203414285Y-73160952D01*
X203461904Y-73208571D01*
X203509523Y-73303809D01*
X203509523Y-73541904D01*
X203461904Y-73637142D01*
X203414285Y-73684761D01*
X203319047Y-73732380D01*
X203033333Y-73732380D01*
X202938095Y-73684761D01*
X202890476Y-73637142D01*
X203985714Y-73732380D02*
X204176190Y-73732380D01*
X204271428Y-73684761D01*
X204319047Y-73637142D01*
X204414285Y-73494285D01*
X204461904Y-73303809D01*
X204461904Y-72922857D01*
X204414285Y-72827619D01*
X204366666Y-72780000D01*
X204271428Y-72732380D01*
X204080952Y-72732380D01*
X203985714Y-72780000D01*
X203938095Y-72827619D01*
X203890476Y-72922857D01*
X203890476Y-73160952D01*
X203938095Y-73256190D01*
X203985714Y-73303809D01*
X204080952Y-73351428D01*
X204271428Y-73351428D01*
X204366666Y-73303809D01*
X204414285Y-73256190D01*
X204461904Y-73160952D01*
%TO.C,D38*%
X182935714Y-73732380D02*
X182935714Y-72732380D01*
X183173809Y-72732380D01*
X183316666Y-72780000D01*
X183411904Y-72875238D01*
X183459523Y-72970476D01*
X183507142Y-73160952D01*
X183507142Y-73303809D01*
X183459523Y-73494285D01*
X183411904Y-73589523D01*
X183316666Y-73684761D01*
X183173809Y-73732380D01*
X182935714Y-73732380D01*
X183840476Y-72732380D02*
X184459523Y-72732380D01*
X184126190Y-73113333D01*
X184269047Y-73113333D01*
X184364285Y-73160952D01*
X184411904Y-73208571D01*
X184459523Y-73303809D01*
X184459523Y-73541904D01*
X184411904Y-73637142D01*
X184364285Y-73684761D01*
X184269047Y-73732380D01*
X183983333Y-73732380D01*
X183888095Y-73684761D01*
X183840476Y-73637142D01*
X185030952Y-73160952D02*
X184935714Y-73113333D01*
X184888095Y-73065714D01*
X184840476Y-72970476D01*
X184840476Y-72922857D01*
X184888095Y-72827619D01*
X184935714Y-72780000D01*
X185030952Y-72732380D01*
X185221428Y-72732380D01*
X185316666Y-72780000D01*
X185364285Y-72827619D01*
X185411904Y-72922857D01*
X185411904Y-72970476D01*
X185364285Y-73065714D01*
X185316666Y-73113333D01*
X185221428Y-73160952D01*
X185030952Y-73160952D01*
X184935714Y-73208571D01*
X184888095Y-73256190D01*
X184840476Y-73351428D01*
X184840476Y-73541904D01*
X184888095Y-73637142D01*
X184935714Y-73684761D01*
X185030952Y-73732380D01*
X185221428Y-73732380D01*
X185316666Y-73684761D01*
X185364285Y-73637142D01*
X185411904Y-73541904D01*
X185411904Y-73351428D01*
X185364285Y-73256190D01*
X185316666Y-73208571D01*
X185221428Y-73160952D01*
%TO.C,D37*%
X163885714Y-73732380D02*
X163885714Y-72732380D01*
X164123809Y-72732380D01*
X164266666Y-72780000D01*
X164361904Y-72875238D01*
X164409523Y-72970476D01*
X164457142Y-73160952D01*
X164457142Y-73303809D01*
X164409523Y-73494285D01*
X164361904Y-73589523D01*
X164266666Y-73684761D01*
X164123809Y-73732380D01*
X163885714Y-73732380D01*
X164790476Y-72732380D02*
X165409523Y-72732380D01*
X165076190Y-73113333D01*
X165219047Y-73113333D01*
X165314285Y-73160952D01*
X165361904Y-73208571D01*
X165409523Y-73303809D01*
X165409523Y-73541904D01*
X165361904Y-73637142D01*
X165314285Y-73684761D01*
X165219047Y-73732380D01*
X164933333Y-73732380D01*
X164838095Y-73684761D01*
X164790476Y-73637142D01*
X165742857Y-72732380D02*
X166409523Y-72732380D01*
X165980952Y-73732380D01*
%TO.C,D36*%
X144835714Y-73732380D02*
X144835714Y-72732380D01*
X145073809Y-72732380D01*
X145216666Y-72780000D01*
X145311904Y-72875238D01*
X145359523Y-72970476D01*
X145407142Y-73160952D01*
X145407142Y-73303809D01*
X145359523Y-73494285D01*
X145311904Y-73589523D01*
X145216666Y-73684761D01*
X145073809Y-73732380D01*
X144835714Y-73732380D01*
X145740476Y-72732380D02*
X146359523Y-72732380D01*
X146026190Y-73113333D01*
X146169047Y-73113333D01*
X146264285Y-73160952D01*
X146311904Y-73208571D01*
X146359523Y-73303809D01*
X146359523Y-73541904D01*
X146311904Y-73637142D01*
X146264285Y-73684761D01*
X146169047Y-73732380D01*
X145883333Y-73732380D01*
X145788095Y-73684761D01*
X145740476Y-73637142D01*
X147216666Y-72732380D02*
X147026190Y-72732380D01*
X146930952Y-72780000D01*
X146883333Y-72827619D01*
X146788095Y-72970476D01*
X146740476Y-73160952D01*
X146740476Y-73541904D01*
X146788095Y-73637142D01*
X146835714Y-73684761D01*
X146930952Y-73732380D01*
X147121428Y-73732380D01*
X147216666Y-73684761D01*
X147264285Y-73637142D01*
X147311904Y-73541904D01*
X147311904Y-73303809D01*
X147264285Y-73208571D01*
X147216666Y-73160952D01*
X147121428Y-73113333D01*
X146930952Y-73113333D01*
X146835714Y-73160952D01*
X146788095Y-73208571D01*
X146740476Y-73303809D01*
%TO.C,D35*%
X125785714Y-73732380D02*
X125785714Y-72732380D01*
X126023809Y-72732380D01*
X126166666Y-72780000D01*
X126261904Y-72875238D01*
X126309523Y-72970476D01*
X126357142Y-73160952D01*
X126357142Y-73303809D01*
X126309523Y-73494285D01*
X126261904Y-73589523D01*
X126166666Y-73684761D01*
X126023809Y-73732380D01*
X125785714Y-73732380D01*
X126690476Y-72732380D02*
X127309523Y-72732380D01*
X126976190Y-73113333D01*
X127119047Y-73113333D01*
X127214285Y-73160952D01*
X127261904Y-73208571D01*
X127309523Y-73303809D01*
X127309523Y-73541904D01*
X127261904Y-73637142D01*
X127214285Y-73684761D01*
X127119047Y-73732380D01*
X126833333Y-73732380D01*
X126738095Y-73684761D01*
X126690476Y-73637142D01*
X128214285Y-72732380D02*
X127738095Y-72732380D01*
X127690476Y-73208571D01*
X127738095Y-73160952D01*
X127833333Y-73113333D01*
X128071428Y-73113333D01*
X128166666Y-73160952D01*
X128214285Y-73208571D01*
X128261904Y-73303809D01*
X128261904Y-73541904D01*
X128214285Y-73637142D01*
X128166666Y-73684761D01*
X128071428Y-73732380D01*
X127833333Y-73732380D01*
X127738095Y-73684761D01*
X127690476Y-73637142D01*
%TO.C,SW1*%
X125666666Y-62634761D02*
X125809523Y-62682380D01*
X126047619Y-62682380D01*
X126142857Y-62634761D01*
X126190476Y-62587142D01*
X126238095Y-62491904D01*
X126238095Y-62396666D01*
X126190476Y-62301428D01*
X126142857Y-62253809D01*
X126047619Y-62206190D01*
X125857142Y-62158571D01*
X125761904Y-62110952D01*
X125714285Y-62063333D01*
X125666666Y-61968095D01*
X125666666Y-61872857D01*
X125714285Y-61777619D01*
X125761904Y-61730000D01*
X125857142Y-61682380D01*
X126095238Y-61682380D01*
X126238095Y-61730000D01*
X126571428Y-61682380D02*
X126809523Y-62682380D01*
X127000000Y-61968095D01*
X127190476Y-62682380D01*
X127428571Y-61682380D01*
X128333333Y-62682380D02*
X127761904Y-62682380D01*
X128047619Y-62682380D02*
X128047619Y-61682380D01*
X127952380Y-61825238D01*
X127857142Y-61920476D01*
X127761904Y-61968095D01*
%TO.C,SW2*%
X144716666Y-62634761D02*
X144859523Y-62682380D01*
X145097619Y-62682380D01*
X145192857Y-62634761D01*
X145240476Y-62587142D01*
X145288095Y-62491904D01*
X145288095Y-62396666D01*
X145240476Y-62301428D01*
X145192857Y-62253809D01*
X145097619Y-62206190D01*
X144907142Y-62158571D01*
X144811904Y-62110952D01*
X144764285Y-62063333D01*
X144716666Y-61968095D01*
X144716666Y-61872857D01*
X144764285Y-61777619D01*
X144811904Y-61730000D01*
X144907142Y-61682380D01*
X145145238Y-61682380D01*
X145288095Y-61730000D01*
X145621428Y-61682380D02*
X145859523Y-62682380D01*
X146050000Y-61968095D01*
X146240476Y-62682380D01*
X146478571Y-61682380D01*
X146811904Y-61777619D02*
X146859523Y-61730000D01*
X146954761Y-61682380D01*
X147192857Y-61682380D01*
X147288095Y-61730000D01*
X147335714Y-61777619D01*
X147383333Y-61872857D01*
X147383333Y-61968095D01*
X147335714Y-62110952D01*
X146764285Y-62682380D01*
X147383333Y-62682380D01*
%TO.C,SW3*%
X163766666Y-62634761D02*
X163909523Y-62682380D01*
X164147619Y-62682380D01*
X164242857Y-62634761D01*
X164290476Y-62587142D01*
X164338095Y-62491904D01*
X164338095Y-62396666D01*
X164290476Y-62301428D01*
X164242857Y-62253809D01*
X164147619Y-62206190D01*
X163957142Y-62158571D01*
X163861904Y-62110952D01*
X163814285Y-62063333D01*
X163766666Y-61968095D01*
X163766666Y-61872857D01*
X163814285Y-61777619D01*
X163861904Y-61730000D01*
X163957142Y-61682380D01*
X164195238Y-61682380D01*
X164338095Y-61730000D01*
X164671428Y-61682380D02*
X164909523Y-62682380D01*
X165100000Y-61968095D01*
X165290476Y-62682380D01*
X165528571Y-61682380D01*
X165814285Y-61682380D02*
X166433333Y-61682380D01*
X166100000Y-62063333D01*
X166242857Y-62063333D01*
X166338095Y-62110952D01*
X166385714Y-62158571D01*
X166433333Y-62253809D01*
X166433333Y-62491904D01*
X166385714Y-62587142D01*
X166338095Y-62634761D01*
X166242857Y-62682380D01*
X165957142Y-62682380D01*
X165861904Y-62634761D01*
X165814285Y-62587142D01*
%TO.C,SW4*%
X182816666Y-62634761D02*
X182959523Y-62682380D01*
X183197619Y-62682380D01*
X183292857Y-62634761D01*
X183340476Y-62587142D01*
X183388095Y-62491904D01*
X183388095Y-62396666D01*
X183340476Y-62301428D01*
X183292857Y-62253809D01*
X183197619Y-62206190D01*
X183007142Y-62158571D01*
X182911904Y-62110952D01*
X182864285Y-62063333D01*
X182816666Y-61968095D01*
X182816666Y-61872857D01*
X182864285Y-61777619D01*
X182911904Y-61730000D01*
X183007142Y-61682380D01*
X183245238Y-61682380D01*
X183388095Y-61730000D01*
X183721428Y-61682380D02*
X183959523Y-62682380D01*
X184150000Y-61968095D01*
X184340476Y-62682380D01*
X184578571Y-61682380D01*
X185388095Y-62015714D02*
X185388095Y-62682380D01*
X185150000Y-61634761D02*
X184911904Y-62349047D01*
X185530952Y-62349047D01*
%TO.C,SW5*%
X201866666Y-62634761D02*
X202009523Y-62682380D01*
X202247619Y-62682380D01*
X202342857Y-62634761D01*
X202390476Y-62587142D01*
X202438095Y-62491904D01*
X202438095Y-62396666D01*
X202390476Y-62301428D01*
X202342857Y-62253809D01*
X202247619Y-62206190D01*
X202057142Y-62158571D01*
X201961904Y-62110952D01*
X201914285Y-62063333D01*
X201866666Y-61968095D01*
X201866666Y-61872857D01*
X201914285Y-61777619D01*
X201961904Y-61730000D01*
X202057142Y-61682380D01*
X202295238Y-61682380D01*
X202438095Y-61730000D01*
X202771428Y-61682380D02*
X203009523Y-62682380D01*
X203200000Y-61968095D01*
X203390476Y-62682380D01*
X203628571Y-61682380D01*
X204485714Y-61682380D02*
X204009523Y-61682380D01*
X203961904Y-62158571D01*
X204009523Y-62110952D01*
X204104761Y-62063333D01*
X204342857Y-62063333D01*
X204438095Y-62110952D01*
X204485714Y-62158571D01*
X204533333Y-62253809D01*
X204533333Y-62491904D01*
X204485714Y-62587142D01*
X204438095Y-62634761D01*
X204342857Y-62682380D01*
X204104761Y-62682380D01*
X204009523Y-62634761D01*
X203961904Y-62587142D01*
%TO.C,SW6*%
X220916666Y-62634761D02*
X221059523Y-62682380D01*
X221297619Y-62682380D01*
X221392857Y-62634761D01*
X221440476Y-62587142D01*
X221488095Y-62491904D01*
X221488095Y-62396666D01*
X221440476Y-62301428D01*
X221392857Y-62253809D01*
X221297619Y-62206190D01*
X221107142Y-62158571D01*
X221011904Y-62110952D01*
X220964285Y-62063333D01*
X220916666Y-61968095D01*
X220916666Y-61872857D01*
X220964285Y-61777619D01*
X221011904Y-61730000D01*
X221107142Y-61682380D01*
X221345238Y-61682380D01*
X221488095Y-61730000D01*
X221821428Y-61682380D02*
X222059523Y-62682380D01*
X222250000Y-61968095D01*
X222440476Y-62682380D01*
X222678571Y-61682380D01*
X223488095Y-61682380D02*
X223297619Y-61682380D01*
X223202380Y-61730000D01*
X223154761Y-61777619D01*
X223059523Y-61920476D01*
X223011904Y-62110952D01*
X223011904Y-62491904D01*
X223059523Y-62587142D01*
X223107142Y-62634761D01*
X223202380Y-62682380D01*
X223392857Y-62682380D01*
X223488095Y-62634761D01*
X223535714Y-62587142D01*
X223583333Y-62491904D01*
X223583333Y-62253809D01*
X223535714Y-62158571D01*
X223488095Y-62110952D01*
X223392857Y-62063333D01*
X223202380Y-62063333D01*
X223107142Y-62110952D01*
X223059523Y-62158571D01*
X223011904Y-62253809D01*
%TO.C,SW7*%
X239966666Y-62634761D02*
X240109523Y-62682380D01*
X240347619Y-62682380D01*
X240442857Y-62634761D01*
X240490476Y-62587142D01*
X240538095Y-62491904D01*
X240538095Y-62396666D01*
X240490476Y-62301428D01*
X240442857Y-62253809D01*
X240347619Y-62206190D01*
X240157142Y-62158571D01*
X240061904Y-62110952D01*
X240014285Y-62063333D01*
X239966666Y-61968095D01*
X239966666Y-61872857D01*
X240014285Y-61777619D01*
X240061904Y-61730000D01*
X240157142Y-61682380D01*
X240395238Y-61682380D01*
X240538095Y-61730000D01*
X240871428Y-61682380D02*
X241109523Y-62682380D01*
X241300000Y-61968095D01*
X241490476Y-62682380D01*
X241728571Y-61682380D01*
X242014285Y-61682380D02*
X242680952Y-61682380D01*
X242252380Y-62682380D01*
%TD*%
M02*
