%TF.GenerationSoftware,KiCad,Pcbnew,(5.1.9)-1*%
%TF.CreationDate,2021-05-29T21:32:23-04:00*%
%TF.ProjectId,LowerBar,4c6f7765-7242-4617-922e-6b696361645f,rev?*%
%TF.SameCoordinates,Original*%
%TF.FileFunction,Legend,Bot*%
%TF.FilePolarity,Positive*%
%FSLAX46Y46*%
G04 Gerber Fmt 4.6, Leading zero omitted, Abs format (unit mm)*
G04 Created by KiCad (PCBNEW (5.1.9)-1) date 2021-05-29 21:32:23*
%MOMM*%
%LPD*%
G01*
G04 APERTURE LIST*
%ADD10C,0.150000*%
G04 APERTURE END LIST*
D10*
X190951428Y-59142380D02*
X190380000Y-59142380D01*
X190665714Y-60142380D02*
X190665714Y-59142380D01*
X190094285Y-59856666D02*
X189618095Y-59856666D01*
X190189523Y-60142380D02*
X189856190Y-59142380D01*
X189522857Y-60142380D01*
X188618095Y-60047142D02*
X188665714Y-60094761D01*
X188808571Y-60142380D01*
X188903809Y-60142380D01*
X189046666Y-60094761D01*
X189141904Y-59999523D01*
X189189523Y-59904285D01*
X189237142Y-59713809D01*
X189237142Y-59570952D01*
X189189523Y-59380476D01*
X189141904Y-59285238D01*
X189046666Y-59190000D01*
X188903809Y-59142380D01*
X188808571Y-59142380D01*
X188665714Y-59190000D01*
X188618095Y-59237619D01*
X187427619Y-59142380D02*
X187427619Y-59951904D01*
X187380000Y-60047142D01*
X187332380Y-60094761D01*
X187237142Y-60142380D01*
X187046666Y-60142380D01*
X186951428Y-60094761D01*
X186903809Y-60047142D01*
X186856190Y-59951904D01*
X186856190Y-59142380D01*
X186046666Y-59618571D02*
X186380000Y-59618571D01*
X186380000Y-60142380D02*
X186380000Y-59142380D01*
X185903809Y-59142380D01*
X184951428Y-60047142D02*
X184999047Y-60094761D01*
X185141904Y-60142380D01*
X185237142Y-60142380D01*
X185380000Y-60094761D01*
X185475238Y-59999523D01*
X185522857Y-59904285D01*
X185570476Y-59713809D01*
X185570476Y-59570952D01*
X185522857Y-59380476D01*
X185475238Y-59285238D01*
X185380000Y-59190000D01*
X185237142Y-59142380D01*
X185141904Y-59142380D01*
X184999047Y-59190000D01*
X184951428Y-59237619D01*
X183427619Y-59618571D02*
X183284761Y-59666190D01*
X183237142Y-59713809D01*
X183189523Y-59809047D01*
X183189523Y-59951904D01*
X183237142Y-60047142D01*
X183284761Y-60094761D01*
X183380000Y-60142380D01*
X183760952Y-60142380D01*
X183760952Y-59142380D01*
X183427619Y-59142380D01*
X183332380Y-59190000D01*
X183284761Y-59237619D01*
X183237142Y-59332857D01*
X183237142Y-59428095D01*
X183284761Y-59523333D01*
X183332380Y-59570952D01*
X183427619Y-59618571D01*
X183760952Y-59618571D01*
X182760952Y-59142380D02*
X182760952Y-59951904D01*
X182713333Y-60047142D01*
X182665714Y-60094761D01*
X182570476Y-60142380D01*
X182380000Y-60142380D01*
X182284761Y-60094761D01*
X182237142Y-60047142D01*
X182189523Y-59951904D01*
X182189523Y-59142380D01*
X181856190Y-59142380D02*
X181284761Y-59142380D01*
X181570476Y-60142380D02*
X181570476Y-59142380D01*
X181094285Y-59142380D02*
X180522857Y-59142380D01*
X180808571Y-60142380D02*
X180808571Y-59142380D01*
X179999047Y-59142380D02*
X179808571Y-59142380D01*
X179713333Y-59190000D01*
X179618095Y-59285238D01*
X179570476Y-59475714D01*
X179570476Y-59809047D01*
X179618095Y-59999523D01*
X179713333Y-60094761D01*
X179808571Y-60142380D01*
X179999047Y-60142380D01*
X180094285Y-60094761D01*
X180189523Y-59999523D01*
X180237142Y-59809047D01*
X180237142Y-59475714D01*
X180189523Y-59285238D01*
X180094285Y-59190000D01*
X179999047Y-59142380D01*
X179141904Y-60142380D02*
X179141904Y-59142380D01*
X178570476Y-60142380D01*
X178570476Y-59142380D01*
X176999047Y-59618571D02*
X176856190Y-59666190D01*
X176808571Y-59713809D01*
X176760952Y-59809047D01*
X176760952Y-59951904D01*
X176808571Y-60047142D01*
X176856190Y-60094761D01*
X176951428Y-60142380D01*
X177332380Y-60142380D01*
X177332380Y-59142380D01*
X176999047Y-59142380D01*
X176903809Y-59190000D01*
X176856190Y-59237619D01*
X176808571Y-59332857D01*
X176808571Y-59428095D01*
X176856190Y-59523333D01*
X176903809Y-59570952D01*
X176999047Y-59618571D01*
X177332380Y-59618571D01*
X176380000Y-59856666D02*
X175903809Y-59856666D01*
X176475238Y-60142380D02*
X176141904Y-59142380D01*
X175808571Y-60142380D01*
X174903809Y-60142380D02*
X175237142Y-59666190D01*
X175475238Y-60142380D02*
X175475238Y-59142380D01*
X175094285Y-59142380D01*
X174999047Y-59190000D01*
X174951428Y-59237619D01*
X174903809Y-59332857D01*
X174903809Y-59475714D01*
X174951428Y-59570952D01*
X174999047Y-59618571D01*
X175094285Y-59666190D01*
X175475238Y-59666190D01*
M02*
