M48
; DRILL file {KiCad (5.1.9)-1} date 05/14/21 22:59:01
; FORMAT={-:-/ absolute / inch / decimal}
; #@! TF.CreationDate,2021-05-14T22:59:01-04:00
; #@! TF.GenerationSoftware,Kicad,Pcbnew,(5.1.9)-1
; #@! TF.FileFunction,NonPlated,1,2,NPTH
FMAT,2
INCH
T1C0.0197
T2C0.1575
%
G90
G05
T1
X3.7142Y-3.3311
X3.7394Y-4.8315
X3.7433Y-3.3315
X3.7669Y-4.8315
X3.7709Y-3.3315
X3.7945Y-4.8315
X3.7984Y-3.3315
X3.822Y-4.8315
X3.826Y-3.3315
X3.8496Y-4.8315
X3.8535Y-3.3315
X3.8772Y-4.8315
X3.8811Y-3.3315
X3.9031Y-4.8311
X3.9071Y-3.3311
X3.9311Y-3.3307
X3.9311Y-4.8307
X3.9606Y-3.3307
X3.9606Y-4.8307
X3.9902Y-3.3307
X3.9902Y-4.8307
X4.0197Y-3.2421
X4.0197Y-3.2717
X4.0197Y-3.3012
X4.0197Y-3.3543
X4.0197Y-3.3839
X4.0197Y-3.4134
X4.0197Y-3.9252
X4.0197Y-3.9547
X4.0197Y-3.9843
X4.0197Y-4.0591
X4.0197Y-4.1339
X4.0197Y-4.1634
X4.0197Y-4.1929
X4.0197Y-4.748
X4.0197Y-4.7776
X4.0197Y-4.8071
X4.0197Y-4.8602
X4.0197Y-4.8898
X4.0197Y-4.9193
X4.0433Y-3.3307
X4.0433Y-4.0079
X4.0433Y-4.1102
X4.0433Y-4.8307
X4.0728Y-3.3307
X4.0728Y-4.0079
X4.0728Y-4.1102
X4.0728Y-4.8307
X4.1024Y-3.3307
X4.1024Y-4.0079
X4.1024Y-4.1102
X4.1024Y-4.8307
X4.8012Y-3.2283
X4.8012Y-3.3307
X4.8307Y-3.2283
X4.8307Y-3.3307
X4.8602Y-3.2283
X4.8602Y-3.3307
X4.9016Y-4.1102
X4.9016Y-4.8307
X4.9094Y-4.0118
X4.9311Y-4.1102
X4.9311Y-4.8307
X4.937Y-4.0118
X4.9606Y-4.1102
X4.9606Y-4.8307
X4.9646Y-4.0118
X4.9843Y-4.1339
X4.9843Y-4.1634
X4.9843Y-4.1929
X4.9843Y-4.748
X4.9843Y-4.7776
X4.9843Y-4.8071
X4.9937Y-4.0122
X5.0213Y-4.0122
X5.0354Y-4.1102
X5.0354Y-4.8307
X5.0488Y-4.0122
X5.0764Y-4.0122
X5.0866Y-4.1339
X5.0866Y-4.1634
X5.0866Y-4.1929
X5.0866Y-4.748
X5.0866Y-4.7776
X5.0866Y-4.8071
X5.1039Y-4.0122
X5.1102Y-4.1102
X5.1102Y-4.8307
X5.1315Y-4.0122
X5.1398Y-4.1102
X5.1398Y-4.8307
X5.1575Y-4.0118
X5.1693Y-4.1102
X5.1693Y-4.8307
X5.5217Y-3.2283
X5.5217Y-3.3307
X5.5512Y-3.2283
X5.5512Y-3.3307
X5.5807Y-3.2283
X5.5807Y-3.3307
X5.6083Y-4.0079
X5.6083Y-4.1102
X5.6378Y-4.0079
X5.6378Y-4.1102
X5.6673Y-4.0079
X5.6673Y-4.1102
X5.9724Y-4.8307
X6.002Y-4.8307
X6.0315Y-4.8307
X6.0551Y-4.748
X6.0551Y-4.7776
X6.0551Y-4.8071
X6.0551Y-4.8602
X6.0551Y-4.8898
X6.0551Y-4.9193
X6.0846Y-4.8307
X6.1142Y-4.8307
X6.1437Y-4.8307
X6.1709Y-4.8311
X6.1969Y-4.8307
X6.2244Y-4.8307
X6.2362Y-3.3307
X6.2362Y-4.0079
X6.252Y-4.8307
X6.2657Y-3.3307
X6.2657Y-4.0079
X6.2795Y-4.8307
X6.2953Y-3.3307
X6.2953Y-4.0079
X6.3071Y-4.8307
X6.3189Y-3.2421
X6.3189Y-3.2717
X6.3189Y-3.3012
X6.3189Y-3.3543
X6.3189Y-3.3839
X6.3189Y-3.4134
X6.3189Y-3.9252
X6.3189Y-3.9547
X6.3189Y-3.9843
X6.3189Y-4.0374
X6.3189Y-4.0669
X6.3189Y-4.0965
X6.3346Y-4.8307
X6.3484Y-3.3307
X6.3484Y-4.0079
X6.3638Y-4.8311
X6.378Y-3.3307
X6.378Y-4.0079
X6.3913Y-4.8311
X6.4075Y-3.3307
X6.4075Y-4.0079
X6.4189Y-4.8311
X6.4346Y-3.3311
X6.4449Y-4.8307
X6.4606Y-3.3307
X6.4724Y-4.8307
X6.4882Y-3.3307
X6.5Y-4.8307
X6.5157Y-3.3307
X6.5276Y-4.8307
X6.5433Y-3.3307
X6.5551Y-4.8307
X6.5709Y-3.3307
X6.5827Y-4.8307
X6.5984Y-3.3307
T2
X4.0945Y-3.0315
X6.2205Y-3.0315
T0
M30
