M48
; DRILL file {KiCad (5.1.9)-1} date 05/14/21 22:59:01
; FORMAT={-:-/ absolute / inch / decimal}
; #@! TF.CreationDate,2021-05-14T22:59:01-04:00
; #@! TF.GenerationSoftware,Kicad,Pcbnew,(5.1.9)-1
; #@! TF.FileFunction,Plated,1,2,PTH
FMAT,2
INCH
T1C0.0079
T2C0.0394
%
G90
G05
T1
X4.0894Y-3.5558
X4.0894Y-3.7658
X4.0944Y-3.6708
X4.1244Y-3.5108
X4.1294Y-3.6708
X4.1294Y-3.7908
X4.1444Y-3.8458
X4.1644Y-3.4758
X4.1776Y-4.3222
X4.2401Y-4.4772
X4.2494Y-3.7808
X4.2544Y-3.5224
X4.2588Y-4.4088
X4.2644Y-3.6658
X4.2644Y-3.8258
X4.2894Y-3.5908
X4.3144Y-3.4908
X4.3201Y-4.4622
X4.3344Y-3.7058
X4.3401Y-4.3872
X4.3744Y-3.7908
X4.3794Y-3.5558
X4.3796Y-4.4748
X4.4144Y-3.5808
X4.4144Y-3.8308
X4.4194Y-3.7808
X4.4301Y-4.4347
X4.4344Y-3.5108
X4.4394Y-3.6708
X4.4444Y-3.8458
X4.4794Y-3.4908
X4.4901Y-4.4697
X4.5024Y-4.597
X4.5353Y-4.2874
X4.5376Y-4.3897
X4.5594Y-3.5524
X4.5644Y-3.7758
X4.5741Y-3.5041
X4.5744Y-3.6658
X4.5744Y-3.8258
X4.6019Y-3.5908
X4.6044Y-3.4858
X4.6251Y-4.3222
X4.6394Y-3.7058
X4.6494Y-3.5058
X4.6576Y-4.2872
X4.6691Y-4.4262
X4.6744Y-3.4608
X4.6878Y-3.7958
X4.7242Y-4.4068
X4.7394Y-3.4658
X4.7394Y-3.5008
X4.7494Y-3.6708
X4.7544Y-3.8508
X4.7563Y-4.3184
X4.7894Y-3.6258
X4.8251Y-4.4297
X4.8494Y-3.8208
X4.8594Y-3.5458
X4.8594Y-3.6658
X4.8694Y-3.7858
X4.9116Y-3.8333
X4.9194Y-3.6708
X4.9594Y-3.6258
X5.0194Y-3.8087
X5.0294Y-3.5458
X5.0294Y-3.6658
X5.0394Y-3.7808
X5.0894Y-3.6708
X5.0894Y-3.8264
X5.1294Y-3.6258
X5.1894Y-3.801
X5.1994Y-3.5458
X5.1994Y-3.6608
X5.2144Y-3.7793
X5.2465Y-4.3222
X5.2644Y-3.6708
X5.2644Y-3.8187
X5.2994Y-3.6258
X5.309Y-4.4772
X5.3277Y-4.4088
X5.3344Y-3.5108
X5.3594Y-3.8758
X5.3644Y-3.5108
X5.3644Y-3.8258
X5.3744Y-3.7858
X5.3878Y-3.5308
X5.389Y-4.4622
X5.409Y-4.3872
X5.4283Y-3.8291
X5.4294Y-3.6658
X5.4485Y-4.4748
X5.4544Y-3.8508
X5.499Y-4.4347
X5.4994Y-3.6308
X5.5344Y-3.6708
X5.5394Y-3.5458
X5.5394Y-3.8041
X5.559Y-4.4697
X5.5594Y-3.7808
X5.5713Y-4.597
X5.6042Y-4.2874
X5.6044Y-3.6758
X5.6044Y-3.8258
X5.6065Y-4.3897
X5.6694Y-3.6308
X5.694Y-4.3222
X5.7094Y-3.6708
X5.7094Y-3.8041
X5.7144Y-3.5458
X5.7265Y-4.2872
X5.7294Y-3.7808
X5.738Y-4.4262
X5.7444Y-3.6308
X5.7644Y-3.8558
X5.7744Y-3.6758
X5.7744Y-3.8258
X5.7931Y-4.4068
X5.8094Y-3.8824
X5.8252Y-4.3184
X5.8444Y-3.6258
X5.8794Y-3.6708
X5.8794Y-3.8041
X5.8844Y-3.5458
X5.894Y-4.4297
X5.8994Y-3.7808
X5.9094Y-3.8824
X5.9444Y-3.6758
X5.9494Y-3.8341
X6.0144Y-3.6258
X6.0494Y-3.6708
X6.0544Y-3.8094
X6.0544Y-3.5458
X6.0578Y-3.784
X6.1094Y-3.8824
X6.1194Y-3.6758
X6.1244Y-3.8341
X6.1894Y-3.6308
X6.2244Y-3.5458
X6.2244Y-3.6708
X6.2244Y-3.8208
X6.2444Y-3.7808
T2
X4.1026Y-4.1947
X4.1026Y-4.7447
X4.2026Y-4.1947
X4.2026Y-4.7447
X4.2144Y-3.4108
X4.2144Y-3.9308
X4.3026Y-4.1947
X4.3026Y-4.7447
X4.3144Y-3.4108
X4.3144Y-3.9308
X4.4026Y-4.1947
X4.4026Y-4.7447
X4.4144Y-3.4108
X4.4144Y-3.9308
X4.5026Y-4.1947
X4.5026Y-4.7447
X4.5144Y-3.4108
X4.5144Y-3.9308
X4.6026Y-4.1947
X4.6026Y-4.7447
X4.6144Y-3.4108
X4.7026Y-4.1947
X4.7026Y-4.7447
X4.7144Y-3.4108
X4.8026Y-4.1947
X4.8026Y-4.7447
X4.8144Y-3.4108
X4.8694Y-3.9308
X4.9026Y-4.1947
X4.9026Y-4.7447
X4.9144Y-3.4108
X4.9694Y-3.9308
X5.0694Y-3.9308
X5.1694Y-3.9308
X5.1715Y-4.1947
X5.1715Y-4.7447
X5.2694Y-3.9308
X5.2715Y-4.1947
X5.2715Y-4.7447
X5.3715Y-4.1947
X5.3715Y-4.7447
X5.4715Y-4.1947
X5.4715Y-4.7447
X5.5594Y-3.4108
X5.5594Y-3.9308
X5.5715Y-4.1947
X5.5715Y-4.7447
X5.6594Y-3.4108
X5.6594Y-3.9308
X5.6715Y-4.1947
X5.6715Y-4.7447
X5.7594Y-3.4108
X5.7594Y-3.9308
X5.7715Y-4.1947
X5.7715Y-4.7447
X5.8594Y-3.4108
X5.8594Y-3.9308
X5.8715Y-4.1947
X5.8715Y-4.7447
X5.9594Y-3.4108
X5.9594Y-3.9308
X5.9715Y-4.1947
X5.9715Y-4.7447
X6.0594Y-3.4108
X6.0594Y-3.9308
X6.1594Y-3.4108
X6.1594Y-3.9308
T0
M30
