G04 #@! TF.GenerationSoftware,KiCad,Pcbnew,(5.1.9)-1*
G04 #@! TF.CreationDate,2021-05-14T22:58:57-04:00*
G04 #@! TF.ProjectId,Scratch+Com Panelized,53637261-7463-4682-9b43-6f6d2050616e,rev?*
G04 #@! TF.SameCoordinates,Original*
G04 #@! TF.FileFunction,Paste,Top*
G04 #@! TF.FilePolarity,Positive*
%FSLAX46Y46*%
G04 Gerber Fmt 4.6, Leading zero omitted, Abs format (unit mm)*
G04 Created by KiCad (PCBNEW (5.1.9)-1) date 2021-05-14 22:58:57*
%MOMM*%
%LPD*%
G01*
G04 APERTURE LIST*
%ADD10C,4.000000*%
G04 APERTURE END LIST*
D10*
X158000000Y-77000000D03*
X104000000Y-77000000D03*
G36*
G01*
X116108500Y-91467500D02*
X115763500Y-91467500D01*
G75*
G02*
X115616000Y-91320000I0J147500D01*
G01*
X115616000Y-91025000D01*
G75*
G02*
X115763500Y-90877500I147500J0D01*
G01*
X116108500Y-90877500D01*
G75*
G02*
X116256000Y-91025000I0J-147500D01*
G01*
X116256000Y-91320000D01*
G75*
G02*
X116108500Y-91467500I-147500J0D01*
G01*
G37*
G36*
G01*
X116108500Y-92437500D02*
X115763500Y-92437500D01*
G75*
G02*
X115616000Y-92290000I0J147500D01*
G01*
X115616000Y-91995000D01*
G75*
G02*
X115763500Y-91847500I147500J0D01*
G01*
X116108500Y-91847500D01*
G75*
G02*
X116256000Y-91995000I0J-147500D01*
G01*
X116256000Y-92290000D01*
G75*
G02*
X116108500Y-92437500I-147500J0D01*
G01*
G37*
G36*
G01*
X117333500Y-89897500D02*
X117333500Y-90242500D01*
G75*
G02*
X117186000Y-90390000I-147500J0D01*
G01*
X116891000Y-90390000D01*
G75*
G02*
X116743500Y-90242500I0J147500D01*
G01*
X116743500Y-89897500D01*
G75*
G02*
X116891000Y-89750000I147500J0D01*
G01*
X117186000Y-89750000D01*
G75*
G02*
X117333500Y-89897500I0J-147500D01*
G01*
G37*
G36*
G01*
X118303500Y-89897500D02*
X118303500Y-90242500D01*
G75*
G02*
X118156000Y-90390000I-147500J0D01*
G01*
X117861000Y-90390000D01*
G75*
G02*
X117713500Y-90242500I0J147500D01*
G01*
X117713500Y-89897500D01*
G75*
G02*
X117861000Y-89750000I147500J0D01*
G01*
X118156000Y-89750000D01*
G75*
G02*
X118303500Y-89897500I0J-147500D01*
G01*
G37*
G36*
G01*
X114158500Y-96247500D02*
X114158500Y-96592500D01*
G75*
G02*
X114011000Y-96740000I-147500J0D01*
G01*
X113716000Y-96740000D01*
G75*
G02*
X113568500Y-96592500I0J147500D01*
G01*
X113568500Y-96247500D01*
G75*
G02*
X113716000Y-96100000I147500J0D01*
G01*
X114011000Y-96100000D01*
G75*
G02*
X114158500Y-96247500I0J-147500D01*
G01*
G37*
G36*
G01*
X115128500Y-96247500D02*
X115128500Y-96592500D01*
G75*
G02*
X114981000Y-96740000I-147500J0D01*
G01*
X114686000Y-96740000D01*
G75*
G02*
X114538500Y-96592500I0J147500D01*
G01*
X114538500Y-96247500D01*
G75*
G02*
X114686000Y-96100000I147500J0D01*
G01*
X114981000Y-96100000D01*
G75*
G02*
X115128500Y-96247500I0J-147500D01*
G01*
G37*
G36*
G01*
X114092173Y-94844875D02*
X114336125Y-95088827D01*
G75*
G02*
X114336125Y-95297423I-104298J-104298D01*
G01*
X114127529Y-95506019D01*
G75*
G02*
X113918933Y-95506019I-104298J104298D01*
G01*
X113674981Y-95262067D01*
G75*
G02*
X113674981Y-95053471I104298J104298D01*
G01*
X113883577Y-94844875D01*
G75*
G02*
X114092173Y-94844875I104298J-104298D01*
G01*
G37*
G36*
G01*
X114778067Y-94158981D02*
X115022019Y-94402933D01*
G75*
G02*
X115022019Y-94611529I-104298J-104298D01*
G01*
X114813423Y-94820125D01*
G75*
G02*
X114604827Y-94820125I-104298J104298D01*
G01*
X114360875Y-94576173D01*
G75*
G02*
X114360875Y-94367577I104298J104298D01*
G01*
X114569471Y-94158981D01*
G75*
G02*
X114778067Y-94158981I104298J-104298D01*
G01*
G37*
G36*
G01*
X117333500Y-93072500D02*
X117333500Y-93417500D01*
G75*
G02*
X117186000Y-93565000I-147500J0D01*
G01*
X116891000Y-93565000D01*
G75*
G02*
X116743500Y-93417500I0J147500D01*
G01*
X116743500Y-93072500D01*
G75*
G02*
X116891000Y-92925000I147500J0D01*
G01*
X117186000Y-92925000D01*
G75*
G02*
X117333500Y-93072500I0J-147500D01*
G01*
G37*
G36*
G01*
X118303500Y-93072500D02*
X118303500Y-93417500D01*
G75*
G02*
X118156000Y-93565000I-147500J0D01*
G01*
X117861000Y-93565000D01*
G75*
G02*
X117713500Y-93417500I0J147500D01*
G01*
X117713500Y-93072500D01*
G75*
G02*
X117861000Y-92925000I147500J0D01*
G01*
X118156000Y-92925000D01*
G75*
G02*
X118303500Y-93072500I0J-147500D01*
G01*
G37*
G36*
G01*
X117511125Y-94576173D02*
X117267173Y-94820125D01*
G75*
G02*
X117058577Y-94820125I-104298J104298D01*
G01*
X116849981Y-94611529D01*
G75*
G02*
X116849981Y-94402933I104298J104298D01*
G01*
X117093933Y-94158981D01*
G75*
G02*
X117302529Y-94158981I104298J-104298D01*
G01*
X117511125Y-94367577D01*
G75*
G02*
X117511125Y-94576173I-104298J-104298D01*
G01*
G37*
G36*
G01*
X118197019Y-95262067D02*
X117953067Y-95506019D01*
G75*
G02*
X117744471Y-95506019I-104298J104298D01*
G01*
X117535875Y-95297423D01*
G75*
G02*
X117535875Y-95088827I104298J104298D01*
G01*
X117779827Y-94844875D01*
G75*
G02*
X117988423Y-94844875I104298J-104298D01*
G01*
X118197019Y-95053471D01*
G75*
G02*
X118197019Y-95262067I-104298J-104298D01*
G01*
G37*
G36*
G01*
X117267173Y-91669875D02*
X117511125Y-91913827D01*
G75*
G02*
X117511125Y-92122423I-104298J-104298D01*
G01*
X117302529Y-92331019D01*
G75*
G02*
X117093933Y-92331019I-104298J104298D01*
G01*
X116849981Y-92087067D01*
G75*
G02*
X116849981Y-91878471I104298J104298D01*
G01*
X117058577Y-91669875D01*
G75*
G02*
X117267173Y-91669875I104298J-104298D01*
G01*
G37*
G36*
G01*
X117953067Y-90983981D02*
X118197019Y-91227933D01*
G75*
G02*
X118197019Y-91436529I-104298J-104298D01*
G01*
X117988423Y-91645125D01*
G75*
G02*
X117779827Y-91645125I-104298J104298D01*
G01*
X117535875Y-91401173D01*
G75*
G02*
X117535875Y-91192577I104298J104298D01*
G01*
X117744471Y-90983981D01*
G75*
G02*
X117953067Y-90983981I104298J-104298D01*
G01*
G37*
G36*
G01*
X117333500Y-96247500D02*
X117333500Y-96592500D01*
G75*
G02*
X117186000Y-96740000I-147500J0D01*
G01*
X116891000Y-96740000D01*
G75*
G02*
X116743500Y-96592500I0J147500D01*
G01*
X116743500Y-96247500D01*
G75*
G02*
X116891000Y-96100000I147500J0D01*
G01*
X117186000Y-96100000D01*
G75*
G02*
X117333500Y-96247500I0J-147500D01*
G01*
G37*
G36*
G01*
X118303500Y-96247500D02*
X118303500Y-96592500D01*
G75*
G02*
X118156000Y-96740000I-147500J0D01*
G01*
X117861000Y-96740000D01*
G75*
G02*
X117713500Y-96592500I0J147500D01*
G01*
X117713500Y-96247500D01*
G75*
G02*
X117861000Y-96100000I147500J0D01*
G01*
X118156000Y-96100000D01*
G75*
G02*
X118303500Y-96247500I0J-147500D01*
G01*
G37*
G36*
G01*
X119283500Y-91467500D02*
X118938500Y-91467500D01*
G75*
G02*
X118791000Y-91320000I0J147500D01*
G01*
X118791000Y-91025000D01*
G75*
G02*
X118938500Y-90877500I147500J0D01*
G01*
X119283500Y-90877500D01*
G75*
G02*
X119431000Y-91025000I0J-147500D01*
G01*
X119431000Y-91320000D01*
G75*
G02*
X119283500Y-91467500I-147500J0D01*
G01*
G37*
G36*
G01*
X119283500Y-92437500D02*
X118938500Y-92437500D01*
G75*
G02*
X118791000Y-92290000I0J147500D01*
G01*
X118791000Y-91995000D01*
G75*
G02*
X118938500Y-91847500I147500J0D01*
G01*
X119283500Y-91847500D01*
G75*
G02*
X119431000Y-91995000I0J-147500D01*
G01*
X119431000Y-92290000D01*
G75*
G02*
X119283500Y-92437500I-147500J0D01*
G01*
G37*
G36*
G01*
X115763500Y-95022500D02*
X116108500Y-95022500D01*
G75*
G02*
X116256000Y-95170000I0J-147500D01*
G01*
X116256000Y-95465000D01*
G75*
G02*
X116108500Y-95612500I-147500J0D01*
G01*
X115763500Y-95612500D01*
G75*
G02*
X115616000Y-95465000I0J147500D01*
G01*
X115616000Y-95170000D01*
G75*
G02*
X115763500Y-95022500I147500J0D01*
G01*
G37*
G36*
G01*
X115763500Y-94052500D02*
X116108500Y-94052500D01*
G75*
G02*
X116256000Y-94200000I0J-147500D01*
G01*
X116256000Y-94495000D01*
G75*
G02*
X116108500Y-94642500I-147500J0D01*
G01*
X115763500Y-94642500D01*
G75*
G02*
X115616000Y-94495000I0J147500D01*
G01*
X115616000Y-94200000D01*
G75*
G02*
X115763500Y-94052500I147500J0D01*
G01*
G37*
G36*
G01*
X118938500Y-95022500D02*
X119283500Y-95022500D01*
G75*
G02*
X119431000Y-95170000I0J-147500D01*
G01*
X119431000Y-95465000D01*
G75*
G02*
X119283500Y-95612500I-147500J0D01*
G01*
X118938500Y-95612500D01*
G75*
G02*
X118791000Y-95465000I0J147500D01*
G01*
X118791000Y-95170000D01*
G75*
G02*
X118938500Y-95022500I147500J0D01*
G01*
G37*
G36*
G01*
X118938500Y-94052500D02*
X119283500Y-94052500D01*
G75*
G02*
X119431000Y-94200000I0J-147500D01*
G01*
X119431000Y-94495000D01*
G75*
G02*
X119283500Y-94642500I-147500J0D01*
G01*
X118938500Y-94642500D01*
G75*
G02*
X118791000Y-94495000I0J147500D01*
G01*
X118791000Y-94200000D01*
G75*
G02*
X118938500Y-94052500I147500J0D01*
G01*
G37*
G36*
G01*
X112933500Y-91467500D02*
X112588500Y-91467500D01*
G75*
G02*
X112441000Y-91320000I0J147500D01*
G01*
X112441000Y-91025000D01*
G75*
G02*
X112588500Y-90877500I147500J0D01*
G01*
X112933500Y-90877500D01*
G75*
G02*
X113081000Y-91025000I0J-147500D01*
G01*
X113081000Y-91320000D01*
G75*
G02*
X112933500Y-91467500I-147500J0D01*
G01*
G37*
G36*
G01*
X112933500Y-92437500D02*
X112588500Y-92437500D01*
G75*
G02*
X112441000Y-92290000I0J147500D01*
G01*
X112441000Y-91995000D01*
G75*
G02*
X112588500Y-91847500I147500J0D01*
G01*
X112933500Y-91847500D01*
G75*
G02*
X113081000Y-91995000I0J-147500D01*
G01*
X113081000Y-92290000D01*
G75*
G02*
X112933500Y-92437500I-147500J0D01*
G01*
G37*
G36*
G01*
X114158500Y-89897500D02*
X114158500Y-90242500D01*
G75*
G02*
X114011000Y-90390000I-147500J0D01*
G01*
X113716000Y-90390000D01*
G75*
G02*
X113568500Y-90242500I0J147500D01*
G01*
X113568500Y-89897500D01*
G75*
G02*
X113716000Y-89750000I147500J0D01*
G01*
X114011000Y-89750000D01*
G75*
G02*
X114158500Y-89897500I0J-147500D01*
G01*
G37*
G36*
G01*
X115128500Y-89897500D02*
X115128500Y-90242500D01*
G75*
G02*
X114981000Y-90390000I-147500J0D01*
G01*
X114686000Y-90390000D01*
G75*
G02*
X114538500Y-90242500I0J147500D01*
G01*
X114538500Y-89897500D01*
G75*
G02*
X114686000Y-89750000I147500J0D01*
G01*
X114981000Y-89750000D01*
G75*
G02*
X115128500Y-89897500I0J-147500D01*
G01*
G37*
G36*
G01*
X114158500Y-93072500D02*
X114158500Y-93417500D01*
G75*
G02*
X114011000Y-93565000I-147500J0D01*
G01*
X113716000Y-93565000D01*
G75*
G02*
X113568500Y-93417500I0J147500D01*
G01*
X113568500Y-93072500D01*
G75*
G02*
X113716000Y-92925000I147500J0D01*
G01*
X114011000Y-92925000D01*
G75*
G02*
X114158500Y-93072500I0J-147500D01*
G01*
G37*
G36*
G01*
X115128500Y-93072500D02*
X115128500Y-93417500D01*
G75*
G02*
X114981000Y-93565000I-147500J0D01*
G01*
X114686000Y-93565000D01*
G75*
G02*
X114538500Y-93417500I0J147500D01*
G01*
X114538500Y-93072500D01*
G75*
G02*
X114686000Y-92925000I147500J0D01*
G01*
X114981000Y-92925000D01*
G75*
G02*
X115128500Y-93072500I0J-147500D01*
G01*
G37*
G36*
G01*
X114336125Y-91401173D02*
X114092173Y-91645125D01*
G75*
G02*
X113883577Y-91645125I-104298J104298D01*
G01*
X113674981Y-91436529D01*
G75*
G02*
X113674981Y-91227933I104298J104298D01*
G01*
X113918933Y-90983981D01*
G75*
G02*
X114127529Y-90983981I104298J-104298D01*
G01*
X114336125Y-91192577D01*
G75*
G02*
X114336125Y-91401173I-104298J-104298D01*
G01*
G37*
G36*
G01*
X115022019Y-92087067D02*
X114778067Y-92331019D01*
G75*
G02*
X114569471Y-92331019I-104298J104298D01*
G01*
X114360875Y-92122423D01*
G75*
G02*
X114360875Y-91913827I104298J104298D01*
G01*
X114604827Y-91669875D01*
G75*
G02*
X114813423Y-91669875I104298J-104298D01*
G01*
X115022019Y-91878471D01*
G75*
G02*
X115022019Y-92087067I-104298J-104298D01*
G01*
G37*
G36*
G01*
X112588500Y-95022500D02*
X112933500Y-95022500D01*
G75*
G02*
X113081000Y-95170000I0J-147500D01*
G01*
X113081000Y-95465000D01*
G75*
G02*
X112933500Y-95612500I-147500J0D01*
G01*
X112588500Y-95612500D01*
G75*
G02*
X112441000Y-95465000I0J147500D01*
G01*
X112441000Y-95170000D01*
G75*
G02*
X112588500Y-95022500I147500J0D01*
G01*
G37*
G36*
G01*
X112588500Y-94052500D02*
X112933500Y-94052500D01*
G75*
G02*
X113081000Y-94200000I0J-147500D01*
G01*
X113081000Y-94495000D01*
G75*
G02*
X112933500Y-94642500I-147500J0D01*
G01*
X112588500Y-94642500D01*
G75*
G02*
X112441000Y-94495000I0J147500D01*
G01*
X112441000Y-94200000D01*
G75*
G02*
X112588500Y-94052500I147500J0D01*
G01*
G37*
G36*
G01*
X109343673Y-91669375D02*
X109587625Y-91913327D01*
G75*
G02*
X109587625Y-92121923I-104298J-104298D01*
G01*
X109379029Y-92330519D01*
G75*
G02*
X109170433Y-92330519I-104298J104298D01*
G01*
X108926481Y-92086567D01*
G75*
G02*
X108926481Y-91877971I104298J104298D01*
G01*
X109135077Y-91669375D01*
G75*
G02*
X109343673Y-91669375I104298J-104298D01*
G01*
G37*
G36*
G01*
X110029567Y-90983481D02*
X110273519Y-91227433D01*
G75*
G02*
X110273519Y-91436029I-104298J-104298D01*
G01*
X110064923Y-91644625D01*
G75*
G02*
X109856327Y-91644625I-104298J104298D01*
G01*
X109612375Y-91400673D01*
G75*
G02*
X109612375Y-91192077I104298J104298D01*
G01*
X109820971Y-90983481D01*
G75*
G02*
X110029567Y-90983481I104298J-104298D01*
G01*
G37*
G36*
G01*
X106412625Y-91400673D02*
X106168673Y-91644625D01*
G75*
G02*
X105960077Y-91644625I-104298J104298D01*
G01*
X105751481Y-91436029D01*
G75*
G02*
X105751481Y-91227433I104298J104298D01*
G01*
X105995433Y-90983481D01*
G75*
G02*
X106204029Y-90983481I104298J-104298D01*
G01*
X106412625Y-91192077D01*
G75*
G02*
X106412625Y-91400673I-104298J-104298D01*
G01*
G37*
G36*
G01*
X107098519Y-92086567D02*
X106854567Y-92330519D01*
G75*
G02*
X106645971Y-92330519I-104298J104298D01*
G01*
X106437375Y-92121923D01*
G75*
G02*
X106437375Y-91913327I104298J104298D01*
G01*
X106681327Y-91669375D01*
G75*
G02*
X106889923Y-91669375I104298J-104298D01*
G01*
X107098519Y-91877971D01*
G75*
G02*
X107098519Y-92086567I-104298J-104298D01*
G01*
G37*
G36*
G01*
X109587625Y-94575673D02*
X109343673Y-94819625D01*
G75*
G02*
X109135077Y-94819625I-104298J104298D01*
G01*
X108926481Y-94611029D01*
G75*
G02*
X108926481Y-94402433I104298J104298D01*
G01*
X109170433Y-94158481D01*
G75*
G02*
X109379029Y-94158481I104298J-104298D01*
G01*
X109587625Y-94367077D01*
G75*
G02*
X109587625Y-94575673I-104298J-104298D01*
G01*
G37*
G36*
G01*
X110273519Y-95261567D02*
X110029567Y-95505519D01*
G75*
G02*
X109820971Y-95505519I-104298J104298D01*
G01*
X109612375Y-95296923D01*
G75*
G02*
X109612375Y-95088327I104298J104298D01*
G01*
X109856327Y-94844375D01*
G75*
G02*
X110064923Y-94844375I104298J-104298D01*
G01*
X110273519Y-95052971D01*
G75*
G02*
X110273519Y-95261567I-104298J-104298D01*
G01*
G37*
G36*
G01*
X109410000Y-89897000D02*
X109410000Y-90242000D01*
G75*
G02*
X109262500Y-90389500I-147500J0D01*
G01*
X108967500Y-90389500D01*
G75*
G02*
X108820000Y-90242000I0J147500D01*
G01*
X108820000Y-89897000D01*
G75*
G02*
X108967500Y-89749500I147500J0D01*
G01*
X109262500Y-89749500D01*
G75*
G02*
X109410000Y-89897000I0J-147500D01*
G01*
G37*
G36*
G01*
X110380000Y-89897000D02*
X110380000Y-90242000D01*
G75*
G02*
X110232500Y-90389500I-147500J0D01*
G01*
X109937500Y-90389500D01*
G75*
G02*
X109790000Y-90242000I0J147500D01*
G01*
X109790000Y-89897000D01*
G75*
G02*
X109937500Y-89749500I147500J0D01*
G01*
X110232500Y-89749500D01*
G75*
G02*
X110380000Y-89897000I0J-147500D01*
G01*
G37*
G36*
G01*
X109410000Y-93072000D02*
X109410000Y-93417000D01*
G75*
G02*
X109262500Y-93564500I-147500J0D01*
G01*
X108967500Y-93564500D01*
G75*
G02*
X108820000Y-93417000I0J147500D01*
G01*
X108820000Y-93072000D01*
G75*
G02*
X108967500Y-92924500I147500J0D01*
G01*
X109262500Y-92924500D01*
G75*
G02*
X109410000Y-93072000I0J-147500D01*
G01*
G37*
G36*
G01*
X110380000Y-93072000D02*
X110380000Y-93417000D01*
G75*
G02*
X110232500Y-93564500I-147500J0D01*
G01*
X109937500Y-93564500D01*
G75*
G02*
X109790000Y-93417000I0J147500D01*
G01*
X109790000Y-93072000D01*
G75*
G02*
X109937500Y-92924500I147500J0D01*
G01*
X110232500Y-92924500D01*
G75*
G02*
X110380000Y-93072000I0J-147500D01*
G01*
G37*
G36*
G01*
X107840000Y-95022000D02*
X108185000Y-95022000D01*
G75*
G02*
X108332500Y-95169500I0J-147500D01*
G01*
X108332500Y-95464500D01*
G75*
G02*
X108185000Y-95612000I-147500J0D01*
G01*
X107840000Y-95612000D01*
G75*
G02*
X107692500Y-95464500I0J147500D01*
G01*
X107692500Y-95169500D01*
G75*
G02*
X107840000Y-95022000I147500J0D01*
G01*
G37*
G36*
G01*
X107840000Y-94052000D02*
X108185000Y-94052000D01*
G75*
G02*
X108332500Y-94199500I0J-147500D01*
G01*
X108332500Y-94494500D01*
G75*
G02*
X108185000Y-94642000I-147500J0D01*
G01*
X107840000Y-94642000D01*
G75*
G02*
X107692500Y-94494500I0J147500D01*
G01*
X107692500Y-94199500D01*
G75*
G02*
X107840000Y-94052000I147500J0D01*
G01*
G37*
G36*
G01*
X106235000Y-93072000D02*
X106235000Y-93417000D01*
G75*
G02*
X106087500Y-93564500I-147500J0D01*
G01*
X105792500Y-93564500D01*
G75*
G02*
X105645000Y-93417000I0J147500D01*
G01*
X105645000Y-93072000D01*
G75*
G02*
X105792500Y-92924500I147500J0D01*
G01*
X106087500Y-92924500D01*
G75*
G02*
X106235000Y-93072000I0J-147500D01*
G01*
G37*
G36*
G01*
X107205000Y-93072000D02*
X107205000Y-93417000D01*
G75*
G02*
X107057500Y-93564500I-147500J0D01*
G01*
X106762500Y-93564500D01*
G75*
G02*
X106615000Y-93417000I0J147500D01*
G01*
X106615000Y-93072000D01*
G75*
G02*
X106762500Y-92924500I147500J0D01*
G01*
X107057500Y-92924500D01*
G75*
G02*
X107205000Y-93072000I0J-147500D01*
G01*
G37*
G36*
G01*
X106235000Y-96247000D02*
X106235000Y-96592000D01*
G75*
G02*
X106087500Y-96739500I-147500J0D01*
G01*
X105792500Y-96739500D01*
G75*
G02*
X105645000Y-96592000I0J147500D01*
G01*
X105645000Y-96247000D01*
G75*
G02*
X105792500Y-96099500I147500J0D01*
G01*
X106087500Y-96099500D01*
G75*
G02*
X106235000Y-96247000I0J-147500D01*
G01*
G37*
G36*
G01*
X107205000Y-96247000D02*
X107205000Y-96592000D01*
G75*
G02*
X107057500Y-96739500I-147500J0D01*
G01*
X106762500Y-96739500D01*
G75*
G02*
X106615000Y-96592000I0J147500D01*
G01*
X106615000Y-96247000D01*
G75*
G02*
X106762500Y-96099500I147500J0D01*
G01*
X107057500Y-96099500D01*
G75*
G02*
X107205000Y-96247000I0J-147500D01*
G01*
G37*
G36*
G01*
X111360000Y-91467000D02*
X111015000Y-91467000D01*
G75*
G02*
X110867500Y-91319500I0J147500D01*
G01*
X110867500Y-91024500D01*
G75*
G02*
X111015000Y-90877000I147500J0D01*
G01*
X111360000Y-90877000D01*
G75*
G02*
X111507500Y-91024500I0J-147500D01*
G01*
X111507500Y-91319500D01*
G75*
G02*
X111360000Y-91467000I-147500J0D01*
G01*
G37*
G36*
G01*
X111360000Y-92437000D02*
X111015000Y-92437000D01*
G75*
G02*
X110867500Y-92289500I0J147500D01*
G01*
X110867500Y-91994500D01*
G75*
G02*
X111015000Y-91847000I147500J0D01*
G01*
X111360000Y-91847000D01*
G75*
G02*
X111507500Y-91994500I0J-147500D01*
G01*
X111507500Y-92289500D01*
G75*
G02*
X111360000Y-92437000I-147500J0D01*
G01*
G37*
G36*
G01*
X106168673Y-94844375D02*
X106412625Y-95088327D01*
G75*
G02*
X106412625Y-95296923I-104298J-104298D01*
G01*
X106204029Y-95505519D01*
G75*
G02*
X105995433Y-95505519I-104298J104298D01*
G01*
X105751481Y-95261567D01*
G75*
G02*
X105751481Y-95052971I104298J104298D01*
G01*
X105960077Y-94844375D01*
G75*
G02*
X106168673Y-94844375I104298J-104298D01*
G01*
G37*
G36*
G01*
X106854567Y-94158481D02*
X107098519Y-94402433D01*
G75*
G02*
X107098519Y-94611029I-104298J-104298D01*
G01*
X106889923Y-94819625D01*
G75*
G02*
X106681327Y-94819625I-104298J104298D01*
G01*
X106437375Y-94575673D01*
G75*
G02*
X106437375Y-94367077I104298J104298D01*
G01*
X106645971Y-94158481D01*
G75*
G02*
X106854567Y-94158481I104298J-104298D01*
G01*
G37*
G36*
G01*
X111015000Y-95022000D02*
X111360000Y-95022000D01*
G75*
G02*
X111507500Y-95169500I0J-147500D01*
G01*
X111507500Y-95464500D01*
G75*
G02*
X111360000Y-95612000I-147500J0D01*
G01*
X111015000Y-95612000D01*
G75*
G02*
X110867500Y-95464500I0J147500D01*
G01*
X110867500Y-95169500D01*
G75*
G02*
X111015000Y-95022000I147500J0D01*
G01*
G37*
G36*
G01*
X111015000Y-94052000D02*
X111360000Y-94052000D01*
G75*
G02*
X111507500Y-94199500I0J-147500D01*
G01*
X111507500Y-94494500D01*
G75*
G02*
X111360000Y-94642000I-147500J0D01*
G01*
X111015000Y-94642000D01*
G75*
G02*
X110867500Y-94494500I0J147500D01*
G01*
X110867500Y-94199500D01*
G75*
G02*
X111015000Y-94052000I147500J0D01*
G01*
G37*
G36*
G01*
X108185000Y-91467000D02*
X107840000Y-91467000D01*
G75*
G02*
X107692500Y-91319500I0J147500D01*
G01*
X107692500Y-91024500D01*
G75*
G02*
X107840000Y-90877000I147500J0D01*
G01*
X108185000Y-90877000D01*
G75*
G02*
X108332500Y-91024500I0J-147500D01*
G01*
X108332500Y-91319500D01*
G75*
G02*
X108185000Y-91467000I-147500J0D01*
G01*
G37*
G36*
G01*
X108185000Y-92437000D02*
X107840000Y-92437000D01*
G75*
G02*
X107692500Y-92289500I0J147500D01*
G01*
X107692500Y-91994500D01*
G75*
G02*
X107840000Y-91847000I147500J0D01*
G01*
X108185000Y-91847000D01*
G75*
G02*
X108332500Y-91994500I0J-147500D01*
G01*
X108332500Y-92289500D01*
G75*
G02*
X108185000Y-92437000I-147500J0D01*
G01*
G37*
G36*
G01*
X109410000Y-96247000D02*
X109410000Y-96592000D01*
G75*
G02*
X109262500Y-96739500I-147500J0D01*
G01*
X108967500Y-96739500D01*
G75*
G02*
X108820000Y-96592000I0J147500D01*
G01*
X108820000Y-96247000D01*
G75*
G02*
X108967500Y-96099500I147500J0D01*
G01*
X109262500Y-96099500D01*
G75*
G02*
X109410000Y-96247000I0J-147500D01*
G01*
G37*
G36*
G01*
X110380000Y-96247000D02*
X110380000Y-96592000D01*
G75*
G02*
X110232500Y-96739500I-147500J0D01*
G01*
X109937500Y-96739500D01*
G75*
G02*
X109790000Y-96592000I0J147500D01*
G01*
X109790000Y-96247000D01*
G75*
G02*
X109937500Y-96099500I147500J0D01*
G01*
X110232500Y-96099500D01*
G75*
G02*
X110380000Y-96247000I0J-147500D01*
G01*
G37*
G36*
G01*
X106235000Y-89897000D02*
X106235000Y-90242000D01*
G75*
G02*
X106087500Y-90389500I-147500J0D01*
G01*
X105792500Y-90389500D01*
G75*
G02*
X105645000Y-90242000I0J147500D01*
G01*
X105645000Y-89897000D01*
G75*
G02*
X105792500Y-89749500I147500J0D01*
G01*
X106087500Y-89749500D01*
G75*
G02*
X106235000Y-89897000I0J-147500D01*
G01*
G37*
G36*
G01*
X107205000Y-89897000D02*
X107205000Y-90242000D01*
G75*
G02*
X107057500Y-90389500I-147500J0D01*
G01*
X106762500Y-90389500D01*
G75*
G02*
X106615000Y-90242000I0J147500D01*
G01*
X106615000Y-89897000D01*
G75*
G02*
X106762500Y-89749500I147500J0D01*
G01*
X107057500Y-89749500D01*
G75*
G02*
X107205000Y-89897000I0J-147500D01*
G01*
G37*
G36*
G01*
X104665000Y-95022000D02*
X105010000Y-95022000D01*
G75*
G02*
X105157500Y-95169500I0J-147500D01*
G01*
X105157500Y-95464500D01*
G75*
G02*
X105010000Y-95612000I-147500J0D01*
G01*
X104665000Y-95612000D01*
G75*
G02*
X104517500Y-95464500I0J147500D01*
G01*
X104517500Y-95169500D01*
G75*
G02*
X104665000Y-95022000I147500J0D01*
G01*
G37*
G36*
G01*
X104665000Y-94052000D02*
X105010000Y-94052000D01*
G75*
G02*
X105157500Y-94199500I0J-147500D01*
G01*
X105157500Y-94494500D01*
G75*
G02*
X105010000Y-94642000I-147500J0D01*
G01*
X104665000Y-94642000D01*
G75*
G02*
X104517500Y-94494500I0J147500D01*
G01*
X104517500Y-94199500D01*
G75*
G02*
X104665000Y-94052000I147500J0D01*
G01*
G37*
G36*
G01*
X105010000Y-91467000D02*
X104665000Y-91467000D01*
G75*
G02*
X104517500Y-91319500I0J147500D01*
G01*
X104517500Y-91024500D01*
G75*
G02*
X104665000Y-90877000I147500J0D01*
G01*
X105010000Y-90877000D01*
G75*
G02*
X105157500Y-91024500I0J-147500D01*
G01*
X105157500Y-91319500D01*
G75*
G02*
X105010000Y-91467000I-147500J0D01*
G01*
G37*
G36*
G01*
X105010000Y-92437000D02*
X104665000Y-92437000D01*
G75*
G02*
X104517500Y-92289500I0J147500D01*
G01*
X104517500Y-91994500D01*
G75*
G02*
X104665000Y-91847000I147500J0D01*
G01*
X105010000Y-91847000D01*
G75*
G02*
X105157500Y-91994500I0J-147500D01*
G01*
X105157500Y-92289500D01*
G75*
G02*
X105010000Y-92437000I-147500J0D01*
G01*
G37*
G36*
G01*
X122079125Y-90242500D02*
X122079125Y-89897500D01*
G75*
G02*
X122226625Y-89750000I147500J0D01*
G01*
X122521625Y-89750000D01*
G75*
G02*
X122669125Y-89897500I0J-147500D01*
G01*
X122669125Y-90242500D01*
G75*
G02*
X122521625Y-90390000I-147500J0D01*
G01*
X122226625Y-90390000D01*
G75*
G02*
X122079125Y-90242500I0J147500D01*
G01*
G37*
G36*
G01*
X121109125Y-90242500D02*
X121109125Y-89897500D01*
G75*
G02*
X121256625Y-89750000I147500J0D01*
G01*
X121551625Y-89750000D01*
G75*
G02*
X121699125Y-89897500I0J-147500D01*
G01*
X121699125Y-90242500D01*
G75*
G02*
X121551625Y-90390000I-147500J0D01*
G01*
X121256625Y-90390000D01*
G75*
G02*
X121109125Y-90242500I0J147500D01*
G01*
G37*
G36*
G01*
X122907250Y-91847500D02*
X123252250Y-91847500D01*
G75*
G02*
X123399750Y-91995000I0J-147500D01*
G01*
X123399750Y-92290000D01*
G75*
G02*
X123252250Y-92437500I-147500J0D01*
G01*
X122907250Y-92437500D01*
G75*
G02*
X122759750Y-92290000I0J147500D01*
G01*
X122759750Y-91995000D01*
G75*
G02*
X122907250Y-91847500I147500J0D01*
G01*
G37*
G36*
G01*
X122907250Y-90877500D02*
X123252250Y-90877500D01*
G75*
G02*
X123399750Y-91025000I0J-147500D01*
G01*
X123399750Y-91320000D01*
G75*
G02*
X123252250Y-91467500I-147500J0D01*
G01*
X122907250Y-91467500D01*
G75*
G02*
X122759750Y-91320000I0J147500D01*
G01*
X122759750Y-91025000D01*
G75*
G02*
X122907250Y-90877500I147500J0D01*
G01*
G37*
G36*
G01*
X122907250Y-95022500D02*
X123252250Y-95022500D01*
G75*
G02*
X123399750Y-95170000I0J-147500D01*
G01*
X123399750Y-95465000D01*
G75*
G02*
X123252250Y-95612500I-147500J0D01*
G01*
X122907250Y-95612500D01*
G75*
G02*
X122759750Y-95465000I0J147500D01*
G01*
X122759750Y-95170000D01*
G75*
G02*
X122907250Y-95022500I147500J0D01*
G01*
G37*
G36*
G01*
X122907250Y-94052500D02*
X123252250Y-94052500D01*
G75*
G02*
X123399750Y-94200000I0J-147500D01*
G01*
X123399750Y-94495000D01*
G75*
G02*
X123252250Y-94642500I-147500J0D01*
G01*
X122907250Y-94642500D01*
G75*
G02*
X122759750Y-94495000I0J147500D01*
G01*
X122759750Y-94200000D01*
G75*
G02*
X122907250Y-94052500I147500J0D01*
G01*
G37*
G36*
G01*
X122079125Y-96592500D02*
X122079125Y-96247500D01*
G75*
G02*
X122226625Y-96100000I147500J0D01*
G01*
X122521625Y-96100000D01*
G75*
G02*
X122669125Y-96247500I0J-147500D01*
G01*
X122669125Y-96592500D01*
G75*
G02*
X122521625Y-96740000I-147500J0D01*
G01*
X122226625Y-96740000D01*
G75*
G02*
X122079125Y-96592500I0J147500D01*
G01*
G37*
G36*
G01*
X121109125Y-96592500D02*
X121109125Y-96247500D01*
G75*
G02*
X121256625Y-96100000I147500J0D01*
G01*
X121551625Y-96100000D01*
G75*
G02*
X121699125Y-96247500I0J-147500D01*
G01*
X121699125Y-96592500D01*
G75*
G02*
X121551625Y-96740000I-147500J0D01*
G01*
X121256625Y-96740000D01*
G75*
G02*
X121109125Y-96592500I0J147500D01*
G01*
G37*
G36*
G01*
X120526000Y-95022500D02*
X120871000Y-95022500D01*
G75*
G02*
X121018500Y-95170000I0J-147500D01*
G01*
X121018500Y-95465000D01*
G75*
G02*
X120871000Y-95612500I-147500J0D01*
G01*
X120526000Y-95612500D01*
G75*
G02*
X120378500Y-95465000I0J147500D01*
G01*
X120378500Y-95170000D01*
G75*
G02*
X120526000Y-95022500I147500J0D01*
G01*
G37*
G36*
G01*
X120526000Y-94052500D02*
X120871000Y-94052500D01*
G75*
G02*
X121018500Y-94200000I0J-147500D01*
G01*
X121018500Y-94495000D01*
G75*
G02*
X120871000Y-94642500I-147500J0D01*
G01*
X120526000Y-94642500D01*
G75*
G02*
X120378500Y-94495000I0J147500D01*
G01*
X120378500Y-94200000D01*
G75*
G02*
X120526000Y-94052500I147500J0D01*
G01*
G37*
G36*
G01*
X120526000Y-91847500D02*
X120871000Y-91847500D01*
G75*
G02*
X121018500Y-91995000I0J-147500D01*
G01*
X121018500Y-92290000D01*
G75*
G02*
X120871000Y-92437500I-147500J0D01*
G01*
X120526000Y-92437500D01*
G75*
G02*
X120378500Y-92290000I0J147500D01*
G01*
X120378500Y-91995000D01*
G75*
G02*
X120526000Y-91847500I147500J0D01*
G01*
G37*
G36*
G01*
X120526000Y-90877500D02*
X120871000Y-90877500D01*
G75*
G02*
X121018500Y-91025000I0J-147500D01*
G01*
X121018500Y-91320000D01*
G75*
G02*
X120871000Y-91467500I-147500J0D01*
G01*
X120526000Y-91467500D01*
G75*
G02*
X120378500Y-91320000I0J147500D01*
G01*
X120378500Y-91025000D01*
G75*
G02*
X120526000Y-90877500I147500J0D01*
G01*
G37*
G36*
G01*
X121699125Y-93072500D02*
X121699125Y-93417500D01*
G75*
G02*
X121551625Y-93565000I-147500J0D01*
G01*
X121256625Y-93565000D01*
G75*
G02*
X121109125Y-93417500I0J147500D01*
G01*
X121109125Y-93072500D01*
G75*
G02*
X121256625Y-92925000I147500J0D01*
G01*
X121551625Y-92925000D01*
G75*
G02*
X121699125Y-93072500I0J-147500D01*
G01*
G37*
G36*
G01*
X122669125Y-93072500D02*
X122669125Y-93417500D01*
G75*
G02*
X122521625Y-93565000I-147500J0D01*
G01*
X122226625Y-93565000D01*
G75*
G02*
X122079125Y-93417500I0J147500D01*
G01*
X122079125Y-93072500D01*
G75*
G02*
X122226625Y-92925000I147500J0D01*
G01*
X122521625Y-92925000D01*
G75*
G02*
X122669125Y-93072500I0J-147500D01*
G01*
G37*
G36*
G01*
X126444750Y-90242500D02*
X126444750Y-89897500D01*
G75*
G02*
X126592250Y-89750000I147500J0D01*
G01*
X126887250Y-89750000D01*
G75*
G02*
X127034750Y-89897500I0J-147500D01*
G01*
X127034750Y-90242500D01*
G75*
G02*
X126887250Y-90390000I-147500J0D01*
G01*
X126592250Y-90390000D01*
G75*
G02*
X126444750Y-90242500I0J147500D01*
G01*
G37*
G36*
G01*
X125474750Y-90242500D02*
X125474750Y-89897500D01*
G75*
G02*
X125622250Y-89750000I147500J0D01*
G01*
X125917250Y-89750000D01*
G75*
G02*
X126064750Y-89897500I0J-147500D01*
G01*
X126064750Y-90242500D01*
G75*
G02*
X125917250Y-90390000I-147500J0D01*
G01*
X125622250Y-90390000D01*
G75*
G02*
X125474750Y-90242500I0J147500D01*
G01*
G37*
G36*
G01*
X127272875Y-91847500D02*
X127617875Y-91847500D01*
G75*
G02*
X127765375Y-91995000I0J-147500D01*
G01*
X127765375Y-92290000D01*
G75*
G02*
X127617875Y-92437500I-147500J0D01*
G01*
X127272875Y-92437500D01*
G75*
G02*
X127125375Y-92290000I0J147500D01*
G01*
X127125375Y-91995000D01*
G75*
G02*
X127272875Y-91847500I147500J0D01*
G01*
G37*
G36*
G01*
X127272875Y-90877500D02*
X127617875Y-90877500D01*
G75*
G02*
X127765375Y-91025000I0J-147500D01*
G01*
X127765375Y-91320000D01*
G75*
G02*
X127617875Y-91467500I-147500J0D01*
G01*
X127272875Y-91467500D01*
G75*
G02*
X127125375Y-91320000I0J147500D01*
G01*
X127125375Y-91025000D01*
G75*
G02*
X127272875Y-90877500I147500J0D01*
G01*
G37*
G36*
G01*
X127272875Y-95022500D02*
X127617875Y-95022500D01*
G75*
G02*
X127765375Y-95170000I0J-147500D01*
G01*
X127765375Y-95465000D01*
G75*
G02*
X127617875Y-95612500I-147500J0D01*
G01*
X127272875Y-95612500D01*
G75*
G02*
X127125375Y-95465000I0J147500D01*
G01*
X127125375Y-95170000D01*
G75*
G02*
X127272875Y-95022500I147500J0D01*
G01*
G37*
G36*
G01*
X127272875Y-94052500D02*
X127617875Y-94052500D01*
G75*
G02*
X127765375Y-94200000I0J-147500D01*
G01*
X127765375Y-94495000D01*
G75*
G02*
X127617875Y-94642500I-147500J0D01*
G01*
X127272875Y-94642500D01*
G75*
G02*
X127125375Y-94495000I0J147500D01*
G01*
X127125375Y-94200000D01*
G75*
G02*
X127272875Y-94052500I147500J0D01*
G01*
G37*
G36*
G01*
X126444750Y-96592500D02*
X126444750Y-96247500D01*
G75*
G02*
X126592250Y-96100000I147500J0D01*
G01*
X126887250Y-96100000D01*
G75*
G02*
X127034750Y-96247500I0J-147500D01*
G01*
X127034750Y-96592500D01*
G75*
G02*
X126887250Y-96740000I-147500J0D01*
G01*
X126592250Y-96740000D01*
G75*
G02*
X126444750Y-96592500I0J147500D01*
G01*
G37*
G36*
G01*
X125474750Y-96592500D02*
X125474750Y-96247500D01*
G75*
G02*
X125622250Y-96100000I147500J0D01*
G01*
X125917250Y-96100000D01*
G75*
G02*
X126064750Y-96247500I0J-147500D01*
G01*
X126064750Y-96592500D01*
G75*
G02*
X125917250Y-96740000I-147500J0D01*
G01*
X125622250Y-96740000D01*
G75*
G02*
X125474750Y-96592500I0J147500D01*
G01*
G37*
G36*
G01*
X124891625Y-95022500D02*
X125236625Y-95022500D01*
G75*
G02*
X125384125Y-95170000I0J-147500D01*
G01*
X125384125Y-95465000D01*
G75*
G02*
X125236625Y-95612500I-147500J0D01*
G01*
X124891625Y-95612500D01*
G75*
G02*
X124744125Y-95465000I0J147500D01*
G01*
X124744125Y-95170000D01*
G75*
G02*
X124891625Y-95022500I147500J0D01*
G01*
G37*
G36*
G01*
X124891625Y-94052500D02*
X125236625Y-94052500D01*
G75*
G02*
X125384125Y-94200000I0J-147500D01*
G01*
X125384125Y-94495000D01*
G75*
G02*
X125236625Y-94642500I-147500J0D01*
G01*
X124891625Y-94642500D01*
G75*
G02*
X124744125Y-94495000I0J147500D01*
G01*
X124744125Y-94200000D01*
G75*
G02*
X124891625Y-94052500I147500J0D01*
G01*
G37*
G36*
G01*
X124891625Y-91847500D02*
X125236625Y-91847500D01*
G75*
G02*
X125384125Y-91995000I0J-147500D01*
G01*
X125384125Y-92290000D01*
G75*
G02*
X125236625Y-92437500I-147500J0D01*
G01*
X124891625Y-92437500D01*
G75*
G02*
X124744125Y-92290000I0J147500D01*
G01*
X124744125Y-91995000D01*
G75*
G02*
X124891625Y-91847500I147500J0D01*
G01*
G37*
G36*
G01*
X124891625Y-90877500D02*
X125236625Y-90877500D01*
G75*
G02*
X125384125Y-91025000I0J-147500D01*
G01*
X125384125Y-91320000D01*
G75*
G02*
X125236625Y-91467500I-147500J0D01*
G01*
X124891625Y-91467500D01*
G75*
G02*
X124744125Y-91320000I0J147500D01*
G01*
X124744125Y-91025000D01*
G75*
G02*
X124891625Y-90877500I147500J0D01*
G01*
G37*
G36*
G01*
X126064750Y-93072500D02*
X126064750Y-93417500D01*
G75*
G02*
X125917250Y-93565000I-147500J0D01*
G01*
X125622250Y-93565000D01*
G75*
G02*
X125474750Y-93417500I0J147500D01*
G01*
X125474750Y-93072500D01*
G75*
G02*
X125622250Y-92925000I147500J0D01*
G01*
X125917250Y-92925000D01*
G75*
G02*
X126064750Y-93072500I0J-147500D01*
G01*
G37*
G36*
G01*
X127034750Y-93072500D02*
X127034750Y-93417500D01*
G75*
G02*
X126887250Y-93565000I-147500J0D01*
G01*
X126592250Y-93565000D01*
G75*
G02*
X126444750Y-93417500I0J147500D01*
G01*
X126444750Y-93072500D01*
G75*
G02*
X126592250Y-92925000I147500J0D01*
G01*
X126887250Y-92925000D01*
G75*
G02*
X127034750Y-93072500I0J-147500D01*
G01*
G37*
G36*
G01*
X130810375Y-90242500D02*
X130810375Y-89897500D01*
G75*
G02*
X130957875Y-89750000I147500J0D01*
G01*
X131252875Y-89750000D01*
G75*
G02*
X131400375Y-89897500I0J-147500D01*
G01*
X131400375Y-90242500D01*
G75*
G02*
X131252875Y-90390000I-147500J0D01*
G01*
X130957875Y-90390000D01*
G75*
G02*
X130810375Y-90242500I0J147500D01*
G01*
G37*
G36*
G01*
X129840375Y-90242500D02*
X129840375Y-89897500D01*
G75*
G02*
X129987875Y-89750000I147500J0D01*
G01*
X130282875Y-89750000D01*
G75*
G02*
X130430375Y-89897500I0J-147500D01*
G01*
X130430375Y-90242500D01*
G75*
G02*
X130282875Y-90390000I-147500J0D01*
G01*
X129987875Y-90390000D01*
G75*
G02*
X129840375Y-90242500I0J147500D01*
G01*
G37*
G36*
G01*
X131638500Y-91847500D02*
X131983500Y-91847500D01*
G75*
G02*
X132131000Y-91995000I0J-147500D01*
G01*
X132131000Y-92290000D01*
G75*
G02*
X131983500Y-92437500I-147500J0D01*
G01*
X131638500Y-92437500D01*
G75*
G02*
X131491000Y-92290000I0J147500D01*
G01*
X131491000Y-91995000D01*
G75*
G02*
X131638500Y-91847500I147500J0D01*
G01*
G37*
G36*
G01*
X131638500Y-90877500D02*
X131983500Y-90877500D01*
G75*
G02*
X132131000Y-91025000I0J-147500D01*
G01*
X132131000Y-91320000D01*
G75*
G02*
X131983500Y-91467500I-147500J0D01*
G01*
X131638500Y-91467500D01*
G75*
G02*
X131491000Y-91320000I0J147500D01*
G01*
X131491000Y-91025000D01*
G75*
G02*
X131638500Y-90877500I147500J0D01*
G01*
G37*
G36*
G01*
X131638500Y-95022500D02*
X131983500Y-95022500D01*
G75*
G02*
X132131000Y-95170000I0J-147500D01*
G01*
X132131000Y-95465000D01*
G75*
G02*
X131983500Y-95612500I-147500J0D01*
G01*
X131638500Y-95612500D01*
G75*
G02*
X131491000Y-95465000I0J147500D01*
G01*
X131491000Y-95170000D01*
G75*
G02*
X131638500Y-95022500I147500J0D01*
G01*
G37*
G36*
G01*
X131638500Y-94052500D02*
X131983500Y-94052500D01*
G75*
G02*
X132131000Y-94200000I0J-147500D01*
G01*
X132131000Y-94495000D01*
G75*
G02*
X131983500Y-94642500I-147500J0D01*
G01*
X131638500Y-94642500D01*
G75*
G02*
X131491000Y-94495000I0J147500D01*
G01*
X131491000Y-94200000D01*
G75*
G02*
X131638500Y-94052500I147500J0D01*
G01*
G37*
G36*
G01*
X130810375Y-96592500D02*
X130810375Y-96247500D01*
G75*
G02*
X130957875Y-96100000I147500J0D01*
G01*
X131252875Y-96100000D01*
G75*
G02*
X131400375Y-96247500I0J-147500D01*
G01*
X131400375Y-96592500D01*
G75*
G02*
X131252875Y-96740000I-147500J0D01*
G01*
X130957875Y-96740000D01*
G75*
G02*
X130810375Y-96592500I0J147500D01*
G01*
G37*
G36*
G01*
X129840375Y-96592500D02*
X129840375Y-96247500D01*
G75*
G02*
X129987875Y-96100000I147500J0D01*
G01*
X130282875Y-96100000D01*
G75*
G02*
X130430375Y-96247500I0J-147500D01*
G01*
X130430375Y-96592500D01*
G75*
G02*
X130282875Y-96740000I-147500J0D01*
G01*
X129987875Y-96740000D01*
G75*
G02*
X129840375Y-96592500I0J147500D01*
G01*
G37*
G36*
G01*
X129257250Y-95022500D02*
X129602250Y-95022500D01*
G75*
G02*
X129749750Y-95170000I0J-147500D01*
G01*
X129749750Y-95465000D01*
G75*
G02*
X129602250Y-95612500I-147500J0D01*
G01*
X129257250Y-95612500D01*
G75*
G02*
X129109750Y-95465000I0J147500D01*
G01*
X129109750Y-95170000D01*
G75*
G02*
X129257250Y-95022500I147500J0D01*
G01*
G37*
G36*
G01*
X129257250Y-94052500D02*
X129602250Y-94052500D01*
G75*
G02*
X129749750Y-94200000I0J-147500D01*
G01*
X129749750Y-94495000D01*
G75*
G02*
X129602250Y-94642500I-147500J0D01*
G01*
X129257250Y-94642500D01*
G75*
G02*
X129109750Y-94495000I0J147500D01*
G01*
X129109750Y-94200000D01*
G75*
G02*
X129257250Y-94052500I147500J0D01*
G01*
G37*
G36*
G01*
X129257250Y-91847500D02*
X129602250Y-91847500D01*
G75*
G02*
X129749750Y-91995000I0J-147500D01*
G01*
X129749750Y-92290000D01*
G75*
G02*
X129602250Y-92437500I-147500J0D01*
G01*
X129257250Y-92437500D01*
G75*
G02*
X129109750Y-92290000I0J147500D01*
G01*
X129109750Y-91995000D01*
G75*
G02*
X129257250Y-91847500I147500J0D01*
G01*
G37*
G36*
G01*
X129257250Y-90877500D02*
X129602250Y-90877500D01*
G75*
G02*
X129749750Y-91025000I0J-147500D01*
G01*
X129749750Y-91320000D01*
G75*
G02*
X129602250Y-91467500I-147500J0D01*
G01*
X129257250Y-91467500D01*
G75*
G02*
X129109750Y-91320000I0J147500D01*
G01*
X129109750Y-91025000D01*
G75*
G02*
X129257250Y-90877500I147500J0D01*
G01*
G37*
G36*
G01*
X130430375Y-93072500D02*
X130430375Y-93417500D01*
G75*
G02*
X130282875Y-93565000I-147500J0D01*
G01*
X129987875Y-93565000D01*
G75*
G02*
X129840375Y-93417500I0J147500D01*
G01*
X129840375Y-93072500D01*
G75*
G02*
X129987875Y-92925000I147500J0D01*
G01*
X130282875Y-92925000D01*
G75*
G02*
X130430375Y-93072500I0J-147500D01*
G01*
G37*
G36*
G01*
X131400375Y-93072500D02*
X131400375Y-93417500D01*
G75*
G02*
X131252875Y-93565000I-147500J0D01*
G01*
X130957875Y-93565000D01*
G75*
G02*
X130810375Y-93417500I0J147500D01*
G01*
X130810375Y-93072500D01*
G75*
G02*
X130957875Y-92925000I147500J0D01*
G01*
X131252875Y-92925000D01*
G75*
G02*
X131400375Y-93072500I0J-147500D01*
G01*
G37*
G36*
G01*
X135176000Y-90242500D02*
X135176000Y-89897500D01*
G75*
G02*
X135323500Y-89750000I147500J0D01*
G01*
X135618500Y-89750000D01*
G75*
G02*
X135766000Y-89897500I0J-147500D01*
G01*
X135766000Y-90242500D01*
G75*
G02*
X135618500Y-90390000I-147500J0D01*
G01*
X135323500Y-90390000D01*
G75*
G02*
X135176000Y-90242500I0J147500D01*
G01*
G37*
G36*
G01*
X134206000Y-90242500D02*
X134206000Y-89897500D01*
G75*
G02*
X134353500Y-89750000I147500J0D01*
G01*
X134648500Y-89750000D01*
G75*
G02*
X134796000Y-89897500I0J-147500D01*
G01*
X134796000Y-90242500D01*
G75*
G02*
X134648500Y-90390000I-147500J0D01*
G01*
X134353500Y-90390000D01*
G75*
G02*
X134206000Y-90242500I0J147500D01*
G01*
G37*
G36*
G01*
X136004125Y-91847500D02*
X136349125Y-91847500D01*
G75*
G02*
X136496625Y-91995000I0J-147500D01*
G01*
X136496625Y-92290000D01*
G75*
G02*
X136349125Y-92437500I-147500J0D01*
G01*
X136004125Y-92437500D01*
G75*
G02*
X135856625Y-92290000I0J147500D01*
G01*
X135856625Y-91995000D01*
G75*
G02*
X136004125Y-91847500I147500J0D01*
G01*
G37*
G36*
G01*
X136004125Y-90877500D02*
X136349125Y-90877500D01*
G75*
G02*
X136496625Y-91025000I0J-147500D01*
G01*
X136496625Y-91320000D01*
G75*
G02*
X136349125Y-91467500I-147500J0D01*
G01*
X136004125Y-91467500D01*
G75*
G02*
X135856625Y-91320000I0J147500D01*
G01*
X135856625Y-91025000D01*
G75*
G02*
X136004125Y-90877500I147500J0D01*
G01*
G37*
G36*
G01*
X136004125Y-95022500D02*
X136349125Y-95022500D01*
G75*
G02*
X136496625Y-95170000I0J-147500D01*
G01*
X136496625Y-95465000D01*
G75*
G02*
X136349125Y-95612500I-147500J0D01*
G01*
X136004125Y-95612500D01*
G75*
G02*
X135856625Y-95465000I0J147500D01*
G01*
X135856625Y-95170000D01*
G75*
G02*
X136004125Y-95022500I147500J0D01*
G01*
G37*
G36*
G01*
X136004125Y-94052500D02*
X136349125Y-94052500D01*
G75*
G02*
X136496625Y-94200000I0J-147500D01*
G01*
X136496625Y-94495000D01*
G75*
G02*
X136349125Y-94642500I-147500J0D01*
G01*
X136004125Y-94642500D01*
G75*
G02*
X135856625Y-94495000I0J147500D01*
G01*
X135856625Y-94200000D01*
G75*
G02*
X136004125Y-94052500I147500J0D01*
G01*
G37*
G36*
G01*
X135176000Y-96592500D02*
X135176000Y-96247500D01*
G75*
G02*
X135323500Y-96100000I147500J0D01*
G01*
X135618500Y-96100000D01*
G75*
G02*
X135766000Y-96247500I0J-147500D01*
G01*
X135766000Y-96592500D01*
G75*
G02*
X135618500Y-96740000I-147500J0D01*
G01*
X135323500Y-96740000D01*
G75*
G02*
X135176000Y-96592500I0J147500D01*
G01*
G37*
G36*
G01*
X134206000Y-96592500D02*
X134206000Y-96247500D01*
G75*
G02*
X134353500Y-96100000I147500J0D01*
G01*
X134648500Y-96100000D01*
G75*
G02*
X134796000Y-96247500I0J-147500D01*
G01*
X134796000Y-96592500D01*
G75*
G02*
X134648500Y-96740000I-147500J0D01*
G01*
X134353500Y-96740000D01*
G75*
G02*
X134206000Y-96592500I0J147500D01*
G01*
G37*
G36*
G01*
X133622875Y-95022500D02*
X133967875Y-95022500D01*
G75*
G02*
X134115375Y-95170000I0J-147500D01*
G01*
X134115375Y-95465000D01*
G75*
G02*
X133967875Y-95612500I-147500J0D01*
G01*
X133622875Y-95612500D01*
G75*
G02*
X133475375Y-95465000I0J147500D01*
G01*
X133475375Y-95170000D01*
G75*
G02*
X133622875Y-95022500I147500J0D01*
G01*
G37*
G36*
G01*
X133622875Y-94052500D02*
X133967875Y-94052500D01*
G75*
G02*
X134115375Y-94200000I0J-147500D01*
G01*
X134115375Y-94495000D01*
G75*
G02*
X133967875Y-94642500I-147500J0D01*
G01*
X133622875Y-94642500D01*
G75*
G02*
X133475375Y-94495000I0J147500D01*
G01*
X133475375Y-94200000D01*
G75*
G02*
X133622875Y-94052500I147500J0D01*
G01*
G37*
G36*
G01*
X133622875Y-91847500D02*
X133967875Y-91847500D01*
G75*
G02*
X134115375Y-91995000I0J-147500D01*
G01*
X134115375Y-92290000D01*
G75*
G02*
X133967875Y-92437500I-147500J0D01*
G01*
X133622875Y-92437500D01*
G75*
G02*
X133475375Y-92290000I0J147500D01*
G01*
X133475375Y-91995000D01*
G75*
G02*
X133622875Y-91847500I147500J0D01*
G01*
G37*
G36*
G01*
X133622875Y-90877500D02*
X133967875Y-90877500D01*
G75*
G02*
X134115375Y-91025000I0J-147500D01*
G01*
X134115375Y-91320000D01*
G75*
G02*
X133967875Y-91467500I-147500J0D01*
G01*
X133622875Y-91467500D01*
G75*
G02*
X133475375Y-91320000I0J147500D01*
G01*
X133475375Y-91025000D01*
G75*
G02*
X133622875Y-90877500I147500J0D01*
G01*
G37*
G36*
G01*
X134796000Y-93072500D02*
X134796000Y-93417500D01*
G75*
G02*
X134648500Y-93565000I-147500J0D01*
G01*
X134353500Y-93565000D01*
G75*
G02*
X134206000Y-93417500I0J147500D01*
G01*
X134206000Y-93072500D01*
G75*
G02*
X134353500Y-92925000I147500J0D01*
G01*
X134648500Y-92925000D01*
G75*
G02*
X134796000Y-93072500I0J-147500D01*
G01*
G37*
G36*
G01*
X135766000Y-93072500D02*
X135766000Y-93417500D01*
G75*
G02*
X135618500Y-93565000I-147500J0D01*
G01*
X135323500Y-93565000D01*
G75*
G02*
X135176000Y-93417500I0J147500D01*
G01*
X135176000Y-93072500D01*
G75*
G02*
X135323500Y-92925000I147500J0D01*
G01*
X135618500Y-92925000D01*
G75*
G02*
X135766000Y-93072500I0J-147500D01*
G01*
G37*
G36*
G01*
X139541625Y-90242500D02*
X139541625Y-89897500D01*
G75*
G02*
X139689125Y-89750000I147500J0D01*
G01*
X139984125Y-89750000D01*
G75*
G02*
X140131625Y-89897500I0J-147500D01*
G01*
X140131625Y-90242500D01*
G75*
G02*
X139984125Y-90390000I-147500J0D01*
G01*
X139689125Y-90390000D01*
G75*
G02*
X139541625Y-90242500I0J147500D01*
G01*
G37*
G36*
G01*
X138571625Y-90242500D02*
X138571625Y-89897500D01*
G75*
G02*
X138719125Y-89750000I147500J0D01*
G01*
X139014125Y-89750000D01*
G75*
G02*
X139161625Y-89897500I0J-147500D01*
G01*
X139161625Y-90242500D01*
G75*
G02*
X139014125Y-90390000I-147500J0D01*
G01*
X138719125Y-90390000D01*
G75*
G02*
X138571625Y-90242500I0J147500D01*
G01*
G37*
G36*
G01*
X140369750Y-91847500D02*
X140714750Y-91847500D01*
G75*
G02*
X140862250Y-91995000I0J-147500D01*
G01*
X140862250Y-92290000D01*
G75*
G02*
X140714750Y-92437500I-147500J0D01*
G01*
X140369750Y-92437500D01*
G75*
G02*
X140222250Y-92290000I0J147500D01*
G01*
X140222250Y-91995000D01*
G75*
G02*
X140369750Y-91847500I147500J0D01*
G01*
G37*
G36*
G01*
X140369750Y-90877500D02*
X140714750Y-90877500D01*
G75*
G02*
X140862250Y-91025000I0J-147500D01*
G01*
X140862250Y-91320000D01*
G75*
G02*
X140714750Y-91467500I-147500J0D01*
G01*
X140369750Y-91467500D01*
G75*
G02*
X140222250Y-91320000I0J147500D01*
G01*
X140222250Y-91025000D01*
G75*
G02*
X140369750Y-90877500I147500J0D01*
G01*
G37*
G36*
G01*
X140369750Y-95022500D02*
X140714750Y-95022500D01*
G75*
G02*
X140862250Y-95170000I0J-147500D01*
G01*
X140862250Y-95465000D01*
G75*
G02*
X140714750Y-95612500I-147500J0D01*
G01*
X140369750Y-95612500D01*
G75*
G02*
X140222250Y-95465000I0J147500D01*
G01*
X140222250Y-95170000D01*
G75*
G02*
X140369750Y-95022500I147500J0D01*
G01*
G37*
G36*
G01*
X140369750Y-94052500D02*
X140714750Y-94052500D01*
G75*
G02*
X140862250Y-94200000I0J-147500D01*
G01*
X140862250Y-94495000D01*
G75*
G02*
X140714750Y-94642500I-147500J0D01*
G01*
X140369750Y-94642500D01*
G75*
G02*
X140222250Y-94495000I0J147500D01*
G01*
X140222250Y-94200000D01*
G75*
G02*
X140369750Y-94052500I147500J0D01*
G01*
G37*
G36*
G01*
X139541625Y-96592500D02*
X139541625Y-96247500D01*
G75*
G02*
X139689125Y-96100000I147500J0D01*
G01*
X139984125Y-96100000D01*
G75*
G02*
X140131625Y-96247500I0J-147500D01*
G01*
X140131625Y-96592500D01*
G75*
G02*
X139984125Y-96740000I-147500J0D01*
G01*
X139689125Y-96740000D01*
G75*
G02*
X139541625Y-96592500I0J147500D01*
G01*
G37*
G36*
G01*
X138571625Y-96592500D02*
X138571625Y-96247500D01*
G75*
G02*
X138719125Y-96100000I147500J0D01*
G01*
X139014125Y-96100000D01*
G75*
G02*
X139161625Y-96247500I0J-147500D01*
G01*
X139161625Y-96592500D01*
G75*
G02*
X139014125Y-96740000I-147500J0D01*
G01*
X138719125Y-96740000D01*
G75*
G02*
X138571625Y-96592500I0J147500D01*
G01*
G37*
G36*
G01*
X137988500Y-95022500D02*
X138333500Y-95022500D01*
G75*
G02*
X138481000Y-95170000I0J-147500D01*
G01*
X138481000Y-95465000D01*
G75*
G02*
X138333500Y-95612500I-147500J0D01*
G01*
X137988500Y-95612500D01*
G75*
G02*
X137841000Y-95465000I0J147500D01*
G01*
X137841000Y-95170000D01*
G75*
G02*
X137988500Y-95022500I147500J0D01*
G01*
G37*
G36*
G01*
X137988500Y-94052500D02*
X138333500Y-94052500D01*
G75*
G02*
X138481000Y-94200000I0J-147500D01*
G01*
X138481000Y-94495000D01*
G75*
G02*
X138333500Y-94642500I-147500J0D01*
G01*
X137988500Y-94642500D01*
G75*
G02*
X137841000Y-94495000I0J147500D01*
G01*
X137841000Y-94200000D01*
G75*
G02*
X137988500Y-94052500I147500J0D01*
G01*
G37*
G36*
G01*
X137988500Y-91847500D02*
X138333500Y-91847500D01*
G75*
G02*
X138481000Y-91995000I0J-147500D01*
G01*
X138481000Y-92290000D01*
G75*
G02*
X138333500Y-92437500I-147500J0D01*
G01*
X137988500Y-92437500D01*
G75*
G02*
X137841000Y-92290000I0J147500D01*
G01*
X137841000Y-91995000D01*
G75*
G02*
X137988500Y-91847500I147500J0D01*
G01*
G37*
G36*
G01*
X137988500Y-90877500D02*
X138333500Y-90877500D01*
G75*
G02*
X138481000Y-91025000I0J-147500D01*
G01*
X138481000Y-91320000D01*
G75*
G02*
X138333500Y-91467500I-147500J0D01*
G01*
X137988500Y-91467500D01*
G75*
G02*
X137841000Y-91320000I0J147500D01*
G01*
X137841000Y-91025000D01*
G75*
G02*
X137988500Y-90877500I147500J0D01*
G01*
G37*
G36*
G01*
X139541625Y-93417500D02*
X139541625Y-93072500D01*
G75*
G02*
X139689125Y-92925000I147500J0D01*
G01*
X139984125Y-92925000D01*
G75*
G02*
X140131625Y-93072500I0J-147500D01*
G01*
X140131625Y-93417500D01*
G75*
G02*
X139984125Y-93565000I-147500J0D01*
G01*
X139689125Y-93565000D01*
G75*
G02*
X139541625Y-93417500I0J147500D01*
G01*
G37*
G36*
G01*
X138571625Y-93417500D02*
X138571625Y-93072500D01*
G75*
G02*
X138719125Y-92925000I147500J0D01*
G01*
X139014125Y-92925000D01*
G75*
G02*
X139161625Y-93072500I0J-147500D01*
G01*
X139161625Y-93417500D01*
G75*
G02*
X139014125Y-93565000I-147500J0D01*
G01*
X138719125Y-93565000D01*
G75*
G02*
X138571625Y-93417500I0J147500D01*
G01*
G37*
G36*
G01*
X143907250Y-90242500D02*
X143907250Y-89897500D01*
G75*
G02*
X144054750Y-89750000I147500J0D01*
G01*
X144349750Y-89750000D01*
G75*
G02*
X144497250Y-89897500I0J-147500D01*
G01*
X144497250Y-90242500D01*
G75*
G02*
X144349750Y-90390000I-147500J0D01*
G01*
X144054750Y-90390000D01*
G75*
G02*
X143907250Y-90242500I0J147500D01*
G01*
G37*
G36*
G01*
X142937250Y-90242500D02*
X142937250Y-89897500D01*
G75*
G02*
X143084750Y-89750000I147500J0D01*
G01*
X143379750Y-89750000D01*
G75*
G02*
X143527250Y-89897500I0J-147500D01*
G01*
X143527250Y-90242500D01*
G75*
G02*
X143379750Y-90390000I-147500J0D01*
G01*
X143084750Y-90390000D01*
G75*
G02*
X142937250Y-90242500I0J147500D01*
G01*
G37*
G36*
G01*
X144735375Y-91847500D02*
X145080375Y-91847500D01*
G75*
G02*
X145227875Y-91995000I0J-147500D01*
G01*
X145227875Y-92290000D01*
G75*
G02*
X145080375Y-92437500I-147500J0D01*
G01*
X144735375Y-92437500D01*
G75*
G02*
X144587875Y-92290000I0J147500D01*
G01*
X144587875Y-91995000D01*
G75*
G02*
X144735375Y-91847500I147500J0D01*
G01*
G37*
G36*
G01*
X144735375Y-90877500D02*
X145080375Y-90877500D01*
G75*
G02*
X145227875Y-91025000I0J-147500D01*
G01*
X145227875Y-91320000D01*
G75*
G02*
X145080375Y-91467500I-147500J0D01*
G01*
X144735375Y-91467500D01*
G75*
G02*
X144587875Y-91320000I0J147500D01*
G01*
X144587875Y-91025000D01*
G75*
G02*
X144735375Y-90877500I147500J0D01*
G01*
G37*
G36*
G01*
X144735375Y-95022500D02*
X145080375Y-95022500D01*
G75*
G02*
X145227875Y-95170000I0J-147500D01*
G01*
X145227875Y-95465000D01*
G75*
G02*
X145080375Y-95612500I-147500J0D01*
G01*
X144735375Y-95612500D01*
G75*
G02*
X144587875Y-95465000I0J147500D01*
G01*
X144587875Y-95170000D01*
G75*
G02*
X144735375Y-95022500I147500J0D01*
G01*
G37*
G36*
G01*
X144735375Y-94052500D02*
X145080375Y-94052500D01*
G75*
G02*
X145227875Y-94200000I0J-147500D01*
G01*
X145227875Y-94495000D01*
G75*
G02*
X145080375Y-94642500I-147500J0D01*
G01*
X144735375Y-94642500D01*
G75*
G02*
X144587875Y-94495000I0J147500D01*
G01*
X144587875Y-94200000D01*
G75*
G02*
X144735375Y-94052500I147500J0D01*
G01*
G37*
G36*
G01*
X143907250Y-96592500D02*
X143907250Y-96247500D01*
G75*
G02*
X144054750Y-96100000I147500J0D01*
G01*
X144349750Y-96100000D01*
G75*
G02*
X144497250Y-96247500I0J-147500D01*
G01*
X144497250Y-96592500D01*
G75*
G02*
X144349750Y-96740000I-147500J0D01*
G01*
X144054750Y-96740000D01*
G75*
G02*
X143907250Y-96592500I0J147500D01*
G01*
G37*
G36*
G01*
X142937250Y-96592500D02*
X142937250Y-96247500D01*
G75*
G02*
X143084750Y-96100000I147500J0D01*
G01*
X143379750Y-96100000D01*
G75*
G02*
X143527250Y-96247500I0J-147500D01*
G01*
X143527250Y-96592500D01*
G75*
G02*
X143379750Y-96740000I-147500J0D01*
G01*
X143084750Y-96740000D01*
G75*
G02*
X142937250Y-96592500I0J147500D01*
G01*
G37*
G36*
G01*
X142354125Y-95022500D02*
X142699125Y-95022500D01*
G75*
G02*
X142846625Y-95170000I0J-147500D01*
G01*
X142846625Y-95465000D01*
G75*
G02*
X142699125Y-95612500I-147500J0D01*
G01*
X142354125Y-95612500D01*
G75*
G02*
X142206625Y-95465000I0J147500D01*
G01*
X142206625Y-95170000D01*
G75*
G02*
X142354125Y-95022500I147500J0D01*
G01*
G37*
G36*
G01*
X142354125Y-94052500D02*
X142699125Y-94052500D01*
G75*
G02*
X142846625Y-94200000I0J-147500D01*
G01*
X142846625Y-94495000D01*
G75*
G02*
X142699125Y-94642500I-147500J0D01*
G01*
X142354125Y-94642500D01*
G75*
G02*
X142206625Y-94495000I0J147500D01*
G01*
X142206625Y-94200000D01*
G75*
G02*
X142354125Y-94052500I147500J0D01*
G01*
G37*
G36*
G01*
X142354125Y-91847500D02*
X142699125Y-91847500D01*
G75*
G02*
X142846625Y-91995000I0J-147500D01*
G01*
X142846625Y-92290000D01*
G75*
G02*
X142699125Y-92437500I-147500J0D01*
G01*
X142354125Y-92437500D01*
G75*
G02*
X142206625Y-92290000I0J147500D01*
G01*
X142206625Y-91995000D01*
G75*
G02*
X142354125Y-91847500I147500J0D01*
G01*
G37*
G36*
G01*
X142354125Y-90877500D02*
X142699125Y-90877500D01*
G75*
G02*
X142846625Y-91025000I0J-147500D01*
G01*
X142846625Y-91320000D01*
G75*
G02*
X142699125Y-91467500I-147500J0D01*
G01*
X142354125Y-91467500D01*
G75*
G02*
X142206625Y-91320000I0J147500D01*
G01*
X142206625Y-91025000D01*
G75*
G02*
X142354125Y-90877500I147500J0D01*
G01*
G37*
G36*
G01*
X143907250Y-93417500D02*
X143907250Y-93072500D01*
G75*
G02*
X144054750Y-92925000I147500J0D01*
G01*
X144349750Y-92925000D01*
G75*
G02*
X144497250Y-93072500I0J-147500D01*
G01*
X144497250Y-93417500D01*
G75*
G02*
X144349750Y-93565000I-147500J0D01*
G01*
X144054750Y-93565000D01*
G75*
G02*
X143907250Y-93417500I0J147500D01*
G01*
G37*
G36*
G01*
X142937250Y-93417500D02*
X142937250Y-93072500D01*
G75*
G02*
X143084750Y-92925000I147500J0D01*
G01*
X143379750Y-92925000D01*
G75*
G02*
X143527250Y-93072500I0J-147500D01*
G01*
X143527250Y-93417500D01*
G75*
G02*
X143379750Y-93565000I-147500J0D01*
G01*
X143084750Y-93565000D01*
G75*
G02*
X142937250Y-93417500I0J147500D01*
G01*
G37*
G36*
G01*
X148272875Y-90242500D02*
X148272875Y-89897500D01*
G75*
G02*
X148420375Y-89750000I147500J0D01*
G01*
X148715375Y-89750000D01*
G75*
G02*
X148862875Y-89897500I0J-147500D01*
G01*
X148862875Y-90242500D01*
G75*
G02*
X148715375Y-90390000I-147500J0D01*
G01*
X148420375Y-90390000D01*
G75*
G02*
X148272875Y-90242500I0J147500D01*
G01*
G37*
G36*
G01*
X147302875Y-90242500D02*
X147302875Y-89897500D01*
G75*
G02*
X147450375Y-89750000I147500J0D01*
G01*
X147745375Y-89750000D01*
G75*
G02*
X147892875Y-89897500I0J-147500D01*
G01*
X147892875Y-90242500D01*
G75*
G02*
X147745375Y-90390000I-147500J0D01*
G01*
X147450375Y-90390000D01*
G75*
G02*
X147302875Y-90242500I0J147500D01*
G01*
G37*
G36*
G01*
X149101000Y-91847500D02*
X149446000Y-91847500D01*
G75*
G02*
X149593500Y-91995000I0J-147500D01*
G01*
X149593500Y-92290000D01*
G75*
G02*
X149446000Y-92437500I-147500J0D01*
G01*
X149101000Y-92437500D01*
G75*
G02*
X148953500Y-92290000I0J147500D01*
G01*
X148953500Y-91995000D01*
G75*
G02*
X149101000Y-91847500I147500J0D01*
G01*
G37*
G36*
G01*
X149101000Y-90877500D02*
X149446000Y-90877500D01*
G75*
G02*
X149593500Y-91025000I0J-147500D01*
G01*
X149593500Y-91320000D01*
G75*
G02*
X149446000Y-91467500I-147500J0D01*
G01*
X149101000Y-91467500D01*
G75*
G02*
X148953500Y-91320000I0J147500D01*
G01*
X148953500Y-91025000D01*
G75*
G02*
X149101000Y-90877500I147500J0D01*
G01*
G37*
G36*
G01*
X149101000Y-95022500D02*
X149446000Y-95022500D01*
G75*
G02*
X149593500Y-95170000I0J-147500D01*
G01*
X149593500Y-95465000D01*
G75*
G02*
X149446000Y-95612500I-147500J0D01*
G01*
X149101000Y-95612500D01*
G75*
G02*
X148953500Y-95465000I0J147500D01*
G01*
X148953500Y-95170000D01*
G75*
G02*
X149101000Y-95022500I147500J0D01*
G01*
G37*
G36*
G01*
X149101000Y-94052500D02*
X149446000Y-94052500D01*
G75*
G02*
X149593500Y-94200000I0J-147500D01*
G01*
X149593500Y-94495000D01*
G75*
G02*
X149446000Y-94642500I-147500J0D01*
G01*
X149101000Y-94642500D01*
G75*
G02*
X148953500Y-94495000I0J147500D01*
G01*
X148953500Y-94200000D01*
G75*
G02*
X149101000Y-94052500I147500J0D01*
G01*
G37*
G36*
G01*
X148272875Y-96592500D02*
X148272875Y-96247500D01*
G75*
G02*
X148420375Y-96100000I147500J0D01*
G01*
X148715375Y-96100000D01*
G75*
G02*
X148862875Y-96247500I0J-147500D01*
G01*
X148862875Y-96592500D01*
G75*
G02*
X148715375Y-96740000I-147500J0D01*
G01*
X148420375Y-96740000D01*
G75*
G02*
X148272875Y-96592500I0J147500D01*
G01*
G37*
G36*
G01*
X147302875Y-96592500D02*
X147302875Y-96247500D01*
G75*
G02*
X147450375Y-96100000I147500J0D01*
G01*
X147745375Y-96100000D01*
G75*
G02*
X147892875Y-96247500I0J-147500D01*
G01*
X147892875Y-96592500D01*
G75*
G02*
X147745375Y-96740000I-147500J0D01*
G01*
X147450375Y-96740000D01*
G75*
G02*
X147302875Y-96592500I0J147500D01*
G01*
G37*
G36*
G01*
X146719750Y-95022500D02*
X147064750Y-95022500D01*
G75*
G02*
X147212250Y-95170000I0J-147500D01*
G01*
X147212250Y-95465000D01*
G75*
G02*
X147064750Y-95612500I-147500J0D01*
G01*
X146719750Y-95612500D01*
G75*
G02*
X146572250Y-95465000I0J147500D01*
G01*
X146572250Y-95170000D01*
G75*
G02*
X146719750Y-95022500I147500J0D01*
G01*
G37*
G36*
G01*
X146719750Y-94052500D02*
X147064750Y-94052500D01*
G75*
G02*
X147212250Y-94200000I0J-147500D01*
G01*
X147212250Y-94495000D01*
G75*
G02*
X147064750Y-94642500I-147500J0D01*
G01*
X146719750Y-94642500D01*
G75*
G02*
X146572250Y-94495000I0J147500D01*
G01*
X146572250Y-94200000D01*
G75*
G02*
X146719750Y-94052500I147500J0D01*
G01*
G37*
G36*
G01*
X146719750Y-91847500D02*
X147064750Y-91847500D01*
G75*
G02*
X147212250Y-91995000I0J-147500D01*
G01*
X147212250Y-92290000D01*
G75*
G02*
X147064750Y-92437500I-147500J0D01*
G01*
X146719750Y-92437500D01*
G75*
G02*
X146572250Y-92290000I0J147500D01*
G01*
X146572250Y-91995000D01*
G75*
G02*
X146719750Y-91847500I147500J0D01*
G01*
G37*
G36*
G01*
X146719750Y-90877500D02*
X147064750Y-90877500D01*
G75*
G02*
X147212250Y-91025000I0J-147500D01*
G01*
X147212250Y-91320000D01*
G75*
G02*
X147064750Y-91467500I-147500J0D01*
G01*
X146719750Y-91467500D01*
G75*
G02*
X146572250Y-91320000I0J147500D01*
G01*
X146572250Y-91025000D01*
G75*
G02*
X146719750Y-90877500I147500J0D01*
G01*
G37*
G36*
G01*
X148272875Y-93417500D02*
X148272875Y-93072500D01*
G75*
G02*
X148420375Y-92925000I147500J0D01*
G01*
X148715375Y-92925000D01*
G75*
G02*
X148862875Y-93072500I0J-147500D01*
G01*
X148862875Y-93417500D01*
G75*
G02*
X148715375Y-93565000I-147500J0D01*
G01*
X148420375Y-93565000D01*
G75*
G02*
X148272875Y-93417500I0J147500D01*
G01*
G37*
G36*
G01*
X147302875Y-93417500D02*
X147302875Y-93072500D01*
G75*
G02*
X147450375Y-92925000I147500J0D01*
G01*
X147745375Y-92925000D01*
G75*
G02*
X147892875Y-93072500I0J-147500D01*
G01*
X147892875Y-93417500D01*
G75*
G02*
X147745375Y-93565000I-147500J0D01*
G01*
X147450375Y-93565000D01*
G75*
G02*
X147302875Y-93417500I0J147500D01*
G01*
G37*
G36*
G01*
X152638500Y-90242500D02*
X152638500Y-89897500D01*
G75*
G02*
X152786000Y-89750000I147500J0D01*
G01*
X153081000Y-89750000D01*
G75*
G02*
X153228500Y-89897500I0J-147500D01*
G01*
X153228500Y-90242500D01*
G75*
G02*
X153081000Y-90390000I-147500J0D01*
G01*
X152786000Y-90390000D01*
G75*
G02*
X152638500Y-90242500I0J147500D01*
G01*
G37*
G36*
G01*
X151668500Y-90242500D02*
X151668500Y-89897500D01*
G75*
G02*
X151816000Y-89750000I147500J0D01*
G01*
X152111000Y-89750000D01*
G75*
G02*
X152258500Y-89897500I0J-147500D01*
G01*
X152258500Y-90242500D01*
G75*
G02*
X152111000Y-90390000I-147500J0D01*
G01*
X151816000Y-90390000D01*
G75*
G02*
X151668500Y-90242500I0J147500D01*
G01*
G37*
G36*
G01*
X153466625Y-91847500D02*
X153811625Y-91847500D01*
G75*
G02*
X153959125Y-91995000I0J-147500D01*
G01*
X153959125Y-92290000D01*
G75*
G02*
X153811625Y-92437500I-147500J0D01*
G01*
X153466625Y-92437500D01*
G75*
G02*
X153319125Y-92290000I0J147500D01*
G01*
X153319125Y-91995000D01*
G75*
G02*
X153466625Y-91847500I147500J0D01*
G01*
G37*
G36*
G01*
X153466625Y-90877500D02*
X153811625Y-90877500D01*
G75*
G02*
X153959125Y-91025000I0J-147500D01*
G01*
X153959125Y-91320000D01*
G75*
G02*
X153811625Y-91467500I-147500J0D01*
G01*
X153466625Y-91467500D01*
G75*
G02*
X153319125Y-91320000I0J147500D01*
G01*
X153319125Y-91025000D01*
G75*
G02*
X153466625Y-90877500I147500J0D01*
G01*
G37*
G36*
G01*
X153466625Y-95022500D02*
X153811625Y-95022500D01*
G75*
G02*
X153959125Y-95170000I0J-147500D01*
G01*
X153959125Y-95465000D01*
G75*
G02*
X153811625Y-95612500I-147500J0D01*
G01*
X153466625Y-95612500D01*
G75*
G02*
X153319125Y-95465000I0J147500D01*
G01*
X153319125Y-95170000D01*
G75*
G02*
X153466625Y-95022500I147500J0D01*
G01*
G37*
G36*
G01*
X153466625Y-94052500D02*
X153811625Y-94052500D01*
G75*
G02*
X153959125Y-94200000I0J-147500D01*
G01*
X153959125Y-94495000D01*
G75*
G02*
X153811625Y-94642500I-147500J0D01*
G01*
X153466625Y-94642500D01*
G75*
G02*
X153319125Y-94495000I0J147500D01*
G01*
X153319125Y-94200000D01*
G75*
G02*
X153466625Y-94052500I147500J0D01*
G01*
G37*
G36*
G01*
X152638500Y-96592500D02*
X152638500Y-96247500D01*
G75*
G02*
X152786000Y-96100000I147500J0D01*
G01*
X153081000Y-96100000D01*
G75*
G02*
X153228500Y-96247500I0J-147500D01*
G01*
X153228500Y-96592500D01*
G75*
G02*
X153081000Y-96740000I-147500J0D01*
G01*
X152786000Y-96740000D01*
G75*
G02*
X152638500Y-96592500I0J147500D01*
G01*
G37*
G36*
G01*
X151668500Y-96592500D02*
X151668500Y-96247500D01*
G75*
G02*
X151816000Y-96100000I147500J0D01*
G01*
X152111000Y-96100000D01*
G75*
G02*
X152258500Y-96247500I0J-147500D01*
G01*
X152258500Y-96592500D01*
G75*
G02*
X152111000Y-96740000I-147500J0D01*
G01*
X151816000Y-96740000D01*
G75*
G02*
X151668500Y-96592500I0J147500D01*
G01*
G37*
G36*
G01*
X151085375Y-95022500D02*
X151430375Y-95022500D01*
G75*
G02*
X151577875Y-95170000I0J-147500D01*
G01*
X151577875Y-95465000D01*
G75*
G02*
X151430375Y-95612500I-147500J0D01*
G01*
X151085375Y-95612500D01*
G75*
G02*
X150937875Y-95465000I0J147500D01*
G01*
X150937875Y-95170000D01*
G75*
G02*
X151085375Y-95022500I147500J0D01*
G01*
G37*
G36*
G01*
X151085375Y-94052500D02*
X151430375Y-94052500D01*
G75*
G02*
X151577875Y-94200000I0J-147500D01*
G01*
X151577875Y-94495000D01*
G75*
G02*
X151430375Y-94642500I-147500J0D01*
G01*
X151085375Y-94642500D01*
G75*
G02*
X150937875Y-94495000I0J147500D01*
G01*
X150937875Y-94200000D01*
G75*
G02*
X151085375Y-94052500I147500J0D01*
G01*
G37*
G36*
G01*
X151085375Y-91847500D02*
X151430375Y-91847500D01*
G75*
G02*
X151577875Y-91995000I0J-147500D01*
G01*
X151577875Y-92290000D01*
G75*
G02*
X151430375Y-92437500I-147500J0D01*
G01*
X151085375Y-92437500D01*
G75*
G02*
X150937875Y-92290000I0J147500D01*
G01*
X150937875Y-91995000D01*
G75*
G02*
X151085375Y-91847500I147500J0D01*
G01*
G37*
G36*
G01*
X151085375Y-90877500D02*
X151430375Y-90877500D01*
G75*
G02*
X151577875Y-91025000I0J-147500D01*
G01*
X151577875Y-91320000D01*
G75*
G02*
X151430375Y-91467500I-147500J0D01*
G01*
X151085375Y-91467500D01*
G75*
G02*
X150937875Y-91320000I0J147500D01*
G01*
X150937875Y-91025000D01*
G75*
G02*
X151085375Y-90877500I147500J0D01*
G01*
G37*
G36*
G01*
X152638500Y-93417500D02*
X152638500Y-93072500D01*
G75*
G02*
X152786000Y-92925000I147500J0D01*
G01*
X153081000Y-92925000D01*
G75*
G02*
X153228500Y-93072500I0J-147500D01*
G01*
X153228500Y-93417500D01*
G75*
G02*
X153081000Y-93565000I-147500J0D01*
G01*
X152786000Y-93565000D01*
G75*
G02*
X152638500Y-93417500I0J147500D01*
G01*
G37*
G36*
G01*
X151668500Y-93417500D02*
X151668500Y-93072500D01*
G75*
G02*
X151816000Y-92925000I147500J0D01*
G01*
X152111000Y-92925000D01*
G75*
G02*
X152258500Y-93072500I0J-147500D01*
G01*
X152258500Y-93417500D01*
G75*
G02*
X152111000Y-93565000I-147500J0D01*
G01*
X151816000Y-93565000D01*
G75*
G02*
X151668500Y-93417500I0J147500D01*
G01*
G37*
G36*
G01*
X157004125Y-90242500D02*
X157004125Y-89897500D01*
G75*
G02*
X157151625Y-89750000I147500J0D01*
G01*
X157446625Y-89750000D01*
G75*
G02*
X157594125Y-89897500I0J-147500D01*
G01*
X157594125Y-90242500D01*
G75*
G02*
X157446625Y-90390000I-147500J0D01*
G01*
X157151625Y-90390000D01*
G75*
G02*
X157004125Y-90242500I0J147500D01*
G01*
G37*
G36*
G01*
X156034125Y-90242500D02*
X156034125Y-89897500D01*
G75*
G02*
X156181625Y-89750000I147500J0D01*
G01*
X156476625Y-89750000D01*
G75*
G02*
X156624125Y-89897500I0J-147500D01*
G01*
X156624125Y-90242500D01*
G75*
G02*
X156476625Y-90390000I-147500J0D01*
G01*
X156181625Y-90390000D01*
G75*
G02*
X156034125Y-90242500I0J147500D01*
G01*
G37*
G36*
G01*
X157832250Y-91847500D02*
X158177250Y-91847500D01*
G75*
G02*
X158324750Y-91995000I0J-147500D01*
G01*
X158324750Y-92290000D01*
G75*
G02*
X158177250Y-92437500I-147500J0D01*
G01*
X157832250Y-92437500D01*
G75*
G02*
X157684750Y-92290000I0J147500D01*
G01*
X157684750Y-91995000D01*
G75*
G02*
X157832250Y-91847500I147500J0D01*
G01*
G37*
G36*
G01*
X157832250Y-90877500D02*
X158177250Y-90877500D01*
G75*
G02*
X158324750Y-91025000I0J-147500D01*
G01*
X158324750Y-91320000D01*
G75*
G02*
X158177250Y-91467500I-147500J0D01*
G01*
X157832250Y-91467500D01*
G75*
G02*
X157684750Y-91320000I0J147500D01*
G01*
X157684750Y-91025000D01*
G75*
G02*
X157832250Y-90877500I147500J0D01*
G01*
G37*
G36*
G01*
X157832250Y-95022500D02*
X158177250Y-95022500D01*
G75*
G02*
X158324750Y-95170000I0J-147500D01*
G01*
X158324750Y-95465000D01*
G75*
G02*
X158177250Y-95612500I-147500J0D01*
G01*
X157832250Y-95612500D01*
G75*
G02*
X157684750Y-95465000I0J147500D01*
G01*
X157684750Y-95170000D01*
G75*
G02*
X157832250Y-95022500I147500J0D01*
G01*
G37*
G36*
G01*
X157832250Y-94052500D02*
X158177250Y-94052500D01*
G75*
G02*
X158324750Y-94200000I0J-147500D01*
G01*
X158324750Y-94495000D01*
G75*
G02*
X158177250Y-94642500I-147500J0D01*
G01*
X157832250Y-94642500D01*
G75*
G02*
X157684750Y-94495000I0J147500D01*
G01*
X157684750Y-94200000D01*
G75*
G02*
X157832250Y-94052500I147500J0D01*
G01*
G37*
G36*
G01*
X157004125Y-96592500D02*
X157004125Y-96247500D01*
G75*
G02*
X157151625Y-96100000I147500J0D01*
G01*
X157446625Y-96100000D01*
G75*
G02*
X157594125Y-96247500I0J-147500D01*
G01*
X157594125Y-96592500D01*
G75*
G02*
X157446625Y-96740000I-147500J0D01*
G01*
X157151625Y-96740000D01*
G75*
G02*
X157004125Y-96592500I0J147500D01*
G01*
G37*
G36*
G01*
X156034125Y-96592500D02*
X156034125Y-96247500D01*
G75*
G02*
X156181625Y-96100000I147500J0D01*
G01*
X156476625Y-96100000D01*
G75*
G02*
X156624125Y-96247500I0J-147500D01*
G01*
X156624125Y-96592500D01*
G75*
G02*
X156476625Y-96740000I-147500J0D01*
G01*
X156181625Y-96740000D01*
G75*
G02*
X156034125Y-96592500I0J147500D01*
G01*
G37*
G36*
G01*
X155451000Y-95022500D02*
X155796000Y-95022500D01*
G75*
G02*
X155943500Y-95170000I0J-147500D01*
G01*
X155943500Y-95465000D01*
G75*
G02*
X155796000Y-95612500I-147500J0D01*
G01*
X155451000Y-95612500D01*
G75*
G02*
X155303500Y-95465000I0J147500D01*
G01*
X155303500Y-95170000D01*
G75*
G02*
X155451000Y-95022500I147500J0D01*
G01*
G37*
G36*
G01*
X155451000Y-94052500D02*
X155796000Y-94052500D01*
G75*
G02*
X155943500Y-94200000I0J-147500D01*
G01*
X155943500Y-94495000D01*
G75*
G02*
X155796000Y-94642500I-147500J0D01*
G01*
X155451000Y-94642500D01*
G75*
G02*
X155303500Y-94495000I0J147500D01*
G01*
X155303500Y-94200000D01*
G75*
G02*
X155451000Y-94052500I147500J0D01*
G01*
G37*
G36*
G01*
X155451000Y-91847500D02*
X155796000Y-91847500D01*
G75*
G02*
X155943500Y-91995000I0J-147500D01*
G01*
X155943500Y-92290000D01*
G75*
G02*
X155796000Y-92437500I-147500J0D01*
G01*
X155451000Y-92437500D01*
G75*
G02*
X155303500Y-92290000I0J147500D01*
G01*
X155303500Y-91995000D01*
G75*
G02*
X155451000Y-91847500I147500J0D01*
G01*
G37*
G36*
G01*
X155451000Y-90877500D02*
X155796000Y-90877500D01*
G75*
G02*
X155943500Y-91025000I0J-147500D01*
G01*
X155943500Y-91320000D01*
G75*
G02*
X155796000Y-91467500I-147500J0D01*
G01*
X155451000Y-91467500D01*
G75*
G02*
X155303500Y-91320000I0J147500D01*
G01*
X155303500Y-91025000D01*
G75*
G02*
X155451000Y-90877500I147500J0D01*
G01*
G37*
G36*
G01*
X157004125Y-93417500D02*
X157004125Y-93072500D01*
G75*
G02*
X157151625Y-92925000I147500J0D01*
G01*
X157446625Y-92925000D01*
G75*
G02*
X157594125Y-93072500I0J-147500D01*
G01*
X157594125Y-93417500D01*
G75*
G02*
X157446625Y-93565000I-147500J0D01*
G01*
X157151625Y-93565000D01*
G75*
G02*
X157004125Y-93417500I0J147500D01*
G01*
G37*
G36*
G01*
X156034125Y-93417500D02*
X156034125Y-93072500D01*
G75*
G02*
X156181625Y-92925000I147500J0D01*
G01*
X156476625Y-92925000D01*
G75*
G02*
X156624125Y-93072500I0J-147500D01*
G01*
X156624125Y-93417500D01*
G75*
G02*
X156476625Y-93565000I-147500J0D01*
G01*
X156181625Y-93565000D01*
G75*
G02*
X156034125Y-93417500I0J147500D01*
G01*
G37*
G36*
G01*
X111014000Y-111161000D02*
X111359000Y-111161000D01*
G75*
G02*
X111506500Y-111308500I0J-147500D01*
G01*
X111506500Y-111603500D01*
G75*
G02*
X111359000Y-111751000I-147500J0D01*
G01*
X111014000Y-111751000D01*
G75*
G02*
X110866500Y-111603500I0J147500D01*
G01*
X110866500Y-111308500D01*
G75*
G02*
X111014000Y-111161000I147500J0D01*
G01*
G37*
G36*
G01*
X111014000Y-112131000D02*
X111359000Y-112131000D01*
G75*
G02*
X111506500Y-112278500I0J-147500D01*
G01*
X111506500Y-112573500D01*
G75*
G02*
X111359000Y-112721000I-147500J0D01*
G01*
X111014000Y-112721000D01*
G75*
G02*
X110866500Y-112573500I0J147500D01*
G01*
X110866500Y-112278500D01*
G75*
G02*
X111014000Y-112131000I147500J0D01*
G01*
G37*
G36*
G01*
X115169000Y-110526000D02*
X115169000Y-110181000D01*
G75*
G02*
X115316500Y-110033500I147500J0D01*
G01*
X115611500Y-110033500D01*
G75*
G02*
X115759000Y-110181000I0J-147500D01*
G01*
X115759000Y-110526000D01*
G75*
G02*
X115611500Y-110673500I-147500J0D01*
G01*
X115316500Y-110673500D01*
G75*
G02*
X115169000Y-110526000I0J147500D01*
G01*
G37*
G36*
G01*
X116139000Y-110526000D02*
X116139000Y-110181000D01*
G75*
G02*
X116286500Y-110033500I147500J0D01*
G01*
X116581500Y-110033500D01*
G75*
G02*
X116729000Y-110181000I0J-147500D01*
G01*
X116729000Y-110526000D01*
G75*
G02*
X116581500Y-110673500I-147500J0D01*
G01*
X116286500Y-110673500D01*
G75*
G02*
X116139000Y-110526000I0J147500D01*
G01*
G37*
G36*
G01*
X117364000Y-111161000D02*
X117709000Y-111161000D01*
G75*
G02*
X117856500Y-111308500I0J-147500D01*
G01*
X117856500Y-111603500D01*
G75*
G02*
X117709000Y-111751000I-147500J0D01*
G01*
X117364000Y-111751000D01*
G75*
G02*
X117216500Y-111603500I0J147500D01*
G01*
X117216500Y-111308500D01*
G75*
G02*
X117364000Y-111161000I147500J0D01*
G01*
G37*
G36*
G01*
X117364000Y-112131000D02*
X117709000Y-112131000D01*
G75*
G02*
X117856500Y-112278500I0J-147500D01*
G01*
X117856500Y-112573500D01*
G75*
G02*
X117709000Y-112721000I-147500J0D01*
G01*
X117364000Y-112721000D01*
G75*
G02*
X117216500Y-112573500I0J147500D01*
G01*
X117216500Y-112278500D01*
G75*
G02*
X117364000Y-112131000I147500J0D01*
G01*
G37*
G36*
G01*
X115692673Y-111953375D02*
X115936625Y-112197327D01*
G75*
G02*
X115936625Y-112405923I-104298J-104298D01*
G01*
X115728029Y-112614519D01*
G75*
G02*
X115519433Y-112614519I-104298J104298D01*
G01*
X115275481Y-112370567D01*
G75*
G02*
X115275481Y-112161971I104298J104298D01*
G01*
X115484077Y-111953375D01*
G75*
G02*
X115692673Y-111953375I104298J-104298D01*
G01*
G37*
G36*
G01*
X116378567Y-111267481D02*
X116622519Y-111511433D01*
G75*
G02*
X116622519Y-111720029I-104298J-104298D01*
G01*
X116413923Y-111928625D01*
G75*
G02*
X116205327Y-111928625I-104298J104298D01*
G01*
X115961375Y-111684673D01*
G75*
G02*
X115961375Y-111476077I104298J104298D01*
G01*
X116169971Y-111267481D01*
G75*
G02*
X116378567Y-111267481I104298J-104298D01*
G01*
G37*
G36*
G01*
X115169000Y-116876000D02*
X115169000Y-116531000D01*
G75*
G02*
X115316500Y-116383500I147500J0D01*
G01*
X115611500Y-116383500D01*
G75*
G02*
X115759000Y-116531000I0J-147500D01*
G01*
X115759000Y-116876000D01*
G75*
G02*
X115611500Y-117023500I-147500J0D01*
G01*
X115316500Y-117023500D01*
G75*
G02*
X115169000Y-116876000I0J147500D01*
G01*
G37*
G36*
G01*
X116139000Y-116876000D02*
X116139000Y-116531000D01*
G75*
G02*
X116286500Y-116383500I147500J0D01*
G01*
X116581500Y-116383500D01*
G75*
G02*
X116729000Y-116531000I0J-147500D01*
G01*
X116729000Y-116876000D01*
G75*
G02*
X116581500Y-117023500I-147500J0D01*
G01*
X116286500Y-117023500D01*
G75*
G02*
X116139000Y-116876000I0J147500D01*
G01*
G37*
G36*
G01*
X115275481Y-114686433D02*
X115519433Y-114442481D01*
G75*
G02*
X115728029Y-114442481I104298J-104298D01*
G01*
X115936625Y-114651077D01*
G75*
G02*
X115936625Y-114859673I-104298J-104298D01*
G01*
X115692673Y-115103625D01*
G75*
G02*
X115484077Y-115103625I-104298J104298D01*
G01*
X115275481Y-114895029D01*
G75*
G02*
X115275481Y-114686433I104298J104298D01*
G01*
G37*
G36*
G01*
X115961375Y-115372327D02*
X116205327Y-115128375D01*
G75*
G02*
X116413923Y-115128375I104298J-104298D01*
G01*
X116622519Y-115336971D01*
G75*
G02*
X116622519Y-115545567I-104298J-104298D01*
G01*
X116378567Y-115789519D01*
G75*
G02*
X116169971Y-115789519I-104298J104298D01*
G01*
X115961375Y-115580923D01*
G75*
G02*
X115961375Y-115372327I104298J104298D01*
G01*
G37*
G36*
G01*
X113203567Y-114442481D02*
X113447519Y-114686433D01*
G75*
G02*
X113447519Y-114895029I-104298J-104298D01*
G01*
X113238923Y-115103625D01*
G75*
G02*
X113030327Y-115103625I-104298J104298D01*
G01*
X112786375Y-114859673D01*
G75*
G02*
X112786375Y-114651077I104298J104298D01*
G01*
X112994971Y-114442481D01*
G75*
G02*
X113203567Y-114442481I104298J-104298D01*
G01*
G37*
G36*
G01*
X112517673Y-115128375D02*
X112761625Y-115372327D01*
G75*
G02*
X112761625Y-115580923I-104298J-104298D01*
G01*
X112553029Y-115789519D01*
G75*
G02*
X112344433Y-115789519I-104298J104298D01*
G01*
X112100481Y-115545567D01*
G75*
G02*
X112100481Y-115336971I104298J104298D01*
G01*
X112309077Y-115128375D01*
G75*
G02*
X112517673Y-115128375I104298J-104298D01*
G01*
G37*
G36*
G01*
X112786375Y-112197327D02*
X113030327Y-111953375D01*
G75*
G02*
X113238923Y-111953375I104298J-104298D01*
G01*
X113447519Y-112161971D01*
G75*
G02*
X113447519Y-112370567I-104298J-104298D01*
G01*
X113203567Y-112614519D01*
G75*
G02*
X112994971Y-112614519I-104298J104298D01*
G01*
X112786375Y-112405923D01*
G75*
G02*
X112786375Y-112197327I104298J104298D01*
G01*
G37*
G36*
G01*
X112100481Y-111511433D02*
X112344433Y-111267481D01*
G75*
G02*
X112553029Y-111267481I104298J-104298D01*
G01*
X112761625Y-111476077D01*
G75*
G02*
X112761625Y-111684673I-104298J-104298D01*
G01*
X112517673Y-111928625D01*
G75*
G02*
X112309077Y-111928625I-104298J104298D01*
G01*
X112100481Y-111720029D01*
G75*
G02*
X112100481Y-111511433I104298J104298D01*
G01*
G37*
G36*
G01*
X113554000Y-113356000D02*
X113554000Y-113701000D01*
G75*
G02*
X113406500Y-113848500I-147500J0D01*
G01*
X113111500Y-113848500D01*
G75*
G02*
X112964000Y-113701000I0J147500D01*
G01*
X112964000Y-113356000D01*
G75*
G02*
X113111500Y-113208500I147500J0D01*
G01*
X113406500Y-113208500D01*
G75*
G02*
X113554000Y-113356000I0J-147500D01*
G01*
G37*
G36*
G01*
X112584000Y-113356000D02*
X112584000Y-113701000D01*
G75*
G02*
X112436500Y-113848500I-147500J0D01*
G01*
X112141500Y-113848500D01*
G75*
G02*
X111994000Y-113701000I0J147500D01*
G01*
X111994000Y-113356000D01*
G75*
G02*
X112141500Y-113208500I147500J0D01*
G01*
X112436500Y-113208500D01*
G75*
G02*
X112584000Y-113356000I0J-147500D01*
G01*
G37*
G36*
G01*
X113554000Y-116531000D02*
X113554000Y-116876000D01*
G75*
G02*
X113406500Y-117023500I-147500J0D01*
G01*
X113111500Y-117023500D01*
G75*
G02*
X112964000Y-116876000I0J147500D01*
G01*
X112964000Y-116531000D01*
G75*
G02*
X113111500Y-116383500I147500J0D01*
G01*
X113406500Y-116383500D01*
G75*
G02*
X113554000Y-116531000I0J-147500D01*
G01*
G37*
G36*
G01*
X112584000Y-116531000D02*
X112584000Y-116876000D01*
G75*
G02*
X112436500Y-117023500I-147500J0D01*
G01*
X112141500Y-117023500D01*
G75*
G02*
X111994000Y-116876000I0J147500D01*
G01*
X111994000Y-116531000D01*
G75*
G02*
X112141500Y-116383500I147500J0D01*
G01*
X112436500Y-116383500D01*
G75*
G02*
X112584000Y-116531000I0J-147500D01*
G01*
G37*
G36*
G01*
X114189000Y-111161000D02*
X114534000Y-111161000D01*
G75*
G02*
X114681500Y-111308500I0J-147500D01*
G01*
X114681500Y-111603500D01*
G75*
G02*
X114534000Y-111751000I-147500J0D01*
G01*
X114189000Y-111751000D01*
G75*
G02*
X114041500Y-111603500I0J147500D01*
G01*
X114041500Y-111308500D01*
G75*
G02*
X114189000Y-111161000I147500J0D01*
G01*
G37*
G36*
G01*
X114189000Y-112131000D02*
X114534000Y-112131000D01*
G75*
G02*
X114681500Y-112278500I0J-147500D01*
G01*
X114681500Y-112573500D01*
G75*
G02*
X114534000Y-112721000I-147500J0D01*
G01*
X114189000Y-112721000D01*
G75*
G02*
X114041500Y-112573500I0J147500D01*
G01*
X114041500Y-112278500D01*
G75*
G02*
X114189000Y-112131000I147500J0D01*
G01*
G37*
G36*
G01*
X115169000Y-113701000D02*
X115169000Y-113356000D01*
G75*
G02*
X115316500Y-113208500I147500J0D01*
G01*
X115611500Y-113208500D01*
G75*
G02*
X115759000Y-113356000I0J-147500D01*
G01*
X115759000Y-113701000D01*
G75*
G02*
X115611500Y-113848500I-147500J0D01*
G01*
X115316500Y-113848500D01*
G75*
G02*
X115169000Y-113701000I0J147500D01*
G01*
G37*
G36*
G01*
X116139000Y-113701000D02*
X116139000Y-113356000D01*
G75*
G02*
X116286500Y-113208500I147500J0D01*
G01*
X116581500Y-113208500D01*
G75*
G02*
X116729000Y-113356000I0J-147500D01*
G01*
X116729000Y-113701000D01*
G75*
G02*
X116581500Y-113848500I-147500J0D01*
G01*
X116286500Y-113848500D01*
G75*
G02*
X116139000Y-113701000I0J147500D01*
G01*
G37*
G36*
G01*
X114189000Y-115306000D02*
X114534000Y-115306000D01*
G75*
G02*
X114681500Y-115453500I0J-147500D01*
G01*
X114681500Y-115748500D01*
G75*
G02*
X114534000Y-115896000I-147500J0D01*
G01*
X114189000Y-115896000D01*
G75*
G02*
X114041500Y-115748500I0J147500D01*
G01*
X114041500Y-115453500D01*
G75*
G02*
X114189000Y-115306000I147500J0D01*
G01*
G37*
G36*
G01*
X114189000Y-114336000D02*
X114534000Y-114336000D01*
G75*
G02*
X114681500Y-114483500I0J-147500D01*
G01*
X114681500Y-114778500D01*
G75*
G02*
X114534000Y-114926000I-147500J0D01*
G01*
X114189000Y-114926000D01*
G75*
G02*
X114041500Y-114778500I0J147500D01*
G01*
X114041500Y-114483500D01*
G75*
G02*
X114189000Y-114336000I147500J0D01*
G01*
G37*
G36*
G01*
X111014000Y-115306000D02*
X111359000Y-115306000D01*
G75*
G02*
X111506500Y-115453500I0J-147500D01*
G01*
X111506500Y-115748500D01*
G75*
G02*
X111359000Y-115896000I-147500J0D01*
G01*
X111014000Y-115896000D01*
G75*
G02*
X110866500Y-115748500I0J147500D01*
G01*
X110866500Y-115453500D01*
G75*
G02*
X111014000Y-115306000I147500J0D01*
G01*
G37*
G36*
G01*
X111014000Y-114336000D02*
X111359000Y-114336000D01*
G75*
G02*
X111506500Y-114483500I0J-147500D01*
G01*
X111506500Y-114778500D01*
G75*
G02*
X111359000Y-114926000I-147500J0D01*
G01*
X111014000Y-114926000D01*
G75*
G02*
X110866500Y-114778500I0J147500D01*
G01*
X110866500Y-114483500D01*
G75*
G02*
X111014000Y-114336000I147500J0D01*
G01*
G37*
G36*
G01*
X112584000Y-110181000D02*
X112584000Y-110526000D01*
G75*
G02*
X112436500Y-110673500I-147500J0D01*
G01*
X112141500Y-110673500D01*
G75*
G02*
X111994000Y-110526000I0J147500D01*
G01*
X111994000Y-110181000D01*
G75*
G02*
X112141500Y-110033500I147500J0D01*
G01*
X112436500Y-110033500D01*
G75*
G02*
X112584000Y-110181000I0J-147500D01*
G01*
G37*
G36*
G01*
X113554000Y-110181000D02*
X113554000Y-110526000D01*
G75*
G02*
X113406500Y-110673500I-147500J0D01*
G01*
X113111500Y-110673500D01*
G75*
G02*
X112964000Y-110526000I0J147500D01*
G01*
X112964000Y-110181000D01*
G75*
G02*
X113111500Y-110033500I147500J0D01*
G01*
X113406500Y-110033500D01*
G75*
G02*
X113554000Y-110181000I0J-147500D01*
G01*
G37*
G36*
G01*
X117364000Y-115306000D02*
X117709000Y-115306000D01*
G75*
G02*
X117856500Y-115453500I0J-147500D01*
G01*
X117856500Y-115748500D01*
G75*
G02*
X117709000Y-115896000I-147500J0D01*
G01*
X117364000Y-115896000D01*
G75*
G02*
X117216500Y-115748500I0J147500D01*
G01*
X117216500Y-115453500D01*
G75*
G02*
X117364000Y-115306000I147500J0D01*
G01*
G37*
G36*
G01*
X117364000Y-114336000D02*
X117709000Y-114336000D01*
G75*
G02*
X117856500Y-114483500I0J-147500D01*
G01*
X117856500Y-114778500D01*
G75*
G02*
X117709000Y-114926000I-147500J0D01*
G01*
X117364000Y-114926000D01*
G75*
G02*
X117216500Y-114778500I0J147500D01*
G01*
X117216500Y-114483500D01*
G75*
G02*
X117364000Y-114336000I147500J0D01*
G01*
G37*
G36*
G01*
X138164000Y-111161000D02*
X138509000Y-111161000D01*
G75*
G02*
X138656500Y-111308500I0J-147500D01*
G01*
X138656500Y-111603500D01*
G75*
G02*
X138509000Y-111751000I-147500J0D01*
G01*
X138164000Y-111751000D01*
G75*
G02*
X138016500Y-111603500I0J147500D01*
G01*
X138016500Y-111308500D01*
G75*
G02*
X138164000Y-111161000I147500J0D01*
G01*
G37*
G36*
G01*
X138164000Y-112131000D02*
X138509000Y-112131000D01*
G75*
G02*
X138656500Y-112278500I0J-147500D01*
G01*
X138656500Y-112573500D01*
G75*
G02*
X138509000Y-112721000I-147500J0D01*
G01*
X138164000Y-112721000D01*
G75*
G02*
X138016500Y-112573500I0J147500D01*
G01*
X138016500Y-112278500D01*
G75*
G02*
X138164000Y-112131000I147500J0D01*
G01*
G37*
G36*
G01*
X142319000Y-110526000D02*
X142319000Y-110181000D01*
G75*
G02*
X142466500Y-110033500I147500J0D01*
G01*
X142761500Y-110033500D01*
G75*
G02*
X142909000Y-110181000I0J-147500D01*
G01*
X142909000Y-110526000D01*
G75*
G02*
X142761500Y-110673500I-147500J0D01*
G01*
X142466500Y-110673500D01*
G75*
G02*
X142319000Y-110526000I0J147500D01*
G01*
G37*
G36*
G01*
X143289000Y-110526000D02*
X143289000Y-110181000D01*
G75*
G02*
X143436500Y-110033500I147500J0D01*
G01*
X143731500Y-110033500D01*
G75*
G02*
X143879000Y-110181000I0J-147500D01*
G01*
X143879000Y-110526000D01*
G75*
G02*
X143731500Y-110673500I-147500J0D01*
G01*
X143436500Y-110673500D01*
G75*
G02*
X143289000Y-110526000I0J147500D01*
G01*
G37*
G36*
G01*
X144514000Y-111161000D02*
X144859000Y-111161000D01*
G75*
G02*
X145006500Y-111308500I0J-147500D01*
G01*
X145006500Y-111603500D01*
G75*
G02*
X144859000Y-111751000I-147500J0D01*
G01*
X144514000Y-111751000D01*
G75*
G02*
X144366500Y-111603500I0J147500D01*
G01*
X144366500Y-111308500D01*
G75*
G02*
X144514000Y-111161000I147500J0D01*
G01*
G37*
G36*
G01*
X144514000Y-112131000D02*
X144859000Y-112131000D01*
G75*
G02*
X145006500Y-112278500I0J-147500D01*
G01*
X145006500Y-112573500D01*
G75*
G02*
X144859000Y-112721000I-147500J0D01*
G01*
X144514000Y-112721000D01*
G75*
G02*
X144366500Y-112573500I0J147500D01*
G01*
X144366500Y-112278500D01*
G75*
G02*
X144514000Y-112131000I147500J0D01*
G01*
G37*
G36*
G01*
X142842673Y-111953375D02*
X143086625Y-112197327D01*
G75*
G02*
X143086625Y-112405923I-104298J-104298D01*
G01*
X142878029Y-112614519D01*
G75*
G02*
X142669433Y-112614519I-104298J104298D01*
G01*
X142425481Y-112370567D01*
G75*
G02*
X142425481Y-112161971I104298J104298D01*
G01*
X142634077Y-111953375D01*
G75*
G02*
X142842673Y-111953375I104298J-104298D01*
G01*
G37*
G36*
G01*
X143528567Y-111267481D02*
X143772519Y-111511433D01*
G75*
G02*
X143772519Y-111720029I-104298J-104298D01*
G01*
X143563923Y-111928625D01*
G75*
G02*
X143355327Y-111928625I-104298J104298D01*
G01*
X143111375Y-111684673D01*
G75*
G02*
X143111375Y-111476077I104298J104298D01*
G01*
X143319971Y-111267481D01*
G75*
G02*
X143528567Y-111267481I104298J-104298D01*
G01*
G37*
G36*
G01*
X142319000Y-116876000D02*
X142319000Y-116531000D01*
G75*
G02*
X142466500Y-116383500I147500J0D01*
G01*
X142761500Y-116383500D01*
G75*
G02*
X142909000Y-116531000I0J-147500D01*
G01*
X142909000Y-116876000D01*
G75*
G02*
X142761500Y-117023500I-147500J0D01*
G01*
X142466500Y-117023500D01*
G75*
G02*
X142319000Y-116876000I0J147500D01*
G01*
G37*
G36*
G01*
X143289000Y-116876000D02*
X143289000Y-116531000D01*
G75*
G02*
X143436500Y-116383500I147500J0D01*
G01*
X143731500Y-116383500D01*
G75*
G02*
X143879000Y-116531000I0J-147500D01*
G01*
X143879000Y-116876000D01*
G75*
G02*
X143731500Y-117023500I-147500J0D01*
G01*
X143436500Y-117023500D01*
G75*
G02*
X143289000Y-116876000I0J147500D01*
G01*
G37*
G36*
G01*
X142425481Y-114686433D02*
X142669433Y-114442481D01*
G75*
G02*
X142878029Y-114442481I104298J-104298D01*
G01*
X143086625Y-114651077D01*
G75*
G02*
X143086625Y-114859673I-104298J-104298D01*
G01*
X142842673Y-115103625D01*
G75*
G02*
X142634077Y-115103625I-104298J104298D01*
G01*
X142425481Y-114895029D01*
G75*
G02*
X142425481Y-114686433I104298J104298D01*
G01*
G37*
G36*
G01*
X143111375Y-115372327D02*
X143355327Y-115128375D01*
G75*
G02*
X143563923Y-115128375I104298J-104298D01*
G01*
X143772519Y-115336971D01*
G75*
G02*
X143772519Y-115545567I-104298J-104298D01*
G01*
X143528567Y-115789519D01*
G75*
G02*
X143319971Y-115789519I-104298J104298D01*
G01*
X143111375Y-115580923D01*
G75*
G02*
X143111375Y-115372327I104298J104298D01*
G01*
G37*
G36*
G01*
X140353567Y-114442481D02*
X140597519Y-114686433D01*
G75*
G02*
X140597519Y-114895029I-104298J-104298D01*
G01*
X140388923Y-115103625D01*
G75*
G02*
X140180327Y-115103625I-104298J104298D01*
G01*
X139936375Y-114859673D01*
G75*
G02*
X139936375Y-114651077I104298J104298D01*
G01*
X140144971Y-114442481D01*
G75*
G02*
X140353567Y-114442481I104298J-104298D01*
G01*
G37*
G36*
G01*
X139667673Y-115128375D02*
X139911625Y-115372327D01*
G75*
G02*
X139911625Y-115580923I-104298J-104298D01*
G01*
X139703029Y-115789519D01*
G75*
G02*
X139494433Y-115789519I-104298J104298D01*
G01*
X139250481Y-115545567D01*
G75*
G02*
X139250481Y-115336971I104298J104298D01*
G01*
X139459077Y-115128375D01*
G75*
G02*
X139667673Y-115128375I104298J-104298D01*
G01*
G37*
G36*
G01*
X139936375Y-112197327D02*
X140180327Y-111953375D01*
G75*
G02*
X140388923Y-111953375I104298J-104298D01*
G01*
X140597519Y-112161971D01*
G75*
G02*
X140597519Y-112370567I-104298J-104298D01*
G01*
X140353567Y-112614519D01*
G75*
G02*
X140144971Y-112614519I-104298J104298D01*
G01*
X139936375Y-112405923D01*
G75*
G02*
X139936375Y-112197327I104298J104298D01*
G01*
G37*
G36*
G01*
X139250481Y-111511433D02*
X139494433Y-111267481D01*
G75*
G02*
X139703029Y-111267481I104298J-104298D01*
G01*
X139911625Y-111476077D01*
G75*
G02*
X139911625Y-111684673I-104298J-104298D01*
G01*
X139667673Y-111928625D01*
G75*
G02*
X139459077Y-111928625I-104298J104298D01*
G01*
X139250481Y-111720029D01*
G75*
G02*
X139250481Y-111511433I104298J104298D01*
G01*
G37*
G36*
G01*
X140704000Y-113356000D02*
X140704000Y-113701000D01*
G75*
G02*
X140556500Y-113848500I-147500J0D01*
G01*
X140261500Y-113848500D01*
G75*
G02*
X140114000Y-113701000I0J147500D01*
G01*
X140114000Y-113356000D01*
G75*
G02*
X140261500Y-113208500I147500J0D01*
G01*
X140556500Y-113208500D01*
G75*
G02*
X140704000Y-113356000I0J-147500D01*
G01*
G37*
G36*
G01*
X139734000Y-113356000D02*
X139734000Y-113701000D01*
G75*
G02*
X139586500Y-113848500I-147500J0D01*
G01*
X139291500Y-113848500D01*
G75*
G02*
X139144000Y-113701000I0J147500D01*
G01*
X139144000Y-113356000D01*
G75*
G02*
X139291500Y-113208500I147500J0D01*
G01*
X139586500Y-113208500D01*
G75*
G02*
X139734000Y-113356000I0J-147500D01*
G01*
G37*
G36*
G01*
X140704000Y-116531000D02*
X140704000Y-116876000D01*
G75*
G02*
X140556500Y-117023500I-147500J0D01*
G01*
X140261500Y-117023500D01*
G75*
G02*
X140114000Y-116876000I0J147500D01*
G01*
X140114000Y-116531000D01*
G75*
G02*
X140261500Y-116383500I147500J0D01*
G01*
X140556500Y-116383500D01*
G75*
G02*
X140704000Y-116531000I0J-147500D01*
G01*
G37*
G36*
G01*
X139734000Y-116531000D02*
X139734000Y-116876000D01*
G75*
G02*
X139586500Y-117023500I-147500J0D01*
G01*
X139291500Y-117023500D01*
G75*
G02*
X139144000Y-116876000I0J147500D01*
G01*
X139144000Y-116531000D01*
G75*
G02*
X139291500Y-116383500I147500J0D01*
G01*
X139586500Y-116383500D01*
G75*
G02*
X139734000Y-116531000I0J-147500D01*
G01*
G37*
G36*
G01*
X141339000Y-111161000D02*
X141684000Y-111161000D01*
G75*
G02*
X141831500Y-111308500I0J-147500D01*
G01*
X141831500Y-111603500D01*
G75*
G02*
X141684000Y-111751000I-147500J0D01*
G01*
X141339000Y-111751000D01*
G75*
G02*
X141191500Y-111603500I0J147500D01*
G01*
X141191500Y-111308500D01*
G75*
G02*
X141339000Y-111161000I147500J0D01*
G01*
G37*
G36*
G01*
X141339000Y-112131000D02*
X141684000Y-112131000D01*
G75*
G02*
X141831500Y-112278500I0J-147500D01*
G01*
X141831500Y-112573500D01*
G75*
G02*
X141684000Y-112721000I-147500J0D01*
G01*
X141339000Y-112721000D01*
G75*
G02*
X141191500Y-112573500I0J147500D01*
G01*
X141191500Y-112278500D01*
G75*
G02*
X141339000Y-112131000I147500J0D01*
G01*
G37*
G36*
G01*
X142319000Y-113701000D02*
X142319000Y-113356000D01*
G75*
G02*
X142466500Y-113208500I147500J0D01*
G01*
X142761500Y-113208500D01*
G75*
G02*
X142909000Y-113356000I0J-147500D01*
G01*
X142909000Y-113701000D01*
G75*
G02*
X142761500Y-113848500I-147500J0D01*
G01*
X142466500Y-113848500D01*
G75*
G02*
X142319000Y-113701000I0J147500D01*
G01*
G37*
G36*
G01*
X143289000Y-113701000D02*
X143289000Y-113356000D01*
G75*
G02*
X143436500Y-113208500I147500J0D01*
G01*
X143731500Y-113208500D01*
G75*
G02*
X143879000Y-113356000I0J-147500D01*
G01*
X143879000Y-113701000D01*
G75*
G02*
X143731500Y-113848500I-147500J0D01*
G01*
X143436500Y-113848500D01*
G75*
G02*
X143289000Y-113701000I0J147500D01*
G01*
G37*
G36*
G01*
X141339000Y-115306000D02*
X141684000Y-115306000D01*
G75*
G02*
X141831500Y-115453500I0J-147500D01*
G01*
X141831500Y-115748500D01*
G75*
G02*
X141684000Y-115896000I-147500J0D01*
G01*
X141339000Y-115896000D01*
G75*
G02*
X141191500Y-115748500I0J147500D01*
G01*
X141191500Y-115453500D01*
G75*
G02*
X141339000Y-115306000I147500J0D01*
G01*
G37*
G36*
G01*
X141339000Y-114336000D02*
X141684000Y-114336000D01*
G75*
G02*
X141831500Y-114483500I0J-147500D01*
G01*
X141831500Y-114778500D01*
G75*
G02*
X141684000Y-114926000I-147500J0D01*
G01*
X141339000Y-114926000D01*
G75*
G02*
X141191500Y-114778500I0J147500D01*
G01*
X141191500Y-114483500D01*
G75*
G02*
X141339000Y-114336000I147500J0D01*
G01*
G37*
G36*
G01*
X138164000Y-115306000D02*
X138509000Y-115306000D01*
G75*
G02*
X138656500Y-115453500I0J-147500D01*
G01*
X138656500Y-115748500D01*
G75*
G02*
X138509000Y-115896000I-147500J0D01*
G01*
X138164000Y-115896000D01*
G75*
G02*
X138016500Y-115748500I0J147500D01*
G01*
X138016500Y-115453500D01*
G75*
G02*
X138164000Y-115306000I147500J0D01*
G01*
G37*
G36*
G01*
X138164000Y-114336000D02*
X138509000Y-114336000D01*
G75*
G02*
X138656500Y-114483500I0J-147500D01*
G01*
X138656500Y-114778500D01*
G75*
G02*
X138509000Y-114926000I-147500J0D01*
G01*
X138164000Y-114926000D01*
G75*
G02*
X138016500Y-114778500I0J147500D01*
G01*
X138016500Y-114483500D01*
G75*
G02*
X138164000Y-114336000I147500J0D01*
G01*
G37*
G36*
G01*
X139734000Y-110181000D02*
X139734000Y-110526000D01*
G75*
G02*
X139586500Y-110673500I-147500J0D01*
G01*
X139291500Y-110673500D01*
G75*
G02*
X139144000Y-110526000I0J147500D01*
G01*
X139144000Y-110181000D01*
G75*
G02*
X139291500Y-110033500I147500J0D01*
G01*
X139586500Y-110033500D01*
G75*
G02*
X139734000Y-110181000I0J-147500D01*
G01*
G37*
G36*
G01*
X140704000Y-110181000D02*
X140704000Y-110526000D01*
G75*
G02*
X140556500Y-110673500I-147500J0D01*
G01*
X140261500Y-110673500D01*
G75*
G02*
X140114000Y-110526000I0J147500D01*
G01*
X140114000Y-110181000D01*
G75*
G02*
X140261500Y-110033500I147500J0D01*
G01*
X140556500Y-110033500D01*
G75*
G02*
X140704000Y-110181000I0J-147500D01*
G01*
G37*
G36*
G01*
X144514000Y-115306000D02*
X144859000Y-115306000D01*
G75*
G02*
X145006500Y-115453500I0J-147500D01*
G01*
X145006500Y-115748500D01*
G75*
G02*
X144859000Y-115896000I-147500J0D01*
G01*
X144514000Y-115896000D01*
G75*
G02*
X144366500Y-115748500I0J147500D01*
G01*
X144366500Y-115453500D01*
G75*
G02*
X144514000Y-115306000I147500J0D01*
G01*
G37*
G36*
G01*
X144514000Y-114336000D02*
X144859000Y-114336000D01*
G75*
G02*
X145006500Y-114483500I0J-147500D01*
G01*
X145006500Y-114778500D01*
G75*
G02*
X144859000Y-114926000I-147500J0D01*
G01*
X144514000Y-114926000D01*
G75*
G02*
X144366500Y-114778500I0J147500D01*
G01*
X144366500Y-114483500D01*
G75*
G02*
X144514000Y-114336000I147500J0D01*
G01*
G37*
M02*
