G04 #@! TF.GenerationSoftware,KiCad,Pcbnew,(5.1.9)-1*
G04 #@! TF.CreationDate,2021-05-14T22:58:57-04:00*
G04 #@! TF.ProjectId,Scratch+Com Panelized,53637261-7463-4682-9b43-6f6d2050616e,rev?*
G04 #@! TF.SameCoordinates,Original*
G04 #@! TF.FileFunction,Copper,L2,Bot*
G04 #@! TF.FilePolarity,Positive*
%FSLAX46Y46*%
G04 Gerber Fmt 4.6, Leading zero omitted, Abs format (unit mm)*
G04 Created by KiCad (PCBNEW (5.1.9)-1) date 2021-05-14 22:58:57*
%MOMM*%
%LPD*%
G01*
G04 APERTURE LIST*
G04 #@! TA.AperFunction,ComponentPad*
%ADD10O,1.700000X1.700000*%
G04 #@! TD*
G04 #@! TA.AperFunction,ComponentPad*
%ADD11R,1.700000X1.700000*%
G04 #@! TD*
G04 #@! TA.AperFunction,ViaPad*
%ADD12C,0.450000*%
G04 #@! TD*
G04 #@! TA.AperFunction,Conductor*
%ADD13C,0.250000*%
G04 #@! TD*
G04 APERTURE END LIST*
D10*
X133843000Y-99842000D03*
X131303000Y-99842000D03*
X128763000Y-99842000D03*
X126223000Y-99842000D03*
D11*
X123683000Y-99842000D03*
D10*
X156449000Y-99842000D03*
X153909000Y-99842000D03*
X151369000Y-99842000D03*
X148829000Y-99842000D03*
X146289000Y-99842000D03*
X143749000Y-99842000D03*
D11*
X141209000Y-99842000D03*
D10*
X156449000Y-86634000D03*
X153909000Y-86634000D03*
X151369000Y-86634000D03*
X148829000Y-86634000D03*
X146289000Y-86634000D03*
X143749000Y-86634000D03*
D11*
X141209000Y-86634000D03*
D10*
X114666000Y-99842000D03*
X112126000Y-99842000D03*
X109586000Y-99842000D03*
D11*
X107046000Y-99842000D03*
D10*
X124826000Y-86634000D03*
X122286000Y-86634000D03*
X119746000Y-86634000D03*
X117206000Y-86634000D03*
X114666000Y-86634000D03*
X112126000Y-86634000D03*
X109586000Y-86634000D03*
D11*
X107046000Y-86634000D03*
D10*
X124525000Y-120515000D03*
X121985000Y-120515000D03*
X119445000Y-120515000D03*
X116905000Y-120515000D03*
X114365000Y-120515000D03*
X111825000Y-120515000D03*
X109285000Y-120515000D03*
X106745000Y-120515000D03*
D11*
X104205000Y-120515000D03*
D10*
X124525000Y-106545000D03*
X121985000Y-106545000D03*
X119445000Y-106545000D03*
X116905000Y-106545000D03*
X114365000Y-106545000D03*
X111825000Y-106545000D03*
X109285000Y-106545000D03*
X106745000Y-106545000D03*
D11*
X104205000Y-106545000D03*
D10*
X151675000Y-120515000D03*
X149135000Y-120515000D03*
X146595000Y-120515000D03*
X144055000Y-120515000D03*
X141515000Y-120515000D03*
X138975000Y-120515000D03*
X136435000Y-120515000D03*
X133895000Y-120515000D03*
D11*
X131355000Y-120515000D03*
D10*
X151675000Y-106545000D03*
X149135000Y-106545000D03*
X146595000Y-106545000D03*
X144055000Y-106545000D03*
X141515000Y-106545000D03*
X138975000Y-106545000D03*
X136435000Y-106545000D03*
X133895000Y-106545000D03*
D11*
X131355000Y-106545000D03*
D12*
X103998000Y-93238000D03*
X115936000Y-95905000D03*
X107935000Y-96032000D03*
X103871000Y-90317000D03*
X112126000Y-90952000D03*
X103871000Y-95651000D03*
X112253000Y-96032000D03*
X109586000Y-88666000D03*
X116952000Y-88539000D03*
X106110000Y-109783500D03*
X133260000Y-109783500D03*
X116888500Y-91206000D03*
X108951000Y-91206000D03*
X105776000Y-88285000D03*
X113777000Y-88666000D03*
X115809000Y-90232010D03*
X138542000Y-97810000D03*
X136129000Y-98445000D03*
X146416000Y-97937000D03*
X116190000Y-93111000D03*
X108316000Y-93111000D03*
X104760000Y-89174000D03*
X112634000Y-89174000D03*
X107697500Y-113720500D03*
X134847500Y-113720500D03*
X104887000Y-93238000D03*
X112761000Y-93238000D03*
X117841000Y-94127000D03*
X110094000Y-94127000D03*
X114361500Y-116765000D03*
X141511500Y-116765000D03*
X112126000Y-97302000D03*
X104887000Y-96286000D03*
X116190000Y-97175000D03*
X108316000Y-97175000D03*
X122556500Y-112514000D03*
X120810250Y-109688250D03*
X149706500Y-112514000D03*
X147960250Y-109688250D03*
X120381000Y-88920000D03*
X112888000Y-97683000D03*
X105268000Y-97683000D03*
X118095000Y-89047000D03*
X111237000Y-90317000D03*
X147559000Y-98614010D03*
X150099000Y-98614010D03*
X155179000Y-98614010D03*
X120381000Y-88031000D03*
X118730000Y-87904000D03*
X111110000Y-96286000D03*
X108062000Y-89470010D03*
X119068990Y-96413000D03*
X116182084Y-89004990D03*
X115196249Y-108900249D03*
X118302000Y-108894500D03*
X111240922Y-113659554D03*
X142346249Y-108900249D03*
X145452000Y-108894500D03*
X138390922Y-113659554D03*
X132065000Y-90063000D03*
X135494000Y-89174000D03*
X123429000Y-90063000D03*
X127747000Y-90063000D03*
X132065000Y-92984000D03*
X127747000Y-93111000D03*
X123429000Y-93111000D03*
X136848990Y-89682000D03*
X136510000Y-96159000D03*
X128001000Y-96032000D03*
X123683000Y-96159000D03*
X132446000Y-95994947D03*
X136256000Y-97175000D03*
X123175000Y-97048000D03*
X127491825Y-96741047D03*
X131811000Y-96544957D03*
X120762000Y-97810000D03*
X124755452Y-97365950D03*
X129271000Y-97190979D03*
X133716000Y-96994968D03*
X136256000Y-89174000D03*
X130287000Y-92095000D03*
X134605000Y-92095000D03*
X121651000Y-92095000D03*
X125969000Y-92095000D03*
X129271000Y-93238000D03*
X133716000Y-93238000D03*
X120635000Y-93238000D03*
X124953000Y-93238000D03*
X140701000Y-90063000D03*
X145146000Y-90063000D03*
X149464000Y-90063000D03*
X153782000Y-90063000D03*
X158100000Y-90063000D03*
X145908000Y-92222000D03*
X144003000Y-92222000D03*
X148448000Y-92095000D03*
X152766000Y-92095000D03*
X157211000Y-92222000D03*
X139685000Y-92222000D03*
X141209000Y-96032000D03*
X145527000Y-96032000D03*
X149845000Y-96032000D03*
X158608000Y-96032000D03*
X153866990Y-96113337D03*
X158100000Y-97048000D03*
X140701000Y-96624990D03*
X145019000Y-96624990D03*
X149337000Y-96624990D03*
X153781245Y-96757668D03*
X142352000Y-97175000D03*
X146670000Y-97175000D03*
X137877863Y-97259990D03*
X155560000Y-97386990D03*
X151115000Y-97386990D03*
X137907000Y-93111000D03*
X142352000Y-93365000D03*
X146670000Y-93365000D03*
X150988000Y-93365000D03*
X155433000Y-93365000D03*
X140574000Y-93238000D03*
X145019000Y-93238000D03*
X149337000Y-93238000D03*
X153655000Y-93238000D03*
X158100000Y-93238000D03*
X110237500Y-111434500D03*
X137387500Y-111434500D03*
X108172952Y-111984510D03*
X135322952Y-111984510D03*
X109729500Y-113339500D03*
X136879500Y-113339500D03*
X112523500Y-112641000D03*
X139673500Y-112641000D03*
X114047500Y-113530000D03*
X141197500Y-113530000D03*
X115254000Y-111498000D03*
X142404000Y-111498000D03*
X118595000Y-112426000D03*
X145745000Y-112426000D03*
X117476498Y-109783500D03*
X144626498Y-109783500D03*
X119995010Y-111933603D03*
X147145010Y-111933603D03*
D13*
X104338991Y-89849009D02*
X103871000Y-90317000D01*
X107594009Y-89849009D02*
X104338991Y-89849009D01*
X107935000Y-90190000D02*
X107594009Y-89849009D01*
X110221000Y-90190000D02*
X107935000Y-90190000D01*
X112041001Y-90867001D02*
X112126000Y-90952000D01*
X110898001Y-90867001D02*
X112041001Y-90867001D01*
X110221000Y-90190000D02*
X110898001Y-90867001D01*
X115936000Y-94762000D02*
X115174000Y-94000000D01*
X115174000Y-94000000D02*
X111618000Y-94000000D01*
X109289999Y-94677001D02*
X107935000Y-96032000D01*
X110940999Y-94677001D02*
X109289999Y-94677001D01*
X111618000Y-94000000D02*
X110940999Y-94677001D01*
X115936000Y-95905000D02*
X115936000Y-94762000D01*
X106866998Y-96032000D02*
X107935000Y-96032000D01*
X106792000Y-96032000D02*
X106866998Y-96032000D01*
X103998000Y-93238000D02*
X106792000Y-96032000D01*
X105066002Y-95651000D02*
X106336002Y-96921000D01*
X103871000Y-95651000D02*
X105066002Y-95651000D01*
X106336002Y-96921000D02*
X107554000Y-96921000D01*
X107892999Y-96582001D02*
X108400999Y-96582001D01*
X107554000Y-96921000D02*
X107892999Y-96582001D01*
X109247001Y-95735999D02*
X111956999Y-95735999D01*
X111956999Y-95735999D02*
X112253000Y-96032000D01*
X108400999Y-96582001D02*
X109247001Y-95735999D01*
X102870989Y-89866599D02*
X102870989Y-90840989D01*
X104113589Y-88623999D02*
X102870989Y-89866599D01*
X105024001Y-88623999D02*
X104113589Y-88623999D01*
X105235003Y-88835001D02*
X105024001Y-88623999D01*
X106113589Y-88835001D02*
X105235003Y-88835001D01*
X106478600Y-88469990D02*
X106113589Y-88835001D01*
X109389990Y-88469990D02*
X106478600Y-88469990D01*
X109586000Y-88666000D02*
X109389990Y-88469990D01*
X103447999Y-95227999D02*
X103871000Y-95651000D01*
X103447999Y-91417999D02*
X103447999Y-95227999D01*
X102870989Y-90840989D02*
X103447999Y-91417999D01*
X109904198Y-88666000D02*
X109962188Y-88608010D01*
X109586000Y-88666000D02*
X109904198Y-88666000D01*
X109962188Y-88608010D02*
X112905008Y-88608010D01*
X113512999Y-89216001D02*
X114041001Y-89216001D01*
X114943001Y-88314001D02*
X116727001Y-88314001D01*
X114041001Y-89216001D02*
X114943001Y-88314001D01*
X116727001Y-88314001D02*
X116952000Y-88539000D01*
X112905008Y-88608010D02*
X113512999Y-89216001D01*
X109285000Y-106545000D02*
X106110000Y-109720000D01*
X106110000Y-109720000D02*
X106110000Y-109783500D01*
X136435000Y-106545000D02*
X133260000Y-109720000D01*
X133260000Y-109720000D02*
X133260000Y-109783500D01*
X113269000Y-88158000D02*
X113777000Y-88666000D01*
X116507500Y-90825000D02*
X116888500Y-91206000D01*
X112126000Y-88158000D02*
X112126000Y-86634000D01*
X113269000Y-88158000D02*
X112126000Y-88158000D01*
X106157000Y-87904000D02*
X105776000Y-88285000D01*
X111872000Y-87904000D02*
X106157000Y-87904000D01*
X112126000Y-88158000D02*
X111872000Y-87904000D01*
X116888500Y-91206000D02*
X115914510Y-90232010D01*
X115914510Y-90232010D02*
X115809000Y-90232010D01*
X109247001Y-91502001D02*
X114539009Y-91502001D01*
X114539009Y-91502001D02*
X115809000Y-90232010D01*
X108951000Y-91206000D02*
X109247001Y-91502001D01*
X138542000Y-97810000D02*
X134822824Y-97810000D01*
X134822824Y-97810000D02*
X134557802Y-97544978D01*
X134557802Y-97544978D02*
X129787200Y-97544978D01*
X129787200Y-97544978D02*
X129591189Y-97740989D01*
X125080000Y-97810000D02*
X123683000Y-99207000D01*
X127618589Y-97810000D02*
X125080000Y-97810000D01*
X129591189Y-97740989D02*
X127687600Y-97740989D01*
X123683000Y-99207000D02*
X123683000Y-99842000D01*
X127687600Y-97740989D02*
X127618589Y-97810000D01*
X129973600Y-97994989D02*
X129777589Y-98191000D01*
X136129000Y-98445000D02*
X134821413Y-98445000D01*
X129777589Y-98191000D02*
X127874000Y-98191000D01*
X134371402Y-97994989D02*
X129973600Y-97994989D01*
X127874000Y-98191000D02*
X126223000Y-99842000D01*
X134821413Y-98445000D02*
X134371402Y-97994989D01*
X138171001Y-98995001D02*
X134735003Y-98995001D01*
X134185002Y-98445000D02*
X130160000Y-98445000D01*
X130160000Y-98445000D02*
X128763000Y-99842000D01*
X139229002Y-97937000D02*
X138171001Y-98995001D01*
X146416000Y-97937000D02*
X139229002Y-97937000D01*
X134735003Y-98995001D02*
X134185002Y-98445000D01*
X115301000Y-92222000D02*
X116190000Y-93111000D01*
X109205000Y-92222000D02*
X115301000Y-92222000D01*
X108316000Y-93111000D02*
X109205000Y-92222000D01*
X104199998Y-89174000D02*
X104760000Y-89174000D01*
X103320999Y-90052999D02*
X104199998Y-89174000D01*
X103320999Y-90581001D02*
X103320999Y-90052999D01*
X105850998Y-93111000D02*
X103320999Y-90581001D01*
X108316000Y-93111000D02*
X105850998Y-93111000D01*
X112591999Y-89216001D02*
X112634000Y-89174000D01*
X106186001Y-89398999D02*
X106665000Y-88920000D01*
X104760000Y-89174000D02*
X104984999Y-89398999D01*
X104984999Y-89398999D02*
X106186001Y-89398999D01*
X109321999Y-89216001D02*
X112591999Y-89216001D01*
X106665000Y-88920000D02*
X109025998Y-88920000D01*
X109025998Y-88920000D02*
X109321999Y-89216001D01*
X114365000Y-108121002D02*
X114365000Y-106545000D01*
X110501501Y-111984501D02*
X114365000Y-108121002D01*
X109433499Y-111984501D02*
X110501501Y-111984501D01*
X107697500Y-113720500D02*
X109433499Y-111984501D01*
X141515000Y-108121002D02*
X141515000Y-106545000D01*
X137651501Y-111984501D02*
X141515000Y-108121002D01*
X136583499Y-111984501D02*
X137651501Y-111984501D01*
X134847500Y-113720500D02*
X136583499Y-111984501D01*
X117639002Y-87777000D02*
X117639002Y-87067002D01*
X117639002Y-87067002D02*
X117206000Y-86634000D01*
X118645001Y-88782999D02*
X117639002Y-87777000D01*
X118645001Y-89512999D02*
X118645001Y-88782999D01*
X117841000Y-90317000D02*
X118645001Y-89512999D01*
X117841000Y-94127000D02*
X117841000Y-90317000D01*
X110983000Y-93238000D02*
X112761000Y-93238000D01*
X110094000Y-94127000D02*
X110983000Y-93238000D01*
X105776000Y-94127000D02*
X104887000Y-93238000D01*
X110094000Y-94127000D02*
X105776000Y-94127000D01*
X115502998Y-93238000D02*
X116391998Y-94127000D01*
X112761000Y-93238000D02*
X115502998Y-93238000D01*
X116391998Y-94127000D02*
X117841000Y-94127000D01*
X114597501Y-116528999D02*
X114361500Y-116765000D01*
X116905000Y-108767500D02*
X114597501Y-111074999D01*
X114597501Y-111074999D02*
X114597501Y-116528999D01*
X116905000Y-106545000D02*
X116905000Y-108767500D01*
X141747501Y-116528999D02*
X141511500Y-116765000D01*
X144055000Y-108767500D02*
X141747501Y-111074999D01*
X141747501Y-111074999D02*
X141747501Y-116528999D01*
X144055000Y-106545000D02*
X144055000Y-108767500D01*
X108316000Y-97175000D02*
X107877010Y-97613990D01*
X107877010Y-97613990D02*
X106012992Y-97613990D01*
X104887000Y-96487998D02*
X104887000Y-96286000D01*
X106012992Y-97613990D02*
X104887000Y-96487998D01*
X116147999Y-97132999D02*
X116190000Y-97175000D01*
X108316000Y-97175000D02*
X108754990Y-97613990D01*
X111814010Y-97613990D02*
X112126000Y-97302000D01*
X108754990Y-97613990D02*
X111814010Y-97613990D01*
X112350999Y-97077001D02*
X116092001Y-97077001D01*
X116092001Y-97077001D02*
X116190000Y-97175000D01*
X112126000Y-97302000D02*
X112350999Y-97077001D01*
X119619000Y-86761000D02*
X119746000Y-86634000D01*
X119619000Y-96719002D02*
X119619000Y-86761000D01*
X119163002Y-97175000D02*
X119619000Y-96719002D01*
X116190000Y-97175000D02*
X119163002Y-97175000D01*
X122556500Y-112514000D02*
X122556500Y-111434500D01*
X122556500Y-111434500D02*
X120810250Y-109688250D01*
X120810250Y-109688250D02*
X120778500Y-109656500D01*
X149706500Y-112514000D02*
X149706500Y-111434500D01*
X149706500Y-111434500D02*
X147960250Y-109688250D01*
X147960250Y-109688250D02*
X147928500Y-109656500D01*
X122159000Y-86634000D02*
X122286000Y-86634000D01*
X105268000Y-97683000D02*
X105649000Y-98064000D01*
X112507000Y-98064000D02*
X112888000Y-97683000D01*
X105649000Y-98064000D02*
X112507000Y-98064000D01*
X119066413Y-97907999D02*
X120069010Y-96905402D01*
X113112999Y-97907999D02*
X119066413Y-97907999D01*
X112888000Y-97683000D02*
X113112999Y-97907999D01*
X120069010Y-89231990D02*
X120381000Y-88920000D01*
X118052999Y-89089001D02*
X118095000Y-89047000D01*
X117036999Y-89089001D02*
X118052999Y-89089001D01*
X116571000Y-89555000D02*
X117036999Y-89089001D01*
X115301000Y-89555000D02*
X116571000Y-89555000D01*
X114539000Y-90317000D02*
X115301000Y-89555000D01*
X111237000Y-90317000D02*
X114539000Y-90317000D01*
X120069010Y-96905402D02*
X120069010Y-89231990D01*
X133843000Y-99842000D02*
X138034000Y-99842000D01*
X139261990Y-98614010D02*
X147559000Y-98614010D01*
X138034000Y-99842000D02*
X139261990Y-98614010D01*
X154860802Y-98614010D02*
X150099000Y-98614010D01*
X155179000Y-98614010D02*
X154860802Y-98614010D01*
X111406001Y-96582001D02*
X118899989Y-96582001D01*
X118899989Y-96582001D02*
X119068990Y-96413000D01*
X119111000Y-88285000D02*
X119111000Y-96370990D01*
X111110000Y-96286000D02*
X111406001Y-96582001D01*
X119111000Y-96370990D02*
X119068990Y-96413000D01*
X118730000Y-87904000D02*
X119111000Y-88285000D01*
X123429000Y-88031000D02*
X124826000Y-86634000D01*
X120381000Y-88031000D02*
X123429000Y-88031000D01*
X108062000Y-89470010D02*
X108315991Y-89724001D01*
X114495589Y-89724001D02*
X115214600Y-89004990D01*
X115214600Y-89004990D02*
X116182084Y-89004990D01*
X108315991Y-89724001D02*
X114495589Y-89724001D01*
X122175500Y-108894500D02*
X124525000Y-106545000D01*
X118302000Y-108894500D02*
X122175500Y-108894500D01*
X111240922Y-112855576D02*
X111240922Y-113659554D01*
X115196249Y-108900249D02*
X111240922Y-112855576D01*
X149325500Y-108894500D02*
X151675000Y-106545000D01*
X145452000Y-108894500D02*
X149325500Y-108894500D01*
X138390922Y-112855576D02*
X138390922Y-113659554D01*
X142346249Y-108900249D02*
X138390922Y-112855576D01*
X123429000Y-90063000D02*
X127747000Y-90063000D01*
X127747000Y-90063000D02*
X132065000Y-90063000D01*
X132065000Y-90063000D02*
X134605000Y-90063000D01*
X134605000Y-90063000D02*
X135494000Y-89174000D01*
X135494000Y-87777000D02*
X135494000Y-89174000D01*
X136637000Y-86634000D02*
X135494000Y-87777000D01*
X141209000Y-86634000D02*
X136637000Y-86634000D01*
X127323999Y-92687999D02*
X127747000Y-93111000D01*
X123852001Y-92687999D02*
X127323999Y-92687999D01*
X123429000Y-93111000D02*
X123852001Y-92687999D01*
X127747000Y-93111000D02*
X128170001Y-92687999D01*
X131768999Y-92687999D02*
X132065000Y-92984000D01*
X128170001Y-92687999D02*
X131768999Y-92687999D01*
X132361001Y-92687999D02*
X132065000Y-92984000D01*
X132742001Y-92687999D02*
X132869001Y-92687999D01*
X132869001Y-92687999D02*
X132361001Y-92687999D01*
X136623991Y-92108009D02*
X136623991Y-89906999D01*
X143749000Y-86634000D02*
X142225000Y-88158000D01*
X136623991Y-89906999D02*
X136848990Y-89682000D01*
X132869001Y-92687999D02*
X136044001Y-92687999D01*
X136848990Y-88835010D02*
X136848990Y-89682000D01*
X136044001Y-92687999D02*
X136623991Y-92108009D01*
X137526000Y-88158000D02*
X136848990Y-88835010D01*
X142225000Y-88158000D02*
X137526000Y-88158000D01*
X127874000Y-96159000D02*
X128001000Y-96032000D01*
X123683000Y-96159000D02*
X127874000Y-96159000D01*
X136345947Y-95994947D02*
X132446000Y-95994947D01*
X136510000Y-96159000D02*
X136345947Y-95994947D01*
X128001000Y-96032000D02*
X128038053Y-95994947D01*
X128038053Y-95994947D02*
X132446000Y-95994947D01*
X146797000Y-88666000D02*
X148829000Y-86634000D01*
X138161000Y-88666000D02*
X146797000Y-88666000D01*
X137399000Y-90751412D02*
X137399000Y-89428000D01*
X137145000Y-91005412D02*
X137399000Y-90751412D01*
X137145000Y-96604198D02*
X137145000Y-91005412D01*
X136574198Y-97175000D02*
X137145000Y-96604198D01*
X137399000Y-89428000D02*
X138161000Y-88666000D01*
X136256000Y-97175000D02*
X136574198Y-97175000D01*
X123175000Y-97048000D02*
X123481953Y-96741047D01*
X123481953Y-96741047D02*
X127491825Y-96741047D01*
X136256000Y-97175000D02*
X135525966Y-96444966D01*
X133451998Y-96444966D02*
X133352007Y-96544957D01*
X135525966Y-96444966D02*
X133451998Y-96444966D01*
X127491825Y-96741047D02*
X127591895Y-96640977D01*
X127591895Y-96640977D02*
X131714980Y-96640977D01*
X133352007Y-96544957D02*
X131811000Y-96544957D01*
X131714980Y-96640977D02*
X131811000Y-96544957D01*
X120762000Y-97810000D02*
X124311402Y-97810000D01*
X124311402Y-97810000D02*
X124755452Y-97365950D01*
X124755452Y-97365950D02*
X124761413Y-97359989D01*
X127432189Y-97359989D02*
X127501200Y-97290978D01*
X124761413Y-97359989D02*
X127432189Y-97359989D01*
X127501200Y-97290978D02*
X129171001Y-97290978D01*
X129171001Y-97290978D02*
X129271000Y-97190979D01*
X133616001Y-97094967D02*
X133716000Y-96994968D01*
X129367012Y-97094967D02*
X133616001Y-97094967D01*
X129271000Y-97190979D02*
X129367012Y-97094967D01*
X121651000Y-92095000D02*
X125969000Y-92095000D01*
X125969000Y-92095000D02*
X130287000Y-92095000D01*
X130287000Y-92095000D02*
X134605000Y-92095000D01*
X134605000Y-92095000D02*
X136044001Y-90655999D01*
X136044001Y-89385999D02*
X136256000Y-89174000D01*
X136044001Y-90655999D02*
X136044001Y-89385999D01*
X124529999Y-93661001D02*
X124953000Y-93238000D01*
X121058001Y-93661001D02*
X124529999Y-93661001D01*
X120635000Y-93238000D02*
X121058001Y-93661001D01*
X125376001Y-93661001D02*
X128847999Y-93661001D01*
X128847999Y-93661001D02*
X129271000Y-93238000D01*
X124953000Y-93238000D02*
X125376001Y-93661001D01*
X133419999Y-93534001D02*
X133716000Y-93238000D01*
X129567001Y-93534001D02*
X133419999Y-93534001D01*
X129271000Y-93238000D02*
X129567001Y-93534001D01*
X129144000Y-85237000D02*
X155052000Y-85237000D01*
X124868001Y-89512999D02*
X129144000Y-85237000D01*
X122328001Y-89512999D02*
X124868001Y-89512999D01*
X120635000Y-91206000D02*
X122328001Y-89512999D01*
X155052000Y-85237000D02*
X156449000Y-86634000D01*
X120635000Y-93238000D02*
X120635000Y-91206000D01*
X140701000Y-90063000D02*
X145146000Y-90063000D01*
X145146000Y-90063000D02*
X149464000Y-90063000D01*
X149464000Y-90063000D02*
X153782000Y-90063000D01*
X153782000Y-90063000D02*
X158100000Y-90063000D01*
X139685000Y-92222000D02*
X144003000Y-92222000D01*
X148448000Y-92095000D02*
X152766000Y-92095000D01*
X157084000Y-92095000D02*
X157211000Y-92222000D01*
X152766000Y-92095000D02*
X157084000Y-92095000D01*
X144003000Y-92222000D02*
X145908000Y-92222000D01*
X148321000Y-92222000D02*
X148448000Y-92095000D01*
X145908000Y-92222000D02*
X148321000Y-92222000D01*
X141209000Y-96032000D02*
X145527000Y-96032000D01*
X145527000Y-96032000D02*
X149845000Y-96032000D01*
X158608000Y-96032000D02*
X153948327Y-96032000D01*
X153785653Y-96032000D02*
X153866990Y-96113337D01*
X149845000Y-96032000D02*
X153785653Y-96032000D01*
X153948327Y-96032000D02*
X153866990Y-96113337D01*
X140701000Y-96624990D02*
X145019000Y-96624990D01*
X145019000Y-96624990D02*
X149337000Y-96624990D01*
X149337000Y-97937000D02*
X148829000Y-98445000D01*
X157211000Y-97937000D02*
X149337000Y-97937000D01*
X148829000Y-98445000D02*
X148829000Y-99842000D01*
X158100000Y-97048000D02*
X157211000Y-97937000D01*
X153648567Y-96624990D02*
X153781245Y-96757668D01*
X149337000Y-96624990D02*
X153648567Y-96624990D01*
X157809668Y-96757668D02*
X153781245Y-96757668D01*
X158100000Y-97048000D02*
X157809668Y-96757668D01*
X142606000Y-97175000D02*
X142352000Y-97175000D01*
X146670000Y-97175000D02*
X142606000Y-97175000D01*
X137962853Y-97175000D02*
X137877863Y-97259990D01*
X142352000Y-97175000D02*
X137962853Y-97175000D01*
X155241802Y-97386990D02*
X151115000Y-97386990D01*
X155560000Y-97386990D02*
X155241802Y-97386990D01*
X150903010Y-97175000D02*
X151115000Y-97386990D01*
X146670000Y-97175000D02*
X150903010Y-97175000D01*
X155009999Y-93788001D02*
X151411001Y-93788001D01*
X151411001Y-93788001D02*
X150988000Y-93365000D01*
X155433000Y-93365000D02*
X155009999Y-93788001D01*
X147093001Y-93788001D02*
X146670000Y-93365000D01*
X150564999Y-93788001D02*
X147093001Y-93788001D01*
X150988000Y-93365000D02*
X150564999Y-93788001D01*
X142775001Y-93788001D02*
X142352000Y-93365000D01*
X146246999Y-93788001D02*
X142775001Y-93788001D01*
X146670000Y-93365000D02*
X146246999Y-93788001D01*
X138584001Y-93788001D02*
X137907000Y-93111000D01*
X141928999Y-93788001D02*
X138584001Y-93788001D01*
X142352000Y-93365000D02*
X141928999Y-93788001D01*
X144595999Y-92814999D02*
X145019000Y-93238000D01*
X140997001Y-92814999D02*
X144595999Y-92814999D01*
X140574000Y-93238000D02*
X140997001Y-92814999D01*
X148913999Y-92814999D02*
X149337000Y-93238000D01*
X145442001Y-92814999D02*
X148913999Y-92814999D01*
X145019000Y-93238000D02*
X145442001Y-92814999D01*
X153231999Y-92814999D02*
X153655000Y-93238000D01*
X149760001Y-92814999D02*
X153231999Y-92814999D01*
X149337000Y-93238000D02*
X149760001Y-92814999D01*
X157676999Y-92814999D02*
X158100000Y-93238000D01*
X154078001Y-92814999D02*
X157676999Y-92814999D01*
X153655000Y-93238000D02*
X154078001Y-92814999D01*
X156449000Y-99842000D02*
X158227000Y-99842000D01*
X158227000Y-99842000D02*
X159497000Y-98572000D01*
X159497000Y-94635000D02*
X158100000Y-93238000D01*
X159497000Y-98572000D02*
X159497000Y-94635000D01*
X104205000Y-109021500D02*
X104205000Y-106545000D01*
X106618000Y-111434500D02*
X104205000Y-109021500D01*
X110237500Y-111434500D02*
X106618000Y-111434500D01*
X131355000Y-109021500D02*
X131355000Y-106545000D01*
X133768000Y-111434500D02*
X131355000Y-109021500D01*
X137387500Y-111434500D02*
X133768000Y-111434500D01*
X104205000Y-115952462D02*
X108172952Y-111984510D01*
X104205000Y-120515000D02*
X104205000Y-115952462D01*
X131355000Y-115952462D02*
X135322952Y-111984510D01*
X131355000Y-120515000D02*
X131355000Y-115952462D01*
X106745000Y-120515000D02*
X106745000Y-116324000D01*
X106745000Y-116324000D02*
X109729500Y-113339500D01*
X133895000Y-120515000D02*
X133895000Y-116324000D01*
X133895000Y-116324000D02*
X136879500Y-113339500D01*
X112523500Y-113190980D02*
X112523500Y-112641000D01*
X109285000Y-116429480D02*
X112523500Y-113190980D01*
X109285000Y-120515000D02*
X109285000Y-116429480D01*
X139673500Y-113190980D02*
X139673500Y-112641000D01*
X136435000Y-116429480D02*
X139673500Y-113190980D01*
X136435000Y-120515000D02*
X136435000Y-116429480D01*
X111825000Y-120515000D02*
X111825000Y-115752500D01*
X111825000Y-115752500D02*
X114047500Y-113530000D01*
X138975000Y-120515000D02*
X138975000Y-115752500D01*
X138975000Y-115752500D02*
X141197500Y-113530000D01*
X115254000Y-119626000D02*
X114365000Y-120515000D01*
X115254000Y-111498000D02*
X115254000Y-119626000D01*
X142404000Y-119626000D02*
X141515000Y-120515000D01*
X142404000Y-111498000D02*
X142404000Y-119626000D01*
X118595000Y-118825000D02*
X116905000Y-120515000D01*
X118595000Y-112426000D02*
X118595000Y-118825000D01*
X145745000Y-118825000D02*
X144055000Y-120515000D01*
X145745000Y-112426000D02*
X145745000Y-118825000D01*
X117476500Y-109783500D02*
X117476498Y-109783500D01*
X119445000Y-120515000D02*
X119445000Y-111752000D01*
X119445000Y-111752000D02*
X117476500Y-109783500D01*
X144626500Y-109783500D02*
X144626498Y-109783500D01*
X146595000Y-120515000D02*
X146595000Y-111752000D01*
X146595000Y-111752000D02*
X144626500Y-109783500D01*
X121985000Y-120515000D02*
X121985000Y-113923593D01*
X121985000Y-113923593D02*
X119995010Y-111933603D01*
X149135000Y-120515000D02*
X149135000Y-113923593D01*
X149135000Y-113923593D02*
X147145010Y-111933603D01*
M02*
