G04 #@! TF.GenerationSoftware,KiCad,Pcbnew,(5.1.9)-1*
G04 #@! TF.CreationDate,2021-05-14T22:58:58-04:00*
G04 #@! TF.ProjectId,Scratch+Com Panelized,53637261-7463-4682-9b43-6f6d2050616e,rev?*
G04 #@! TF.SameCoordinates,Original*
G04 #@! TF.FileFunction,Legend,Bot*
G04 #@! TF.FilePolarity,Positive*
%FSLAX46Y46*%
G04 Gerber Fmt 4.6, Leading zero omitted, Abs format (unit mm)*
G04 Created by KiCad (PCBNEW (5.1.9)-1) date 2021-05-14 22:58:58*
%MOMM*%
%LPD*%
G01*
G04 APERTURE LIST*
%ADD10C,0.120000*%
%ADD11C,0.110000*%
%ADD12C,0.150000*%
%ADD13C,0.200000*%
G04 APERTURE END LIST*
D10*
X146531857Y-88096285D02*
X146560428Y-88182000D01*
X146560428Y-88324857D01*
X146531857Y-88382000D01*
X146503285Y-88410571D01*
X146446142Y-88439142D01*
X146389000Y-88439142D01*
X146331857Y-88410571D01*
X146303285Y-88382000D01*
X146274714Y-88324857D01*
X146246142Y-88210571D01*
X146217571Y-88153428D01*
X146189000Y-88124857D01*
X146131857Y-88096285D01*
X146074714Y-88096285D01*
X146017571Y-88124857D01*
X145989000Y-88153428D01*
X145960428Y-88210571D01*
X145960428Y-88353428D01*
X145989000Y-88439142D01*
X146246142Y-88696285D02*
X146246142Y-88896285D01*
X146560428Y-88982000D02*
X146560428Y-88696285D01*
X145960428Y-88696285D01*
X145960428Y-88982000D01*
X145989000Y-89553428D02*
X145960428Y-89496285D01*
X145960428Y-89410571D01*
X145989000Y-89324857D01*
X146046142Y-89267714D01*
X146103285Y-89239142D01*
X146217571Y-89210571D01*
X146303285Y-89210571D01*
X146417571Y-89239142D01*
X146474714Y-89267714D01*
X146531857Y-89324857D01*
X146560428Y-89410571D01*
X146560428Y-89467714D01*
X146531857Y-89553428D01*
X146503285Y-89582000D01*
X146303285Y-89582000D01*
X146303285Y-89467714D01*
X146503285Y-90182000D02*
X146531857Y-90153428D01*
X146560428Y-90067714D01*
X146560428Y-90010571D01*
X146531857Y-89924857D01*
X146474714Y-89867714D01*
X146417571Y-89839142D01*
X146303285Y-89810571D01*
X146217571Y-89810571D01*
X146103285Y-89839142D01*
X146046142Y-89867714D01*
X145989000Y-89924857D01*
X145960428Y-90010571D01*
X145960428Y-90067714D01*
X145989000Y-90153428D01*
X146017571Y-90182000D01*
X146017571Y-90410571D02*
X145989000Y-90439142D01*
X145960428Y-90496285D01*
X145960428Y-90639142D01*
X145989000Y-90696285D01*
X146017571Y-90724857D01*
X146074714Y-90753428D01*
X146131857Y-90753428D01*
X146217571Y-90724857D01*
X146560428Y-90382000D01*
X146560428Y-90753428D01*
X156691857Y-88096285D02*
X156720428Y-88182000D01*
X156720428Y-88324857D01*
X156691857Y-88382000D01*
X156663285Y-88410571D01*
X156606142Y-88439142D01*
X156549000Y-88439142D01*
X156491857Y-88410571D01*
X156463285Y-88382000D01*
X156434714Y-88324857D01*
X156406142Y-88210571D01*
X156377571Y-88153428D01*
X156349000Y-88124857D01*
X156291857Y-88096285D01*
X156234714Y-88096285D01*
X156177571Y-88124857D01*
X156149000Y-88153428D01*
X156120428Y-88210571D01*
X156120428Y-88353428D01*
X156149000Y-88439142D01*
X156406142Y-88696285D02*
X156406142Y-88896285D01*
X156720428Y-88982000D02*
X156720428Y-88696285D01*
X156120428Y-88696285D01*
X156120428Y-88982000D01*
X156149000Y-89553428D02*
X156120428Y-89496285D01*
X156120428Y-89410571D01*
X156149000Y-89324857D01*
X156206142Y-89267714D01*
X156263285Y-89239142D01*
X156377571Y-89210571D01*
X156463285Y-89210571D01*
X156577571Y-89239142D01*
X156634714Y-89267714D01*
X156691857Y-89324857D01*
X156720428Y-89410571D01*
X156720428Y-89467714D01*
X156691857Y-89553428D01*
X156663285Y-89582000D01*
X156463285Y-89582000D01*
X156463285Y-89467714D01*
X156149000Y-90153428D02*
X156120428Y-90096285D01*
X156120428Y-90010571D01*
X156149000Y-89924857D01*
X156206142Y-89867714D01*
X156263285Y-89839142D01*
X156377571Y-89810571D01*
X156463285Y-89810571D01*
X156577571Y-89839142D01*
X156634714Y-89867714D01*
X156691857Y-89924857D01*
X156720428Y-90010571D01*
X156720428Y-90067714D01*
X156691857Y-90153428D01*
X156663285Y-90182000D01*
X156463285Y-90182000D01*
X156463285Y-90067714D01*
X156177571Y-90410571D02*
X156149000Y-90439142D01*
X156120428Y-90496285D01*
X156120428Y-90639142D01*
X156149000Y-90696285D01*
X156177571Y-90724857D01*
X156234714Y-90753428D01*
X156291857Y-90753428D01*
X156377571Y-90724857D01*
X156720428Y-90382000D01*
X156720428Y-90753428D01*
X154151857Y-88096285D02*
X154180428Y-88182000D01*
X154180428Y-88324857D01*
X154151857Y-88382000D01*
X154123285Y-88410571D01*
X154066142Y-88439142D01*
X154009000Y-88439142D01*
X153951857Y-88410571D01*
X153923285Y-88382000D01*
X153894714Y-88324857D01*
X153866142Y-88210571D01*
X153837571Y-88153428D01*
X153809000Y-88124857D01*
X153751857Y-88096285D01*
X153694714Y-88096285D01*
X153637571Y-88124857D01*
X153609000Y-88153428D01*
X153580428Y-88210571D01*
X153580428Y-88353428D01*
X153609000Y-88439142D01*
X153866142Y-88696285D02*
X153866142Y-88896285D01*
X154180428Y-88982000D02*
X154180428Y-88696285D01*
X153580428Y-88696285D01*
X153580428Y-88982000D01*
X153609000Y-89553428D02*
X153580428Y-89496285D01*
X153580428Y-89410571D01*
X153609000Y-89324857D01*
X153666142Y-89267714D01*
X153723285Y-89239142D01*
X153837571Y-89210571D01*
X153923285Y-89210571D01*
X154037571Y-89239142D01*
X154094714Y-89267714D01*
X154151857Y-89324857D01*
X154180428Y-89410571D01*
X154180428Y-89467714D01*
X154151857Y-89553428D01*
X154123285Y-89582000D01*
X153923285Y-89582000D01*
X153923285Y-89467714D01*
X153866142Y-90039142D02*
X153866142Y-89839142D01*
X154180428Y-89839142D02*
X153580428Y-89839142D01*
X153580428Y-90124857D01*
X153637571Y-90324857D02*
X153609000Y-90353428D01*
X153580428Y-90410571D01*
X153580428Y-90553428D01*
X153609000Y-90610571D01*
X153637571Y-90639142D01*
X153694714Y-90667714D01*
X153751857Y-90667714D01*
X153837571Y-90639142D01*
X154180428Y-90296285D01*
X154180428Y-90667714D01*
X143991857Y-88096285D02*
X144020428Y-88182000D01*
X144020428Y-88324857D01*
X143991857Y-88382000D01*
X143963285Y-88410571D01*
X143906142Y-88439142D01*
X143849000Y-88439142D01*
X143791857Y-88410571D01*
X143763285Y-88382000D01*
X143734714Y-88324857D01*
X143706142Y-88210571D01*
X143677571Y-88153428D01*
X143649000Y-88124857D01*
X143591857Y-88096285D01*
X143534714Y-88096285D01*
X143477571Y-88124857D01*
X143449000Y-88153428D01*
X143420428Y-88210571D01*
X143420428Y-88353428D01*
X143449000Y-88439142D01*
X143706142Y-88696285D02*
X143706142Y-88896285D01*
X144020428Y-88982000D02*
X144020428Y-88696285D01*
X143420428Y-88696285D01*
X143420428Y-88982000D01*
X143449000Y-89553428D02*
X143420428Y-89496285D01*
X143420428Y-89410571D01*
X143449000Y-89324857D01*
X143506142Y-89267714D01*
X143563285Y-89239142D01*
X143677571Y-89210571D01*
X143763285Y-89210571D01*
X143877571Y-89239142D01*
X143934714Y-89267714D01*
X143991857Y-89324857D01*
X144020428Y-89410571D01*
X144020428Y-89467714D01*
X143991857Y-89553428D01*
X143963285Y-89582000D01*
X143763285Y-89582000D01*
X143763285Y-89467714D01*
X143706142Y-90039142D02*
X143734714Y-90124857D01*
X143763285Y-90153428D01*
X143820428Y-90182000D01*
X143906142Y-90182000D01*
X143963285Y-90153428D01*
X143991857Y-90124857D01*
X144020428Y-90067714D01*
X144020428Y-89839142D01*
X143420428Y-89839142D01*
X143420428Y-90039142D01*
X143449000Y-90096285D01*
X143477571Y-90124857D01*
X143534714Y-90153428D01*
X143591857Y-90153428D01*
X143649000Y-90124857D01*
X143677571Y-90096285D01*
X143706142Y-90039142D01*
X143706142Y-89839142D01*
X143477571Y-90410571D02*
X143449000Y-90439142D01*
X143420428Y-90496285D01*
X143420428Y-90639142D01*
X143449000Y-90696285D01*
X143477571Y-90724857D01*
X143534714Y-90753428D01*
X143591857Y-90753428D01*
X143677571Y-90724857D01*
X144020428Y-90382000D01*
X144020428Y-90753428D01*
X149071857Y-88096285D02*
X149100428Y-88182000D01*
X149100428Y-88324857D01*
X149071857Y-88382000D01*
X149043285Y-88410571D01*
X148986142Y-88439142D01*
X148929000Y-88439142D01*
X148871857Y-88410571D01*
X148843285Y-88382000D01*
X148814714Y-88324857D01*
X148786142Y-88210571D01*
X148757571Y-88153428D01*
X148729000Y-88124857D01*
X148671857Y-88096285D01*
X148614714Y-88096285D01*
X148557571Y-88124857D01*
X148529000Y-88153428D01*
X148500428Y-88210571D01*
X148500428Y-88353428D01*
X148529000Y-88439142D01*
X148786142Y-88696285D02*
X148786142Y-88896285D01*
X149100428Y-88982000D02*
X149100428Y-88696285D01*
X148500428Y-88696285D01*
X148500428Y-88982000D01*
X148529000Y-89553428D02*
X148500428Y-89496285D01*
X148500428Y-89410571D01*
X148529000Y-89324857D01*
X148586142Y-89267714D01*
X148643285Y-89239142D01*
X148757571Y-89210571D01*
X148843285Y-89210571D01*
X148957571Y-89239142D01*
X149014714Y-89267714D01*
X149071857Y-89324857D01*
X149100428Y-89410571D01*
X149100428Y-89467714D01*
X149071857Y-89553428D01*
X149043285Y-89582000D01*
X148843285Y-89582000D01*
X148843285Y-89467714D01*
X149100428Y-89839142D02*
X148500428Y-89839142D01*
X148500428Y-89982000D01*
X148529000Y-90067714D01*
X148586142Y-90124857D01*
X148643285Y-90153428D01*
X148757571Y-90182000D01*
X148843285Y-90182000D01*
X148957571Y-90153428D01*
X149014714Y-90124857D01*
X149071857Y-90067714D01*
X149100428Y-89982000D01*
X149100428Y-89839142D01*
X148557571Y-90410571D02*
X148529000Y-90439142D01*
X148500428Y-90496285D01*
X148500428Y-90639142D01*
X148529000Y-90696285D01*
X148557571Y-90724857D01*
X148614714Y-90753428D01*
X148671857Y-90753428D01*
X148757571Y-90724857D01*
X149100428Y-90382000D01*
X149100428Y-90753428D01*
X141451857Y-88096285D02*
X141480428Y-88182000D01*
X141480428Y-88324857D01*
X141451857Y-88382000D01*
X141423285Y-88410571D01*
X141366142Y-88439142D01*
X141309000Y-88439142D01*
X141251857Y-88410571D01*
X141223285Y-88382000D01*
X141194714Y-88324857D01*
X141166142Y-88210571D01*
X141137571Y-88153428D01*
X141109000Y-88124857D01*
X141051857Y-88096285D01*
X140994714Y-88096285D01*
X140937571Y-88124857D01*
X140909000Y-88153428D01*
X140880428Y-88210571D01*
X140880428Y-88353428D01*
X140909000Y-88439142D01*
X141166142Y-88696285D02*
X141166142Y-88896285D01*
X141480428Y-88982000D02*
X141480428Y-88696285D01*
X140880428Y-88696285D01*
X140880428Y-88982000D01*
X140909000Y-89553428D02*
X140880428Y-89496285D01*
X140880428Y-89410571D01*
X140909000Y-89324857D01*
X140966142Y-89267714D01*
X141023285Y-89239142D01*
X141137571Y-89210571D01*
X141223285Y-89210571D01*
X141337571Y-89239142D01*
X141394714Y-89267714D01*
X141451857Y-89324857D01*
X141480428Y-89410571D01*
X141480428Y-89467714D01*
X141451857Y-89553428D01*
X141423285Y-89582000D01*
X141223285Y-89582000D01*
X141223285Y-89467714D01*
X141309000Y-89810571D02*
X141309000Y-90096285D01*
X141480428Y-89753428D02*
X140880428Y-89953428D01*
X141480428Y-90153428D01*
X140937571Y-90324857D02*
X140909000Y-90353428D01*
X140880428Y-90410571D01*
X140880428Y-90553428D01*
X140909000Y-90610571D01*
X140937571Y-90639142D01*
X140994714Y-90667714D01*
X141051857Y-90667714D01*
X141137571Y-90639142D01*
X141480428Y-90296285D01*
X141480428Y-90667714D01*
X151611857Y-88096285D02*
X151640428Y-88182000D01*
X151640428Y-88324857D01*
X151611857Y-88382000D01*
X151583285Y-88410571D01*
X151526142Y-88439142D01*
X151469000Y-88439142D01*
X151411857Y-88410571D01*
X151383285Y-88382000D01*
X151354714Y-88324857D01*
X151326142Y-88210571D01*
X151297571Y-88153428D01*
X151269000Y-88124857D01*
X151211857Y-88096285D01*
X151154714Y-88096285D01*
X151097571Y-88124857D01*
X151069000Y-88153428D01*
X151040428Y-88210571D01*
X151040428Y-88353428D01*
X151069000Y-88439142D01*
X151326142Y-88696285D02*
X151326142Y-88896285D01*
X151640428Y-88982000D02*
X151640428Y-88696285D01*
X151040428Y-88696285D01*
X151040428Y-88982000D01*
X151069000Y-89553428D02*
X151040428Y-89496285D01*
X151040428Y-89410571D01*
X151069000Y-89324857D01*
X151126142Y-89267714D01*
X151183285Y-89239142D01*
X151297571Y-89210571D01*
X151383285Y-89210571D01*
X151497571Y-89239142D01*
X151554714Y-89267714D01*
X151611857Y-89324857D01*
X151640428Y-89410571D01*
X151640428Y-89467714D01*
X151611857Y-89553428D01*
X151583285Y-89582000D01*
X151383285Y-89582000D01*
X151383285Y-89467714D01*
X151326142Y-89839142D02*
X151326142Y-90039142D01*
X151640428Y-90124857D02*
X151640428Y-89839142D01*
X151040428Y-89839142D01*
X151040428Y-90124857D01*
X151097571Y-90353428D02*
X151069000Y-90382000D01*
X151040428Y-90439142D01*
X151040428Y-90582000D01*
X151069000Y-90639142D01*
X151097571Y-90667714D01*
X151154714Y-90696285D01*
X151211857Y-90696285D01*
X151297571Y-90667714D01*
X151640428Y-90324857D01*
X151640428Y-90696285D01*
X156206142Y-98379714D02*
X156177571Y-98294000D01*
X156177571Y-98151142D01*
X156206142Y-98094000D01*
X156234714Y-98065428D01*
X156291857Y-98036857D01*
X156349000Y-98036857D01*
X156406142Y-98065428D01*
X156434714Y-98094000D01*
X156463285Y-98151142D01*
X156491857Y-98265428D01*
X156520428Y-98322571D01*
X156549000Y-98351142D01*
X156606142Y-98379714D01*
X156663285Y-98379714D01*
X156720428Y-98351142D01*
X156749000Y-98322571D01*
X156777571Y-98265428D01*
X156777571Y-98122571D01*
X156749000Y-98036857D01*
X156491857Y-97779714D02*
X156491857Y-97579714D01*
X156177571Y-97494000D02*
X156177571Y-97779714D01*
X156777571Y-97779714D01*
X156777571Y-97494000D01*
X156749000Y-96922571D02*
X156777571Y-96979714D01*
X156777571Y-97065428D01*
X156749000Y-97151142D01*
X156691857Y-97208285D01*
X156634714Y-97236857D01*
X156520428Y-97265428D01*
X156434714Y-97265428D01*
X156320428Y-97236857D01*
X156263285Y-97208285D01*
X156206142Y-97151142D01*
X156177571Y-97065428D01*
X156177571Y-97008285D01*
X156206142Y-96922571D01*
X156234714Y-96894000D01*
X156434714Y-96894000D01*
X156434714Y-97008285D01*
X156177571Y-96636857D02*
X156777571Y-96636857D01*
X156777571Y-96408285D01*
X156749000Y-96351142D01*
X156720428Y-96322571D01*
X156663285Y-96294000D01*
X156577571Y-96294000D01*
X156520428Y-96322571D01*
X156491857Y-96351142D01*
X156463285Y-96408285D01*
X156463285Y-96636857D01*
X156720428Y-96065428D02*
X156749000Y-96036857D01*
X156777571Y-95979714D01*
X156777571Y-95836857D01*
X156749000Y-95779714D01*
X156720428Y-95751142D01*
X156663285Y-95722571D01*
X156606142Y-95722571D01*
X156520428Y-95751142D01*
X156177571Y-96094000D01*
X156177571Y-95722571D01*
X153666142Y-98379714D02*
X153637571Y-98294000D01*
X153637571Y-98151142D01*
X153666142Y-98094000D01*
X153694714Y-98065428D01*
X153751857Y-98036857D01*
X153809000Y-98036857D01*
X153866142Y-98065428D01*
X153894714Y-98094000D01*
X153923285Y-98151142D01*
X153951857Y-98265428D01*
X153980428Y-98322571D01*
X154009000Y-98351142D01*
X154066142Y-98379714D01*
X154123285Y-98379714D01*
X154180428Y-98351142D01*
X154209000Y-98322571D01*
X154237571Y-98265428D01*
X154237571Y-98122571D01*
X154209000Y-98036857D01*
X153951857Y-97779714D02*
X153951857Y-97579714D01*
X153637571Y-97494000D02*
X153637571Y-97779714D01*
X154237571Y-97779714D01*
X154237571Y-97494000D01*
X154209000Y-96922571D02*
X154237571Y-96979714D01*
X154237571Y-97065428D01*
X154209000Y-97151142D01*
X154151857Y-97208285D01*
X154094714Y-97236857D01*
X153980428Y-97265428D01*
X153894714Y-97265428D01*
X153780428Y-97236857D01*
X153723285Y-97208285D01*
X153666142Y-97151142D01*
X153637571Y-97065428D01*
X153637571Y-97008285D01*
X153666142Y-96922571D01*
X153694714Y-96894000D01*
X153894714Y-96894000D01*
X153894714Y-97008285D01*
X153637571Y-96636857D02*
X154237571Y-96636857D01*
X153637571Y-96294000D01*
X154237571Y-96294000D01*
X154180428Y-96036857D02*
X154209000Y-96008285D01*
X154237571Y-95951142D01*
X154237571Y-95808285D01*
X154209000Y-95751142D01*
X154180428Y-95722571D01*
X154123285Y-95694000D01*
X154066142Y-95694000D01*
X153980428Y-95722571D01*
X153637571Y-96065428D01*
X153637571Y-95694000D01*
X151126142Y-98379714D02*
X151097571Y-98294000D01*
X151097571Y-98151142D01*
X151126142Y-98094000D01*
X151154714Y-98065428D01*
X151211857Y-98036857D01*
X151269000Y-98036857D01*
X151326142Y-98065428D01*
X151354714Y-98094000D01*
X151383285Y-98151142D01*
X151411857Y-98265428D01*
X151440428Y-98322571D01*
X151469000Y-98351142D01*
X151526142Y-98379714D01*
X151583285Y-98379714D01*
X151640428Y-98351142D01*
X151669000Y-98322571D01*
X151697571Y-98265428D01*
X151697571Y-98122571D01*
X151669000Y-98036857D01*
X151411857Y-97779714D02*
X151411857Y-97579714D01*
X151097571Y-97494000D02*
X151097571Y-97779714D01*
X151697571Y-97779714D01*
X151697571Y-97494000D01*
X151669000Y-96922571D02*
X151697571Y-96979714D01*
X151697571Y-97065428D01*
X151669000Y-97151142D01*
X151611857Y-97208285D01*
X151554714Y-97236857D01*
X151440428Y-97265428D01*
X151354714Y-97265428D01*
X151240428Y-97236857D01*
X151183285Y-97208285D01*
X151126142Y-97151142D01*
X151097571Y-97065428D01*
X151097571Y-97008285D01*
X151126142Y-96922571D01*
X151154714Y-96894000D01*
X151354714Y-96894000D01*
X151354714Y-97008285D01*
X151097571Y-96636857D02*
X151697571Y-96636857D01*
X151269000Y-96436857D01*
X151697571Y-96236857D01*
X151097571Y-96236857D01*
X151640428Y-95979714D02*
X151669000Y-95951142D01*
X151697571Y-95894000D01*
X151697571Y-95751142D01*
X151669000Y-95694000D01*
X151640428Y-95665428D01*
X151583285Y-95636857D01*
X151526142Y-95636857D01*
X151440428Y-95665428D01*
X151097571Y-96008285D01*
X151097571Y-95636857D01*
X148586142Y-98379714D02*
X148557571Y-98294000D01*
X148557571Y-98151142D01*
X148586142Y-98094000D01*
X148614714Y-98065428D01*
X148671857Y-98036857D01*
X148729000Y-98036857D01*
X148786142Y-98065428D01*
X148814714Y-98094000D01*
X148843285Y-98151142D01*
X148871857Y-98265428D01*
X148900428Y-98322571D01*
X148929000Y-98351142D01*
X148986142Y-98379714D01*
X149043285Y-98379714D01*
X149100428Y-98351142D01*
X149129000Y-98322571D01*
X149157571Y-98265428D01*
X149157571Y-98122571D01*
X149129000Y-98036857D01*
X148871857Y-97779714D02*
X148871857Y-97579714D01*
X148557571Y-97494000D02*
X148557571Y-97779714D01*
X149157571Y-97779714D01*
X149157571Y-97494000D01*
X149129000Y-96922571D02*
X149157571Y-96979714D01*
X149157571Y-97065428D01*
X149129000Y-97151142D01*
X149071857Y-97208285D01*
X149014714Y-97236857D01*
X148900428Y-97265428D01*
X148814714Y-97265428D01*
X148700428Y-97236857D01*
X148643285Y-97208285D01*
X148586142Y-97151142D01*
X148557571Y-97065428D01*
X148557571Y-97008285D01*
X148586142Y-96922571D01*
X148614714Y-96894000D01*
X148814714Y-96894000D01*
X148814714Y-97008285D01*
X148557571Y-96351142D02*
X148557571Y-96636857D01*
X149157571Y-96636857D01*
X149100428Y-96179714D02*
X149129000Y-96151142D01*
X149157571Y-96094000D01*
X149157571Y-95951142D01*
X149129000Y-95894000D01*
X149100428Y-95865428D01*
X149043285Y-95836857D01*
X148986142Y-95836857D01*
X148900428Y-95865428D01*
X148557571Y-96208285D01*
X148557571Y-95836857D01*
X146046142Y-98379714D02*
X146017571Y-98294000D01*
X146017571Y-98151142D01*
X146046142Y-98094000D01*
X146074714Y-98065428D01*
X146131857Y-98036857D01*
X146189000Y-98036857D01*
X146246142Y-98065428D01*
X146274714Y-98094000D01*
X146303285Y-98151142D01*
X146331857Y-98265428D01*
X146360428Y-98322571D01*
X146389000Y-98351142D01*
X146446142Y-98379714D01*
X146503285Y-98379714D01*
X146560428Y-98351142D01*
X146589000Y-98322571D01*
X146617571Y-98265428D01*
X146617571Y-98122571D01*
X146589000Y-98036857D01*
X146331857Y-97779714D02*
X146331857Y-97579714D01*
X146017571Y-97494000D02*
X146017571Y-97779714D01*
X146617571Y-97779714D01*
X146617571Y-97494000D01*
X146589000Y-96922571D02*
X146617571Y-96979714D01*
X146617571Y-97065428D01*
X146589000Y-97151142D01*
X146531857Y-97208285D01*
X146474714Y-97236857D01*
X146360428Y-97265428D01*
X146274714Y-97265428D01*
X146160428Y-97236857D01*
X146103285Y-97208285D01*
X146046142Y-97151142D01*
X146017571Y-97065428D01*
X146017571Y-97008285D01*
X146046142Y-96922571D01*
X146074714Y-96894000D01*
X146274714Y-96894000D01*
X146274714Y-97008285D01*
X146017571Y-96636857D02*
X146617571Y-96636857D01*
X146017571Y-96294000D02*
X146360428Y-96551142D01*
X146617571Y-96294000D02*
X146274714Y-96636857D01*
X146560428Y-96065428D02*
X146589000Y-96036857D01*
X146617571Y-95979714D01*
X146617571Y-95836857D01*
X146589000Y-95779714D01*
X146560428Y-95751142D01*
X146503285Y-95722571D01*
X146446142Y-95722571D01*
X146360428Y-95751142D01*
X146017571Y-96094000D01*
X146017571Y-95722571D01*
X143506142Y-98379714D02*
X143477571Y-98294000D01*
X143477571Y-98151142D01*
X143506142Y-98094000D01*
X143534714Y-98065428D01*
X143591857Y-98036857D01*
X143649000Y-98036857D01*
X143706142Y-98065428D01*
X143734714Y-98094000D01*
X143763285Y-98151142D01*
X143791857Y-98265428D01*
X143820428Y-98322571D01*
X143849000Y-98351142D01*
X143906142Y-98379714D01*
X143963285Y-98379714D01*
X144020428Y-98351142D01*
X144049000Y-98322571D01*
X144077571Y-98265428D01*
X144077571Y-98122571D01*
X144049000Y-98036857D01*
X143791857Y-97779714D02*
X143791857Y-97579714D01*
X143477571Y-97494000D02*
X143477571Y-97779714D01*
X144077571Y-97779714D01*
X144077571Y-97494000D01*
X144049000Y-96922571D02*
X144077571Y-96979714D01*
X144077571Y-97065428D01*
X144049000Y-97151142D01*
X143991857Y-97208285D01*
X143934714Y-97236857D01*
X143820428Y-97265428D01*
X143734714Y-97265428D01*
X143620428Y-97236857D01*
X143563285Y-97208285D01*
X143506142Y-97151142D01*
X143477571Y-97065428D01*
X143477571Y-97008285D01*
X143506142Y-96922571D01*
X143534714Y-96894000D01*
X143734714Y-96894000D01*
X143734714Y-97008285D01*
X144077571Y-96465428D02*
X143649000Y-96465428D01*
X143563285Y-96494000D01*
X143506142Y-96551142D01*
X143477571Y-96636857D01*
X143477571Y-96694000D01*
X144020428Y-96208285D02*
X144049000Y-96179714D01*
X144077571Y-96122571D01*
X144077571Y-95979714D01*
X144049000Y-95922571D01*
X144020428Y-95894000D01*
X143963285Y-95865428D01*
X143906142Y-95865428D01*
X143820428Y-95894000D01*
X143477571Y-96236857D01*
X143477571Y-95865428D01*
X140966142Y-98379714D02*
X140937571Y-98294000D01*
X140937571Y-98151142D01*
X140966142Y-98094000D01*
X140994714Y-98065428D01*
X141051857Y-98036857D01*
X141109000Y-98036857D01*
X141166142Y-98065428D01*
X141194714Y-98094000D01*
X141223285Y-98151142D01*
X141251857Y-98265428D01*
X141280428Y-98322571D01*
X141309000Y-98351142D01*
X141366142Y-98379714D01*
X141423285Y-98379714D01*
X141480428Y-98351142D01*
X141509000Y-98322571D01*
X141537571Y-98265428D01*
X141537571Y-98122571D01*
X141509000Y-98036857D01*
X141251857Y-97779714D02*
X141251857Y-97579714D01*
X140937571Y-97494000D02*
X140937571Y-97779714D01*
X141537571Y-97779714D01*
X141537571Y-97494000D01*
X141509000Y-96922571D02*
X141537571Y-96979714D01*
X141537571Y-97065428D01*
X141509000Y-97151142D01*
X141451857Y-97208285D01*
X141394714Y-97236857D01*
X141280428Y-97265428D01*
X141194714Y-97265428D01*
X141080428Y-97236857D01*
X141023285Y-97208285D01*
X140966142Y-97151142D01*
X140937571Y-97065428D01*
X140937571Y-97008285D01*
X140966142Y-96922571D01*
X140994714Y-96894000D01*
X141194714Y-96894000D01*
X141194714Y-97008285D01*
X140937571Y-96636857D02*
X141537571Y-96636857D01*
X141251857Y-96636857D02*
X141251857Y-96294000D01*
X140937571Y-96294000D02*
X141537571Y-96294000D01*
X141480428Y-96036857D02*
X141509000Y-96008285D01*
X141537571Y-95951142D01*
X141537571Y-95808285D01*
X141509000Y-95751142D01*
X141480428Y-95722571D01*
X141423285Y-95694000D01*
X141366142Y-95694000D01*
X141280428Y-95722571D01*
X140937571Y-96065428D01*
X140937571Y-95694000D01*
D11*
X133571571Y-98484642D02*
X134171571Y-98484642D01*
X134171571Y-98341785D01*
X134143000Y-98256071D01*
X134085857Y-98198928D01*
X134028714Y-98170357D01*
X133914428Y-98141785D01*
X133828714Y-98141785D01*
X133714428Y-98170357D01*
X133657285Y-98198928D01*
X133600142Y-98256071D01*
X133571571Y-98341785D01*
X133571571Y-98484642D01*
X133571571Y-97884642D02*
X134171571Y-97884642D01*
X134143000Y-97284642D02*
X134171571Y-97341785D01*
X134171571Y-97427500D01*
X134143000Y-97513214D01*
X134085857Y-97570357D01*
X134028714Y-97598928D01*
X133914428Y-97627500D01*
X133828714Y-97627500D01*
X133714428Y-97598928D01*
X133657285Y-97570357D01*
X133600142Y-97513214D01*
X133571571Y-97427500D01*
X133571571Y-97370357D01*
X133600142Y-97284642D01*
X133628714Y-97256071D01*
X133828714Y-97256071D01*
X133828714Y-97370357D01*
X133971571Y-96741785D02*
X133571571Y-96741785D01*
X134200142Y-96884642D02*
X133771571Y-97027500D01*
X133771571Y-96656071D01*
X133514428Y-96570357D02*
X133514428Y-96113214D01*
X134114428Y-95998928D02*
X134143000Y-95970357D01*
X134171571Y-95913214D01*
X134171571Y-95770357D01*
X134143000Y-95713214D01*
X134114428Y-95684642D01*
X134057285Y-95656071D01*
X134000142Y-95656071D01*
X133914428Y-95684642D01*
X133571571Y-96027500D01*
X133571571Y-95656071D01*
X131031571Y-98484642D02*
X131631571Y-98484642D01*
X131631571Y-98341785D01*
X131603000Y-98256071D01*
X131545857Y-98198928D01*
X131488714Y-98170357D01*
X131374428Y-98141785D01*
X131288714Y-98141785D01*
X131174428Y-98170357D01*
X131117285Y-98198928D01*
X131060142Y-98256071D01*
X131031571Y-98341785D01*
X131031571Y-98484642D01*
X131031571Y-97884642D02*
X131631571Y-97884642D01*
X131603000Y-97284642D02*
X131631571Y-97341785D01*
X131631571Y-97427500D01*
X131603000Y-97513214D01*
X131545857Y-97570357D01*
X131488714Y-97598928D01*
X131374428Y-97627500D01*
X131288714Y-97627500D01*
X131174428Y-97598928D01*
X131117285Y-97570357D01*
X131060142Y-97513214D01*
X131031571Y-97427500D01*
X131031571Y-97370357D01*
X131060142Y-97284642D01*
X131088714Y-97256071D01*
X131288714Y-97256071D01*
X131288714Y-97370357D01*
X131631571Y-97056071D02*
X131631571Y-96684642D01*
X131403000Y-96884642D01*
X131403000Y-96798928D01*
X131374428Y-96741785D01*
X131345857Y-96713214D01*
X131288714Y-96684642D01*
X131145857Y-96684642D01*
X131088714Y-96713214D01*
X131060142Y-96741785D01*
X131031571Y-96798928D01*
X131031571Y-96970357D01*
X131060142Y-97027500D01*
X131088714Y-97056071D01*
X130974428Y-96570357D02*
X130974428Y-96113214D01*
X131574428Y-95998928D02*
X131603000Y-95970357D01*
X131631571Y-95913214D01*
X131631571Y-95770357D01*
X131603000Y-95713214D01*
X131574428Y-95684642D01*
X131517285Y-95656071D01*
X131460142Y-95656071D01*
X131374428Y-95684642D01*
X131031571Y-96027500D01*
X131031571Y-95656071D01*
X128491571Y-98484642D02*
X129091571Y-98484642D01*
X129091571Y-98341785D01*
X129063000Y-98256071D01*
X129005857Y-98198928D01*
X128948714Y-98170357D01*
X128834428Y-98141785D01*
X128748714Y-98141785D01*
X128634428Y-98170357D01*
X128577285Y-98198928D01*
X128520142Y-98256071D01*
X128491571Y-98341785D01*
X128491571Y-98484642D01*
X128491571Y-97884642D02*
X129091571Y-97884642D01*
X129063000Y-97284642D02*
X129091571Y-97341785D01*
X129091571Y-97427500D01*
X129063000Y-97513214D01*
X129005857Y-97570357D01*
X128948714Y-97598928D01*
X128834428Y-97627500D01*
X128748714Y-97627500D01*
X128634428Y-97598928D01*
X128577285Y-97570357D01*
X128520142Y-97513214D01*
X128491571Y-97427500D01*
X128491571Y-97370357D01*
X128520142Y-97284642D01*
X128548714Y-97256071D01*
X128748714Y-97256071D01*
X128748714Y-97370357D01*
X129034428Y-97027500D02*
X129063000Y-96998928D01*
X129091571Y-96941785D01*
X129091571Y-96798928D01*
X129063000Y-96741785D01*
X129034428Y-96713214D01*
X128977285Y-96684642D01*
X128920142Y-96684642D01*
X128834428Y-96713214D01*
X128491571Y-97056071D01*
X128491571Y-96684642D01*
X128434428Y-96570357D02*
X128434428Y-96113214D01*
X129034428Y-95998928D02*
X129063000Y-95970357D01*
X129091571Y-95913214D01*
X129091571Y-95770357D01*
X129063000Y-95713214D01*
X129034428Y-95684642D01*
X128977285Y-95656071D01*
X128920142Y-95656071D01*
X128834428Y-95684642D01*
X128491571Y-96027500D01*
X128491571Y-95656071D01*
X125951571Y-98484642D02*
X126551571Y-98484642D01*
X126551571Y-98341785D01*
X126523000Y-98256071D01*
X126465857Y-98198928D01*
X126408714Y-98170357D01*
X126294428Y-98141785D01*
X126208714Y-98141785D01*
X126094428Y-98170357D01*
X126037285Y-98198928D01*
X125980142Y-98256071D01*
X125951571Y-98341785D01*
X125951571Y-98484642D01*
X125951571Y-97884642D02*
X126551571Y-97884642D01*
X126523000Y-97284642D02*
X126551571Y-97341785D01*
X126551571Y-97427500D01*
X126523000Y-97513214D01*
X126465857Y-97570357D01*
X126408714Y-97598928D01*
X126294428Y-97627500D01*
X126208714Y-97627500D01*
X126094428Y-97598928D01*
X126037285Y-97570357D01*
X125980142Y-97513214D01*
X125951571Y-97427500D01*
X125951571Y-97370357D01*
X125980142Y-97284642D01*
X126008714Y-97256071D01*
X126208714Y-97256071D01*
X126208714Y-97370357D01*
X125951571Y-96684642D02*
X125951571Y-97027500D01*
X125951571Y-96856071D02*
X126551571Y-96856071D01*
X126465857Y-96913214D01*
X126408714Y-96970357D01*
X126380142Y-97027500D01*
X125894428Y-96570357D02*
X125894428Y-96113214D01*
X126494428Y-95998928D02*
X126523000Y-95970357D01*
X126551571Y-95913214D01*
X126551571Y-95770357D01*
X126523000Y-95713214D01*
X126494428Y-95684642D01*
X126437285Y-95656071D01*
X126380142Y-95656071D01*
X126294428Y-95684642D01*
X125951571Y-96027500D01*
X125951571Y-95656071D01*
X123411571Y-98484642D02*
X124011571Y-98484642D01*
X124011571Y-98341785D01*
X123983000Y-98256071D01*
X123925857Y-98198928D01*
X123868714Y-98170357D01*
X123754428Y-98141785D01*
X123668714Y-98141785D01*
X123554428Y-98170357D01*
X123497285Y-98198928D01*
X123440142Y-98256071D01*
X123411571Y-98341785D01*
X123411571Y-98484642D01*
X123411571Y-97884642D02*
X124011571Y-97884642D01*
X123983000Y-97284642D02*
X124011571Y-97341785D01*
X124011571Y-97427500D01*
X123983000Y-97513214D01*
X123925857Y-97570357D01*
X123868714Y-97598928D01*
X123754428Y-97627500D01*
X123668714Y-97627500D01*
X123554428Y-97598928D01*
X123497285Y-97570357D01*
X123440142Y-97513214D01*
X123411571Y-97427500D01*
X123411571Y-97370357D01*
X123440142Y-97284642D01*
X123468714Y-97256071D01*
X123668714Y-97256071D01*
X123668714Y-97370357D01*
X124011571Y-96884642D02*
X124011571Y-96827500D01*
X123983000Y-96770357D01*
X123954428Y-96741785D01*
X123897285Y-96713214D01*
X123783000Y-96684642D01*
X123640142Y-96684642D01*
X123525857Y-96713214D01*
X123468714Y-96741785D01*
X123440142Y-96770357D01*
X123411571Y-96827500D01*
X123411571Y-96884642D01*
X123440142Y-96941785D01*
X123468714Y-96970357D01*
X123525857Y-96998928D01*
X123640142Y-97027500D01*
X123783000Y-97027500D01*
X123897285Y-96998928D01*
X123954428Y-96970357D01*
X123983000Y-96941785D01*
X124011571Y-96884642D01*
X123354428Y-96570357D02*
X123354428Y-96113214D01*
X123954428Y-95998928D02*
X123983000Y-95970357D01*
X124011571Y-95913214D01*
X124011571Y-95770357D01*
X123983000Y-95713214D01*
X123954428Y-95684642D01*
X123897285Y-95656071D01*
X123840142Y-95656071D01*
X123754428Y-95684642D01*
X123411571Y-96027500D01*
X123411571Y-95656071D01*
D10*
X122528857Y-88096285D02*
X122557428Y-88182000D01*
X122557428Y-88324857D01*
X122528857Y-88382000D01*
X122500285Y-88410571D01*
X122443142Y-88439142D01*
X122386000Y-88439142D01*
X122328857Y-88410571D01*
X122300285Y-88382000D01*
X122271714Y-88324857D01*
X122243142Y-88210571D01*
X122214571Y-88153428D01*
X122186000Y-88124857D01*
X122128857Y-88096285D01*
X122071714Y-88096285D01*
X122014571Y-88124857D01*
X121986000Y-88153428D01*
X121957428Y-88210571D01*
X121957428Y-88353428D01*
X121986000Y-88439142D01*
X122243142Y-88696285D02*
X122243142Y-88896285D01*
X122557428Y-88982000D02*
X122557428Y-88696285D01*
X121957428Y-88696285D01*
X121957428Y-88982000D01*
X121986000Y-89553428D02*
X121957428Y-89496285D01*
X121957428Y-89410571D01*
X121986000Y-89324857D01*
X122043142Y-89267714D01*
X122100285Y-89239142D01*
X122214571Y-89210571D01*
X122300285Y-89210571D01*
X122414571Y-89239142D01*
X122471714Y-89267714D01*
X122528857Y-89324857D01*
X122557428Y-89410571D01*
X122557428Y-89467714D01*
X122528857Y-89553428D01*
X122500285Y-89582000D01*
X122300285Y-89582000D01*
X122300285Y-89467714D01*
X121986000Y-90153428D02*
X121957428Y-90096285D01*
X121957428Y-90010571D01*
X121986000Y-89924857D01*
X122043142Y-89867714D01*
X122100285Y-89839142D01*
X122214571Y-89810571D01*
X122300285Y-89810571D01*
X122414571Y-89839142D01*
X122471714Y-89867714D01*
X122528857Y-89924857D01*
X122557428Y-90010571D01*
X122557428Y-90067714D01*
X122528857Y-90153428D01*
X122500285Y-90182000D01*
X122300285Y-90182000D01*
X122300285Y-90067714D01*
X125068857Y-88096285D02*
X125097428Y-88182000D01*
X125097428Y-88324857D01*
X125068857Y-88382000D01*
X125040285Y-88410571D01*
X124983142Y-88439142D01*
X124926000Y-88439142D01*
X124868857Y-88410571D01*
X124840285Y-88382000D01*
X124811714Y-88324857D01*
X124783142Y-88210571D01*
X124754571Y-88153428D01*
X124726000Y-88124857D01*
X124668857Y-88096285D01*
X124611714Y-88096285D01*
X124554571Y-88124857D01*
X124526000Y-88153428D01*
X124497428Y-88210571D01*
X124497428Y-88353428D01*
X124526000Y-88439142D01*
X124783142Y-88696285D02*
X124783142Y-88896285D01*
X125097428Y-88982000D02*
X125097428Y-88696285D01*
X124497428Y-88696285D01*
X124497428Y-88982000D01*
X124526000Y-89553428D02*
X124497428Y-89496285D01*
X124497428Y-89410571D01*
X124526000Y-89324857D01*
X124583142Y-89267714D01*
X124640285Y-89239142D01*
X124754571Y-89210571D01*
X124840285Y-89210571D01*
X124954571Y-89239142D01*
X125011714Y-89267714D01*
X125068857Y-89324857D01*
X125097428Y-89410571D01*
X125097428Y-89467714D01*
X125068857Y-89553428D01*
X125040285Y-89582000D01*
X124840285Y-89582000D01*
X124840285Y-89467714D01*
X125097428Y-89839142D02*
X124497428Y-89839142D01*
X124783142Y-89839142D02*
X124783142Y-90182000D01*
X125097428Y-90182000D02*
X124497428Y-90182000D01*
X119988857Y-88096285D02*
X120017428Y-88182000D01*
X120017428Y-88324857D01*
X119988857Y-88382000D01*
X119960285Y-88410571D01*
X119903142Y-88439142D01*
X119846000Y-88439142D01*
X119788857Y-88410571D01*
X119760285Y-88382000D01*
X119731714Y-88324857D01*
X119703142Y-88210571D01*
X119674571Y-88153428D01*
X119646000Y-88124857D01*
X119588857Y-88096285D01*
X119531714Y-88096285D01*
X119474571Y-88124857D01*
X119446000Y-88153428D01*
X119417428Y-88210571D01*
X119417428Y-88353428D01*
X119446000Y-88439142D01*
X119703142Y-88696285D02*
X119703142Y-88896285D01*
X120017428Y-88982000D02*
X120017428Y-88696285D01*
X119417428Y-88696285D01*
X119417428Y-88982000D01*
X119446000Y-89553428D02*
X119417428Y-89496285D01*
X119417428Y-89410571D01*
X119446000Y-89324857D01*
X119503142Y-89267714D01*
X119560285Y-89239142D01*
X119674571Y-89210571D01*
X119760285Y-89210571D01*
X119874571Y-89239142D01*
X119931714Y-89267714D01*
X119988857Y-89324857D01*
X120017428Y-89410571D01*
X120017428Y-89467714D01*
X119988857Y-89553428D01*
X119960285Y-89582000D01*
X119760285Y-89582000D01*
X119760285Y-89467714D01*
X119703142Y-90039142D02*
X119703142Y-89839142D01*
X120017428Y-89839142D02*
X119417428Y-89839142D01*
X119417428Y-90124857D01*
X117448857Y-88096285D02*
X117477428Y-88182000D01*
X117477428Y-88324857D01*
X117448857Y-88382000D01*
X117420285Y-88410571D01*
X117363142Y-88439142D01*
X117306000Y-88439142D01*
X117248857Y-88410571D01*
X117220285Y-88382000D01*
X117191714Y-88324857D01*
X117163142Y-88210571D01*
X117134571Y-88153428D01*
X117106000Y-88124857D01*
X117048857Y-88096285D01*
X116991714Y-88096285D01*
X116934571Y-88124857D01*
X116906000Y-88153428D01*
X116877428Y-88210571D01*
X116877428Y-88353428D01*
X116906000Y-88439142D01*
X117163142Y-88696285D02*
X117163142Y-88896285D01*
X117477428Y-88982000D02*
X117477428Y-88696285D01*
X116877428Y-88696285D01*
X116877428Y-88982000D01*
X116906000Y-89553428D02*
X116877428Y-89496285D01*
X116877428Y-89410571D01*
X116906000Y-89324857D01*
X116963142Y-89267714D01*
X117020285Y-89239142D01*
X117134571Y-89210571D01*
X117220285Y-89210571D01*
X117334571Y-89239142D01*
X117391714Y-89267714D01*
X117448857Y-89324857D01*
X117477428Y-89410571D01*
X117477428Y-89467714D01*
X117448857Y-89553428D01*
X117420285Y-89582000D01*
X117220285Y-89582000D01*
X117220285Y-89467714D01*
X117163142Y-89839142D02*
X117163142Y-90039142D01*
X117477428Y-90124857D02*
X117477428Y-89839142D01*
X116877428Y-89839142D01*
X116877428Y-90124857D01*
X114908857Y-88096285D02*
X114937428Y-88182000D01*
X114937428Y-88324857D01*
X114908857Y-88382000D01*
X114880285Y-88410571D01*
X114823142Y-88439142D01*
X114766000Y-88439142D01*
X114708857Y-88410571D01*
X114680285Y-88382000D01*
X114651714Y-88324857D01*
X114623142Y-88210571D01*
X114594571Y-88153428D01*
X114566000Y-88124857D01*
X114508857Y-88096285D01*
X114451714Y-88096285D01*
X114394571Y-88124857D01*
X114366000Y-88153428D01*
X114337428Y-88210571D01*
X114337428Y-88353428D01*
X114366000Y-88439142D01*
X114623142Y-88696285D02*
X114623142Y-88896285D01*
X114937428Y-88982000D02*
X114937428Y-88696285D01*
X114337428Y-88696285D01*
X114337428Y-88982000D01*
X114366000Y-89553428D02*
X114337428Y-89496285D01*
X114337428Y-89410571D01*
X114366000Y-89324857D01*
X114423142Y-89267714D01*
X114480285Y-89239142D01*
X114594571Y-89210571D01*
X114680285Y-89210571D01*
X114794571Y-89239142D01*
X114851714Y-89267714D01*
X114908857Y-89324857D01*
X114937428Y-89410571D01*
X114937428Y-89467714D01*
X114908857Y-89553428D01*
X114880285Y-89582000D01*
X114680285Y-89582000D01*
X114680285Y-89467714D01*
X114937428Y-89839142D02*
X114337428Y-89839142D01*
X114337428Y-89982000D01*
X114366000Y-90067714D01*
X114423142Y-90124857D01*
X114480285Y-90153428D01*
X114594571Y-90182000D01*
X114680285Y-90182000D01*
X114794571Y-90153428D01*
X114851714Y-90124857D01*
X114908857Y-90067714D01*
X114937428Y-89982000D01*
X114937428Y-89839142D01*
X112368857Y-88096285D02*
X112397428Y-88182000D01*
X112397428Y-88324857D01*
X112368857Y-88382000D01*
X112340285Y-88410571D01*
X112283142Y-88439142D01*
X112226000Y-88439142D01*
X112168857Y-88410571D01*
X112140285Y-88382000D01*
X112111714Y-88324857D01*
X112083142Y-88210571D01*
X112054571Y-88153428D01*
X112026000Y-88124857D01*
X111968857Y-88096285D01*
X111911714Y-88096285D01*
X111854571Y-88124857D01*
X111826000Y-88153428D01*
X111797428Y-88210571D01*
X111797428Y-88353428D01*
X111826000Y-88439142D01*
X112083142Y-88696285D02*
X112083142Y-88896285D01*
X112397428Y-88982000D02*
X112397428Y-88696285D01*
X111797428Y-88696285D01*
X111797428Y-88982000D01*
X111826000Y-89553428D02*
X111797428Y-89496285D01*
X111797428Y-89410571D01*
X111826000Y-89324857D01*
X111883142Y-89267714D01*
X111940285Y-89239142D01*
X112054571Y-89210571D01*
X112140285Y-89210571D01*
X112254571Y-89239142D01*
X112311714Y-89267714D01*
X112368857Y-89324857D01*
X112397428Y-89410571D01*
X112397428Y-89467714D01*
X112368857Y-89553428D01*
X112340285Y-89582000D01*
X112140285Y-89582000D01*
X112140285Y-89467714D01*
X112340285Y-90182000D02*
X112368857Y-90153428D01*
X112397428Y-90067714D01*
X112397428Y-90010571D01*
X112368857Y-89924857D01*
X112311714Y-89867714D01*
X112254571Y-89839142D01*
X112140285Y-89810571D01*
X112054571Y-89810571D01*
X111940285Y-89839142D01*
X111883142Y-89867714D01*
X111826000Y-89924857D01*
X111797428Y-90010571D01*
X111797428Y-90067714D01*
X111826000Y-90153428D01*
X111854571Y-90182000D01*
X109828857Y-88096285D02*
X109857428Y-88182000D01*
X109857428Y-88324857D01*
X109828857Y-88382000D01*
X109800285Y-88410571D01*
X109743142Y-88439142D01*
X109686000Y-88439142D01*
X109628857Y-88410571D01*
X109600285Y-88382000D01*
X109571714Y-88324857D01*
X109543142Y-88210571D01*
X109514571Y-88153428D01*
X109486000Y-88124857D01*
X109428857Y-88096285D01*
X109371714Y-88096285D01*
X109314571Y-88124857D01*
X109286000Y-88153428D01*
X109257428Y-88210571D01*
X109257428Y-88353428D01*
X109286000Y-88439142D01*
X109543142Y-88696285D02*
X109543142Y-88896285D01*
X109857428Y-88982000D02*
X109857428Y-88696285D01*
X109257428Y-88696285D01*
X109257428Y-88982000D01*
X109286000Y-89553428D02*
X109257428Y-89496285D01*
X109257428Y-89410571D01*
X109286000Y-89324857D01*
X109343142Y-89267714D01*
X109400285Y-89239142D01*
X109514571Y-89210571D01*
X109600285Y-89210571D01*
X109714571Y-89239142D01*
X109771714Y-89267714D01*
X109828857Y-89324857D01*
X109857428Y-89410571D01*
X109857428Y-89467714D01*
X109828857Y-89553428D01*
X109800285Y-89582000D01*
X109600285Y-89582000D01*
X109600285Y-89467714D01*
X109543142Y-90039142D02*
X109571714Y-90124857D01*
X109600285Y-90153428D01*
X109657428Y-90182000D01*
X109743142Y-90182000D01*
X109800285Y-90153428D01*
X109828857Y-90124857D01*
X109857428Y-90067714D01*
X109857428Y-89839142D01*
X109257428Y-89839142D01*
X109257428Y-90039142D01*
X109286000Y-90096285D01*
X109314571Y-90124857D01*
X109371714Y-90153428D01*
X109428857Y-90153428D01*
X109486000Y-90124857D01*
X109514571Y-90096285D01*
X109543142Y-90039142D01*
X109543142Y-89839142D01*
X107288857Y-88096285D02*
X107317428Y-88182000D01*
X107317428Y-88324857D01*
X107288857Y-88382000D01*
X107260285Y-88410571D01*
X107203142Y-88439142D01*
X107146000Y-88439142D01*
X107088857Y-88410571D01*
X107060285Y-88382000D01*
X107031714Y-88324857D01*
X107003142Y-88210571D01*
X106974571Y-88153428D01*
X106946000Y-88124857D01*
X106888857Y-88096285D01*
X106831714Y-88096285D01*
X106774571Y-88124857D01*
X106746000Y-88153428D01*
X106717428Y-88210571D01*
X106717428Y-88353428D01*
X106746000Y-88439142D01*
X107003142Y-88696285D02*
X107003142Y-88896285D01*
X107317428Y-88982000D02*
X107317428Y-88696285D01*
X106717428Y-88696285D01*
X106717428Y-88982000D01*
X106746000Y-89553428D02*
X106717428Y-89496285D01*
X106717428Y-89410571D01*
X106746000Y-89324857D01*
X106803142Y-89267714D01*
X106860285Y-89239142D01*
X106974571Y-89210571D01*
X107060285Y-89210571D01*
X107174571Y-89239142D01*
X107231714Y-89267714D01*
X107288857Y-89324857D01*
X107317428Y-89410571D01*
X107317428Y-89467714D01*
X107288857Y-89553428D01*
X107260285Y-89582000D01*
X107060285Y-89582000D01*
X107060285Y-89467714D01*
X107146000Y-89810571D02*
X107146000Y-90096285D01*
X107317428Y-89753428D02*
X106717428Y-89953428D01*
X107317428Y-90153428D01*
X114394571Y-98478142D02*
X114994571Y-98478142D01*
X114994571Y-98335285D01*
X114966000Y-98249571D01*
X114908857Y-98192428D01*
X114851714Y-98163857D01*
X114737428Y-98135285D01*
X114651714Y-98135285D01*
X114537428Y-98163857D01*
X114480285Y-98192428D01*
X114423142Y-98249571D01*
X114394571Y-98335285D01*
X114394571Y-98478142D01*
X114394571Y-97878142D02*
X114994571Y-97878142D01*
X114966000Y-97278142D02*
X114994571Y-97335285D01*
X114994571Y-97421000D01*
X114966000Y-97506714D01*
X114908857Y-97563857D01*
X114851714Y-97592428D01*
X114737428Y-97621000D01*
X114651714Y-97621000D01*
X114537428Y-97592428D01*
X114480285Y-97563857D01*
X114423142Y-97506714D01*
X114394571Y-97421000D01*
X114394571Y-97363857D01*
X114423142Y-97278142D01*
X114451714Y-97249571D01*
X114651714Y-97249571D01*
X114651714Y-97363857D01*
X114994571Y-97049571D02*
X114994571Y-96678142D01*
X114766000Y-96878142D01*
X114766000Y-96792428D01*
X114737428Y-96735285D01*
X114708857Y-96706714D01*
X114651714Y-96678142D01*
X114508857Y-96678142D01*
X114451714Y-96706714D01*
X114423142Y-96735285D01*
X114394571Y-96792428D01*
X114394571Y-96963857D01*
X114423142Y-97021000D01*
X114451714Y-97049571D01*
X111854571Y-98478142D02*
X112454571Y-98478142D01*
X112454571Y-98335285D01*
X112426000Y-98249571D01*
X112368857Y-98192428D01*
X112311714Y-98163857D01*
X112197428Y-98135285D01*
X112111714Y-98135285D01*
X111997428Y-98163857D01*
X111940285Y-98192428D01*
X111883142Y-98249571D01*
X111854571Y-98335285D01*
X111854571Y-98478142D01*
X111854571Y-97878142D02*
X112454571Y-97878142D01*
X112426000Y-97278142D02*
X112454571Y-97335285D01*
X112454571Y-97421000D01*
X112426000Y-97506714D01*
X112368857Y-97563857D01*
X112311714Y-97592428D01*
X112197428Y-97621000D01*
X112111714Y-97621000D01*
X111997428Y-97592428D01*
X111940285Y-97563857D01*
X111883142Y-97506714D01*
X111854571Y-97421000D01*
X111854571Y-97363857D01*
X111883142Y-97278142D01*
X111911714Y-97249571D01*
X112111714Y-97249571D01*
X112111714Y-97363857D01*
X112397428Y-97021000D02*
X112426000Y-96992428D01*
X112454571Y-96935285D01*
X112454571Y-96792428D01*
X112426000Y-96735285D01*
X112397428Y-96706714D01*
X112340285Y-96678142D01*
X112283142Y-96678142D01*
X112197428Y-96706714D01*
X111854571Y-97049571D01*
X111854571Y-96678142D01*
X109314571Y-98478142D02*
X109914571Y-98478142D01*
X109914571Y-98335285D01*
X109886000Y-98249571D01*
X109828857Y-98192428D01*
X109771714Y-98163857D01*
X109657428Y-98135285D01*
X109571714Y-98135285D01*
X109457428Y-98163857D01*
X109400285Y-98192428D01*
X109343142Y-98249571D01*
X109314571Y-98335285D01*
X109314571Y-98478142D01*
X109314571Y-97878142D02*
X109914571Y-97878142D01*
X109886000Y-97278142D02*
X109914571Y-97335285D01*
X109914571Y-97421000D01*
X109886000Y-97506714D01*
X109828857Y-97563857D01*
X109771714Y-97592428D01*
X109657428Y-97621000D01*
X109571714Y-97621000D01*
X109457428Y-97592428D01*
X109400285Y-97563857D01*
X109343142Y-97506714D01*
X109314571Y-97421000D01*
X109314571Y-97363857D01*
X109343142Y-97278142D01*
X109371714Y-97249571D01*
X109571714Y-97249571D01*
X109571714Y-97363857D01*
X109314571Y-96678142D02*
X109314571Y-97021000D01*
X109314571Y-96849571D02*
X109914571Y-96849571D01*
X109828857Y-96906714D01*
X109771714Y-96963857D01*
X109743142Y-97021000D01*
D12*
X159507428Y-92745000D02*
X159221714Y-92545000D01*
X159507428Y-92402142D02*
X158907428Y-92402142D01*
X158907428Y-92630714D01*
X158936000Y-92687857D01*
X158964571Y-92716428D01*
X159021714Y-92745000D01*
X159107428Y-92745000D01*
X159164571Y-92716428D01*
X159193142Y-92687857D01*
X159221714Y-92630714D01*
X159221714Y-92402142D01*
X159193142Y-93002142D02*
X159193142Y-93202142D01*
X159507428Y-93287857D02*
X159507428Y-93002142D01*
X158907428Y-93002142D01*
X158907428Y-93287857D01*
X158907428Y-93459285D02*
X159507428Y-93659285D01*
X158907428Y-93859285D01*
X159450285Y-94059285D02*
X159478857Y-94087857D01*
X159507428Y-94059285D01*
X159478857Y-94030714D01*
X159450285Y-94059285D01*
X159507428Y-94059285D01*
X159136000Y-94059285D02*
X159164571Y-94087857D01*
X159193142Y-94059285D01*
X159164571Y-94030714D01*
X159136000Y-94059285D01*
X159193142Y-94059285D01*
X159507428Y-95116428D02*
X159507428Y-94773571D01*
X159507428Y-94945000D02*
X158907428Y-94945000D01*
X158993142Y-94887857D01*
X159050285Y-94830714D01*
X159078857Y-94773571D01*
X148902666Y-91945142D02*
X148950285Y-91992761D01*
X149093142Y-92040380D01*
X149188380Y-92040380D01*
X149331238Y-91992761D01*
X149426476Y-91897523D01*
X149474095Y-91802285D01*
X149521714Y-91611809D01*
X149521714Y-91468952D01*
X149474095Y-91278476D01*
X149426476Y-91183238D01*
X149331238Y-91088000D01*
X149188380Y-91040380D01*
X149093142Y-91040380D01*
X148950285Y-91088000D01*
X148902666Y-91135619D01*
X147902666Y-91945142D02*
X147950285Y-91992761D01*
X148093142Y-92040380D01*
X148188380Y-92040380D01*
X148331238Y-91992761D01*
X148426476Y-91897523D01*
X148474095Y-91802285D01*
X148521714Y-91611809D01*
X148521714Y-91468952D01*
X148474095Y-91278476D01*
X148426476Y-91183238D01*
X148331238Y-91088000D01*
X148188380Y-91040380D01*
X148093142Y-91040380D01*
X147950285Y-91088000D01*
X147902666Y-91135619D01*
X146378857Y-91516571D02*
X146236000Y-91564190D01*
X146188380Y-91611809D01*
X146140761Y-91707047D01*
X146140761Y-91849904D01*
X146188380Y-91945142D01*
X146236000Y-91992761D01*
X146331238Y-92040380D01*
X146712190Y-92040380D01*
X146712190Y-91040380D01*
X146378857Y-91040380D01*
X146283619Y-91088000D01*
X146236000Y-91135619D01*
X146188380Y-91230857D01*
X146188380Y-91326095D01*
X146236000Y-91421333D01*
X146283619Y-91468952D01*
X146378857Y-91516571D01*
X146712190Y-91516571D01*
X145521714Y-91564190D02*
X145521714Y-92040380D01*
X145855047Y-91040380D02*
X145521714Y-91564190D01*
X145188380Y-91040380D01*
X144855047Y-91659428D02*
X144093142Y-91659428D01*
X143616952Y-92040380D02*
X143616952Y-91040380D01*
X143045523Y-92040380D01*
X143045523Y-91040380D01*
X141997904Y-91945142D02*
X142045523Y-91992761D01*
X142188380Y-92040380D01*
X142283619Y-92040380D01*
X142426476Y-91992761D01*
X142521714Y-91897523D01*
X142569333Y-91802285D01*
X142616952Y-91611809D01*
X142616952Y-91468952D01*
X142569333Y-91278476D01*
X142521714Y-91183238D01*
X142426476Y-91088000D01*
X142283619Y-91040380D01*
X142188380Y-91040380D01*
X142045523Y-91088000D01*
X141997904Y-91135619D01*
X141569333Y-91659428D02*
X140807428Y-91659428D01*
X140378857Y-91992761D02*
X140236000Y-92040380D01*
X139997904Y-92040380D01*
X139902666Y-91992761D01*
X139855047Y-91945142D01*
X139807428Y-91849904D01*
X139807428Y-91754666D01*
X139855047Y-91659428D01*
X139902666Y-91611809D01*
X139997904Y-91564190D01*
X140188380Y-91516571D01*
X140283619Y-91468952D01*
X140331238Y-91421333D01*
X140378857Y-91326095D01*
X140378857Y-91230857D01*
X140331238Y-91135619D01*
X140283619Y-91088000D01*
X140188380Y-91040380D01*
X139950285Y-91040380D01*
X139807428Y-91088000D01*
X139426476Y-91754666D02*
X138950285Y-91754666D01*
X139521714Y-92040380D02*
X139188380Y-91040380D01*
X138855047Y-92040380D01*
X152783619Y-92690380D02*
X152545523Y-93690380D01*
X152355047Y-92976095D01*
X152164571Y-93690380D01*
X151926476Y-92690380D01*
X151640761Y-92690380D02*
X151402666Y-93690380D01*
X151212190Y-92976095D01*
X151021714Y-93690380D01*
X150783619Y-92690380D01*
X150497904Y-92690380D02*
X150259809Y-93690380D01*
X150069333Y-92976095D01*
X149878857Y-93690380D01*
X149640761Y-92690380D01*
X149259809Y-93595142D02*
X149212190Y-93642761D01*
X149259809Y-93690380D01*
X149307428Y-93642761D01*
X149259809Y-93595142D01*
X149259809Y-93690380D01*
X148593142Y-92690380D02*
X148402666Y-92690380D01*
X148307428Y-92738000D01*
X148212190Y-92833238D01*
X148164571Y-93023714D01*
X148164571Y-93357047D01*
X148212190Y-93547523D01*
X148307428Y-93642761D01*
X148402666Y-93690380D01*
X148593142Y-93690380D01*
X148688380Y-93642761D01*
X148783619Y-93547523D01*
X148831238Y-93357047D01*
X148831238Y-93023714D01*
X148783619Y-92833238D01*
X148688380Y-92738000D01*
X148593142Y-92690380D01*
X147736000Y-93690380D02*
X147736000Y-92690380D01*
X147355047Y-92690380D01*
X147259809Y-92738000D01*
X147212190Y-92785619D01*
X147164571Y-92880857D01*
X147164571Y-93023714D01*
X147212190Y-93118952D01*
X147259809Y-93166571D01*
X147355047Y-93214190D01*
X147736000Y-93214190D01*
X146736000Y-93166571D02*
X146402666Y-93166571D01*
X146259809Y-93690380D02*
X146736000Y-93690380D01*
X146736000Y-92690380D01*
X146259809Y-92690380D01*
X145831238Y-93690380D02*
X145831238Y-92690380D01*
X145259809Y-93690380D01*
X145259809Y-92690380D01*
X144783619Y-93690380D02*
X144783619Y-92690380D01*
X144783619Y-93166571D02*
X144212190Y-93166571D01*
X144212190Y-93690380D02*
X144212190Y-92690380D01*
X143545523Y-92690380D02*
X143355047Y-92690380D01*
X143259809Y-92738000D01*
X143164571Y-92833238D01*
X143116952Y-93023714D01*
X143116952Y-93357047D01*
X143164571Y-93547523D01*
X143259809Y-93642761D01*
X143355047Y-93690380D01*
X143545523Y-93690380D01*
X143640761Y-93642761D01*
X143736000Y-93547523D01*
X143783619Y-93357047D01*
X143783619Y-93023714D01*
X143736000Y-92833238D01*
X143640761Y-92738000D01*
X143545523Y-92690380D01*
X142116952Y-93690380D02*
X142450285Y-93214190D01*
X142688380Y-93690380D02*
X142688380Y-92690380D01*
X142307428Y-92690380D01*
X142212190Y-92738000D01*
X142164571Y-92785619D01*
X142116952Y-92880857D01*
X142116952Y-93023714D01*
X142164571Y-93118952D01*
X142212190Y-93166571D01*
X142307428Y-93214190D01*
X142688380Y-93214190D01*
X141688380Y-93690380D02*
X141688380Y-92690380D01*
X141116952Y-93690380D01*
X141116952Y-92690380D01*
X140640761Y-93166571D02*
X140307428Y-93166571D01*
X140164571Y-93690380D02*
X140640761Y-93690380D01*
X140640761Y-92690380D01*
X140164571Y-92690380D01*
X139878857Y-92690380D02*
X139307428Y-92690380D01*
X139593142Y-93690380D02*
X139593142Y-92690380D01*
X138974095Y-93595142D02*
X138926476Y-93642761D01*
X138974095Y-93690380D01*
X139021714Y-93642761D01*
X138974095Y-93595142D01*
X138974095Y-93690380D01*
X137926476Y-93595142D02*
X137974095Y-93642761D01*
X138116952Y-93690380D01*
X138212190Y-93690380D01*
X138355047Y-93642761D01*
X138450285Y-93547523D01*
X138497904Y-93452285D01*
X138545523Y-93261809D01*
X138545523Y-93118952D01*
X138497904Y-92928476D01*
X138450285Y-92833238D01*
X138355047Y-92738000D01*
X138212190Y-92690380D01*
X138116952Y-92690380D01*
X137974095Y-92738000D01*
X137926476Y-92785619D01*
X137307428Y-92690380D02*
X137116952Y-92690380D01*
X137021714Y-92738000D01*
X136926476Y-92833238D01*
X136878857Y-93023714D01*
X136878857Y-93357047D01*
X136926476Y-93547523D01*
X137021714Y-93642761D01*
X137116952Y-93690380D01*
X137307428Y-93690380D01*
X137402666Y-93642761D01*
X137497904Y-93547523D01*
X137545523Y-93357047D01*
X137545523Y-93023714D01*
X137497904Y-92833238D01*
X137402666Y-92738000D01*
X137307428Y-92690380D01*
X136450285Y-93690380D02*
X136450285Y-92690380D01*
X136116952Y-93404666D01*
X135783619Y-92690380D01*
X135783619Y-93690380D01*
X151831238Y-95340380D02*
X151831238Y-94340380D01*
X151497904Y-95054666D01*
X151164571Y-94340380D01*
X151164571Y-95340380D01*
X150497904Y-94340380D02*
X150307428Y-94340380D01*
X150212190Y-94388000D01*
X150116952Y-94483238D01*
X150069333Y-94673714D01*
X150069333Y-95007047D01*
X150116952Y-95197523D01*
X150212190Y-95292761D01*
X150307428Y-95340380D01*
X150497904Y-95340380D01*
X150593142Y-95292761D01*
X150688380Y-95197523D01*
X150736000Y-95007047D01*
X150736000Y-94673714D01*
X150688380Y-94483238D01*
X150593142Y-94388000D01*
X150497904Y-94340380D01*
X149640761Y-95340380D02*
X149640761Y-94340380D01*
X149402666Y-94340380D01*
X149259809Y-94388000D01*
X149164571Y-94483238D01*
X149116952Y-94578476D01*
X149069333Y-94768952D01*
X149069333Y-94911809D01*
X149116952Y-95102285D01*
X149164571Y-95197523D01*
X149259809Y-95292761D01*
X149402666Y-95340380D01*
X149640761Y-95340380D01*
X148640761Y-95340380D02*
X148640761Y-94340380D01*
X147831238Y-94816571D02*
X148164571Y-94816571D01*
X148164571Y-95340380D02*
X148164571Y-94340380D01*
X147688380Y-94340380D01*
X147307428Y-95340380D02*
X147307428Y-94340380D01*
X146831238Y-94816571D02*
X146497904Y-94816571D01*
X146355047Y-95340380D02*
X146831238Y-95340380D01*
X146831238Y-94340380D01*
X146355047Y-94340380D01*
X145926476Y-95340380D02*
X145926476Y-94340380D01*
X145688380Y-94340380D01*
X145545523Y-94388000D01*
X145450285Y-94483238D01*
X145402666Y-94578476D01*
X145355047Y-94768952D01*
X145355047Y-94911809D01*
X145402666Y-95102285D01*
X145450285Y-95197523D01*
X145545523Y-95292761D01*
X145688380Y-95340380D01*
X145926476Y-95340380D01*
X143831238Y-94816571D02*
X143688380Y-94864190D01*
X143640761Y-94911809D01*
X143593142Y-95007047D01*
X143593142Y-95149904D01*
X143640761Y-95245142D01*
X143688380Y-95292761D01*
X143783619Y-95340380D01*
X144164571Y-95340380D01*
X144164571Y-94340380D01*
X143831238Y-94340380D01*
X143736000Y-94388000D01*
X143688380Y-94435619D01*
X143640761Y-94530857D01*
X143640761Y-94626095D01*
X143688380Y-94721333D01*
X143736000Y-94768952D01*
X143831238Y-94816571D01*
X144164571Y-94816571D01*
X142974095Y-94864190D02*
X142974095Y-95340380D01*
X143307428Y-94340380D02*
X142974095Y-94864190D01*
X142640761Y-94340380D01*
X141593142Y-95054666D02*
X141116952Y-95054666D01*
X141688380Y-95340380D02*
X141355047Y-94340380D01*
X141021714Y-95340380D01*
X140212190Y-95340380D02*
X140688380Y-95340380D01*
X140688380Y-94340380D01*
X139926476Y-95054666D02*
X139450285Y-95054666D01*
X140021714Y-95340380D02*
X139688380Y-94340380D01*
X139355047Y-95340380D01*
X139021714Y-95340380D02*
X139021714Y-94340380D01*
X138450285Y-95340380D01*
X138450285Y-94340380D01*
X137212190Y-95340380D02*
X137212190Y-94340380D01*
X137212190Y-94816571D02*
X136640761Y-94816571D01*
X136640761Y-95340380D02*
X136640761Y-94340380D01*
D13*
X132878857Y-92923571D02*
X132878857Y-94137857D01*
X132807428Y-94280714D01*
X132736000Y-94352142D01*
X132593142Y-94423571D01*
X132307428Y-94423571D01*
X132164571Y-94352142D01*
X132093142Y-94280714D01*
X132021714Y-94137857D01*
X132021714Y-92923571D01*
X130807428Y-93637857D02*
X131307428Y-93637857D01*
X131307428Y-94423571D02*
X131307428Y-92923571D01*
X130593142Y-92923571D01*
X129164571Y-94280714D02*
X129236000Y-94352142D01*
X129450285Y-94423571D01*
X129593142Y-94423571D01*
X129807428Y-94352142D01*
X129950285Y-94209285D01*
X130021714Y-94066428D01*
X130093142Y-93780714D01*
X130093142Y-93566428D01*
X130021714Y-93280714D01*
X129950285Y-93137857D01*
X129807428Y-92995000D01*
X129593142Y-92923571D01*
X129450285Y-92923571D01*
X129236000Y-92995000D01*
X129164571Y-93066428D01*
X127450285Y-94352142D02*
X127236000Y-94423571D01*
X126878857Y-94423571D01*
X126736000Y-94352142D01*
X126664571Y-94280714D01*
X126593142Y-94137857D01*
X126593142Y-93995000D01*
X126664571Y-93852142D01*
X126736000Y-93780714D01*
X126878857Y-93709285D01*
X127164571Y-93637857D01*
X127307428Y-93566428D01*
X127378857Y-93495000D01*
X127450285Y-93352142D01*
X127450285Y-93209285D01*
X127378857Y-93066428D01*
X127307428Y-92995000D01*
X127164571Y-92923571D01*
X126807428Y-92923571D01*
X126593142Y-92995000D01*
X125093142Y-94280714D02*
X125164571Y-94352142D01*
X125378857Y-94423571D01*
X125521714Y-94423571D01*
X125736000Y-94352142D01*
X125878857Y-94209285D01*
X125950285Y-94066428D01*
X126021714Y-93780714D01*
X126021714Y-93566428D01*
X125950285Y-93280714D01*
X125878857Y-93137857D01*
X125736000Y-92995000D01*
X125521714Y-92923571D01*
X125378857Y-92923571D01*
X125164571Y-92995000D01*
X125093142Y-93066428D01*
X123593142Y-94423571D02*
X124093142Y-93709285D01*
X124450285Y-94423571D02*
X124450285Y-92923571D01*
X123878857Y-92923571D01*
X123736000Y-92995000D01*
X123664571Y-93066428D01*
X123593142Y-93209285D01*
X123593142Y-93423571D01*
X123664571Y-93566428D01*
X123736000Y-93637857D01*
X123878857Y-93709285D01*
X124450285Y-93709285D01*
X123021714Y-93995000D02*
X122307428Y-93995000D01*
X123164571Y-94423571D02*
X122664571Y-92923571D01*
X122164571Y-94423571D01*
X121878857Y-92923571D02*
X121021714Y-92923571D01*
X121450285Y-94423571D02*
X121450285Y-92923571D01*
X119664571Y-94280714D02*
X119736000Y-94352142D01*
X119950285Y-94423571D01*
X120093142Y-94423571D01*
X120307428Y-94352142D01*
X120450285Y-94209285D01*
X120521714Y-94066428D01*
X120593142Y-93780714D01*
X120593142Y-93566428D01*
X120521714Y-93280714D01*
X120450285Y-93137857D01*
X120307428Y-92995000D01*
X120093142Y-92923571D01*
X119950285Y-92923571D01*
X119736000Y-92995000D01*
X119664571Y-93066428D01*
X119021714Y-94423571D02*
X119021714Y-92923571D01*
X119021714Y-93637857D02*
X118164571Y-93637857D01*
X118164571Y-94423571D02*
X118164571Y-92923571D01*
X117450285Y-94423571D02*
X117450285Y-92923571D01*
X116878857Y-92923571D01*
X116736000Y-92995000D01*
X116664571Y-93066428D01*
X116593142Y-93209285D01*
X116593142Y-93423571D01*
X116664571Y-93566428D01*
X116736000Y-93637857D01*
X116878857Y-93709285D01*
X117450285Y-93709285D01*
X116021714Y-93995000D02*
X115307428Y-93995000D01*
X116164571Y-94423571D02*
X115664571Y-92923571D01*
X115164571Y-94423571D01*
X114664571Y-94423571D02*
X114664571Y-92923571D01*
X114307428Y-92923571D01*
X114093142Y-92995000D01*
X113950285Y-93137857D01*
X113878857Y-93280714D01*
X113807428Y-93566428D01*
X113807428Y-93780714D01*
X113878857Y-94066428D01*
X113950285Y-94209285D01*
X114093142Y-94352142D01*
X114307428Y-94423571D01*
X114664571Y-94423571D01*
X112021714Y-94423571D02*
X112021714Y-92923571D01*
X111664571Y-92923571D01*
X111450285Y-92995000D01*
X111307428Y-93137857D01*
X111236000Y-93280714D01*
X111164571Y-93566428D01*
X111164571Y-93780714D01*
X111236000Y-94066428D01*
X111307428Y-94209285D01*
X111450285Y-94352142D01*
X111664571Y-94423571D01*
X112021714Y-94423571D01*
X110521714Y-94423571D02*
X110521714Y-92923571D01*
X109878857Y-94352142D02*
X109664571Y-94423571D01*
X109307428Y-94423571D01*
X109164571Y-94352142D01*
X109093142Y-94280714D01*
X109021714Y-94137857D01*
X109021714Y-93995000D01*
X109093142Y-93852142D01*
X109164571Y-93780714D01*
X109307428Y-93709285D01*
X109593142Y-93637857D01*
X109736000Y-93566428D01*
X109807428Y-93495000D01*
X109878857Y-93352142D01*
X109878857Y-93209285D01*
X109807428Y-93066428D01*
X109736000Y-92995000D01*
X109593142Y-92923571D01*
X109236000Y-92923571D01*
X109021714Y-92995000D01*
X108378857Y-94423571D02*
X108378857Y-92923571D01*
X107807428Y-92923571D01*
X107664571Y-92995000D01*
X107593142Y-93066428D01*
X107521714Y-93209285D01*
X107521714Y-93423571D01*
X107593142Y-93566428D01*
X107664571Y-93637857D01*
X107807428Y-93709285D01*
X108378857Y-93709285D01*
D10*
X106774571Y-98478142D02*
X107374571Y-98478142D01*
X107374571Y-98335285D01*
X107346000Y-98249571D01*
X107288857Y-98192428D01*
X107231714Y-98163857D01*
X107117428Y-98135285D01*
X107031714Y-98135285D01*
X106917428Y-98163857D01*
X106860285Y-98192428D01*
X106803142Y-98249571D01*
X106774571Y-98335285D01*
X106774571Y-98478142D01*
X106774571Y-97878142D02*
X107374571Y-97878142D01*
X107346000Y-97278142D02*
X107374571Y-97335285D01*
X107374571Y-97421000D01*
X107346000Y-97506714D01*
X107288857Y-97563857D01*
X107231714Y-97592428D01*
X107117428Y-97621000D01*
X107031714Y-97621000D01*
X106917428Y-97592428D01*
X106860285Y-97563857D01*
X106803142Y-97506714D01*
X106774571Y-97421000D01*
X106774571Y-97363857D01*
X106803142Y-97278142D01*
X106831714Y-97249571D01*
X107031714Y-97249571D01*
X107031714Y-97363857D01*
X107374571Y-96878142D02*
X107374571Y-96821000D01*
X107346000Y-96763857D01*
X107317428Y-96735285D01*
X107260285Y-96706714D01*
X107146000Y-96678142D01*
X107003142Y-96678142D01*
X106888857Y-96706714D01*
X106831714Y-96735285D01*
X106803142Y-96763857D01*
X106774571Y-96821000D01*
X106774571Y-96878142D01*
X106803142Y-96935285D01*
X106831714Y-96963857D01*
X106888857Y-96992428D01*
X107003142Y-97021000D01*
X107146000Y-97021000D01*
X107260285Y-96992428D01*
X107317428Y-96963857D01*
X107346000Y-96935285D01*
X107374571Y-96878142D01*
D12*
X119544285Y-110715000D02*
X119572857Y-110686428D01*
X119601428Y-110600714D01*
X119601428Y-110543571D01*
X119572857Y-110457857D01*
X119515714Y-110400714D01*
X119458571Y-110372142D01*
X119344285Y-110343571D01*
X119258571Y-110343571D01*
X119144285Y-110372142D01*
X119087142Y-110400714D01*
X119030000Y-110457857D01*
X119001428Y-110543571D01*
X119001428Y-110600714D01*
X119030000Y-110686428D01*
X119058571Y-110715000D01*
X119544285Y-111315000D02*
X119572857Y-111286428D01*
X119601428Y-111200714D01*
X119601428Y-111143571D01*
X119572857Y-111057857D01*
X119515714Y-111000714D01*
X119458571Y-110972142D01*
X119344285Y-110943571D01*
X119258571Y-110943571D01*
X119144285Y-110972142D01*
X119087142Y-111000714D01*
X119030000Y-111057857D01*
X119001428Y-111143571D01*
X119001428Y-111200714D01*
X119030000Y-111286428D01*
X119058571Y-111315000D01*
X119287142Y-112229285D02*
X119315714Y-112315000D01*
X119344285Y-112343571D01*
X119401428Y-112372142D01*
X119487142Y-112372142D01*
X119544285Y-112343571D01*
X119572857Y-112315000D01*
X119601428Y-112257857D01*
X119601428Y-112029285D01*
X119001428Y-112029285D01*
X119001428Y-112229285D01*
X119030000Y-112286428D01*
X119058571Y-112315000D01*
X119115714Y-112343571D01*
X119172857Y-112343571D01*
X119230000Y-112315000D01*
X119258571Y-112286428D01*
X119287142Y-112229285D01*
X119287142Y-112029285D01*
X119315714Y-112743571D02*
X119601428Y-112743571D01*
X119001428Y-112543571D02*
X119315714Y-112743571D01*
X119001428Y-112943571D01*
X119372857Y-113143571D02*
X119372857Y-113600714D01*
X119601428Y-113886428D02*
X119001428Y-113886428D01*
X119601428Y-114229285D01*
X119001428Y-114229285D01*
X119544285Y-114857857D02*
X119572857Y-114829285D01*
X119601428Y-114743571D01*
X119601428Y-114686428D01*
X119572857Y-114600714D01*
X119515714Y-114543571D01*
X119458571Y-114515000D01*
X119344285Y-114486428D01*
X119258571Y-114486428D01*
X119144285Y-114515000D01*
X119087142Y-114543571D01*
X119030000Y-114600714D01*
X119001428Y-114686428D01*
X119001428Y-114743571D01*
X119030000Y-114829285D01*
X119058571Y-114857857D01*
X119372857Y-115115000D02*
X119372857Y-115572142D01*
X119572857Y-115829285D02*
X119601428Y-115915000D01*
X119601428Y-116057857D01*
X119572857Y-116115000D01*
X119544285Y-116143571D01*
X119487142Y-116172142D01*
X119430000Y-116172142D01*
X119372857Y-116143571D01*
X119344285Y-116115000D01*
X119315714Y-116057857D01*
X119287142Y-115943571D01*
X119258571Y-115886428D01*
X119230000Y-115857857D01*
X119172857Y-115829285D01*
X119115714Y-115829285D01*
X119058571Y-115857857D01*
X119030000Y-115886428D01*
X119001428Y-115943571D01*
X119001428Y-116086428D01*
X119030000Y-116172142D01*
X119430000Y-116400714D02*
X119430000Y-116686428D01*
X119601428Y-116343571D02*
X119001428Y-116543571D01*
X119601428Y-116743571D01*
X120051428Y-108386428D02*
X120651428Y-108529285D01*
X120222857Y-108643571D01*
X120651428Y-108757857D01*
X120051428Y-108900714D01*
X120051428Y-109072142D02*
X120651428Y-109215000D01*
X120222857Y-109329285D01*
X120651428Y-109443571D01*
X120051428Y-109586428D01*
X120051428Y-109757857D02*
X120651428Y-109900714D01*
X120222857Y-110015000D01*
X120651428Y-110129285D01*
X120051428Y-110272142D01*
X120594285Y-110500714D02*
X120622857Y-110529285D01*
X120651428Y-110500714D01*
X120622857Y-110472142D01*
X120594285Y-110500714D01*
X120651428Y-110500714D01*
X120051428Y-110900714D02*
X120051428Y-111015000D01*
X120080000Y-111072142D01*
X120137142Y-111129285D01*
X120251428Y-111157857D01*
X120451428Y-111157857D01*
X120565714Y-111129285D01*
X120622857Y-111072142D01*
X120651428Y-111015000D01*
X120651428Y-110900714D01*
X120622857Y-110843571D01*
X120565714Y-110786428D01*
X120451428Y-110757857D01*
X120251428Y-110757857D01*
X120137142Y-110786428D01*
X120080000Y-110843571D01*
X120051428Y-110900714D01*
X120651428Y-111415000D02*
X120051428Y-111415000D01*
X120051428Y-111643571D01*
X120080000Y-111700714D01*
X120108571Y-111729285D01*
X120165714Y-111757857D01*
X120251428Y-111757857D01*
X120308571Y-111729285D01*
X120337142Y-111700714D01*
X120365714Y-111643571D01*
X120365714Y-111415000D01*
X120337142Y-112015000D02*
X120337142Y-112215000D01*
X120651428Y-112300714D02*
X120651428Y-112015000D01*
X120051428Y-112015000D01*
X120051428Y-112300714D01*
X120651428Y-112557857D02*
X120051428Y-112557857D01*
X120651428Y-112900714D01*
X120051428Y-112900714D01*
X120651428Y-113186428D02*
X120051428Y-113186428D01*
X120337142Y-113186428D02*
X120337142Y-113529285D01*
X120651428Y-113529285D02*
X120051428Y-113529285D01*
X120051428Y-113929285D02*
X120051428Y-114043571D01*
X120080000Y-114100714D01*
X120137142Y-114157857D01*
X120251428Y-114186428D01*
X120451428Y-114186428D01*
X120565714Y-114157857D01*
X120622857Y-114100714D01*
X120651428Y-114043571D01*
X120651428Y-113929285D01*
X120622857Y-113872142D01*
X120565714Y-113815000D01*
X120451428Y-113786428D01*
X120251428Y-113786428D01*
X120137142Y-113815000D01*
X120080000Y-113872142D01*
X120051428Y-113929285D01*
X120651428Y-114786428D02*
X120365714Y-114586428D01*
X120651428Y-114443571D02*
X120051428Y-114443571D01*
X120051428Y-114672142D01*
X120080000Y-114729285D01*
X120108571Y-114757857D01*
X120165714Y-114786428D01*
X120251428Y-114786428D01*
X120308571Y-114757857D01*
X120337142Y-114729285D01*
X120365714Y-114672142D01*
X120365714Y-114443571D01*
X120651428Y-115043571D02*
X120051428Y-115043571D01*
X120651428Y-115386428D01*
X120051428Y-115386428D01*
X120337142Y-115672142D02*
X120337142Y-115872142D01*
X120651428Y-115957857D02*
X120651428Y-115672142D01*
X120051428Y-115672142D01*
X120051428Y-115957857D01*
X120051428Y-116129285D02*
X120051428Y-116472142D01*
X120651428Y-116300714D02*
X120051428Y-116300714D01*
X120594285Y-116672142D02*
X120622857Y-116700714D01*
X120651428Y-116672142D01*
X120622857Y-116643571D01*
X120594285Y-116672142D01*
X120651428Y-116672142D01*
X120594285Y-117300714D02*
X120622857Y-117272142D01*
X120651428Y-117186428D01*
X120651428Y-117129285D01*
X120622857Y-117043571D01*
X120565714Y-116986428D01*
X120508571Y-116957857D01*
X120394285Y-116929285D01*
X120308571Y-116929285D01*
X120194285Y-116957857D01*
X120137142Y-116986428D01*
X120080000Y-117043571D01*
X120051428Y-117129285D01*
X120051428Y-117186428D01*
X120080000Y-117272142D01*
X120108571Y-117300714D01*
X120051428Y-117672142D02*
X120051428Y-117786428D01*
X120080000Y-117843571D01*
X120137142Y-117900714D01*
X120251428Y-117929285D01*
X120451428Y-117929285D01*
X120565714Y-117900714D01*
X120622857Y-117843571D01*
X120651428Y-117786428D01*
X120651428Y-117672142D01*
X120622857Y-117615000D01*
X120565714Y-117557857D01*
X120451428Y-117529285D01*
X120251428Y-117529285D01*
X120137142Y-117557857D01*
X120080000Y-117615000D01*
X120051428Y-117672142D01*
X120651428Y-118186428D02*
X120051428Y-118186428D01*
X120480000Y-118386428D01*
X120051428Y-118586428D01*
X120651428Y-118586428D01*
X121701428Y-108957857D02*
X121101428Y-108957857D01*
X121530000Y-109157857D01*
X121101428Y-109357857D01*
X121701428Y-109357857D01*
X121101428Y-109757857D02*
X121101428Y-109872142D01*
X121130000Y-109929285D01*
X121187142Y-109986428D01*
X121301428Y-110015000D01*
X121501428Y-110015000D01*
X121615714Y-109986428D01*
X121672857Y-109929285D01*
X121701428Y-109872142D01*
X121701428Y-109757857D01*
X121672857Y-109700714D01*
X121615714Y-109643571D01*
X121501428Y-109615000D01*
X121301428Y-109615000D01*
X121187142Y-109643571D01*
X121130000Y-109700714D01*
X121101428Y-109757857D01*
X121701428Y-110272142D02*
X121101428Y-110272142D01*
X121101428Y-110415000D01*
X121130000Y-110500714D01*
X121187142Y-110557857D01*
X121244285Y-110586428D01*
X121358571Y-110615000D01*
X121444285Y-110615000D01*
X121558571Y-110586428D01*
X121615714Y-110557857D01*
X121672857Y-110500714D01*
X121701428Y-110415000D01*
X121701428Y-110272142D01*
X121701428Y-110872142D02*
X121101428Y-110872142D01*
X121387142Y-111357857D02*
X121387142Y-111157857D01*
X121701428Y-111157857D02*
X121101428Y-111157857D01*
X121101428Y-111443571D01*
X121701428Y-111672142D02*
X121101428Y-111672142D01*
X121387142Y-111957857D02*
X121387142Y-112157857D01*
X121701428Y-112243571D02*
X121701428Y-111957857D01*
X121101428Y-111957857D01*
X121101428Y-112243571D01*
X121701428Y-112500714D02*
X121101428Y-112500714D01*
X121101428Y-112643571D01*
X121130000Y-112729285D01*
X121187142Y-112786428D01*
X121244285Y-112815000D01*
X121358571Y-112843571D01*
X121444285Y-112843571D01*
X121558571Y-112815000D01*
X121615714Y-112786428D01*
X121672857Y-112729285D01*
X121701428Y-112643571D01*
X121701428Y-112500714D01*
X121387142Y-113757857D02*
X121415714Y-113843571D01*
X121444285Y-113872142D01*
X121501428Y-113900714D01*
X121587142Y-113900714D01*
X121644285Y-113872142D01*
X121672857Y-113843571D01*
X121701428Y-113786428D01*
X121701428Y-113557857D01*
X121101428Y-113557857D01*
X121101428Y-113757857D01*
X121130000Y-113815000D01*
X121158571Y-113843571D01*
X121215714Y-113872142D01*
X121272857Y-113872142D01*
X121330000Y-113843571D01*
X121358571Y-113815000D01*
X121387142Y-113757857D01*
X121387142Y-113557857D01*
X121415714Y-114272142D02*
X121701428Y-114272142D01*
X121101428Y-114072142D02*
X121415714Y-114272142D01*
X121101428Y-114472142D01*
X121530000Y-115100714D02*
X121530000Y-115386428D01*
X121701428Y-115043571D02*
X121101428Y-115243571D01*
X121701428Y-115443571D01*
X121701428Y-115929285D02*
X121701428Y-115643571D01*
X121101428Y-115643571D01*
X121530000Y-116100714D02*
X121530000Y-116386428D01*
X121701428Y-116043571D02*
X121101428Y-116243571D01*
X121701428Y-116443571D01*
X121701428Y-116643571D02*
X121101428Y-116643571D01*
X121701428Y-116986428D01*
X121101428Y-116986428D01*
X121701428Y-117729285D02*
X121101428Y-117729285D01*
X121387142Y-117729285D02*
X121387142Y-118072142D01*
X121701428Y-118072142D02*
X121101428Y-118072142D01*
D13*
X107832380Y-107657857D02*
X108641904Y-107657857D01*
X108737142Y-107705476D01*
X108784761Y-107753095D01*
X108832380Y-107848333D01*
X108832380Y-108038809D01*
X108784761Y-108134047D01*
X108737142Y-108181666D01*
X108641904Y-108229285D01*
X107832380Y-108229285D01*
X108308571Y-109038809D02*
X108308571Y-108705476D01*
X108832380Y-108705476D02*
X107832380Y-108705476D01*
X107832380Y-109181666D01*
X108737142Y-110134047D02*
X108784761Y-110086428D01*
X108832380Y-109943571D01*
X108832380Y-109848333D01*
X108784761Y-109705476D01*
X108689523Y-109610238D01*
X108594285Y-109562619D01*
X108403809Y-109515000D01*
X108260952Y-109515000D01*
X108070476Y-109562619D01*
X107975238Y-109610238D01*
X107880000Y-109705476D01*
X107832380Y-109848333D01*
X107832380Y-109943571D01*
X107880000Y-110086428D01*
X107927619Y-110134047D01*
X108737142Y-111895952D02*
X108784761Y-111848333D01*
X108832380Y-111705476D01*
X108832380Y-111610238D01*
X108784761Y-111467380D01*
X108689523Y-111372142D01*
X108594285Y-111324523D01*
X108403809Y-111276904D01*
X108260952Y-111276904D01*
X108070476Y-111324523D01*
X107975238Y-111372142D01*
X107880000Y-111467380D01*
X107832380Y-111610238D01*
X107832380Y-111705476D01*
X107880000Y-111848333D01*
X107927619Y-111895952D01*
X107832380Y-112515000D02*
X107832380Y-112705476D01*
X107880000Y-112800714D01*
X107975238Y-112895952D01*
X108165714Y-112943571D01*
X108499047Y-112943571D01*
X108689523Y-112895952D01*
X108784761Y-112800714D01*
X108832380Y-112705476D01*
X108832380Y-112515000D01*
X108784761Y-112419761D01*
X108689523Y-112324523D01*
X108499047Y-112276904D01*
X108165714Y-112276904D01*
X107975238Y-112324523D01*
X107880000Y-112419761D01*
X107832380Y-112515000D01*
X108832380Y-113372142D02*
X107832380Y-113372142D01*
X108546666Y-113705476D01*
X107832380Y-114038809D01*
X108832380Y-114038809D01*
X108832380Y-114515000D02*
X107832380Y-114515000D01*
X108546666Y-114848333D01*
X107832380Y-115181666D01*
X108832380Y-115181666D01*
X108832380Y-116419761D02*
X107832380Y-116419761D01*
X107832380Y-116657857D01*
X107880000Y-116800714D01*
X107975238Y-116895952D01*
X108070476Y-116943571D01*
X108260952Y-116991190D01*
X108403809Y-116991190D01*
X108594285Y-116943571D01*
X108689523Y-116895952D01*
X108784761Y-116800714D01*
X108832380Y-116657857D01*
X108832380Y-116419761D01*
X108832380Y-117419761D02*
X107832380Y-117419761D01*
X108784761Y-117848333D02*
X108832380Y-117991190D01*
X108832380Y-118229285D01*
X108784761Y-118324523D01*
X108737142Y-118372142D01*
X108641904Y-118419761D01*
X108546666Y-118419761D01*
X108451428Y-118372142D01*
X108403809Y-118324523D01*
X108356190Y-118229285D01*
X108308571Y-118038809D01*
X108260952Y-117943571D01*
X108213333Y-117895952D01*
X108118095Y-117848333D01*
X108022857Y-117848333D01*
X107927619Y-117895952D01*
X107880000Y-117943571D01*
X107832380Y-118038809D01*
X107832380Y-118276904D01*
X107880000Y-118419761D01*
X108832380Y-118848333D02*
X107832380Y-118848333D01*
X107832380Y-119229285D01*
X107880000Y-119324523D01*
X107927619Y-119372142D01*
X108022857Y-119419761D01*
X108165714Y-119419761D01*
X108260952Y-119372142D01*
X108308571Y-119324523D01*
X108356190Y-119229285D01*
X108356190Y-118848333D01*
D12*
X146694285Y-110715000D02*
X146722857Y-110686428D01*
X146751428Y-110600714D01*
X146751428Y-110543571D01*
X146722857Y-110457857D01*
X146665714Y-110400714D01*
X146608571Y-110372142D01*
X146494285Y-110343571D01*
X146408571Y-110343571D01*
X146294285Y-110372142D01*
X146237142Y-110400714D01*
X146180000Y-110457857D01*
X146151428Y-110543571D01*
X146151428Y-110600714D01*
X146180000Y-110686428D01*
X146208571Y-110715000D01*
X146694285Y-111315000D02*
X146722857Y-111286428D01*
X146751428Y-111200714D01*
X146751428Y-111143571D01*
X146722857Y-111057857D01*
X146665714Y-111000714D01*
X146608571Y-110972142D01*
X146494285Y-110943571D01*
X146408571Y-110943571D01*
X146294285Y-110972142D01*
X146237142Y-111000714D01*
X146180000Y-111057857D01*
X146151428Y-111143571D01*
X146151428Y-111200714D01*
X146180000Y-111286428D01*
X146208571Y-111315000D01*
X146437142Y-112229285D02*
X146465714Y-112315000D01*
X146494285Y-112343571D01*
X146551428Y-112372142D01*
X146637142Y-112372142D01*
X146694285Y-112343571D01*
X146722857Y-112315000D01*
X146751428Y-112257857D01*
X146751428Y-112029285D01*
X146151428Y-112029285D01*
X146151428Y-112229285D01*
X146180000Y-112286428D01*
X146208571Y-112315000D01*
X146265714Y-112343571D01*
X146322857Y-112343571D01*
X146380000Y-112315000D01*
X146408571Y-112286428D01*
X146437142Y-112229285D01*
X146437142Y-112029285D01*
X146465714Y-112743571D02*
X146751428Y-112743571D01*
X146151428Y-112543571D02*
X146465714Y-112743571D01*
X146151428Y-112943571D01*
X146522857Y-113143571D02*
X146522857Y-113600714D01*
X146751428Y-113886428D02*
X146151428Y-113886428D01*
X146751428Y-114229285D01*
X146151428Y-114229285D01*
X146694285Y-114857857D02*
X146722857Y-114829285D01*
X146751428Y-114743571D01*
X146751428Y-114686428D01*
X146722857Y-114600714D01*
X146665714Y-114543571D01*
X146608571Y-114515000D01*
X146494285Y-114486428D01*
X146408571Y-114486428D01*
X146294285Y-114515000D01*
X146237142Y-114543571D01*
X146180000Y-114600714D01*
X146151428Y-114686428D01*
X146151428Y-114743571D01*
X146180000Y-114829285D01*
X146208571Y-114857857D01*
X146522857Y-115115000D02*
X146522857Y-115572142D01*
X146722857Y-115829285D02*
X146751428Y-115915000D01*
X146751428Y-116057857D01*
X146722857Y-116115000D01*
X146694285Y-116143571D01*
X146637142Y-116172142D01*
X146580000Y-116172142D01*
X146522857Y-116143571D01*
X146494285Y-116115000D01*
X146465714Y-116057857D01*
X146437142Y-115943571D01*
X146408571Y-115886428D01*
X146380000Y-115857857D01*
X146322857Y-115829285D01*
X146265714Y-115829285D01*
X146208571Y-115857857D01*
X146180000Y-115886428D01*
X146151428Y-115943571D01*
X146151428Y-116086428D01*
X146180000Y-116172142D01*
X146580000Y-116400714D02*
X146580000Y-116686428D01*
X146751428Y-116343571D02*
X146151428Y-116543571D01*
X146751428Y-116743571D01*
X147201428Y-108386428D02*
X147801428Y-108529285D01*
X147372857Y-108643571D01*
X147801428Y-108757857D01*
X147201428Y-108900714D01*
X147201428Y-109072142D02*
X147801428Y-109215000D01*
X147372857Y-109329285D01*
X147801428Y-109443571D01*
X147201428Y-109586428D01*
X147201428Y-109757857D02*
X147801428Y-109900714D01*
X147372857Y-110015000D01*
X147801428Y-110129285D01*
X147201428Y-110272142D01*
X147744285Y-110500714D02*
X147772857Y-110529285D01*
X147801428Y-110500714D01*
X147772857Y-110472142D01*
X147744285Y-110500714D01*
X147801428Y-110500714D01*
X147201428Y-110900714D02*
X147201428Y-111015000D01*
X147230000Y-111072142D01*
X147287142Y-111129285D01*
X147401428Y-111157857D01*
X147601428Y-111157857D01*
X147715714Y-111129285D01*
X147772857Y-111072142D01*
X147801428Y-111015000D01*
X147801428Y-110900714D01*
X147772857Y-110843571D01*
X147715714Y-110786428D01*
X147601428Y-110757857D01*
X147401428Y-110757857D01*
X147287142Y-110786428D01*
X147230000Y-110843571D01*
X147201428Y-110900714D01*
X147801428Y-111415000D02*
X147201428Y-111415000D01*
X147201428Y-111643571D01*
X147230000Y-111700714D01*
X147258571Y-111729285D01*
X147315714Y-111757857D01*
X147401428Y-111757857D01*
X147458571Y-111729285D01*
X147487142Y-111700714D01*
X147515714Y-111643571D01*
X147515714Y-111415000D01*
X147487142Y-112015000D02*
X147487142Y-112215000D01*
X147801428Y-112300714D02*
X147801428Y-112015000D01*
X147201428Y-112015000D01*
X147201428Y-112300714D01*
X147801428Y-112557857D02*
X147201428Y-112557857D01*
X147801428Y-112900714D01*
X147201428Y-112900714D01*
X147801428Y-113186428D02*
X147201428Y-113186428D01*
X147487142Y-113186428D02*
X147487142Y-113529285D01*
X147801428Y-113529285D02*
X147201428Y-113529285D01*
X147201428Y-113929285D02*
X147201428Y-114043571D01*
X147230000Y-114100714D01*
X147287142Y-114157857D01*
X147401428Y-114186428D01*
X147601428Y-114186428D01*
X147715714Y-114157857D01*
X147772857Y-114100714D01*
X147801428Y-114043571D01*
X147801428Y-113929285D01*
X147772857Y-113872142D01*
X147715714Y-113814999D01*
X147601428Y-113786428D01*
X147401428Y-113786428D01*
X147287142Y-113814999D01*
X147230000Y-113872142D01*
X147201428Y-113929285D01*
X147801428Y-114786428D02*
X147515714Y-114586428D01*
X147801428Y-114443571D02*
X147201428Y-114443571D01*
X147201428Y-114672142D01*
X147230000Y-114729285D01*
X147258571Y-114757857D01*
X147315714Y-114786428D01*
X147401428Y-114786428D01*
X147458571Y-114757857D01*
X147487142Y-114729285D01*
X147515714Y-114672142D01*
X147515714Y-114443571D01*
X147801428Y-115043571D02*
X147201428Y-115043571D01*
X147801428Y-115386428D01*
X147201428Y-115386428D01*
X147487142Y-115672142D02*
X147487142Y-115872142D01*
X147801428Y-115957857D02*
X147801428Y-115672142D01*
X147201428Y-115672142D01*
X147201428Y-115957857D01*
X147201428Y-116129285D02*
X147201428Y-116472142D01*
X147801428Y-116300714D02*
X147201428Y-116300714D01*
X147744285Y-116672142D02*
X147772857Y-116700714D01*
X147801428Y-116672142D01*
X147772857Y-116643571D01*
X147744285Y-116672142D01*
X147801428Y-116672142D01*
X147744285Y-117300714D02*
X147772857Y-117272142D01*
X147801428Y-117186428D01*
X147801428Y-117129285D01*
X147772857Y-117043571D01*
X147715714Y-116986428D01*
X147658571Y-116957857D01*
X147544285Y-116929285D01*
X147458571Y-116929285D01*
X147344285Y-116957857D01*
X147287142Y-116986428D01*
X147230000Y-117043571D01*
X147201428Y-117129285D01*
X147201428Y-117186428D01*
X147230000Y-117272142D01*
X147258571Y-117300714D01*
X147201428Y-117672142D02*
X147201428Y-117786428D01*
X147230000Y-117843571D01*
X147287142Y-117900714D01*
X147401428Y-117929285D01*
X147601428Y-117929285D01*
X147715714Y-117900714D01*
X147772857Y-117843571D01*
X147801428Y-117786428D01*
X147801428Y-117672142D01*
X147772857Y-117614999D01*
X147715714Y-117557857D01*
X147601428Y-117529285D01*
X147401428Y-117529285D01*
X147287142Y-117557857D01*
X147230000Y-117614999D01*
X147201428Y-117672142D01*
X147801428Y-118186428D02*
X147201428Y-118186428D01*
X147630000Y-118386428D01*
X147201428Y-118586428D01*
X147801428Y-118586428D01*
X148851428Y-108957857D02*
X148251428Y-108957857D01*
X148680000Y-109157857D01*
X148251428Y-109357857D01*
X148851428Y-109357857D01*
X148251428Y-109757857D02*
X148251428Y-109872142D01*
X148280000Y-109929285D01*
X148337142Y-109986428D01*
X148451428Y-110015000D01*
X148651428Y-110015000D01*
X148765714Y-109986428D01*
X148822857Y-109929285D01*
X148851428Y-109872142D01*
X148851428Y-109757857D01*
X148822857Y-109700714D01*
X148765714Y-109643571D01*
X148651428Y-109615000D01*
X148451428Y-109615000D01*
X148337142Y-109643571D01*
X148280000Y-109700714D01*
X148251428Y-109757857D01*
X148851428Y-110272142D02*
X148251428Y-110272142D01*
X148251428Y-110415000D01*
X148280000Y-110500714D01*
X148337142Y-110557857D01*
X148394285Y-110586428D01*
X148508571Y-110615000D01*
X148594285Y-110615000D01*
X148708571Y-110586428D01*
X148765714Y-110557857D01*
X148822857Y-110500714D01*
X148851428Y-110415000D01*
X148851428Y-110272142D01*
X148851428Y-110872142D02*
X148251428Y-110872142D01*
X148537142Y-111357857D02*
X148537142Y-111157857D01*
X148851428Y-111157857D02*
X148251428Y-111157857D01*
X148251428Y-111443571D01*
X148851428Y-111672142D02*
X148251428Y-111672142D01*
X148537142Y-111957857D02*
X148537142Y-112157857D01*
X148851428Y-112243571D02*
X148851428Y-111957857D01*
X148251428Y-111957857D01*
X148251428Y-112243571D01*
X148851428Y-112500714D02*
X148251428Y-112500714D01*
X148251428Y-112643571D01*
X148280000Y-112729285D01*
X148337142Y-112786428D01*
X148394285Y-112815000D01*
X148508571Y-112843571D01*
X148594285Y-112843571D01*
X148708571Y-112815000D01*
X148765714Y-112786428D01*
X148822857Y-112729285D01*
X148851428Y-112643571D01*
X148851428Y-112500714D01*
X148537142Y-113757857D02*
X148565714Y-113843571D01*
X148594285Y-113872142D01*
X148651428Y-113900714D01*
X148737142Y-113900714D01*
X148794285Y-113872142D01*
X148822857Y-113843571D01*
X148851428Y-113786428D01*
X148851428Y-113557857D01*
X148251428Y-113557857D01*
X148251428Y-113757857D01*
X148280000Y-113815000D01*
X148308571Y-113843571D01*
X148365714Y-113872142D01*
X148422857Y-113872142D01*
X148480000Y-113843571D01*
X148508571Y-113815000D01*
X148537142Y-113757857D01*
X148537142Y-113557857D01*
X148565714Y-114272142D02*
X148851428Y-114272142D01*
X148251428Y-114072142D02*
X148565714Y-114272142D01*
X148251428Y-114472142D01*
X148680000Y-115100714D02*
X148680000Y-115386428D01*
X148851428Y-115043571D02*
X148251428Y-115243571D01*
X148851428Y-115443571D01*
X148851428Y-115929285D02*
X148851428Y-115643571D01*
X148251428Y-115643571D01*
X148680000Y-116100714D02*
X148680000Y-116386428D01*
X148851428Y-116043571D02*
X148251428Y-116243571D01*
X148851428Y-116443571D01*
X148851428Y-116643571D02*
X148251428Y-116643571D01*
X148851428Y-116986428D01*
X148251428Y-116986428D01*
X148851428Y-117729285D02*
X148251428Y-117729285D01*
X148537142Y-117729285D02*
X148537142Y-118072142D01*
X148851428Y-118072142D02*
X148251428Y-118072142D01*
D13*
X134982380Y-107657857D02*
X135791904Y-107657857D01*
X135887142Y-107705476D01*
X135934761Y-107753095D01*
X135982380Y-107848333D01*
X135982380Y-108038809D01*
X135934761Y-108134047D01*
X135887142Y-108181666D01*
X135791904Y-108229285D01*
X134982380Y-108229285D01*
X135458571Y-109038809D02*
X135458571Y-108705476D01*
X135982380Y-108705476D02*
X134982380Y-108705476D01*
X134982380Y-109181666D01*
X135887142Y-110134047D02*
X135934761Y-110086428D01*
X135982380Y-109943571D01*
X135982380Y-109848333D01*
X135934761Y-109705476D01*
X135839523Y-109610238D01*
X135744285Y-109562619D01*
X135553809Y-109515000D01*
X135410952Y-109515000D01*
X135220476Y-109562619D01*
X135125238Y-109610238D01*
X135030000Y-109705476D01*
X134982380Y-109848333D01*
X134982380Y-109943571D01*
X135030000Y-110086428D01*
X135077619Y-110134047D01*
X135887142Y-111895952D02*
X135934761Y-111848333D01*
X135982380Y-111705476D01*
X135982380Y-111610238D01*
X135934761Y-111467380D01*
X135839523Y-111372142D01*
X135744285Y-111324523D01*
X135553809Y-111276904D01*
X135410952Y-111276904D01*
X135220476Y-111324523D01*
X135125238Y-111372142D01*
X135030000Y-111467380D01*
X134982380Y-111610238D01*
X134982380Y-111705476D01*
X135030000Y-111848333D01*
X135077619Y-111895952D01*
X134982380Y-112515000D02*
X134982380Y-112705476D01*
X135030000Y-112800714D01*
X135125238Y-112895952D01*
X135315714Y-112943571D01*
X135649047Y-112943571D01*
X135839523Y-112895952D01*
X135934761Y-112800714D01*
X135982380Y-112705476D01*
X135982380Y-112515000D01*
X135934761Y-112419761D01*
X135839523Y-112324523D01*
X135649047Y-112276904D01*
X135315714Y-112276904D01*
X135125238Y-112324523D01*
X135030000Y-112419761D01*
X134982380Y-112515000D01*
X135982380Y-113372142D02*
X134982380Y-113372142D01*
X135696666Y-113705476D01*
X134982380Y-114038809D01*
X135982380Y-114038809D01*
X135982380Y-114515000D02*
X134982380Y-114515000D01*
X135696666Y-114848333D01*
X134982380Y-115181666D01*
X135982380Y-115181666D01*
X135982380Y-116419761D02*
X134982380Y-116419761D01*
X134982380Y-116657857D01*
X135030000Y-116800714D01*
X135125238Y-116895952D01*
X135220476Y-116943571D01*
X135410952Y-116991190D01*
X135553809Y-116991190D01*
X135744285Y-116943571D01*
X135839523Y-116895952D01*
X135934761Y-116800714D01*
X135982380Y-116657857D01*
X135982380Y-116419761D01*
X135982380Y-117419761D02*
X134982380Y-117419761D01*
X135934761Y-117848333D02*
X135982380Y-117991190D01*
X135982380Y-118229285D01*
X135934761Y-118324523D01*
X135887142Y-118372142D01*
X135791904Y-118419761D01*
X135696666Y-118419761D01*
X135601428Y-118372142D01*
X135553809Y-118324523D01*
X135506190Y-118229285D01*
X135458571Y-118038809D01*
X135410952Y-117943571D01*
X135363333Y-117895952D01*
X135268095Y-117848333D01*
X135172857Y-117848333D01*
X135077619Y-117895952D01*
X135030000Y-117943571D01*
X134982380Y-118038809D01*
X134982380Y-118276904D01*
X135030000Y-118419761D01*
X135982380Y-118848333D02*
X134982380Y-118848333D01*
X134982380Y-119229285D01*
X135030000Y-119324523D01*
X135077619Y-119372142D01*
X135172857Y-119419761D01*
X135315714Y-119419761D01*
X135410952Y-119372142D01*
X135458571Y-119324523D01*
X135506190Y-119229285D01*
X135506190Y-118848333D01*
M02*
