G04 #@! TF.GenerationSoftware,KiCad,Pcbnew,(5.1.9)-1*
G04 #@! TF.CreationDate,2021-05-14T22:58:58-04:00*
G04 #@! TF.ProjectId,Scratch+Com Panelized,53637261-7463-4682-9b43-6f6d2050616e,rev?*
G04 #@! TF.SameCoordinates,Original*
G04 #@! TF.FileFunction,Other,ECO1*
%FSLAX46Y46*%
G04 Gerber Fmt 4.6, Leading zero omitted, Abs format (unit mm)*
G04 Created by KiCad (PCBNEW (5.1.9)-1) date 2021-05-14 22:58:58*
%MOMM*%
%LPD*%
G01*
G04 APERTURE LIST*
%ADD10C,3.000000*%
G04 APERTURE END LIST*
D10*
X155100000Y-118900000D02*
X155090000Y-103110000D01*
X105910000Y-124000000D02*
X122800000Y-124000000D01*
X100800000Y-108200000D02*
X100800000Y-118900000D01*
X100800000Y-88410000D02*
X100800000Y-98000000D01*
X120190000Y-83300000D02*
X105900000Y-83300000D01*
X138490000Y-83300000D02*
X125200000Y-83300000D01*
X143500000Y-83300000D02*
X143510000Y-83300000D01*
X156690000Y-83300000D02*
X143500000Y-83300000D01*
X157025000Y-83305000D02*
X156690000Y-83300000D01*
X161800000Y-98000000D02*
X161800000Y-88410000D01*
X145710000Y-103100000D02*
X156700000Y-103100000D01*
X133010000Y-103100000D02*
X140700000Y-103100000D01*
X133010000Y-124000000D02*
X149990000Y-124000000D01*
X127900000Y-108200000D02*
X127900000Y-118900000D01*
X105900000Y-103100000D02*
X122800000Y-103100000D01*
X138490000Y-83300000D02*
X138500000Y-83300000D01*
X143510000Y-83300000D02*
X143500000Y-83300000D01*
X120190000Y-83300000D02*
X120200000Y-83300000D01*
X125210000Y-83300000D02*
X125200000Y-83300000D01*
X140690000Y-103100000D02*
X140700000Y-103100000D01*
X145710000Y-103100000D02*
X145700000Y-103100000D01*
X133000000Y-124000000D02*
X133010000Y-124000000D01*
X122790000Y-124000000D02*
X122800000Y-124000000D01*
X127900000Y-118890000D02*
X127900000Y-118900000D01*
X155100000Y-118890000D02*
X155100000Y-118900000D01*
X149990000Y-124000000D02*
X150000000Y-124000000D01*
X105910000Y-124000000D02*
X105900000Y-124000000D01*
X100800000Y-118890000D02*
X100800000Y-118900000D01*
X100800000Y-88410000D02*
X100800000Y-88400000D01*
X105910000Y-83300000D02*
X105900000Y-83300000D01*
X156690000Y-83300000D02*
X156700000Y-83300000D01*
X161800000Y-88410000D02*
X161800000Y-88400000D01*
X161800000Y-97990000D02*
X161800000Y-98000000D01*
X156690000Y-103100000D02*
X156700000Y-103100000D01*
X122800000Y-103100000D02*
X122790000Y-103100000D01*
X133010000Y-103100000D02*
X133000000Y-103100000D01*
X127900000Y-108210000D02*
X127900000Y-108200000D01*
X100800000Y-108200000D02*
X100800000Y-108210000D01*
X100800000Y-97990000D02*
X100800000Y-98000000D01*
X105910000Y-103100000D02*
X105900000Y-103100000D01*
M02*
