G04 #@! TF.GenerationSoftware,KiCad,Pcbnew,(5.1.9)-1*
G04 #@! TF.CreationDate,2021-05-14T22:58:57-04:00*
G04 #@! TF.ProjectId,Scratch+Com Panelized,53637261-7463-4682-9b43-6f6d2050616e,rev?*
G04 #@! TF.SameCoordinates,Original*
G04 #@! TF.FileFunction,Copper,L1,Top*
G04 #@! TF.FilePolarity,Positive*
%FSLAX46Y46*%
G04 Gerber Fmt 4.6, Leading zero omitted, Abs format (unit mm)*
G04 Created by KiCad (PCBNEW (5.1.9)-1) date 2021-05-14 22:58:57*
%MOMM*%
%LPD*%
G01*
G04 APERTURE LIST*
G04 #@! TA.AperFunction,ComponentPad*
%ADD10O,1.700000X1.700000*%
G04 #@! TD*
G04 #@! TA.AperFunction,ComponentPad*
%ADD11R,1.700000X1.700000*%
G04 #@! TD*
G04 #@! TA.AperFunction,ViaPad*
%ADD12C,0.450000*%
G04 #@! TD*
G04 #@! TA.AperFunction,Conductor*
%ADD13C,0.250000*%
G04 #@! TD*
G04 APERTURE END LIST*
D10*
X133843000Y-99842000D03*
X131303000Y-99842000D03*
X128763000Y-99842000D03*
X126223000Y-99842000D03*
D11*
X123683000Y-99842000D03*
D10*
X156449000Y-99842000D03*
X153909000Y-99842000D03*
X151369000Y-99842000D03*
X148829000Y-99842000D03*
X146289000Y-99842000D03*
X143749000Y-99842000D03*
D11*
X141209000Y-99842000D03*
D10*
X156449000Y-86634000D03*
X153909000Y-86634000D03*
X151369000Y-86634000D03*
X148829000Y-86634000D03*
X146289000Y-86634000D03*
X143749000Y-86634000D03*
D11*
X141209000Y-86634000D03*
D10*
X114666000Y-99842000D03*
X112126000Y-99842000D03*
X109586000Y-99842000D03*
D11*
X107046000Y-99842000D03*
D10*
X124826000Y-86634000D03*
X122286000Y-86634000D03*
X119746000Y-86634000D03*
X117206000Y-86634000D03*
X114666000Y-86634000D03*
X112126000Y-86634000D03*
X109586000Y-86634000D03*
D11*
X107046000Y-86634000D03*
G04 #@! TA.AperFunction,SMDPad,CuDef*
G36*
G01*
X116108500Y-91467500D02*
X115763500Y-91467500D01*
G75*
G02*
X115616000Y-91320000I0J147500D01*
G01*
X115616000Y-91025000D01*
G75*
G02*
X115763500Y-90877500I147500J0D01*
G01*
X116108500Y-90877500D01*
G75*
G02*
X116256000Y-91025000I0J-147500D01*
G01*
X116256000Y-91320000D01*
G75*
G02*
X116108500Y-91467500I-147500J0D01*
G01*
G37*
G04 #@! TD.AperFunction*
G04 #@! TA.AperFunction,SMDPad,CuDef*
G36*
G01*
X116108500Y-92437500D02*
X115763500Y-92437500D01*
G75*
G02*
X115616000Y-92290000I0J147500D01*
G01*
X115616000Y-91995000D01*
G75*
G02*
X115763500Y-91847500I147500J0D01*
G01*
X116108500Y-91847500D01*
G75*
G02*
X116256000Y-91995000I0J-147500D01*
G01*
X116256000Y-92290000D01*
G75*
G02*
X116108500Y-92437500I-147500J0D01*
G01*
G37*
G04 #@! TD.AperFunction*
G04 #@! TA.AperFunction,SMDPad,CuDef*
G36*
G01*
X117333500Y-89897500D02*
X117333500Y-90242500D01*
G75*
G02*
X117186000Y-90390000I-147500J0D01*
G01*
X116891000Y-90390000D01*
G75*
G02*
X116743500Y-90242500I0J147500D01*
G01*
X116743500Y-89897500D01*
G75*
G02*
X116891000Y-89750000I147500J0D01*
G01*
X117186000Y-89750000D01*
G75*
G02*
X117333500Y-89897500I0J-147500D01*
G01*
G37*
G04 #@! TD.AperFunction*
G04 #@! TA.AperFunction,SMDPad,CuDef*
G36*
G01*
X118303500Y-89897500D02*
X118303500Y-90242500D01*
G75*
G02*
X118156000Y-90390000I-147500J0D01*
G01*
X117861000Y-90390000D01*
G75*
G02*
X117713500Y-90242500I0J147500D01*
G01*
X117713500Y-89897500D01*
G75*
G02*
X117861000Y-89750000I147500J0D01*
G01*
X118156000Y-89750000D01*
G75*
G02*
X118303500Y-89897500I0J-147500D01*
G01*
G37*
G04 #@! TD.AperFunction*
G04 #@! TA.AperFunction,SMDPad,CuDef*
G36*
G01*
X114158500Y-96247500D02*
X114158500Y-96592500D01*
G75*
G02*
X114011000Y-96740000I-147500J0D01*
G01*
X113716000Y-96740000D01*
G75*
G02*
X113568500Y-96592500I0J147500D01*
G01*
X113568500Y-96247500D01*
G75*
G02*
X113716000Y-96100000I147500J0D01*
G01*
X114011000Y-96100000D01*
G75*
G02*
X114158500Y-96247500I0J-147500D01*
G01*
G37*
G04 #@! TD.AperFunction*
G04 #@! TA.AperFunction,SMDPad,CuDef*
G36*
G01*
X115128500Y-96247500D02*
X115128500Y-96592500D01*
G75*
G02*
X114981000Y-96740000I-147500J0D01*
G01*
X114686000Y-96740000D01*
G75*
G02*
X114538500Y-96592500I0J147500D01*
G01*
X114538500Y-96247500D01*
G75*
G02*
X114686000Y-96100000I147500J0D01*
G01*
X114981000Y-96100000D01*
G75*
G02*
X115128500Y-96247500I0J-147500D01*
G01*
G37*
G04 #@! TD.AperFunction*
G04 #@! TA.AperFunction,SMDPad,CuDef*
G36*
G01*
X114092173Y-94844875D02*
X114336125Y-95088827D01*
G75*
G02*
X114336125Y-95297423I-104298J-104298D01*
G01*
X114127529Y-95506019D01*
G75*
G02*
X113918933Y-95506019I-104298J104298D01*
G01*
X113674981Y-95262067D01*
G75*
G02*
X113674981Y-95053471I104298J104298D01*
G01*
X113883577Y-94844875D01*
G75*
G02*
X114092173Y-94844875I104298J-104298D01*
G01*
G37*
G04 #@! TD.AperFunction*
G04 #@! TA.AperFunction,SMDPad,CuDef*
G36*
G01*
X114778067Y-94158981D02*
X115022019Y-94402933D01*
G75*
G02*
X115022019Y-94611529I-104298J-104298D01*
G01*
X114813423Y-94820125D01*
G75*
G02*
X114604827Y-94820125I-104298J104298D01*
G01*
X114360875Y-94576173D01*
G75*
G02*
X114360875Y-94367577I104298J104298D01*
G01*
X114569471Y-94158981D01*
G75*
G02*
X114778067Y-94158981I104298J-104298D01*
G01*
G37*
G04 #@! TD.AperFunction*
G04 #@! TA.AperFunction,SMDPad,CuDef*
G36*
G01*
X117333500Y-93072500D02*
X117333500Y-93417500D01*
G75*
G02*
X117186000Y-93565000I-147500J0D01*
G01*
X116891000Y-93565000D01*
G75*
G02*
X116743500Y-93417500I0J147500D01*
G01*
X116743500Y-93072500D01*
G75*
G02*
X116891000Y-92925000I147500J0D01*
G01*
X117186000Y-92925000D01*
G75*
G02*
X117333500Y-93072500I0J-147500D01*
G01*
G37*
G04 #@! TD.AperFunction*
G04 #@! TA.AperFunction,SMDPad,CuDef*
G36*
G01*
X118303500Y-93072500D02*
X118303500Y-93417500D01*
G75*
G02*
X118156000Y-93565000I-147500J0D01*
G01*
X117861000Y-93565000D01*
G75*
G02*
X117713500Y-93417500I0J147500D01*
G01*
X117713500Y-93072500D01*
G75*
G02*
X117861000Y-92925000I147500J0D01*
G01*
X118156000Y-92925000D01*
G75*
G02*
X118303500Y-93072500I0J-147500D01*
G01*
G37*
G04 #@! TD.AperFunction*
G04 #@! TA.AperFunction,SMDPad,CuDef*
G36*
G01*
X117511125Y-94576173D02*
X117267173Y-94820125D01*
G75*
G02*
X117058577Y-94820125I-104298J104298D01*
G01*
X116849981Y-94611529D01*
G75*
G02*
X116849981Y-94402933I104298J104298D01*
G01*
X117093933Y-94158981D01*
G75*
G02*
X117302529Y-94158981I104298J-104298D01*
G01*
X117511125Y-94367577D01*
G75*
G02*
X117511125Y-94576173I-104298J-104298D01*
G01*
G37*
G04 #@! TD.AperFunction*
G04 #@! TA.AperFunction,SMDPad,CuDef*
G36*
G01*
X118197019Y-95262067D02*
X117953067Y-95506019D01*
G75*
G02*
X117744471Y-95506019I-104298J104298D01*
G01*
X117535875Y-95297423D01*
G75*
G02*
X117535875Y-95088827I104298J104298D01*
G01*
X117779827Y-94844875D01*
G75*
G02*
X117988423Y-94844875I104298J-104298D01*
G01*
X118197019Y-95053471D01*
G75*
G02*
X118197019Y-95262067I-104298J-104298D01*
G01*
G37*
G04 #@! TD.AperFunction*
G04 #@! TA.AperFunction,SMDPad,CuDef*
G36*
G01*
X117267173Y-91669875D02*
X117511125Y-91913827D01*
G75*
G02*
X117511125Y-92122423I-104298J-104298D01*
G01*
X117302529Y-92331019D01*
G75*
G02*
X117093933Y-92331019I-104298J104298D01*
G01*
X116849981Y-92087067D01*
G75*
G02*
X116849981Y-91878471I104298J104298D01*
G01*
X117058577Y-91669875D01*
G75*
G02*
X117267173Y-91669875I104298J-104298D01*
G01*
G37*
G04 #@! TD.AperFunction*
G04 #@! TA.AperFunction,SMDPad,CuDef*
G36*
G01*
X117953067Y-90983981D02*
X118197019Y-91227933D01*
G75*
G02*
X118197019Y-91436529I-104298J-104298D01*
G01*
X117988423Y-91645125D01*
G75*
G02*
X117779827Y-91645125I-104298J104298D01*
G01*
X117535875Y-91401173D01*
G75*
G02*
X117535875Y-91192577I104298J104298D01*
G01*
X117744471Y-90983981D01*
G75*
G02*
X117953067Y-90983981I104298J-104298D01*
G01*
G37*
G04 #@! TD.AperFunction*
G04 #@! TA.AperFunction,SMDPad,CuDef*
G36*
G01*
X117333500Y-96247500D02*
X117333500Y-96592500D01*
G75*
G02*
X117186000Y-96740000I-147500J0D01*
G01*
X116891000Y-96740000D01*
G75*
G02*
X116743500Y-96592500I0J147500D01*
G01*
X116743500Y-96247500D01*
G75*
G02*
X116891000Y-96100000I147500J0D01*
G01*
X117186000Y-96100000D01*
G75*
G02*
X117333500Y-96247500I0J-147500D01*
G01*
G37*
G04 #@! TD.AperFunction*
G04 #@! TA.AperFunction,SMDPad,CuDef*
G36*
G01*
X118303500Y-96247500D02*
X118303500Y-96592500D01*
G75*
G02*
X118156000Y-96740000I-147500J0D01*
G01*
X117861000Y-96740000D01*
G75*
G02*
X117713500Y-96592500I0J147500D01*
G01*
X117713500Y-96247500D01*
G75*
G02*
X117861000Y-96100000I147500J0D01*
G01*
X118156000Y-96100000D01*
G75*
G02*
X118303500Y-96247500I0J-147500D01*
G01*
G37*
G04 #@! TD.AperFunction*
G04 #@! TA.AperFunction,SMDPad,CuDef*
G36*
G01*
X119283500Y-91467500D02*
X118938500Y-91467500D01*
G75*
G02*
X118791000Y-91320000I0J147500D01*
G01*
X118791000Y-91025000D01*
G75*
G02*
X118938500Y-90877500I147500J0D01*
G01*
X119283500Y-90877500D01*
G75*
G02*
X119431000Y-91025000I0J-147500D01*
G01*
X119431000Y-91320000D01*
G75*
G02*
X119283500Y-91467500I-147500J0D01*
G01*
G37*
G04 #@! TD.AperFunction*
G04 #@! TA.AperFunction,SMDPad,CuDef*
G36*
G01*
X119283500Y-92437500D02*
X118938500Y-92437500D01*
G75*
G02*
X118791000Y-92290000I0J147500D01*
G01*
X118791000Y-91995000D01*
G75*
G02*
X118938500Y-91847500I147500J0D01*
G01*
X119283500Y-91847500D01*
G75*
G02*
X119431000Y-91995000I0J-147500D01*
G01*
X119431000Y-92290000D01*
G75*
G02*
X119283500Y-92437500I-147500J0D01*
G01*
G37*
G04 #@! TD.AperFunction*
G04 #@! TA.AperFunction,SMDPad,CuDef*
G36*
G01*
X115763500Y-95022500D02*
X116108500Y-95022500D01*
G75*
G02*
X116256000Y-95170000I0J-147500D01*
G01*
X116256000Y-95465000D01*
G75*
G02*
X116108500Y-95612500I-147500J0D01*
G01*
X115763500Y-95612500D01*
G75*
G02*
X115616000Y-95465000I0J147500D01*
G01*
X115616000Y-95170000D01*
G75*
G02*
X115763500Y-95022500I147500J0D01*
G01*
G37*
G04 #@! TD.AperFunction*
G04 #@! TA.AperFunction,SMDPad,CuDef*
G36*
G01*
X115763500Y-94052500D02*
X116108500Y-94052500D01*
G75*
G02*
X116256000Y-94200000I0J-147500D01*
G01*
X116256000Y-94495000D01*
G75*
G02*
X116108500Y-94642500I-147500J0D01*
G01*
X115763500Y-94642500D01*
G75*
G02*
X115616000Y-94495000I0J147500D01*
G01*
X115616000Y-94200000D01*
G75*
G02*
X115763500Y-94052500I147500J0D01*
G01*
G37*
G04 #@! TD.AperFunction*
G04 #@! TA.AperFunction,SMDPad,CuDef*
G36*
G01*
X118938500Y-95022500D02*
X119283500Y-95022500D01*
G75*
G02*
X119431000Y-95170000I0J-147500D01*
G01*
X119431000Y-95465000D01*
G75*
G02*
X119283500Y-95612500I-147500J0D01*
G01*
X118938500Y-95612500D01*
G75*
G02*
X118791000Y-95465000I0J147500D01*
G01*
X118791000Y-95170000D01*
G75*
G02*
X118938500Y-95022500I147500J0D01*
G01*
G37*
G04 #@! TD.AperFunction*
G04 #@! TA.AperFunction,SMDPad,CuDef*
G36*
G01*
X118938500Y-94052500D02*
X119283500Y-94052500D01*
G75*
G02*
X119431000Y-94200000I0J-147500D01*
G01*
X119431000Y-94495000D01*
G75*
G02*
X119283500Y-94642500I-147500J0D01*
G01*
X118938500Y-94642500D01*
G75*
G02*
X118791000Y-94495000I0J147500D01*
G01*
X118791000Y-94200000D01*
G75*
G02*
X118938500Y-94052500I147500J0D01*
G01*
G37*
G04 #@! TD.AperFunction*
G04 #@! TA.AperFunction,SMDPad,CuDef*
G36*
G01*
X112933500Y-91467500D02*
X112588500Y-91467500D01*
G75*
G02*
X112441000Y-91320000I0J147500D01*
G01*
X112441000Y-91025000D01*
G75*
G02*
X112588500Y-90877500I147500J0D01*
G01*
X112933500Y-90877500D01*
G75*
G02*
X113081000Y-91025000I0J-147500D01*
G01*
X113081000Y-91320000D01*
G75*
G02*
X112933500Y-91467500I-147500J0D01*
G01*
G37*
G04 #@! TD.AperFunction*
G04 #@! TA.AperFunction,SMDPad,CuDef*
G36*
G01*
X112933500Y-92437500D02*
X112588500Y-92437500D01*
G75*
G02*
X112441000Y-92290000I0J147500D01*
G01*
X112441000Y-91995000D01*
G75*
G02*
X112588500Y-91847500I147500J0D01*
G01*
X112933500Y-91847500D01*
G75*
G02*
X113081000Y-91995000I0J-147500D01*
G01*
X113081000Y-92290000D01*
G75*
G02*
X112933500Y-92437500I-147500J0D01*
G01*
G37*
G04 #@! TD.AperFunction*
G04 #@! TA.AperFunction,SMDPad,CuDef*
G36*
G01*
X114158500Y-89897500D02*
X114158500Y-90242500D01*
G75*
G02*
X114011000Y-90390000I-147500J0D01*
G01*
X113716000Y-90390000D01*
G75*
G02*
X113568500Y-90242500I0J147500D01*
G01*
X113568500Y-89897500D01*
G75*
G02*
X113716000Y-89750000I147500J0D01*
G01*
X114011000Y-89750000D01*
G75*
G02*
X114158500Y-89897500I0J-147500D01*
G01*
G37*
G04 #@! TD.AperFunction*
G04 #@! TA.AperFunction,SMDPad,CuDef*
G36*
G01*
X115128500Y-89897500D02*
X115128500Y-90242500D01*
G75*
G02*
X114981000Y-90390000I-147500J0D01*
G01*
X114686000Y-90390000D01*
G75*
G02*
X114538500Y-90242500I0J147500D01*
G01*
X114538500Y-89897500D01*
G75*
G02*
X114686000Y-89750000I147500J0D01*
G01*
X114981000Y-89750000D01*
G75*
G02*
X115128500Y-89897500I0J-147500D01*
G01*
G37*
G04 #@! TD.AperFunction*
G04 #@! TA.AperFunction,SMDPad,CuDef*
G36*
G01*
X114158500Y-93072500D02*
X114158500Y-93417500D01*
G75*
G02*
X114011000Y-93565000I-147500J0D01*
G01*
X113716000Y-93565000D01*
G75*
G02*
X113568500Y-93417500I0J147500D01*
G01*
X113568500Y-93072500D01*
G75*
G02*
X113716000Y-92925000I147500J0D01*
G01*
X114011000Y-92925000D01*
G75*
G02*
X114158500Y-93072500I0J-147500D01*
G01*
G37*
G04 #@! TD.AperFunction*
G04 #@! TA.AperFunction,SMDPad,CuDef*
G36*
G01*
X115128500Y-93072500D02*
X115128500Y-93417500D01*
G75*
G02*
X114981000Y-93565000I-147500J0D01*
G01*
X114686000Y-93565000D01*
G75*
G02*
X114538500Y-93417500I0J147500D01*
G01*
X114538500Y-93072500D01*
G75*
G02*
X114686000Y-92925000I147500J0D01*
G01*
X114981000Y-92925000D01*
G75*
G02*
X115128500Y-93072500I0J-147500D01*
G01*
G37*
G04 #@! TD.AperFunction*
G04 #@! TA.AperFunction,SMDPad,CuDef*
G36*
G01*
X114336125Y-91401173D02*
X114092173Y-91645125D01*
G75*
G02*
X113883577Y-91645125I-104298J104298D01*
G01*
X113674981Y-91436529D01*
G75*
G02*
X113674981Y-91227933I104298J104298D01*
G01*
X113918933Y-90983981D01*
G75*
G02*
X114127529Y-90983981I104298J-104298D01*
G01*
X114336125Y-91192577D01*
G75*
G02*
X114336125Y-91401173I-104298J-104298D01*
G01*
G37*
G04 #@! TD.AperFunction*
G04 #@! TA.AperFunction,SMDPad,CuDef*
G36*
G01*
X115022019Y-92087067D02*
X114778067Y-92331019D01*
G75*
G02*
X114569471Y-92331019I-104298J104298D01*
G01*
X114360875Y-92122423D01*
G75*
G02*
X114360875Y-91913827I104298J104298D01*
G01*
X114604827Y-91669875D01*
G75*
G02*
X114813423Y-91669875I104298J-104298D01*
G01*
X115022019Y-91878471D01*
G75*
G02*
X115022019Y-92087067I-104298J-104298D01*
G01*
G37*
G04 #@! TD.AperFunction*
G04 #@! TA.AperFunction,SMDPad,CuDef*
G36*
G01*
X112588500Y-95022500D02*
X112933500Y-95022500D01*
G75*
G02*
X113081000Y-95170000I0J-147500D01*
G01*
X113081000Y-95465000D01*
G75*
G02*
X112933500Y-95612500I-147500J0D01*
G01*
X112588500Y-95612500D01*
G75*
G02*
X112441000Y-95465000I0J147500D01*
G01*
X112441000Y-95170000D01*
G75*
G02*
X112588500Y-95022500I147500J0D01*
G01*
G37*
G04 #@! TD.AperFunction*
G04 #@! TA.AperFunction,SMDPad,CuDef*
G36*
G01*
X112588500Y-94052500D02*
X112933500Y-94052500D01*
G75*
G02*
X113081000Y-94200000I0J-147500D01*
G01*
X113081000Y-94495000D01*
G75*
G02*
X112933500Y-94642500I-147500J0D01*
G01*
X112588500Y-94642500D01*
G75*
G02*
X112441000Y-94495000I0J147500D01*
G01*
X112441000Y-94200000D01*
G75*
G02*
X112588500Y-94052500I147500J0D01*
G01*
G37*
G04 #@! TD.AperFunction*
G04 #@! TA.AperFunction,SMDPad,CuDef*
G36*
G01*
X109343673Y-91669375D02*
X109587625Y-91913327D01*
G75*
G02*
X109587625Y-92121923I-104298J-104298D01*
G01*
X109379029Y-92330519D01*
G75*
G02*
X109170433Y-92330519I-104298J104298D01*
G01*
X108926481Y-92086567D01*
G75*
G02*
X108926481Y-91877971I104298J104298D01*
G01*
X109135077Y-91669375D01*
G75*
G02*
X109343673Y-91669375I104298J-104298D01*
G01*
G37*
G04 #@! TD.AperFunction*
G04 #@! TA.AperFunction,SMDPad,CuDef*
G36*
G01*
X110029567Y-90983481D02*
X110273519Y-91227433D01*
G75*
G02*
X110273519Y-91436029I-104298J-104298D01*
G01*
X110064923Y-91644625D01*
G75*
G02*
X109856327Y-91644625I-104298J104298D01*
G01*
X109612375Y-91400673D01*
G75*
G02*
X109612375Y-91192077I104298J104298D01*
G01*
X109820971Y-90983481D01*
G75*
G02*
X110029567Y-90983481I104298J-104298D01*
G01*
G37*
G04 #@! TD.AperFunction*
G04 #@! TA.AperFunction,SMDPad,CuDef*
G36*
G01*
X106412625Y-91400673D02*
X106168673Y-91644625D01*
G75*
G02*
X105960077Y-91644625I-104298J104298D01*
G01*
X105751481Y-91436029D01*
G75*
G02*
X105751481Y-91227433I104298J104298D01*
G01*
X105995433Y-90983481D01*
G75*
G02*
X106204029Y-90983481I104298J-104298D01*
G01*
X106412625Y-91192077D01*
G75*
G02*
X106412625Y-91400673I-104298J-104298D01*
G01*
G37*
G04 #@! TD.AperFunction*
G04 #@! TA.AperFunction,SMDPad,CuDef*
G36*
G01*
X107098519Y-92086567D02*
X106854567Y-92330519D01*
G75*
G02*
X106645971Y-92330519I-104298J104298D01*
G01*
X106437375Y-92121923D01*
G75*
G02*
X106437375Y-91913327I104298J104298D01*
G01*
X106681327Y-91669375D01*
G75*
G02*
X106889923Y-91669375I104298J-104298D01*
G01*
X107098519Y-91877971D01*
G75*
G02*
X107098519Y-92086567I-104298J-104298D01*
G01*
G37*
G04 #@! TD.AperFunction*
G04 #@! TA.AperFunction,SMDPad,CuDef*
G36*
G01*
X109587625Y-94575673D02*
X109343673Y-94819625D01*
G75*
G02*
X109135077Y-94819625I-104298J104298D01*
G01*
X108926481Y-94611029D01*
G75*
G02*
X108926481Y-94402433I104298J104298D01*
G01*
X109170433Y-94158481D01*
G75*
G02*
X109379029Y-94158481I104298J-104298D01*
G01*
X109587625Y-94367077D01*
G75*
G02*
X109587625Y-94575673I-104298J-104298D01*
G01*
G37*
G04 #@! TD.AperFunction*
G04 #@! TA.AperFunction,SMDPad,CuDef*
G36*
G01*
X110273519Y-95261567D02*
X110029567Y-95505519D01*
G75*
G02*
X109820971Y-95505519I-104298J104298D01*
G01*
X109612375Y-95296923D01*
G75*
G02*
X109612375Y-95088327I104298J104298D01*
G01*
X109856327Y-94844375D01*
G75*
G02*
X110064923Y-94844375I104298J-104298D01*
G01*
X110273519Y-95052971D01*
G75*
G02*
X110273519Y-95261567I-104298J-104298D01*
G01*
G37*
G04 #@! TD.AperFunction*
G04 #@! TA.AperFunction,SMDPad,CuDef*
G36*
G01*
X109410000Y-89897000D02*
X109410000Y-90242000D01*
G75*
G02*
X109262500Y-90389500I-147500J0D01*
G01*
X108967500Y-90389500D01*
G75*
G02*
X108820000Y-90242000I0J147500D01*
G01*
X108820000Y-89897000D01*
G75*
G02*
X108967500Y-89749500I147500J0D01*
G01*
X109262500Y-89749500D01*
G75*
G02*
X109410000Y-89897000I0J-147500D01*
G01*
G37*
G04 #@! TD.AperFunction*
G04 #@! TA.AperFunction,SMDPad,CuDef*
G36*
G01*
X110380000Y-89897000D02*
X110380000Y-90242000D01*
G75*
G02*
X110232500Y-90389500I-147500J0D01*
G01*
X109937500Y-90389500D01*
G75*
G02*
X109790000Y-90242000I0J147500D01*
G01*
X109790000Y-89897000D01*
G75*
G02*
X109937500Y-89749500I147500J0D01*
G01*
X110232500Y-89749500D01*
G75*
G02*
X110380000Y-89897000I0J-147500D01*
G01*
G37*
G04 #@! TD.AperFunction*
G04 #@! TA.AperFunction,SMDPad,CuDef*
G36*
G01*
X109410000Y-93072000D02*
X109410000Y-93417000D01*
G75*
G02*
X109262500Y-93564500I-147500J0D01*
G01*
X108967500Y-93564500D01*
G75*
G02*
X108820000Y-93417000I0J147500D01*
G01*
X108820000Y-93072000D01*
G75*
G02*
X108967500Y-92924500I147500J0D01*
G01*
X109262500Y-92924500D01*
G75*
G02*
X109410000Y-93072000I0J-147500D01*
G01*
G37*
G04 #@! TD.AperFunction*
G04 #@! TA.AperFunction,SMDPad,CuDef*
G36*
G01*
X110380000Y-93072000D02*
X110380000Y-93417000D01*
G75*
G02*
X110232500Y-93564500I-147500J0D01*
G01*
X109937500Y-93564500D01*
G75*
G02*
X109790000Y-93417000I0J147500D01*
G01*
X109790000Y-93072000D01*
G75*
G02*
X109937500Y-92924500I147500J0D01*
G01*
X110232500Y-92924500D01*
G75*
G02*
X110380000Y-93072000I0J-147500D01*
G01*
G37*
G04 #@! TD.AperFunction*
G04 #@! TA.AperFunction,SMDPad,CuDef*
G36*
G01*
X107840000Y-95022000D02*
X108185000Y-95022000D01*
G75*
G02*
X108332500Y-95169500I0J-147500D01*
G01*
X108332500Y-95464500D01*
G75*
G02*
X108185000Y-95612000I-147500J0D01*
G01*
X107840000Y-95612000D01*
G75*
G02*
X107692500Y-95464500I0J147500D01*
G01*
X107692500Y-95169500D01*
G75*
G02*
X107840000Y-95022000I147500J0D01*
G01*
G37*
G04 #@! TD.AperFunction*
G04 #@! TA.AperFunction,SMDPad,CuDef*
G36*
G01*
X107840000Y-94052000D02*
X108185000Y-94052000D01*
G75*
G02*
X108332500Y-94199500I0J-147500D01*
G01*
X108332500Y-94494500D01*
G75*
G02*
X108185000Y-94642000I-147500J0D01*
G01*
X107840000Y-94642000D01*
G75*
G02*
X107692500Y-94494500I0J147500D01*
G01*
X107692500Y-94199500D01*
G75*
G02*
X107840000Y-94052000I147500J0D01*
G01*
G37*
G04 #@! TD.AperFunction*
G04 #@! TA.AperFunction,SMDPad,CuDef*
G36*
G01*
X106235000Y-93072000D02*
X106235000Y-93417000D01*
G75*
G02*
X106087500Y-93564500I-147500J0D01*
G01*
X105792500Y-93564500D01*
G75*
G02*
X105645000Y-93417000I0J147500D01*
G01*
X105645000Y-93072000D01*
G75*
G02*
X105792500Y-92924500I147500J0D01*
G01*
X106087500Y-92924500D01*
G75*
G02*
X106235000Y-93072000I0J-147500D01*
G01*
G37*
G04 #@! TD.AperFunction*
G04 #@! TA.AperFunction,SMDPad,CuDef*
G36*
G01*
X107205000Y-93072000D02*
X107205000Y-93417000D01*
G75*
G02*
X107057500Y-93564500I-147500J0D01*
G01*
X106762500Y-93564500D01*
G75*
G02*
X106615000Y-93417000I0J147500D01*
G01*
X106615000Y-93072000D01*
G75*
G02*
X106762500Y-92924500I147500J0D01*
G01*
X107057500Y-92924500D01*
G75*
G02*
X107205000Y-93072000I0J-147500D01*
G01*
G37*
G04 #@! TD.AperFunction*
G04 #@! TA.AperFunction,SMDPad,CuDef*
G36*
G01*
X106235000Y-96247000D02*
X106235000Y-96592000D01*
G75*
G02*
X106087500Y-96739500I-147500J0D01*
G01*
X105792500Y-96739500D01*
G75*
G02*
X105645000Y-96592000I0J147500D01*
G01*
X105645000Y-96247000D01*
G75*
G02*
X105792500Y-96099500I147500J0D01*
G01*
X106087500Y-96099500D01*
G75*
G02*
X106235000Y-96247000I0J-147500D01*
G01*
G37*
G04 #@! TD.AperFunction*
G04 #@! TA.AperFunction,SMDPad,CuDef*
G36*
G01*
X107205000Y-96247000D02*
X107205000Y-96592000D01*
G75*
G02*
X107057500Y-96739500I-147500J0D01*
G01*
X106762500Y-96739500D01*
G75*
G02*
X106615000Y-96592000I0J147500D01*
G01*
X106615000Y-96247000D01*
G75*
G02*
X106762500Y-96099500I147500J0D01*
G01*
X107057500Y-96099500D01*
G75*
G02*
X107205000Y-96247000I0J-147500D01*
G01*
G37*
G04 #@! TD.AperFunction*
G04 #@! TA.AperFunction,SMDPad,CuDef*
G36*
G01*
X111360000Y-91467000D02*
X111015000Y-91467000D01*
G75*
G02*
X110867500Y-91319500I0J147500D01*
G01*
X110867500Y-91024500D01*
G75*
G02*
X111015000Y-90877000I147500J0D01*
G01*
X111360000Y-90877000D01*
G75*
G02*
X111507500Y-91024500I0J-147500D01*
G01*
X111507500Y-91319500D01*
G75*
G02*
X111360000Y-91467000I-147500J0D01*
G01*
G37*
G04 #@! TD.AperFunction*
G04 #@! TA.AperFunction,SMDPad,CuDef*
G36*
G01*
X111360000Y-92437000D02*
X111015000Y-92437000D01*
G75*
G02*
X110867500Y-92289500I0J147500D01*
G01*
X110867500Y-91994500D01*
G75*
G02*
X111015000Y-91847000I147500J0D01*
G01*
X111360000Y-91847000D01*
G75*
G02*
X111507500Y-91994500I0J-147500D01*
G01*
X111507500Y-92289500D01*
G75*
G02*
X111360000Y-92437000I-147500J0D01*
G01*
G37*
G04 #@! TD.AperFunction*
G04 #@! TA.AperFunction,SMDPad,CuDef*
G36*
G01*
X106168673Y-94844375D02*
X106412625Y-95088327D01*
G75*
G02*
X106412625Y-95296923I-104298J-104298D01*
G01*
X106204029Y-95505519D01*
G75*
G02*
X105995433Y-95505519I-104298J104298D01*
G01*
X105751481Y-95261567D01*
G75*
G02*
X105751481Y-95052971I104298J104298D01*
G01*
X105960077Y-94844375D01*
G75*
G02*
X106168673Y-94844375I104298J-104298D01*
G01*
G37*
G04 #@! TD.AperFunction*
G04 #@! TA.AperFunction,SMDPad,CuDef*
G36*
G01*
X106854567Y-94158481D02*
X107098519Y-94402433D01*
G75*
G02*
X107098519Y-94611029I-104298J-104298D01*
G01*
X106889923Y-94819625D01*
G75*
G02*
X106681327Y-94819625I-104298J104298D01*
G01*
X106437375Y-94575673D01*
G75*
G02*
X106437375Y-94367077I104298J104298D01*
G01*
X106645971Y-94158481D01*
G75*
G02*
X106854567Y-94158481I104298J-104298D01*
G01*
G37*
G04 #@! TD.AperFunction*
G04 #@! TA.AperFunction,SMDPad,CuDef*
G36*
G01*
X111015000Y-95022000D02*
X111360000Y-95022000D01*
G75*
G02*
X111507500Y-95169500I0J-147500D01*
G01*
X111507500Y-95464500D01*
G75*
G02*
X111360000Y-95612000I-147500J0D01*
G01*
X111015000Y-95612000D01*
G75*
G02*
X110867500Y-95464500I0J147500D01*
G01*
X110867500Y-95169500D01*
G75*
G02*
X111015000Y-95022000I147500J0D01*
G01*
G37*
G04 #@! TD.AperFunction*
G04 #@! TA.AperFunction,SMDPad,CuDef*
G36*
G01*
X111015000Y-94052000D02*
X111360000Y-94052000D01*
G75*
G02*
X111507500Y-94199500I0J-147500D01*
G01*
X111507500Y-94494500D01*
G75*
G02*
X111360000Y-94642000I-147500J0D01*
G01*
X111015000Y-94642000D01*
G75*
G02*
X110867500Y-94494500I0J147500D01*
G01*
X110867500Y-94199500D01*
G75*
G02*
X111015000Y-94052000I147500J0D01*
G01*
G37*
G04 #@! TD.AperFunction*
G04 #@! TA.AperFunction,SMDPad,CuDef*
G36*
G01*
X108185000Y-91467000D02*
X107840000Y-91467000D01*
G75*
G02*
X107692500Y-91319500I0J147500D01*
G01*
X107692500Y-91024500D01*
G75*
G02*
X107840000Y-90877000I147500J0D01*
G01*
X108185000Y-90877000D01*
G75*
G02*
X108332500Y-91024500I0J-147500D01*
G01*
X108332500Y-91319500D01*
G75*
G02*
X108185000Y-91467000I-147500J0D01*
G01*
G37*
G04 #@! TD.AperFunction*
G04 #@! TA.AperFunction,SMDPad,CuDef*
G36*
G01*
X108185000Y-92437000D02*
X107840000Y-92437000D01*
G75*
G02*
X107692500Y-92289500I0J147500D01*
G01*
X107692500Y-91994500D01*
G75*
G02*
X107840000Y-91847000I147500J0D01*
G01*
X108185000Y-91847000D01*
G75*
G02*
X108332500Y-91994500I0J-147500D01*
G01*
X108332500Y-92289500D01*
G75*
G02*
X108185000Y-92437000I-147500J0D01*
G01*
G37*
G04 #@! TD.AperFunction*
G04 #@! TA.AperFunction,SMDPad,CuDef*
G36*
G01*
X109410000Y-96247000D02*
X109410000Y-96592000D01*
G75*
G02*
X109262500Y-96739500I-147500J0D01*
G01*
X108967500Y-96739500D01*
G75*
G02*
X108820000Y-96592000I0J147500D01*
G01*
X108820000Y-96247000D01*
G75*
G02*
X108967500Y-96099500I147500J0D01*
G01*
X109262500Y-96099500D01*
G75*
G02*
X109410000Y-96247000I0J-147500D01*
G01*
G37*
G04 #@! TD.AperFunction*
G04 #@! TA.AperFunction,SMDPad,CuDef*
G36*
G01*
X110380000Y-96247000D02*
X110380000Y-96592000D01*
G75*
G02*
X110232500Y-96739500I-147500J0D01*
G01*
X109937500Y-96739500D01*
G75*
G02*
X109790000Y-96592000I0J147500D01*
G01*
X109790000Y-96247000D01*
G75*
G02*
X109937500Y-96099500I147500J0D01*
G01*
X110232500Y-96099500D01*
G75*
G02*
X110380000Y-96247000I0J-147500D01*
G01*
G37*
G04 #@! TD.AperFunction*
G04 #@! TA.AperFunction,SMDPad,CuDef*
G36*
G01*
X106235000Y-89897000D02*
X106235000Y-90242000D01*
G75*
G02*
X106087500Y-90389500I-147500J0D01*
G01*
X105792500Y-90389500D01*
G75*
G02*
X105645000Y-90242000I0J147500D01*
G01*
X105645000Y-89897000D01*
G75*
G02*
X105792500Y-89749500I147500J0D01*
G01*
X106087500Y-89749500D01*
G75*
G02*
X106235000Y-89897000I0J-147500D01*
G01*
G37*
G04 #@! TD.AperFunction*
G04 #@! TA.AperFunction,SMDPad,CuDef*
G36*
G01*
X107205000Y-89897000D02*
X107205000Y-90242000D01*
G75*
G02*
X107057500Y-90389500I-147500J0D01*
G01*
X106762500Y-90389500D01*
G75*
G02*
X106615000Y-90242000I0J147500D01*
G01*
X106615000Y-89897000D01*
G75*
G02*
X106762500Y-89749500I147500J0D01*
G01*
X107057500Y-89749500D01*
G75*
G02*
X107205000Y-89897000I0J-147500D01*
G01*
G37*
G04 #@! TD.AperFunction*
G04 #@! TA.AperFunction,SMDPad,CuDef*
G36*
G01*
X104665000Y-95022000D02*
X105010000Y-95022000D01*
G75*
G02*
X105157500Y-95169500I0J-147500D01*
G01*
X105157500Y-95464500D01*
G75*
G02*
X105010000Y-95612000I-147500J0D01*
G01*
X104665000Y-95612000D01*
G75*
G02*
X104517500Y-95464500I0J147500D01*
G01*
X104517500Y-95169500D01*
G75*
G02*
X104665000Y-95022000I147500J0D01*
G01*
G37*
G04 #@! TD.AperFunction*
G04 #@! TA.AperFunction,SMDPad,CuDef*
G36*
G01*
X104665000Y-94052000D02*
X105010000Y-94052000D01*
G75*
G02*
X105157500Y-94199500I0J-147500D01*
G01*
X105157500Y-94494500D01*
G75*
G02*
X105010000Y-94642000I-147500J0D01*
G01*
X104665000Y-94642000D01*
G75*
G02*
X104517500Y-94494500I0J147500D01*
G01*
X104517500Y-94199500D01*
G75*
G02*
X104665000Y-94052000I147500J0D01*
G01*
G37*
G04 #@! TD.AperFunction*
G04 #@! TA.AperFunction,SMDPad,CuDef*
G36*
G01*
X105010000Y-91467000D02*
X104665000Y-91467000D01*
G75*
G02*
X104517500Y-91319500I0J147500D01*
G01*
X104517500Y-91024500D01*
G75*
G02*
X104665000Y-90877000I147500J0D01*
G01*
X105010000Y-90877000D01*
G75*
G02*
X105157500Y-91024500I0J-147500D01*
G01*
X105157500Y-91319500D01*
G75*
G02*
X105010000Y-91467000I-147500J0D01*
G01*
G37*
G04 #@! TD.AperFunction*
G04 #@! TA.AperFunction,SMDPad,CuDef*
G36*
G01*
X105010000Y-92437000D02*
X104665000Y-92437000D01*
G75*
G02*
X104517500Y-92289500I0J147500D01*
G01*
X104517500Y-91994500D01*
G75*
G02*
X104665000Y-91847000I147500J0D01*
G01*
X105010000Y-91847000D01*
G75*
G02*
X105157500Y-91994500I0J-147500D01*
G01*
X105157500Y-92289500D01*
G75*
G02*
X105010000Y-92437000I-147500J0D01*
G01*
G37*
G04 #@! TD.AperFunction*
G04 #@! TA.AperFunction,SMDPad,CuDef*
G36*
G01*
X122079125Y-90242500D02*
X122079125Y-89897500D01*
G75*
G02*
X122226625Y-89750000I147500J0D01*
G01*
X122521625Y-89750000D01*
G75*
G02*
X122669125Y-89897500I0J-147500D01*
G01*
X122669125Y-90242500D01*
G75*
G02*
X122521625Y-90390000I-147500J0D01*
G01*
X122226625Y-90390000D01*
G75*
G02*
X122079125Y-90242500I0J147500D01*
G01*
G37*
G04 #@! TD.AperFunction*
G04 #@! TA.AperFunction,SMDPad,CuDef*
G36*
G01*
X121109125Y-90242500D02*
X121109125Y-89897500D01*
G75*
G02*
X121256625Y-89750000I147500J0D01*
G01*
X121551625Y-89750000D01*
G75*
G02*
X121699125Y-89897500I0J-147500D01*
G01*
X121699125Y-90242500D01*
G75*
G02*
X121551625Y-90390000I-147500J0D01*
G01*
X121256625Y-90390000D01*
G75*
G02*
X121109125Y-90242500I0J147500D01*
G01*
G37*
G04 #@! TD.AperFunction*
G04 #@! TA.AperFunction,SMDPad,CuDef*
G36*
G01*
X122907250Y-91847500D02*
X123252250Y-91847500D01*
G75*
G02*
X123399750Y-91995000I0J-147500D01*
G01*
X123399750Y-92290000D01*
G75*
G02*
X123252250Y-92437500I-147500J0D01*
G01*
X122907250Y-92437500D01*
G75*
G02*
X122759750Y-92290000I0J147500D01*
G01*
X122759750Y-91995000D01*
G75*
G02*
X122907250Y-91847500I147500J0D01*
G01*
G37*
G04 #@! TD.AperFunction*
G04 #@! TA.AperFunction,SMDPad,CuDef*
G36*
G01*
X122907250Y-90877500D02*
X123252250Y-90877500D01*
G75*
G02*
X123399750Y-91025000I0J-147500D01*
G01*
X123399750Y-91320000D01*
G75*
G02*
X123252250Y-91467500I-147500J0D01*
G01*
X122907250Y-91467500D01*
G75*
G02*
X122759750Y-91320000I0J147500D01*
G01*
X122759750Y-91025000D01*
G75*
G02*
X122907250Y-90877500I147500J0D01*
G01*
G37*
G04 #@! TD.AperFunction*
G04 #@! TA.AperFunction,SMDPad,CuDef*
G36*
G01*
X122907250Y-95022500D02*
X123252250Y-95022500D01*
G75*
G02*
X123399750Y-95170000I0J-147500D01*
G01*
X123399750Y-95465000D01*
G75*
G02*
X123252250Y-95612500I-147500J0D01*
G01*
X122907250Y-95612500D01*
G75*
G02*
X122759750Y-95465000I0J147500D01*
G01*
X122759750Y-95170000D01*
G75*
G02*
X122907250Y-95022500I147500J0D01*
G01*
G37*
G04 #@! TD.AperFunction*
G04 #@! TA.AperFunction,SMDPad,CuDef*
G36*
G01*
X122907250Y-94052500D02*
X123252250Y-94052500D01*
G75*
G02*
X123399750Y-94200000I0J-147500D01*
G01*
X123399750Y-94495000D01*
G75*
G02*
X123252250Y-94642500I-147500J0D01*
G01*
X122907250Y-94642500D01*
G75*
G02*
X122759750Y-94495000I0J147500D01*
G01*
X122759750Y-94200000D01*
G75*
G02*
X122907250Y-94052500I147500J0D01*
G01*
G37*
G04 #@! TD.AperFunction*
G04 #@! TA.AperFunction,SMDPad,CuDef*
G36*
G01*
X122079125Y-96592500D02*
X122079125Y-96247500D01*
G75*
G02*
X122226625Y-96100000I147500J0D01*
G01*
X122521625Y-96100000D01*
G75*
G02*
X122669125Y-96247500I0J-147500D01*
G01*
X122669125Y-96592500D01*
G75*
G02*
X122521625Y-96740000I-147500J0D01*
G01*
X122226625Y-96740000D01*
G75*
G02*
X122079125Y-96592500I0J147500D01*
G01*
G37*
G04 #@! TD.AperFunction*
G04 #@! TA.AperFunction,SMDPad,CuDef*
G36*
G01*
X121109125Y-96592500D02*
X121109125Y-96247500D01*
G75*
G02*
X121256625Y-96100000I147500J0D01*
G01*
X121551625Y-96100000D01*
G75*
G02*
X121699125Y-96247500I0J-147500D01*
G01*
X121699125Y-96592500D01*
G75*
G02*
X121551625Y-96740000I-147500J0D01*
G01*
X121256625Y-96740000D01*
G75*
G02*
X121109125Y-96592500I0J147500D01*
G01*
G37*
G04 #@! TD.AperFunction*
G04 #@! TA.AperFunction,SMDPad,CuDef*
G36*
G01*
X120526000Y-95022500D02*
X120871000Y-95022500D01*
G75*
G02*
X121018500Y-95170000I0J-147500D01*
G01*
X121018500Y-95465000D01*
G75*
G02*
X120871000Y-95612500I-147500J0D01*
G01*
X120526000Y-95612500D01*
G75*
G02*
X120378500Y-95465000I0J147500D01*
G01*
X120378500Y-95170000D01*
G75*
G02*
X120526000Y-95022500I147500J0D01*
G01*
G37*
G04 #@! TD.AperFunction*
G04 #@! TA.AperFunction,SMDPad,CuDef*
G36*
G01*
X120526000Y-94052500D02*
X120871000Y-94052500D01*
G75*
G02*
X121018500Y-94200000I0J-147500D01*
G01*
X121018500Y-94495000D01*
G75*
G02*
X120871000Y-94642500I-147500J0D01*
G01*
X120526000Y-94642500D01*
G75*
G02*
X120378500Y-94495000I0J147500D01*
G01*
X120378500Y-94200000D01*
G75*
G02*
X120526000Y-94052500I147500J0D01*
G01*
G37*
G04 #@! TD.AperFunction*
G04 #@! TA.AperFunction,SMDPad,CuDef*
G36*
G01*
X120526000Y-91847500D02*
X120871000Y-91847500D01*
G75*
G02*
X121018500Y-91995000I0J-147500D01*
G01*
X121018500Y-92290000D01*
G75*
G02*
X120871000Y-92437500I-147500J0D01*
G01*
X120526000Y-92437500D01*
G75*
G02*
X120378500Y-92290000I0J147500D01*
G01*
X120378500Y-91995000D01*
G75*
G02*
X120526000Y-91847500I147500J0D01*
G01*
G37*
G04 #@! TD.AperFunction*
G04 #@! TA.AperFunction,SMDPad,CuDef*
G36*
G01*
X120526000Y-90877500D02*
X120871000Y-90877500D01*
G75*
G02*
X121018500Y-91025000I0J-147500D01*
G01*
X121018500Y-91320000D01*
G75*
G02*
X120871000Y-91467500I-147500J0D01*
G01*
X120526000Y-91467500D01*
G75*
G02*
X120378500Y-91320000I0J147500D01*
G01*
X120378500Y-91025000D01*
G75*
G02*
X120526000Y-90877500I147500J0D01*
G01*
G37*
G04 #@! TD.AperFunction*
G04 #@! TA.AperFunction,SMDPad,CuDef*
G36*
G01*
X121699125Y-93072500D02*
X121699125Y-93417500D01*
G75*
G02*
X121551625Y-93565000I-147500J0D01*
G01*
X121256625Y-93565000D01*
G75*
G02*
X121109125Y-93417500I0J147500D01*
G01*
X121109125Y-93072500D01*
G75*
G02*
X121256625Y-92925000I147500J0D01*
G01*
X121551625Y-92925000D01*
G75*
G02*
X121699125Y-93072500I0J-147500D01*
G01*
G37*
G04 #@! TD.AperFunction*
G04 #@! TA.AperFunction,SMDPad,CuDef*
G36*
G01*
X122669125Y-93072500D02*
X122669125Y-93417500D01*
G75*
G02*
X122521625Y-93565000I-147500J0D01*
G01*
X122226625Y-93565000D01*
G75*
G02*
X122079125Y-93417500I0J147500D01*
G01*
X122079125Y-93072500D01*
G75*
G02*
X122226625Y-92925000I147500J0D01*
G01*
X122521625Y-92925000D01*
G75*
G02*
X122669125Y-93072500I0J-147500D01*
G01*
G37*
G04 #@! TD.AperFunction*
G04 #@! TA.AperFunction,SMDPad,CuDef*
G36*
G01*
X126444750Y-90242500D02*
X126444750Y-89897500D01*
G75*
G02*
X126592250Y-89750000I147500J0D01*
G01*
X126887250Y-89750000D01*
G75*
G02*
X127034750Y-89897500I0J-147500D01*
G01*
X127034750Y-90242500D01*
G75*
G02*
X126887250Y-90390000I-147500J0D01*
G01*
X126592250Y-90390000D01*
G75*
G02*
X126444750Y-90242500I0J147500D01*
G01*
G37*
G04 #@! TD.AperFunction*
G04 #@! TA.AperFunction,SMDPad,CuDef*
G36*
G01*
X125474750Y-90242500D02*
X125474750Y-89897500D01*
G75*
G02*
X125622250Y-89750000I147500J0D01*
G01*
X125917250Y-89750000D01*
G75*
G02*
X126064750Y-89897500I0J-147500D01*
G01*
X126064750Y-90242500D01*
G75*
G02*
X125917250Y-90390000I-147500J0D01*
G01*
X125622250Y-90390000D01*
G75*
G02*
X125474750Y-90242500I0J147500D01*
G01*
G37*
G04 #@! TD.AperFunction*
G04 #@! TA.AperFunction,SMDPad,CuDef*
G36*
G01*
X127272875Y-91847500D02*
X127617875Y-91847500D01*
G75*
G02*
X127765375Y-91995000I0J-147500D01*
G01*
X127765375Y-92290000D01*
G75*
G02*
X127617875Y-92437500I-147500J0D01*
G01*
X127272875Y-92437500D01*
G75*
G02*
X127125375Y-92290000I0J147500D01*
G01*
X127125375Y-91995000D01*
G75*
G02*
X127272875Y-91847500I147500J0D01*
G01*
G37*
G04 #@! TD.AperFunction*
G04 #@! TA.AperFunction,SMDPad,CuDef*
G36*
G01*
X127272875Y-90877500D02*
X127617875Y-90877500D01*
G75*
G02*
X127765375Y-91025000I0J-147500D01*
G01*
X127765375Y-91320000D01*
G75*
G02*
X127617875Y-91467500I-147500J0D01*
G01*
X127272875Y-91467500D01*
G75*
G02*
X127125375Y-91320000I0J147500D01*
G01*
X127125375Y-91025000D01*
G75*
G02*
X127272875Y-90877500I147500J0D01*
G01*
G37*
G04 #@! TD.AperFunction*
G04 #@! TA.AperFunction,SMDPad,CuDef*
G36*
G01*
X127272875Y-95022500D02*
X127617875Y-95022500D01*
G75*
G02*
X127765375Y-95170000I0J-147500D01*
G01*
X127765375Y-95465000D01*
G75*
G02*
X127617875Y-95612500I-147500J0D01*
G01*
X127272875Y-95612500D01*
G75*
G02*
X127125375Y-95465000I0J147500D01*
G01*
X127125375Y-95170000D01*
G75*
G02*
X127272875Y-95022500I147500J0D01*
G01*
G37*
G04 #@! TD.AperFunction*
G04 #@! TA.AperFunction,SMDPad,CuDef*
G36*
G01*
X127272875Y-94052500D02*
X127617875Y-94052500D01*
G75*
G02*
X127765375Y-94200000I0J-147500D01*
G01*
X127765375Y-94495000D01*
G75*
G02*
X127617875Y-94642500I-147500J0D01*
G01*
X127272875Y-94642500D01*
G75*
G02*
X127125375Y-94495000I0J147500D01*
G01*
X127125375Y-94200000D01*
G75*
G02*
X127272875Y-94052500I147500J0D01*
G01*
G37*
G04 #@! TD.AperFunction*
G04 #@! TA.AperFunction,SMDPad,CuDef*
G36*
G01*
X126444750Y-96592500D02*
X126444750Y-96247500D01*
G75*
G02*
X126592250Y-96100000I147500J0D01*
G01*
X126887250Y-96100000D01*
G75*
G02*
X127034750Y-96247500I0J-147500D01*
G01*
X127034750Y-96592500D01*
G75*
G02*
X126887250Y-96740000I-147500J0D01*
G01*
X126592250Y-96740000D01*
G75*
G02*
X126444750Y-96592500I0J147500D01*
G01*
G37*
G04 #@! TD.AperFunction*
G04 #@! TA.AperFunction,SMDPad,CuDef*
G36*
G01*
X125474750Y-96592500D02*
X125474750Y-96247500D01*
G75*
G02*
X125622250Y-96100000I147500J0D01*
G01*
X125917250Y-96100000D01*
G75*
G02*
X126064750Y-96247500I0J-147500D01*
G01*
X126064750Y-96592500D01*
G75*
G02*
X125917250Y-96740000I-147500J0D01*
G01*
X125622250Y-96740000D01*
G75*
G02*
X125474750Y-96592500I0J147500D01*
G01*
G37*
G04 #@! TD.AperFunction*
G04 #@! TA.AperFunction,SMDPad,CuDef*
G36*
G01*
X124891625Y-95022500D02*
X125236625Y-95022500D01*
G75*
G02*
X125384125Y-95170000I0J-147500D01*
G01*
X125384125Y-95465000D01*
G75*
G02*
X125236625Y-95612500I-147500J0D01*
G01*
X124891625Y-95612500D01*
G75*
G02*
X124744125Y-95465000I0J147500D01*
G01*
X124744125Y-95170000D01*
G75*
G02*
X124891625Y-95022500I147500J0D01*
G01*
G37*
G04 #@! TD.AperFunction*
G04 #@! TA.AperFunction,SMDPad,CuDef*
G36*
G01*
X124891625Y-94052500D02*
X125236625Y-94052500D01*
G75*
G02*
X125384125Y-94200000I0J-147500D01*
G01*
X125384125Y-94495000D01*
G75*
G02*
X125236625Y-94642500I-147500J0D01*
G01*
X124891625Y-94642500D01*
G75*
G02*
X124744125Y-94495000I0J147500D01*
G01*
X124744125Y-94200000D01*
G75*
G02*
X124891625Y-94052500I147500J0D01*
G01*
G37*
G04 #@! TD.AperFunction*
G04 #@! TA.AperFunction,SMDPad,CuDef*
G36*
G01*
X124891625Y-91847500D02*
X125236625Y-91847500D01*
G75*
G02*
X125384125Y-91995000I0J-147500D01*
G01*
X125384125Y-92290000D01*
G75*
G02*
X125236625Y-92437500I-147500J0D01*
G01*
X124891625Y-92437500D01*
G75*
G02*
X124744125Y-92290000I0J147500D01*
G01*
X124744125Y-91995000D01*
G75*
G02*
X124891625Y-91847500I147500J0D01*
G01*
G37*
G04 #@! TD.AperFunction*
G04 #@! TA.AperFunction,SMDPad,CuDef*
G36*
G01*
X124891625Y-90877500D02*
X125236625Y-90877500D01*
G75*
G02*
X125384125Y-91025000I0J-147500D01*
G01*
X125384125Y-91320000D01*
G75*
G02*
X125236625Y-91467500I-147500J0D01*
G01*
X124891625Y-91467500D01*
G75*
G02*
X124744125Y-91320000I0J147500D01*
G01*
X124744125Y-91025000D01*
G75*
G02*
X124891625Y-90877500I147500J0D01*
G01*
G37*
G04 #@! TD.AperFunction*
G04 #@! TA.AperFunction,SMDPad,CuDef*
G36*
G01*
X126064750Y-93072500D02*
X126064750Y-93417500D01*
G75*
G02*
X125917250Y-93565000I-147500J0D01*
G01*
X125622250Y-93565000D01*
G75*
G02*
X125474750Y-93417500I0J147500D01*
G01*
X125474750Y-93072500D01*
G75*
G02*
X125622250Y-92925000I147500J0D01*
G01*
X125917250Y-92925000D01*
G75*
G02*
X126064750Y-93072500I0J-147500D01*
G01*
G37*
G04 #@! TD.AperFunction*
G04 #@! TA.AperFunction,SMDPad,CuDef*
G36*
G01*
X127034750Y-93072500D02*
X127034750Y-93417500D01*
G75*
G02*
X126887250Y-93565000I-147500J0D01*
G01*
X126592250Y-93565000D01*
G75*
G02*
X126444750Y-93417500I0J147500D01*
G01*
X126444750Y-93072500D01*
G75*
G02*
X126592250Y-92925000I147500J0D01*
G01*
X126887250Y-92925000D01*
G75*
G02*
X127034750Y-93072500I0J-147500D01*
G01*
G37*
G04 #@! TD.AperFunction*
G04 #@! TA.AperFunction,SMDPad,CuDef*
G36*
G01*
X130810375Y-90242500D02*
X130810375Y-89897500D01*
G75*
G02*
X130957875Y-89750000I147500J0D01*
G01*
X131252875Y-89750000D01*
G75*
G02*
X131400375Y-89897500I0J-147500D01*
G01*
X131400375Y-90242500D01*
G75*
G02*
X131252875Y-90390000I-147500J0D01*
G01*
X130957875Y-90390000D01*
G75*
G02*
X130810375Y-90242500I0J147500D01*
G01*
G37*
G04 #@! TD.AperFunction*
G04 #@! TA.AperFunction,SMDPad,CuDef*
G36*
G01*
X129840375Y-90242500D02*
X129840375Y-89897500D01*
G75*
G02*
X129987875Y-89750000I147500J0D01*
G01*
X130282875Y-89750000D01*
G75*
G02*
X130430375Y-89897500I0J-147500D01*
G01*
X130430375Y-90242500D01*
G75*
G02*
X130282875Y-90390000I-147500J0D01*
G01*
X129987875Y-90390000D01*
G75*
G02*
X129840375Y-90242500I0J147500D01*
G01*
G37*
G04 #@! TD.AperFunction*
G04 #@! TA.AperFunction,SMDPad,CuDef*
G36*
G01*
X131638500Y-91847500D02*
X131983500Y-91847500D01*
G75*
G02*
X132131000Y-91995000I0J-147500D01*
G01*
X132131000Y-92290000D01*
G75*
G02*
X131983500Y-92437500I-147500J0D01*
G01*
X131638500Y-92437500D01*
G75*
G02*
X131491000Y-92290000I0J147500D01*
G01*
X131491000Y-91995000D01*
G75*
G02*
X131638500Y-91847500I147500J0D01*
G01*
G37*
G04 #@! TD.AperFunction*
G04 #@! TA.AperFunction,SMDPad,CuDef*
G36*
G01*
X131638500Y-90877500D02*
X131983500Y-90877500D01*
G75*
G02*
X132131000Y-91025000I0J-147500D01*
G01*
X132131000Y-91320000D01*
G75*
G02*
X131983500Y-91467500I-147500J0D01*
G01*
X131638500Y-91467500D01*
G75*
G02*
X131491000Y-91320000I0J147500D01*
G01*
X131491000Y-91025000D01*
G75*
G02*
X131638500Y-90877500I147500J0D01*
G01*
G37*
G04 #@! TD.AperFunction*
G04 #@! TA.AperFunction,SMDPad,CuDef*
G36*
G01*
X131638500Y-95022500D02*
X131983500Y-95022500D01*
G75*
G02*
X132131000Y-95170000I0J-147500D01*
G01*
X132131000Y-95465000D01*
G75*
G02*
X131983500Y-95612500I-147500J0D01*
G01*
X131638500Y-95612500D01*
G75*
G02*
X131491000Y-95465000I0J147500D01*
G01*
X131491000Y-95170000D01*
G75*
G02*
X131638500Y-95022500I147500J0D01*
G01*
G37*
G04 #@! TD.AperFunction*
G04 #@! TA.AperFunction,SMDPad,CuDef*
G36*
G01*
X131638500Y-94052500D02*
X131983500Y-94052500D01*
G75*
G02*
X132131000Y-94200000I0J-147500D01*
G01*
X132131000Y-94495000D01*
G75*
G02*
X131983500Y-94642500I-147500J0D01*
G01*
X131638500Y-94642500D01*
G75*
G02*
X131491000Y-94495000I0J147500D01*
G01*
X131491000Y-94200000D01*
G75*
G02*
X131638500Y-94052500I147500J0D01*
G01*
G37*
G04 #@! TD.AperFunction*
G04 #@! TA.AperFunction,SMDPad,CuDef*
G36*
G01*
X130810375Y-96592500D02*
X130810375Y-96247500D01*
G75*
G02*
X130957875Y-96100000I147500J0D01*
G01*
X131252875Y-96100000D01*
G75*
G02*
X131400375Y-96247500I0J-147500D01*
G01*
X131400375Y-96592500D01*
G75*
G02*
X131252875Y-96740000I-147500J0D01*
G01*
X130957875Y-96740000D01*
G75*
G02*
X130810375Y-96592500I0J147500D01*
G01*
G37*
G04 #@! TD.AperFunction*
G04 #@! TA.AperFunction,SMDPad,CuDef*
G36*
G01*
X129840375Y-96592500D02*
X129840375Y-96247500D01*
G75*
G02*
X129987875Y-96100000I147500J0D01*
G01*
X130282875Y-96100000D01*
G75*
G02*
X130430375Y-96247500I0J-147500D01*
G01*
X130430375Y-96592500D01*
G75*
G02*
X130282875Y-96740000I-147500J0D01*
G01*
X129987875Y-96740000D01*
G75*
G02*
X129840375Y-96592500I0J147500D01*
G01*
G37*
G04 #@! TD.AperFunction*
G04 #@! TA.AperFunction,SMDPad,CuDef*
G36*
G01*
X129257250Y-95022500D02*
X129602250Y-95022500D01*
G75*
G02*
X129749750Y-95170000I0J-147500D01*
G01*
X129749750Y-95465000D01*
G75*
G02*
X129602250Y-95612500I-147500J0D01*
G01*
X129257250Y-95612500D01*
G75*
G02*
X129109750Y-95465000I0J147500D01*
G01*
X129109750Y-95170000D01*
G75*
G02*
X129257250Y-95022500I147500J0D01*
G01*
G37*
G04 #@! TD.AperFunction*
G04 #@! TA.AperFunction,SMDPad,CuDef*
G36*
G01*
X129257250Y-94052500D02*
X129602250Y-94052500D01*
G75*
G02*
X129749750Y-94200000I0J-147500D01*
G01*
X129749750Y-94495000D01*
G75*
G02*
X129602250Y-94642500I-147500J0D01*
G01*
X129257250Y-94642500D01*
G75*
G02*
X129109750Y-94495000I0J147500D01*
G01*
X129109750Y-94200000D01*
G75*
G02*
X129257250Y-94052500I147500J0D01*
G01*
G37*
G04 #@! TD.AperFunction*
G04 #@! TA.AperFunction,SMDPad,CuDef*
G36*
G01*
X129257250Y-91847500D02*
X129602250Y-91847500D01*
G75*
G02*
X129749750Y-91995000I0J-147500D01*
G01*
X129749750Y-92290000D01*
G75*
G02*
X129602250Y-92437500I-147500J0D01*
G01*
X129257250Y-92437500D01*
G75*
G02*
X129109750Y-92290000I0J147500D01*
G01*
X129109750Y-91995000D01*
G75*
G02*
X129257250Y-91847500I147500J0D01*
G01*
G37*
G04 #@! TD.AperFunction*
G04 #@! TA.AperFunction,SMDPad,CuDef*
G36*
G01*
X129257250Y-90877500D02*
X129602250Y-90877500D01*
G75*
G02*
X129749750Y-91025000I0J-147500D01*
G01*
X129749750Y-91320000D01*
G75*
G02*
X129602250Y-91467500I-147500J0D01*
G01*
X129257250Y-91467500D01*
G75*
G02*
X129109750Y-91320000I0J147500D01*
G01*
X129109750Y-91025000D01*
G75*
G02*
X129257250Y-90877500I147500J0D01*
G01*
G37*
G04 #@! TD.AperFunction*
G04 #@! TA.AperFunction,SMDPad,CuDef*
G36*
G01*
X130430375Y-93072500D02*
X130430375Y-93417500D01*
G75*
G02*
X130282875Y-93565000I-147500J0D01*
G01*
X129987875Y-93565000D01*
G75*
G02*
X129840375Y-93417500I0J147500D01*
G01*
X129840375Y-93072500D01*
G75*
G02*
X129987875Y-92925000I147500J0D01*
G01*
X130282875Y-92925000D01*
G75*
G02*
X130430375Y-93072500I0J-147500D01*
G01*
G37*
G04 #@! TD.AperFunction*
G04 #@! TA.AperFunction,SMDPad,CuDef*
G36*
G01*
X131400375Y-93072500D02*
X131400375Y-93417500D01*
G75*
G02*
X131252875Y-93565000I-147500J0D01*
G01*
X130957875Y-93565000D01*
G75*
G02*
X130810375Y-93417500I0J147500D01*
G01*
X130810375Y-93072500D01*
G75*
G02*
X130957875Y-92925000I147500J0D01*
G01*
X131252875Y-92925000D01*
G75*
G02*
X131400375Y-93072500I0J-147500D01*
G01*
G37*
G04 #@! TD.AperFunction*
G04 #@! TA.AperFunction,SMDPad,CuDef*
G36*
G01*
X135176000Y-90242500D02*
X135176000Y-89897500D01*
G75*
G02*
X135323500Y-89750000I147500J0D01*
G01*
X135618500Y-89750000D01*
G75*
G02*
X135766000Y-89897500I0J-147500D01*
G01*
X135766000Y-90242500D01*
G75*
G02*
X135618500Y-90390000I-147500J0D01*
G01*
X135323500Y-90390000D01*
G75*
G02*
X135176000Y-90242500I0J147500D01*
G01*
G37*
G04 #@! TD.AperFunction*
G04 #@! TA.AperFunction,SMDPad,CuDef*
G36*
G01*
X134206000Y-90242500D02*
X134206000Y-89897500D01*
G75*
G02*
X134353500Y-89750000I147500J0D01*
G01*
X134648500Y-89750000D01*
G75*
G02*
X134796000Y-89897500I0J-147500D01*
G01*
X134796000Y-90242500D01*
G75*
G02*
X134648500Y-90390000I-147500J0D01*
G01*
X134353500Y-90390000D01*
G75*
G02*
X134206000Y-90242500I0J147500D01*
G01*
G37*
G04 #@! TD.AperFunction*
G04 #@! TA.AperFunction,SMDPad,CuDef*
G36*
G01*
X136004125Y-91847500D02*
X136349125Y-91847500D01*
G75*
G02*
X136496625Y-91995000I0J-147500D01*
G01*
X136496625Y-92290000D01*
G75*
G02*
X136349125Y-92437500I-147500J0D01*
G01*
X136004125Y-92437500D01*
G75*
G02*
X135856625Y-92290000I0J147500D01*
G01*
X135856625Y-91995000D01*
G75*
G02*
X136004125Y-91847500I147500J0D01*
G01*
G37*
G04 #@! TD.AperFunction*
G04 #@! TA.AperFunction,SMDPad,CuDef*
G36*
G01*
X136004125Y-90877500D02*
X136349125Y-90877500D01*
G75*
G02*
X136496625Y-91025000I0J-147500D01*
G01*
X136496625Y-91320000D01*
G75*
G02*
X136349125Y-91467500I-147500J0D01*
G01*
X136004125Y-91467500D01*
G75*
G02*
X135856625Y-91320000I0J147500D01*
G01*
X135856625Y-91025000D01*
G75*
G02*
X136004125Y-90877500I147500J0D01*
G01*
G37*
G04 #@! TD.AperFunction*
G04 #@! TA.AperFunction,SMDPad,CuDef*
G36*
G01*
X136004125Y-95022500D02*
X136349125Y-95022500D01*
G75*
G02*
X136496625Y-95170000I0J-147500D01*
G01*
X136496625Y-95465000D01*
G75*
G02*
X136349125Y-95612500I-147500J0D01*
G01*
X136004125Y-95612500D01*
G75*
G02*
X135856625Y-95465000I0J147500D01*
G01*
X135856625Y-95170000D01*
G75*
G02*
X136004125Y-95022500I147500J0D01*
G01*
G37*
G04 #@! TD.AperFunction*
G04 #@! TA.AperFunction,SMDPad,CuDef*
G36*
G01*
X136004125Y-94052500D02*
X136349125Y-94052500D01*
G75*
G02*
X136496625Y-94200000I0J-147500D01*
G01*
X136496625Y-94495000D01*
G75*
G02*
X136349125Y-94642500I-147500J0D01*
G01*
X136004125Y-94642500D01*
G75*
G02*
X135856625Y-94495000I0J147500D01*
G01*
X135856625Y-94200000D01*
G75*
G02*
X136004125Y-94052500I147500J0D01*
G01*
G37*
G04 #@! TD.AperFunction*
G04 #@! TA.AperFunction,SMDPad,CuDef*
G36*
G01*
X135176000Y-96592500D02*
X135176000Y-96247500D01*
G75*
G02*
X135323500Y-96100000I147500J0D01*
G01*
X135618500Y-96100000D01*
G75*
G02*
X135766000Y-96247500I0J-147500D01*
G01*
X135766000Y-96592500D01*
G75*
G02*
X135618500Y-96740000I-147500J0D01*
G01*
X135323500Y-96740000D01*
G75*
G02*
X135176000Y-96592500I0J147500D01*
G01*
G37*
G04 #@! TD.AperFunction*
G04 #@! TA.AperFunction,SMDPad,CuDef*
G36*
G01*
X134206000Y-96592500D02*
X134206000Y-96247500D01*
G75*
G02*
X134353500Y-96100000I147500J0D01*
G01*
X134648500Y-96100000D01*
G75*
G02*
X134796000Y-96247500I0J-147500D01*
G01*
X134796000Y-96592500D01*
G75*
G02*
X134648500Y-96740000I-147500J0D01*
G01*
X134353500Y-96740000D01*
G75*
G02*
X134206000Y-96592500I0J147500D01*
G01*
G37*
G04 #@! TD.AperFunction*
G04 #@! TA.AperFunction,SMDPad,CuDef*
G36*
G01*
X133622875Y-95022500D02*
X133967875Y-95022500D01*
G75*
G02*
X134115375Y-95170000I0J-147500D01*
G01*
X134115375Y-95465000D01*
G75*
G02*
X133967875Y-95612500I-147500J0D01*
G01*
X133622875Y-95612500D01*
G75*
G02*
X133475375Y-95465000I0J147500D01*
G01*
X133475375Y-95170000D01*
G75*
G02*
X133622875Y-95022500I147500J0D01*
G01*
G37*
G04 #@! TD.AperFunction*
G04 #@! TA.AperFunction,SMDPad,CuDef*
G36*
G01*
X133622875Y-94052500D02*
X133967875Y-94052500D01*
G75*
G02*
X134115375Y-94200000I0J-147500D01*
G01*
X134115375Y-94495000D01*
G75*
G02*
X133967875Y-94642500I-147500J0D01*
G01*
X133622875Y-94642500D01*
G75*
G02*
X133475375Y-94495000I0J147500D01*
G01*
X133475375Y-94200000D01*
G75*
G02*
X133622875Y-94052500I147500J0D01*
G01*
G37*
G04 #@! TD.AperFunction*
G04 #@! TA.AperFunction,SMDPad,CuDef*
G36*
G01*
X133622875Y-91847500D02*
X133967875Y-91847500D01*
G75*
G02*
X134115375Y-91995000I0J-147500D01*
G01*
X134115375Y-92290000D01*
G75*
G02*
X133967875Y-92437500I-147500J0D01*
G01*
X133622875Y-92437500D01*
G75*
G02*
X133475375Y-92290000I0J147500D01*
G01*
X133475375Y-91995000D01*
G75*
G02*
X133622875Y-91847500I147500J0D01*
G01*
G37*
G04 #@! TD.AperFunction*
G04 #@! TA.AperFunction,SMDPad,CuDef*
G36*
G01*
X133622875Y-90877500D02*
X133967875Y-90877500D01*
G75*
G02*
X134115375Y-91025000I0J-147500D01*
G01*
X134115375Y-91320000D01*
G75*
G02*
X133967875Y-91467500I-147500J0D01*
G01*
X133622875Y-91467500D01*
G75*
G02*
X133475375Y-91320000I0J147500D01*
G01*
X133475375Y-91025000D01*
G75*
G02*
X133622875Y-90877500I147500J0D01*
G01*
G37*
G04 #@! TD.AperFunction*
G04 #@! TA.AperFunction,SMDPad,CuDef*
G36*
G01*
X134796000Y-93072500D02*
X134796000Y-93417500D01*
G75*
G02*
X134648500Y-93565000I-147500J0D01*
G01*
X134353500Y-93565000D01*
G75*
G02*
X134206000Y-93417500I0J147500D01*
G01*
X134206000Y-93072500D01*
G75*
G02*
X134353500Y-92925000I147500J0D01*
G01*
X134648500Y-92925000D01*
G75*
G02*
X134796000Y-93072500I0J-147500D01*
G01*
G37*
G04 #@! TD.AperFunction*
G04 #@! TA.AperFunction,SMDPad,CuDef*
G36*
G01*
X135766000Y-93072500D02*
X135766000Y-93417500D01*
G75*
G02*
X135618500Y-93565000I-147500J0D01*
G01*
X135323500Y-93565000D01*
G75*
G02*
X135176000Y-93417500I0J147500D01*
G01*
X135176000Y-93072500D01*
G75*
G02*
X135323500Y-92925000I147500J0D01*
G01*
X135618500Y-92925000D01*
G75*
G02*
X135766000Y-93072500I0J-147500D01*
G01*
G37*
G04 #@! TD.AperFunction*
G04 #@! TA.AperFunction,SMDPad,CuDef*
G36*
G01*
X139541625Y-90242500D02*
X139541625Y-89897500D01*
G75*
G02*
X139689125Y-89750000I147500J0D01*
G01*
X139984125Y-89750000D01*
G75*
G02*
X140131625Y-89897500I0J-147500D01*
G01*
X140131625Y-90242500D01*
G75*
G02*
X139984125Y-90390000I-147500J0D01*
G01*
X139689125Y-90390000D01*
G75*
G02*
X139541625Y-90242500I0J147500D01*
G01*
G37*
G04 #@! TD.AperFunction*
G04 #@! TA.AperFunction,SMDPad,CuDef*
G36*
G01*
X138571625Y-90242500D02*
X138571625Y-89897500D01*
G75*
G02*
X138719125Y-89750000I147500J0D01*
G01*
X139014125Y-89750000D01*
G75*
G02*
X139161625Y-89897500I0J-147500D01*
G01*
X139161625Y-90242500D01*
G75*
G02*
X139014125Y-90390000I-147500J0D01*
G01*
X138719125Y-90390000D01*
G75*
G02*
X138571625Y-90242500I0J147500D01*
G01*
G37*
G04 #@! TD.AperFunction*
G04 #@! TA.AperFunction,SMDPad,CuDef*
G36*
G01*
X140369750Y-91847500D02*
X140714750Y-91847500D01*
G75*
G02*
X140862250Y-91995000I0J-147500D01*
G01*
X140862250Y-92290000D01*
G75*
G02*
X140714750Y-92437500I-147500J0D01*
G01*
X140369750Y-92437500D01*
G75*
G02*
X140222250Y-92290000I0J147500D01*
G01*
X140222250Y-91995000D01*
G75*
G02*
X140369750Y-91847500I147500J0D01*
G01*
G37*
G04 #@! TD.AperFunction*
G04 #@! TA.AperFunction,SMDPad,CuDef*
G36*
G01*
X140369750Y-90877500D02*
X140714750Y-90877500D01*
G75*
G02*
X140862250Y-91025000I0J-147500D01*
G01*
X140862250Y-91320000D01*
G75*
G02*
X140714750Y-91467500I-147500J0D01*
G01*
X140369750Y-91467500D01*
G75*
G02*
X140222250Y-91320000I0J147500D01*
G01*
X140222250Y-91025000D01*
G75*
G02*
X140369750Y-90877500I147500J0D01*
G01*
G37*
G04 #@! TD.AperFunction*
G04 #@! TA.AperFunction,SMDPad,CuDef*
G36*
G01*
X140369750Y-95022500D02*
X140714750Y-95022500D01*
G75*
G02*
X140862250Y-95170000I0J-147500D01*
G01*
X140862250Y-95465000D01*
G75*
G02*
X140714750Y-95612500I-147500J0D01*
G01*
X140369750Y-95612500D01*
G75*
G02*
X140222250Y-95465000I0J147500D01*
G01*
X140222250Y-95170000D01*
G75*
G02*
X140369750Y-95022500I147500J0D01*
G01*
G37*
G04 #@! TD.AperFunction*
G04 #@! TA.AperFunction,SMDPad,CuDef*
G36*
G01*
X140369750Y-94052500D02*
X140714750Y-94052500D01*
G75*
G02*
X140862250Y-94200000I0J-147500D01*
G01*
X140862250Y-94495000D01*
G75*
G02*
X140714750Y-94642500I-147500J0D01*
G01*
X140369750Y-94642500D01*
G75*
G02*
X140222250Y-94495000I0J147500D01*
G01*
X140222250Y-94200000D01*
G75*
G02*
X140369750Y-94052500I147500J0D01*
G01*
G37*
G04 #@! TD.AperFunction*
G04 #@! TA.AperFunction,SMDPad,CuDef*
G36*
G01*
X139541625Y-96592500D02*
X139541625Y-96247500D01*
G75*
G02*
X139689125Y-96100000I147500J0D01*
G01*
X139984125Y-96100000D01*
G75*
G02*
X140131625Y-96247500I0J-147500D01*
G01*
X140131625Y-96592500D01*
G75*
G02*
X139984125Y-96740000I-147500J0D01*
G01*
X139689125Y-96740000D01*
G75*
G02*
X139541625Y-96592500I0J147500D01*
G01*
G37*
G04 #@! TD.AperFunction*
G04 #@! TA.AperFunction,SMDPad,CuDef*
G36*
G01*
X138571625Y-96592500D02*
X138571625Y-96247500D01*
G75*
G02*
X138719125Y-96100000I147500J0D01*
G01*
X139014125Y-96100000D01*
G75*
G02*
X139161625Y-96247500I0J-147500D01*
G01*
X139161625Y-96592500D01*
G75*
G02*
X139014125Y-96740000I-147500J0D01*
G01*
X138719125Y-96740000D01*
G75*
G02*
X138571625Y-96592500I0J147500D01*
G01*
G37*
G04 #@! TD.AperFunction*
G04 #@! TA.AperFunction,SMDPad,CuDef*
G36*
G01*
X137988500Y-95022500D02*
X138333500Y-95022500D01*
G75*
G02*
X138481000Y-95170000I0J-147500D01*
G01*
X138481000Y-95465000D01*
G75*
G02*
X138333500Y-95612500I-147500J0D01*
G01*
X137988500Y-95612500D01*
G75*
G02*
X137841000Y-95465000I0J147500D01*
G01*
X137841000Y-95170000D01*
G75*
G02*
X137988500Y-95022500I147500J0D01*
G01*
G37*
G04 #@! TD.AperFunction*
G04 #@! TA.AperFunction,SMDPad,CuDef*
G36*
G01*
X137988500Y-94052500D02*
X138333500Y-94052500D01*
G75*
G02*
X138481000Y-94200000I0J-147500D01*
G01*
X138481000Y-94495000D01*
G75*
G02*
X138333500Y-94642500I-147500J0D01*
G01*
X137988500Y-94642500D01*
G75*
G02*
X137841000Y-94495000I0J147500D01*
G01*
X137841000Y-94200000D01*
G75*
G02*
X137988500Y-94052500I147500J0D01*
G01*
G37*
G04 #@! TD.AperFunction*
G04 #@! TA.AperFunction,SMDPad,CuDef*
G36*
G01*
X137988500Y-91847500D02*
X138333500Y-91847500D01*
G75*
G02*
X138481000Y-91995000I0J-147500D01*
G01*
X138481000Y-92290000D01*
G75*
G02*
X138333500Y-92437500I-147500J0D01*
G01*
X137988500Y-92437500D01*
G75*
G02*
X137841000Y-92290000I0J147500D01*
G01*
X137841000Y-91995000D01*
G75*
G02*
X137988500Y-91847500I147500J0D01*
G01*
G37*
G04 #@! TD.AperFunction*
G04 #@! TA.AperFunction,SMDPad,CuDef*
G36*
G01*
X137988500Y-90877500D02*
X138333500Y-90877500D01*
G75*
G02*
X138481000Y-91025000I0J-147500D01*
G01*
X138481000Y-91320000D01*
G75*
G02*
X138333500Y-91467500I-147500J0D01*
G01*
X137988500Y-91467500D01*
G75*
G02*
X137841000Y-91320000I0J147500D01*
G01*
X137841000Y-91025000D01*
G75*
G02*
X137988500Y-90877500I147500J0D01*
G01*
G37*
G04 #@! TD.AperFunction*
G04 #@! TA.AperFunction,SMDPad,CuDef*
G36*
G01*
X139541625Y-93417500D02*
X139541625Y-93072500D01*
G75*
G02*
X139689125Y-92925000I147500J0D01*
G01*
X139984125Y-92925000D01*
G75*
G02*
X140131625Y-93072500I0J-147500D01*
G01*
X140131625Y-93417500D01*
G75*
G02*
X139984125Y-93565000I-147500J0D01*
G01*
X139689125Y-93565000D01*
G75*
G02*
X139541625Y-93417500I0J147500D01*
G01*
G37*
G04 #@! TD.AperFunction*
G04 #@! TA.AperFunction,SMDPad,CuDef*
G36*
G01*
X138571625Y-93417500D02*
X138571625Y-93072500D01*
G75*
G02*
X138719125Y-92925000I147500J0D01*
G01*
X139014125Y-92925000D01*
G75*
G02*
X139161625Y-93072500I0J-147500D01*
G01*
X139161625Y-93417500D01*
G75*
G02*
X139014125Y-93565000I-147500J0D01*
G01*
X138719125Y-93565000D01*
G75*
G02*
X138571625Y-93417500I0J147500D01*
G01*
G37*
G04 #@! TD.AperFunction*
G04 #@! TA.AperFunction,SMDPad,CuDef*
G36*
G01*
X143907250Y-90242500D02*
X143907250Y-89897500D01*
G75*
G02*
X144054750Y-89750000I147500J0D01*
G01*
X144349750Y-89750000D01*
G75*
G02*
X144497250Y-89897500I0J-147500D01*
G01*
X144497250Y-90242500D01*
G75*
G02*
X144349750Y-90390000I-147500J0D01*
G01*
X144054750Y-90390000D01*
G75*
G02*
X143907250Y-90242500I0J147500D01*
G01*
G37*
G04 #@! TD.AperFunction*
G04 #@! TA.AperFunction,SMDPad,CuDef*
G36*
G01*
X142937250Y-90242500D02*
X142937250Y-89897500D01*
G75*
G02*
X143084750Y-89750000I147500J0D01*
G01*
X143379750Y-89750000D01*
G75*
G02*
X143527250Y-89897500I0J-147500D01*
G01*
X143527250Y-90242500D01*
G75*
G02*
X143379750Y-90390000I-147500J0D01*
G01*
X143084750Y-90390000D01*
G75*
G02*
X142937250Y-90242500I0J147500D01*
G01*
G37*
G04 #@! TD.AperFunction*
G04 #@! TA.AperFunction,SMDPad,CuDef*
G36*
G01*
X144735375Y-91847500D02*
X145080375Y-91847500D01*
G75*
G02*
X145227875Y-91995000I0J-147500D01*
G01*
X145227875Y-92290000D01*
G75*
G02*
X145080375Y-92437500I-147500J0D01*
G01*
X144735375Y-92437500D01*
G75*
G02*
X144587875Y-92290000I0J147500D01*
G01*
X144587875Y-91995000D01*
G75*
G02*
X144735375Y-91847500I147500J0D01*
G01*
G37*
G04 #@! TD.AperFunction*
G04 #@! TA.AperFunction,SMDPad,CuDef*
G36*
G01*
X144735375Y-90877500D02*
X145080375Y-90877500D01*
G75*
G02*
X145227875Y-91025000I0J-147500D01*
G01*
X145227875Y-91320000D01*
G75*
G02*
X145080375Y-91467500I-147500J0D01*
G01*
X144735375Y-91467500D01*
G75*
G02*
X144587875Y-91320000I0J147500D01*
G01*
X144587875Y-91025000D01*
G75*
G02*
X144735375Y-90877500I147500J0D01*
G01*
G37*
G04 #@! TD.AperFunction*
G04 #@! TA.AperFunction,SMDPad,CuDef*
G36*
G01*
X144735375Y-95022500D02*
X145080375Y-95022500D01*
G75*
G02*
X145227875Y-95170000I0J-147500D01*
G01*
X145227875Y-95465000D01*
G75*
G02*
X145080375Y-95612500I-147500J0D01*
G01*
X144735375Y-95612500D01*
G75*
G02*
X144587875Y-95465000I0J147500D01*
G01*
X144587875Y-95170000D01*
G75*
G02*
X144735375Y-95022500I147500J0D01*
G01*
G37*
G04 #@! TD.AperFunction*
G04 #@! TA.AperFunction,SMDPad,CuDef*
G36*
G01*
X144735375Y-94052500D02*
X145080375Y-94052500D01*
G75*
G02*
X145227875Y-94200000I0J-147500D01*
G01*
X145227875Y-94495000D01*
G75*
G02*
X145080375Y-94642500I-147500J0D01*
G01*
X144735375Y-94642500D01*
G75*
G02*
X144587875Y-94495000I0J147500D01*
G01*
X144587875Y-94200000D01*
G75*
G02*
X144735375Y-94052500I147500J0D01*
G01*
G37*
G04 #@! TD.AperFunction*
G04 #@! TA.AperFunction,SMDPad,CuDef*
G36*
G01*
X143907250Y-96592500D02*
X143907250Y-96247500D01*
G75*
G02*
X144054750Y-96100000I147500J0D01*
G01*
X144349750Y-96100000D01*
G75*
G02*
X144497250Y-96247500I0J-147500D01*
G01*
X144497250Y-96592500D01*
G75*
G02*
X144349750Y-96740000I-147500J0D01*
G01*
X144054750Y-96740000D01*
G75*
G02*
X143907250Y-96592500I0J147500D01*
G01*
G37*
G04 #@! TD.AperFunction*
G04 #@! TA.AperFunction,SMDPad,CuDef*
G36*
G01*
X142937250Y-96592500D02*
X142937250Y-96247500D01*
G75*
G02*
X143084750Y-96100000I147500J0D01*
G01*
X143379750Y-96100000D01*
G75*
G02*
X143527250Y-96247500I0J-147500D01*
G01*
X143527250Y-96592500D01*
G75*
G02*
X143379750Y-96740000I-147500J0D01*
G01*
X143084750Y-96740000D01*
G75*
G02*
X142937250Y-96592500I0J147500D01*
G01*
G37*
G04 #@! TD.AperFunction*
G04 #@! TA.AperFunction,SMDPad,CuDef*
G36*
G01*
X142354125Y-95022500D02*
X142699125Y-95022500D01*
G75*
G02*
X142846625Y-95170000I0J-147500D01*
G01*
X142846625Y-95465000D01*
G75*
G02*
X142699125Y-95612500I-147500J0D01*
G01*
X142354125Y-95612500D01*
G75*
G02*
X142206625Y-95465000I0J147500D01*
G01*
X142206625Y-95170000D01*
G75*
G02*
X142354125Y-95022500I147500J0D01*
G01*
G37*
G04 #@! TD.AperFunction*
G04 #@! TA.AperFunction,SMDPad,CuDef*
G36*
G01*
X142354125Y-94052500D02*
X142699125Y-94052500D01*
G75*
G02*
X142846625Y-94200000I0J-147500D01*
G01*
X142846625Y-94495000D01*
G75*
G02*
X142699125Y-94642500I-147500J0D01*
G01*
X142354125Y-94642500D01*
G75*
G02*
X142206625Y-94495000I0J147500D01*
G01*
X142206625Y-94200000D01*
G75*
G02*
X142354125Y-94052500I147500J0D01*
G01*
G37*
G04 #@! TD.AperFunction*
G04 #@! TA.AperFunction,SMDPad,CuDef*
G36*
G01*
X142354125Y-91847500D02*
X142699125Y-91847500D01*
G75*
G02*
X142846625Y-91995000I0J-147500D01*
G01*
X142846625Y-92290000D01*
G75*
G02*
X142699125Y-92437500I-147500J0D01*
G01*
X142354125Y-92437500D01*
G75*
G02*
X142206625Y-92290000I0J147500D01*
G01*
X142206625Y-91995000D01*
G75*
G02*
X142354125Y-91847500I147500J0D01*
G01*
G37*
G04 #@! TD.AperFunction*
G04 #@! TA.AperFunction,SMDPad,CuDef*
G36*
G01*
X142354125Y-90877500D02*
X142699125Y-90877500D01*
G75*
G02*
X142846625Y-91025000I0J-147500D01*
G01*
X142846625Y-91320000D01*
G75*
G02*
X142699125Y-91467500I-147500J0D01*
G01*
X142354125Y-91467500D01*
G75*
G02*
X142206625Y-91320000I0J147500D01*
G01*
X142206625Y-91025000D01*
G75*
G02*
X142354125Y-90877500I147500J0D01*
G01*
G37*
G04 #@! TD.AperFunction*
G04 #@! TA.AperFunction,SMDPad,CuDef*
G36*
G01*
X143907250Y-93417500D02*
X143907250Y-93072500D01*
G75*
G02*
X144054750Y-92925000I147500J0D01*
G01*
X144349750Y-92925000D01*
G75*
G02*
X144497250Y-93072500I0J-147500D01*
G01*
X144497250Y-93417500D01*
G75*
G02*
X144349750Y-93565000I-147500J0D01*
G01*
X144054750Y-93565000D01*
G75*
G02*
X143907250Y-93417500I0J147500D01*
G01*
G37*
G04 #@! TD.AperFunction*
G04 #@! TA.AperFunction,SMDPad,CuDef*
G36*
G01*
X142937250Y-93417500D02*
X142937250Y-93072500D01*
G75*
G02*
X143084750Y-92925000I147500J0D01*
G01*
X143379750Y-92925000D01*
G75*
G02*
X143527250Y-93072500I0J-147500D01*
G01*
X143527250Y-93417500D01*
G75*
G02*
X143379750Y-93565000I-147500J0D01*
G01*
X143084750Y-93565000D01*
G75*
G02*
X142937250Y-93417500I0J147500D01*
G01*
G37*
G04 #@! TD.AperFunction*
G04 #@! TA.AperFunction,SMDPad,CuDef*
G36*
G01*
X148272875Y-90242500D02*
X148272875Y-89897500D01*
G75*
G02*
X148420375Y-89750000I147500J0D01*
G01*
X148715375Y-89750000D01*
G75*
G02*
X148862875Y-89897500I0J-147500D01*
G01*
X148862875Y-90242500D01*
G75*
G02*
X148715375Y-90390000I-147500J0D01*
G01*
X148420375Y-90390000D01*
G75*
G02*
X148272875Y-90242500I0J147500D01*
G01*
G37*
G04 #@! TD.AperFunction*
G04 #@! TA.AperFunction,SMDPad,CuDef*
G36*
G01*
X147302875Y-90242500D02*
X147302875Y-89897500D01*
G75*
G02*
X147450375Y-89750000I147500J0D01*
G01*
X147745375Y-89750000D01*
G75*
G02*
X147892875Y-89897500I0J-147500D01*
G01*
X147892875Y-90242500D01*
G75*
G02*
X147745375Y-90390000I-147500J0D01*
G01*
X147450375Y-90390000D01*
G75*
G02*
X147302875Y-90242500I0J147500D01*
G01*
G37*
G04 #@! TD.AperFunction*
G04 #@! TA.AperFunction,SMDPad,CuDef*
G36*
G01*
X149101000Y-91847500D02*
X149446000Y-91847500D01*
G75*
G02*
X149593500Y-91995000I0J-147500D01*
G01*
X149593500Y-92290000D01*
G75*
G02*
X149446000Y-92437500I-147500J0D01*
G01*
X149101000Y-92437500D01*
G75*
G02*
X148953500Y-92290000I0J147500D01*
G01*
X148953500Y-91995000D01*
G75*
G02*
X149101000Y-91847500I147500J0D01*
G01*
G37*
G04 #@! TD.AperFunction*
G04 #@! TA.AperFunction,SMDPad,CuDef*
G36*
G01*
X149101000Y-90877500D02*
X149446000Y-90877500D01*
G75*
G02*
X149593500Y-91025000I0J-147500D01*
G01*
X149593500Y-91320000D01*
G75*
G02*
X149446000Y-91467500I-147500J0D01*
G01*
X149101000Y-91467500D01*
G75*
G02*
X148953500Y-91320000I0J147500D01*
G01*
X148953500Y-91025000D01*
G75*
G02*
X149101000Y-90877500I147500J0D01*
G01*
G37*
G04 #@! TD.AperFunction*
G04 #@! TA.AperFunction,SMDPad,CuDef*
G36*
G01*
X149101000Y-95022500D02*
X149446000Y-95022500D01*
G75*
G02*
X149593500Y-95170000I0J-147500D01*
G01*
X149593500Y-95465000D01*
G75*
G02*
X149446000Y-95612500I-147500J0D01*
G01*
X149101000Y-95612500D01*
G75*
G02*
X148953500Y-95465000I0J147500D01*
G01*
X148953500Y-95170000D01*
G75*
G02*
X149101000Y-95022500I147500J0D01*
G01*
G37*
G04 #@! TD.AperFunction*
G04 #@! TA.AperFunction,SMDPad,CuDef*
G36*
G01*
X149101000Y-94052500D02*
X149446000Y-94052500D01*
G75*
G02*
X149593500Y-94200000I0J-147500D01*
G01*
X149593500Y-94495000D01*
G75*
G02*
X149446000Y-94642500I-147500J0D01*
G01*
X149101000Y-94642500D01*
G75*
G02*
X148953500Y-94495000I0J147500D01*
G01*
X148953500Y-94200000D01*
G75*
G02*
X149101000Y-94052500I147500J0D01*
G01*
G37*
G04 #@! TD.AperFunction*
G04 #@! TA.AperFunction,SMDPad,CuDef*
G36*
G01*
X148272875Y-96592500D02*
X148272875Y-96247500D01*
G75*
G02*
X148420375Y-96100000I147500J0D01*
G01*
X148715375Y-96100000D01*
G75*
G02*
X148862875Y-96247500I0J-147500D01*
G01*
X148862875Y-96592500D01*
G75*
G02*
X148715375Y-96740000I-147500J0D01*
G01*
X148420375Y-96740000D01*
G75*
G02*
X148272875Y-96592500I0J147500D01*
G01*
G37*
G04 #@! TD.AperFunction*
G04 #@! TA.AperFunction,SMDPad,CuDef*
G36*
G01*
X147302875Y-96592500D02*
X147302875Y-96247500D01*
G75*
G02*
X147450375Y-96100000I147500J0D01*
G01*
X147745375Y-96100000D01*
G75*
G02*
X147892875Y-96247500I0J-147500D01*
G01*
X147892875Y-96592500D01*
G75*
G02*
X147745375Y-96740000I-147500J0D01*
G01*
X147450375Y-96740000D01*
G75*
G02*
X147302875Y-96592500I0J147500D01*
G01*
G37*
G04 #@! TD.AperFunction*
G04 #@! TA.AperFunction,SMDPad,CuDef*
G36*
G01*
X146719750Y-95022500D02*
X147064750Y-95022500D01*
G75*
G02*
X147212250Y-95170000I0J-147500D01*
G01*
X147212250Y-95465000D01*
G75*
G02*
X147064750Y-95612500I-147500J0D01*
G01*
X146719750Y-95612500D01*
G75*
G02*
X146572250Y-95465000I0J147500D01*
G01*
X146572250Y-95170000D01*
G75*
G02*
X146719750Y-95022500I147500J0D01*
G01*
G37*
G04 #@! TD.AperFunction*
G04 #@! TA.AperFunction,SMDPad,CuDef*
G36*
G01*
X146719750Y-94052500D02*
X147064750Y-94052500D01*
G75*
G02*
X147212250Y-94200000I0J-147500D01*
G01*
X147212250Y-94495000D01*
G75*
G02*
X147064750Y-94642500I-147500J0D01*
G01*
X146719750Y-94642500D01*
G75*
G02*
X146572250Y-94495000I0J147500D01*
G01*
X146572250Y-94200000D01*
G75*
G02*
X146719750Y-94052500I147500J0D01*
G01*
G37*
G04 #@! TD.AperFunction*
G04 #@! TA.AperFunction,SMDPad,CuDef*
G36*
G01*
X146719750Y-91847500D02*
X147064750Y-91847500D01*
G75*
G02*
X147212250Y-91995000I0J-147500D01*
G01*
X147212250Y-92290000D01*
G75*
G02*
X147064750Y-92437500I-147500J0D01*
G01*
X146719750Y-92437500D01*
G75*
G02*
X146572250Y-92290000I0J147500D01*
G01*
X146572250Y-91995000D01*
G75*
G02*
X146719750Y-91847500I147500J0D01*
G01*
G37*
G04 #@! TD.AperFunction*
G04 #@! TA.AperFunction,SMDPad,CuDef*
G36*
G01*
X146719750Y-90877500D02*
X147064750Y-90877500D01*
G75*
G02*
X147212250Y-91025000I0J-147500D01*
G01*
X147212250Y-91320000D01*
G75*
G02*
X147064750Y-91467500I-147500J0D01*
G01*
X146719750Y-91467500D01*
G75*
G02*
X146572250Y-91320000I0J147500D01*
G01*
X146572250Y-91025000D01*
G75*
G02*
X146719750Y-90877500I147500J0D01*
G01*
G37*
G04 #@! TD.AperFunction*
G04 #@! TA.AperFunction,SMDPad,CuDef*
G36*
G01*
X148272875Y-93417500D02*
X148272875Y-93072500D01*
G75*
G02*
X148420375Y-92925000I147500J0D01*
G01*
X148715375Y-92925000D01*
G75*
G02*
X148862875Y-93072500I0J-147500D01*
G01*
X148862875Y-93417500D01*
G75*
G02*
X148715375Y-93565000I-147500J0D01*
G01*
X148420375Y-93565000D01*
G75*
G02*
X148272875Y-93417500I0J147500D01*
G01*
G37*
G04 #@! TD.AperFunction*
G04 #@! TA.AperFunction,SMDPad,CuDef*
G36*
G01*
X147302875Y-93417500D02*
X147302875Y-93072500D01*
G75*
G02*
X147450375Y-92925000I147500J0D01*
G01*
X147745375Y-92925000D01*
G75*
G02*
X147892875Y-93072500I0J-147500D01*
G01*
X147892875Y-93417500D01*
G75*
G02*
X147745375Y-93565000I-147500J0D01*
G01*
X147450375Y-93565000D01*
G75*
G02*
X147302875Y-93417500I0J147500D01*
G01*
G37*
G04 #@! TD.AperFunction*
G04 #@! TA.AperFunction,SMDPad,CuDef*
G36*
G01*
X152638500Y-90242500D02*
X152638500Y-89897500D01*
G75*
G02*
X152786000Y-89750000I147500J0D01*
G01*
X153081000Y-89750000D01*
G75*
G02*
X153228500Y-89897500I0J-147500D01*
G01*
X153228500Y-90242500D01*
G75*
G02*
X153081000Y-90390000I-147500J0D01*
G01*
X152786000Y-90390000D01*
G75*
G02*
X152638500Y-90242500I0J147500D01*
G01*
G37*
G04 #@! TD.AperFunction*
G04 #@! TA.AperFunction,SMDPad,CuDef*
G36*
G01*
X151668500Y-90242500D02*
X151668500Y-89897500D01*
G75*
G02*
X151816000Y-89750000I147500J0D01*
G01*
X152111000Y-89750000D01*
G75*
G02*
X152258500Y-89897500I0J-147500D01*
G01*
X152258500Y-90242500D01*
G75*
G02*
X152111000Y-90390000I-147500J0D01*
G01*
X151816000Y-90390000D01*
G75*
G02*
X151668500Y-90242500I0J147500D01*
G01*
G37*
G04 #@! TD.AperFunction*
G04 #@! TA.AperFunction,SMDPad,CuDef*
G36*
G01*
X153466625Y-91847500D02*
X153811625Y-91847500D01*
G75*
G02*
X153959125Y-91995000I0J-147500D01*
G01*
X153959125Y-92290000D01*
G75*
G02*
X153811625Y-92437500I-147500J0D01*
G01*
X153466625Y-92437500D01*
G75*
G02*
X153319125Y-92290000I0J147500D01*
G01*
X153319125Y-91995000D01*
G75*
G02*
X153466625Y-91847500I147500J0D01*
G01*
G37*
G04 #@! TD.AperFunction*
G04 #@! TA.AperFunction,SMDPad,CuDef*
G36*
G01*
X153466625Y-90877500D02*
X153811625Y-90877500D01*
G75*
G02*
X153959125Y-91025000I0J-147500D01*
G01*
X153959125Y-91320000D01*
G75*
G02*
X153811625Y-91467500I-147500J0D01*
G01*
X153466625Y-91467500D01*
G75*
G02*
X153319125Y-91320000I0J147500D01*
G01*
X153319125Y-91025000D01*
G75*
G02*
X153466625Y-90877500I147500J0D01*
G01*
G37*
G04 #@! TD.AperFunction*
G04 #@! TA.AperFunction,SMDPad,CuDef*
G36*
G01*
X153466625Y-95022500D02*
X153811625Y-95022500D01*
G75*
G02*
X153959125Y-95170000I0J-147500D01*
G01*
X153959125Y-95465000D01*
G75*
G02*
X153811625Y-95612500I-147500J0D01*
G01*
X153466625Y-95612500D01*
G75*
G02*
X153319125Y-95465000I0J147500D01*
G01*
X153319125Y-95170000D01*
G75*
G02*
X153466625Y-95022500I147500J0D01*
G01*
G37*
G04 #@! TD.AperFunction*
G04 #@! TA.AperFunction,SMDPad,CuDef*
G36*
G01*
X153466625Y-94052500D02*
X153811625Y-94052500D01*
G75*
G02*
X153959125Y-94200000I0J-147500D01*
G01*
X153959125Y-94495000D01*
G75*
G02*
X153811625Y-94642500I-147500J0D01*
G01*
X153466625Y-94642500D01*
G75*
G02*
X153319125Y-94495000I0J147500D01*
G01*
X153319125Y-94200000D01*
G75*
G02*
X153466625Y-94052500I147500J0D01*
G01*
G37*
G04 #@! TD.AperFunction*
G04 #@! TA.AperFunction,SMDPad,CuDef*
G36*
G01*
X152638500Y-96592500D02*
X152638500Y-96247500D01*
G75*
G02*
X152786000Y-96100000I147500J0D01*
G01*
X153081000Y-96100000D01*
G75*
G02*
X153228500Y-96247500I0J-147500D01*
G01*
X153228500Y-96592500D01*
G75*
G02*
X153081000Y-96740000I-147500J0D01*
G01*
X152786000Y-96740000D01*
G75*
G02*
X152638500Y-96592500I0J147500D01*
G01*
G37*
G04 #@! TD.AperFunction*
G04 #@! TA.AperFunction,SMDPad,CuDef*
G36*
G01*
X151668500Y-96592500D02*
X151668500Y-96247500D01*
G75*
G02*
X151816000Y-96100000I147500J0D01*
G01*
X152111000Y-96100000D01*
G75*
G02*
X152258500Y-96247500I0J-147500D01*
G01*
X152258500Y-96592500D01*
G75*
G02*
X152111000Y-96740000I-147500J0D01*
G01*
X151816000Y-96740000D01*
G75*
G02*
X151668500Y-96592500I0J147500D01*
G01*
G37*
G04 #@! TD.AperFunction*
G04 #@! TA.AperFunction,SMDPad,CuDef*
G36*
G01*
X151085375Y-95022500D02*
X151430375Y-95022500D01*
G75*
G02*
X151577875Y-95170000I0J-147500D01*
G01*
X151577875Y-95465000D01*
G75*
G02*
X151430375Y-95612500I-147500J0D01*
G01*
X151085375Y-95612500D01*
G75*
G02*
X150937875Y-95465000I0J147500D01*
G01*
X150937875Y-95170000D01*
G75*
G02*
X151085375Y-95022500I147500J0D01*
G01*
G37*
G04 #@! TD.AperFunction*
G04 #@! TA.AperFunction,SMDPad,CuDef*
G36*
G01*
X151085375Y-94052500D02*
X151430375Y-94052500D01*
G75*
G02*
X151577875Y-94200000I0J-147500D01*
G01*
X151577875Y-94495000D01*
G75*
G02*
X151430375Y-94642500I-147500J0D01*
G01*
X151085375Y-94642500D01*
G75*
G02*
X150937875Y-94495000I0J147500D01*
G01*
X150937875Y-94200000D01*
G75*
G02*
X151085375Y-94052500I147500J0D01*
G01*
G37*
G04 #@! TD.AperFunction*
G04 #@! TA.AperFunction,SMDPad,CuDef*
G36*
G01*
X151085375Y-91847500D02*
X151430375Y-91847500D01*
G75*
G02*
X151577875Y-91995000I0J-147500D01*
G01*
X151577875Y-92290000D01*
G75*
G02*
X151430375Y-92437500I-147500J0D01*
G01*
X151085375Y-92437500D01*
G75*
G02*
X150937875Y-92290000I0J147500D01*
G01*
X150937875Y-91995000D01*
G75*
G02*
X151085375Y-91847500I147500J0D01*
G01*
G37*
G04 #@! TD.AperFunction*
G04 #@! TA.AperFunction,SMDPad,CuDef*
G36*
G01*
X151085375Y-90877500D02*
X151430375Y-90877500D01*
G75*
G02*
X151577875Y-91025000I0J-147500D01*
G01*
X151577875Y-91320000D01*
G75*
G02*
X151430375Y-91467500I-147500J0D01*
G01*
X151085375Y-91467500D01*
G75*
G02*
X150937875Y-91320000I0J147500D01*
G01*
X150937875Y-91025000D01*
G75*
G02*
X151085375Y-90877500I147500J0D01*
G01*
G37*
G04 #@! TD.AperFunction*
G04 #@! TA.AperFunction,SMDPad,CuDef*
G36*
G01*
X152638500Y-93417500D02*
X152638500Y-93072500D01*
G75*
G02*
X152786000Y-92925000I147500J0D01*
G01*
X153081000Y-92925000D01*
G75*
G02*
X153228500Y-93072500I0J-147500D01*
G01*
X153228500Y-93417500D01*
G75*
G02*
X153081000Y-93565000I-147500J0D01*
G01*
X152786000Y-93565000D01*
G75*
G02*
X152638500Y-93417500I0J147500D01*
G01*
G37*
G04 #@! TD.AperFunction*
G04 #@! TA.AperFunction,SMDPad,CuDef*
G36*
G01*
X151668500Y-93417500D02*
X151668500Y-93072500D01*
G75*
G02*
X151816000Y-92925000I147500J0D01*
G01*
X152111000Y-92925000D01*
G75*
G02*
X152258500Y-93072500I0J-147500D01*
G01*
X152258500Y-93417500D01*
G75*
G02*
X152111000Y-93565000I-147500J0D01*
G01*
X151816000Y-93565000D01*
G75*
G02*
X151668500Y-93417500I0J147500D01*
G01*
G37*
G04 #@! TD.AperFunction*
G04 #@! TA.AperFunction,SMDPad,CuDef*
G36*
G01*
X157004125Y-90242500D02*
X157004125Y-89897500D01*
G75*
G02*
X157151625Y-89750000I147500J0D01*
G01*
X157446625Y-89750000D01*
G75*
G02*
X157594125Y-89897500I0J-147500D01*
G01*
X157594125Y-90242500D01*
G75*
G02*
X157446625Y-90390000I-147500J0D01*
G01*
X157151625Y-90390000D01*
G75*
G02*
X157004125Y-90242500I0J147500D01*
G01*
G37*
G04 #@! TD.AperFunction*
G04 #@! TA.AperFunction,SMDPad,CuDef*
G36*
G01*
X156034125Y-90242500D02*
X156034125Y-89897500D01*
G75*
G02*
X156181625Y-89750000I147500J0D01*
G01*
X156476625Y-89750000D01*
G75*
G02*
X156624125Y-89897500I0J-147500D01*
G01*
X156624125Y-90242500D01*
G75*
G02*
X156476625Y-90390000I-147500J0D01*
G01*
X156181625Y-90390000D01*
G75*
G02*
X156034125Y-90242500I0J147500D01*
G01*
G37*
G04 #@! TD.AperFunction*
G04 #@! TA.AperFunction,SMDPad,CuDef*
G36*
G01*
X157832250Y-91847500D02*
X158177250Y-91847500D01*
G75*
G02*
X158324750Y-91995000I0J-147500D01*
G01*
X158324750Y-92290000D01*
G75*
G02*
X158177250Y-92437500I-147500J0D01*
G01*
X157832250Y-92437500D01*
G75*
G02*
X157684750Y-92290000I0J147500D01*
G01*
X157684750Y-91995000D01*
G75*
G02*
X157832250Y-91847500I147500J0D01*
G01*
G37*
G04 #@! TD.AperFunction*
G04 #@! TA.AperFunction,SMDPad,CuDef*
G36*
G01*
X157832250Y-90877500D02*
X158177250Y-90877500D01*
G75*
G02*
X158324750Y-91025000I0J-147500D01*
G01*
X158324750Y-91320000D01*
G75*
G02*
X158177250Y-91467500I-147500J0D01*
G01*
X157832250Y-91467500D01*
G75*
G02*
X157684750Y-91320000I0J147500D01*
G01*
X157684750Y-91025000D01*
G75*
G02*
X157832250Y-90877500I147500J0D01*
G01*
G37*
G04 #@! TD.AperFunction*
G04 #@! TA.AperFunction,SMDPad,CuDef*
G36*
G01*
X157832250Y-95022500D02*
X158177250Y-95022500D01*
G75*
G02*
X158324750Y-95170000I0J-147500D01*
G01*
X158324750Y-95465000D01*
G75*
G02*
X158177250Y-95612500I-147500J0D01*
G01*
X157832250Y-95612500D01*
G75*
G02*
X157684750Y-95465000I0J147500D01*
G01*
X157684750Y-95170000D01*
G75*
G02*
X157832250Y-95022500I147500J0D01*
G01*
G37*
G04 #@! TD.AperFunction*
G04 #@! TA.AperFunction,SMDPad,CuDef*
G36*
G01*
X157832250Y-94052500D02*
X158177250Y-94052500D01*
G75*
G02*
X158324750Y-94200000I0J-147500D01*
G01*
X158324750Y-94495000D01*
G75*
G02*
X158177250Y-94642500I-147500J0D01*
G01*
X157832250Y-94642500D01*
G75*
G02*
X157684750Y-94495000I0J147500D01*
G01*
X157684750Y-94200000D01*
G75*
G02*
X157832250Y-94052500I147500J0D01*
G01*
G37*
G04 #@! TD.AperFunction*
G04 #@! TA.AperFunction,SMDPad,CuDef*
G36*
G01*
X157004125Y-96592500D02*
X157004125Y-96247500D01*
G75*
G02*
X157151625Y-96100000I147500J0D01*
G01*
X157446625Y-96100000D01*
G75*
G02*
X157594125Y-96247500I0J-147500D01*
G01*
X157594125Y-96592500D01*
G75*
G02*
X157446625Y-96740000I-147500J0D01*
G01*
X157151625Y-96740000D01*
G75*
G02*
X157004125Y-96592500I0J147500D01*
G01*
G37*
G04 #@! TD.AperFunction*
G04 #@! TA.AperFunction,SMDPad,CuDef*
G36*
G01*
X156034125Y-96592500D02*
X156034125Y-96247500D01*
G75*
G02*
X156181625Y-96100000I147500J0D01*
G01*
X156476625Y-96100000D01*
G75*
G02*
X156624125Y-96247500I0J-147500D01*
G01*
X156624125Y-96592500D01*
G75*
G02*
X156476625Y-96740000I-147500J0D01*
G01*
X156181625Y-96740000D01*
G75*
G02*
X156034125Y-96592500I0J147500D01*
G01*
G37*
G04 #@! TD.AperFunction*
G04 #@! TA.AperFunction,SMDPad,CuDef*
G36*
G01*
X155451000Y-95022500D02*
X155796000Y-95022500D01*
G75*
G02*
X155943500Y-95170000I0J-147500D01*
G01*
X155943500Y-95465000D01*
G75*
G02*
X155796000Y-95612500I-147500J0D01*
G01*
X155451000Y-95612500D01*
G75*
G02*
X155303500Y-95465000I0J147500D01*
G01*
X155303500Y-95170000D01*
G75*
G02*
X155451000Y-95022500I147500J0D01*
G01*
G37*
G04 #@! TD.AperFunction*
G04 #@! TA.AperFunction,SMDPad,CuDef*
G36*
G01*
X155451000Y-94052500D02*
X155796000Y-94052500D01*
G75*
G02*
X155943500Y-94200000I0J-147500D01*
G01*
X155943500Y-94495000D01*
G75*
G02*
X155796000Y-94642500I-147500J0D01*
G01*
X155451000Y-94642500D01*
G75*
G02*
X155303500Y-94495000I0J147500D01*
G01*
X155303500Y-94200000D01*
G75*
G02*
X155451000Y-94052500I147500J0D01*
G01*
G37*
G04 #@! TD.AperFunction*
G04 #@! TA.AperFunction,SMDPad,CuDef*
G36*
G01*
X155451000Y-91847500D02*
X155796000Y-91847500D01*
G75*
G02*
X155943500Y-91995000I0J-147500D01*
G01*
X155943500Y-92290000D01*
G75*
G02*
X155796000Y-92437500I-147500J0D01*
G01*
X155451000Y-92437500D01*
G75*
G02*
X155303500Y-92290000I0J147500D01*
G01*
X155303500Y-91995000D01*
G75*
G02*
X155451000Y-91847500I147500J0D01*
G01*
G37*
G04 #@! TD.AperFunction*
G04 #@! TA.AperFunction,SMDPad,CuDef*
G36*
G01*
X155451000Y-90877500D02*
X155796000Y-90877500D01*
G75*
G02*
X155943500Y-91025000I0J-147500D01*
G01*
X155943500Y-91320000D01*
G75*
G02*
X155796000Y-91467500I-147500J0D01*
G01*
X155451000Y-91467500D01*
G75*
G02*
X155303500Y-91320000I0J147500D01*
G01*
X155303500Y-91025000D01*
G75*
G02*
X155451000Y-90877500I147500J0D01*
G01*
G37*
G04 #@! TD.AperFunction*
G04 #@! TA.AperFunction,SMDPad,CuDef*
G36*
G01*
X157004125Y-93417500D02*
X157004125Y-93072500D01*
G75*
G02*
X157151625Y-92925000I147500J0D01*
G01*
X157446625Y-92925000D01*
G75*
G02*
X157594125Y-93072500I0J-147500D01*
G01*
X157594125Y-93417500D01*
G75*
G02*
X157446625Y-93565000I-147500J0D01*
G01*
X157151625Y-93565000D01*
G75*
G02*
X157004125Y-93417500I0J147500D01*
G01*
G37*
G04 #@! TD.AperFunction*
G04 #@! TA.AperFunction,SMDPad,CuDef*
G36*
G01*
X156034125Y-93417500D02*
X156034125Y-93072500D01*
G75*
G02*
X156181625Y-92925000I147500J0D01*
G01*
X156476625Y-92925000D01*
G75*
G02*
X156624125Y-93072500I0J-147500D01*
G01*
X156624125Y-93417500D01*
G75*
G02*
X156476625Y-93565000I-147500J0D01*
G01*
X156181625Y-93565000D01*
G75*
G02*
X156034125Y-93417500I0J147500D01*
G01*
G37*
G04 #@! TD.AperFunction*
G04 #@! TA.AperFunction,SMDPad,CuDef*
G36*
G01*
X111014000Y-111161000D02*
X111359000Y-111161000D01*
G75*
G02*
X111506500Y-111308500I0J-147500D01*
G01*
X111506500Y-111603500D01*
G75*
G02*
X111359000Y-111751000I-147500J0D01*
G01*
X111014000Y-111751000D01*
G75*
G02*
X110866500Y-111603500I0J147500D01*
G01*
X110866500Y-111308500D01*
G75*
G02*
X111014000Y-111161000I147500J0D01*
G01*
G37*
G04 #@! TD.AperFunction*
G04 #@! TA.AperFunction,SMDPad,CuDef*
G36*
G01*
X111014000Y-112131000D02*
X111359000Y-112131000D01*
G75*
G02*
X111506500Y-112278500I0J-147500D01*
G01*
X111506500Y-112573500D01*
G75*
G02*
X111359000Y-112721000I-147500J0D01*
G01*
X111014000Y-112721000D01*
G75*
G02*
X110866500Y-112573500I0J147500D01*
G01*
X110866500Y-112278500D01*
G75*
G02*
X111014000Y-112131000I147500J0D01*
G01*
G37*
G04 #@! TD.AperFunction*
D10*
X124525000Y-120515000D03*
X121985000Y-120515000D03*
X119445000Y-120515000D03*
X116905000Y-120515000D03*
X114365000Y-120515000D03*
X111825000Y-120515000D03*
X109285000Y-120515000D03*
X106745000Y-120515000D03*
D11*
X104205000Y-120515000D03*
D10*
X124525000Y-106545000D03*
X121985000Y-106545000D03*
X119445000Y-106545000D03*
X116905000Y-106545000D03*
X114365000Y-106545000D03*
X111825000Y-106545000D03*
X109285000Y-106545000D03*
X106745000Y-106545000D03*
D11*
X104205000Y-106545000D03*
G04 #@! TA.AperFunction,SMDPad,CuDef*
G36*
G01*
X115169000Y-110526000D02*
X115169000Y-110181000D01*
G75*
G02*
X115316500Y-110033500I147500J0D01*
G01*
X115611500Y-110033500D01*
G75*
G02*
X115759000Y-110181000I0J-147500D01*
G01*
X115759000Y-110526000D01*
G75*
G02*
X115611500Y-110673500I-147500J0D01*
G01*
X115316500Y-110673500D01*
G75*
G02*
X115169000Y-110526000I0J147500D01*
G01*
G37*
G04 #@! TD.AperFunction*
G04 #@! TA.AperFunction,SMDPad,CuDef*
G36*
G01*
X116139000Y-110526000D02*
X116139000Y-110181000D01*
G75*
G02*
X116286500Y-110033500I147500J0D01*
G01*
X116581500Y-110033500D01*
G75*
G02*
X116729000Y-110181000I0J-147500D01*
G01*
X116729000Y-110526000D01*
G75*
G02*
X116581500Y-110673500I-147500J0D01*
G01*
X116286500Y-110673500D01*
G75*
G02*
X116139000Y-110526000I0J147500D01*
G01*
G37*
G04 #@! TD.AperFunction*
G04 #@! TA.AperFunction,SMDPad,CuDef*
G36*
G01*
X117364000Y-111161000D02*
X117709000Y-111161000D01*
G75*
G02*
X117856500Y-111308500I0J-147500D01*
G01*
X117856500Y-111603500D01*
G75*
G02*
X117709000Y-111751000I-147500J0D01*
G01*
X117364000Y-111751000D01*
G75*
G02*
X117216500Y-111603500I0J147500D01*
G01*
X117216500Y-111308500D01*
G75*
G02*
X117364000Y-111161000I147500J0D01*
G01*
G37*
G04 #@! TD.AperFunction*
G04 #@! TA.AperFunction,SMDPad,CuDef*
G36*
G01*
X117364000Y-112131000D02*
X117709000Y-112131000D01*
G75*
G02*
X117856500Y-112278500I0J-147500D01*
G01*
X117856500Y-112573500D01*
G75*
G02*
X117709000Y-112721000I-147500J0D01*
G01*
X117364000Y-112721000D01*
G75*
G02*
X117216500Y-112573500I0J147500D01*
G01*
X117216500Y-112278500D01*
G75*
G02*
X117364000Y-112131000I147500J0D01*
G01*
G37*
G04 #@! TD.AperFunction*
G04 #@! TA.AperFunction,SMDPad,CuDef*
G36*
G01*
X115692673Y-111953375D02*
X115936625Y-112197327D01*
G75*
G02*
X115936625Y-112405923I-104298J-104298D01*
G01*
X115728029Y-112614519D01*
G75*
G02*
X115519433Y-112614519I-104298J104298D01*
G01*
X115275481Y-112370567D01*
G75*
G02*
X115275481Y-112161971I104298J104298D01*
G01*
X115484077Y-111953375D01*
G75*
G02*
X115692673Y-111953375I104298J-104298D01*
G01*
G37*
G04 #@! TD.AperFunction*
G04 #@! TA.AperFunction,SMDPad,CuDef*
G36*
G01*
X116378567Y-111267481D02*
X116622519Y-111511433D01*
G75*
G02*
X116622519Y-111720029I-104298J-104298D01*
G01*
X116413923Y-111928625D01*
G75*
G02*
X116205327Y-111928625I-104298J104298D01*
G01*
X115961375Y-111684673D01*
G75*
G02*
X115961375Y-111476077I104298J104298D01*
G01*
X116169971Y-111267481D01*
G75*
G02*
X116378567Y-111267481I104298J-104298D01*
G01*
G37*
G04 #@! TD.AperFunction*
G04 #@! TA.AperFunction,SMDPad,CuDef*
G36*
G01*
X115169000Y-116876000D02*
X115169000Y-116531000D01*
G75*
G02*
X115316500Y-116383500I147500J0D01*
G01*
X115611500Y-116383500D01*
G75*
G02*
X115759000Y-116531000I0J-147500D01*
G01*
X115759000Y-116876000D01*
G75*
G02*
X115611500Y-117023500I-147500J0D01*
G01*
X115316500Y-117023500D01*
G75*
G02*
X115169000Y-116876000I0J147500D01*
G01*
G37*
G04 #@! TD.AperFunction*
G04 #@! TA.AperFunction,SMDPad,CuDef*
G36*
G01*
X116139000Y-116876000D02*
X116139000Y-116531000D01*
G75*
G02*
X116286500Y-116383500I147500J0D01*
G01*
X116581500Y-116383500D01*
G75*
G02*
X116729000Y-116531000I0J-147500D01*
G01*
X116729000Y-116876000D01*
G75*
G02*
X116581500Y-117023500I-147500J0D01*
G01*
X116286500Y-117023500D01*
G75*
G02*
X116139000Y-116876000I0J147500D01*
G01*
G37*
G04 #@! TD.AperFunction*
G04 #@! TA.AperFunction,SMDPad,CuDef*
G36*
G01*
X115275481Y-114686433D02*
X115519433Y-114442481D01*
G75*
G02*
X115728029Y-114442481I104298J-104298D01*
G01*
X115936625Y-114651077D01*
G75*
G02*
X115936625Y-114859673I-104298J-104298D01*
G01*
X115692673Y-115103625D01*
G75*
G02*
X115484077Y-115103625I-104298J104298D01*
G01*
X115275481Y-114895029D01*
G75*
G02*
X115275481Y-114686433I104298J104298D01*
G01*
G37*
G04 #@! TD.AperFunction*
G04 #@! TA.AperFunction,SMDPad,CuDef*
G36*
G01*
X115961375Y-115372327D02*
X116205327Y-115128375D01*
G75*
G02*
X116413923Y-115128375I104298J-104298D01*
G01*
X116622519Y-115336971D01*
G75*
G02*
X116622519Y-115545567I-104298J-104298D01*
G01*
X116378567Y-115789519D01*
G75*
G02*
X116169971Y-115789519I-104298J104298D01*
G01*
X115961375Y-115580923D01*
G75*
G02*
X115961375Y-115372327I104298J104298D01*
G01*
G37*
G04 #@! TD.AperFunction*
G04 #@! TA.AperFunction,SMDPad,CuDef*
G36*
G01*
X113203567Y-114442481D02*
X113447519Y-114686433D01*
G75*
G02*
X113447519Y-114895029I-104298J-104298D01*
G01*
X113238923Y-115103625D01*
G75*
G02*
X113030327Y-115103625I-104298J104298D01*
G01*
X112786375Y-114859673D01*
G75*
G02*
X112786375Y-114651077I104298J104298D01*
G01*
X112994971Y-114442481D01*
G75*
G02*
X113203567Y-114442481I104298J-104298D01*
G01*
G37*
G04 #@! TD.AperFunction*
G04 #@! TA.AperFunction,SMDPad,CuDef*
G36*
G01*
X112517673Y-115128375D02*
X112761625Y-115372327D01*
G75*
G02*
X112761625Y-115580923I-104298J-104298D01*
G01*
X112553029Y-115789519D01*
G75*
G02*
X112344433Y-115789519I-104298J104298D01*
G01*
X112100481Y-115545567D01*
G75*
G02*
X112100481Y-115336971I104298J104298D01*
G01*
X112309077Y-115128375D01*
G75*
G02*
X112517673Y-115128375I104298J-104298D01*
G01*
G37*
G04 #@! TD.AperFunction*
G04 #@! TA.AperFunction,SMDPad,CuDef*
G36*
G01*
X112786375Y-112197327D02*
X113030327Y-111953375D01*
G75*
G02*
X113238923Y-111953375I104298J-104298D01*
G01*
X113447519Y-112161971D01*
G75*
G02*
X113447519Y-112370567I-104298J-104298D01*
G01*
X113203567Y-112614519D01*
G75*
G02*
X112994971Y-112614519I-104298J104298D01*
G01*
X112786375Y-112405923D01*
G75*
G02*
X112786375Y-112197327I104298J104298D01*
G01*
G37*
G04 #@! TD.AperFunction*
G04 #@! TA.AperFunction,SMDPad,CuDef*
G36*
G01*
X112100481Y-111511433D02*
X112344433Y-111267481D01*
G75*
G02*
X112553029Y-111267481I104298J-104298D01*
G01*
X112761625Y-111476077D01*
G75*
G02*
X112761625Y-111684673I-104298J-104298D01*
G01*
X112517673Y-111928625D01*
G75*
G02*
X112309077Y-111928625I-104298J104298D01*
G01*
X112100481Y-111720029D01*
G75*
G02*
X112100481Y-111511433I104298J104298D01*
G01*
G37*
G04 #@! TD.AperFunction*
G04 #@! TA.AperFunction,SMDPad,CuDef*
G36*
G01*
X113554000Y-113356000D02*
X113554000Y-113701000D01*
G75*
G02*
X113406500Y-113848500I-147500J0D01*
G01*
X113111500Y-113848500D01*
G75*
G02*
X112964000Y-113701000I0J147500D01*
G01*
X112964000Y-113356000D01*
G75*
G02*
X113111500Y-113208500I147500J0D01*
G01*
X113406500Y-113208500D01*
G75*
G02*
X113554000Y-113356000I0J-147500D01*
G01*
G37*
G04 #@! TD.AperFunction*
G04 #@! TA.AperFunction,SMDPad,CuDef*
G36*
G01*
X112584000Y-113356000D02*
X112584000Y-113701000D01*
G75*
G02*
X112436500Y-113848500I-147500J0D01*
G01*
X112141500Y-113848500D01*
G75*
G02*
X111994000Y-113701000I0J147500D01*
G01*
X111994000Y-113356000D01*
G75*
G02*
X112141500Y-113208500I147500J0D01*
G01*
X112436500Y-113208500D01*
G75*
G02*
X112584000Y-113356000I0J-147500D01*
G01*
G37*
G04 #@! TD.AperFunction*
G04 #@! TA.AperFunction,SMDPad,CuDef*
G36*
G01*
X113554000Y-116531000D02*
X113554000Y-116876000D01*
G75*
G02*
X113406500Y-117023500I-147500J0D01*
G01*
X113111500Y-117023500D01*
G75*
G02*
X112964000Y-116876000I0J147500D01*
G01*
X112964000Y-116531000D01*
G75*
G02*
X113111500Y-116383500I147500J0D01*
G01*
X113406500Y-116383500D01*
G75*
G02*
X113554000Y-116531000I0J-147500D01*
G01*
G37*
G04 #@! TD.AperFunction*
G04 #@! TA.AperFunction,SMDPad,CuDef*
G36*
G01*
X112584000Y-116531000D02*
X112584000Y-116876000D01*
G75*
G02*
X112436500Y-117023500I-147500J0D01*
G01*
X112141500Y-117023500D01*
G75*
G02*
X111994000Y-116876000I0J147500D01*
G01*
X111994000Y-116531000D01*
G75*
G02*
X112141500Y-116383500I147500J0D01*
G01*
X112436500Y-116383500D01*
G75*
G02*
X112584000Y-116531000I0J-147500D01*
G01*
G37*
G04 #@! TD.AperFunction*
G04 #@! TA.AperFunction,SMDPad,CuDef*
G36*
G01*
X114189000Y-111161000D02*
X114534000Y-111161000D01*
G75*
G02*
X114681500Y-111308500I0J-147500D01*
G01*
X114681500Y-111603500D01*
G75*
G02*
X114534000Y-111751000I-147500J0D01*
G01*
X114189000Y-111751000D01*
G75*
G02*
X114041500Y-111603500I0J147500D01*
G01*
X114041500Y-111308500D01*
G75*
G02*
X114189000Y-111161000I147500J0D01*
G01*
G37*
G04 #@! TD.AperFunction*
G04 #@! TA.AperFunction,SMDPad,CuDef*
G36*
G01*
X114189000Y-112131000D02*
X114534000Y-112131000D01*
G75*
G02*
X114681500Y-112278500I0J-147500D01*
G01*
X114681500Y-112573500D01*
G75*
G02*
X114534000Y-112721000I-147500J0D01*
G01*
X114189000Y-112721000D01*
G75*
G02*
X114041500Y-112573500I0J147500D01*
G01*
X114041500Y-112278500D01*
G75*
G02*
X114189000Y-112131000I147500J0D01*
G01*
G37*
G04 #@! TD.AperFunction*
G04 #@! TA.AperFunction,SMDPad,CuDef*
G36*
G01*
X115169000Y-113701000D02*
X115169000Y-113356000D01*
G75*
G02*
X115316500Y-113208500I147500J0D01*
G01*
X115611500Y-113208500D01*
G75*
G02*
X115759000Y-113356000I0J-147500D01*
G01*
X115759000Y-113701000D01*
G75*
G02*
X115611500Y-113848500I-147500J0D01*
G01*
X115316500Y-113848500D01*
G75*
G02*
X115169000Y-113701000I0J147500D01*
G01*
G37*
G04 #@! TD.AperFunction*
G04 #@! TA.AperFunction,SMDPad,CuDef*
G36*
G01*
X116139000Y-113701000D02*
X116139000Y-113356000D01*
G75*
G02*
X116286500Y-113208500I147500J0D01*
G01*
X116581500Y-113208500D01*
G75*
G02*
X116729000Y-113356000I0J-147500D01*
G01*
X116729000Y-113701000D01*
G75*
G02*
X116581500Y-113848500I-147500J0D01*
G01*
X116286500Y-113848500D01*
G75*
G02*
X116139000Y-113701000I0J147500D01*
G01*
G37*
G04 #@! TD.AperFunction*
G04 #@! TA.AperFunction,SMDPad,CuDef*
G36*
G01*
X114189000Y-115306000D02*
X114534000Y-115306000D01*
G75*
G02*
X114681500Y-115453500I0J-147500D01*
G01*
X114681500Y-115748500D01*
G75*
G02*
X114534000Y-115896000I-147500J0D01*
G01*
X114189000Y-115896000D01*
G75*
G02*
X114041500Y-115748500I0J147500D01*
G01*
X114041500Y-115453500D01*
G75*
G02*
X114189000Y-115306000I147500J0D01*
G01*
G37*
G04 #@! TD.AperFunction*
G04 #@! TA.AperFunction,SMDPad,CuDef*
G36*
G01*
X114189000Y-114336000D02*
X114534000Y-114336000D01*
G75*
G02*
X114681500Y-114483500I0J-147500D01*
G01*
X114681500Y-114778500D01*
G75*
G02*
X114534000Y-114926000I-147500J0D01*
G01*
X114189000Y-114926000D01*
G75*
G02*
X114041500Y-114778500I0J147500D01*
G01*
X114041500Y-114483500D01*
G75*
G02*
X114189000Y-114336000I147500J0D01*
G01*
G37*
G04 #@! TD.AperFunction*
G04 #@! TA.AperFunction,SMDPad,CuDef*
G36*
G01*
X111014000Y-115306000D02*
X111359000Y-115306000D01*
G75*
G02*
X111506500Y-115453500I0J-147500D01*
G01*
X111506500Y-115748500D01*
G75*
G02*
X111359000Y-115896000I-147500J0D01*
G01*
X111014000Y-115896000D01*
G75*
G02*
X110866500Y-115748500I0J147500D01*
G01*
X110866500Y-115453500D01*
G75*
G02*
X111014000Y-115306000I147500J0D01*
G01*
G37*
G04 #@! TD.AperFunction*
G04 #@! TA.AperFunction,SMDPad,CuDef*
G36*
G01*
X111014000Y-114336000D02*
X111359000Y-114336000D01*
G75*
G02*
X111506500Y-114483500I0J-147500D01*
G01*
X111506500Y-114778500D01*
G75*
G02*
X111359000Y-114926000I-147500J0D01*
G01*
X111014000Y-114926000D01*
G75*
G02*
X110866500Y-114778500I0J147500D01*
G01*
X110866500Y-114483500D01*
G75*
G02*
X111014000Y-114336000I147500J0D01*
G01*
G37*
G04 #@! TD.AperFunction*
G04 #@! TA.AperFunction,SMDPad,CuDef*
G36*
G01*
X112584000Y-110181000D02*
X112584000Y-110526000D01*
G75*
G02*
X112436500Y-110673500I-147500J0D01*
G01*
X112141500Y-110673500D01*
G75*
G02*
X111994000Y-110526000I0J147500D01*
G01*
X111994000Y-110181000D01*
G75*
G02*
X112141500Y-110033500I147500J0D01*
G01*
X112436500Y-110033500D01*
G75*
G02*
X112584000Y-110181000I0J-147500D01*
G01*
G37*
G04 #@! TD.AperFunction*
G04 #@! TA.AperFunction,SMDPad,CuDef*
G36*
G01*
X113554000Y-110181000D02*
X113554000Y-110526000D01*
G75*
G02*
X113406500Y-110673500I-147500J0D01*
G01*
X113111500Y-110673500D01*
G75*
G02*
X112964000Y-110526000I0J147500D01*
G01*
X112964000Y-110181000D01*
G75*
G02*
X113111500Y-110033500I147500J0D01*
G01*
X113406500Y-110033500D01*
G75*
G02*
X113554000Y-110181000I0J-147500D01*
G01*
G37*
G04 #@! TD.AperFunction*
G04 #@! TA.AperFunction,SMDPad,CuDef*
G36*
G01*
X117364000Y-115306000D02*
X117709000Y-115306000D01*
G75*
G02*
X117856500Y-115453500I0J-147500D01*
G01*
X117856500Y-115748500D01*
G75*
G02*
X117709000Y-115896000I-147500J0D01*
G01*
X117364000Y-115896000D01*
G75*
G02*
X117216500Y-115748500I0J147500D01*
G01*
X117216500Y-115453500D01*
G75*
G02*
X117364000Y-115306000I147500J0D01*
G01*
G37*
G04 #@! TD.AperFunction*
G04 #@! TA.AperFunction,SMDPad,CuDef*
G36*
G01*
X117364000Y-114336000D02*
X117709000Y-114336000D01*
G75*
G02*
X117856500Y-114483500I0J-147500D01*
G01*
X117856500Y-114778500D01*
G75*
G02*
X117709000Y-114926000I-147500J0D01*
G01*
X117364000Y-114926000D01*
G75*
G02*
X117216500Y-114778500I0J147500D01*
G01*
X117216500Y-114483500D01*
G75*
G02*
X117364000Y-114336000I147500J0D01*
G01*
G37*
G04 #@! TD.AperFunction*
G04 #@! TA.AperFunction,SMDPad,CuDef*
G36*
G01*
X138164000Y-111161000D02*
X138509000Y-111161000D01*
G75*
G02*
X138656500Y-111308500I0J-147500D01*
G01*
X138656500Y-111603500D01*
G75*
G02*
X138509000Y-111751000I-147500J0D01*
G01*
X138164000Y-111751000D01*
G75*
G02*
X138016500Y-111603500I0J147500D01*
G01*
X138016500Y-111308500D01*
G75*
G02*
X138164000Y-111161000I147500J0D01*
G01*
G37*
G04 #@! TD.AperFunction*
G04 #@! TA.AperFunction,SMDPad,CuDef*
G36*
G01*
X138164000Y-112131000D02*
X138509000Y-112131000D01*
G75*
G02*
X138656500Y-112278500I0J-147500D01*
G01*
X138656500Y-112573500D01*
G75*
G02*
X138509000Y-112721000I-147500J0D01*
G01*
X138164000Y-112721000D01*
G75*
G02*
X138016500Y-112573500I0J147500D01*
G01*
X138016500Y-112278500D01*
G75*
G02*
X138164000Y-112131000I147500J0D01*
G01*
G37*
G04 #@! TD.AperFunction*
D10*
X151675000Y-120515000D03*
X149135000Y-120515000D03*
X146595000Y-120515000D03*
X144055000Y-120515000D03*
X141515000Y-120515000D03*
X138975000Y-120515000D03*
X136435000Y-120515000D03*
X133895000Y-120515000D03*
D11*
X131355000Y-120515000D03*
D10*
X151675000Y-106545000D03*
X149135000Y-106545000D03*
X146595000Y-106545000D03*
X144055000Y-106545000D03*
X141515000Y-106545000D03*
X138975000Y-106545000D03*
X136435000Y-106545000D03*
X133895000Y-106545000D03*
D11*
X131355000Y-106545000D03*
G04 #@! TA.AperFunction,SMDPad,CuDef*
G36*
G01*
X142319000Y-110526000D02*
X142319000Y-110181000D01*
G75*
G02*
X142466500Y-110033500I147500J0D01*
G01*
X142761500Y-110033500D01*
G75*
G02*
X142909000Y-110181000I0J-147500D01*
G01*
X142909000Y-110526000D01*
G75*
G02*
X142761500Y-110673500I-147500J0D01*
G01*
X142466500Y-110673500D01*
G75*
G02*
X142319000Y-110526000I0J147500D01*
G01*
G37*
G04 #@! TD.AperFunction*
G04 #@! TA.AperFunction,SMDPad,CuDef*
G36*
G01*
X143289000Y-110526000D02*
X143289000Y-110181000D01*
G75*
G02*
X143436500Y-110033500I147500J0D01*
G01*
X143731500Y-110033500D01*
G75*
G02*
X143879000Y-110181000I0J-147500D01*
G01*
X143879000Y-110526000D01*
G75*
G02*
X143731500Y-110673500I-147500J0D01*
G01*
X143436500Y-110673500D01*
G75*
G02*
X143289000Y-110526000I0J147500D01*
G01*
G37*
G04 #@! TD.AperFunction*
G04 #@! TA.AperFunction,SMDPad,CuDef*
G36*
G01*
X144514000Y-111161000D02*
X144859000Y-111161000D01*
G75*
G02*
X145006500Y-111308500I0J-147500D01*
G01*
X145006500Y-111603500D01*
G75*
G02*
X144859000Y-111751000I-147500J0D01*
G01*
X144514000Y-111751000D01*
G75*
G02*
X144366500Y-111603500I0J147500D01*
G01*
X144366500Y-111308500D01*
G75*
G02*
X144514000Y-111161000I147500J0D01*
G01*
G37*
G04 #@! TD.AperFunction*
G04 #@! TA.AperFunction,SMDPad,CuDef*
G36*
G01*
X144514000Y-112131000D02*
X144859000Y-112131000D01*
G75*
G02*
X145006500Y-112278500I0J-147500D01*
G01*
X145006500Y-112573500D01*
G75*
G02*
X144859000Y-112721000I-147500J0D01*
G01*
X144514000Y-112721000D01*
G75*
G02*
X144366500Y-112573500I0J147500D01*
G01*
X144366500Y-112278500D01*
G75*
G02*
X144514000Y-112131000I147500J0D01*
G01*
G37*
G04 #@! TD.AperFunction*
G04 #@! TA.AperFunction,SMDPad,CuDef*
G36*
G01*
X142842673Y-111953375D02*
X143086625Y-112197327D01*
G75*
G02*
X143086625Y-112405923I-104298J-104298D01*
G01*
X142878029Y-112614519D01*
G75*
G02*
X142669433Y-112614519I-104298J104298D01*
G01*
X142425481Y-112370567D01*
G75*
G02*
X142425481Y-112161971I104298J104298D01*
G01*
X142634077Y-111953375D01*
G75*
G02*
X142842673Y-111953375I104298J-104298D01*
G01*
G37*
G04 #@! TD.AperFunction*
G04 #@! TA.AperFunction,SMDPad,CuDef*
G36*
G01*
X143528567Y-111267481D02*
X143772519Y-111511433D01*
G75*
G02*
X143772519Y-111720029I-104298J-104298D01*
G01*
X143563923Y-111928625D01*
G75*
G02*
X143355327Y-111928625I-104298J104298D01*
G01*
X143111375Y-111684673D01*
G75*
G02*
X143111375Y-111476077I104298J104298D01*
G01*
X143319971Y-111267481D01*
G75*
G02*
X143528567Y-111267481I104298J-104298D01*
G01*
G37*
G04 #@! TD.AperFunction*
G04 #@! TA.AperFunction,SMDPad,CuDef*
G36*
G01*
X142319000Y-116876000D02*
X142319000Y-116531000D01*
G75*
G02*
X142466500Y-116383500I147500J0D01*
G01*
X142761500Y-116383500D01*
G75*
G02*
X142909000Y-116531000I0J-147500D01*
G01*
X142909000Y-116876000D01*
G75*
G02*
X142761500Y-117023500I-147500J0D01*
G01*
X142466500Y-117023500D01*
G75*
G02*
X142319000Y-116876000I0J147500D01*
G01*
G37*
G04 #@! TD.AperFunction*
G04 #@! TA.AperFunction,SMDPad,CuDef*
G36*
G01*
X143289000Y-116876000D02*
X143289000Y-116531000D01*
G75*
G02*
X143436500Y-116383500I147500J0D01*
G01*
X143731500Y-116383500D01*
G75*
G02*
X143879000Y-116531000I0J-147500D01*
G01*
X143879000Y-116876000D01*
G75*
G02*
X143731500Y-117023500I-147500J0D01*
G01*
X143436500Y-117023500D01*
G75*
G02*
X143289000Y-116876000I0J147500D01*
G01*
G37*
G04 #@! TD.AperFunction*
G04 #@! TA.AperFunction,SMDPad,CuDef*
G36*
G01*
X142425481Y-114686433D02*
X142669433Y-114442481D01*
G75*
G02*
X142878029Y-114442481I104298J-104298D01*
G01*
X143086625Y-114651077D01*
G75*
G02*
X143086625Y-114859673I-104298J-104298D01*
G01*
X142842673Y-115103625D01*
G75*
G02*
X142634077Y-115103625I-104298J104298D01*
G01*
X142425481Y-114895029D01*
G75*
G02*
X142425481Y-114686433I104298J104298D01*
G01*
G37*
G04 #@! TD.AperFunction*
G04 #@! TA.AperFunction,SMDPad,CuDef*
G36*
G01*
X143111375Y-115372327D02*
X143355327Y-115128375D01*
G75*
G02*
X143563923Y-115128375I104298J-104298D01*
G01*
X143772519Y-115336971D01*
G75*
G02*
X143772519Y-115545567I-104298J-104298D01*
G01*
X143528567Y-115789519D01*
G75*
G02*
X143319971Y-115789519I-104298J104298D01*
G01*
X143111375Y-115580923D01*
G75*
G02*
X143111375Y-115372327I104298J104298D01*
G01*
G37*
G04 #@! TD.AperFunction*
G04 #@! TA.AperFunction,SMDPad,CuDef*
G36*
G01*
X140353567Y-114442481D02*
X140597519Y-114686433D01*
G75*
G02*
X140597519Y-114895029I-104298J-104298D01*
G01*
X140388923Y-115103625D01*
G75*
G02*
X140180327Y-115103625I-104298J104298D01*
G01*
X139936375Y-114859673D01*
G75*
G02*
X139936375Y-114651077I104298J104298D01*
G01*
X140144971Y-114442481D01*
G75*
G02*
X140353567Y-114442481I104298J-104298D01*
G01*
G37*
G04 #@! TD.AperFunction*
G04 #@! TA.AperFunction,SMDPad,CuDef*
G36*
G01*
X139667673Y-115128375D02*
X139911625Y-115372327D01*
G75*
G02*
X139911625Y-115580923I-104298J-104298D01*
G01*
X139703029Y-115789519D01*
G75*
G02*
X139494433Y-115789519I-104298J104298D01*
G01*
X139250481Y-115545567D01*
G75*
G02*
X139250481Y-115336971I104298J104298D01*
G01*
X139459077Y-115128375D01*
G75*
G02*
X139667673Y-115128375I104298J-104298D01*
G01*
G37*
G04 #@! TD.AperFunction*
G04 #@! TA.AperFunction,SMDPad,CuDef*
G36*
G01*
X139936375Y-112197327D02*
X140180327Y-111953375D01*
G75*
G02*
X140388923Y-111953375I104298J-104298D01*
G01*
X140597519Y-112161971D01*
G75*
G02*
X140597519Y-112370567I-104298J-104298D01*
G01*
X140353567Y-112614519D01*
G75*
G02*
X140144971Y-112614519I-104298J104298D01*
G01*
X139936375Y-112405923D01*
G75*
G02*
X139936375Y-112197327I104298J104298D01*
G01*
G37*
G04 #@! TD.AperFunction*
G04 #@! TA.AperFunction,SMDPad,CuDef*
G36*
G01*
X139250481Y-111511433D02*
X139494433Y-111267481D01*
G75*
G02*
X139703029Y-111267481I104298J-104298D01*
G01*
X139911625Y-111476077D01*
G75*
G02*
X139911625Y-111684673I-104298J-104298D01*
G01*
X139667673Y-111928625D01*
G75*
G02*
X139459077Y-111928625I-104298J104298D01*
G01*
X139250481Y-111720029D01*
G75*
G02*
X139250481Y-111511433I104298J104298D01*
G01*
G37*
G04 #@! TD.AperFunction*
G04 #@! TA.AperFunction,SMDPad,CuDef*
G36*
G01*
X140704000Y-113356000D02*
X140704000Y-113701000D01*
G75*
G02*
X140556500Y-113848500I-147500J0D01*
G01*
X140261500Y-113848500D01*
G75*
G02*
X140114000Y-113701000I0J147500D01*
G01*
X140114000Y-113356000D01*
G75*
G02*
X140261500Y-113208500I147500J0D01*
G01*
X140556500Y-113208500D01*
G75*
G02*
X140704000Y-113356000I0J-147500D01*
G01*
G37*
G04 #@! TD.AperFunction*
G04 #@! TA.AperFunction,SMDPad,CuDef*
G36*
G01*
X139734000Y-113356000D02*
X139734000Y-113701000D01*
G75*
G02*
X139586500Y-113848500I-147500J0D01*
G01*
X139291500Y-113848500D01*
G75*
G02*
X139144000Y-113701000I0J147500D01*
G01*
X139144000Y-113356000D01*
G75*
G02*
X139291500Y-113208500I147500J0D01*
G01*
X139586500Y-113208500D01*
G75*
G02*
X139734000Y-113356000I0J-147500D01*
G01*
G37*
G04 #@! TD.AperFunction*
G04 #@! TA.AperFunction,SMDPad,CuDef*
G36*
G01*
X140704000Y-116531000D02*
X140704000Y-116876000D01*
G75*
G02*
X140556500Y-117023500I-147500J0D01*
G01*
X140261500Y-117023500D01*
G75*
G02*
X140114000Y-116876000I0J147500D01*
G01*
X140114000Y-116531000D01*
G75*
G02*
X140261500Y-116383500I147500J0D01*
G01*
X140556500Y-116383500D01*
G75*
G02*
X140704000Y-116531000I0J-147500D01*
G01*
G37*
G04 #@! TD.AperFunction*
G04 #@! TA.AperFunction,SMDPad,CuDef*
G36*
G01*
X139734000Y-116531000D02*
X139734000Y-116876000D01*
G75*
G02*
X139586500Y-117023500I-147500J0D01*
G01*
X139291500Y-117023500D01*
G75*
G02*
X139144000Y-116876000I0J147500D01*
G01*
X139144000Y-116531000D01*
G75*
G02*
X139291500Y-116383500I147500J0D01*
G01*
X139586500Y-116383500D01*
G75*
G02*
X139734000Y-116531000I0J-147500D01*
G01*
G37*
G04 #@! TD.AperFunction*
G04 #@! TA.AperFunction,SMDPad,CuDef*
G36*
G01*
X141339000Y-111161000D02*
X141684000Y-111161000D01*
G75*
G02*
X141831500Y-111308500I0J-147500D01*
G01*
X141831500Y-111603500D01*
G75*
G02*
X141684000Y-111751000I-147500J0D01*
G01*
X141339000Y-111751000D01*
G75*
G02*
X141191500Y-111603500I0J147500D01*
G01*
X141191500Y-111308500D01*
G75*
G02*
X141339000Y-111161000I147500J0D01*
G01*
G37*
G04 #@! TD.AperFunction*
G04 #@! TA.AperFunction,SMDPad,CuDef*
G36*
G01*
X141339000Y-112131000D02*
X141684000Y-112131000D01*
G75*
G02*
X141831500Y-112278500I0J-147500D01*
G01*
X141831500Y-112573500D01*
G75*
G02*
X141684000Y-112721000I-147500J0D01*
G01*
X141339000Y-112721000D01*
G75*
G02*
X141191500Y-112573500I0J147500D01*
G01*
X141191500Y-112278500D01*
G75*
G02*
X141339000Y-112131000I147500J0D01*
G01*
G37*
G04 #@! TD.AperFunction*
G04 #@! TA.AperFunction,SMDPad,CuDef*
G36*
G01*
X142319000Y-113701000D02*
X142319000Y-113356000D01*
G75*
G02*
X142466500Y-113208500I147500J0D01*
G01*
X142761500Y-113208500D01*
G75*
G02*
X142909000Y-113356000I0J-147500D01*
G01*
X142909000Y-113701000D01*
G75*
G02*
X142761500Y-113848500I-147500J0D01*
G01*
X142466500Y-113848500D01*
G75*
G02*
X142319000Y-113701000I0J147500D01*
G01*
G37*
G04 #@! TD.AperFunction*
G04 #@! TA.AperFunction,SMDPad,CuDef*
G36*
G01*
X143289000Y-113701000D02*
X143289000Y-113356000D01*
G75*
G02*
X143436500Y-113208500I147500J0D01*
G01*
X143731500Y-113208500D01*
G75*
G02*
X143879000Y-113356000I0J-147500D01*
G01*
X143879000Y-113701000D01*
G75*
G02*
X143731500Y-113848500I-147500J0D01*
G01*
X143436500Y-113848500D01*
G75*
G02*
X143289000Y-113701000I0J147500D01*
G01*
G37*
G04 #@! TD.AperFunction*
G04 #@! TA.AperFunction,SMDPad,CuDef*
G36*
G01*
X141339000Y-115306000D02*
X141684000Y-115306000D01*
G75*
G02*
X141831500Y-115453500I0J-147500D01*
G01*
X141831500Y-115748500D01*
G75*
G02*
X141684000Y-115896000I-147500J0D01*
G01*
X141339000Y-115896000D01*
G75*
G02*
X141191500Y-115748500I0J147500D01*
G01*
X141191500Y-115453500D01*
G75*
G02*
X141339000Y-115306000I147500J0D01*
G01*
G37*
G04 #@! TD.AperFunction*
G04 #@! TA.AperFunction,SMDPad,CuDef*
G36*
G01*
X141339000Y-114336000D02*
X141684000Y-114336000D01*
G75*
G02*
X141831500Y-114483500I0J-147500D01*
G01*
X141831500Y-114778500D01*
G75*
G02*
X141684000Y-114926000I-147500J0D01*
G01*
X141339000Y-114926000D01*
G75*
G02*
X141191500Y-114778500I0J147500D01*
G01*
X141191500Y-114483500D01*
G75*
G02*
X141339000Y-114336000I147500J0D01*
G01*
G37*
G04 #@! TD.AperFunction*
G04 #@! TA.AperFunction,SMDPad,CuDef*
G36*
G01*
X138164000Y-115306000D02*
X138509000Y-115306000D01*
G75*
G02*
X138656500Y-115453500I0J-147500D01*
G01*
X138656500Y-115748500D01*
G75*
G02*
X138509000Y-115896000I-147500J0D01*
G01*
X138164000Y-115896000D01*
G75*
G02*
X138016500Y-115748500I0J147500D01*
G01*
X138016500Y-115453500D01*
G75*
G02*
X138164000Y-115306000I147500J0D01*
G01*
G37*
G04 #@! TD.AperFunction*
G04 #@! TA.AperFunction,SMDPad,CuDef*
G36*
G01*
X138164000Y-114336000D02*
X138509000Y-114336000D01*
G75*
G02*
X138656500Y-114483500I0J-147500D01*
G01*
X138656500Y-114778500D01*
G75*
G02*
X138509000Y-114926000I-147500J0D01*
G01*
X138164000Y-114926000D01*
G75*
G02*
X138016500Y-114778500I0J147500D01*
G01*
X138016500Y-114483500D01*
G75*
G02*
X138164000Y-114336000I147500J0D01*
G01*
G37*
G04 #@! TD.AperFunction*
G04 #@! TA.AperFunction,SMDPad,CuDef*
G36*
G01*
X139734000Y-110181000D02*
X139734000Y-110526000D01*
G75*
G02*
X139586500Y-110673500I-147500J0D01*
G01*
X139291500Y-110673500D01*
G75*
G02*
X139144000Y-110526000I0J147500D01*
G01*
X139144000Y-110181000D01*
G75*
G02*
X139291500Y-110033500I147500J0D01*
G01*
X139586500Y-110033500D01*
G75*
G02*
X139734000Y-110181000I0J-147500D01*
G01*
G37*
G04 #@! TD.AperFunction*
G04 #@! TA.AperFunction,SMDPad,CuDef*
G36*
G01*
X140704000Y-110181000D02*
X140704000Y-110526000D01*
G75*
G02*
X140556500Y-110673500I-147500J0D01*
G01*
X140261500Y-110673500D01*
G75*
G02*
X140114000Y-110526000I0J147500D01*
G01*
X140114000Y-110181000D01*
G75*
G02*
X140261500Y-110033500I147500J0D01*
G01*
X140556500Y-110033500D01*
G75*
G02*
X140704000Y-110181000I0J-147500D01*
G01*
G37*
G04 #@! TD.AperFunction*
G04 #@! TA.AperFunction,SMDPad,CuDef*
G36*
G01*
X144514000Y-115306000D02*
X144859000Y-115306000D01*
G75*
G02*
X145006500Y-115453500I0J-147500D01*
G01*
X145006500Y-115748500D01*
G75*
G02*
X144859000Y-115896000I-147500J0D01*
G01*
X144514000Y-115896000D01*
G75*
G02*
X144366500Y-115748500I0J147500D01*
G01*
X144366500Y-115453500D01*
G75*
G02*
X144514000Y-115306000I147500J0D01*
G01*
G37*
G04 #@! TD.AperFunction*
G04 #@! TA.AperFunction,SMDPad,CuDef*
G36*
G01*
X144514000Y-114336000D02*
X144859000Y-114336000D01*
G75*
G02*
X145006500Y-114483500I0J-147500D01*
G01*
X145006500Y-114778500D01*
G75*
G02*
X144859000Y-114926000I-147500J0D01*
G01*
X144514000Y-114926000D01*
G75*
G02*
X144366500Y-114778500I0J147500D01*
G01*
X144366500Y-114483500D01*
G75*
G02*
X144514000Y-114336000I147500J0D01*
G01*
G37*
G04 #@! TD.AperFunction*
D12*
X103998000Y-93238000D03*
X115936000Y-95905000D03*
X107935000Y-96032000D03*
X103871000Y-90317000D03*
X112126000Y-90952000D03*
X103871000Y-95651000D03*
X112253000Y-96032000D03*
X109586000Y-88666000D03*
X116952000Y-88539000D03*
X106110000Y-109783500D03*
X133260000Y-109783500D03*
X116888500Y-91206000D03*
X108951000Y-91206000D03*
X105776000Y-88285000D03*
X113777000Y-88666000D03*
X115809000Y-90232010D03*
X138542000Y-97810000D03*
X136129000Y-98445000D03*
X146416000Y-97937000D03*
X116190000Y-93111000D03*
X108316000Y-93111000D03*
X104760000Y-89174000D03*
X112634000Y-89174000D03*
X107697500Y-113720500D03*
X134847500Y-113720500D03*
X104887000Y-93238000D03*
X112761000Y-93238000D03*
X117841000Y-94127000D03*
X110094000Y-94127000D03*
X114361500Y-116765000D03*
X141511500Y-116765000D03*
X112126000Y-97302000D03*
X104887000Y-96286000D03*
X116190000Y-97175000D03*
X108316000Y-97175000D03*
X122556500Y-112514000D03*
X120810250Y-109688250D03*
X149706500Y-112514000D03*
X147960250Y-109688250D03*
X120381000Y-88920000D03*
X112888000Y-97683000D03*
X105268000Y-97683000D03*
X118095000Y-89047000D03*
X111237000Y-90317000D03*
X147559000Y-98614010D03*
X150099000Y-98614010D03*
X155179000Y-98614010D03*
X120381000Y-88031000D03*
X118730000Y-87904000D03*
X111110000Y-96286000D03*
X108062000Y-89470010D03*
X119068990Y-96413000D03*
X116182084Y-89004990D03*
X115196249Y-108900249D03*
X118302000Y-108894500D03*
X111240922Y-113659554D03*
X142346249Y-108900249D03*
X145452000Y-108894500D03*
X138390922Y-113659554D03*
X132065000Y-90063000D03*
X135494000Y-89174000D03*
X123429000Y-90063000D03*
X127747000Y-90063000D03*
X132065000Y-92984000D03*
X127747000Y-93111000D03*
X123429000Y-93111000D03*
X136848990Y-89682000D03*
X136510000Y-96159000D03*
X128001000Y-96032000D03*
X123683000Y-96159000D03*
X132446000Y-95994947D03*
X136256000Y-97175000D03*
X123175000Y-97048000D03*
X127491825Y-96741047D03*
X131811000Y-96544957D03*
X120762000Y-97810000D03*
X124755452Y-97365950D03*
X129271000Y-97190979D03*
X133716000Y-96994968D03*
X136256000Y-89174000D03*
X130287000Y-92095000D03*
X134605000Y-92095000D03*
X121651000Y-92095000D03*
X125969000Y-92095000D03*
X129271000Y-93238000D03*
X133716000Y-93238000D03*
X120635000Y-93238000D03*
X124953000Y-93238000D03*
X140701000Y-90063000D03*
X145146000Y-90063000D03*
X149464000Y-90063000D03*
X153782000Y-90063000D03*
X158100000Y-90063000D03*
X145908000Y-92222000D03*
X144003000Y-92222000D03*
X148448000Y-92095000D03*
X152766000Y-92095000D03*
X157211000Y-92222000D03*
X139685000Y-92222000D03*
X141209000Y-96032000D03*
X145527000Y-96032000D03*
X149845000Y-96032000D03*
X158608000Y-96032000D03*
X153866990Y-96113337D03*
X158100000Y-97048000D03*
X140701000Y-96624990D03*
X145019000Y-96624990D03*
X149337000Y-96624990D03*
X153781245Y-96757668D03*
X142352000Y-97175000D03*
X146670000Y-97175000D03*
X137877863Y-97259990D03*
X155560000Y-97386990D03*
X151115000Y-97386990D03*
X137907000Y-93111000D03*
X142352000Y-93365000D03*
X146670000Y-93365000D03*
X150988000Y-93365000D03*
X155433000Y-93365000D03*
X140574000Y-93238000D03*
X145019000Y-93238000D03*
X149337000Y-93238000D03*
X153655000Y-93238000D03*
X158100000Y-93238000D03*
X110237500Y-111434500D03*
X137387500Y-111434500D03*
X108172952Y-111984510D03*
X135322952Y-111984510D03*
X109729500Y-113339500D03*
X136879500Y-113339500D03*
X112523500Y-112641000D03*
X139673500Y-112641000D03*
X114047500Y-113530000D03*
X141197500Y-113530000D03*
X115254000Y-111498000D03*
X142404000Y-111498000D03*
X118595000Y-112426000D03*
X145745000Y-112426000D03*
X117476498Y-109783500D03*
X144626498Y-109783500D03*
X119995010Y-111933603D03*
X147145010Y-111933603D03*
D13*
X106910000Y-90069500D02*
X106910000Y-90072000D01*
X106910000Y-90072000D02*
X106538000Y-90444000D01*
X106994221Y-91773673D02*
X106767947Y-91999947D01*
X106994221Y-91314039D02*
X106994221Y-91773673D01*
X106538000Y-90857818D02*
X106994221Y-91314039D01*
X106538000Y-90444000D02*
X106538000Y-90857818D01*
X106767947Y-93102447D02*
X106910000Y-93244500D01*
X106767947Y-91999947D02*
X106767947Y-93102447D01*
X108012500Y-92142000D02*
X106910000Y-93244500D01*
X106910000Y-93226268D02*
X106910000Y-93244500D01*
X105825732Y-92142000D02*
X106910000Y-93226268D01*
X104837500Y-92142000D02*
X105825732Y-92142000D01*
X106767947Y-93386553D02*
X106910000Y-93244500D01*
X106767947Y-94489053D02*
X106767947Y-93386553D01*
X106625894Y-94347000D02*
X104837500Y-94347000D01*
X106767947Y-94489053D02*
X106625894Y-94347000D01*
X106910000Y-94631106D02*
X106910000Y-96419500D01*
X106767947Y-94489053D02*
X106910000Y-94631106D01*
X106910000Y-99706000D02*
X107046000Y-99842000D01*
X106910000Y-96419500D02*
X106910000Y-99706000D01*
X110770894Y-92142000D02*
X111187500Y-92142000D01*
X109942947Y-91314053D02*
X110770894Y-92142000D01*
X111187500Y-92142000D02*
X110085000Y-93244500D01*
X109942947Y-90211553D02*
X110085000Y-90069500D01*
X109942947Y-91314053D02*
X109942947Y-90211553D01*
X111187500Y-94347000D02*
X110085000Y-93244500D01*
X110770894Y-94347000D02*
X111187500Y-94347000D01*
X109942947Y-95174947D02*
X110770894Y-94347000D01*
X110085000Y-95317000D02*
X109942947Y-95174947D01*
X110085000Y-96419500D02*
X110085000Y-95317000D01*
X109084953Y-95401221D02*
X109716673Y-95401221D01*
X108030732Y-94347000D02*
X109084953Y-95401221D01*
X109716673Y-95401221D02*
X109942947Y-95174947D01*
X108012500Y-94347000D02*
X108030732Y-94347000D01*
X110085000Y-99343000D02*
X110085000Y-96419500D01*
X109586000Y-99842000D02*
X110085000Y-99343000D01*
X115793947Y-92000447D02*
X115936000Y-92142500D01*
X114691447Y-92000447D02*
X115793947Y-92000447D01*
X114833500Y-90070000D02*
X114786000Y-90070000D01*
X114786000Y-90070000D02*
X114539000Y-90317000D01*
X114917721Y-91774173D02*
X114691447Y-92000447D01*
X114917721Y-91314539D02*
X114917721Y-91774173D01*
X114539000Y-90935818D02*
X114917721Y-91314539D01*
X114539000Y-90317000D02*
X114539000Y-90935818D01*
X114833500Y-93245000D02*
X115936000Y-92142500D01*
X114691447Y-93387053D02*
X114833500Y-93245000D01*
X114691447Y-94489553D02*
X114691447Y-93387053D01*
X114549394Y-94347500D02*
X114691447Y-94489553D01*
X112761000Y-94347500D02*
X114549394Y-94347500D01*
X114833500Y-96420000D02*
X114833500Y-96372500D01*
X114833500Y-96372500D02*
X115290990Y-95915010D01*
X115290990Y-95089096D02*
X114691447Y-94489553D01*
X115290990Y-95915010D02*
X115290990Y-95089096D01*
X114833500Y-97134500D02*
X114833500Y-96420000D01*
X112126000Y-99842000D02*
X114833500Y-97134500D01*
X114678557Y-92013337D02*
X114691447Y-92000447D01*
X114549394Y-92142500D02*
X114691447Y-92000447D01*
X112761000Y-92142500D02*
X114549394Y-92142500D01*
X117640173Y-95401721D02*
X117866447Y-95175447D01*
X117008453Y-95401721D02*
X117640173Y-95401721D01*
X115954232Y-94347500D02*
X117008453Y-95401721D01*
X115936000Y-94347500D02*
X115954232Y-94347500D01*
X118008500Y-95317500D02*
X117866447Y-95175447D01*
X118008500Y-96420000D02*
X118008500Y-95317500D01*
X119111000Y-94347500D02*
X118008500Y-93245000D01*
X119111000Y-92142500D02*
X118008500Y-93245000D01*
X118008500Y-91172500D02*
X117866447Y-91314553D01*
X118008500Y-90070000D02*
X118008500Y-91172500D01*
X118694394Y-92142500D02*
X117866447Y-91314553D01*
X119111000Y-92142500D02*
X118694394Y-92142500D01*
X118008500Y-96499500D02*
X118008500Y-96420000D01*
X114666000Y-99842000D02*
X118008500Y-96499500D01*
X118694394Y-94347500D02*
X119111000Y-94347500D01*
X117866447Y-95175447D02*
X118694394Y-94347500D01*
X112761000Y-91172500D02*
X112951318Y-91172500D01*
X104726000Y-91172000D02*
X103871000Y-90317000D01*
X104837500Y-91172000D02*
X104726000Y-91172000D01*
X112540500Y-90952000D02*
X112761000Y-91172500D01*
X112126000Y-90952000D02*
X112540500Y-90952000D01*
X106485998Y-86634000D02*
X107046000Y-86634000D01*
X103871000Y-89248998D02*
X106485998Y-86634000D01*
X103871000Y-90317000D02*
X103871000Y-89248998D01*
X107935000Y-95394500D02*
X108012500Y-95317000D01*
X107935000Y-96032000D02*
X107935000Y-95394500D01*
X115936000Y-95905000D02*
X115936000Y-95317500D01*
X103998000Y-90444000D02*
X103871000Y-90317000D01*
X103998000Y-93238000D02*
X103998000Y-90444000D01*
X106745000Y-113720500D02*
X106745000Y-106545000D01*
X110428000Y-117403500D02*
X106745000Y-113720500D01*
X111589000Y-117403500D02*
X110428000Y-117403500D01*
X112289000Y-116703500D02*
X111589000Y-117403500D01*
X133895000Y-113720500D02*
X133895000Y-106545000D01*
X137578000Y-117403500D02*
X133895000Y-113720500D01*
X138739000Y-117403500D02*
X137578000Y-117403500D01*
X139439000Y-116703500D02*
X138739000Y-117403500D01*
X117038500Y-88625500D02*
X116952000Y-88539000D01*
X117038500Y-90070000D02*
X117038500Y-88625500D01*
X109115000Y-89137000D02*
X109586000Y-88666000D01*
X109115000Y-90069500D02*
X109115000Y-89137000D01*
X109586000Y-88666000D02*
X109586000Y-86634000D01*
X104503500Y-95651000D02*
X104837500Y-95317000D01*
X103871000Y-95651000D02*
X104503500Y-95651000D01*
X112253000Y-95825500D02*
X112761000Y-95317500D01*
X112253000Y-96032000D02*
X112253000Y-95825500D01*
X116434000Y-116703500D02*
X116434000Y-117430000D01*
X116434000Y-117430000D02*
X115438990Y-118425010D01*
X115438990Y-118425010D02*
X110813100Y-118425010D01*
X110813100Y-118425010D02*
X106110000Y-113721910D01*
X106110000Y-113721910D02*
X106110000Y-109783500D01*
X143584000Y-116703500D02*
X143584000Y-117430000D01*
X143584000Y-117430000D02*
X142588990Y-118425010D01*
X142588990Y-118425010D02*
X137963100Y-118425010D01*
X137963100Y-118425010D02*
X133260000Y-113721910D01*
X133260000Y-113721910D02*
X133260000Y-109783500D01*
X113863500Y-88752500D02*
X113777000Y-88666000D01*
X113863500Y-90070000D02*
X113863500Y-88752500D01*
X116888500Y-91708394D02*
X117180553Y-92000447D01*
X116888500Y-91206000D02*
X116888500Y-91708394D01*
X108951000Y-91693894D02*
X109257053Y-91999947D01*
X108951000Y-91206000D02*
X108951000Y-91693894D01*
X105940000Y-88449000D02*
X105776000Y-88285000D01*
X105940000Y-90069500D02*
X105940000Y-88449000D01*
X113777000Y-88666000D02*
X114603198Y-88666000D01*
X114603198Y-88666000D02*
X115809000Y-89871802D01*
X115809000Y-89871802D02*
X115809000Y-90232010D01*
X107622950Y-112357450D02*
X107622950Y-110747050D01*
X110866500Y-115601000D02*
X107622950Y-112357450D01*
X111186500Y-115601000D02*
X110866500Y-115601000D01*
X107622950Y-110747050D02*
X111825000Y-106545000D01*
X134772950Y-112357450D02*
X134772950Y-110747050D01*
X138016500Y-115601000D02*
X134772950Y-112357450D01*
X138336500Y-115601000D02*
X138016500Y-115601000D01*
X134772950Y-110747050D02*
X138975000Y-106545000D01*
X121404125Y-90466875D02*
X120698500Y-91172500D01*
X121404125Y-90070000D02*
X121404125Y-90466875D01*
X122374125Y-91859893D02*
X122374125Y-93245000D01*
X122711528Y-91522490D02*
X122374125Y-91859893D01*
X123024760Y-91522490D02*
X122711528Y-91522490D01*
X123079750Y-91467500D02*
X123024760Y-91522490D01*
X123079750Y-91172500D02*
X123079750Y-91467500D01*
X123079750Y-93950625D02*
X122374125Y-93245000D01*
X123079750Y-94347500D02*
X123079750Y-93950625D01*
X121018500Y-94347500D02*
X120698500Y-94347500D01*
X120698500Y-94347500D02*
X123079750Y-94347500D01*
X123079750Y-91172500D02*
X120698500Y-91172500D01*
X138161000Y-90775625D02*
X138866625Y-90070000D01*
X138161000Y-91172500D02*
X138161000Y-90775625D01*
X138161000Y-91172500D02*
X140542250Y-91172500D01*
X138161000Y-93950625D02*
X138866625Y-93245000D01*
X138161000Y-94347500D02*
X138161000Y-93950625D01*
X138866625Y-93565000D02*
X138866625Y-93245000D01*
X139649125Y-94347500D02*
X138866625Y-93565000D01*
X140542250Y-94347500D02*
X139649125Y-94347500D01*
X138866625Y-95703125D02*
X138866625Y-96420000D01*
X140222250Y-94347500D02*
X138866625Y-95703125D01*
X140542250Y-94347500D02*
X140222250Y-94347500D01*
X121404125Y-97563125D02*
X123683000Y-99842000D01*
X121404125Y-96420000D02*
X121404125Y-97563125D01*
X121404125Y-96024875D02*
X121404125Y-96420000D01*
X122434740Y-94994260D02*
X121404125Y-96024875D01*
X122434740Y-94974278D02*
X122434740Y-94994260D01*
X122711528Y-94697490D02*
X122434740Y-94974278D01*
X122731510Y-94697490D02*
X122711528Y-94697490D01*
X123079750Y-94349250D02*
X122731510Y-94697490D01*
X123079750Y-94347500D02*
X123079750Y-94349250D01*
X139845500Y-91172500D02*
X140542250Y-91172500D01*
X138866625Y-92151375D02*
X139845500Y-91172500D01*
X138866625Y-93245000D02*
X138866625Y-92151375D01*
X138852375Y-96434250D02*
X138866625Y-96420000D01*
X138852375Y-97626625D02*
X138852375Y-96434250D01*
X138669000Y-97810000D02*
X138852375Y-97626625D01*
X138542000Y-97810000D02*
X138669000Y-97810000D01*
X125064125Y-90775625D02*
X125769750Y-90070000D01*
X125064125Y-91172500D02*
X125064125Y-90775625D01*
X127445375Y-91172500D02*
X125064125Y-91172500D01*
X127427143Y-91172500D02*
X127445375Y-91172500D01*
X126739750Y-91859893D02*
X127427143Y-91172500D01*
X126739750Y-93245000D02*
X126739750Y-91859893D01*
X125064125Y-94347500D02*
X127445375Y-94347500D01*
X125082357Y-94347500D02*
X125064125Y-94347500D01*
X125769750Y-95034893D02*
X125082357Y-94347500D01*
X125769750Y-96420000D02*
X125769750Y-95034893D01*
X127445375Y-93950625D02*
X126739750Y-93245000D01*
X127445375Y-94347500D02*
X127445375Y-93950625D01*
X142526625Y-90775625D02*
X143232250Y-90070000D01*
X142526625Y-91172500D02*
X142526625Y-90775625D01*
X142526625Y-91172500D02*
X144907875Y-91172500D01*
X144014750Y-94347500D02*
X144907875Y-94347500D01*
X143232250Y-93565000D02*
X144014750Y-94347500D01*
X143232250Y-93245000D02*
X143232250Y-93565000D01*
X125769750Y-99388750D02*
X125769750Y-96420000D01*
X126223000Y-99842000D02*
X125769750Y-99388750D01*
X143232250Y-92103750D02*
X143232250Y-93245000D01*
X144163500Y-91172500D02*
X143232250Y-92103750D01*
X144907875Y-91172500D02*
X144163500Y-91172500D01*
X142526625Y-94347500D02*
X144907875Y-94347500D01*
X144587875Y-94347500D02*
X144907875Y-94347500D01*
X143232250Y-95703125D02*
X144587875Y-94347500D01*
X143232250Y-96420000D02*
X143232250Y-95703125D01*
X137299000Y-90649393D02*
X137299000Y-97656000D01*
X138523403Y-89424990D02*
X137299000Y-90649393D01*
X142587240Y-89424990D02*
X138523403Y-89424990D01*
X143232250Y-90070000D02*
X142587240Y-89424990D01*
X136510000Y-98445000D02*
X137299000Y-97656000D01*
X136129000Y-98445000D02*
X136510000Y-98445000D01*
X129429750Y-90775625D02*
X130135375Y-90070000D01*
X129429750Y-91172500D02*
X129429750Y-90775625D01*
X131269500Y-91172500D02*
X129429750Y-91172500D01*
X131811000Y-91172500D02*
X131269500Y-91172500D01*
X131491000Y-94347500D02*
X131811000Y-94347500D01*
X130135375Y-95703125D02*
X131491000Y-94347500D01*
X130135375Y-96420000D02*
X130135375Y-95703125D01*
X147597875Y-90466875D02*
X146892250Y-91172500D01*
X147597875Y-90070000D02*
X147597875Y-90466875D01*
X149273500Y-91172500D02*
X146892250Y-91172500D01*
X146892250Y-93950625D02*
X147597875Y-93245000D01*
X146892250Y-94347500D02*
X146892250Y-93950625D01*
X147597875Y-93565000D02*
X147597875Y-93245000D01*
X148380375Y-94347500D02*
X147597875Y-93565000D01*
X149273500Y-94347500D02*
X148380375Y-94347500D01*
X148953500Y-94347500D02*
X149273500Y-94347500D01*
X147597875Y-95703125D02*
X148953500Y-94347500D01*
X147597875Y-96420000D02*
X147597875Y-95703125D01*
X130135375Y-98469625D02*
X128763000Y-99842000D01*
X130135375Y-96420000D02*
X130135375Y-98469625D01*
X131811000Y-94347500D02*
X129429750Y-94347500D01*
X131105375Y-93641875D02*
X131811000Y-94347500D01*
X131105375Y-93245000D02*
X131105375Y-93641875D01*
X131491000Y-91172500D02*
X131811000Y-91172500D01*
X131105375Y-91558125D02*
X131491000Y-91172500D01*
X131105375Y-93245000D02*
X131105375Y-91558125D01*
X148481500Y-91172500D02*
X149273500Y-91172500D01*
X147597875Y-92056125D02*
X148481500Y-91172500D01*
X147597875Y-93245000D02*
X147597875Y-92056125D01*
X147597875Y-97134715D02*
X147597875Y-96420000D01*
X146795590Y-97937000D02*
X147597875Y-97134715D01*
X146416000Y-97937000D02*
X146795590Y-97937000D01*
X133795375Y-90775625D02*
X134501000Y-90070000D01*
X133795375Y-91172500D02*
X133795375Y-90775625D01*
X136176625Y-91172500D02*
X136176625Y-91126625D01*
X136176625Y-91172500D02*
X133795375Y-91172500D01*
X135856625Y-94347500D02*
X136176625Y-94347500D01*
X134501000Y-95703125D02*
X135856625Y-94347500D01*
X134501000Y-96420000D02*
X134501000Y-95703125D01*
X151963500Y-90466875D02*
X151257875Y-91172500D01*
X151963500Y-90070000D02*
X151963500Y-90466875D01*
X151257875Y-91172500D02*
X153639125Y-91172500D01*
X151257875Y-93950625D02*
X151963500Y-93245000D01*
X151257875Y-94347500D02*
X151257875Y-93950625D01*
X151257875Y-94347500D02*
X153639125Y-94347500D01*
X153620893Y-94347500D02*
X153639125Y-94347500D01*
X151963500Y-96004893D02*
X153620893Y-94347500D01*
X151963500Y-96420000D02*
X151963500Y-96004893D01*
X135471000Y-91558125D02*
X135471000Y-93245000D01*
X135856625Y-91172500D02*
X135471000Y-91558125D01*
X136176625Y-91172500D02*
X135856625Y-91172500D01*
X136176625Y-94347500D02*
X133795375Y-94347500D01*
X135471000Y-93641875D02*
X136176625Y-94347500D01*
X135471000Y-93245000D02*
X135471000Y-93641875D01*
X134501000Y-97839002D02*
X134501000Y-96420000D01*
X133673003Y-98666999D02*
X134501000Y-97839002D01*
X132478001Y-98666999D02*
X133673003Y-98666999D01*
X131303000Y-99842000D02*
X132478001Y-98666999D01*
X152672500Y-91172500D02*
X153639125Y-91172500D01*
X151963500Y-91881500D02*
X152672500Y-91172500D01*
X151963500Y-93245000D02*
X151963500Y-91881500D01*
X135207999Y-98666999D02*
X137653000Y-101112000D01*
X132478001Y-98666999D02*
X135207999Y-98666999D01*
X151838002Y-101112000D02*
X152639000Y-100311002D01*
X137653000Y-101112000D02*
X151838002Y-101112000D01*
X151963500Y-96740000D02*
X151963500Y-96420000D01*
X152639000Y-97415500D02*
X151963500Y-96740000D01*
X152639000Y-100311002D02*
X152639000Y-97415500D01*
X104760000Y-89992000D02*
X104760000Y-89174000D01*
X106082053Y-91314053D02*
X104760000Y-89992000D01*
X112634000Y-89943000D02*
X112634000Y-89174000D01*
X114005553Y-91314553D02*
X112634000Y-89943000D01*
X108981500Y-93111000D02*
X109115000Y-93244500D01*
X108316000Y-93111000D02*
X108981500Y-93111000D01*
X116904500Y-93111000D02*
X117038500Y-93245000D01*
X116190000Y-93111000D02*
X116904500Y-93111000D01*
X112634000Y-88666000D02*
X114666000Y-86634000D01*
X112634000Y-89174000D02*
X112634000Y-88666000D01*
X111668990Y-116221010D02*
X110198010Y-116221010D01*
X112431053Y-115458947D02*
X111668990Y-116221010D01*
X110198010Y-116221010D02*
X107697500Y-113720500D01*
X107697500Y-113720500D02*
X107697500Y-113720500D01*
X138818990Y-116221010D02*
X137348010Y-116221010D01*
X139581053Y-115458947D02*
X138818990Y-116221010D01*
X137348010Y-116221010D02*
X134847500Y-113720500D01*
X134847500Y-113720500D02*
X134847500Y-113720500D01*
X109619106Y-94127000D02*
X109257053Y-94489053D01*
X110094000Y-94127000D02*
X109619106Y-94127000D01*
X113856500Y-93238000D02*
X113863500Y-93245000D01*
X112761000Y-93238000D02*
X113856500Y-93238000D01*
X105933500Y-93238000D02*
X105940000Y-93244500D01*
X104887000Y-93238000D02*
X105933500Y-93238000D01*
X117543106Y-94127000D02*
X117180553Y-94489553D01*
X117841000Y-94127000D02*
X117543106Y-94127000D01*
X114361500Y-115601000D02*
X114361500Y-116765000D01*
X114361500Y-116765000D02*
X114361500Y-116765000D01*
X141511500Y-115601000D02*
X141511500Y-116765000D01*
X141511500Y-116765000D02*
X141511500Y-116765000D01*
X104971000Y-96286000D02*
X106082053Y-95174947D01*
X104887000Y-96286000D02*
X104971000Y-96286000D01*
X108359500Y-97175000D02*
X109115000Y-96419500D01*
X108316000Y-97175000D02*
X108359500Y-97175000D01*
X116283500Y-97175000D02*
X117038500Y-96420000D01*
X116190000Y-97175000D02*
X116283500Y-97175000D01*
X113891285Y-95175447D02*
X114005553Y-95175447D01*
X113934355Y-95175447D02*
X114005553Y-95175447D01*
X112126000Y-96983802D02*
X113934355Y-95175447D01*
X112126000Y-97302000D02*
X112126000Y-96983802D01*
X117054010Y-116221010D02*
X117056010Y-116221010D01*
X116291947Y-115458947D02*
X117054010Y-116221010D01*
X117056010Y-116221010D02*
X117413000Y-116578000D01*
X117413000Y-116578000D02*
X118429000Y-116578000D01*
X118429000Y-116578000D02*
X118492500Y-116578000D01*
X118492500Y-116578000D02*
X122556500Y-112514000D01*
X122556500Y-112514000D02*
X122556500Y-112514000D01*
X119445000Y-108323000D02*
X120810250Y-109688250D01*
X119445000Y-106545000D02*
X119445000Y-108323000D01*
X144204010Y-116221010D02*
X144206010Y-116221010D01*
X143441947Y-115458947D02*
X144204010Y-116221010D01*
X144206010Y-116221010D02*
X144563000Y-116578000D01*
X144563000Y-116578000D02*
X145579000Y-116578000D01*
X145579000Y-116578000D02*
X145642500Y-116578000D01*
X145642500Y-116578000D02*
X149706500Y-112514000D01*
X149706500Y-112514000D02*
X149706500Y-112514000D01*
X146595000Y-108323000D02*
X147960250Y-109688250D01*
X146595000Y-106545000D02*
X146595000Y-108323000D01*
X111237000Y-91122500D02*
X111187500Y-91172000D01*
X111237000Y-90317000D02*
X111237000Y-91122500D01*
X119111000Y-90063000D02*
X118095000Y-89047000D01*
X119111000Y-91172500D02*
X119111000Y-90063000D01*
X112888000Y-97395500D02*
X113863500Y-96420000D01*
X112888000Y-97683000D02*
X112888000Y-97395500D01*
X105268000Y-97091500D02*
X105940000Y-96419500D01*
X105268000Y-97683000D02*
X105268000Y-97091500D01*
X120254000Y-89047000D02*
X120381000Y-88920000D01*
X118095000Y-89047000D02*
X120254000Y-89047000D01*
X122286000Y-87015000D02*
X122286000Y-86634000D01*
X120381000Y-88920000D02*
X122286000Y-87015000D01*
X121985000Y-111472500D02*
X121985000Y-106545000D01*
X117856500Y-115601000D02*
X121985000Y-111472500D01*
X117536500Y-115601000D02*
X117856500Y-115601000D01*
X149135000Y-111472500D02*
X149135000Y-106545000D01*
X145006500Y-115601000D02*
X149135000Y-111472500D01*
X144686500Y-115601000D02*
X145006500Y-115601000D01*
X156329125Y-90466875D02*
X155623500Y-91172500D01*
X156329125Y-90070000D02*
X156329125Y-90466875D01*
X155623500Y-91172500D02*
X158004750Y-91172500D01*
X155623500Y-94347500D02*
X158004750Y-94347500D01*
X157684750Y-94347500D02*
X156329125Y-95703125D01*
X156329125Y-95703125D02*
X156329125Y-96420000D01*
X158004750Y-94347500D02*
X157684750Y-94347500D01*
X156329125Y-92087875D02*
X156329125Y-93245000D01*
X157244500Y-91172500D02*
X156329125Y-92087875D01*
X158004750Y-91172500D02*
X157244500Y-91172500D01*
X156329125Y-93641875D02*
X156329125Y-93245000D01*
X155623500Y-94347500D02*
X156329125Y-93641875D01*
X147559000Y-98614010D02*
X150099000Y-98614010D01*
X156329125Y-96420000D02*
X156329125Y-97463885D01*
X156329125Y-97463885D02*
X155179000Y-98614010D01*
X111110000Y-95394500D02*
X111187500Y-95317000D01*
X111110000Y-96286000D02*
X111110000Y-95394500D01*
X108012500Y-89519510D02*
X108062000Y-89470010D01*
X108012500Y-91172000D02*
X108012500Y-89519510D01*
X119111000Y-95317500D02*
X119111000Y-96370990D01*
X119111000Y-96370990D02*
X119068990Y-96413000D01*
X120254000Y-87904000D02*
X120381000Y-88031000D01*
X118730000Y-87904000D02*
X120254000Y-87904000D01*
X116182084Y-88494914D02*
X116182084Y-89004990D01*
X116407083Y-90701417D02*
X116407083Y-89229989D01*
X116407083Y-89229989D02*
X116182084Y-89004990D01*
X116772998Y-87904000D02*
X116182084Y-88494914D01*
X118730000Y-87904000D02*
X116772998Y-87904000D01*
X115936000Y-91172500D02*
X116407083Y-90701417D01*
X115201998Y-108894500D02*
X115196249Y-108900249D01*
X118302000Y-108894500D02*
X115201998Y-108894500D01*
X111371976Y-113528500D02*
X111240922Y-113659554D01*
X112289000Y-113528500D02*
X111371976Y-113528500D01*
X142351998Y-108894500D02*
X142346249Y-108900249D01*
X145452000Y-108894500D02*
X142351998Y-108894500D01*
X138521976Y-113528500D02*
X138390922Y-113659554D01*
X139439000Y-113528500D02*
X138521976Y-113528500D01*
X123422000Y-90070000D02*
X123429000Y-90063000D01*
X122374125Y-90070000D02*
X123422000Y-90070000D01*
X127740000Y-90070000D02*
X127747000Y-90063000D01*
X126739750Y-90070000D02*
X127740000Y-90070000D01*
X131112375Y-90063000D02*
X131105375Y-90070000D01*
X132065000Y-90063000D02*
X131112375Y-90063000D01*
X135478000Y-90063000D02*
X135471000Y-90070000D01*
X135471000Y-89197000D02*
X135494000Y-89174000D01*
X135471000Y-90070000D02*
X135471000Y-89197000D01*
X123429000Y-92491750D02*
X123079750Y-92142500D01*
X123429000Y-93111000D02*
X123429000Y-92491750D01*
X127747000Y-92444125D02*
X127445375Y-92142500D01*
X127747000Y-93111000D02*
X127747000Y-92444125D01*
X132065000Y-92396500D02*
X131811000Y-92142500D01*
X132065000Y-92984000D02*
X132065000Y-92396500D01*
X136848990Y-91790135D02*
X136848990Y-89682000D01*
X136496625Y-92142500D02*
X136848990Y-91790135D01*
X136176625Y-92142500D02*
X136496625Y-92142500D01*
X123683000Y-95920750D02*
X123079750Y-95317500D01*
X123683000Y-96159000D02*
X123683000Y-95920750D01*
X128001000Y-95873125D02*
X127445375Y-95317500D01*
X128001000Y-96032000D02*
X128001000Y-95873125D01*
X136510000Y-95650875D02*
X136176625Y-95317500D01*
X136510000Y-96159000D02*
X136510000Y-95650875D01*
X145030022Y-87892978D02*
X146289000Y-86634000D01*
X136264200Y-87892978D02*
X145030022Y-87892978D01*
X128297001Y-95735999D02*
X128297001Y-89004999D01*
X128001000Y-96032000D02*
X128297001Y-95735999D01*
X135999179Y-88157999D02*
X136264200Y-87892978D01*
X129144000Y-88158000D02*
X135999179Y-88157999D01*
X128297001Y-89004999D02*
X129144000Y-88158000D01*
X131811000Y-95317500D02*
X132446000Y-95952500D01*
X132446000Y-95952500D02*
X132446000Y-95994947D01*
X123002125Y-97048000D02*
X122374125Y-96420000D01*
X123175000Y-97048000D02*
X123002125Y-97048000D01*
X136226000Y-97175000D02*
X135471000Y-96420000D01*
X136256000Y-97175000D02*
X136226000Y-97175000D01*
X126739750Y-96420000D02*
X127170778Y-96420000D01*
X127170778Y-96420000D02*
X127491825Y-96741047D01*
X131686043Y-96420000D02*
X131811000Y-96544957D01*
X131105375Y-96420000D02*
X131686043Y-96420000D01*
X125064125Y-97057277D02*
X124755452Y-97365950D01*
X125064125Y-95317500D02*
X125064125Y-97057277D01*
X129429750Y-97032229D02*
X129271000Y-97190979D01*
X129429750Y-95317500D02*
X129429750Y-97032229D01*
X133150365Y-96429333D02*
X133716000Y-96994968D01*
X133795375Y-96915593D02*
X133716000Y-96994968D01*
X133795375Y-95317500D02*
X133795375Y-96915593D01*
X151369000Y-86634000D02*
X149660011Y-88342989D01*
X149660011Y-88342989D02*
X136450600Y-88342989D01*
X133150365Y-89358635D02*
X133150365Y-96429333D01*
X133900990Y-88608010D02*
X133150365Y-89358635D01*
X136185579Y-88608010D02*
X133900990Y-88608010D01*
X136450600Y-88342989D02*
X136185579Y-88608010D01*
X120698500Y-97746500D02*
X120762000Y-97810000D01*
X120698500Y-95317500D02*
X120698500Y-97746500D01*
X120746000Y-92095000D02*
X120698500Y-92142500D01*
X121651000Y-92095000D02*
X120746000Y-92095000D01*
X125921500Y-92142500D02*
X125969000Y-92095000D01*
X125064125Y-92142500D02*
X125921500Y-92142500D01*
X129477250Y-92095000D02*
X129429750Y-92142500D01*
X130287000Y-92095000D02*
X129477250Y-92095000D01*
X133842875Y-92095000D02*
X133795375Y-92142500D01*
X134605000Y-92095000D02*
X133842875Y-92095000D01*
X136637000Y-88793000D02*
X151750000Y-88793000D01*
X136256000Y-89174000D02*
X136637000Y-88793000D01*
X151750000Y-88793000D02*
X153909000Y-86634000D01*
X121397125Y-93238000D02*
X121404125Y-93245000D01*
X120635000Y-93238000D02*
X121397125Y-93238000D01*
X125762750Y-93238000D02*
X125769750Y-93245000D01*
X124953000Y-93238000D02*
X125762750Y-93238000D01*
X130128375Y-93238000D02*
X130135375Y-93245000D01*
X129271000Y-93238000D02*
X130128375Y-93238000D01*
X134494000Y-93238000D02*
X134501000Y-93245000D01*
X133716000Y-93238000D02*
X134494000Y-93238000D01*
X140694000Y-90070000D02*
X140701000Y-90063000D01*
X139836625Y-90070000D02*
X140694000Y-90070000D01*
X145139000Y-90070000D02*
X145146000Y-90063000D01*
X144202250Y-90070000D02*
X145139000Y-90070000D01*
X149457000Y-90070000D02*
X149464000Y-90063000D01*
X148567875Y-90070000D02*
X149457000Y-90070000D01*
X153775000Y-90070000D02*
X153782000Y-90063000D01*
X152933500Y-90070000D02*
X153775000Y-90070000D01*
X158093000Y-90070000D02*
X158100000Y-90063000D01*
X157299125Y-90070000D02*
X158093000Y-90070000D01*
X141759001Y-99291999D02*
X141209000Y-99842000D01*
X141759001Y-91121001D02*
X141759001Y-99291999D01*
X140701000Y-90063000D02*
X141759001Y-91121001D01*
X140462750Y-92222000D02*
X140542250Y-92142500D01*
X139685000Y-92222000D02*
X140462750Y-92222000D01*
X144828375Y-92222000D02*
X144907875Y-92142500D01*
X144003000Y-92222000D02*
X144828375Y-92222000D01*
X149226000Y-92095000D02*
X149273500Y-92142500D01*
X148448000Y-92095000D02*
X149226000Y-92095000D01*
X153591625Y-92095000D02*
X153639125Y-92142500D01*
X152766000Y-92095000D02*
X153591625Y-92095000D01*
X157925250Y-92222000D02*
X158004750Y-92142500D01*
X157211000Y-92222000D02*
X157925250Y-92222000D01*
X143749000Y-99207000D02*
X143749000Y-99842000D01*
X146077001Y-96878999D02*
X143749000Y-99207000D01*
X146077001Y-92391001D02*
X146077001Y-96878999D01*
X145908000Y-92222000D02*
X146077001Y-92391001D01*
X158608000Y-95920750D02*
X158004750Y-95317500D01*
X158608000Y-96032000D02*
X158608000Y-95920750D01*
X149845000Y-95889000D02*
X149273500Y-95317500D01*
X149845000Y-96032000D02*
X149845000Y-95889000D01*
X145527000Y-95936625D02*
X144907875Y-95317500D01*
X145527000Y-96032000D02*
X145527000Y-95936625D01*
X141209000Y-95984250D02*
X140542250Y-95317500D01*
X141209000Y-96032000D02*
X141209000Y-95984250D01*
X146289000Y-99842000D02*
X145751999Y-99304999D01*
X150069999Y-96256999D02*
X149845000Y-96032000D01*
X150069999Y-97129003D02*
X150069999Y-96256999D01*
X147305000Y-98064000D02*
X149135002Y-98064000D01*
X149135002Y-98064000D02*
X150069999Y-97129003D01*
X146289000Y-99080000D02*
X147305000Y-98064000D01*
X146289000Y-99842000D02*
X146289000Y-99080000D01*
X153639125Y-95885472D02*
X153866990Y-96113337D01*
X153639125Y-95317500D02*
X153639125Y-95885472D01*
X157927125Y-97048000D02*
X157299125Y-96420000D01*
X158100000Y-97048000D02*
X157927125Y-97048000D01*
X139836625Y-96420000D02*
X140496010Y-96420000D01*
X140496010Y-96420000D02*
X140701000Y-96624990D01*
X144202250Y-96420000D02*
X144814010Y-96420000D01*
X144814010Y-96420000D02*
X145019000Y-96624990D01*
X148567875Y-96420000D02*
X149132010Y-96420000D01*
X149132010Y-96420000D02*
X149337000Y-96624990D01*
X153271168Y-96757668D02*
X153781245Y-96757668D01*
X152933500Y-96420000D02*
X153271168Y-96757668D01*
X142352000Y-95492125D02*
X142526625Y-95317500D01*
X142352000Y-97175000D02*
X142352000Y-95492125D01*
X137877863Y-95600637D02*
X138161000Y-95317500D01*
X137877863Y-97259990D02*
X137877863Y-95600637D01*
X146670000Y-95539750D02*
X146892250Y-95317500D01*
X146670000Y-97175000D02*
X146670000Y-95539750D01*
X151257875Y-97244115D02*
X151115000Y-97386990D01*
X151369000Y-97640990D02*
X151115000Y-97386990D01*
X151369000Y-99842000D02*
X151369000Y-97640990D01*
X155623500Y-95317500D02*
X155623500Y-97323490D01*
X155623500Y-97323490D02*
X155560000Y-97386990D01*
X151257875Y-95317500D02*
X151257875Y-97244115D01*
X137907000Y-92396500D02*
X138161000Y-92142500D01*
X137907000Y-93111000D02*
X137907000Y-92396500D01*
X142352000Y-92317125D02*
X142526625Y-92142500D01*
X142352000Y-93365000D02*
X142352000Y-92317125D01*
X146670000Y-92364750D02*
X146892250Y-92142500D01*
X146670000Y-93365000D02*
X146670000Y-92364750D01*
X150988000Y-92412375D02*
X151257875Y-92142500D01*
X150988000Y-93365000D02*
X150988000Y-92412375D01*
X155433000Y-92333000D02*
X155623500Y-92142500D01*
X155433000Y-93365000D02*
X155433000Y-92333000D01*
X154417000Y-94381000D02*
X155433000Y-93365000D01*
X154417000Y-99334000D02*
X154417000Y-94381000D01*
X153909000Y-99842000D02*
X154417000Y-99334000D01*
X139843625Y-93238000D02*
X139836625Y-93245000D01*
X140574000Y-93238000D02*
X139843625Y-93238000D01*
X144209250Y-93238000D02*
X144202250Y-93245000D01*
X145019000Y-93238000D02*
X144209250Y-93238000D01*
X148574875Y-93238000D02*
X148567875Y-93245000D01*
X149337000Y-93238000D02*
X148574875Y-93238000D01*
X152940500Y-93238000D02*
X152933500Y-93245000D01*
X153655000Y-93238000D02*
X152940500Y-93238000D01*
X158093000Y-93245000D02*
X158100000Y-93238000D01*
X157299125Y-93245000D02*
X158093000Y-93245000D01*
X113116947Y-113670553D02*
X113259000Y-113528500D01*
X113116947Y-114773053D02*
X113116947Y-113670553D01*
X113259000Y-114631000D02*
X113116947Y-114773053D01*
X114361500Y-114631000D02*
X113259000Y-114631000D01*
X115464000Y-114631000D02*
X115606053Y-114773053D01*
X114361500Y-114631000D02*
X115464000Y-114631000D01*
X115606053Y-113670553D02*
X115464000Y-113528500D01*
X115606053Y-114773053D02*
X115606053Y-113670553D01*
X116518221Y-111824327D02*
X116291947Y-111598053D01*
X116518221Y-112283961D02*
X116518221Y-111824327D01*
X115464000Y-113338182D02*
X116518221Y-112283961D01*
X115464000Y-113528500D02*
X115464000Y-113338182D01*
X115464000Y-110770106D02*
X115464000Y-110353500D01*
X116291947Y-111598053D02*
X115464000Y-110770106D01*
X115464000Y-110353500D02*
X114361500Y-111456000D01*
X114361500Y-111456000D02*
X113259000Y-110353500D01*
X113259000Y-110770106D02*
X112431053Y-111598053D01*
X113259000Y-110353500D02*
X113259000Y-110770106D01*
X111328553Y-111598053D02*
X111186500Y-111456000D01*
X112431053Y-111598053D02*
X111328553Y-111598053D01*
X112174732Y-114631000D02*
X111186500Y-114631000D01*
X113259000Y-113546732D02*
X112174732Y-114631000D01*
X113259000Y-113528500D02*
X113259000Y-113546732D01*
X113259000Y-116703500D02*
X113259000Y-117023500D01*
X115748106Y-114631000D02*
X115606053Y-114773053D01*
X117536500Y-114631000D02*
X115748106Y-114631000D01*
X116434000Y-111456000D02*
X116291947Y-111598053D01*
X117536500Y-111456000D02*
X116434000Y-111456000D01*
X113730000Y-117975000D02*
X113259000Y-117504000D01*
X115000000Y-117975000D02*
X113730000Y-117975000D01*
X113259000Y-117504000D02*
X113259000Y-116703500D01*
X115464000Y-117511000D02*
X115000000Y-117975000D01*
X115464000Y-116703500D02*
X115464000Y-117511000D01*
X113259000Y-114915106D02*
X113116947Y-114773053D01*
X113259000Y-116703500D02*
X113259000Y-114915106D01*
X110259000Y-111456000D02*
X110237500Y-111434500D01*
X111186500Y-111456000D02*
X110259000Y-111456000D01*
X140266947Y-113670553D02*
X140409000Y-113528500D01*
X140266947Y-114773053D02*
X140266947Y-113670553D01*
X140409000Y-114631000D02*
X140266947Y-114773053D01*
X141511500Y-114631000D02*
X140409000Y-114631000D01*
X142614000Y-114631000D02*
X142756053Y-114773053D01*
X141511500Y-114631000D02*
X142614000Y-114631000D01*
X142756053Y-113670553D02*
X142614000Y-113528500D01*
X142756053Y-114773053D02*
X142756053Y-113670553D01*
X143668221Y-111824327D02*
X143441947Y-111598053D01*
X143668221Y-112283961D02*
X143668221Y-111824327D01*
X142614000Y-113338182D02*
X143668221Y-112283961D01*
X142614000Y-113528500D02*
X142614000Y-113338182D01*
X142614000Y-110770106D02*
X142614000Y-110353500D01*
X143441947Y-111598053D02*
X142614000Y-110770106D01*
X142614000Y-110353500D02*
X141511500Y-111456000D01*
X141511500Y-111456000D02*
X140409000Y-110353500D01*
X140409000Y-110770106D02*
X139581053Y-111598053D01*
X140409000Y-110353500D02*
X140409000Y-110770106D01*
X138478553Y-111598053D02*
X138336500Y-111456000D01*
X139581053Y-111598053D02*
X138478553Y-111598053D01*
X139324732Y-114631000D02*
X138336500Y-114631000D01*
X140409000Y-113546732D02*
X139324732Y-114631000D01*
X140409000Y-113528500D02*
X140409000Y-113546732D01*
X140409000Y-116703500D02*
X140409000Y-117023500D01*
X142898106Y-114631000D02*
X142756053Y-114773053D01*
X144686500Y-114631000D02*
X142898106Y-114631000D01*
X143584000Y-111456000D02*
X143441947Y-111598053D01*
X144686500Y-111456000D02*
X143584000Y-111456000D01*
X140880000Y-117975000D02*
X140409000Y-117504000D01*
X142150000Y-117975000D02*
X140880000Y-117975000D01*
X140409000Y-117504000D02*
X140409000Y-116703500D01*
X142614000Y-117511000D02*
X142150000Y-117975000D01*
X142614000Y-116703500D02*
X142614000Y-117511000D01*
X140409000Y-114915106D02*
X140266947Y-114773053D01*
X140409000Y-116703500D02*
X140409000Y-114915106D01*
X137409000Y-111456000D02*
X137387500Y-111434500D01*
X138336500Y-111456000D02*
X137409000Y-111456000D01*
X111897962Y-108259500D02*
X108172952Y-111984510D01*
X118492500Y-108259500D02*
X111897962Y-108259500D01*
X120545012Y-110312012D02*
X118492500Y-108259500D01*
X116434000Y-113528500D02*
X119214117Y-113528500D01*
X120545012Y-112197605D02*
X120545012Y-110312012D01*
X119214117Y-113528500D02*
X120545012Y-112197605D01*
X139047962Y-108259500D02*
X135322952Y-111984510D01*
X145642500Y-108259500D02*
X139047962Y-108259500D01*
X147695012Y-110312012D02*
X145642500Y-108259500D01*
X143584000Y-113528500D02*
X146364117Y-113528500D01*
X147695012Y-112197605D02*
X147695012Y-110312012D01*
X146364117Y-113528500D02*
X147695012Y-112197605D01*
X111186500Y-112426000D02*
X110643000Y-112426000D01*
X110643000Y-112426000D02*
X109729500Y-113339500D01*
X138336500Y-112426000D02*
X137793000Y-112426000D01*
X137793000Y-112426000D02*
X136879500Y-113339500D01*
X113116947Y-112283947D02*
X112759894Y-112641000D01*
X112759894Y-112641000D02*
X112523500Y-112641000D01*
X140266947Y-112283947D02*
X139909894Y-112641000D01*
X139909894Y-112641000D02*
X139673500Y-112641000D01*
X114361500Y-112426000D02*
X114361500Y-113216000D01*
X114361500Y-113216000D02*
X114047500Y-113530000D01*
X141511500Y-112426000D02*
X141511500Y-113216000D01*
X141511500Y-113216000D02*
X141197500Y-113530000D01*
X115254000Y-111931894D02*
X115606053Y-112283947D01*
X115254000Y-111498000D02*
X115254000Y-111931894D01*
X142404000Y-111931894D02*
X142756053Y-112283947D01*
X142404000Y-111498000D02*
X142404000Y-111931894D01*
X117536500Y-112426000D02*
X118595000Y-112426000D01*
X118595000Y-112426000D02*
X118595000Y-112426000D01*
X144686500Y-112426000D02*
X145745000Y-112426000D01*
X145745000Y-112426000D02*
X145745000Y-112426000D01*
X112289000Y-110033500D02*
X112827499Y-109495001D01*
X112289000Y-110353500D02*
X112289000Y-110033500D01*
X112827499Y-109495001D02*
X117187999Y-109495001D01*
X117187999Y-109495001D02*
X117476498Y-109783500D01*
X139439000Y-110033500D02*
X139977499Y-109495001D01*
X139439000Y-110353500D02*
X139439000Y-110033500D01*
X139977499Y-109495001D02*
X144337999Y-109495001D01*
X144337999Y-109495001D02*
X144626498Y-109783500D01*
X119953000Y-111942500D02*
X119953000Y-111942500D01*
X118414907Y-110353500D02*
X119995010Y-111933603D01*
X116434000Y-110353500D02*
X118414907Y-110353500D01*
X147103000Y-111942500D02*
X147103000Y-111942500D01*
X145564907Y-110353500D02*
X147145010Y-111933603D01*
X143584000Y-110353500D02*
X145564907Y-110353500D01*
M02*
