M48
; DRILL file {KiCad (5.1.9)-1} date 05/15/21 20:55:54
; FORMAT={-:-/ absolute / inch / decimal}
; #@! TF.CreationDate,2021-05-15T20:55:54-04:00
; #@! TF.GenerationSoftware,Kicad,Pcbnew,(5.1.9)-1
; #@! TF.FileFunction,Plated,1,2,PTH
FMAT,2
INCH
T1C0.0157
T2C0.0197
T3C0.0236
T4C0.0300
T5C0.0354
T6C0.0394
T7C0.0591
T8C0.1575
%
G90
G05
T1
X3.325Y-3.55
X4.8Y-2.56
X6.9Y-2.48
T2
X3.585Y-2.35
X3.7Y-3.45
X3.7Y-4.2
X3.7Y-4.95
X3.7Y-5.7
X3.735Y-2.4
X3.875Y-2.425
X4.025Y-2.45
X4.0851Y-2.15
X4.2Y-2.45
X4.45Y-3.45
X4.45Y-4.2
X4.45Y-4.95
X4.45Y-5.7
X5.05Y-2.45
X5.0798Y-2.4
X5.1274Y-2.3476
X5.2Y-3.45
X5.2Y-4.2
X5.2Y-4.95
X5.2Y-5.7
X5.375Y-2.125
X5.525Y-2.275
X5.575Y-2.3
X5.65Y-2.2984
X5.6889Y-1.9111
X5.96Y-3.38
X5.98Y-2.64
X6.1Y-4.2
X6.1Y-4.95
X6.1Y-5.7
X6.16Y-2.76
X6.16Y-2.82
X6.175Y-1.875
X6.35Y-2.7124
X6.4Y-2.7
X6.45Y-2.7124
X6.675Y-2.475
X7.05Y-3.2
X7.05Y-3.95
X7.2Y-4.125
X7.3Y-3.975
X7.3Y-4.725
X7.3Y-4.925
X7.325Y-4.65
X7.375Y-2.15
X7.4Y-2.375
X7.475Y-2.55
X7.5Y-2.1
X7.5487Y-1.9487
X7.6463Y-1.9537
X7.7Y-3.375
X7.737Y-3.312
X7.8449Y-3.1949
X7.9Y-3.125
X7.975Y-3.312
X7.9963Y-3.8963
X8.0463Y-2.5463
X8.075Y-3.275
X8.15Y-3.2
T3
X6.1Y-2.7
X6.1Y-3.45
X6.28Y-2.72
X6.28Y-3.42
T4
X3.45Y-3.5748
X3.45Y-4.3248
X3.45Y-5.0748
X3.45Y-5.8248
X3.6379Y-3.6432
X3.6379Y-4.3932
X3.6379Y-5.1432
X3.6379Y-5.8932
X4.2Y-3.5748
X4.2Y-4.3248
X4.2Y-5.0748
X4.2Y-5.8248
X4.3879Y-3.6432
X4.3879Y-4.3932
X4.3879Y-5.1432
X4.3879Y-5.8932
X4.95Y-3.5748
X4.95Y-4.3248
X4.95Y-5.0748
X4.95Y-5.8248
X5.1379Y-3.6432
X5.1379Y-4.3932
X5.1379Y-5.1432
X5.1379Y-5.8932
X5.85Y-2.8248
X5.85Y-3.5748
X5.85Y-4.3248
X5.85Y-5.0748
X5.85Y-5.8248
X6.0379Y-2.8932
X6.0379Y-3.6432
X6.0379Y-4.3932
X6.0379Y-5.1432
X6.0379Y-5.8932
X6.55Y-2.2575
X6.55Y-2.7425
X6.55Y-3.0075
X6.55Y-3.4925
X6.55Y-3.7575
X6.55Y-4.2425
X6.55Y-4.5075
X6.55Y-4.9925
X6.55Y-5.2575
X6.55Y-5.7425
X6.65Y-2.2575
X6.65Y-2.7425
X6.65Y-3.0075
X6.65Y-3.4925
X6.65Y-3.7575
X6.65Y-4.2425
X6.65Y-4.5075
X6.65Y-4.9925
X6.65Y-5.2575
X6.65Y-5.7425
X6.75Y-2.2575
X6.75Y-2.7425
X6.75Y-3.0075
X6.75Y-3.4925
X6.75Y-3.7575
X6.75Y-4.2425
X6.75Y-4.5075
X6.75Y-4.9925
X6.75Y-5.2575
X6.75Y-5.7425
X6.85Y-2.2575
X6.85Y-2.7425
X6.85Y-3.0075
X6.85Y-3.4925
X6.85Y-3.7575
X6.85Y-4.2425
X6.85Y-4.5075
X6.85Y-4.9925
X6.85Y-5.2575
X6.85Y-5.7425
X6.95Y-2.2575
X6.95Y-2.7425
X6.95Y-3.0075
X6.95Y-3.4925
X6.95Y-3.7575
X6.95Y-4.2425
X6.95Y-4.5075
X6.95Y-4.9925
X6.95Y-5.2575
X6.95Y-5.7425
X7.05Y-2.2575
X7.05Y-2.7425
X7.05Y-3.0075
X7.05Y-3.4925
X7.05Y-3.7575
X7.05Y-4.2425
X7.05Y-4.5075
X7.05Y-4.9925
X7.05Y-5.2575
X7.05Y-5.7425
X7.55Y-2.2575
X7.55Y-2.7425
X7.55Y-3.0075
X7.55Y-3.4925
X7.55Y-3.7575
X7.55Y-4.2425
X7.55Y-4.5075
X7.55Y-4.9925
X7.55Y-5.2575
X7.55Y-5.7425
X7.65Y-2.2575
X7.65Y-2.7425
X7.65Y-3.0075
X7.65Y-3.4925
X7.65Y-3.7575
X7.65Y-4.2425
X7.65Y-4.5075
X7.65Y-4.9925
X7.65Y-5.2575
X7.65Y-5.7425
X7.75Y-2.2575
X7.75Y-2.7425
X7.75Y-3.0075
X7.75Y-3.4925
X7.75Y-3.7575
X7.75Y-4.2425
X7.75Y-4.5075
X7.75Y-4.9925
X7.75Y-5.2575
X7.75Y-5.7425
X7.85Y-2.2575
X7.85Y-2.7425
X7.85Y-3.0075
X7.85Y-3.4925
X7.85Y-3.7575
X7.85Y-4.2425
X7.85Y-4.5075
X7.85Y-4.9925
X7.85Y-5.2575
X7.85Y-5.7425
X7.95Y-2.2575
X7.95Y-2.7425
X7.95Y-3.0075
X7.95Y-3.4925
X7.95Y-3.7575
X7.95Y-4.2425
X7.95Y-4.5075
X7.95Y-4.9925
X7.95Y-5.2575
X7.95Y-5.7425
X8.05Y-2.2575
X8.05Y-2.7425
X8.05Y-3.0075
X8.05Y-3.4925
X8.05Y-3.7575
X8.05Y-4.2425
X8.05Y-4.5075
X8.05Y-4.9925
X8.05Y-5.2575
X8.05Y-5.7425
T5
X3.385Y-2.2501
X3.385Y-2.7702
X3.485Y-2.2501
X3.485Y-2.7702
X3.585Y-2.2501
X3.585Y-2.7702
X3.685Y-2.2501
X3.685Y-2.7702
X3.785Y-2.2501
X3.885Y-2.2501
X3.985Y-2.2501
X4.0402Y-2.7702
X4.085Y-2.2501
X4.1402Y-2.7702
X4.2402Y-2.7702
X4.3402Y-2.7702
X4.4402Y-2.7702
X4.7299Y-2.2501
X4.7299Y-2.7702
X4.8299Y-2.2501
X4.8299Y-2.7702
X4.9299Y-2.2501
X4.9299Y-2.7702
X5.0299Y-2.2501
X5.0299Y-2.7702
X5.1299Y-2.2501
X5.1299Y-2.7702
X5.2299Y-2.2501
X5.2299Y-2.7702
X5.3299Y-2.2501
X5.3299Y-2.7702
T6
X2.95Y-3.35
X2.95Y-3.45
X2.95Y-3.55
X2.95Y-3.85
X2.95Y-3.95
X2.95Y-4.05
X2.95Y-4.15
X2.95Y-4.25
X2.95Y-4.35
X2.95Y-4.45
X2.95Y-4.55
X2.95Y-4.65
X4.225Y-2.0
X4.325Y-2.0
X4.425Y-2.0
X4.525Y-2.0
X4.625Y-2.0
X4.725Y-2.0
X4.825Y-2.0
X4.925Y-2.0
X5.025Y-2.0
X5.125Y-2.0
X5.225Y-2.0
X5.325Y-2.0
X5.425Y-2.0
X5.525Y-2.0
X5.625Y-2.0
X5.725Y-2.0
X5.825Y-2.0
X5.925Y-2.0
X6.025Y-2.0
X6.125Y-2.0
X6.225Y-2.0
X6.325Y-2.0
X6.425Y-2.0
X6.525Y-2.0
X6.625Y-2.0
X6.725Y-2.0
X6.825Y-2.0
X6.925Y-2.0
X7.025Y-2.0
X7.125Y-2.0
X8.5Y-2.25
X8.5Y-2.35
X8.5Y-2.45
X8.5Y-2.55
X8.5Y-2.65
X8.5Y-2.75
X8.5Y-2.85
X8.5Y-2.95
X8.5Y-3.05
X8.5Y-3.15
X8.5Y-3.25
X8.5Y-3.35
X8.5Y-3.45
X8.5Y-3.55
X8.5Y-3.65
X8.5Y-3.75
X8.5Y-3.85
X8.5Y-3.95
X8.5Y-4.05
X8.5Y-4.15
X8.5Y-4.25
X8.5Y-4.35
X8.5Y-4.45
X8.5Y-4.55
X8.5Y-4.65
X8.5Y-4.75
X8.5Y-4.85
X8.5Y-4.95
X8.5Y-5.05
X8.5Y-5.15
X8.5Y-5.25
X8.5Y-5.35
X8.5Y-5.45
T7
X3.45Y-3.15
X3.45Y-3.9
X3.45Y-4.65
X3.45Y-5.4
X3.7Y-3.05
X3.7Y-3.8
X3.7Y-4.55
X3.7Y-5.3
X4.2Y-3.15
X4.2Y-3.9
X4.2Y-4.65
X4.2Y-5.4
X4.45Y-3.05
X4.45Y-3.8
X4.45Y-4.55
X4.45Y-5.3
X4.95Y-3.15
X4.95Y-3.9
X4.95Y-4.65
X4.95Y-5.4
X5.2Y-3.05
X5.2Y-3.8
X5.2Y-4.55
X5.2Y-5.3
X5.85Y-2.4
X5.85Y-3.15
X5.85Y-3.9
X5.85Y-4.65
X5.85Y-5.4
X6.1Y-2.3
X6.1Y-3.05
X6.1Y-3.8
X6.1Y-4.55
X6.1Y-5.3
T8
X3.6Y-3.25
X3.6Y-4.0
X3.6Y-4.75
X3.6Y-5.5
X4.35Y-3.25
X4.35Y-4.0
X4.35Y-4.75
X4.35Y-5.5
X5.1Y-3.25
X5.1Y-4.0
X5.1Y-4.75
X5.1Y-5.5
X6.0Y-2.5
X6.0Y-3.25
X6.0Y-4.0
X6.0Y-4.75
X6.0Y-5.5
T0
M30
