%TF.GenerationSoftware,KiCad,Pcbnew,(5.1.9)-1*%
%TF.CreationDate,2021-06-11T12:31:16-04:00*%
%TF.ProjectId,UFC,5546432e-6b69-4636-9164-5f7063625858,rev?*%
%TF.SameCoordinates,Original*%
%TF.FileFunction,Paste,Top*%
%TF.FilePolarity,Positive*%
%FSLAX46Y46*%
G04 Gerber Fmt 4.6, Leading zero omitted, Abs format (unit mm)*
G04 Created by KiCad (PCBNEW (5.1.9)-1) date 2021-06-11 12:31:16*
%MOMM*%
%LPD*%
G01*
G04 APERTURE LIST*
G04 APERTURE END LIST*
%TO.C,D34*%
G36*
G01*
X151950000Y-144329999D02*
X151950000Y-145230001D01*
G75*
G02*
X151700001Y-145480000I-249999J0D01*
G01*
X151049999Y-145480000D01*
G75*
G02*
X150800000Y-145230001I0J249999D01*
G01*
X150800000Y-144329999D01*
G75*
G02*
X151049999Y-144080000I249999J0D01*
G01*
X151700001Y-144080000D01*
G75*
G02*
X151950000Y-144329999I0J-249999D01*
G01*
G37*
G36*
G01*
X154000000Y-144329999D02*
X154000000Y-145230001D01*
G75*
G02*
X153750001Y-145480000I-249999J0D01*
G01*
X153099999Y-145480000D01*
G75*
G02*
X152850000Y-145230001I0J249999D01*
G01*
X152850000Y-144329999D01*
G75*
G02*
X153099999Y-144080000I249999J0D01*
G01*
X153750001Y-144080000D01*
G75*
G02*
X154000000Y-144329999I0J-249999D01*
G01*
G37*
%TD*%
%TO.C,D33*%
G36*
G01*
X151950000Y-125279999D02*
X151950000Y-126180001D01*
G75*
G02*
X151700001Y-126430000I-249999J0D01*
G01*
X151049999Y-126430000D01*
G75*
G02*
X150800000Y-126180001I0J249999D01*
G01*
X150800000Y-125279999D01*
G75*
G02*
X151049999Y-125030000I249999J0D01*
G01*
X151700001Y-125030000D01*
G75*
G02*
X151950000Y-125279999I0J-249999D01*
G01*
G37*
G36*
G01*
X154000000Y-125279999D02*
X154000000Y-126180001D01*
G75*
G02*
X153750001Y-126430000I-249999J0D01*
G01*
X153099999Y-126430000D01*
G75*
G02*
X152850000Y-126180001I0J249999D01*
G01*
X152850000Y-125279999D01*
G75*
G02*
X153099999Y-125030000I249999J0D01*
G01*
X153750001Y-125030000D01*
G75*
G02*
X154000000Y-125279999I0J-249999D01*
G01*
G37*
%TD*%
%TO.C,D32*%
G36*
G01*
X151950000Y-106229999D02*
X151950000Y-107130001D01*
G75*
G02*
X151700001Y-107380000I-249999J0D01*
G01*
X151049999Y-107380000D01*
G75*
G02*
X150800000Y-107130001I0J249999D01*
G01*
X150800000Y-106229999D01*
G75*
G02*
X151049999Y-105980000I249999J0D01*
G01*
X151700001Y-105980000D01*
G75*
G02*
X151950000Y-106229999I0J-249999D01*
G01*
G37*
G36*
G01*
X154000000Y-106229999D02*
X154000000Y-107130001D01*
G75*
G02*
X153750001Y-107380000I-249999J0D01*
G01*
X153099999Y-107380000D01*
G75*
G02*
X152850000Y-107130001I0J249999D01*
G01*
X152850000Y-106229999D01*
G75*
G02*
X153099999Y-105980000I249999J0D01*
G01*
X153750001Y-105980000D01*
G75*
G02*
X154000000Y-106229999I0J-249999D01*
G01*
G37*
%TD*%
%TO.C,D31*%
G36*
G01*
X151950000Y-87179999D02*
X151950000Y-88080001D01*
G75*
G02*
X151700001Y-88330000I-249999J0D01*
G01*
X151049999Y-88330000D01*
G75*
G02*
X150800000Y-88080001I0J249999D01*
G01*
X150800000Y-87179999D01*
G75*
G02*
X151049999Y-86930000I249999J0D01*
G01*
X151700001Y-86930000D01*
G75*
G02*
X151950000Y-87179999I0J-249999D01*
G01*
G37*
G36*
G01*
X154000000Y-87179999D02*
X154000000Y-88080001D01*
G75*
G02*
X153750001Y-88330000I-249999J0D01*
G01*
X153099999Y-88330000D01*
G75*
G02*
X152850000Y-88080001I0J249999D01*
G01*
X152850000Y-87179999D01*
G75*
G02*
X153099999Y-86930000I249999J0D01*
G01*
X153750001Y-86930000D01*
G75*
G02*
X154000000Y-87179999I0J-249999D01*
G01*
G37*
%TD*%
%TO.C,D30*%
G36*
G01*
X151950000Y-68129999D02*
X151950000Y-69030001D01*
G75*
G02*
X151700001Y-69280000I-249999J0D01*
G01*
X151049999Y-69280000D01*
G75*
G02*
X150800000Y-69030001I0J249999D01*
G01*
X150800000Y-68129999D01*
G75*
G02*
X151049999Y-67880000I249999J0D01*
G01*
X151700001Y-67880000D01*
G75*
G02*
X151950000Y-68129999I0J-249999D01*
G01*
G37*
G36*
G01*
X154000000Y-68129999D02*
X154000000Y-69030001D01*
G75*
G02*
X153750001Y-69280000I-249999J0D01*
G01*
X153099999Y-69280000D01*
G75*
G02*
X152850000Y-69030001I0J249999D01*
G01*
X152850000Y-68129999D01*
G75*
G02*
X153099999Y-67880000I249999J0D01*
G01*
X153750001Y-67880000D01*
G75*
G02*
X154000000Y-68129999I0J-249999D01*
G01*
G37*
%TD*%
%TO.C,D29*%
G36*
G01*
X129090000Y-144329999D02*
X129090000Y-145230001D01*
G75*
G02*
X128840001Y-145480000I-249999J0D01*
G01*
X128189999Y-145480000D01*
G75*
G02*
X127940000Y-145230001I0J249999D01*
G01*
X127940000Y-144329999D01*
G75*
G02*
X128189999Y-144080000I249999J0D01*
G01*
X128840001Y-144080000D01*
G75*
G02*
X129090000Y-144329999I0J-249999D01*
G01*
G37*
G36*
G01*
X131140000Y-144329999D02*
X131140000Y-145230001D01*
G75*
G02*
X130890001Y-145480000I-249999J0D01*
G01*
X130239999Y-145480000D01*
G75*
G02*
X129990000Y-145230001I0J249999D01*
G01*
X129990000Y-144329999D01*
G75*
G02*
X130239999Y-144080000I249999J0D01*
G01*
X130890001Y-144080000D01*
G75*
G02*
X131140000Y-144329999I0J-249999D01*
G01*
G37*
%TD*%
%TO.C,D28*%
G36*
G01*
X110040000Y-144329999D02*
X110040000Y-145230001D01*
G75*
G02*
X109790001Y-145480000I-249999J0D01*
G01*
X109139999Y-145480000D01*
G75*
G02*
X108890000Y-145230001I0J249999D01*
G01*
X108890000Y-144329999D01*
G75*
G02*
X109139999Y-144080000I249999J0D01*
G01*
X109790001Y-144080000D01*
G75*
G02*
X110040000Y-144329999I0J-249999D01*
G01*
G37*
G36*
G01*
X112090000Y-144329999D02*
X112090000Y-145230001D01*
G75*
G02*
X111840001Y-145480000I-249999J0D01*
G01*
X111189999Y-145480000D01*
G75*
G02*
X110940000Y-145230001I0J249999D01*
G01*
X110940000Y-144329999D01*
G75*
G02*
X111189999Y-144080000I249999J0D01*
G01*
X111840001Y-144080000D01*
G75*
G02*
X112090000Y-144329999I0J-249999D01*
G01*
G37*
%TD*%
%TO.C,D27*%
G36*
G01*
X90990000Y-144329999D02*
X90990000Y-145230001D01*
G75*
G02*
X90740001Y-145480000I-249999J0D01*
G01*
X90089999Y-145480000D01*
G75*
G02*
X89840000Y-145230001I0J249999D01*
G01*
X89840000Y-144329999D01*
G75*
G02*
X90089999Y-144080000I249999J0D01*
G01*
X90740001Y-144080000D01*
G75*
G02*
X90990000Y-144329999I0J-249999D01*
G01*
G37*
G36*
G01*
X93040000Y-144329999D02*
X93040000Y-145230001D01*
G75*
G02*
X92790001Y-145480000I-249999J0D01*
G01*
X92139999Y-145480000D01*
G75*
G02*
X91890000Y-145230001I0J249999D01*
G01*
X91890000Y-144329999D01*
G75*
G02*
X92139999Y-144080000I249999J0D01*
G01*
X92790001Y-144080000D01*
G75*
G02*
X93040000Y-144329999I0J-249999D01*
G01*
G37*
%TD*%
%TO.C,D26*%
G36*
G01*
X129090000Y-125279999D02*
X129090000Y-126180001D01*
G75*
G02*
X128840001Y-126430000I-249999J0D01*
G01*
X128189999Y-126430000D01*
G75*
G02*
X127940000Y-126180001I0J249999D01*
G01*
X127940000Y-125279999D01*
G75*
G02*
X128189999Y-125030000I249999J0D01*
G01*
X128840001Y-125030000D01*
G75*
G02*
X129090000Y-125279999I0J-249999D01*
G01*
G37*
G36*
G01*
X131140000Y-125279999D02*
X131140000Y-126180001D01*
G75*
G02*
X130890001Y-126430000I-249999J0D01*
G01*
X130239999Y-126430000D01*
G75*
G02*
X129990000Y-126180001I0J249999D01*
G01*
X129990000Y-125279999D01*
G75*
G02*
X130239999Y-125030000I249999J0D01*
G01*
X130890001Y-125030000D01*
G75*
G02*
X131140000Y-125279999I0J-249999D01*
G01*
G37*
%TD*%
%TO.C,D25*%
G36*
G01*
X110040000Y-125279999D02*
X110040000Y-126180001D01*
G75*
G02*
X109790001Y-126430000I-249999J0D01*
G01*
X109139999Y-126430000D01*
G75*
G02*
X108890000Y-126180001I0J249999D01*
G01*
X108890000Y-125279999D01*
G75*
G02*
X109139999Y-125030000I249999J0D01*
G01*
X109790001Y-125030000D01*
G75*
G02*
X110040000Y-125279999I0J-249999D01*
G01*
G37*
G36*
G01*
X112090000Y-125279999D02*
X112090000Y-126180001D01*
G75*
G02*
X111840001Y-126430000I-249999J0D01*
G01*
X111189999Y-126430000D01*
G75*
G02*
X110940000Y-126180001I0J249999D01*
G01*
X110940000Y-125279999D01*
G75*
G02*
X111189999Y-125030000I249999J0D01*
G01*
X111840001Y-125030000D01*
G75*
G02*
X112090000Y-125279999I0J-249999D01*
G01*
G37*
%TD*%
%TO.C,D24*%
G36*
G01*
X90990000Y-125279999D02*
X90990000Y-126180001D01*
G75*
G02*
X90740001Y-126430000I-249999J0D01*
G01*
X90089999Y-126430000D01*
G75*
G02*
X89840000Y-126180001I0J249999D01*
G01*
X89840000Y-125279999D01*
G75*
G02*
X90089999Y-125030000I249999J0D01*
G01*
X90740001Y-125030000D01*
G75*
G02*
X90990000Y-125279999I0J-249999D01*
G01*
G37*
G36*
G01*
X93040000Y-125279999D02*
X93040000Y-126180001D01*
G75*
G02*
X92790001Y-126430000I-249999J0D01*
G01*
X92139999Y-126430000D01*
G75*
G02*
X91890000Y-126180001I0J249999D01*
G01*
X91890000Y-125279999D01*
G75*
G02*
X92139999Y-125030000I249999J0D01*
G01*
X92790001Y-125030000D01*
G75*
G02*
X93040000Y-125279999I0J-249999D01*
G01*
G37*
%TD*%
%TO.C,D23*%
G36*
G01*
X129090000Y-106229999D02*
X129090000Y-107130001D01*
G75*
G02*
X128840001Y-107380000I-249999J0D01*
G01*
X128189999Y-107380000D01*
G75*
G02*
X127940000Y-107130001I0J249999D01*
G01*
X127940000Y-106229999D01*
G75*
G02*
X128189999Y-105980000I249999J0D01*
G01*
X128840001Y-105980000D01*
G75*
G02*
X129090000Y-106229999I0J-249999D01*
G01*
G37*
G36*
G01*
X131140000Y-106229999D02*
X131140000Y-107130001D01*
G75*
G02*
X130890001Y-107380000I-249999J0D01*
G01*
X130239999Y-107380000D01*
G75*
G02*
X129990000Y-107130001I0J249999D01*
G01*
X129990000Y-106229999D01*
G75*
G02*
X130239999Y-105980000I249999J0D01*
G01*
X130890001Y-105980000D01*
G75*
G02*
X131140000Y-106229999I0J-249999D01*
G01*
G37*
%TD*%
%TO.C,D22*%
G36*
G01*
X110040000Y-106229999D02*
X110040000Y-107130001D01*
G75*
G02*
X109790001Y-107380000I-249999J0D01*
G01*
X109139999Y-107380000D01*
G75*
G02*
X108890000Y-107130001I0J249999D01*
G01*
X108890000Y-106229999D01*
G75*
G02*
X109139999Y-105980000I249999J0D01*
G01*
X109790001Y-105980000D01*
G75*
G02*
X110040000Y-106229999I0J-249999D01*
G01*
G37*
G36*
G01*
X112090000Y-106229999D02*
X112090000Y-107130001D01*
G75*
G02*
X111840001Y-107380000I-249999J0D01*
G01*
X111189999Y-107380000D01*
G75*
G02*
X110940000Y-107130001I0J249999D01*
G01*
X110940000Y-106229999D01*
G75*
G02*
X111189999Y-105980000I249999J0D01*
G01*
X111840001Y-105980000D01*
G75*
G02*
X112090000Y-106229999I0J-249999D01*
G01*
G37*
%TD*%
%TO.C,D21*%
G36*
G01*
X90990000Y-106229999D02*
X90990000Y-107130001D01*
G75*
G02*
X90740001Y-107380000I-249999J0D01*
G01*
X90089999Y-107380000D01*
G75*
G02*
X89840000Y-107130001I0J249999D01*
G01*
X89840000Y-106229999D01*
G75*
G02*
X90089999Y-105980000I249999J0D01*
G01*
X90740001Y-105980000D01*
G75*
G02*
X90990000Y-106229999I0J-249999D01*
G01*
G37*
G36*
G01*
X93040000Y-106229999D02*
X93040000Y-107130001D01*
G75*
G02*
X92790001Y-107380000I-249999J0D01*
G01*
X92139999Y-107380000D01*
G75*
G02*
X91890000Y-107130001I0J249999D01*
G01*
X91890000Y-106229999D01*
G75*
G02*
X92139999Y-105980000I249999J0D01*
G01*
X92790001Y-105980000D01*
G75*
G02*
X93040000Y-106229999I0J-249999D01*
G01*
G37*
%TD*%
%TO.C,D20*%
G36*
G01*
X129090000Y-87179999D02*
X129090000Y-88080001D01*
G75*
G02*
X128840001Y-88330000I-249999J0D01*
G01*
X128189999Y-88330000D01*
G75*
G02*
X127940000Y-88080001I0J249999D01*
G01*
X127940000Y-87179999D01*
G75*
G02*
X128189999Y-86930000I249999J0D01*
G01*
X128840001Y-86930000D01*
G75*
G02*
X129090000Y-87179999I0J-249999D01*
G01*
G37*
G36*
G01*
X131140000Y-87179999D02*
X131140000Y-88080001D01*
G75*
G02*
X130890001Y-88330000I-249999J0D01*
G01*
X130239999Y-88330000D01*
G75*
G02*
X129990000Y-88080001I0J249999D01*
G01*
X129990000Y-87179999D01*
G75*
G02*
X130239999Y-86930000I249999J0D01*
G01*
X130890001Y-86930000D01*
G75*
G02*
X131140000Y-87179999I0J-249999D01*
G01*
G37*
%TD*%
%TO.C,D19*%
G36*
G01*
X110040000Y-87179999D02*
X110040000Y-88080001D01*
G75*
G02*
X109790001Y-88330000I-249999J0D01*
G01*
X109139999Y-88330000D01*
G75*
G02*
X108890000Y-88080001I0J249999D01*
G01*
X108890000Y-87179999D01*
G75*
G02*
X109139999Y-86930000I249999J0D01*
G01*
X109790001Y-86930000D01*
G75*
G02*
X110040000Y-87179999I0J-249999D01*
G01*
G37*
G36*
G01*
X112090000Y-87179999D02*
X112090000Y-88080001D01*
G75*
G02*
X111840001Y-88330000I-249999J0D01*
G01*
X111189999Y-88330000D01*
G75*
G02*
X110940000Y-88080001I0J249999D01*
G01*
X110940000Y-87179999D01*
G75*
G02*
X111189999Y-86930000I249999J0D01*
G01*
X111840001Y-86930000D01*
G75*
G02*
X112090000Y-87179999I0J-249999D01*
G01*
G37*
%TD*%
%TO.C,D18*%
G36*
G01*
X90990000Y-87179999D02*
X90990000Y-88080001D01*
G75*
G02*
X90740001Y-88330000I-249999J0D01*
G01*
X90089999Y-88330000D01*
G75*
G02*
X89840000Y-88080001I0J249999D01*
G01*
X89840000Y-87179999D01*
G75*
G02*
X90089999Y-86930000I249999J0D01*
G01*
X90740001Y-86930000D01*
G75*
G02*
X90990000Y-87179999I0J-249999D01*
G01*
G37*
G36*
G01*
X93040000Y-87179999D02*
X93040000Y-88080001D01*
G75*
G02*
X92790001Y-88330000I-249999J0D01*
G01*
X92139999Y-88330000D01*
G75*
G02*
X91890000Y-88080001I0J249999D01*
G01*
X91890000Y-87179999D01*
G75*
G02*
X92139999Y-86930000I249999J0D01*
G01*
X92790001Y-86930000D01*
G75*
G02*
X93040000Y-87179999I0J-249999D01*
G01*
G37*
%TD*%
M02*
