%TF.GenerationSoftware,KiCad,Pcbnew,(5.1.9)-1*%
%TF.CreationDate,2021-05-15T18:53:33-04:00*%
%TF.ProjectId,UFC,5546432e-6b69-4636-9164-5f7063625858,rev?*%
%TF.SameCoordinates,Original*%
%TF.FileFunction,Legend,Top*%
%TF.FilePolarity,Positive*%
%FSLAX46Y46*%
G04 Gerber Fmt 4.6, Leading zero omitted, Abs format (unit mm)*
G04 Created by KiCad (PCBNEW (5.1.9)-1) date 2021-05-15 18:53:33*
%MOMM*%
%LPD*%
G01*
G04 APERTURE LIST*
%ADD10C,0.150000*%
%ADD11C,0.120000*%
G04 APERTURE END LIST*
D10*
X107212380Y-57554761D02*
X107355238Y-57602380D01*
X107593333Y-57602380D01*
X107688571Y-57554761D01*
X107736190Y-57507142D01*
X107783809Y-57411904D01*
X107783809Y-57316666D01*
X107736190Y-57221428D01*
X107688571Y-57173809D01*
X107593333Y-57126190D01*
X107402857Y-57078571D01*
X107307619Y-57030952D01*
X107260000Y-56983333D01*
X107212380Y-56888095D01*
X107212380Y-56792857D01*
X107260000Y-56697619D01*
X107307619Y-56650000D01*
X107402857Y-56602380D01*
X107640952Y-56602380D01*
X107783809Y-56650000D01*
X108783809Y-57507142D02*
X108736190Y-57554761D01*
X108593333Y-57602380D01*
X108498095Y-57602380D01*
X108355238Y-57554761D01*
X108260000Y-57459523D01*
X108212380Y-57364285D01*
X108164761Y-57173809D01*
X108164761Y-57030952D01*
X108212380Y-56840476D01*
X108260000Y-56745238D01*
X108355238Y-56650000D01*
X108498095Y-56602380D01*
X108593333Y-56602380D01*
X108736190Y-56650000D01*
X108783809Y-56697619D01*
X109783809Y-57602380D02*
X109450476Y-57126190D01*
X109212380Y-57602380D02*
X109212380Y-56602380D01*
X109593333Y-56602380D01*
X109688571Y-56650000D01*
X109736190Y-56697619D01*
X109783809Y-56792857D01*
X109783809Y-56935714D01*
X109736190Y-57030952D01*
X109688571Y-57078571D01*
X109593333Y-57126190D01*
X109212380Y-57126190D01*
X110164761Y-57316666D02*
X110640952Y-57316666D01*
X110069523Y-57602380D02*
X110402857Y-56602380D01*
X110736190Y-57602380D01*
X110926666Y-56602380D02*
X111498095Y-56602380D01*
X111212380Y-57602380D02*
X111212380Y-56602380D01*
X112402857Y-57507142D02*
X112355238Y-57554761D01*
X112212380Y-57602380D01*
X112117142Y-57602380D01*
X111974285Y-57554761D01*
X111879047Y-57459523D01*
X111831428Y-57364285D01*
X111783809Y-57173809D01*
X111783809Y-57030952D01*
X111831428Y-56840476D01*
X111879047Y-56745238D01*
X111974285Y-56650000D01*
X112117142Y-56602380D01*
X112212380Y-56602380D01*
X112355238Y-56650000D01*
X112402857Y-56697619D01*
X112831428Y-57602380D02*
X112831428Y-56602380D01*
X112831428Y-57078571D02*
X113402857Y-57078571D01*
X113402857Y-57602380D02*
X113402857Y-56602380D01*
X113879047Y-57602380D02*
X113879047Y-56602380D01*
X114260000Y-56602380D01*
X114355238Y-56650000D01*
X114402857Y-56697619D01*
X114450476Y-56792857D01*
X114450476Y-56935714D01*
X114402857Y-57030952D01*
X114355238Y-57078571D01*
X114260000Y-57126190D01*
X113879047Y-57126190D01*
X114831428Y-57316666D02*
X115307619Y-57316666D01*
X114736190Y-57602380D02*
X115069523Y-56602380D01*
X115402857Y-57602380D01*
X115736190Y-57602380D02*
X115736190Y-56602380D01*
X115974285Y-56602380D01*
X116117142Y-56650000D01*
X116212380Y-56745238D01*
X116260000Y-56840476D01*
X116307619Y-57030952D01*
X116307619Y-57173809D01*
X116260000Y-57364285D01*
X116212380Y-57459523D01*
X116117142Y-57554761D01*
X115974285Y-57602380D01*
X115736190Y-57602380D01*
X183967619Y-134707380D02*
X184158095Y-134707380D01*
X184253333Y-134755000D01*
X184348571Y-134850238D01*
X184396190Y-135040714D01*
X184396190Y-135374047D01*
X184348571Y-135564523D01*
X184253333Y-135659761D01*
X184158095Y-135707380D01*
X183967619Y-135707380D01*
X183872380Y-135659761D01*
X183777142Y-135564523D01*
X183729523Y-135374047D01*
X183729523Y-135040714D01*
X183777142Y-134850238D01*
X183872380Y-134755000D01*
X183967619Y-134707380D01*
X184824761Y-135707380D02*
X184824761Y-134707380D01*
X185205714Y-134707380D01*
X185300952Y-134755000D01*
X185348571Y-134802619D01*
X185396190Y-134897857D01*
X185396190Y-135040714D01*
X185348571Y-135135952D01*
X185300952Y-135183571D01*
X185205714Y-135231190D01*
X184824761Y-135231190D01*
X185681904Y-134707380D02*
X186253333Y-134707380D01*
X185967619Y-135707380D02*
X185967619Y-134707380D01*
X187062857Y-134707380D02*
X186586666Y-134707380D01*
X186539047Y-135183571D01*
X186586666Y-135135952D01*
X186681904Y-135088333D01*
X186920000Y-135088333D01*
X187015238Y-135135952D01*
X187062857Y-135183571D01*
X187110476Y-135278809D01*
X187110476Y-135516904D01*
X187062857Y-135612142D01*
X187015238Y-135659761D01*
X186920000Y-135707380D01*
X186681904Y-135707380D01*
X186586666Y-135659761D01*
X186539047Y-135612142D01*
X183967619Y-115657380D02*
X184158095Y-115657380D01*
X184253333Y-115705000D01*
X184348571Y-115800238D01*
X184396190Y-115990714D01*
X184396190Y-116324047D01*
X184348571Y-116514523D01*
X184253333Y-116609761D01*
X184158095Y-116657380D01*
X183967619Y-116657380D01*
X183872380Y-116609761D01*
X183777142Y-116514523D01*
X183729523Y-116324047D01*
X183729523Y-115990714D01*
X183777142Y-115800238D01*
X183872380Y-115705000D01*
X183967619Y-115657380D01*
X184824761Y-116657380D02*
X184824761Y-115657380D01*
X185205714Y-115657380D01*
X185300952Y-115705000D01*
X185348571Y-115752619D01*
X185396190Y-115847857D01*
X185396190Y-115990714D01*
X185348571Y-116085952D01*
X185300952Y-116133571D01*
X185205714Y-116181190D01*
X184824761Y-116181190D01*
X185681904Y-115657380D02*
X186253333Y-115657380D01*
X185967619Y-116657380D02*
X185967619Y-115657380D01*
X187015238Y-115990714D02*
X187015238Y-116657380D01*
X186777142Y-115609761D02*
X186539047Y-116324047D01*
X187158095Y-116324047D01*
X183967619Y-96607380D02*
X184158095Y-96607380D01*
X184253333Y-96655000D01*
X184348571Y-96750238D01*
X184396190Y-96940714D01*
X184396190Y-97274047D01*
X184348571Y-97464523D01*
X184253333Y-97559761D01*
X184158095Y-97607380D01*
X183967619Y-97607380D01*
X183872380Y-97559761D01*
X183777142Y-97464523D01*
X183729523Y-97274047D01*
X183729523Y-96940714D01*
X183777142Y-96750238D01*
X183872380Y-96655000D01*
X183967619Y-96607380D01*
X184824761Y-97607380D02*
X184824761Y-96607380D01*
X185205714Y-96607380D01*
X185300952Y-96655000D01*
X185348571Y-96702619D01*
X185396190Y-96797857D01*
X185396190Y-96940714D01*
X185348571Y-97035952D01*
X185300952Y-97083571D01*
X185205714Y-97131190D01*
X184824761Y-97131190D01*
X185681904Y-96607380D02*
X186253333Y-96607380D01*
X185967619Y-97607380D02*
X185967619Y-96607380D01*
X186491428Y-96607380D02*
X187110476Y-96607380D01*
X186777142Y-96988333D01*
X186920000Y-96988333D01*
X187015238Y-97035952D01*
X187062857Y-97083571D01*
X187110476Y-97178809D01*
X187110476Y-97416904D01*
X187062857Y-97512142D01*
X187015238Y-97559761D01*
X186920000Y-97607380D01*
X186634285Y-97607380D01*
X186539047Y-97559761D01*
X186491428Y-97512142D01*
X183967619Y-77557380D02*
X184158095Y-77557380D01*
X184253333Y-77605000D01*
X184348571Y-77700238D01*
X184396190Y-77890714D01*
X184396190Y-78224047D01*
X184348571Y-78414523D01*
X184253333Y-78509761D01*
X184158095Y-78557380D01*
X183967619Y-78557380D01*
X183872380Y-78509761D01*
X183777142Y-78414523D01*
X183729523Y-78224047D01*
X183729523Y-77890714D01*
X183777142Y-77700238D01*
X183872380Y-77605000D01*
X183967619Y-77557380D01*
X184824761Y-78557380D02*
X184824761Y-77557380D01*
X185205714Y-77557380D01*
X185300952Y-77605000D01*
X185348571Y-77652619D01*
X185396190Y-77747857D01*
X185396190Y-77890714D01*
X185348571Y-77985952D01*
X185300952Y-78033571D01*
X185205714Y-78081190D01*
X184824761Y-78081190D01*
X185681904Y-77557380D02*
X186253333Y-77557380D01*
X185967619Y-78557380D02*
X185967619Y-77557380D01*
X186539047Y-77652619D02*
X186586666Y-77605000D01*
X186681904Y-77557380D01*
X186920000Y-77557380D01*
X187015238Y-77605000D01*
X187062857Y-77652619D01*
X187110476Y-77747857D01*
X187110476Y-77843095D01*
X187062857Y-77985952D01*
X186491428Y-78557380D01*
X187110476Y-78557380D01*
X183967619Y-58507380D02*
X184158095Y-58507380D01*
X184253333Y-58555000D01*
X184348571Y-58650238D01*
X184396190Y-58840714D01*
X184396190Y-59174047D01*
X184348571Y-59364523D01*
X184253333Y-59459761D01*
X184158095Y-59507380D01*
X183967619Y-59507380D01*
X183872380Y-59459761D01*
X183777142Y-59364523D01*
X183729523Y-59174047D01*
X183729523Y-58840714D01*
X183777142Y-58650238D01*
X183872380Y-58555000D01*
X183967619Y-58507380D01*
X184824761Y-59507380D02*
X184824761Y-58507380D01*
X185205714Y-58507380D01*
X185300952Y-58555000D01*
X185348571Y-58602619D01*
X185396190Y-58697857D01*
X185396190Y-58840714D01*
X185348571Y-58935952D01*
X185300952Y-58983571D01*
X185205714Y-59031190D01*
X184824761Y-59031190D01*
X185681904Y-58507380D02*
X186253333Y-58507380D01*
X185967619Y-59507380D02*
X185967619Y-58507380D01*
X187110476Y-59507380D02*
X186539047Y-59507380D01*
X186824761Y-59507380D02*
X186824761Y-58507380D01*
X186729523Y-58650238D01*
X186634285Y-58745476D01*
X186539047Y-58793095D01*
X207351666Y-138787142D02*
X207304047Y-138834761D01*
X207161190Y-138882380D01*
X207065952Y-138882380D01*
X206923095Y-138834761D01*
X206827857Y-138739523D01*
X206780238Y-138644285D01*
X206732619Y-138453809D01*
X206732619Y-138310952D01*
X206780238Y-138120476D01*
X206827857Y-138025238D01*
X206923095Y-137930000D01*
X207065952Y-137882380D01*
X207161190Y-137882380D01*
X207304047Y-137930000D01*
X207351666Y-137977619D01*
X207970714Y-137882380D02*
X208161190Y-137882380D01*
X208256428Y-137930000D01*
X208351666Y-138025238D01*
X208399285Y-138215714D01*
X208399285Y-138549047D01*
X208351666Y-138739523D01*
X208256428Y-138834761D01*
X208161190Y-138882380D01*
X207970714Y-138882380D01*
X207875476Y-138834761D01*
X207780238Y-138739523D01*
X207732619Y-138549047D01*
X207732619Y-138215714D01*
X207780238Y-138025238D01*
X207875476Y-137930000D01*
X207970714Y-137882380D01*
X208827857Y-138882380D02*
X208827857Y-137882380D01*
X209161190Y-138596666D01*
X209494523Y-137882380D01*
X209494523Y-138882380D01*
X210494523Y-138882380D02*
X209923095Y-138882380D01*
X210208809Y-138882380D02*
X210208809Y-137882380D01*
X210113571Y-138025238D01*
X210018333Y-138120476D01*
X209923095Y-138168095D01*
X211399285Y-137882380D02*
X210923095Y-137882380D01*
X210875476Y-138358571D01*
X210923095Y-138310952D01*
X211018333Y-138263333D01*
X211256428Y-138263333D01*
X211351666Y-138310952D01*
X211399285Y-138358571D01*
X211446904Y-138453809D01*
X211446904Y-138691904D01*
X211399285Y-138787142D01*
X211351666Y-138834761D01*
X211256428Y-138882380D01*
X211018333Y-138882380D01*
X210923095Y-138834761D01*
X210875476Y-138787142D01*
X211875476Y-138501428D02*
X212637380Y-138501428D01*
X213065952Y-137977619D02*
X213113571Y-137930000D01*
X213208809Y-137882380D01*
X213446904Y-137882380D01*
X213542142Y-137930000D01*
X213589761Y-137977619D01*
X213637380Y-138072857D01*
X213637380Y-138168095D01*
X213589761Y-138310952D01*
X213018333Y-138882380D01*
X213637380Y-138882380D01*
X207351666Y-136247142D02*
X207304047Y-136294761D01*
X207161190Y-136342380D01*
X207065952Y-136342380D01*
X206923095Y-136294761D01*
X206827857Y-136199523D01*
X206780238Y-136104285D01*
X206732619Y-135913809D01*
X206732619Y-135770952D01*
X206780238Y-135580476D01*
X206827857Y-135485238D01*
X206923095Y-135390000D01*
X207065952Y-135342380D01*
X207161190Y-135342380D01*
X207304047Y-135390000D01*
X207351666Y-135437619D01*
X207970714Y-135342380D02*
X208161190Y-135342380D01*
X208256428Y-135390000D01*
X208351666Y-135485238D01*
X208399285Y-135675714D01*
X208399285Y-136009047D01*
X208351666Y-136199523D01*
X208256428Y-136294761D01*
X208161190Y-136342380D01*
X207970714Y-136342380D01*
X207875476Y-136294761D01*
X207780238Y-136199523D01*
X207732619Y-136009047D01*
X207732619Y-135675714D01*
X207780238Y-135485238D01*
X207875476Y-135390000D01*
X207970714Y-135342380D01*
X208827857Y-136342380D02*
X208827857Y-135342380D01*
X209161190Y-136056666D01*
X209494523Y-135342380D01*
X209494523Y-136342380D01*
X210494523Y-136342380D02*
X209923095Y-136342380D01*
X210208809Y-136342380D02*
X210208809Y-135342380D01*
X210113571Y-135485238D01*
X210018333Y-135580476D01*
X209923095Y-135628095D01*
X211351666Y-135675714D02*
X211351666Y-136342380D01*
X211113571Y-135294761D02*
X210875476Y-136009047D01*
X211494523Y-136009047D01*
X211875476Y-135961428D02*
X212637380Y-135961428D01*
X213065952Y-135437619D02*
X213113571Y-135390000D01*
X213208809Y-135342380D01*
X213446904Y-135342380D01*
X213542142Y-135390000D01*
X213589761Y-135437619D01*
X213637380Y-135532857D01*
X213637380Y-135628095D01*
X213589761Y-135770952D01*
X213018333Y-136342380D01*
X213637380Y-136342380D01*
X207351666Y-133707142D02*
X207304047Y-133754761D01*
X207161190Y-133802380D01*
X207065952Y-133802380D01*
X206923095Y-133754761D01*
X206827857Y-133659523D01*
X206780238Y-133564285D01*
X206732619Y-133373809D01*
X206732619Y-133230952D01*
X206780238Y-133040476D01*
X206827857Y-132945238D01*
X206923095Y-132850000D01*
X207065952Y-132802380D01*
X207161190Y-132802380D01*
X207304047Y-132850000D01*
X207351666Y-132897619D01*
X207970714Y-132802380D02*
X208161190Y-132802380D01*
X208256428Y-132850000D01*
X208351666Y-132945238D01*
X208399285Y-133135714D01*
X208399285Y-133469047D01*
X208351666Y-133659523D01*
X208256428Y-133754761D01*
X208161190Y-133802380D01*
X207970714Y-133802380D01*
X207875476Y-133754761D01*
X207780238Y-133659523D01*
X207732619Y-133469047D01*
X207732619Y-133135714D01*
X207780238Y-132945238D01*
X207875476Y-132850000D01*
X207970714Y-132802380D01*
X208827857Y-133802380D02*
X208827857Y-132802380D01*
X209161190Y-133516666D01*
X209494523Y-132802380D01*
X209494523Y-133802380D01*
X210494523Y-133802380D02*
X209923095Y-133802380D01*
X210208809Y-133802380D02*
X210208809Y-132802380D01*
X210113571Y-132945238D01*
X210018333Y-133040476D01*
X209923095Y-133088095D01*
X210827857Y-132802380D02*
X211446904Y-132802380D01*
X211113571Y-133183333D01*
X211256428Y-133183333D01*
X211351666Y-133230952D01*
X211399285Y-133278571D01*
X211446904Y-133373809D01*
X211446904Y-133611904D01*
X211399285Y-133707142D01*
X211351666Y-133754761D01*
X211256428Y-133802380D01*
X210970714Y-133802380D01*
X210875476Y-133754761D01*
X210827857Y-133707142D01*
X211875476Y-133421428D02*
X212637380Y-133421428D01*
X213065952Y-132897619D02*
X213113571Y-132850000D01*
X213208809Y-132802380D01*
X213446904Y-132802380D01*
X213542142Y-132850000D01*
X213589761Y-132897619D01*
X213637380Y-132992857D01*
X213637380Y-133088095D01*
X213589761Y-133230952D01*
X213018333Y-133802380D01*
X213637380Y-133802380D01*
X207351666Y-131167142D02*
X207304047Y-131214761D01*
X207161190Y-131262380D01*
X207065952Y-131262380D01*
X206923095Y-131214761D01*
X206827857Y-131119523D01*
X206780238Y-131024285D01*
X206732619Y-130833809D01*
X206732619Y-130690952D01*
X206780238Y-130500476D01*
X206827857Y-130405238D01*
X206923095Y-130310000D01*
X207065952Y-130262380D01*
X207161190Y-130262380D01*
X207304047Y-130310000D01*
X207351666Y-130357619D01*
X207970714Y-130262380D02*
X208161190Y-130262380D01*
X208256428Y-130310000D01*
X208351666Y-130405238D01*
X208399285Y-130595714D01*
X208399285Y-130929047D01*
X208351666Y-131119523D01*
X208256428Y-131214761D01*
X208161190Y-131262380D01*
X207970714Y-131262380D01*
X207875476Y-131214761D01*
X207780238Y-131119523D01*
X207732619Y-130929047D01*
X207732619Y-130595714D01*
X207780238Y-130405238D01*
X207875476Y-130310000D01*
X207970714Y-130262380D01*
X208827857Y-131262380D02*
X208827857Y-130262380D01*
X209161190Y-130976666D01*
X209494523Y-130262380D01*
X209494523Y-131262380D01*
X210494523Y-131262380D02*
X209923095Y-131262380D01*
X210208809Y-131262380D02*
X210208809Y-130262380D01*
X210113571Y-130405238D01*
X210018333Y-130500476D01*
X209923095Y-130548095D01*
X210875476Y-130357619D02*
X210923095Y-130310000D01*
X211018333Y-130262380D01*
X211256428Y-130262380D01*
X211351666Y-130310000D01*
X211399285Y-130357619D01*
X211446904Y-130452857D01*
X211446904Y-130548095D01*
X211399285Y-130690952D01*
X210827857Y-131262380D01*
X211446904Y-131262380D01*
X211875476Y-130881428D02*
X212637380Y-130881428D01*
X213065952Y-130357619D02*
X213113571Y-130310000D01*
X213208809Y-130262380D01*
X213446904Y-130262380D01*
X213542142Y-130310000D01*
X213589761Y-130357619D01*
X213637380Y-130452857D01*
X213637380Y-130548095D01*
X213589761Y-130690952D01*
X213018333Y-131262380D01*
X213637380Y-131262380D01*
X212010714Y-128436666D02*
X212486904Y-128436666D01*
X211915476Y-128722380D02*
X212248809Y-127722380D01*
X212582142Y-128722380D01*
X212867857Y-127817619D02*
X212915476Y-127770000D01*
X213010714Y-127722380D01*
X213248809Y-127722380D01*
X213344047Y-127770000D01*
X213391666Y-127817619D01*
X213439285Y-127912857D01*
X213439285Y-128008095D01*
X213391666Y-128150952D01*
X212820238Y-128722380D01*
X213439285Y-128722380D01*
X212320238Y-125658571D02*
X212463095Y-125706190D01*
X212510714Y-125753809D01*
X212558333Y-125849047D01*
X212558333Y-125991904D01*
X212510714Y-126087142D01*
X212463095Y-126134761D01*
X212367857Y-126182380D01*
X211986904Y-126182380D01*
X211986904Y-125182380D01*
X212320238Y-125182380D01*
X212415476Y-125230000D01*
X212463095Y-125277619D01*
X212510714Y-125372857D01*
X212510714Y-125468095D01*
X212463095Y-125563333D01*
X212415476Y-125610952D01*
X212320238Y-125658571D01*
X211986904Y-125658571D01*
X212939285Y-125277619D02*
X212986904Y-125230000D01*
X213082142Y-125182380D01*
X213320238Y-125182380D01*
X213415476Y-125230000D01*
X213463095Y-125277619D01*
X213510714Y-125372857D01*
X213510714Y-125468095D01*
X213463095Y-125610952D01*
X212891666Y-126182380D01*
X213510714Y-126182380D01*
X212558333Y-123547142D02*
X212510714Y-123594761D01*
X212367857Y-123642380D01*
X212272619Y-123642380D01*
X212129761Y-123594761D01*
X212034523Y-123499523D01*
X211986904Y-123404285D01*
X211939285Y-123213809D01*
X211939285Y-123070952D01*
X211986904Y-122880476D01*
X212034523Y-122785238D01*
X212129761Y-122690000D01*
X212272619Y-122642380D01*
X212367857Y-122642380D01*
X212510714Y-122690000D01*
X212558333Y-122737619D01*
X212939285Y-122737619D02*
X212986904Y-122690000D01*
X213082142Y-122642380D01*
X213320238Y-122642380D01*
X213415476Y-122690000D01*
X213463095Y-122737619D01*
X213510714Y-122832857D01*
X213510714Y-122928095D01*
X213463095Y-123070952D01*
X212891666Y-123642380D01*
X213510714Y-123642380D01*
X211986904Y-121102380D02*
X211986904Y-120102380D01*
X212225000Y-120102380D01*
X212367857Y-120150000D01*
X212463095Y-120245238D01*
X212510714Y-120340476D01*
X212558333Y-120530952D01*
X212558333Y-120673809D01*
X212510714Y-120864285D01*
X212463095Y-120959523D01*
X212367857Y-121054761D01*
X212225000Y-121102380D01*
X211986904Y-121102380D01*
X212939285Y-120197619D02*
X212986904Y-120150000D01*
X213082142Y-120102380D01*
X213320238Y-120102380D01*
X213415476Y-120150000D01*
X213463095Y-120197619D01*
X213510714Y-120292857D01*
X213510714Y-120388095D01*
X213463095Y-120530952D01*
X212891666Y-121102380D01*
X213510714Y-121102380D01*
X212558333Y-118562380D02*
X212082142Y-118562380D01*
X212082142Y-117562380D01*
X212844047Y-117657619D02*
X212891666Y-117610000D01*
X212986904Y-117562380D01*
X213225000Y-117562380D01*
X213320238Y-117610000D01*
X213367857Y-117657619D01*
X213415476Y-117752857D01*
X213415476Y-117848095D01*
X213367857Y-117990952D01*
X212796428Y-118562380D01*
X213415476Y-118562380D01*
X207351666Y-115927142D02*
X207304047Y-115974761D01*
X207161190Y-116022380D01*
X207065952Y-116022380D01*
X206923095Y-115974761D01*
X206827857Y-115879523D01*
X206780238Y-115784285D01*
X206732619Y-115593809D01*
X206732619Y-115450952D01*
X206780238Y-115260476D01*
X206827857Y-115165238D01*
X206923095Y-115070000D01*
X207065952Y-115022380D01*
X207161190Y-115022380D01*
X207304047Y-115070000D01*
X207351666Y-115117619D01*
X207970714Y-115022380D02*
X208161190Y-115022380D01*
X208256428Y-115070000D01*
X208351666Y-115165238D01*
X208399285Y-115355714D01*
X208399285Y-115689047D01*
X208351666Y-115879523D01*
X208256428Y-115974761D01*
X208161190Y-116022380D01*
X207970714Y-116022380D01*
X207875476Y-115974761D01*
X207780238Y-115879523D01*
X207732619Y-115689047D01*
X207732619Y-115355714D01*
X207780238Y-115165238D01*
X207875476Y-115070000D01*
X207970714Y-115022380D01*
X208827857Y-116022380D02*
X208827857Y-115022380D01*
X209161190Y-115736666D01*
X209494523Y-115022380D01*
X209494523Y-116022380D01*
X210494523Y-116022380D02*
X209923095Y-116022380D01*
X210208809Y-116022380D02*
X210208809Y-115022380D01*
X210113571Y-115165238D01*
X210018333Y-115260476D01*
X209923095Y-115308095D01*
X211446904Y-116022380D02*
X210875476Y-116022380D01*
X211161190Y-116022380D02*
X211161190Y-115022380D01*
X211065952Y-115165238D01*
X210970714Y-115260476D01*
X210875476Y-115308095D01*
X211875476Y-115641428D02*
X212637380Y-115641428D01*
X213065952Y-115117619D02*
X213113571Y-115070000D01*
X213208809Y-115022380D01*
X213446904Y-115022380D01*
X213542142Y-115070000D01*
X213589761Y-115117619D01*
X213637380Y-115212857D01*
X213637380Y-115308095D01*
X213589761Y-115450952D01*
X213018333Y-116022380D01*
X213637380Y-116022380D01*
X207351666Y-113387142D02*
X207304047Y-113434761D01*
X207161190Y-113482380D01*
X207065952Y-113482380D01*
X206923095Y-113434761D01*
X206827857Y-113339523D01*
X206780238Y-113244285D01*
X206732619Y-113053809D01*
X206732619Y-112910952D01*
X206780238Y-112720476D01*
X206827857Y-112625238D01*
X206923095Y-112530000D01*
X207065952Y-112482380D01*
X207161190Y-112482380D01*
X207304047Y-112530000D01*
X207351666Y-112577619D01*
X207970714Y-112482380D02*
X208161190Y-112482380D01*
X208256428Y-112530000D01*
X208351666Y-112625238D01*
X208399285Y-112815714D01*
X208399285Y-113149047D01*
X208351666Y-113339523D01*
X208256428Y-113434761D01*
X208161190Y-113482380D01*
X207970714Y-113482380D01*
X207875476Y-113434761D01*
X207780238Y-113339523D01*
X207732619Y-113149047D01*
X207732619Y-112815714D01*
X207780238Y-112625238D01*
X207875476Y-112530000D01*
X207970714Y-112482380D01*
X208827857Y-113482380D02*
X208827857Y-112482380D01*
X209161190Y-113196666D01*
X209494523Y-112482380D01*
X209494523Y-113482380D01*
X210494523Y-113482380D02*
X209923095Y-113482380D01*
X210208809Y-113482380D02*
X210208809Y-112482380D01*
X210113571Y-112625238D01*
X210018333Y-112720476D01*
X209923095Y-112768095D01*
X211113571Y-112482380D02*
X211208809Y-112482380D01*
X211304047Y-112530000D01*
X211351666Y-112577619D01*
X211399285Y-112672857D01*
X211446904Y-112863333D01*
X211446904Y-113101428D01*
X211399285Y-113291904D01*
X211351666Y-113387142D01*
X211304047Y-113434761D01*
X211208809Y-113482380D01*
X211113571Y-113482380D01*
X211018333Y-113434761D01*
X210970714Y-113387142D01*
X210923095Y-113291904D01*
X210875476Y-113101428D01*
X210875476Y-112863333D01*
X210923095Y-112672857D01*
X210970714Y-112577619D01*
X211018333Y-112530000D01*
X211113571Y-112482380D01*
X211875476Y-113101428D02*
X212637380Y-113101428D01*
X213065952Y-112577619D02*
X213113571Y-112530000D01*
X213208809Y-112482380D01*
X213446904Y-112482380D01*
X213542142Y-112530000D01*
X213589761Y-112577619D01*
X213637380Y-112672857D01*
X213637380Y-112768095D01*
X213589761Y-112910952D01*
X213018333Y-113482380D01*
X213637380Y-113482380D01*
X208462857Y-110847142D02*
X208415238Y-110894761D01*
X208272380Y-110942380D01*
X208177142Y-110942380D01*
X208034285Y-110894761D01*
X207939047Y-110799523D01*
X207891428Y-110704285D01*
X207843809Y-110513809D01*
X207843809Y-110370952D01*
X207891428Y-110180476D01*
X207939047Y-110085238D01*
X208034285Y-109990000D01*
X208177142Y-109942380D01*
X208272380Y-109942380D01*
X208415238Y-109990000D01*
X208462857Y-110037619D01*
X209081904Y-109942380D02*
X209272380Y-109942380D01*
X209367619Y-109990000D01*
X209462857Y-110085238D01*
X209510476Y-110275714D01*
X209510476Y-110609047D01*
X209462857Y-110799523D01*
X209367619Y-110894761D01*
X209272380Y-110942380D01*
X209081904Y-110942380D01*
X208986666Y-110894761D01*
X208891428Y-110799523D01*
X208843809Y-110609047D01*
X208843809Y-110275714D01*
X208891428Y-110085238D01*
X208986666Y-109990000D01*
X209081904Y-109942380D01*
X209939047Y-110942380D02*
X209939047Y-109942380D01*
X210272380Y-110656666D01*
X210605714Y-109942380D01*
X210605714Y-110942380D01*
X211129523Y-110942380D02*
X211320000Y-110942380D01*
X211415238Y-110894761D01*
X211462857Y-110847142D01*
X211558095Y-110704285D01*
X211605714Y-110513809D01*
X211605714Y-110132857D01*
X211558095Y-110037619D01*
X211510476Y-109990000D01*
X211415238Y-109942380D01*
X211224761Y-109942380D01*
X211129523Y-109990000D01*
X211081904Y-110037619D01*
X211034285Y-110132857D01*
X211034285Y-110370952D01*
X211081904Y-110466190D01*
X211129523Y-110513809D01*
X211224761Y-110561428D01*
X211415238Y-110561428D01*
X211510476Y-110513809D01*
X211558095Y-110466190D01*
X211605714Y-110370952D01*
X212034285Y-110561428D02*
X212796190Y-110561428D01*
X213224761Y-110037619D02*
X213272380Y-109990000D01*
X213367619Y-109942380D01*
X213605714Y-109942380D01*
X213700952Y-109990000D01*
X213748571Y-110037619D01*
X213796190Y-110132857D01*
X213796190Y-110228095D01*
X213748571Y-110370952D01*
X213177142Y-110942380D01*
X213796190Y-110942380D01*
X208462857Y-108307142D02*
X208415238Y-108354761D01*
X208272380Y-108402380D01*
X208177142Y-108402380D01*
X208034285Y-108354761D01*
X207939047Y-108259523D01*
X207891428Y-108164285D01*
X207843809Y-107973809D01*
X207843809Y-107830952D01*
X207891428Y-107640476D01*
X207939047Y-107545238D01*
X208034285Y-107450000D01*
X208177142Y-107402380D01*
X208272380Y-107402380D01*
X208415238Y-107450000D01*
X208462857Y-107497619D01*
X209081904Y-107402380D02*
X209272380Y-107402380D01*
X209367619Y-107450000D01*
X209462857Y-107545238D01*
X209510476Y-107735714D01*
X209510476Y-108069047D01*
X209462857Y-108259523D01*
X209367619Y-108354761D01*
X209272380Y-108402380D01*
X209081904Y-108402380D01*
X208986666Y-108354761D01*
X208891428Y-108259523D01*
X208843809Y-108069047D01*
X208843809Y-107735714D01*
X208891428Y-107545238D01*
X208986666Y-107450000D01*
X209081904Y-107402380D01*
X209939047Y-108402380D02*
X209939047Y-107402380D01*
X210272380Y-108116666D01*
X210605714Y-107402380D01*
X210605714Y-108402380D01*
X211224761Y-107830952D02*
X211129523Y-107783333D01*
X211081904Y-107735714D01*
X211034285Y-107640476D01*
X211034285Y-107592857D01*
X211081904Y-107497619D01*
X211129523Y-107450000D01*
X211224761Y-107402380D01*
X211415238Y-107402380D01*
X211510476Y-107450000D01*
X211558095Y-107497619D01*
X211605714Y-107592857D01*
X211605714Y-107640476D01*
X211558095Y-107735714D01*
X211510476Y-107783333D01*
X211415238Y-107830952D01*
X211224761Y-107830952D01*
X211129523Y-107878571D01*
X211081904Y-107926190D01*
X211034285Y-108021428D01*
X211034285Y-108211904D01*
X211081904Y-108307142D01*
X211129523Y-108354761D01*
X211224761Y-108402380D01*
X211415238Y-108402380D01*
X211510476Y-108354761D01*
X211558095Y-108307142D01*
X211605714Y-108211904D01*
X211605714Y-108021428D01*
X211558095Y-107926190D01*
X211510476Y-107878571D01*
X211415238Y-107830952D01*
X212034285Y-108021428D02*
X212796190Y-108021428D01*
X213224761Y-107497619D02*
X213272380Y-107450000D01*
X213367619Y-107402380D01*
X213605714Y-107402380D01*
X213700952Y-107450000D01*
X213748571Y-107497619D01*
X213796190Y-107592857D01*
X213796190Y-107688095D01*
X213748571Y-107830952D01*
X213177142Y-108402380D01*
X213796190Y-108402380D01*
X212034523Y-105338571D02*
X212367857Y-105338571D01*
X212510714Y-105862380D02*
X212034523Y-105862380D01*
X212034523Y-104862380D01*
X212510714Y-104862380D01*
X212891666Y-104957619D02*
X212939285Y-104910000D01*
X213034523Y-104862380D01*
X213272619Y-104862380D01*
X213367857Y-104910000D01*
X213415476Y-104957619D01*
X213463095Y-105052857D01*
X213463095Y-105148095D01*
X213415476Y-105290952D01*
X212844047Y-105862380D01*
X213463095Y-105862380D01*
X212510714Y-102370000D02*
X212415476Y-102322380D01*
X212272619Y-102322380D01*
X212129761Y-102370000D01*
X212034523Y-102465238D01*
X211986904Y-102560476D01*
X211939285Y-102750952D01*
X211939285Y-102893809D01*
X211986904Y-103084285D01*
X212034523Y-103179523D01*
X212129761Y-103274761D01*
X212272619Y-103322380D01*
X212367857Y-103322380D01*
X212510714Y-103274761D01*
X212558333Y-103227142D01*
X212558333Y-102893809D01*
X212367857Y-102893809D01*
X212939285Y-102417619D02*
X212986904Y-102370000D01*
X213082142Y-102322380D01*
X213320238Y-102322380D01*
X213415476Y-102370000D01*
X213463095Y-102417619D01*
X213510714Y-102512857D01*
X213510714Y-102608095D01*
X213463095Y-102750952D01*
X212891666Y-103322380D01*
X213510714Y-103322380D01*
X212629761Y-100877619D02*
X212534523Y-100830000D01*
X212439285Y-100734761D01*
X212296428Y-100591904D01*
X212201190Y-100544285D01*
X212105952Y-100544285D01*
X212153571Y-100782380D02*
X212058333Y-100734761D01*
X211963095Y-100639523D01*
X211915476Y-100449047D01*
X211915476Y-100115714D01*
X211963095Y-99925238D01*
X212058333Y-99830000D01*
X212153571Y-99782380D01*
X212344047Y-99782380D01*
X212439285Y-99830000D01*
X212534523Y-99925238D01*
X212582142Y-100115714D01*
X212582142Y-100449047D01*
X212534523Y-100639523D01*
X212439285Y-100734761D01*
X212344047Y-100782380D01*
X212153571Y-100782380D01*
X212963095Y-99877619D02*
X213010714Y-99830000D01*
X213105952Y-99782380D01*
X213344047Y-99782380D01*
X213439285Y-99830000D01*
X213486904Y-99877619D01*
X213534523Y-99972857D01*
X213534523Y-100068095D01*
X213486904Y-100210952D01*
X212915476Y-100782380D01*
X213534523Y-100782380D01*
X212391666Y-97242380D02*
X212391666Y-97956666D01*
X212344047Y-98099523D01*
X212248809Y-98194761D01*
X212105952Y-98242380D01*
X212010714Y-98242380D01*
X212820238Y-97337619D02*
X212867857Y-97290000D01*
X212963095Y-97242380D01*
X213201190Y-97242380D01*
X213296428Y-97290000D01*
X213344047Y-97337619D01*
X213391666Y-97432857D01*
X213391666Y-97528095D01*
X213344047Y-97670952D01*
X212772619Y-98242380D01*
X213391666Y-98242380D01*
X208462857Y-95607142D02*
X208415238Y-95654761D01*
X208272380Y-95702380D01*
X208177142Y-95702380D01*
X208034285Y-95654761D01*
X207939047Y-95559523D01*
X207891428Y-95464285D01*
X207843809Y-95273809D01*
X207843809Y-95130952D01*
X207891428Y-94940476D01*
X207939047Y-94845238D01*
X208034285Y-94750000D01*
X208177142Y-94702380D01*
X208272380Y-94702380D01*
X208415238Y-94750000D01*
X208462857Y-94797619D01*
X209081904Y-94702380D02*
X209272380Y-94702380D01*
X209367619Y-94750000D01*
X209462857Y-94845238D01*
X209510476Y-95035714D01*
X209510476Y-95369047D01*
X209462857Y-95559523D01*
X209367619Y-95654761D01*
X209272380Y-95702380D01*
X209081904Y-95702380D01*
X208986666Y-95654761D01*
X208891428Y-95559523D01*
X208843809Y-95369047D01*
X208843809Y-95035714D01*
X208891428Y-94845238D01*
X208986666Y-94750000D01*
X209081904Y-94702380D01*
X209939047Y-95702380D02*
X209939047Y-94702380D01*
X210272380Y-95416666D01*
X210605714Y-94702380D01*
X210605714Y-95702380D01*
X210986666Y-94702380D02*
X211653333Y-94702380D01*
X211224761Y-95702380D01*
X212034285Y-95321428D02*
X212796190Y-95321428D01*
X213224761Y-94797619D02*
X213272380Y-94750000D01*
X213367619Y-94702380D01*
X213605714Y-94702380D01*
X213700952Y-94750000D01*
X213748571Y-94797619D01*
X213796190Y-94892857D01*
X213796190Y-94988095D01*
X213748571Y-95130952D01*
X213177142Y-95702380D01*
X213796190Y-95702380D01*
X208462857Y-93067142D02*
X208415238Y-93114761D01*
X208272380Y-93162380D01*
X208177142Y-93162380D01*
X208034285Y-93114761D01*
X207939047Y-93019523D01*
X207891428Y-92924285D01*
X207843809Y-92733809D01*
X207843809Y-92590952D01*
X207891428Y-92400476D01*
X207939047Y-92305238D01*
X208034285Y-92210000D01*
X208177142Y-92162380D01*
X208272380Y-92162380D01*
X208415238Y-92210000D01*
X208462857Y-92257619D01*
X209081904Y-92162380D02*
X209272380Y-92162380D01*
X209367619Y-92210000D01*
X209462857Y-92305238D01*
X209510476Y-92495714D01*
X209510476Y-92829047D01*
X209462857Y-93019523D01*
X209367619Y-93114761D01*
X209272380Y-93162380D01*
X209081904Y-93162380D01*
X208986666Y-93114761D01*
X208891428Y-93019523D01*
X208843809Y-92829047D01*
X208843809Y-92495714D01*
X208891428Y-92305238D01*
X208986666Y-92210000D01*
X209081904Y-92162380D01*
X209939047Y-93162380D02*
X209939047Y-92162380D01*
X210272380Y-92876666D01*
X210605714Y-92162380D01*
X210605714Y-93162380D01*
X211510476Y-92162380D02*
X211320000Y-92162380D01*
X211224761Y-92210000D01*
X211177142Y-92257619D01*
X211081904Y-92400476D01*
X211034285Y-92590952D01*
X211034285Y-92971904D01*
X211081904Y-93067142D01*
X211129523Y-93114761D01*
X211224761Y-93162380D01*
X211415238Y-93162380D01*
X211510476Y-93114761D01*
X211558095Y-93067142D01*
X211605714Y-92971904D01*
X211605714Y-92733809D01*
X211558095Y-92638571D01*
X211510476Y-92590952D01*
X211415238Y-92543333D01*
X211224761Y-92543333D01*
X211129523Y-92590952D01*
X211081904Y-92638571D01*
X211034285Y-92733809D01*
X212034285Y-92781428D02*
X212796190Y-92781428D01*
X213224761Y-92257619D02*
X213272380Y-92210000D01*
X213367619Y-92162380D01*
X213605714Y-92162380D01*
X213700952Y-92210000D01*
X213748571Y-92257619D01*
X213796190Y-92352857D01*
X213796190Y-92448095D01*
X213748571Y-92590952D01*
X213177142Y-93162380D01*
X213796190Y-93162380D01*
X208462857Y-90527142D02*
X208415238Y-90574761D01*
X208272380Y-90622380D01*
X208177142Y-90622380D01*
X208034285Y-90574761D01*
X207939047Y-90479523D01*
X207891428Y-90384285D01*
X207843809Y-90193809D01*
X207843809Y-90050952D01*
X207891428Y-89860476D01*
X207939047Y-89765238D01*
X208034285Y-89670000D01*
X208177142Y-89622380D01*
X208272380Y-89622380D01*
X208415238Y-89670000D01*
X208462857Y-89717619D01*
X209081904Y-89622380D02*
X209272380Y-89622380D01*
X209367619Y-89670000D01*
X209462857Y-89765238D01*
X209510476Y-89955714D01*
X209510476Y-90289047D01*
X209462857Y-90479523D01*
X209367619Y-90574761D01*
X209272380Y-90622380D01*
X209081904Y-90622380D01*
X208986666Y-90574761D01*
X208891428Y-90479523D01*
X208843809Y-90289047D01*
X208843809Y-89955714D01*
X208891428Y-89765238D01*
X208986666Y-89670000D01*
X209081904Y-89622380D01*
X209939047Y-90622380D02*
X209939047Y-89622380D01*
X210272380Y-90336666D01*
X210605714Y-89622380D01*
X210605714Y-90622380D01*
X211558095Y-89622380D02*
X211081904Y-89622380D01*
X211034285Y-90098571D01*
X211081904Y-90050952D01*
X211177142Y-90003333D01*
X211415238Y-90003333D01*
X211510476Y-90050952D01*
X211558095Y-90098571D01*
X211605714Y-90193809D01*
X211605714Y-90431904D01*
X211558095Y-90527142D01*
X211510476Y-90574761D01*
X211415238Y-90622380D01*
X211177142Y-90622380D01*
X211081904Y-90574761D01*
X211034285Y-90527142D01*
X212034285Y-90241428D02*
X212796190Y-90241428D01*
X213224761Y-89717619D02*
X213272380Y-89670000D01*
X213367619Y-89622380D01*
X213605714Y-89622380D01*
X213700952Y-89670000D01*
X213748571Y-89717619D01*
X213796190Y-89812857D01*
X213796190Y-89908095D01*
X213748571Y-90050952D01*
X213177142Y-90622380D01*
X213796190Y-90622380D01*
X208462857Y-87987142D02*
X208415238Y-88034761D01*
X208272380Y-88082380D01*
X208177142Y-88082380D01*
X208034285Y-88034761D01*
X207939047Y-87939523D01*
X207891428Y-87844285D01*
X207843809Y-87653809D01*
X207843809Y-87510952D01*
X207891428Y-87320476D01*
X207939047Y-87225238D01*
X208034285Y-87130000D01*
X208177142Y-87082380D01*
X208272380Y-87082380D01*
X208415238Y-87130000D01*
X208462857Y-87177619D01*
X209081904Y-87082380D02*
X209272380Y-87082380D01*
X209367619Y-87130000D01*
X209462857Y-87225238D01*
X209510476Y-87415714D01*
X209510476Y-87749047D01*
X209462857Y-87939523D01*
X209367619Y-88034761D01*
X209272380Y-88082380D01*
X209081904Y-88082380D01*
X208986666Y-88034761D01*
X208891428Y-87939523D01*
X208843809Y-87749047D01*
X208843809Y-87415714D01*
X208891428Y-87225238D01*
X208986666Y-87130000D01*
X209081904Y-87082380D01*
X209939047Y-88082380D02*
X209939047Y-87082380D01*
X210272380Y-87796666D01*
X210605714Y-87082380D01*
X210605714Y-88082380D01*
X211510476Y-87415714D02*
X211510476Y-88082380D01*
X211272380Y-87034761D02*
X211034285Y-87749047D01*
X211653333Y-87749047D01*
X212034285Y-87701428D02*
X212796190Y-87701428D01*
X213224761Y-87177619D02*
X213272380Y-87130000D01*
X213367619Y-87082380D01*
X213605714Y-87082380D01*
X213700952Y-87130000D01*
X213748571Y-87177619D01*
X213796190Y-87272857D01*
X213796190Y-87368095D01*
X213748571Y-87510952D01*
X213177142Y-88082380D01*
X213796190Y-88082380D01*
X211986904Y-85542380D02*
X211986904Y-84542380D01*
X212558333Y-85542380D02*
X212129761Y-84970952D01*
X212558333Y-84542380D02*
X211986904Y-85113809D01*
X212939285Y-84637619D02*
X212986904Y-84590000D01*
X213082142Y-84542380D01*
X213320238Y-84542380D01*
X213415476Y-84590000D01*
X213463095Y-84637619D01*
X213510714Y-84732857D01*
X213510714Y-84828095D01*
X213463095Y-84970952D01*
X212891666Y-85542380D01*
X213510714Y-85542380D01*
X212391666Y-82478571D02*
X212058333Y-82478571D01*
X212058333Y-83002380D02*
X212058333Y-82002380D01*
X212534523Y-82002380D01*
X212867857Y-82097619D02*
X212915476Y-82050000D01*
X213010714Y-82002380D01*
X213248809Y-82002380D01*
X213344047Y-82050000D01*
X213391666Y-82097619D01*
X213439285Y-82192857D01*
X213439285Y-82288095D01*
X213391666Y-82430952D01*
X212820238Y-83002380D01*
X213439285Y-83002380D01*
X211915476Y-80462380D02*
X211915476Y-79462380D01*
X212248809Y-80176666D01*
X212582142Y-79462380D01*
X212582142Y-80462380D01*
X213010714Y-79557619D02*
X213058333Y-79510000D01*
X213153571Y-79462380D01*
X213391666Y-79462380D01*
X213486904Y-79510000D01*
X213534523Y-79557619D01*
X213582142Y-79652857D01*
X213582142Y-79748095D01*
X213534523Y-79890952D01*
X212963095Y-80462380D01*
X213582142Y-80462380D01*
X211963095Y-77922380D02*
X211963095Y-76922380D01*
X212534523Y-77922380D01*
X212534523Y-76922380D01*
X212963095Y-77017619D02*
X213010714Y-76970000D01*
X213105952Y-76922380D01*
X213344047Y-76922380D01*
X213439285Y-76970000D01*
X213486904Y-77017619D01*
X213534523Y-77112857D01*
X213534523Y-77208095D01*
X213486904Y-77350952D01*
X212915476Y-77922380D01*
X213534523Y-77922380D01*
X211986904Y-75382380D02*
X211986904Y-74382380D01*
X212367857Y-74382380D01*
X212463095Y-74430000D01*
X212510714Y-74477619D01*
X212558333Y-74572857D01*
X212558333Y-74715714D01*
X212510714Y-74810952D01*
X212463095Y-74858571D01*
X212367857Y-74906190D01*
X211986904Y-74906190D01*
X212939285Y-74477619D02*
X212986904Y-74430000D01*
X213082142Y-74382380D01*
X213320238Y-74382380D01*
X213415476Y-74430000D01*
X213463095Y-74477619D01*
X213510714Y-74572857D01*
X213510714Y-74668095D01*
X213463095Y-74810952D01*
X212891666Y-75382380D01*
X213510714Y-75382380D01*
X211963095Y-72842380D02*
X211963095Y-71842380D01*
X211963095Y-72318571D02*
X212534523Y-72318571D01*
X212534523Y-72842380D02*
X212534523Y-71842380D01*
X212963095Y-71937619D02*
X213010714Y-71890000D01*
X213105952Y-71842380D01*
X213344047Y-71842380D01*
X213439285Y-71890000D01*
X213486904Y-71937619D01*
X213534523Y-72032857D01*
X213534523Y-72128095D01*
X213486904Y-72270952D01*
X212915476Y-72842380D01*
X213534523Y-72842380D01*
X210851904Y-70302380D02*
X210851904Y-69302380D01*
X211090000Y-69302380D01*
X211232857Y-69350000D01*
X211328095Y-69445238D01*
X211375714Y-69540476D01*
X211423333Y-69730952D01*
X211423333Y-69873809D01*
X211375714Y-70064285D01*
X211328095Y-70159523D01*
X211232857Y-70254761D01*
X211090000Y-70302380D01*
X210851904Y-70302380D01*
X211851904Y-70302380D02*
X211851904Y-69302380D01*
X212232857Y-69302380D01*
X212328095Y-69350000D01*
X212375714Y-69397619D01*
X212423333Y-69492857D01*
X212423333Y-69635714D01*
X212375714Y-69730952D01*
X212328095Y-69778571D01*
X212232857Y-69826190D01*
X211851904Y-69826190D01*
X212804285Y-69397619D02*
X212851904Y-69350000D01*
X212947142Y-69302380D01*
X213185238Y-69302380D01*
X213280476Y-69350000D01*
X213328095Y-69397619D01*
X213375714Y-69492857D01*
X213375714Y-69588095D01*
X213328095Y-69730952D01*
X212756666Y-70302380D01*
X213375714Y-70302380D01*
X210447142Y-67762380D02*
X210447142Y-66762380D01*
X210685238Y-66762380D01*
X210828095Y-66810000D01*
X210923333Y-66905238D01*
X210970952Y-67000476D01*
X211018571Y-67190952D01*
X211018571Y-67333809D01*
X210970952Y-67524285D01*
X210923333Y-67619523D01*
X210828095Y-67714761D01*
X210685238Y-67762380D01*
X210447142Y-67762380D01*
X211637619Y-66762380D02*
X211828095Y-66762380D01*
X211923333Y-66810000D01*
X212018571Y-66905238D01*
X212066190Y-67095714D01*
X212066190Y-67429047D01*
X212018571Y-67619523D01*
X211923333Y-67714761D01*
X211828095Y-67762380D01*
X211637619Y-67762380D01*
X211542380Y-67714761D01*
X211447142Y-67619523D01*
X211399523Y-67429047D01*
X211399523Y-67095714D01*
X211447142Y-66905238D01*
X211542380Y-66810000D01*
X211637619Y-66762380D01*
X212351904Y-66762380D02*
X212923333Y-66762380D01*
X212637619Y-67762380D02*
X212637619Y-66762380D01*
X213209047Y-66857619D02*
X213256666Y-66810000D01*
X213351904Y-66762380D01*
X213590000Y-66762380D01*
X213685238Y-66810000D01*
X213732857Y-66857619D01*
X213780476Y-66952857D01*
X213780476Y-67048095D01*
X213732857Y-67190952D01*
X213161428Y-67762380D01*
X213780476Y-67762380D01*
X208462857Y-65127142D02*
X208415238Y-65174761D01*
X208272380Y-65222380D01*
X208177142Y-65222380D01*
X208034285Y-65174761D01*
X207939047Y-65079523D01*
X207891428Y-64984285D01*
X207843809Y-64793809D01*
X207843809Y-64650952D01*
X207891428Y-64460476D01*
X207939047Y-64365238D01*
X208034285Y-64270000D01*
X208177142Y-64222380D01*
X208272380Y-64222380D01*
X208415238Y-64270000D01*
X208462857Y-64317619D01*
X209081904Y-64222380D02*
X209272380Y-64222380D01*
X209367619Y-64270000D01*
X209462857Y-64365238D01*
X209510476Y-64555714D01*
X209510476Y-64889047D01*
X209462857Y-65079523D01*
X209367619Y-65174761D01*
X209272380Y-65222380D01*
X209081904Y-65222380D01*
X208986666Y-65174761D01*
X208891428Y-65079523D01*
X208843809Y-64889047D01*
X208843809Y-64555714D01*
X208891428Y-64365238D01*
X208986666Y-64270000D01*
X209081904Y-64222380D01*
X209939047Y-65222380D02*
X209939047Y-64222380D01*
X210272380Y-64936666D01*
X210605714Y-64222380D01*
X210605714Y-65222380D01*
X210986666Y-64222380D02*
X211605714Y-64222380D01*
X211272380Y-64603333D01*
X211415238Y-64603333D01*
X211510476Y-64650952D01*
X211558095Y-64698571D01*
X211605714Y-64793809D01*
X211605714Y-65031904D01*
X211558095Y-65127142D01*
X211510476Y-65174761D01*
X211415238Y-65222380D01*
X211129523Y-65222380D01*
X211034285Y-65174761D01*
X210986666Y-65127142D01*
X212034285Y-64841428D02*
X212796190Y-64841428D01*
X213224761Y-64317619D02*
X213272380Y-64270000D01*
X213367619Y-64222380D01*
X213605714Y-64222380D01*
X213700952Y-64270000D01*
X213748571Y-64317619D01*
X213796190Y-64412857D01*
X213796190Y-64508095D01*
X213748571Y-64650952D01*
X213177142Y-65222380D01*
X213796190Y-65222380D01*
X208462857Y-62587142D02*
X208415238Y-62634761D01*
X208272380Y-62682380D01*
X208177142Y-62682380D01*
X208034285Y-62634761D01*
X207939047Y-62539523D01*
X207891428Y-62444285D01*
X207843809Y-62253809D01*
X207843809Y-62110952D01*
X207891428Y-61920476D01*
X207939047Y-61825238D01*
X208034285Y-61730000D01*
X208177142Y-61682380D01*
X208272380Y-61682380D01*
X208415238Y-61730000D01*
X208462857Y-61777619D01*
X209081904Y-61682380D02*
X209272380Y-61682380D01*
X209367619Y-61730000D01*
X209462857Y-61825238D01*
X209510476Y-62015714D01*
X209510476Y-62349047D01*
X209462857Y-62539523D01*
X209367619Y-62634761D01*
X209272380Y-62682380D01*
X209081904Y-62682380D01*
X208986666Y-62634761D01*
X208891428Y-62539523D01*
X208843809Y-62349047D01*
X208843809Y-62015714D01*
X208891428Y-61825238D01*
X208986666Y-61730000D01*
X209081904Y-61682380D01*
X209939047Y-62682380D02*
X209939047Y-61682380D01*
X210272380Y-62396666D01*
X210605714Y-61682380D01*
X210605714Y-62682380D01*
X211034285Y-61777619D02*
X211081904Y-61730000D01*
X211177142Y-61682380D01*
X211415238Y-61682380D01*
X211510476Y-61730000D01*
X211558095Y-61777619D01*
X211605714Y-61872857D01*
X211605714Y-61968095D01*
X211558095Y-62110952D01*
X210986666Y-62682380D01*
X211605714Y-62682380D01*
X212034285Y-62301428D02*
X212796190Y-62301428D01*
X213224761Y-61777619D02*
X213272380Y-61730000D01*
X213367619Y-61682380D01*
X213605714Y-61682380D01*
X213700952Y-61730000D01*
X213748571Y-61777619D01*
X213796190Y-61872857D01*
X213796190Y-61968095D01*
X213748571Y-62110952D01*
X213177142Y-62682380D01*
X213796190Y-62682380D01*
X208462857Y-60047142D02*
X208415238Y-60094761D01*
X208272380Y-60142380D01*
X208177142Y-60142380D01*
X208034285Y-60094761D01*
X207939047Y-59999523D01*
X207891428Y-59904285D01*
X207843809Y-59713809D01*
X207843809Y-59570952D01*
X207891428Y-59380476D01*
X207939047Y-59285238D01*
X208034285Y-59190000D01*
X208177142Y-59142380D01*
X208272380Y-59142380D01*
X208415238Y-59190000D01*
X208462857Y-59237619D01*
X209081904Y-59142380D02*
X209272380Y-59142380D01*
X209367619Y-59190000D01*
X209462857Y-59285238D01*
X209510476Y-59475714D01*
X209510476Y-59809047D01*
X209462857Y-59999523D01*
X209367619Y-60094761D01*
X209272380Y-60142380D01*
X209081904Y-60142380D01*
X208986666Y-60094761D01*
X208891428Y-59999523D01*
X208843809Y-59809047D01*
X208843809Y-59475714D01*
X208891428Y-59285238D01*
X208986666Y-59190000D01*
X209081904Y-59142380D01*
X209939047Y-60142380D02*
X209939047Y-59142380D01*
X210272380Y-59856666D01*
X210605714Y-59142380D01*
X210605714Y-60142380D01*
X211605714Y-60142380D02*
X211034285Y-60142380D01*
X211320000Y-60142380D02*
X211320000Y-59142380D01*
X211224761Y-59285238D01*
X211129523Y-59380476D01*
X211034285Y-59428095D01*
X212034285Y-59761428D02*
X212796190Y-59761428D01*
X213224761Y-59237619D02*
X213272380Y-59190000D01*
X213367619Y-59142380D01*
X213605714Y-59142380D01*
X213700952Y-59190000D01*
X213748571Y-59237619D01*
X213796190Y-59332857D01*
X213796190Y-59428095D01*
X213748571Y-59570952D01*
X213177142Y-60142380D01*
X213796190Y-60142380D01*
X208462857Y-57507142D02*
X208415238Y-57554761D01*
X208272380Y-57602380D01*
X208177142Y-57602380D01*
X208034285Y-57554761D01*
X207939047Y-57459523D01*
X207891428Y-57364285D01*
X207843809Y-57173809D01*
X207843809Y-57030952D01*
X207891428Y-56840476D01*
X207939047Y-56745238D01*
X208034285Y-56650000D01*
X208177142Y-56602380D01*
X208272380Y-56602380D01*
X208415238Y-56650000D01*
X208462857Y-56697619D01*
X209081904Y-56602380D02*
X209272380Y-56602380D01*
X209367619Y-56650000D01*
X209462857Y-56745238D01*
X209510476Y-56935714D01*
X209510476Y-57269047D01*
X209462857Y-57459523D01*
X209367619Y-57554761D01*
X209272380Y-57602380D01*
X209081904Y-57602380D01*
X208986666Y-57554761D01*
X208891428Y-57459523D01*
X208843809Y-57269047D01*
X208843809Y-56935714D01*
X208891428Y-56745238D01*
X208986666Y-56650000D01*
X209081904Y-56602380D01*
X209939047Y-57602380D02*
X209939047Y-56602380D01*
X210272380Y-57316666D01*
X210605714Y-56602380D01*
X210605714Y-57602380D01*
X211272380Y-56602380D02*
X211367619Y-56602380D01*
X211462857Y-56650000D01*
X211510476Y-56697619D01*
X211558095Y-56792857D01*
X211605714Y-56983333D01*
X211605714Y-57221428D01*
X211558095Y-57411904D01*
X211510476Y-57507142D01*
X211462857Y-57554761D01*
X211367619Y-57602380D01*
X211272380Y-57602380D01*
X211177142Y-57554761D01*
X211129523Y-57507142D01*
X211081904Y-57411904D01*
X211034285Y-57221428D01*
X211034285Y-56983333D01*
X211081904Y-56792857D01*
X211129523Y-56697619D01*
X211177142Y-56650000D01*
X211272380Y-56602380D01*
X212034285Y-57221428D02*
X212796190Y-57221428D01*
X213224761Y-56697619D02*
X213272380Y-56650000D01*
X213367619Y-56602380D01*
X213605714Y-56602380D01*
X213700952Y-56650000D01*
X213748571Y-56697619D01*
X213796190Y-56792857D01*
X213796190Y-56888095D01*
X213748571Y-57030952D01*
X213177142Y-57602380D01*
X213796190Y-57602380D01*
X153456666Y-150582380D02*
X154028095Y-150582380D01*
X153742380Y-151582380D02*
X153742380Y-150582380D01*
X154313809Y-151296666D02*
X154790000Y-151296666D01*
X154218571Y-151582380D02*
X154551904Y-150582380D01*
X154885238Y-151582380D01*
X155790000Y-151487142D02*
X155742380Y-151534761D01*
X155599523Y-151582380D01*
X155504285Y-151582380D01*
X155361428Y-151534761D01*
X155266190Y-151439523D01*
X155218571Y-151344285D01*
X155170952Y-151153809D01*
X155170952Y-151010952D01*
X155218571Y-150820476D01*
X155266190Y-150725238D01*
X155361428Y-150630000D01*
X155504285Y-150582380D01*
X155599523Y-150582380D01*
X155742380Y-150630000D01*
X155790000Y-150677619D01*
X156980476Y-150582380D02*
X156980476Y-151391904D01*
X157028095Y-151487142D01*
X157075714Y-151534761D01*
X157170952Y-151582380D01*
X157361428Y-151582380D01*
X157456666Y-151534761D01*
X157504285Y-151487142D01*
X157551904Y-151391904D01*
X157551904Y-150582380D01*
X158361428Y-151058571D02*
X158028095Y-151058571D01*
X158028095Y-151582380D02*
X158028095Y-150582380D01*
X158504285Y-150582380D01*
X159456666Y-151487142D02*
X159409047Y-151534761D01*
X159266190Y-151582380D01*
X159170952Y-151582380D01*
X159028095Y-151534761D01*
X158932857Y-151439523D01*
X158885238Y-151344285D01*
X158837619Y-151153809D01*
X158837619Y-151010952D01*
X158885238Y-150820476D01*
X158932857Y-150725238D01*
X159028095Y-150630000D01*
X159170952Y-150582380D01*
X159266190Y-150582380D01*
X159409047Y-150630000D01*
X159456666Y-150677619D01*
X160980476Y-151058571D02*
X160647142Y-151058571D01*
X160647142Y-151582380D02*
X160647142Y-150582380D01*
X161123333Y-150582380D01*
X161504285Y-151582380D02*
X161504285Y-150915714D01*
X161504285Y-151106190D02*
X161551904Y-151010952D01*
X161599523Y-150963333D01*
X161694761Y-150915714D01*
X161790000Y-150915714D01*
X162266190Y-151582380D02*
X162170952Y-151534761D01*
X162123333Y-151487142D01*
X162075714Y-151391904D01*
X162075714Y-151106190D01*
X162123333Y-151010952D01*
X162170952Y-150963333D01*
X162266190Y-150915714D01*
X162409047Y-150915714D01*
X162504285Y-150963333D01*
X162551904Y-151010952D01*
X162599523Y-151106190D01*
X162599523Y-151391904D01*
X162551904Y-151487142D01*
X162504285Y-151534761D01*
X162409047Y-151582380D01*
X162266190Y-151582380D01*
X163028095Y-150915714D02*
X163028095Y-151582380D01*
X163028095Y-151010952D02*
X163075714Y-150963333D01*
X163170952Y-150915714D01*
X163313809Y-150915714D01*
X163409047Y-150963333D01*
X163456666Y-151058571D01*
X163456666Y-151582380D01*
X163790000Y-150915714D02*
X164170952Y-150915714D01*
X163932857Y-150582380D02*
X163932857Y-151439523D01*
X163980476Y-151534761D01*
X164075714Y-151582380D01*
X164170952Y-151582380D01*
X165266190Y-151582380D02*
X165266190Y-150582380D01*
X165647142Y-150582380D01*
X165742380Y-150630000D01*
X165790000Y-150677619D01*
X165837619Y-150772857D01*
X165837619Y-150915714D01*
X165790000Y-151010952D01*
X165742380Y-151058571D01*
X165647142Y-151106190D01*
X165266190Y-151106190D01*
X166694761Y-151582380D02*
X166694761Y-151058571D01*
X166647142Y-150963333D01*
X166551904Y-150915714D01*
X166361428Y-150915714D01*
X166266190Y-150963333D01*
X166694761Y-151534761D02*
X166599523Y-151582380D01*
X166361428Y-151582380D01*
X166266190Y-151534761D01*
X166218571Y-151439523D01*
X166218571Y-151344285D01*
X166266190Y-151249047D01*
X166361428Y-151201428D01*
X166599523Y-151201428D01*
X166694761Y-151153809D01*
X167170952Y-150915714D02*
X167170952Y-151582380D01*
X167170952Y-151010952D02*
X167218571Y-150963333D01*
X167313809Y-150915714D01*
X167456666Y-150915714D01*
X167551904Y-150963333D01*
X167599523Y-151058571D01*
X167599523Y-151582380D01*
X168456666Y-151534761D02*
X168361428Y-151582380D01*
X168170952Y-151582380D01*
X168075714Y-151534761D01*
X168028095Y-151439523D01*
X168028095Y-151058571D01*
X168075714Y-150963333D01*
X168170952Y-150915714D01*
X168361428Y-150915714D01*
X168456666Y-150963333D01*
X168504285Y-151058571D01*
X168504285Y-151153809D01*
X168028095Y-151249047D01*
X169075714Y-151582380D02*
X168980476Y-151534761D01*
X168932857Y-151439523D01*
X168932857Y-150582380D01*
X105418571Y-74112380D02*
X105418571Y-73112380D01*
X105990000Y-74112380D02*
X105561428Y-73540952D01*
X105990000Y-73112380D02*
X105418571Y-73683809D01*
X106799523Y-74064761D02*
X106704285Y-74112380D01*
X106513809Y-74112380D01*
X106418571Y-74064761D01*
X106370952Y-73969523D01*
X106370952Y-73588571D01*
X106418571Y-73493333D01*
X106513809Y-73445714D01*
X106704285Y-73445714D01*
X106799523Y-73493333D01*
X106847142Y-73588571D01*
X106847142Y-73683809D01*
X106370952Y-73779047D01*
X107180476Y-73445714D02*
X107418571Y-74112380D01*
X107656666Y-73445714D02*
X107418571Y-74112380D01*
X107323333Y-74350476D01*
X107275714Y-74398095D01*
X107180476Y-74445714D01*
X108037619Y-73445714D02*
X108037619Y-74445714D01*
X108037619Y-73493333D02*
X108132857Y-73445714D01*
X108323333Y-73445714D01*
X108418571Y-73493333D01*
X108466190Y-73540952D01*
X108513809Y-73636190D01*
X108513809Y-73921904D01*
X108466190Y-74017142D01*
X108418571Y-74064761D01*
X108323333Y-74112380D01*
X108132857Y-74112380D01*
X108037619Y-74064761D01*
X109370952Y-74112380D02*
X109370952Y-73588571D01*
X109323333Y-73493333D01*
X109228095Y-73445714D01*
X109037619Y-73445714D01*
X108942380Y-73493333D01*
X109370952Y-74064761D02*
X109275714Y-74112380D01*
X109037619Y-74112380D01*
X108942380Y-74064761D01*
X108894761Y-73969523D01*
X108894761Y-73874285D01*
X108942380Y-73779047D01*
X109037619Y-73731428D01*
X109275714Y-73731428D01*
X109370952Y-73683809D01*
X110275714Y-74112380D02*
X110275714Y-73112380D01*
X110275714Y-74064761D02*
X110180476Y-74112380D01*
X109990000Y-74112380D01*
X109894761Y-74064761D01*
X109847142Y-74017142D01*
X109799523Y-73921904D01*
X109799523Y-73636190D01*
X109847142Y-73540952D01*
X109894761Y-73493333D01*
X109990000Y-73445714D01*
X110180476Y-73445714D01*
X110275714Y-73493333D01*
X111513809Y-74112380D02*
X111513809Y-73112380D01*
X111847142Y-73826666D01*
X112180476Y-73112380D01*
X112180476Y-74112380D01*
X113085238Y-74112380D02*
X113085238Y-73588571D01*
X113037619Y-73493333D01*
X112942380Y-73445714D01*
X112751904Y-73445714D01*
X112656666Y-73493333D01*
X113085238Y-74064761D02*
X112990000Y-74112380D01*
X112751904Y-74112380D01*
X112656666Y-74064761D01*
X112609047Y-73969523D01*
X112609047Y-73874285D01*
X112656666Y-73779047D01*
X112751904Y-73731428D01*
X112990000Y-73731428D01*
X113085238Y-73683809D01*
X113418571Y-73445714D02*
X113799523Y-73445714D01*
X113561428Y-73112380D02*
X113561428Y-73969523D01*
X113609047Y-74064761D01*
X113704285Y-74112380D01*
X113799523Y-74112380D01*
X114132857Y-74112380D02*
X114132857Y-73445714D01*
X114132857Y-73636190D02*
X114180476Y-73540952D01*
X114228095Y-73493333D01*
X114323333Y-73445714D01*
X114418571Y-73445714D01*
X114751904Y-74112380D02*
X114751904Y-73445714D01*
X114751904Y-73112380D02*
X114704285Y-73160000D01*
X114751904Y-73207619D01*
X114799523Y-73160000D01*
X114751904Y-73112380D01*
X114751904Y-73207619D01*
X115132857Y-74112380D02*
X115656666Y-73445714D01*
X115132857Y-73445714D02*
X115656666Y-74112380D01*
D11*
%TO.C,J9*%
X179705000Y-49470000D02*
X179705000Y-52130000D01*
X179705000Y-49470000D02*
X105985000Y-49470000D01*
X105985000Y-49470000D02*
X105985000Y-52130000D01*
X179705000Y-52130000D02*
X105985000Y-52130000D01*
X182305000Y-52130000D02*
X180975000Y-52130000D01*
X182305000Y-50800000D02*
X182305000Y-52130000D01*
%TO.C,DS2*%
X163830000Y-71440000D02*
X163830000Y-55560000D01*
X206760000Y-55560000D02*
X206760000Y-71440000D01*
X163830000Y-55560000D02*
X206760000Y-55560000D01*
X206760000Y-71440000D02*
X163830000Y-71440000D01*
%TO.C,J7*%
X215900000Y-55820000D02*
X217230000Y-55820000D01*
X217230000Y-55820000D02*
X217230000Y-57150000D01*
X217230000Y-58420000D02*
X217230000Y-139760000D01*
X214570000Y-139760000D02*
X217230000Y-139760000D01*
X214570000Y-58420000D02*
X214570000Y-139760000D01*
X214570000Y-58420000D02*
X217230000Y-58420000D01*
%TO.C,J5*%
X74930000Y-96460000D02*
X76260000Y-96460000D01*
X76260000Y-96460000D02*
X76260000Y-97790000D01*
X76260000Y-99060000D02*
X76260000Y-119440000D01*
X73600000Y-119440000D02*
X76260000Y-119440000D01*
X73600000Y-99060000D02*
X73600000Y-119440000D01*
X73600000Y-99060000D02*
X76260000Y-99060000D01*
%TO.C,J3*%
X74930000Y-83760000D02*
X76260000Y-83760000D01*
X76260000Y-83760000D02*
X76260000Y-85090000D01*
X76260000Y-86360000D02*
X76260000Y-91500000D01*
X73600000Y-91500000D02*
X76260000Y-91500000D01*
X73600000Y-86360000D02*
X73600000Y-91500000D01*
X73600000Y-86360000D02*
X76260000Y-86360000D01*
%TO.C,DS5*%
X163830000Y-128590000D02*
X163830000Y-112710000D01*
X206760000Y-112710000D02*
X206760000Y-128590000D01*
X163830000Y-112710000D02*
X206760000Y-112710000D01*
X206760000Y-128590000D02*
X163830000Y-128590000D01*
%TO.C,DS4*%
X163830000Y-109540000D02*
X163830000Y-93660000D01*
X206760000Y-93660000D02*
X206760000Y-109540000D01*
X163830000Y-93660000D02*
X206760000Y-93660000D01*
X206760000Y-109540000D02*
X163830000Y-109540000D01*
%TO.C,DS3*%
X163830000Y-90490000D02*
X163830000Y-74610000D01*
X206760000Y-74610000D02*
X206760000Y-90490000D01*
X163830000Y-74610000D02*
X206760000Y-74610000D01*
X206760000Y-90490000D02*
X163830000Y-90490000D01*
%TO.C,DS1*%
X81280000Y-55372000D02*
X139190000Y-55372000D01*
X81280000Y-55372000D02*
X81280000Y-72132000D01*
X81280000Y-72132000D02*
X139190000Y-72132000D01*
X139190000Y-72132000D02*
X139190000Y-55372000D01*
%TO.C,DS6*%
X163830000Y-147640000D02*
X163830000Y-131760000D01*
X206760000Y-131760000D02*
X206760000Y-147640000D01*
X163830000Y-131760000D02*
X206760000Y-131760000D01*
X206760000Y-147640000D02*
X163830000Y-147640000D01*
%TO.C,D34*%
X151400000Y-145740000D02*
X154260000Y-145740000D01*
X154260000Y-145740000D02*
X154260000Y-143820000D01*
X154260000Y-143820000D02*
X151400000Y-143820000D01*
%TO.C,D33*%
X151400000Y-126690000D02*
X154260000Y-126690000D01*
X154260000Y-126690000D02*
X154260000Y-124770000D01*
X154260000Y-124770000D02*
X151400000Y-124770000D01*
%TO.C,D32*%
X151400000Y-107640000D02*
X154260000Y-107640000D01*
X154260000Y-107640000D02*
X154260000Y-105720000D01*
X154260000Y-105720000D02*
X151400000Y-105720000D01*
%TO.C,D31*%
X151400000Y-88590000D02*
X154260000Y-88590000D01*
X154260000Y-88590000D02*
X154260000Y-86670000D01*
X154260000Y-86670000D02*
X151400000Y-86670000D01*
%TO.C,D30*%
X151400000Y-69540000D02*
X154260000Y-69540000D01*
X154260000Y-69540000D02*
X154260000Y-67620000D01*
X154260000Y-67620000D02*
X151400000Y-67620000D01*
%TO.C,D29*%
X128540000Y-145740000D02*
X131400000Y-145740000D01*
X131400000Y-145740000D02*
X131400000Y-143820000D01*
X131400000Y-143820000D02*
X128540000Y-143820000D01*
%TO.C,D28*%
X109490000Y-145740000D02*
X112350000Y-145740000D01*
X112350000Y-145740000D02*
X112350000Y-143820000D01*
X112350000Y-143820000D02*
X109490000Y-143820000D01*
%TO.C,D27*%
X90440000Y-145740000D02*
X93300000Y-145740000D01*
X93300000Y-145740000D02*
X93300000Y-143820000D01*
X93300000Y-143820000D02*
X90440000Y-143820000D01*
%TO.C,D26*%
X128540000Y-126690000D02*
X131400000Y-126690000D01*
X131400000Y-126690000D02*
X131400000Y-124770000D01*
X131400000Y-124770000D02*
X128540000Y-124770000D01*
%TO.C,D25*%
X109490000Y-126690000D02*
X112350000Y-126690000D01*
X112350000Y-126690000D02*
X112350000Y-124770000D01*
X112350000Y-124770000D02*
X109490000Y-124770000D01*
%TO.C,D24*%
X90440000Y-126690000D02*
X93300000Y-126690000D01*
X93300000Y-126690000D02*
X93300000Y-124770000D01*
X93300000Y-124770000D02*
X90440000Y-124770000D01*
%TO.C,D23*%
X128540000Y-107640000D02*
X131400000Y-107640000D01*
X131400000Y-107640000D02*
X131400000Y-105720000D01*
X131400000Y-105720000D02*
X128540000Y-105720000D01*
%TO.C,D22*%
X109490000Y-107640000D02*
X112350000Y-107640000D01*
X112350000Y-107640000D02*
X112350000Y-105720000D01*
X112350000Y-105720000D02*
X109490000Y-105720000D01*
%TO.C,D21*%
X90440000Y-107640000D02*
X93300000Y-107640000D01*
X93300000Y-107640000D02*
X93300000Y-105720000D01*
X93300000Y-105720000D02*
X90440000Y-105720000D01*
%TO.C,D20*%
X128540000Y-88590000D02*
X131400000Y-88590000D01*
X131400000Y-88590000D02*
X131400000Y-86670000D01*
X131400000Y-86670000D02*
X128540000Y-86670000D01*
%TO.C,D19*%
X109490000Y-88590000D02*
X112350000Y-88590000D01*
X112350000Y-88590000D02*
X112350000Y-86670000D01*
X112350000Y-86670000D02*
X109490000Y-86670000D01*
%TO.C,D18*%
X90440000Y-88590000D02*
X93300000Y-88590000D01*
X93300000Y-88590000D02*
X93300000Y-86670000D01*
X93300000Y-86670000D02*
X90440000Y-86670000D01*
%TO.C,SW1*%
X98425000Y-88138000D02*
X98425000Y-88265000D01*
X91440000Y-75565000D02*
X98425000Y-75565000D01*
X91440000Y-75565000D02*
X84455000Y-75565000D01*
X98425000Y-88138000D02*
X98425000Y-75565000D01*
X84455000Y-75565000D02*
X84455000Y-80391000D01*
X91440000Y-89535000D02*
X98425000Y-89535000D01*
X91440000Y-89535000D02*
X84455000Y-89535000D01*
X98425000Y-89535000D02*
X98425000Y-88392000D01*
X98425000Y-88392000D02*
X98425000Y-88265000D01*
X84455000Y-80391000D02*
X84455000Y-89535000D01*
%TO.C,SW2*%
X117475000Y-88138000D02*
X117475000Y-88265000D01*
X110490000Y-75565000D02*
X117475000Y-75565000D01*
X110490000Y-75565000D02*
X103505000Y-75565000D01*
X117475000Y-88138000D02*
X117475000Y-75565000D01*
X103505000Y-75565000D02*
X103505000Y-80391000D01*
X110490000Y-89535000D02*
X117475000Y-89535000D01*
X110490000Y-89535000D02*
X103505000Y-89535000D01*
X117475000Y-89535000D02*
X117475000Y-88392000D01*
X117475000Y-88392000D02*
X117475000Y-88265000D01*
X103505000Y-80391000D02*
X103505000Y-89535000D01*
%TO.C,SW3*%
X136525000Y-88138000D02*
X136525000Y-88265000D01*
X129540000Y-75565000D02*
X136525000Y-75565000D01*
X129540000Y-75565000D02*
X122555000Y-75565000D01*
X136525000Y-88138000D02*
X136525000Y-75565000D01*
X122555000Y-75565000D02*
X122555000Y-80391000D01*
X129540000Y-89535000D02*
X136525000Y-89535000D01*
X129540000Y-89535000D02*
X122555000Y-89535000D01*
X136525000Y-89535000D02*
X136525000Y-88392000D01*
X136525000Y-88392000D02*
X136525000Y-88265000D01*
X122555000Y-80391000D02*
X122555000Y-89535000D01*
%TO.C,SW4*%
X98425000Y-107188000D02*
X98425000Y-107315000D01*
X91440000Y-94615000D02*
X98425000Y-94615000D01*
X91440000Y-94615000D02*
X84455000Y-94615000D01*
X98425000Y-107188000D02*
X98425000Y-94615000D01*
X84455000Y-94615000D02*
X84455000Y-99441000D01*
X91440000Y-108585000D02*
X98425000Y-108585000D01*
X91440000Y-108585000D02*
X84455000Y-108585000D01*
X98425000Y-108585000D02*
X98425000Y-107442000D01*
X98425000Y-107442000D02*
X98425000Y-107315000D01*
X84455000Y-99441000D02*
X84455000Y-108585000D01*
%TO.C,SW5*%
X117475000Y-107188000D02*
X117475000Y-107315000D01*
X110490000Y-94615000D02*
X117475000Y-94615000D01*
X110490000Y-94615000D02*
X103505000Y-94615000D01*
X117475000Y-107188000D02*
X117475000Y-94615000D01*
X103505000Y-94615000D02*
X103505000Y-99441000D01*
X110490000Y-108585000D02*
X117475000Y-108585000D01*
X110490000Y-108585000D02*
X103505000Y-108585000D01*
X117475000Y-108585000D02*
X117475000Y-107442000D01*
X117475000Y-107442000D02*
X117475000Y-107315000D01*
X103505000Y-99441000D02*
X103505000Y-108585000D01*
%TO.C,SW6*%
X136525000Y-107188000D02*
X136525000Y-107315000D01*
X129540000Y-94615000D02*
X136525000Y-94615000D01*
X129540000Y-94615000D02*
X122555000Y-94615000D01*
X136525000Y-107188000D02*
X136525000Y-94615000D01*
X122555000Y-94615000D02*
X122555000Y-99441000D01*
X129540000Y-108585000D02*
X136525000Y-108585000D01*
X129540000Y-108585000D02*
X122555000Y-108585000D01*
X136525000Y-108585000D02*
X136525000Y-107442000D01*
X136525000Y-107442000D02*
X136525000Y-107315000D01*
X122555000Y-99441000D02*
X122555000Y-108585000D01*
%TO.C,SW7*%
X98425000Y-126238000D02*
X98425000Y-126365000D01*
X91440000Y-113665000D02*
X98425000Y-113665000D01*
X91440000Y-113665000D02*
X84455000Y-113665000D01*
X98425000Y-126238000D02*
X98425000Y-113665000D01*
X84455000Y-113665000D02*
X84455000Y-118491000D01*
X91440000Y-127635000D02*
X98425000Y-127635000D01*
X91440000Y-127635000D02*
X84455000Y-127635000D01*
X98425000Y-127635000D02*
X98425000Y-126492000D01*
X98425000Y-126492000D02*
X98425000Y-126365000D01*
X84455000Y-118491000D02*
X84455000Y-127635000D01*
%TO.C,SW8*%
X117475000Y-126238000D02*
X117475000Y-126365000D01*
X110490000Y-113665000D02*
X117475000Y-113665000D01*
X110490000Y-113665000D02*
X103505000Y-113665000D01*
X117475000Y-126238000D02*
X117475000Y-113665000D01*
X103505000Y-113665000D02*
X103505000Y-118491000D01*
X110490000Y-127635000D02*
X117475000Y-127635000D01*
X110490000Y-127635000D02*
X103505000Y-127635000D01*
X117475000Y-127635000D02*
X117475000Y-126492000D01*
X117475000Y-126492000D02*
X117475000Y-126365000D01*
X103505000Y-118491000D02*
X103505000Y-127635000D01*
%TO.C,SW9*%
X136525000Y-126238000D02*
X136525000Y-126365000D01*
X129540000Y-113665000D02*
X136525000Y-113665000D01*
X129540000Y-113665000D02*
X122555000Y-113665000D01*
X136525000Y-126238000D02*
X136525000Y-113665000D01*
X122555000Y-113665000D02*
X122555000Y-118491000D01*
X129540000Y-127635000D02*
X136525000Y-127635000D01*
X129540000Y-127635000D02*
X122555000Y-127635000D01*
X136525000Y-127635000D02*
X136525000Y-126492000D01*
X136525000Y-126492000D02*
X136525000Y-126365000D01*
X122555000Y-118491000D02*
X122555000Y-127635000D01*
%TO.C,SW10*%
X98425000Y-145288000D02*
X98425000Y-145415000D01*
X91440000Y-132715000D02*
X98425000Y-132715000D01*
X91440000Y-132715000D02*
X84455000Y-132715000D01*
X98425000Y-145288000D02*
X98425000Y-132715000D01*
X84455000Y-132715000D02*
X84455000Y-137541000D01*
X91440000Y-146685000D02*
X98425000Y-146685000D01*
X91440000Y-146685000D02*
X84455000Y-146685000D01*
X98425000Y-146685000D02*
X98425000Y-145542000D01*
X98425000Y-145542000D02*
X98425000Y-145415000D01*
X84455000Y-137541000D02*
X84455000Y-146685000D01*
%TO.C,SW11*%
X117475000Y-145288000D02*
X117475000Y-145415000D01*
X110490000Y-132715000D02*
X117475000Y-132715000D01*
X110490000Y-132715000D02*
X103505000Y-132715000D01*
X117475000Y-145288000D02*
X117475000Y-132715000D01*
X103505000Y-132715000D02*
X103505000Y-137541000D01*
X110490000Y-146685000D02*
X117475000Y-146685000D01*
X110490000Y-146685000D02*
X103505000Y-146685000D01*
X117475000Y-146685000D02*
X117475000Y-145542000D01*
X117475000Y-145542000D02*
X117475000Y-145415000D01*
X103505000Y-137541000D02*
X103505000Y-146685000D01*
%TO.C,SW12*%
X136525000Y-145288000D02*
X136525000Y-145415000D01*
X129540000Y-132715000D02*
X136525000Y-132715000D01*
X129540000Y-132715000D02*
X122555000Y-132715000D01*
X136525000Y-145288000D02*
X136525000Y-132715000D01*
X122555000Y-132715000D02*
X122555000Y-137541000D01*
X129540000Y-146685000D02*
X136525000Y-146685000D01*
X129540000Y-146685000D02*
X122555000Y-146685000D01*
X136525000Y-146685000D02*
X136525000Y-145542000D01*
X136525000Y-145542000D02*
X136525000Y-145415000D01*
X122555000Y-137541000D02*
X122555000Y-146685000D01*
%TO.C,SW13*%
X159385000Y-69088000D02*
X159385000Y-69215000D01*
X152400000Y-56515000D02*
X159385000Y-56515000D01*
X152400000Y-56515000D02*
X145415000Y-56515000D01*
X159385000Y-69088000D02*
X159385000Y-56515000D01*
X145415000Y-56515000D02*
X145415000Y-61341000D01*
X152400000Y-70485000D02*
X159385000Y-70485000D01*
X152400000Y-70485000D02*
X145415000Y-70485000D01*
X159385000Y-70485000D02*
X159385000Y-69342000D01*
X159385000Y-69342000D02*
X159385000Y-69215000D01*
X145415000Y-61341000D02*
X145415000Y-70485000D01*
%TO.C,SW14*%
X159385000Y-88138000D02*
X159385000Y-88265000D01*
X152400000Y-75565000D02*
X159385000Y-75565000D01*
X152400000Y-75565000D02*
X145415000Y-75565000D01*
X159385000Y-88138000D02*
X159385000Y-75565000D01*
X145415000Y-75565000D02*
X145415000Y-80391000D01*
X152400000Y-89535000D02*
X159385000Y-89535000D01*
X152400000Y-89535000D02*
X145415000Y-89535000D01*
X159385000Y-89535000D02*
X159385000Y-88392000D01*
X159385000Y-88392000D02*
X159385000Y-88265000D01*
X145415000Y-80391000D02*
X145415000Y-89535000D01*
%TO.C,SW15*%
X159385000Y-107188000D02*
X159385000Y-107315000D01*
X152400000Y-94615000D02*
X159385000Y-94615000D01*
X152400000Y-94615000D02*
X145415000Y-94615000D01*
X159385000Y-107188000D02*
X159385000Y-94615000D01*
X145415000Y-94615000D02*
X145415000Y-99441000D01*
X152400000Y-108585000D02*
X159385000Y-108585000D01*
X152400000Y-108585000D02*
X145415000Y-108585000D01*
X159385000Y-108585000D02*
X159385000Y-107442000D01*
X159385000Y-107442000D02*
X159385000Y-107315000D01*
X145415000Y-99441000D02*
X145415000Y-108585000D01*
%TO.C,SW16*%
X159385000Y-126238000D02*
X159385000Y-126365000D01*
X152400000Y-113665000D02*
X159385000Y-113665000D01*
X152400000Y-113665000D02*
X145415000Y-113665000D01*
X159385000Y-126238000D02*
X159385000Y-113665000D01*
X145415000Y-113665000D02*
X145415000Y-118491000D01*
X152400000Y-127635000D02*
X159385000Y-127635000D01*
X152400000Y-127635000D02*
X145415000Y-127635000D01*
X159385000Y-127635000D02*
X159385000Y-126492000D01*
X159385000Y-126492000D02*
X159385000Y-126365000D01*
X145415000Y-118491000D02*
X145415000Y-127635000D01*
%TO.C,SW17*%
X159385000Y-145288000D02*
X159385000Y-145415000D01*
X152400000Y-132715000D02*
X159385000Y-132715000D01*
X152400000Y-132715000D02*
X145415000Y-132715000D01*
X159385000Y-145288000D02*
X159385000Y-132715000D01*
X145415000Y-132715000D02*
X145415000Y-137541000D01*
X152400000Y-146685000D02*
X159385000Y-146685000D01*
X152400000Y-146685000D02*
X145415000Y-146685000D01*
X159385000Y-146685000D02*
X159385000Y-145542000D01*
X159385000Y-145542000D02*
X159385000Y-145415000D01*
X145415000Y-137541000D02*
X145415000Y-146685000D01*
%TO.C,J9*%
D10*
X183197380Y-51133333D02*
X183911666Y-51133333D01*
X184054523Y-51180952D01*
X184149761Y-51276190D01*
X184197380Y-51419047D01*
X184197380Y-51514285D01*
X184197380Y-50609523D02*
X184197380Y-50419047D01*
X184149761Y-50323809D01*
X184102142Y-50276190D01*
X183959285Y-50180952D01*
X183768809Y-50133333D01*
X183387857Y-50133333D01*
X183292619Y-50180952D01*
X183245000Y-50228571D01*
X183197380Y-50323809D01*
X183197380Y-50514285D01*
X183245000Y-50609523D01*
X183292619Y-50657142D01*
X183387857Y-50704761D01*
X183625952Y-50704761D01*
X183721190Y-50657142D01*
X183768809Y-50609523D01*
X183816428Y-50514285D01*
X183816428Y-50323809D01*
X183768809Y-50228571D01*
X183721190Y-50180952D01*
X183625952Y-50133333D01*
%TO.C,MH4*%
X77406666Y-144842380D02*
X77406666Y-143842380D01*
X77740000Y-144556666D01*
X78073333Y-143842380D01*
X78073333Y-144842380D01*
X78549523Y-144842380D02*
X78549523Y-143842380D01*
X78549523Y-144318571D02*
X79120952Y-144318571D01*
X79120952Y-144842380D02*
X79120952Y-143842380D01*
X80025714Y-144175714D02*
X80025714Y-144842380D01*
X79787619Y-143794761D02*
X79549523Y-144509047D01*
X80168571Y-144509047D01*
%TO.C,MH3*%
X212026666Y-144842380D02*
X212026666Y-143842380D01*
X212360000Y-144556666D01*
X212693333Y-143842380D01*
X212693333Y-144842380D01*
X213169523Y-144842380D02*
X213169523Y-143842380D01*
X213169523Y-144318571D02*
X213740952Y-144318571D01*
X213740952Y-144842380D02*
X213740952Y-143842380D01*
X214121904Y-143842380D02*
X214740952Y-143842380D01*
X214407619Y-144223333D01*
X214550476Y-144223333D01*
X214645714Y-144270952D01*
X214693333Y-144318571D01*
X214740952Y-144413809D01*
X214740952Y-144651904D01*
X214693333Y-144747142D01*
X214645714Y-144794761D01*
X214550476Y-144842380D01*
X214264761Y-144842380D01*
X214169523Y-144794761D01*
X214121904Y-144747142D01*
%TO.C,MH2*%
X209486666Y-48322380D02*
X209486666Y-47322380D01*
X209820000Y-48036666D01*
X210153333Y-47322380D01*
X210153333Y-48322380D01*
X210629523Y-48322380D02*
X210629523Y-47322380D01*
X210629523Y-47798571D02*
X211200952Y-47798571D01*
X211200952Y-48322380D02*
X211200952Y-47322380D01*
X211629523Y-47417619D02*
X211677142Y-47370000D01*
X211772380Y-47322380D01*
X212010476Y-47322380D01*
X212105714Y-47370000D01*
X212153333Y-47417619D01*
X212200952Y-47512857D01*
X212200952Y-47608095D01*
X212153333Y-47750952D01*
X211581904Y-48322380D01*
X212200952Y-48322380D01*
%TO.C,MH1*%
X73596666Y-48322380D02*
X73596666Y-47322380D01*
X73930000Y-48036666D01*
X74263333Y-47322380D01*
X74263333Y-48322380D01*
X74739523Y-48322380D02*
X74739523Y-47322380D01*
X74739523Y-47798571D02*
X75310952Y-47798571D01*
X75310952Y-48322380D02*
X75310952Y-47322380D01*
X76310952Y-48322380D02*
X75739523Y-48322380D01*
X76025238Y-48322380D02*
X76025238Y-47322380D01*
X75930000Y-47465238D01*
X75834761Y-47560476D01*
X75739523Y-47608095D01*
%TO.C,DS2*%
X184205714Y-65222380D02*
X184205714Y-64222380D01*
X184443809Y-64222380D01*
X184586666Y-64270000D01*
X184681904Y-64365238D01*
X184729523Y-64460476D01*
X184777142Y-64650952D01*
X184777142Y-64793809D01*
X184729523Y-64984285D01*
X184681904Y-65079523D01*
X184586666Y-65174761D01*
X184443809Y-65222380D01*
X184205714Y-65222380D01*
X185158095Y-65174761D02*
X185300952Y-65222380D01*
X185539047Y-65222380D01*
X185634285Y-65174761D01*
X185681904Y-65127142D01*
X185729523Y-65031904D01*
X185729523Y-64936666D01*
X185681904Y-64841428D01*
X185634285Y-64793809D01*
X185539047Y-64746190D01*
X185348571Y-64698571D01*
X185253333Y-64650952D01*
X185205714Y-64603333D01*
X185158095Y-64508095D01*
X185158095Y-64412857D01*
X185205714Y-64317619D01*
X185253333Y-64270000D01*
X185348571Y-64222380D01*
X185586666Y-64222380D01*
X185729523Y-64270000D01*
X186110476Y-64317619D02*
X186158095Y-64270000D01*
X186253333Y-64222380D01*
X186491428Y-64222380D01*
X186586666Y-64270000D01*
X186634285Y-64317619D01*
X186681904Y-64412857D01*
X186681904Y-64508095D01*
X186634285Y-64650952D01*
X186062857Y-65222380D01*
X186681904Y-65222380D01*
%TO.C,J7*%
X215566666Y-53832380D02*
X215566666Y-54546666D01*
X215519047Y-54689523D01*
X215423809Y-54784761D01*
X215280952Y-54832380D01*
X215185714Y-54832380D01*
X215947619Y-53832380D02*
X216614285Y-53832380D01*
X216185714Y-54832380D01*
%TO.C,J5*%
X74596666Y-94472380D02*
X74596666Y-95186666D01*
X74549047Y-95329523D01*
X74453809Y-95424761D01*
X74310952Y-95472380D01*
X74215714Y-95472380D01*
X75549047Y-94472380D02*
X75072857Y-94472380D01*
X75025238Y-94948571D01*
X75072857Y-94900952D01*
X75168095Y-94853333D01*
X75406190Y-94853333D01*
X75501428Y-94900952D01*
X75549047Y-94948571D01*
X75596666Y-95043809D01*
X75596666Y-95281904D01*
X75549047Y-95377142D01*
X75501428Y-95424761D01*
X75406190Y-95472380D01*
X75168095Y-95472380D01*
X75072857Y-95424761D01*
X75025238Y-95377142D01*
%TO.C,J3*%
X74596666Y-81772380D02*
X74596666Y-82486666D01*
X74549047Y-82629523D01*
X74453809Y-82724761D01*
X74310952Y-82772380D01*
X74215714Y-82772380D01*
X74977619Y-81772380D02*
X75596666Y-81772380D01*
X75263333Y-82153333D01*
X75406190Y-82153333D01*
X75501428Y-82200952D01*
X75549047Y-82248571D01*
X75596666Y-82343809D01*
X75596666Y-82581904D01*
X75549047Y-82677142D01*
X75501428Y-82724761D01*
X75406190Y-82772380D01*
X75120476Y-82772380D01*
X75025238Y-82724761D01*
X74977619Y-82677142D01*
%TO.C,DS5*%
X184205714Y-122372380D02*
X184205714Y-121372380D01*
X184443809Y-121372380D01*
X184586666Y-121420000D01*
X184681904Y-121515238D01*
X184729523Y-121610476D01*
X184777142Y-121800952D01*
X184777142Y-121943809D01*
X184729523Y-122134285D01*
X184681904Y-122229523D01*
X184586666Y-122324761D01*
X184443809Y-122372380D01*
X184205714Y-122372380D01*
X185158095Y-122324761D02*
X185300952Y-122372380D01*
X185539047Y-122372380D01*
X185634285Y-122324761D01*
X185681904Y-122277142D01*
X185729523Y-122181904D01*
X185729523Y-122086666D01*
X185681904Y-121991428D01*
X185634285Y-121943809D01*
X185539047Y-121896190D01*
X185348571Y-121848571D01*
X185253333Y-121800952D01*
X185205714Y-121753333D01*
X185158095Y-121658095D01*
X185158095Y-121562857D01*
X185205714Y-121467619D01*
X185253333Y-121420000D01*
X185348571Y-121372380D01*
X185586666Y-121372380D01*
X185729523Y-121420000D01*
X186634285Y-121372380D02*
X186158095Y-121372380D01*
X186110476Y-121848571D01*
X186158095Y-121800952D01*
X186253333Y-121753333D01*
X186491428Y-121753333D01*
X186586666Y-121800952D01*
X186634285Y-121848571D01*
X186681904Y-121943809D01*
X186681904Y-122181904D01*
X186634285Y-122277142D01*
X186586666Y-122324761D01*
X186491428Y-122372380D01*
X186253333Y-122372380D01*
X186158095Y-122324761D01*
X186110476Y-122277142D01*
%TO.C,DS4*%
X184205714Y-103322380D02*
X184205714Y-102322380D01*
X184443809Y-102322380D01*
X184586666Y-102370000D01*
X184681904Y-102465238D01*
X184729523Y-102560476D01*
X184777142Y-102750952D01*
X184777142Y-102893809D01*
X184729523Y-103084285D01*
X184681904Y-103179523D01*
X184586666Y-103274761D01*
X184443809Y-103322380D01*
X184205714Y-103322380D01*
X185158095Y-103274761D02*
X185300952Y-103322380D01*
X185539047Y-103322380D01*
X185634285Y-103274761D01*
X185681904Y-103227142D01*
X185729523Y-103131904D01*
X185729523Y-103036666D01*
X185681904Y-102941428D01*
X185634285Y-102893809D01*
X185539047Y-102846190D01*
X185348571Y-102798571D01*
X185253333Y-102750952D01*
X185205714Y-102703333D01*
X185158095Y-102608095D01*
X185158095Y-102512857D01*
X185205714Y-102417619D01*
X185253333Y-102370000D01*
X185348571Y-102322380D01*
X185586666Y-102322380D01*
X185729523Y-102370000D01*
X186586666Y-102655714D02*
X186586666Y-103322380D01*
X186348571Y-102274761D02*
X186110476Y-102989047D01*
X186729523Y-102989047D01*
%TO.C,DS3*%
X184205714Y-84272380D02*
X184205714Y-83272380D01*
X184443809Y-83272380D01*
X184586666Y-83320000D01*
X184681904Y-83415238D01*
X184729523Y-83510476D01*
X184777142Y-83700952D01*
X184777142Y-83843809D01*
X184729523Y-84034285D01*
X184681904Y-84129523D01*
X184586666Y-84224761D01*
X184443809Y-84272380D01*
X184205714Y-84272380D01*
X185158095Y-84224761D02*
X185300952Y-84272380D01*
X185539047Y-84272380D01*
X185634285Y-84224761D01*
X185681904Y-84177142D01*
X185729523Y-84081904D01*
X185729523Y-83986666D01*
X185681904Y-83891428D01*
X185634285Y-83843809D01*
X185539047Y-83796190D01*
X185348571Y-83748571D01*
X185253333Y-83700952D01*
X185205714Y-83653333D01*
X185158095Y-83558095D01*
X185158095Y-83462857D01*
X185205714Y-83367619D01*
X185253333Y-83320000D01*
X185348571Y-83272380D01*
X185586666Y-83272380D01*
X185729523Y-83320000D01*
X186062857Y-83272380D02*
X186681904Y-83272380D01*
X186348571Y-83653333D01*
X186491428Y-83653333D01*
X186586666Y-83700952D01*
X186634285Y-83748571D01*
X186681904Y-83843809D01*
X186681904Y-84081904D01*
X186634285Y-84177142D01*
X186586666Y-84224761D01*
X186491428Y-84272380D01*
X186205714Y-84272380D01*
X186110476Y-84224761D01*
X186062857Y-84177142D01*
%TO.C,DS1*%
X110545714Y-66492380D02*
X110545714Y-65492380D01*
X110783809Y-65492380D01*
X110926666Y-65540000D01*
X111021904Y-65635238D01*
X111069523Y-65730476D01*
X111117142Y-65920952D01*
X111117142Y-66063809D01*
X111069523Y-66254285D01*
X111021904Y-66349523D01*
X110926666Y-66444761D01*
X110783809Y-66492380D01*
X110545714Y-66492380D01*
X111498095Y-66444761D02*
X111640952Y-66492380D01*
X111879047Y-66492380D01*
X111974285Y-66444761D01*
X112021904Y-66397142D01*
X112069523Y-66301904D01*
X112069523Y-66206666D01*
X112021904Y-66111428D01*
X111974285Y-66063809D01*
X111879047Y-66016190D01*
X111688571Y-65968571D01*
X111593333Y-65920952D01*
X111545714Y-65873333D01*
X111498095Y-65778095D01*
X111498095Y-65682857D01*
X111545714Y-65587619D01*
X111593333Y-65540000D01*
X111688571Y-65492380D01*
X111926666Y-65492380D01*
X112069523Y-65540000D01*
X113021904Y-66492380D02*
X112450476Y-66492380D01*
X112736190Y-66492380D02*
X112736190Y-65492380D01*
X112640952Y-65635238D01*
X112545714Y-65730476D01*
X112450476Y-65778095D01*
%TO.C,DS6*%
X184205714Y-141422380D02*
X184205714Y-140422380D01*
X184443809Y-140422380D01*
X184586666Y-140470000D01*
X184681904Y-140565238D01*
X184729523Y-140660476D01*
X184777142Y-140850952D01*
X184777142Y-140993809D01*
X184729523Y-141184285D01*
X184681904Y-141279523D01*
X184586666Y-141374761D01*
X184443809Y-141422380D01*
X184205714Y-141422380D01*
X185158095Y-141374761D02*
X185300952Y-141422380D01*
X185539047Y-141422380D01*
X185634285Y-141374761D01*
X185681904Y-141327142D01*
X185729523Y-141231904D01*
X185729523Y-141136666D01*
X185681904Y-141041428D01*
X185634285Y-140993809D01*
X185539047Y-140946190D01*
X185348571Y-140898571D01*
X185253333Y-140850952D01*
X185205714Y-140803333D01*
X185158095Y-140708095D01*
X185158095Y-140612857D01*
X185205714Y-140517619D01*
X185253333Y-140470000D01*
X185348571Y-140422380D01*
X185586666Y-140422380D01*
X185729523Y-140470000D01*
X186586666Y-140422380D02*
X186396190Y-140422380D01*
X186300952Y-140470000D01*
X186253333Y-140517619D01*
X186158095Y-140660476D01*
X186110476Y-140850952D01*
X186110476Y-141231904D01*
X186158095Y-141327142D01*
X186205714Y-141374761D01*
X186300952Y-141422380D01*
X186491428Y-141422380D01*
X186586666Y-141374761D01*
X186634285Y-141327142D01*
X186681904Y-141231904D01*
X186681904Y-140993809D01*
X186634285Y-140898571D01*
X186586666Y-140850952D01*
X186491428Y-140803333D01*
X186300952Y-140803333D01*
X186205714Y-140850952D01*
X186158095Y-140898571D01*
X186110476Y-140993809D01*
%TO.C,D17*%
X150469221Y-147329788D02*
X150811241Y-146390096D01*
X151034977Y-146471529D01*
X151152932Y-146565136D01*
X151209854Y-146687204D01*
X151222027Y-146792985D01*
X151201628Y-146988261D01*
X151152768Y-147122503D01*
X151042874Y-147285205D01*
X150965553Y-147358413D01*
X150843486Y-147415334D01*
X150692957Y-147411222D01*
X150469221Y-147329788D01*
X151901133Y-147850962D02*
X151364166Y-147655522D01*
X151632650Y-147753242D02*
X151974670Y-146813549D01*
X151836315Y-146915218D01*
X151714247Y-146972139D01*
X151608466Y-146984313D01*
X152556384Y-147025276D02*
X153182846Y-147253289D01*
X152438101Y-148046402D01*
%TO.C,D16*%
X150469221Y-128279788D02*
X150811241Y-127340096D01*
X151034977Y-127421529D01*
X151152932Y-127515136D01*
X151209854Y-127637204D01*
X151222027Y-127742985D01*
X151201628Y-127938261D01*
X151152768Y-128072503D01*
X151042874Y-128235205D01*
X150965553Y-128308413D01*
X150843486Y-128365334D01*
X150692957Y-128361222D01*
X150469221Y-128279788D01*
X151901133Y-128800962D02*
X151364166Y-128605522D01*
X151632650Y-128703242D02*
X151974670Y-127763549D01*
X151836315Y-127865218D01*
X151714247Y-127922139D01*
X151608466Y-127934313D01*
X153048604Y-128154429D02*
X152869615Y-128089283D01*
X152763834Y-128101457D01*
X152702800Y-128129917D01*
X152564446Y-128231586D01*
X152454552Y-128394288D01*
X152324258Y-128752266D01*
X152336432Y-128858047D01*
X152364893Y-128919081D01*
X152438101Y-128996402D01*
X152617090Y-129061549D01*
X152722871Y-129049375D01*
X152783905Y-129020914D01*
X152861225Y-128947706D01*
X152942659Y-128723970D01*
X152930485Y-128618189D01*
X152902024Y-128557155D01*
X152828816Y-128479834D01*
X152649827Y-128414688D01*
X152544046Y-128426861D01*
X152483012Y-128455322D01*
X152405692Y-128528530D01*
%TO.C,D15*%
X150469221Y-109229788D02*
X150811241Y-108290096D01*
X151034977Y-108371529D01*
X151152932Y-108465136D01*
X151209854Y-108587204D01*
X151222027Y-108692985D01*
X151201628Y-108888261D01*
X151152768Y-109022503D01*
X151042874Y-109185205D01*
X150965553Y-109258413D01*
X150843486Y-109315334D01*
X150692957Y-109311222D01*
X150469221Y-109229788D01*
X151901133Y-109750962D02*
X151364166Y-109555522D01*
X151632650Y-109653242D02*
X151974670Y-108713549D01*
X151836315Y-108815218D01*
X151714247Y-108872139D01*
X151608466Y-108884313D01*
X153093352Y-109120716D02*
X152645879Y-108957849D01*
X152438265Y-109389035D01*
X152499299Y-109360575D01*
X152605080Y-109348401D01*
X152828816Y-109429834D01*
X152902024Y-109507155D01*
X152930485Y-109568189D01*
X152942659Y-109673970D01*
X152861225Y-109897706D01*
X152783905Y-109970914D01*
X152722871Y-109999375D01*
X152617090Y-110011549D01*
X152393353Y-109930115D01*
X152320145Y-109852795D01*
X152291685Y-109791761D01*
%TO.C,D14*%
X150469221Y-90179788D02*
X150811241Y-89240096D01*
X151034977Y-89321529D01*
X151152932Y-89415136D01*
X151209854Y-89537204D01*
X151222027Y-89642985D01*
X151201628Y-89838261D01*
X151152768Y-89972503D01*
X151042874Y-90135205D01*
X150965553Y-90208413D01*
X150843486Y-90265334D01*
X150692957Y-90261222D01*
X150469221Y-90179788D01*
X151901133Y-90700962D02*
X151364166Y-90505522D01*
X151632650Y-90603242D02*
X151974670Y-89663549D01*
X151836315Y-89765218D01*
X151714247Y-89822139D01*
X151608466Y-89834313D01*
X152934598Y-90367660D02*
X152706584Y-90994122D01*
X152841155Y-89928249D02*
X152373118Y-90518024D01*
X152954833Y-90729751D01*
%TO.C,D13*%
X150469221Y-71129788D02*
X150811241Y-70190096D01*
X151034977Y-70271529D01*
X151152932Y-70365136D01*
X151209854Y-70487204D01*
X151222027Y-70592985D01*
X151201628Y-70788261D01*
X151152768Y-70922503D01*
X151042874Y-71085205D01*
X150965553Y-71158413D01*
X150843486Y-71215334D01*
X150692957Y-71211222D01*
X150469221Y-71129788D01*
X151901133Y-71650962D02*
X151364166Y-71455522D01*
X151632650Y-71553242D02*
X151974670Y-70613549D01*
X151836315Y-70715218D01*
X151714247Y-70772139D01*
X151608466Y-70784313D01*
X152556384Y-70825276D02*
X153138099Y-71037003D01*
X152694575Y-71280974D01*
X152828816Y-71329834D01*
X152902024Y-71407155D01*
X152930485Y-71468189D01*
X152942659Y-71573970D01*
X152861225Y-71797706D01*
X152783905Y-71870914D01*
X152722871Y-71899375D01*
X152617090Y-71911549D01*
X152348606Y-71813829D01*
X152275398Y-71736508D01*
X152246938Y-71675474D01*
%TO.C,D34*%
X151185714Y-143327380D02*
X151185714Y-142327380D01*
X151423809Y-142327380D01*
X151566666Y-142375000D01*
X151661904Y-142470238D01*
X151709523Y-142565476D01*
X151757142Y-142755952D01*
X151757142Y-142898809D01*
X151709523Y-143089285D01*
X151661904Y-143184523D01*
X151566666Y-143279761D01*
X151423809Y-143327380D01*
X151185714Y-143327380D01*
X152090476Y-142327380D02*
X152709523Y-142327380D01*
X152376190Y-142708333D01*
X152519047Y-142708333D01*
X152614285Y-142755952D01*
X152661904Y-142803571D01*
X152709523Y-142898809D01*
X152709523Y-143136904D01*
X152661904Y-143232142D01*
X152614285Y-143279761D01*
X152519047Y-143327380D01*
X152233333Y-143327380D01*
X152138095Y-143279761D01*
X152090476Y-143232142D01*
X153566666Y-142660714D02*
X153566666Y-143327380D01*
X153328571Y-142279761D02*
X153090476Y-142994047D01*
X153709523Y-142994047D01*
%TO.C,D33*%
X151185714Y-124277380D02*
X151185714Y-123277380D01*
X151423809Y-123277380D01*
X151566666Y-123325000D01*
X151661904Y-123420238D01*
X151709523Y-123515476D01*
X151757142Y-123705952D01*
X151757142Y-123848809D01*
X151709523Y-124039285D01*
X151661904Y-124134523D01*
X151566666Y-124229761D01*
X151423809Y-124277380D01*
X151185714Y-124277380D01*
X152090476Y-123277380D02*
X152709523Y-123277380D01*
X152376190Y-123658333D01*
X152519047Y-123658333D01*
X152614285Y-123705952D01*
X152661904Y-123753571D01*
X152709523Y-123848809D01*
X152709523Y-124086904D01*
X152661904Y-124182142D01*
X152614285Y-124229761D01*
X152519047Y-124277380D01*
X152233333Y-124277380D01*
X152138095Y-124229761D01*
X152090476Y-124182142D01*
X153042857Y-123277380D02*
X153661904Y-123277380D01*
X153328571Y-123658333D01*
X153471428Y-123658333D01*
X153566666Y-123705952D01*
X153614285Y-123753571D01*
X153661904Y-123848809D01*
X153661904Y-124086904D01*
X153614285Y-124182142D01*
X153566666Y-124229761D01*
X153471428Y-124277380D01*
X153185714Y-124277380D01*
X153090476Y-124229761D01*
X153042857Y-124182142D01*
%TO.C,D32*%
X151185714Y-105227380D02*
X151185714Y-104227380D01*
X151423809Y-104227380D01*
X151566666Y-104275000D01*
X151661904Y-104370238D01*
X151709523Y-104465476D01*
X151757142Y-104655952D01*
X151757142Y-104798809D01*
X151709523Y-104989285D01*
X151661904Y-105084523D01*
X151566666Y-105179761D01*
X151423809Y-105227380D01*
X151185714Y-105227380D01*
X152090476Y-104227380D02*
X152709523Y-104227380D01*
X152376190Y-104608333D01*
X152519047Y-104608333D01*
X152614285Y-104655952D01*
X152661904Y-104703571D01*
X152709523Y-104798809D01*
X152709523Y-105036904D01*
X152661904Y-105132142D01*
X152614285Y-105179761D01*
X152519047Y-105227380D01*
X152233333Y-105227380D01*
X152138095Y-105179761D01*
X152090476Y-105132142D01*
X153090476Y-104322619D02*
X153138095Y-104275000D01*
X153233333Y-104227380D01*
X153471428Y-104227380D01*
X153566666Y-104275000D01*
X153614285Y-104322619D01*
X153661904Y-104417857D01*
X153661904Y-104513095D01*
X153614285Y-104655952D01*
X153042857Y-105227380D01*
X153661904Y-105227380D01*
%TO.C,D31*%
X151185714Y-86177380D02*
X151185714Y-85177380D01*
X151423809Y-85177380D01*
X151566666Y-85225000D01*
X151661904Y-85320238D01*
X151709523Y-85415476D01*
X151757142Y-85605952D01*
X151757142Y-85748809D01*
X151709523Y-85939285D01*
X151661904Y-86034523D01*
X151566666Y-86129761D01*
X151423809Y-86177380D01*
X151185714Y-86177380D01*
X152090476Y-85177380D02*
X152709523Y-85177380D01*
X152376190Y-85558333D01*
X152519047Y-85558333D01*
X152614285Y-85605952D01*
X152661904Y-85653571D01*
X152709523Y-85748809D01*
X152709523Y-85986904D01*
X152661904Y-86082142D01*
X152614285Y-86129761D01*
X152519047Y-86177380D01*
X152233333Y-86177380D01*
X152138095Y-86129761D01*
X152090476Y-86082142D01*
X153661904Y-86177380D02*
X153090476Y-86177380D01*
X153376190Y-86177380D02*
X153376190Y-85177380D01*
X153280952Y-85320238D01*
X153185714Y-85415476D01*
X153090476Y-85463095D01*
%TO.C,D30*%
X151185714Y-67127380D02*
X151185714Y-66127380D01*
X151423809Y-66127380D01*
X151566666Y-66175000D01*
X151661904Y-66270238D01*
X151709523Y-66365476D01*
X151757142Y-66555952D01*
X151757142Y-66698809D01*
X151709523Y-66889285D01*
X151661904Y-66984523D01*
X151566666Y-67079761D01*
X151423809Y-67127380D01*
X151185714Y-67127380D01*
X152090476Y-66127380D02*
X152709523Y-66127380D01*
X152376190Y-66508333D01*
X152519047Y-66508333D01*
X152614285Y-66555952D01*
X152661904Y-66603571D01*
X152709523Y-66698809D01*
X152709523Y-66936904D01*
X152661904Y-67032142D01*
X152614285Y-67079761D01*
X152519047Y-67127380D01*
X152233333Y-67127380D01*
X152138095Y-67079761D01*
X152090476Y-67032142D01*
X153328571Y-66127380D02*
X153423809Y-66127380D01*
X153519047Y-66175000D01*
X153566666Y-66222619D01*
X153614285Y-66317857D01*
X153661904Y-66508333D01*
X153661904Y-66746428D01*
X153614285Y-66936904D01*
X153566666Y-67032142D01*
X153519047Y-67079761D01*
X153423809Y-67127380D01*
X153328571Y-67127380D01*
X153233333Y-67079761D01*
X153185714Y-67032142D01*
X153138095Y-66936904D01*
X153090476Y-66746428D01*
X153090476Y-66508333D01*
X153138095Y-66317857D01*
X153185714Y-66222619D01*
X153233333Y-66175000D01*
X153328571Y-66127380D01*
%TO.C,D29*%
X128325714Y-143327380D02*
X128325714Y-142327380D01*
X128563809Y-142327380D01*
X128706666Y-142375000D01*
X128801904Y-142470238D01*
X128849523Y-142565476D01*
X128897142Y-142755952D01*
X128897142Y-142898809D01*
X128849523Y-143089285D01*
X128801904Y-143184523D01*
X128706666Y-143279761D01*
X128563809Y-143327380D01*
X128325714Y-143327380D01*
X129278095Y-142422619D02*
X129325714Y-142375000D01*
X129420952Y-142327380D01*
X129659047Y-142327380D01*
X129754285Y-142375000D01*
X129801904Y-142422619D01*
X129849523Y-142517857D01*
X129849523Y-142613095D01*
X129801904Y-142755952D01*
X129230476Y-143327380D01*
X129849523Y-143327380D01*
X130325714Y-143327380D02*
X130516190Y-143327380D01*
X130611428Y-143279761D01*
X130659047Y-143232142D01*
X130754285Y-143089285D01*
X130801904Y-142898809D01*
X130801904Y-142517857D01*
X130754285Y-142422619D01*
X130706666Y-142375000D01*
X130611428Y-142327380D01*
X130420952Y-142327380D01*
X130325714Y-142375000D01*
X130278095Y-142422619D01*
X130230476Y-142517857D01*
X130230476Y-142755952D01*
X130278095Y-142851190D01*
X130325714Y-142898809D01*
X130420952Y-142946428D01*
X130611428Y-142946428D01*
X130706666Y-142898809D01*
X130754285Y-142851190D01*
X130801904Y-142755952D01*
%TO.C,D28*%
X109275714Y-143327380D02*
X109275714Y-142327380D01*
X109513809Y-142327380D01*
X109656666Y-142375000D01*
X109751904Y-142470238D01*
X109799523Y-142565476D01*
X109847142Y-142755952D01*
X109847142Y-142898809D01*
X109799523Y-143089285D01*
X109751904Y-143184523D01*
X109656666Y-143279761D01*
X109513809Y-143327380D01*
X109275714Y-143327380D01*
X110228095Y-142422619D02*
X110275714Y-142375000D01*
X110370952Y-142327380D01*
X110609047Y-142327380D01*
X110704285Y-142375000D01*
X110751904Y-142422619D01*
X110799523Y-142517857D01*
X110799523Y-142613095D01*
X110751904Y-142755952D01*
X110180476Y-143327380D01*
X110799523Y-143327380D01*
X111370952Y-142755952D02*
X111275714Y-142708333D01*
X111228095Y-142660714D01*
X111180476Y-142565476D01*
X111180476Y-142517857D01*
X111228095Y-142422619D01*
X111275714Y-142375000D01*
X111370952Y-142327380D01*
X111561428Y-142327380D01*
X111656666Y-142375000D01*
X111704285Y-142422619D01*
X111751904Y-142517857D01*
X111751904Y-142565476D01*
X111704285Y-142660714D01*
X111656666Y-142708333D01*
X111561428Y-142755952D01*
X111370952Y-142755952D01*
X111275714Y-142803571D01*
X111228095Y-142851190D01*
X111180476Y-142946428D01*
X111180476Y-143136904D01*
X111228095Y-143232142D01*
X111275714Y-143279761D01*
X111370952Y-143327380D01*
X111561428Y-143327380D01*
X111656666Y-143279761D01*
X111704285Y-143232142D01*
X111751904Y-143136904D01*
X111751904Y-142946428D01*
X111704285Y-142851190D01*
X111656666Y-142803571D01*
X111561428Y-142755952D01*
%TO.C,D27*%
X90225714Y-143327380D02*
X90225714Y-142327380D01*
X90463809Y-142327380D01*
X90606666Y-142375000D01*
X90701904Y-142470238D01*
X90749523Y-142565476D01*
X90797142Y-142755952D01*
X90797142Y-142898809D01*
X90749523Y-143089285D01*
X90701904Y-143184523D01*
X90606666Y-143279761D01*
X90463809Y-143327380D01*
X90225714Y-143327380D01*
X91178095Y-142422619D02*
X91225714Y-142375000D01*
X91320952Y-142327380D01*
X91559047Y-142327380D01*
X91654285Y-142375000D01*
X91701904Y-142422619D01*
X91749523Y-142517857D01*
X91749523Y-142613095D01*
X91701904Y-142755952D01*
X91130476Y-143327380D01*
X91749523Y-143327380D01*
X92082857Y-142327380D02*
X92749523Y-142327380D01*
X92320952Y-143327380D01*
%TO.C,D26*%
X128325714Y-124277380D02*
X128325714Y-123277380D01*
X128563809Y-123277380D01*
X128706666Y-123325000D01*
X128801904Y-123420238D01*
X128849523Y-123515476D01*
X128897142Y-123705952D01*
X128897142Y-123848809D01*
X128849523Y-124039285D01*
X128801904Y-124134523D01*
X128706666Y-124229761D01*
X128563809Y-124277380D01*
X128325714Y-124277380D01*
X129278095Y-123372619D02*
X129325714Y-123325000D01*
X129420952Y-123277380D01*
X129659047Y-123277380D01*
X129754285Y-123325000D01*
X129801904Y-123372619D01*
X129849523Y-123467857D01*
X129849523Y-123563095D01*
X129801904Y-123705952D01*
X129230476Y-124277380D01*
X129849523Y-124277380D01*
X130706666Y-123277380D02*
X130516190Y-123277380D01*
X130420952Y-123325000D01*
X130373333Y-123372619D01*
X130278095Y-123515476D01*
X130230476Y-123705952D01*
X130230476Y-124086904D01*
X130278095Y-124182142D01*
X130325714Y-124229761D01*
X130420952Y-124277380D01*
X130611428Y-124277380D01*
X130706666Y-124229761D01*
X130754285Y-124182142D01*
X130801904Y-124086904D01*
X130801904Y-123848809D01*
X130754285Y-123753571D01*
X130706666Y-123705952D01*
X130611428Y-123658333D01*
X130420952Y-123658333D01*
X130325714Y-123705952D01*
X130278095Y-123753571D01*
X130230476Y-123848809D01*
%TO.C,D25*%
X109275714Y-124277380D02*
X109275714Y-123277380D01*
X109513809Y-123277380D01*
X109656666Y-123325000D01*
X109751904Y-123420238D01*
X109799523Y-123515476D01*
X109847142Y-123705952D01*
X109847142Y-123848809D01*
X109799523Y-124039285D01*
X109751904Y-124134523D01*
X109656666Y-124229761D01*
X109513809Y-124277380D01*
X109275714Y-124277380D01*
X110228095Y-123372619D02*
X110275714Y-123325000D01*
X110370952Y-123277380D01*
X110609047Y-123277380D01*
X110704285Y-123325000D01*
X110751904Y-123372619D01*
X110799523Y-123467857D01*
X110799523Y-123563095D01*
X110751904Y-123705952D01*
X110180476Y-124277380D01*
X110799523Y-124277380D01*
X111704285Y-123277380D02*
X111228095Y-123277380D01*
X111180476Y-123753571D01*
X111228095Y-123705952D01*
X111323333Y-123658333D01*
X111561428Y-123658333D01*
X111656666Y-123705952D01*
X111704285Y-123753571D01*
X111751904Y-123848809D01*
X111751904Y-124086904D01*
X111704285Y-124182142D01*
X111656666Y-124229761D01*
X111561428Y-124277380D01*
X111323333Y-124277380D01*
X111228095Y-124229761D01*
X111180476Y-124182142D01*
%TO.C,D24*%
X90225714Y-124277380D02*
X90225714Y-123277380D01*
X90463809Y-123277380D01*
X90606666Y-123325000D01*
X90701904Y-123420238D01*
X90749523Y-123515476D01*
X90797142Y-123705952D01*
X90797142Y-123848809D01*
X90749523Y-124039285D01*
X90701904Y-124134523D01*
X90606666Y-124229761D01*
X90463809Y-124277380D01*
X90225714Y-124277380D01*
X91178095Y-123372619D02*
X91225714Y-123325000D01*
X91320952Y-123277380D01*
X91559047Y-123277380D01*
X91654285Y-123325000D01*
X91701904Y-123372619D01*
X91749523Y-123467857D01*
X91749523Y-123563095D01*
X91701904Y-123705952D01*
X91130476Y-124277380D01*
X91749523Y-124277380D01*
X92606666Y-123610714D02*
X92606666Y-124277380D01*
X92368571Y-123229761D02*
X92130476Y-123944047D01*
X92749523Y-123944047D01*
%TO.C,D23*%
X128325714Y-105227380D02*
X128325714Y-104227380D01*
X128563809Y-104227380D01*
X128706666Y-104275000D01*
X128801904Y-104370238D01*
X128849523Y-104465476D01*
X128897142Y-104655952D01*
X128897142Y-104798809D01*
X128849523Y-104989285D01*
X128801904Y-105084523D01*
X128706666Y-105179761D01*
X128563809Y-105227380D01*
X128325714Y-105227380D01*
X129278095Y-104322619D02*
X129325714Y-104275000D01*
X129420952Y-104227380D01*
X129659047Y-104227380D01*
X129754285Y-104275000D01*
X129801904Y-104322619D01*
X129849523Y-104417857D01*
X129849523Y-104513095D01*
X129801904Y-104655952D01*
X129230476Y-105227380D01*
X129849523Y-105227380D01*
X130182857Y-104227380D02*
X130801904Y-104227380D01*
X130468571Y-104608333D01*
X130611428Y-104608333D01*
X130706666Y-104655952D01*
X130754285Y-104703571D01*
X130801904Y-104798809D01*
X130801904Y-105036904D01*
X130754285Y-105132142D01*
X130706666Y-105179761D01*
X130611428Y-105227380D01*
X130325714Y-105227380D01*
X130230476Y-105179761D01*
X130182857Y-105132142D01*
%TO.C,D22*%
X109275714Y-105227380D02*
X109275714Y-104227380D01*
X109513809Y-104227380D01*
X109656666Y-104275000D01*
X109751904Y-104370238D01*
X109799523Y-104465476D01*
X109847142Y-104655952D01*
X109847142Y-104798809D01*
X109799523Y-104989285D01*
X109751904Y-105084523D01*
X109656666Y-105179761D01*
X109513809Y-105227380D01*
X109275714Y-105227380D01*
X110228095Y-104322619D02*
X110275714Y-104275000D01*
X110370952Y-104227380D01*
X110609047Y-104227380D01*
X110704285Y-104275000D01*
X110751904Y-104322619D01*
X110799523Y-104417857D01*
X110799523Y-104513095D01*
X110751904Y-104655952D01*
X110180476Y-105227380D01*
X110799523Y-105227380D01*
X111180476Y-104322619D02*
X111228095Y-104275000D01*
X111323333Y-104227380D01*
X111561428Y-104227380D01*
X111656666Y-104275000D01*
X111704285Y-104322619D01*
X111751904Y-104417857D01*
X111751904Y-104513095D01*
X111704285Y-104655952D01*
X111132857Y-105227380D01*
X111751904Y-105227380D01*
%TO.C,D21*%
X90225714Y-105227380D02*
X90225714Y-104227380D01*
X90463809Y-104227380D01*
X90606666Y-104275000D01*
X90701904Y-104370238D01*
X90749523Y-104465476D01*
X90797142Y-104655952D01*
X90797142Y-104798809D01*
X90749523Y-104989285D01*
X90701904Y-105084523D01*
X90606666Y-105179761D01*
X90463809Y-105227380D01*
X90225714Y-105227380D01*
X91178095Y-104322619D02*
X91225714Y-104275000D01*
X91320952Y-104227380D01*
X91559047Y-104227380D01*
X91654285Y-104275000D01*
X91701904Y-104322619D01*
X91749523Y-104417857D01*
X91749523Y-104513095D01*
X91701904Y-104655952D01*
X91130476Y-105227380D01*
X91749523Y-105227380D01*
X92701904Y-105227380D02*
X92130476Y-105227380D01*
X92416190Y-105227380D02*
X92416190Y-104227380D01*
X92320952Y-104370238D01*
X92225714Y-104465476D01*
X92130476Y-104513095D01*
%TO.C,D20*%
X128325714Y-86177380D02*
X128325714Y-85177380D01*
X128563809Y-85177380D01*
X128706666Y-85225000D01*
X128801904Y-85320238D01*
X128849523Y-85415476D01*
X128897142Y-85605952D01*
X128897142Y-85748809D01*
X128849523Y-85939285D01*
X128801904Y-86034523D01*
X128706666Y-86129761D01*
X128563809Y-86177380D01*
X128325714Y-86177380D01*
X129278095Y-85272619D02*
X129325714Y-85225000D01*
X129420952Y-85177380D01*
X129659047Y-85177380D01*
X129754285Y-85225000D01*
X129801904Y-85272619D01*
X129849523Y-85367857D01*
X129849523Y-85463095D01*
X129801904Y-85605952D01*
X129230476Y-86177380D01*
X129849523Y-86177380D01*
X130468571Y-85177380D02*
X130563809Y-85177380D01*
X130659047Y-85225000D01*
X130706666Y-85272619D01*
X130754285Y-85367857D01*
X130801904Y-85558333D01*
X130801904Y-85796428D01*
X130754285Y-85986904D01*
X130706666Y-86082142D01*
X130659047Y-86129761D01*
X130563809Y-86177380D01*
X130468571Y-86177380D01*
X130373333Y-86129761D01*
X130325714Y-86082142D01*
X130278095Y-85986904D01*
X130230476Y-85796428D01*
X130230476Y-85558333D01*
X130278095Y-85367857D01*
X130325714Y-85272619D01*
X130373333Y-85225000D01*
X130468571Y-85177380D01*
%TO.C,D19*%
X109275714Y-86177380D02*
X109275714Y-85177380D01*
X109513809Y-85177380D01*
X109656666Y-85225000D01*
X109751904Y-85320238D01*
X109799523Y-85415476D01*
X109847142Y-85605952D01*
X109847142Y-85748809D01*
X109799523Y-85939285D01*
X109751904Y-86034523D01*
X109656666Y-86129761D01*
X109513809Y-86177380D01*
X109275714Y-86177380D01*
X110799523Y-86177380D02*
X110228095Y-86177380D01*
X110513809Y-86177380D02*
X110513809Y-85177380D01*
X110418571Y-85320238D01*
X110323333Y-85415476D01*
X110228095Y-85463095D01*
X111275714Y-86177380D02*
X111466190Y-86177380D01*
X111561428Y-86129761D01*
X111609047Y-86082142D01*
X111704285Y-85939285D01*
X111751904Y-85748809D01*
X111751904Y-85367857D01*
X111704285Y-85272619D01*
X111656666Y-85225000D01*
X111561428Y-85177380D01*
X111370952Y-85177380D01*
X111275714Y-85225000D01*
X111228095Y-85272619D01*
X111180476Y-85367857D01*
X111180476Y-85605952D01*
X111228095Y-85701190D01*
X111275714Y-85748809D01*
X111370952Y-85796428D01*
X111561428Y-85796428D01*
X111656666Y-85748809D01*
X111704285Y-85701190D01*
X111751904Y-85605952D01*
%TO.C,D18*%
X90225714Y-86177380D02*
X90225714Y-85177380D01*
X90463809Y-85177380D01*
X90606666Y-85225000D01*
X90701904Y-85320238D01*
X90749523Y-85415476D01*
X90797142Y-85605952D01*
X90797142Y-85748809D01*
X90749523Y-85939285D01*
X90701904Y-86034523D01*
X90606666Y-86129761D01*
X90463809Y-86177380D01*
X90225714Y-86177380D01*
X91749523Y-86177380D02*
X91178095Y-86177380D01*
X91463809Y-86177380D02*
X91463809Y-85177380D01*
X91368571Y-85320238D01*
X91273333Y-85415476D01*
X91178095Y-85463095D01*
X92320952Y-85605952D02*
X92225714Y-85558333D01*
X92178095Y-85510714D01*
X92130476Y-85415476D01*
X92130476Y-85367857D01*
X92178095Y-85272619D01*
X92225714Y-85225000D01*
X92320952Y-85177380D01*
X92511428Y-85177380D01*
X92606666Y-85225000D01*
X92654285Y-85272619D01*
X92701904Y-85367857D01*
X92701904Y-85415476D01*
X92654285Y-85510714D01*
X92606666Y-85558333D01*
X92511428Y-85605952D01*
X92320952Y-85605952D01*
X92225714Y-85653571D01*
X92178095Y-85701190D01*
X92130476Y-85796428D01*
X92130476Y-85986904D01*
X92178095Y-86082142D01*
X92225714Y-86129761D01*
X92320952Y-86177380D01*
X92511428Y-86177380D01*
X92606666Y-86129761D01*
X92654285Y-86082142D01*
X92701904Y-85986904D01*
X92701904Y-85796428D01*
X92654285Y-85701190D01*
X92606666Y-85653571D01*
X92511428Y-85605952D01*
%TO.C,D1*%
X89321693Y-90342654D02*
X89663714Y-89402961D01*
X89887450Y-89484395D01*
X90005405Y-89578002D01*
X90062326Y-89700070D01*
X90074500Y-89805851D01*
X90054101Y-90001127D01*
X90005241Y-90135369D01*
X89895347Y-90298071D01*
X89818026Y-90371279D01*
X89695958Y-90428200D01*
X89545430Y-90424087D01*
X89321693Y-90342654D01*
X90753606Y-90863828D02*
X90216639Y-90668388D01*
X90485122Y-90766108D02*
X90827143Y-89826415D01*
X90688788Y-89928083D01*
X90566720Y-89985005D01*
X90460939Y-89997179D01*
%TO.C,D2*%
X108371693Y-90342654D02*
X108713714Y-89402961D01*
X108937450Y-89484395D01*
X109055405Y-89578002D01*
X109112326Y-89700070D01*
X109124500Y-89805851D01*
X109104101Y-90001127D01*
X109055241Y-90135369D01*
X108945347Y-90298071D01*
X108868026Y-90371279D01*
X108745958Y-90428200D01*
X108595430Y-90424087D01*
X108371693Y-90342654D01*
X109576086Y-89818189D02*
X109637120Y-89789729D01*
X109742901Y-89777555D01*
X109966637Y-89858988D01*
X110039845Y-89936309D01*
X110068306Y-89997343D01*
X110080479Y-90103124D01*
X110047906Y-90192619D01*
X109954299Y-90310574D01*
X109221892Y-90652101D01*
X109803606Y-90863828D01*
%TO.C,D3*%
X127421693Y-90342654D02*
X127763714Y-89402961D01*
X127987450Y-89484395D01*
X128105405Y-89578002D01*
X128162326Y-89700070D01*
X128174500Y-89805851D01*
X128154101Y-90001127D01*
X128105241Y-90135369D01*
X127995347Y-90298071D01*
X127918026Y-90371279D01*
X127795958Y-90428200D01*
X127645430Y-90424087D01*
X127421693Y-90342654D01*
X128613912Y-89712408D02*
X129195626Y-89924135D01*
X128752102Y-90168106D01*
X128886344Y-90216966D01*
X128959552Y-90294287D01*
X128988012Y-90355321D01*
X129000186Y-90461102D01*
X128918753Y-90684839D01*
X128841432Y-90758046D01*
X128780398Y-90786507D01*
X128674617Y-90798681D01*
X128406133Y-90700961D01*
X128332925Y-90623640D01*
X128304465Y-90562606D01*
%TO.C,D4*%
X89321693Y-109392654D02*
X89663714Y-108452961D01*
X89887450Y-108534395D01*
X90005405Y-108628002D01*
X90062326Y-108750070D01*
X90074500Y-108855851D01*
X90054101Y-109051127D01*
X90005241Y-109185369D01*
X89895347Y-109348071D01*
X89818026Y-109421279D01*
X89695958Y-109478200D01*
X89545430Y-109474087D01*
X89321693Y-109392654D01*
X90892125Y-109254793D02*
X90664111Y-109881254D01*
X90798682Y-108815381D02*
X90330646Y-109405157D01*
X90912360Y-109616883D01*
%TO.C,D5*%
X108371693Y-109392654D02*
X108713714Y-108452961D01*
X108937450Y-108534395D01*
X109055405Y-108628002D01*
X109112326Y-108750070D01*
X109124500Y-108855851D01*
X109104101Y-109051127D01*
X109055241Y-109185369D01*
X108945347Y-109348071D01*
X108868026Y-109421279D01*
X108745958Y-109478200D01*
X108595430Y-109474087D01*
X108371693Y-109392654D01*
X110100879Y-108957848D02*
X109653406Y-108794982D01*
X109445792Y-109226168D01*
X109506826Y-109197707D01*
X109612607Y-109185533D01*
X109836344Y-109266966D01*
X109909552Y-109344287D01*
X109938012Y-109405321D01*
X109950186Y-109511102D01*
X109868753Y-109734839D01*
X109791432Y-109808046D01*
X109730398Y-109836507D01*
X109624617Y-109848681D01*
X109400881Y-109767248D01*
X109327673Y-109689927D01*
X109299212Y-109628893D01*
%TO.C,D6*%
X127421693Y-109392654D02*
X127763714Y-108452961D01*
X127987450Y-108534395D01*
X128105405Y-108628002D01*
X128162326Y-108750070D01*
X128174500Y-108855851D01*
X128154101Y-109051127D01*
X128105241Y-109185369D01*
X127995347Y-109348071D01*
X127918026Y-109421279D01*
X127795958Y-109478200D01*
X127645430Y-109474087D01*
X127421693Y-109392654D01*
X129106132Y-108941562D02*
X128927143Y-108876415D01*
X128821361Y-108888589D01*
X128760327Y-108917050D01*
X128621973Y-109018718D01*
X128512079Y-109181420D01*
X128381786Y-109539399D01*
X128393959Y-109645180D01*
X128422420Y-109706214D01*
X128495628Y-109783534D01*
X128674617Y-109848681D01*
X128780398Y-109836507D01*
X128841432Y-109808046D01*
X128918753Y-109734839D01*
X129000186Y-109511102D01*
X128988012Y-109405321D01*
X128959552Y-109344287D01*
X128886344Y-109266966D01*
X128707355Y-109201820D01*
X128601573Y-109213994D01*
X128540539Y-109242454D01*
X128463219Y-109315662D01*
%TO.C,D7*%
X89321693Y-128442654D02*
X89663714Y-127502961D01*
X89887450Y-127584395D01*
X90005405Y-127678002D01*
X90062326Y-127800070D01*
X90074500Y-127905851D01*
X90054101Y-128101127D01*
X90005241Y-128235369D01*
X89895347Y-128398071D01*
X89818026Y-128471279D01*
X89695958Y-128528200D01*
X89545430Y-128524087D01*
X89321693Y-128442654D01*
X90513912Y-127812408D02*
X91140373Y-128040422D01*
X90395628Y-128833534D01*
%TO.C,D8*%
X108371693Y-128442654D02*
X108713714Y-127502961D01*
X108937450Y-127584395D01*
X109055405Y-127678002D01*
X109112326Y-127800070D01*
X109124500Y-127905851D01*
X109104101Y-128101127D01*
X109055241Y-128235369D01*
X108945347Y-128398071D01*
X108868026Y-128471279D01*
X108745958Y-128528200D01*
X108595430Y-128524087D01*
X108371693Y-128442654D01*
X109641068Y-128296567D02*
X109567860Y-128219246D01*
X109539400Y-128158212D01*
X109527226Y-128052431D01*
X109543512Y-128007684D01*
X109620833Y-127934476D01*
X109681867Y-127906016D01*
X109787648Y-127893842D01*
X109966637Y-127958988D01*
X110039845Y-128036309D01*
X110068306Y-128097343D01*
X110080479Y-128203124D01*
X110064193Y-128247871D01*
X109986872Y-128321079D01*
X109925838Y-128349540D01*
X109820057Y-128361714D01*
X109641068Y-128296567D01*
X109535287Y-128308741D01*
X109474253Y-128337202D01*
X109396932Y-128410409D01*
X109331786Y-128589399D01*
X109343959Y-128695180D01*
X109372420Y-128756214D01*
X109445628Y-128833534D01*
X109624617Y-128898681D01*
X109730398Y-128886507D01*
X109791432Y-128858046D01*
X109868753Y-128784839D01*
X109933899Y-128605850D01*
X109921725Y-128500068D01*
X109893265Y-128439034D01*
X109820057Y-128361714D01*
%TO.C,D9*%
X127421693Y-128442654D02*
X127763714Y-127502961D01*
X127987450Y-127584395D01*
X128105405Y-127678002D01*
X128162326Y-127800070D01*
X128174500Y-127905851D01*
X128154101Y-128101127D01*
X128105241Y-128235369D01*
X127995347Y-128398071D01*
X127918026Y-128471279D01*
X127795958Y-128528200D01*
X127645430Y-128524087D01*
X127421693Y-128442654D01*
X128406133Y-128800961D02*
X128585122Y-128866108D01*
X128690904Y-128853934D01*
X128751938Y-128825473D01*
X128890292Y-128723805D01*
X129000186Y-128561102D01*
X129130479Y-128203124D01*
X129118306Y-128097343D01*
X129089845Y-128036309D01*
X129016637Y-127958988D01*
X128837648Y-127893842D01*
X128731867Y-127906016D01*
X128670833Y-127934476D01*
X128593512Y-128007684D01*
X128512079Y-128231420D01*
X128524253Y-128337202D01*
X128552713Y-128398236D01*
X128625921Y-128475556D01*
X128804910Y-128540703D01*
X128910692Y-128528529D01*
X128971725Y-128500068D01*
X129049046Y-128426860D01*
%TO.C,D10*%
X88874221Y-147329787D02*
X89216241Y-146390095D01*
X89439977Y-146471528D01*
X89557932Y-146565135D01*
X89614854Y-146687203D01*
X89627027Y-146792984D01*
X89606628Y-146988260D01*
X89557768Y-147122502D01*
X89447874Y-147285204D01*
X89370553Y-147358412D01*
X89248486Y-147415333D01*
X89097957Y-147411221D01*
X88874221Y-147329787D01*
X90306133Y-147850961D02*
X89769166Y-147655521D01*
X90037650Y-147753241D02*
X90379670Y-146813548D01*
X90241315Y-146915217D01*
X90119247Y-146972138D01*
X90013466Y-146984312D01*
X91229868Y-147122995D02*
X91319362Y-147155568D01*
X91392570Y-147232889D01*
X91421031Y-147293923D01*
X91433205Y-147399704D01*
X91412805Y-147594980D01*
X91331372Y-147818716D01*
X91221478Y-147981419D01*
X91144158Y-148054627D01*
X91083124Y-148083087D01*
X90977342Y-148095261D01*
X90887848Y-148062688D01*
X90814640Y-147985367D01*
X90786179Y-147924333D01*
X90774005Y-147818552D01*
X90794405Y-147623276D01*
X90875838Y-147399540D01*
X90985732Y-147236837D01*
X91063053Y-147163630D01*
X91124087Y-147135169D01*
X91229868Y-147122995D01*
%TO.C,D11*%
X107924221Y-147329787D02*
X108266241Y-146390095D01*
X108489977Y-146471528D01*
X108607932Y-146565135D01*
X108664854Y-146687203D01*
X108677027Y-146792984D01*
X108656628Y-146988260D01*
X108607768Y-147122502D01*
X108497874Y-147285204D01*
X108420553Y-147358412D01*
X108298486Y-147415333D01*
X108147957Y-147411221D01*
X107924221Y-147329787D01*
X109356133Y-147850961D02*
X108819166Y-147655521D01*
X109087650Y-147753241D02*
X109429670Y-146813548D01*
X109291315Y-146915217D01*
X109169247Y-146972138D01*
X109063466Y-146984312D01*
X110251079Y-148176694D02*
X109714111Y-147981254D01*
X109982595Y-148078974D02*
X110324615Y-147139282D01*
X110186261Y-147240950D01*
X110064193Y-147297871D01*
X109958412Y-147310045D01*
%TO.C,D12*%
X126974221Y-147329787D02*
X127316241Y-146390095D01*
X127539977Y-146471528D01*
X127657932Y-146565135D01*
X127714854Y-146687203D01*
X127727027Y-146792984D01*
X127706628Y-146988260D01*
X127657768Y-147122502D01*
X127547874Y-147285204D01*
X127470553Y-147358412D01*
X127348486Y-147415333D01*
X127197957Y-147411221D01*
X126974221Y-147329787D01*
X128406133Y-147850961D02*
X127869166Y-147655521D01*
X128137650Y-147753241D02*
X128479670Y-146813548D01*
X128341315Y-146915217D01*
X128219247Y-146972138D01*
X128113466Y-146984312D01*
X129073558Y-147131056D02*
X129134592Y-147102596D01*
X129240373Y-147090422D01*
X129464110Y-147171855D01*
X129537318Y-147249176D01*
X129565778Y-147310210D01*
X129577952Y-147415991D01*
X129545379Y-147505485D01*
X129451772Y-147623441D01*
X128719364Y-147964968D01*
X129301079Y-148176694D01*
%TO.C,SW1*%
X90106666Y-75334761D02*
X90249523Y-75382380D01*
X90487619Y-75382380D01*
X90582857Y-75334761D01*
X90630476Y-75287142D01*
X90678095Y-75191904D01*
X90678095Y-75096666D01*
X90630476Y-75001428D01*
X90582857Y-74953809D01*
X90487619Y-74906190D01*
X90297142Y-74858571D01*
X90201904Y-74810952D01*
X90154285Y-74763333D01*
X90106666Y-74668095D01*
X90106666Y-74572857D01*
X90154285Y-74477619D01*
X90201904Y-74430000D01*
X90297142Y-74382380D01*
X90535238Y-74382380D01*
X90678095Y-74430000D01*
X91011428Y-74382380D02*
X91249523Y-75382380D01*
X91440000Y-74668095D01*
X91630476Y-75382380D01*
X91868571Y-74382380D01*
X92773333Y-75382380D02*
X92201904Y-75382380D01*
X92487619Y-75382380D02*
X92487619Y-74382380D01*
X92392380Y-74525238D01*
X92297142Y-74620476D01*
X92201904Y-74668095D01*
%TO.C,SW2*%
X109156666Y-75334761D02*
X109299523Y-75382380D01*
X109537619Y-75382380D01*
X109632857Y-75334761D01*
X109680476Y-75287142D01*
X109728095Y-75191904D01*
X109728095Y-75096666D01*
X109680476Y-75001428D01*
X109632857Y-74953809D01*
X109537619Y-74906190D01*
X109347142Y-74858571D01*
X109251904Y-74810952D01*
X109204285Y-74763333D01*
X109156666Y-74668095D01*
X109156666Y-74572857D01*
X109204285Y-74477619D01*
X109251904Y-74430000D01*
X109347142Y-74382380D01*
X109585238Y-74382380D01*
X109728095Y-74430000D01*
X110061428Y-74382380D02*
X110299523Y-75382380D01*
X110490000Y-74668095D01*
X110680476Y-75382380D01*
X110918571Y-74382380D01*
X111251904Y-74477619D02*
X111299523Y-74430000D01*
X111394761Y-74382380D01*
X111632857Y-74382380D01*
X111728095Y-74430000D01*
X111775714Y-74477619D01*
X111823333Y-74572857D01*
X111823333Y-74668095D01*
X111775714Y-74810952D01*
X111204285Y-75382380D01*
X111823333Y-75382380D01*
%TO.C,SW3*%
X128206666Y-75334761D02*
X128349523Y-75382380D01*
X128587619Y-75382380D01*
X128682857Y-75334761D01*
X128730476Y-75287142D01*
X128778095Y-75191904D01*
X128778095Y-75096666D01*
X128730476Y-75001428D01*
X128682857Y-74953809D01*
X128587619Y-74906190D01*
X128397142Y-74858571D01*
X128301904Y-74810952D01*
X128254285Y-74763333D01*
X128206666Y-74668095D01*
X128206666Y-74572857D01*
X128254285Y-74477619D01*
X128301904Y-74430000D01*
X128397142Y-74382380D01*
X128635238Y-74382380D01*
X128778095Y-74430000D01*
X129111428Y-74382380D02*
X129349523Y-75382380D01*
X129540000Y-74668095D01*
X129730476Y-75382380D01*
X129968571Y-74382380D01*
X130254285Y-74382380D02*
X130873333Y-74382380D01*
X130540000Y-74763333D01*
X130682857Y-74763333D01*
X130778095Y-74810952D01*
X130825714Y-74858571D01*
X130873333Y-74953809D01*
X130873333Y-75191904D01*
X130825714Y-75287142D01*
X130778095Y-75334761D01*
X130682857Y-75382380D01*
X130397142Y-75382380D01*
X130301904Y-75334761D01*
X130254285Y-75287142D01*
%TO.C,SW4*%
X90106666Y-94384761D02*
X90249523Y-94432380D01*
X90487619Y-94432380D01*
X90582857Y-94384761D01*
X90630476Y-94337142D01*
X90678095Y-94241904D01*
X90678095Y-94146666D01*
X90630476Y-94051428D01*
X90582857Y-94003809D01*
X90487619Y-93956190D01*
X90297142Y-93908571D01*
X90201904Y-93860952D01*
X90154285Y-93813333D01*
X90106666Y-93718095D01*
X90106666Y-93622857D01*
X90154285Y-93527619D01*
X90201904Y-93480000D01*
X90297142Y-93432380D01*
X90535238Y-93432380D01*
X90678095Y-93480000D01*
X91011428Y-93432380D02*
X91249523Y-94432380D01*
X91440000Y-93718095D01*
X91630476Y-94432380D01*
X91868571Y-93432380D01*
X92678095Y-93765714D02*
X92678095Y-94432380D01*
X92440000Y-93384761D02*
X92201904Y-94099047D01*
X92820952Y-94099047D01*
%TO.C,SW5*%
X109156666Y-94384761D02*
X109299523Y-94432380D01*
X109537619Y-94432380D01*
X109632857Y-94384761D01*
X109680476Y-94337142D01*
X109728095Y-94241904D01*
X109728095Y-94146666D01*
X109680476Y-94051428D01*
X109632857Y-94003809D01*
X109537619Y-93956190D01*
X109347142Y-93908571D01*
X109251904Y-93860952D01*
X109204285Y-93813333D01*
X109156666Y-93718095D01*
X109156666Y-93622857D01*
X109204285Y-93527619D01*
X109251904Y-93480000D01*
X109347142Y-93432380D01*
X109585238Y-93432380D01*
X109728095Y-93480000D01*
X110061428Y-93432380D02*
X110299523Y-94432380D01*
X110490000Y-93718095D01*
X110680476Y-94432380D01*
X110918571Y-93432380D01*
X111775714Y-93432380D02*
X111299523Y-93432380D01*
X111251904Y-93908571D01*
X111299523Y-93860952D01*
X111394761Y-93813333D01*
X111632857Y-93813333D01*
X111728095Y-93860952D01*
X111775714Y-93908571D01*
X111823333Y-94003809D01*
X111823333Y-94241904D01*
X111775714Y-94337142D01*
X111728095Y-94384761D01*
X111632857Y-94432380D01*
X111394761Y-94432380D01*
X111299523Y-94384761D01*
X111251904Y-94337142D01*
%TO.C,SW6*%
X128206666Y-94384761D02*
X128349523Y-94432380D01*
X128587619Y-94432380D01*
X128682857Y-94384761D01*
X128730476Y-94337142D01*
X128778095Y-94241904D01*
X128778095Y-94146666D01*
X128730476Y-94051428D01*
X128682857Y-94003809D01*
X128587619Y-93956190D01*
X128397142Y-93908571D01*
X128301904Y-93860952D01*
X128254285Y-93813333D01*
X128206666Y-93718095D01*
X128206666Y-93622857D01*
X128254285Y-93527619D01*
X128301904Y-93480000D01*
X128397142Y-93432380D01*
X128635238Y-93432380D01*
X128778095Y-93480000D01*
X129111428Y-93432380D02*
X129349523Y-94432380D01*
X129540000Y-93718095D01*
X129730476Y-94432380D01*
X129968571Y-93432380D01*
X130778095Y-93432380D02*
X130587619Y-93432380D01*
X130492380Y-93480000D01*
X130444761Y-93527619D01*
X130349523Y-93670476D01*
X130301904Y-93860952D01*
X130301904Y-94241904D01*
X130349523Y-94337142D01*
X130397142Y-94384761D01*
X130492380Y-94432380D01*
X130682857Y-94432380D01*
X130778095Y-94384761D01*
X130825714Y-94337142D01*
X130873333Y-94241904D01*
X130873333Y-94003809D01*
X130825714Y-93908571D01*
X130778095Y-93860952D01*
X130682857Y-93813333D01*
X130492380Y-93813333D01*
X130397142Y-93860952D01*
X130349523Y-93908571D01*
X130301904Y-94003809D01*
%TO.C,SW7*%
X90106666Y-113434761D02*
X90249523Y-113482380D01*
X90487619Y-113482380D01*
X90582857Y-113434761D01*
X90630476Y-113387142D01*
X90678095Y-113291904D01*
X90678095Y-113196666D01*
X90630476Y-113101428D01*
X90582857Y-113053809D01*
X90487619Y-113006190D01*
X90297142Y-112958571D01*
X90201904Y-112910952D01*
X90154285Y-112863333D01*
X90106666Y-112768095D01*
X90106666Y-112672857D01*
X90154285Y-112577619D01*
X90201904Y-112530000D01*
X90297142Y-112482380D01*
X90535238Y-112482380D01*
X90678095Y-112530000D01*
X91011428Y-112482380D02*
X91249523Y-113482380D01*
X91440000Y-112768095D01*
X91630476Y-113482380D01*
X91868571Y-112482380D01*
X92154285Y-112482380D02*
X92820952Y-112482380D01*
X92392380Y-113482380D01*
%TO.C,SW8*%
X109156666Y-113434761D02*
X109299523Y-113482380D01*
X109537619Y-113482380D01*
X109632857Y-113434761D01*
X109680476Y-113387142D01*
X109728095Y-113291904D01*
X109728095Y-113196666D01*
X109680476Y-113101428D01*
X109632857Y-113053809D01*
X109537619Y-113006190D01*
X109347142Y-112958571D01*
X109251904Y-112910952D01*
X109204285Y-112863333D01*
X109156666Y-112768095D01*
X109156666Y-112672857D01*
X109204285Y-112577619D01*
X109251904Y-112530000D01*
X109347142Y-112482380D01*
X109585238Y-112482380D01*
X109728095Y-112530000D01*
X110061428Y-112482380D02*
X110299523Y-113482380D01*
X110490000Y-112768095D01*
X110680476Y-113482380D01*
X110918571Y-112482380D01*
X111442380Y-112910952D02*
X111347142Y-112863333D01*
X111299523Y-112815714D01*
X111251904Y-112720476D01*
X111251904Y-112672857D01*
X111299523Y-112577619D01*
X111347142Y-112530000D01*
X111442380Y-112482380D01*
X111632857Y-112482380D01*
X111728095Y-112530000D01*
X111775714Y-112577619D01*
X111823333Y-112672857D01*
X111823333Y-112720476D01*
X111775714Y-112815714D01*
X111728095Y-112863333D01*
X111632857Y-112910952D01*
X111442380Y-112910952D01*
X111347142Y-112958571D01*
X111299523Y-113006190D01*
X111251904Y-113101428D01*
X111251904Y-113291904D01*
X111299523Y-113387142D01*
X111347142Y-113434761D01*
X111442380Y-113482380D01*
X111632857Y-113482380D01*
X111728095Y-113434761D01*
X111775714Y-113387142D01*
X111823333Y-113291904D01*
X111823333Y-113101428D01*
X111775714Y-113006190D01*
X111728095Y-112958571D01*
X111632857Y-112910952D01*
%TO.C,SW9*%
X128206666Y-113434761D02*
X128349523Y-113482380D01*
X128587619Y-113482380D01*
X128682857Y-113434761D01*
X128730476Y-113387142D01*
X128778095Y-113291904D01*
X128778095Y-113196666D01*
X128730476Y-113101428D01*
X128682857Y-113053809D01*
X128587619Y-113006190D01*
X128397142Y-112958571D01*
X128301904Y-112910952D01*
X128254285Y-112863333D01*
X128206666Y-112768095D01*
X128206666Y-112672857D01*
X128254285Y-112577619D01*
X128301904Y-112530000D01*
X128397142Y-112482380D01*
X128635238Y-112482380D01*
X128778095Y-112530000D01*
X129111428Y-112482380D02*
X129349523Y-113482380D01*
X129540000Y-112768095D01*
X129730476Y-113482380D01*
X129968571Y-112482380D01*
X130397142Y-113482380D02*
X130587619Y-113482380D01*
X130682857Y-113434761D01*
X130730476Y-113387142D01*
X130825714Y-113244285D01*
X130873333Y-113053809D01*
X130873333Y-112672857D01*
X130825714Y-112577619D01*
X130778095Y-112530000D01*
X130682857Y-112482380D01*
X130492380Y-112482380D01*
X130397142Y-112530000D01*
X130349523Y-112577619D01*
X130301904Y-112672857D01*
X130301904Y-112910952D01*
X130349523Y-113006190D01*
X130397142Y-113053809D01*
X130492380Y-113101428D01*
X130682857Y-113101428D01*
X130778095Y-113053809D01*
X130825714Y-113006190D01*
X130873333Y-112910952D01*
%TO.C,SW10*%
X89630476Y-132484761D02*
X89773333Y-132532380D01*
X90011428Y-132532380D01*
X90106666Y-132484761D01*
X90154285Y-132437142D01*
X90201904Y-132341904D01*
X90201904Y-132246666D01*
X90154285Y-132151428D01*
X90106666Y-132103809D01*
X90011428Y-132056190D01*
X89820952Y-132008571D01*
X89725714Y-131960952D01*
X89678095Y-131913333D01*
X89630476Y-131818095D01*
X89630476Y-131722857D01*
X89678095Y-131627619D01*
X89725714Y-131580000D01*
X89820952Y-131532380D01*
X90059047Y-131532380D01*
X90201904Y-131580000D01*
X90535238Y-131532380D02*
X90773333Y-132532380D01*
X90963809Y-131818095D01*
X91154285Y-132532380D01*
X91392380Y-131532380D01*
X92297142Y-132532380D02*
X91725714Y-132532380D01*
X92011428Y-132532380D02*
X92011428Y-131532380D01*
X91916190Y-131675238D01*
X91820952Y-131770476D01*
X91725714Y-131818095D01*
X92916190Y-131532380D02*
X93011428Y-131532380D01*
X93106666Y-131580000D01*
X93154285Y-131627619D01*
X93201904Y-131722857D01*
X93249523Y-131913333D01*
X93249523Y-132151428D01*
X93201904Y-132341904D01*
X93154285Y-132437142D01*
X93106666Y-132484761D01*
X93011428Y-132532380D01*
X92916190Y-132532380D01*
X92820952Y-132484761D01*
X92773333Y-132437142D01*
X92725714Y-132341904D01*
X92678095Y-132151428D01*
X92678095Y-131913333D01*
X92725714Y-131722857D01*
X92773333Y-131627619D01*
X92820952Y-131580000D01*
X92916190Y-131532380D01*
%TO.C,SW11*%
X108680476Y-132484761D02*
X108823333Y-132532380D01*
X109061428Y-132532380D01*
X109156666Y-132484761D01*
X109204285Y-132437142D01*
X109251904Y-132341904D01*
X109251904Y-132246666D01*
X109204285Y-132151428D01*
X109156666Y-132103809D01*
X109061428Y-132056190D01*
X108870952Y-132008571D01*
X108775714Y-131960952D01*
X108728095Y-131913333D01*
X108680476Y-131818095D01*
X108680476Y-131722857D01*
X108728095Y-131627619D01*
X108775714Y-131580000D01*
X108870952Y-131532380D01*
X109109047Y-131532380D01*
X109251904Y-131580000D01*
X109585238Y-131532380D02*
X109823333Y-132532380D01*
X110013809Y-131818095D01*
X110204285Y-132532380D01*
X110442380Y-131532380D01*
X111347142Y-132532380D02*
X110775714Y-132532380D01*
X111061428Y-132532380D02*
X111061428Y-131532380D01*
X110966190Y-131675238D01*
X110870952Y-131770476D01*
X110775714Y-131818095D01*
X112299523Y-132532380D02*
X111728095Y-132532380D01*
X112013809Y-132532380D02*
X112013809Y-131532380D01*
X111918571Y-131675238D01*
X111823333Y-131770476D01*
X111728095Y-131818095D01*
%TO.C,SW12*%
X127730476Y-132484761D02*
X127873333Y-132532380D01*
X128111428Y-132532380D01*
X128206666Y-132484761D01*
X128254285Y-132437142D01*
X128301904Y-132341904D01*
X128301904Y-132246666D01*
X128254285Y-132151428D01*
X128206666Y-132103809D01*
X128111428Y-132056190D01*
X127920952Y-132008571D01*
X127825714Y-131960952D01*
X127778095Y-131913333D01*
X127730476Y-131818095D01*
X127730476Y-131722857D01*
X127778095Y-131627619D01*
X127825714Y-131580000D01*
X127920952Y-131532380D01*
X128159047Y-131532380D01*
X128301904Y-131580000D01*
X128635238Y-131532380D02*
X128873333Y-132532380D01*
X129063809Y-131818095D01*
X129254285Y-132532380D01*
X129492380Y-131532380D01*
X130397142Y-132532380D02*
X129825714Y-132532380D01*
X130111428Y-132532380D02*
X130111428Y-131532380D01*
X130016190Y-131675238D01*
X129920952Y-131770476D01*
X129825714Y-131818095D01*
X130778095Y-131627619D02*
X130825714Y-131580000D01*
X130920952Y-131532380D01*
X131159047Y-131532380D01*
X131254285Y-131580000D01*
X131301904Y-131627619D01*
X131349523Y-131722857D01*
X131349523Y-131818095D01*
X131301904Y-131960952D01*
X130730476Y-132532380D01*
X131349523Y-132532380D01*
%TO.C,SW13*%
X150590476Y-56284761D02*
X150733333Y-56332380D01*
X150971428Y-56332380D01*
X151066666Y-56284761D01*
X151114285Y-56237142D01*
X151161904Y-56141904D01*
X151161904Y-56046666D01*
X151114285Y-55951428D01*
X151066666Y-55903809D01*
X150971428Y-55856190D01*
X150780952Y-55808571D01*
X150685714Y-55760952D01*
X150638095Y-55713333D01*
X150590476Y-55618095D01*
X150590476Y-55522857D01*
X150638095Y-55427619D01*
X150685714Y-55380000D01*
X150780952Y-55332380D01*
X151019047Y-55332380D01*
X151161904Y-55380000D01*
X151495238Y-55332380D02*
X151733333Y-56332380D01*
X151923809Y-55618095D01*
X152114285Y-56332380D01*
X152352380Y-55332380D01*
X153257142Y-56332380D02*
X152685714Y-56332380D01*
X152971428Y-56332380D02*
X152971428Y-55332380D01*
X152876190Y-55475238D01*
X152780952Y-55570476D01*
X152685714Y-55618095D01*
X153590476Y-55332380D02*
X154209523Y-55332380D01*
X153876190Y-55713333D01*
X154019047Y-55713333D01*
X154114285Y-55760952D01*
X154161904Y-55808571D01*
X154209523Y-55903809D01*
X154209523Y-56141904D01*
X154161904Y-56237142D01*
X154114285Y-56284761D01*
X154019047Y-56332380D01*
X153733333Y-56332380D01*
X153638095Y-56284761D01*
X153590476Y-56237142D01*
%TO.C,SW14*%
X150590476Y-75334761D02*
X150733333Y-75382380D01*
X150971428Y-75382380D01*
X151066666Y-75334761D01*
X151114285Y-75287142D01*
X151161904Y-75191904D01*
X151161904Y-75096666D01*
X151114285Y-75001428D01*
X151066666Y-74953809D01*
X150971428Y-74906190D01*
X150780952Y-74858571D01*
X150685714Y-74810952D01*
X150638095Y-74763333D01*
X150590476Y-74668095D01*
X150590476Y-74572857D01*
X150638095Y-74477619D01*
X150685714Y-74430000D01*
X150780952Y-74382380D01*
X151019047Y-74382380D01*
X151161904Y-74430000D01*
X151495238Y-74382380D02*
X151733333Y-75382380D01*
X151923809Y-74668095D01*
X152114285Y-75382380D01*
X152352380Y-74382380D01*
X153257142Y-75382380D02*
X152685714Y-75382380D01*
X152971428Y-75382380D02*
X152971428Y-74382380D01*
X152876190Y-74525238D01*
X152780952Y-74620476D01*
X152685714Y-74668095D01*
X154114285Y-74715714D02*
X154114285Y-75382380D01*
X153876190Y-74334761D02*
X153638095Y-75049047D01*
X154257142Y-75049047D01*
%TO.C,SW15*%
X150590476Y-94384761D02*
X150733333Y-94432380D01*
X150971428Y-94432380D01*
X151066666Y-94384761D01*
X151114285Y-94337142D01*
X151161904Y-94241904D01*
X151161904Y-94146666D01*
X151114285Y-94051428D01*
X151066666Y-94003809D01*
X150971428Y-93956190D01*
X150780952Y-93908571D01*
X150685714Y-93860952D01*
X150638095Y-93813333D01*
X150590476Y-93718095D01*
X150590476Y-93622857D01*
X150638095Y-93527619D01*
X150685714Y-93480000D01*
X150780952Y-93432380D01*
X151019047Y-93432380D01*
X151161904Y-93480000D01*
X151495238Y-93432380D02*
X151733333Y-94432380D01*
X151923809Y-93718095D01*
X152114285Y-94432380D01*
X152352380Y-93432380D01*
X153257142Y-94432380D02*
X152685714Y-94432380D01*
X152971428Y-94432380D02*
X152971428Y-93432380D01*
X152876190Y-93575238D01*
X152780952Y-93670476D01*
X152685714Y-93718095D01*
X154161904Y-93432380D02*
X153685714Y-93432380D01*
X153638095Y-93908571D01*
X153685714Y-93860952D01*
X153780952Y-93813333D01*
X154019047Y-93813333D01*
X154114285Y-93860952D01*
X154161904Y-93908571D01*
X154209523Y-94003809D01*
X154209523Y-94241904D01*
X154161904Y-94337142D01*
X154114285Y-94384761D01*
X154019047Y-94432380D01*
X153780952Y-94432380D01*
X153685714Y-94384761D01*
X153638095Y-94337142D01*
%TO.C,SW16*%
X150590476Y-113434761D02*
X150733333Y-113482380D01*
X150971428Y-113482380D01*
X151066666Y-113434761D01*
X151114285Y-113387142D01*
X151161904Y-113291904D01*
X151161904Y-113196666D01*
X151114285Y-113101428D01*
X151066666Y-113053809D01*
X150971428Y-113006190D01*
X150780952Y-112958571D01*
X150685714Y-112910952D01*
X150638095Y-112863333D01*
X150590476Y-112768095D01*
X150590476Y-112672857D01*
X150638095Y-112577619D01*
X150685714Y-112530000D01*
X150780952Y-112482380D01*
X151019047Y-112482380D01*
X151161904Y-112530000D01*
X151495238Y-112482380D02*
X151733333Y-113482380D01*
X151923809Y-112768095D01*
X152114285Y-113482380D01*
X152352380Y-112482380D01*
X153257142Y-113482380D02*
X152685714Y-113482380D01*
X152971428Y-113482380D02*
X152971428Y-112482380D01*
X152876190Y-112625238D01*
X152780952Y-112720476D01*
X152685714Y-112768095D01*
X154114285Y-112482380D02*
X153923809Y-112482380D01*
X153828571Y-112530000D01*
X153780952Y-112577619D01*
X153685714Y-112720476D01*
X153638095Y-112910952D01*
X153638095Y-113291904D01*
X153685714Y-113387142D01*
X153733333Y-113434761D01*
X153828571Y-113482380D01*
X154019047Y-113482380D01*
X154114285Y-113434761D01*
X154161904Y-113387142D01*
X154209523Y-113291904D01*
X154209523Y-113053809D01*
X154161904Y-112958571D01*
X154114285Y-112910952D01*
X154019047Y-112863333D01*
X153828571Y-112863333D01*
X153733333Y-112910952D01*
X153685714Y-112958571D01*
X153638095Y-113053809D01*
%TO.C,SW17*%
X150590476Y-132484761D02*
X150733333Y-132532380D01*
X150971428Y-132532380D01*
X151066666Y-132484761D01*
X151114285Y-132437142D01*
X151161904Y-132341904D01*
X151161904Y-132246666D01*
X151114285Y-132151428D01*
X151066666Y-132103809D01*
X150971428Y-132056190D01*
X150780952Y-132008571D01*
X150685714Y-131960952D01*
X150638095Y-131913333D01*
X150590476Y-131818095D01*
X150590476Y-131722857D01*
X150638095Y-131627619D01*
X150685714Y-131580000D01*
X150780952Y-131532380D01*
X151019047Y-131532380D01*
X151161904Y-131580000D01*
X151495238Y-131532380D02*
X151733333Y-132532380D01*
X151923809Y-131818095D01*
X152114285Y-132532380D01*
X152352380Y-131532380D01*
X153257142Y-132532380D02*
X152685714Y-132532380D01*
X152971428Y-132532380D02*
X152971428Y-131532380D01*
X152876190Y-131675238D01*
X152780952Y-131770476D01*
X152685714Y-131818095D01*
X153590476Y-131532380D02*
X154257142Y-131532380D01*
X153828571Y-132532380D01*
%TD*%
M02*
