%TF.GenerationSoftware,KiCad,Pcbnew,(5.1.9)-1*%
%TF.CreationDate,2021-05-15T20:55:52-04:00*%
%TF.ProjectId,UFC,5546432e-6b69-4636-9164-5f7063625858,rev?*%
%TF.SameCoordinates,Original*%
%TF.FileFunction,Soldermask,Bot*%
%TF.FilePolarity,Negative*%
%FSLAX46Y46*%
G04 Gerber Fmt 4.6, Leading zero omitted, Abs format (unit mm)*
G04 Created by KiCad (PCBNEW (5.1.9)-1) date 2021-05-15 20:55:52*
%MOMM*%
%LPD*%
G01*
G04 APERTURE LIST*
%ADD10O,1.700000X1.700000*%
%ADD11R,1.700000X1.700000*%
%ADD12C,3.200000*%
%ADD13C,1.524000*%
%ADD14C,1.700000*%
%ADD15C,1.500000*%
%ADD16C,4.000000*%
%ADD17C,3.000000*%
G04 APERTURE END LIST*
D10*
%TO.C,J9*%
X107315000Y-50800000D03*
X109855000Y-50800000D03*
X112395000Y-50800000D03*
X114935000Y-50800000D03*
X117475000Y-50800000D03*
X120015000Y-50800000D03*
X122555000Y-50800000D03*
X125095000Y-50800000D03*
X127635000Y-50800000D03*
X130175000Y-50800000D03*
X132715000Y-50800000D03*
X135255000Y-50800000D03*
X137795000Y-50800000D03*
X140335000Y-50800000D03*
X142875000Y-50800000D03*
X145415000Y-50800000D03*
X147955000Y-50800000D03*
X150495000Y-50800000D03*
X153035000Y-50800000D03*
X155575000Y-50800000D03*
X158115000Y-50800000D03*
X160655000Y-50800000D03*
X163195000Y-50800000D03*
X165735000Y-50800000D03*
X168275000Y-50800000D03*
X170815000Y-50800000D03*
X173355000Y-50800000D03*
X175895000Y-50800000D03*
X178435000Y-50800000D03*
D11*
X180975000Y-50800000D03*
%TD*%
D12*
%TO.C,MH4*%
X78740000Y-148590000D03*
%TD*%
%TO.C,MH3*%
X213360000Y-148590000D03*
%TD*%
%TO.C,MH2*%
X210820000Y-52070000D03*
%TD*%
%TO.C,MH1*%
X74930000Y-52070000D03*
%TD*%
D13*
%TO.C,DS2*%
X204470000Y-69660000D03*
X201930000Y-69660000D03*
X199390000Y-69660000D03*
X196850000Y-69660000D03*
X194310000Y-69660000D03*
X191770000Y-69660000D03*
X179070000Y-69660000D03*
X176530000Y-69660000D03*
X173990000Y-69660000D03*
X171450000Y-69660000D03*
X168910000Y-69660000D03*
X166370000Y-69660000D03*
X204470000Y-57340000D03*
X201930000Y-57340000D03*
X199390000Y-57340000D03*
X196850000Y-57340000D03*
X194310000Y-57340000D03*
X191770000Y-57340000D03*
X179070000Y-57340000D03*
X176530000Y-57340000D03*
X173990000Y-57340000D03*
X171450000Y-57340000D03*
X168910000Y-57340000D03*
X166370000Y-57340000D03*
%TD*%
D10*
%TO.C,J7*%
X215900000Y-138430000D03*
X215900000Y-135890000D03*
X215900000Y-133350000D03*
X215900000Y-130810000D03*
X215900000Y-128270000D03*
X215900000Y-125730000D03*
X215900000Y-123190000D03*
X215900000Y-120650000D03*
X215900000Y-118110000D03*
X215900000Y-115570000D03*
X215900000Y-113030000D03*
X215900000Y-110490000D03*
X215900000Y-107950000D03*
X215900000Y-105410000D03*
X215900000Y-102870000D03*
X215900000Y-100330000D03*
X215900000Y-97790000D03*
X215900000Y-95250000D03*
X215900000Y-92710000D03*
X215900000Y-90170000D03*
X215900000Y-87630000D03*
X215900000Y-85090000D03*
X215900000Y-82550000D03*
X215900000Y-80010000D03*
X215900000Y-77470000D03*
X215900000Y-74930000D03*
X215900000Y-72390000D03*
X215900000Y-69850000D03*
X215900000Y-67310000D03*
X215900000Y-64770000D03*
X215900000Y-62230000D03*
X215900000Y-59690000D03*
D11*
X215900000Y-57150000D03*
%TD*%
D10*
%TO.C,J5*%
X74930000Y-118110000D03*
X74930000Y-115570000D03*
X74930000Y-113030000D03*
X74930000Y-110490000D03*
X74930000Y-107950000D03*
X74930000Y-105410000D03*
X74930000Y-102870000D03*
X74930000Y-100330000D03*
D11*
X74930000Y-97790000D03*
%TD*%
D10*
%TO.C,J3*%
X74930000Y-90170000D03*
X74930000Y-87630000D03*
D11*
X74930000Y-85090000D03*
%TD*%
D13*
%TO.C,DS5*%
X204470000Y-126810000D03*
X201930000Y-126810000D03*
X199390000Y-126810000D03*
X196850000Y-126810000D03*
X194310000Y-126810000D03*
X191770000Y-126810000D03*
X179070000Y-126810000D03*
X176530000Y-126810000D03*
X173990000Y-126810000D03*
X171450000Y-126810000D03*
X168910000Y-126810000D03*
X166370000Y-126810000D03*
X204470000Y-114490000D03*
X201930000Y-114490000D03*
X199390000Y-114490000D03*
X196850000Y-114490000D03*
X194310000Y-114490000D03*
X191770000Y-114490000D03*
X179070000Y-114490000D03*
X176530000Y-114490000D03*
X173990000Y-114490000D03*
X171450000Y-114490000D03*
X168910000Y-114490000D03*
X166370000Y-114490000D03*
%TD*%
%TO.C,DS4*%
X204470000Y-107760000D03*
X201930000Y-107760000D03*
X199390000Y-107760000D03*
X196850000Y-107760000D03*
X194310000Y-107760000D03*
X191770000Y-107760000D03*
X179070000Y-107760000D03*
X176530000Y-107760000D03*
X173990000Y-107760000D03*
X171450000Y-107760000D03*
X168910000Y-107760000D03*
X166370000Y-107760000D03*
X204470000Y-95440000D03*
X201930000Y-95440000D03*
X199390000Y-95440000D03*
X196850000Y-95440000D03*
X194310000Y-95440000D03*
X191770000Y-95440000D03*
X179070000Y-95440000D03*
X176530000Y-95440000D03*
X173990000Y-95440000D03*
X171450000Y-95440000D03*
X168910000Y-95440000D03*
X166370000Y-95440000D03*
%TD*%
%TO.C,DS3*%
X204470000Y-88710000D03*
X201930000Y-88710000D03*
X199390000Y-88710000D03*
X196850000Y-88710000D03*
X194310000Y-88710000D03*
X191770000Y-88710000D03*
X179070000Y-88710000D03*
X176530000Y-88710000D03*
X173990000Y-88710000D03*
X171450000Y-88710000D03*
X168910000Y-88710000D03*
X166370000Y-88710000D03*
X204470000Y-76390000D03*
X201930000Y-76390000D03*
X199390000Y-76390000D03*
X196850000Y-76390000D03*
X194310000Y-76390000D03*
X191770000Y-76390000D03*
X179070000Y-76390000D03*
X176530000Y-76390000D03*
X173990000Y-76390000D03*
X171450000Y-76390000D03*
X168910000Y-76390000D03*
X166370000Y-76390000D03*
%TD*%
D14*
%TO.C,DS1*%
X135380000Y-70362000D03*
X132840000Y-70362000D03*
X130300000Y-70362000D03*
X127760000Y-70362000D03*
X125220000Y-70362000D03*
X122680000Y-70362000D03*
X120140000Y-70362000D03*
X112780000Y-70362000D03*
X110240000Y-70362000D03*
X107700000Y-70362000D03*
X105160000Y-70362000D03*
X102620000Y-70362000D03*
X93600000Y-70362000D03*
X91060000Y-70362000D03*
X88520000Y-70362000D03*
X85980000Y-70362000D03*
X135380000Y-57152000D03*
X132840000Y-57152000D03*
X130300000Y-57152000D03*
X127760000Y-57152000D03*
X125220000Y-57152000D03*
X122680000Y-57152000D03*
X120140000Y-57152000D03*
X103760000Y-57152000D03*
X101220000Y-57152000D03*
X98680000Y-57152000D03*
X96140000Y-57152000D03*
X93600000Y-57152000D03*
X91060000Y-57152000D03*
X88520000Y-57152000D03*
X85980000Y-57152000D03*
%TD*%
D13*
%TO.C,DS6*%
X204470000Y-145860000D03*
X201930000Y-145860000D03*
X199390000Y-145860000D03*
X196850000Y-145860000D03*
X194310000Y-145860000D03*
X191770000Y-145860000D03*
X179070000Y-145860000D03*
X176530000Y-145860000D03*
X173990000Y-145860000D03*
X171450000Y-145860000D03*
X168910000Y-145860000D03*
X166370000Y-145860000D03*
X204470000Y-133540000D03*
X201930000Y-133540000D03*
X199390000Y-133540000D03*
X196850000Y-133540000D03*
X194310000Y-133540000D03*
X191770000Y-133540000D03*
X179070000Y-133540000D03*
X176530000Y-133540000D03*
X173990000Y-133540000D03*
X171450000Y-133540000D03*
X168910000Y-133540000D03*
X166370000Y-133540000D03*
%TD*%
D15*
%TO.C,D17*%
X148590000Y-147951040D03*
X153363639Y-149688502D03*
%TD*%
%TO.C,D16*%
X148590000Y-128901040D03*
X153363639Y-130638502D03*
%TD*%
%TO.C,D15*%
X148590000Y-109851040D03*
X153363639Y-111588502D03*
%TD*%
%TO.C,D14*%
X148590000Y-90801040D03*
X153363639Y-92538502D03*
%TD*%
%TO.C,D13*%
X148590000Y-71751040D03*
X153363639Y-73488502D03*
%TD*%
%TO.C,D1*%
X87630000Y-90801040D03*
X92403639Y-92538502D03*
%TD*%
%TO.C,D2*%
X106680000Y-90801040D03*
X111453639Y-92538502D03*
%TD*%
%TO.C,D3*%
X125730000Y-90801040D03*
X130503639Y-92538502D03*
%TD*%
%TO.C,D4*%
X87630000Y-109851040D03*
X92403639Y-111588502D03*
%TD*%
%TO.C,D5*%
X106680000Y-109851040D03*
X111453639Y-111588502D03*
%TD*%
%TO.C,D6*%
X125730000Y-109851040D03*
X130503639Y-111588502D03*
%TD*%
%TO.C,D7*%
X87630000Y-128901040D03*
X92403639Y-130638502D03*
%TD*%
%TO.C,D8*%
X106680000Y-128901040D03*
X111453639Y-130638502D03*
%TD*%
%TO.C,D9*%
X125730000Y-128901040D03*
X130503639Y-130638502D03*
%TD*%
%TO.C,D10*%
X87630000Y-147951040D03*
X92403639Y-149688502D03*
%TD*%
%TO.C,D11*%
X106680000Y-147951040D03*
X111453639Y-149688502D03*
%TD*%
%TO.C,D12*%
X125730000Y-147951040D03*
X130503639Y-149688502D03*
%TD*%
D16*
%TO.C,SW1*%
X91440000Y-82550000D03*
D17*
X87630000Y-80010000D03*
X93980000Y-77470000D03*
%TD*%
D16*
%TO.C,SW2*%
X110490000Y-82550000D03*
D17*
X106680000Y-80010000D03*
X113030000Y-77470000D03*
%TD*%
D16*
%TO.C,SW3*%
X129540000Y-82550000D03*
D17*
X125730000Y-80010000D03*
X132080000Y-77470000D03*
%TD*%
D16*
%TO.C,SW4*%
X91440000Y-101600000D03*
D17*
X87630000Y-99060000D03*
X93980000Y-96520000D03*
%TD*%
D16*
%TO.C,SW5*%
X110490000Y-101600000D03*
D17*
X106680000Y-99060000D03*
X113030000Y-96520000D03*
%TD*%
D16*
%TO.C,SW6*%
X129540000Y-101600000D03*
D17*
X125730000Y-99060000D03*
X132080000Y-96520000D03*
%TD*%
D16*
%TO.C,SW7*%
X91440000Y-120650000D03*
D17*
X87630000Y-118110000D03*
X93980000Y-115570000D03*
%TD*%
D16*
%TO.C,SW8*%
X110490000Y-120650000D03*
D17*
X106680000Y-118110000D03*
X113030000Y-115570000D03*
%TD*%
D16*
%TO.C,SW9*%
X129540000Y-120650000D03*
D17*
X125730000Y-118110000D03*
X132080000Y-115570000D03*
%TD*%
D16*
%TO.C,SW10*%
X91440000Y-139700000D03*
D17*
X87630000Y-137160000D03*
X93980000Y-134620000D03*
%TD*%
D16*
%TO.C,SW11*%
X110490000Y-139700000D03*
D17*
X106680000Y-137160000D03*
X113030000Y-134620000D03*
%TD*%
D16*
%TO.C,SW12*%
X129540000Y-139700000D03*
D17*
X125730000Y-137160000D03*
X132080000Y-134620000D03*
%TD*%
D16*
%TO.C,SW13*%
X152400000Y-63500000D03*
D17*
X148590000Y-60960000D03*
X154940000Y-58420000D03*
%TD*%
D16*
%TO.C,SW14*%
X152400000Y-82550000D03*
D17*
X148590000Y-80010000D03*
X154940000Y-77470000D03*
%TD*%
D16*
%TO.C,SW15*%
X152400000Y-101600000D03*
D17*
X148590000Y-99060000D03*
X154940000Y-96520000D03*
%TD*%
D16*
%TO.C,SW16*%
X152400000Y-120650000D03*
D17*
X148590000Y-118110000D03*
X154940000Y-115570000D03*
%TD*%
D16*
%TO.C,SW17*%
X152400000Y-139700000D03*
D17*
X148590000Y-137160000D03*
X154940000Y-134620000D03*
%TD*%
M02*
