M48
; DRILL file {KiCad (5.1.9)-1} date 05/14/21 22:38:41
; FORMAT={-:-/ absolute / inch / decimal}
; #@! TF.CreationDate,2021-05-14T22:38:41-04:00
; #@! TF.GenerationSoftware,Kicad,Pcbnew,(5.1.9)-1
; #@! TF.FileFunction,NonPlated,1,2,NPTH
FMAT,2
INCH
T1C0.0197
T2C0.1575
%
G90
G05
T1
X2.7715Y-3.4243
X2.7727Y-4.1081
X2.7991Y-3.4243
X2.8003Y-4.1081
X2.8267Y-3.4243
X2.8278Y-4.1081
X2.8542Y-3.4243
X2.8554Y-4.1081
X2.8818Y-3.4243
X2.883Y-4.1081
X2.9093Y-3.4243
X2.9105Y-4.1081
X2.9369Y-3.4243
X2.9381Y-4.1081
X2.968Y-3.4227
X2.968Y-4.1078
X2.9975Y-3.4227
X2.9975Y-4.1078
X3.0271Y-3.4227
X3.0271Y-4.1078
X3.0554Y-4.2258
X3.0554Y-4.2534
X3.0554Y-4.2809
X3.0554Y-4.3085
X3.0554Y-4.3361
X3.0554Y-4.3636
X3.0554Y-4.3912
X3.0566Y-3.3341
X3.0566Y-3.3637
X3.0566Y-3.3932
X3.0566Y-3.4463
X3.0566Y-3.4759
X3.0566Y-3.5054
X3.0566Y-4.0251
X3.0566Y-4.0546
X3.0566Y-4.0841
X3.0566Y-4.1373
X3.0566Y-4.1668
X3.0566Y-4.1963
X3.0802Y-3.4227
X3.0802Y-4.1078
X3.1097Y-3.4227
X3.1097Y-4.1078
X3.1393Y-3.4227
X3.1393Y-4.1078
X3.3613Y-4.8561
X3.3889Y-4.8561
X3.4164Y-4.8561
X3.444Y-4.8561
X3.4606Y-4.2087
X3.4715Y-4.8561
X3.4765Y-4.1111
X3.4902Y-4.2087
X3.4991Y-4.8561
X3.504Y-4.1111
X3.5197Y-4.2087
X3.5267Y-4.8561
X3.5316Y-4.1111
X3.5433Y-4.2323
X3.5433Y-4.2618
X3.5433Y-4.2913
X3.5571Y-4.8543
X3.5591Y-4.1111
X3.5866Y-4.8543
X3.5867Y-4.1111
X3.5945Y-4.2087
X3.6143Y-4.1111
X3.6161Y-4.8543
X3.6418Y-4.1111
X3.6452Y-4.9731
X3.6452Y-5.0006
X3.6452Y-5.0282
X3.6452Y-5.0557
X3.6452Y-5.0833
X3.6452Y-5.1109
X3.6452Y-5.1384
X3.6457Y-4.2323
X3.6457Y-4.2618
X3.6457Y-4.2913
X3.6457Y-4.7717
X3.6457Y-4.8012
X3.6457Y-4.8307
X3.6457Y-4.8839
X3.6457Y-4.9134
X3.6457Y-4.9429
X3.6693Y-4.2087
X3.6693Y-4.8543
X3.6765Y-4.1111
X3.6988Y-4.2087
X3.6988Y-4.8543
X3.704Y-4.1111
X3.7283Y-4.2087
X3.7283Y-4.8543
X3.7316Y-4.1111
X3.7421Y-3.3204
X3.7421Y-3.4227
X3.7717Y-3.3204
X3.7717Y-3.4227
X3.8012Y-3.3204
X3.8012Y-3.4227
X4.0822Y-4.1078
X4.0822Y-4.2101
X4.0991Y-5.6786
X4.1117Y-4.1078
X4.1117Y-4.2101
X4.1267Y-5.6786
X4.1412Y-4.1078
X4.1412Y-4.2101
X4.1542Y-5.6786
X4.1818Y-5.6786
X4.1969Y-4.9567
X4.2015Y-4.8611
X4.2093Y-5.6786
X4.2264Y-4.9567
X4.229Y-4.8611
X4.2369Y-5.6786
X4.2559Y-4.9567
X4.2566Y-4.8611
X4.2644Y-5.6786
X4.2795Y-4.9803
X4.2795Y-5.0098
X4.2795Y-5.0394
X4.2841Y-4.8611
X4.2933Y-5.6772
X4.3117Y-4.8611
X4.3228Y-5.6772
X4.3307Y-4.9567
X4.3393Y-4.8611
X4.3524Y-5.6772
X4.3668Y-4.8611
X4.3819Y-4.9803
X4.3819Y-5.0098
X4.3819Y-5.0394
X4.3819Y-5.5945
X4.3819Y-5.624
X4.3819Y-5.6535
X4.3819Y-5.7067
X4.3819Y-5.7362
X4.3819Y-5.7657
X4.4015Y-4.8611
X4.4055Y-4.9567
X4.4055Y-5.6772
X4.429Y-4.8611
X4.435Y-4.9567
X4.435Y-5.6772
X4.4566Y-4.8611
X4.4646Y-4.9567
X4.4646Y-5.6772
X4.7357Y-4.1078
X4.7357Y-4.2101
X4.7653Y-4.1078
X4.7653Y-4.2101
X4.7948Y-4.1078
X4.7948Y-4.2101
X4.8578Y-4.8558
X4.8578Y-4.9581
X4.8873Y-4.8558
X4.8873Y-4.9581
X4.9168Y-4.8558
X4.9168Y-4.9581
X5.2717Y-3.4267
X5.2717Y-4.1078
X5.2717Y-4.2101
X5.2717Y-5.6772
X5.2731Y-4.8558
X5.2731Y-4.9581
X5.3012Y-3.4267
X5.3012Y-4.1078
X5.3012Y-4.2101
X5.3012Y-5.6772
X5.3027Y-4.8558
X5.3027Y-4.9581
X5.3307Y-3.4267
X5.3307Y-4.1078
X5.3307Y-4.2101
X5.3307Y-5.6772
X5.3322Y-4.8558
X5.3322Y-4.9581
X5.3543Y-3.3381
X5.3543Y-3.3676
X5.3543Y-3.3971
X5.3543Y-3.4503
X5.3543Y-3.4798
X5.3543Y-3.5093
X5.3543Y-4.0251
X5.3543Y-4.0546
X5.3543Y-4.0841
X5.3543Y-4.1589
X5.3543Y-4.2337
X5.3543Y-4.2633
X5.3543Y-4.2928
X5.3543Y-5.5945
X5.3543Y-5.624
X5.3543Y-5.6535
X5.3543Y-5.7067
X5.3543Y-5.7362
X5.3543Y-5.7657
X5.3558Y-4.7731
X5.3558Y-4.8026
X5.3558Y-4.8322
X5.3558Y-4.907
X5.3558Y-4.9818
X5.3558Y-5.0113
X5.3558Y-5.0408
X5.3839Y-3.4267
X5.3839Y-5.6772
X5.4134Y-3.4267
X5.4134Y-5.6772
X5.4429Y-3.4267
X5.4429Y-5.6772
X5.4723Y-5.6762
X5.4763Y-3.4282
X5.4999Y-5.6762
X5.5117Y-3.4282
X5.5274Y-5.6762
X5.5432Y-3.4282
X5.555Y-5.6762
X5.5747Y-3.4282
X5.5826Y-5.6762
X5.6062Y-3.4282
X5.6101Y-5.6762
X5.6377Y-3.4282
X5.6377Y-5.6762
T2
X3.1456Y-3.1211
X5.2715Y-3.1211
T0
M30
