G04 #@! TF.GenerationSoftware,KiCad,Pcbnew,(5.1.9)-1*
G04 #@! TF.CreationDate,2021-05-14T22:38:37-04:00*
G04 #@! TF.ProjectId,PanelizedDisplays,50616e65-6c69-47a6-9564-446973706c61,rev?*
G04 #@! TF.SameCoordinates,Original*
G04 #@! TF.FileFunction,Legend,Top*
G04 #@! TF.FilePolarity,Positive*
%FSLAX46Y46*%
G04 Gerber Fmt 4.6, Leading zero omitted, Abs format (unit mm)*
G04 Created by KiCad (PCBNEW (5.1.9)-1) date 2021-05-14 22:38:37*
%MOMM*%
%LPD*%
G01*
G04 APERTURE LIST*
%ADD10C,0.120000*%
%ADD11C,0.100000*%
%ADD12C,0.150000*%
G04 APERTURE END LIST*
D10*
X97920316Y-87092451D02*
G75*
G02*
X97900001Y-84187001I379684J1455451D01*
G01*
X93679684Y-84181549D02*
G75*
G02*
X93699999Y-87086999I-379684J-1455451D01*
G01*
X132578590Y-84281263D02*
G75*
G02*
X132600000Y-87187000I-378590J-1455737D01*
G01*
X135844263Y-90458410D02*
G75*
G02*
X138750000Y-90437000I1455737J-378590D01*
G01*
X138755737Y-140778590D02*
G75*
G02*
X135850000Y-140800000I-1455737J378590D01*
G01*
X132578590Y-144044263D02*
G75*
G02*
X132600000Y-146950000I-378590J-1455737D01*
G01*
X114721410Y-146955737D02*
G75*
G02*
X114700000Y-144050000I378590J1455737D01*
G01*
X111455737Y-140778590D02*
G75*
G02*
X108550000Y-140800000I-1455737J378590D01*
G01*
X96021410Y-126055737D02*
G75*
G02*
X96000000Y-123150000I378590J1455737D01*
G01*
X92755737Y-119878590D02*
G75*
G02*
X89850000Y-119900000I-1455737J378590D01*
G01*
X86578590Y-104144263D02*
G75*
G02*
X86600000Y-107050000I-378590J-1455737D01*
G01*
X96021410Y-107055737D02*
G75*
G02*
X96000000Y-104150000I378590J1455737D01*
G01*
X89844263Y-110321410D02*
G75*
G02*
X92750000Y-110300000I1455737J-378590D01*
G01*
X138755737Y-100915590D02*
G75*
G02*
X135850000Y-100937000I-1455737J378590D01*
G01*
X135844263Y-110358410D02*
G75*
G02*
X138750000Y-110337000I1455737J-378590D01*
G01*
X132578590Y-104181263D02*
G75*
G02*
X132600000Y-107087000I-378590J-1455737D01*
G01*
X105278590Y-123144263D02*
G75*
G02*
X105300000Y-126050000I-378590J-1455737D01*
G01*
X114721410Y-126055737D02*
G75*
G02*
X114700000Y-123150000I378590J1455737D01*
G01*
X108544263Y-129321410D02*
G75*
G02*
X111450000Y-129300000I1455737J-378590D01*
G01*
X81058910Y-107092737D02*
G75*
G02*
X81037500Y-104187000I378590J1455737D01*
G01*
X77793237Y-100915590D02*
G75*
G02*
X74887500Y-100937000I-1455737J378590D01*
G01*
X74881763Y-90358410D02*
G75*
G02*
X77787500Y-90337000I1455737J-378590D01*
G01*
X81058910Y-87092737D02*
G75*
G02*
X81037500Y-84187000I378590J1455737D01*
G01*
X126257816Y-126092451D02*
G75*
G02*
X126237501Y-123187001I379684J1455451D01*
G01*
X122017184Y-123181549D02*
G75*
G02*
X122037499Y-126086999I-379684J-1455451D01*
G01*
X106557816Y-107092451D02*
G75*
G02*
X106537501Y-104187001I379684J1455451D01*
G01*
X102317184Y-104181549D02*
G75*
G02*
X102337499Y-107086999I-379684J-1455451D01*
G01*
X123157816Y-107092451D02*
G75*
G02*
X123137501Y-104187001I379684J1455451D01*
G01*
X118917184Y-104181549D02*
G75*
G02*
X118937499Y-107086999I-379684J-1455451D01*
G01*
X138793237Y-119915590D02*
G75*
G02*
X135887500Y-119937000I-1455737J378590D01*
G01*
X135881763Y-129358410D02*
G75*
G02*
X138787500Y-129337000I1455737J-378590D01*
G01*
X132616090Y-123181263D02*
G75*
G02*
X132637500Y-126087000I-378590J-1455737D01*
G01*
D11*
X120572000Y-132415500D02*
G75*
G03*
X120572000Y-132415500I-50000J0D01*
G01*
D10*
X112210500Y-142079500D02*
X112210500Y-140749500D01*
X112210500Y-140749500D02*
X113540500Y-140749500D01*
X114810500Y-140749500D02*
X135190500Y-140749500D01*
X135190500Y-143409500D02*
X135190500Y-140749500D01*
X114810500Y-143409500D02*
X135190500Y-143409500D01*
X114810500Y-143409500D02*
X114810500Y-140749500D01*
X112210500Y-128109500D02*
X112210500Y-126779500D01*
X112210500Y-126779500D02*
X113540500Y-126779500D01*
X114810500Y-126779500D02*
X135190500Y-126779500D01*
X135190500Y-129439500D02*
X135190500Y-126779500D01*
X114810500Y-129439500D02*
X135190500Y-129439500D01*
X114810500Y-129439500D02*
X114810500Y-126779500D01*
D11*
X124244500Y-131918000D02*
G75*
G03*
X124244500Y-131918000I-50000J0D01*
G01*
X126922000Y-132415500D02*
G75*
G03*
X126922000Y-132415500I-50000J0D01*
G01*
X126105246Y-132734754D02*
G75*
G03*
X126105246Y-132734754I-50000J0D01*
G01*
X124244500Y-138268000D02*
G75*
G03*
X124244500Y-138268000I-50000J0D01*
G01*
X124563754Y-135909754D02*
G75*
G03*
X124563754Y-135909754I-50000J0D01*
G01*
X122930246Y-135909754D02*
G75*
G03*
X122930246Y-135909754I-50000J0D01*
G01*
X121388754Y-132734754D02*
G75*
G03*
X121388754Y-132734754I-50000J0D01*
G01*
X123249500Y-135093000D02*
G75*
G03*
X123249500Y-135093000I-50000J0D01*
G01*
X123249500Y-138268000D02*
G75*
G03*
X123249500Y-138268000I-50000J0D01*
G01*
X123747000Y-132415500D02*
G75*
G03*
X123747000Y-132415500I-50000J0D01*
G01*
X124244500Y-135093000D02*
G75*
G03*
X124244500Y-135093000I-50000J0D01*
G01*
X123747000Y-135590500D02*
G75*
G03*
X123747000Y-135590500I-50000J0D01*
G01*
X120572000Y-135590500D02*
G75*
G03*
X120572000Y-135590500I-50000J0D01*
G01*
X123249500Y-131918000D02*
G75*
G03*
X123249500Y-131918000I-50000J0D01*
G01*
X126922000Y-135590500D02*
G75*
G03*
X126922000Y-135590500I-50000J0D01*
G01*
D10*
X97903000Y-102262000D02*
X97903000Y-100932000D01*
X97903000Y-100932000D02*
X99233000Y-100932000D01*
X100503000Y-100932000D02*
X110723000Y-100932000D01*
X110723000Y-103592000D02*
X110723000Y-100932000D01*
X100503000Y-103592000D02*
X110723000Y-103592000D01*
X100503000Y-103592000D02*
X100503000Y-100932000D01*
X115429000Y-102262000D02*
X115429000Y-100932000D01*
X115429000Y-100932000D02*
X116759000Y-100932000D01*
X118029000Y-100932000D02*
X133329000Y-100932000D01*
X133329000Y-103592000D02*
X133329000Y-100932000D01*
X118029000Y-103592000D02*
X133329000Y-103592000D01*
X118029000Y-103592000D02*
X118029000Y-100932000D01*
X115429000Y-89054000D02*
X115429000Y-87724000D01*
X115429000Y-87724000D02*
X116759000Y-87724000D01*
X118029000Y-87724000D02*
X133329000Y-87724000D01*
X133329000Y-90384000D02*
X133329000Y-87724000D01*
X118029000Y-90384000D02*
X133329000Y-90384000D01*
X118029000Y-90384000D02*
X118029000Y-87724000D01*
X81266000Y-102262000D02*
X81266000Y-100932000D01*
X81266000Y-100932000D02*
X82596000Y-100932000D01*
X83866000Y-100932000D02*
X91546000Y-100932000D01*
X91546000Y-103592000D02*
X91546000Y-100932000D01*
X83866000Y-103592000D02*
X91546000Y-103592000D01*
X83866000Y-103592000D02*
X83866000Y-100932000D01*
X81266000Y-89054000D02*
X81266000Y-87724000D01*
X81266000Y-87724000D02*
X82596000Y-87724000D01*
X83866000Y-87724000D02*
X101706000Y-87724000D01*
X101706000Y-90384000D02*
X101706000Y-87724000D01*
X83866000Y-90384000D02*
X101706000Y-90384000D01*
X83866000Y-90384000D02*
X83866000Y-87724000D01*
D11*
X91536000Y-95167500D02*
G75*
G03*
X91536000Y-95167500I-50000J0D01*
G01*
X94213500Y-92490000D02*
G75*
G03*
X94213500Y-92490000I-50000J0D01*
G01*
X91038500Y-98840000D02*
G75*
G03*
X91038500Y-98840000I-50000J0D01*
G01*
X90719246Y-96481754D02*
G75*
G03*
X90719246Y-96481754I-50000J0D01*
G01*
X94213500Y-95665000D02*
G75*
G03*
X94213500Y-95665000I-50000J0D01*
G01*
X93894246Y-98023246D02*
G75*
G03*
X93894246Y-98023246I-50000J0D01*
G01*
X93894246Y-93306754D02*
G75*
G03*
X93894246Y-93306754I-50000J0D01*
G01*
X94213500Y-98840000D02*
G75*
G03*
X94213500Y-98840000I-50000J0D01*
G01*
X94711000Y-95167500D02*
G75*
G03*
X94711000Y-95167500I-50000J0D01*
G01*
X91536000Y-96162500D02*
G75*
G03*
X91536000Y-96162500I-50000J0D01*
G01*
X94711000Y-96162500D02*
G75*
G03*
X94711000Y-96162500I-50000J0D01*
G01*
X88361000Y-95167500D02*
G75*
G03*
X88361000Y-95167500I-50000J0D01*
G01*
X91038500Y-92490000D02*
G75*
G03*
X91038500Y-92490000I-50000J0D01*
G01*
X91038500Y-95665000D02*
G75*
G03*
X91038500Y-95665000I-50000J0D01*
G01*
X90719246Y-94848246D02*
G75*
G03*
X90719246Y-94848246I-50000J0D01*
G01*
X88361000Y-96162500D02*
G75*
G03*
X88361000Y-96162500I-50000J0D01*
G01*
X85970746Y-93306254D02*
G75*
G03*
X85970746Y-93306254I-50000J0D01*
G01*
X82795746Y-94847746D02*
G75*
G03*
X82795746Y-94847746I-50000J0D01*
G01*
X85970746Y-98022746D02*
G75*
G03*
X85970746Y-98022746I-50000J0D01*
G01*
X86290000Y-92489500D02*
G75*
G03*
X86290000Y-92489500I-50000J0D01*
G01*
X86290000Y-95664500D02*
G75*
G03*
X86290000Y-95664500I-50000J0D01*
G01*
X83612500Y-96162000D02*
G75*
G03*
X83612500Y-96162000I-50000J0D01*
G01*
X83115000Y-95664500D02*
G75*
G03*
X83115000Y-95664500I-50000J0D01*
G01*
X83115000Y-98839500D02*
G75*
G03*
X83115000Y-98839500I-50000J0D01*
G01*
X86787500Y-95167000D02*
G75*
G03*
X86787500Y-95167000I-50000J0D01*
G01*
X82795746Y-96481254D02*
G75*
G03*
X82795746Y-96481254I-50000J0D01*
G01*
X86787500Y-96162000D02*
G75*
G03*
X86787500Y-96162000I-50000J0D01*
G01*
X83612500Y-95167000D02*
G75*
G03*
X83612500Y-95167000I-50000J0D01*
G01*
X86290000Y-98839500D02*
G75*
G03*
X86290000Y-98839500I-50000J0D01*
G01*
X83115000Y-92489500D02*
G75*
G03*
X83115000Y-92489500I-50000J0D01*
G01*
X80437500Y-96162000D02*
G75*
G03*
X80437500Y-96162000I-50000J0D01*
G01*
X80437500Y-95167000D02*
G75*
G03*
X80437500Y-95167000I-50000J0D01*
G01*
X96399125Y-92490000D02*
G75*
G03*
X96399125Y-92490000I-50000J0D01*
G01*
X98679750Y-92987500D02*
G75*
G03*
X98679750Y-92987500I-50000J0D01*
G01*
X98679750Y-96162500D02*
G75*
G03*
X98679750Y-96162500I-50000J0D01*
G01*
X96399125Y-98840000D02*
G75*
G03*
X96399125Y-98840000I-50000J0D01*
G01*
X96298500Y-96162500D02*
G75*
G03*
X96298500Y-96162500I-50000J0D01*
G01*
X96298500Y-92987500D02*
G75*
G03*
X96298500Y-92987500I-50000J0D01*
G01*
X98579125Y-95665000D02*
G75*
G03*
X98579125Y-95665000I-50000J0D01*
G01*
X100764750Y-92490000D02*
G75*
G03*
X100764750Y-92490000I-50000J0D01*
G01*
X103045375Y-92987500D02*
G75*
G03*
X103045375Y-92987500I-50000J0D01*
G01*
X103045375Y-96162500D02*
G75*
G03*
X103045375Y-96162500I-50000J0D01*
G01*
X100764750Y-98840000D02*
G75*
G03*
X100764750Y-98840000I-50000J0D01*
G01*
X100664125Y-96162500D02*
G75*
G03*
X100664125Y-96162500I-50000J0D01*
G01*
X100664125Y-92987500D02*
G75*
G03*
X100664125Y-92987500I-50000J0D01*
G01*
X102944750Y-95665000D02*
G75*
G03*
X102944750Y-95665000I-50000J0D01*
G01*
X105130375Y-92490000D02*
G75*
G03*
X105130375Y-92490000I-50000J0D01*
G01*
X107411000Y-92987500D02*
G75*
G03*
X107411000Y-92987500I-50000J0D01*
G01*
X107411000Y-96162500D02*
G75*
G03*
X107411000Y-96162500I-50000J0D01*
G01*
X105130375Y-98840000D02*
G75*
G03*
X105130375Y-98840000I-50000J0D01*
G01*
X105029750Y-96162500D02*
G75*
G03*
X105029750Y-96162500I-50000J0D01*
G01*
X105029750Y-92987500D02*
G75*
G03*
X105029750Y-92987500I-50000J0D01*
G01*
X107310375Y-95665000D02*
G75*
G03*
X107310375Y-95665000I-50000J0D01*
G01*
X109496000Y-92490000D02*
G75*
G03*
X109496000Y-92490000I-50000J0D01*
G01*
X111776625Y-92987500D02*
G75*
G03*
X111776625Y-92987500I-50000J0D01*
G01*
X111776625Y-96162500D02*
G75*
G03*
X111776625Y-96162500I-50000J0D01*
G01*
X109496000Y-98840000D02*
G75*
G03*
X109496000Y-98840000I-50000J0D01*
G01*
X109395375Y-96162500D02*
G75*
G03*
X109395375Y-96162500I-50000J0D01*
G01*
X109395375Y-92987500D02*
G75*
G03*
X109395375Y-92987500I-50000J0D01*
G01*
X111676000Y-95665000D02*
G75*
G03*
X111676000Y-95665000I-50000J0D01*
G01*
X113861625Y-92490000D02*
G75*
G03*
X113861625Y-92490000I-50000J0D01*
G01*
X116142250Y-92987500D02*
G75*
G03*
X116142250Y-92987500I-50000J0D01*
G01*
X116142250Y-96162500D02*
G75*
G03*
X116142250Y-96162500I-50000J0D01*
G01*
X113861625Y-98840000D02*
G75*
G03*
X113861625Y-98840000I-50000J0D01*
G01*
X113761000Y-96162500D02*
G75*
G03*
X113761000Y-96162500I-50000J0D01*
G01*
X113761000Y-92987500D02*
G75*
G03*
X113761000Y-92987500I-50000J0D01*
G01*
X113861625Y-95665000D02*
G75*
G03*
X113861625Y-95665000I-50000J0D01*
G01*
X118227250Y-92490000D02*
G75*
G03*
X118227250Y-92490000I-50000J0D01*
G01*
X120507875Y-92987500D02*
G75*
G03*
X120507875Y-92987500I-50000J0D01*
G01*
X120507875Y-96162500D02*
G75*
G03*
X120507875Y-96162500I-50000J0D01*
G01*
X118227250Y-98840000D02*
G75*
G03*
X118227250Y-98840000I-50000J0D01*
G01*
X118126625Y-96162500D02*
G75*
G03*
X118126625Y-96162500I-50000J0D01*
G01*
X118126625Y-92987500D02*
G75*
G03*
X118126625Y-92987500I-50000J0D01*
G01*
X118227250Y-95665000D02*
G75*
G03*
X118227250Y-95665000I-50000J0D01*
G01*
X122592875Y-92490000D02*
G75*
G03*
X122592875Y-92490000I-50000J0D01*
G01*
X124873500Y-92987500D02*
G75*
G03*
X124873500Y-92987500I-50000J0D01*
G01*
X124873500Y-96162500D02*
G75*
G03*
X124873500Y-96162500I-50000J0D01*
G01*
X122592875Y-98840000D02*
G75*
G03*
X122592875Y-98840000I-50000J0D01*
G01*
X122492250Y-96162500D02*
G75*
G03*
X122492250Y-96162500I-50000J0D01*
G01*
X122492250Y-92987500D02*
G75*
G03*
X122492250Y-92987500I-50000J0D01*
G01*
X122592875Y-95665000D02*
G75*
G03*
X122592875Y-95665000I-50000J0D01*
G01*
X126958500Y-92490000D02*
G75*
G03*
X126958500Y-92490000I-50000J0D01*
G01*
X129239125Y-92987500D02*
G75*
G03*
X129239125Y-92987500I-50000J0D01*
G01*
X129239125Y-96162500D02*
G75*
G03*
X129239125Y-96162500I-50000J0D01*
G01*
X126958500Y-98840000D02*
G75*
G03*
X126958500Y-98840000I-50000J0D01*
G01*
X126857875Y-96162500D02*
G75*
G03*
X126857875Y-96162500I-50000J0D01*
G01*
X126857875Y-92987500D02*
G75*
G03*
X126857875Y-92987500I-50000J0D01*
G01*
X126958500Y-95665000D02*
G75*
G03*
X126958500Y-95665000I-50000J0D01*
G01*
X131324125Y-92490000D02*
G75*
G03*
X131324125Y-92490000I-50000J0D01*
G01*
X133604750Y-92987500D02*
G75*
G03*
X133604750Y-92987500I-50000J0D01*
G01*
X133604750Y-96162500D02*
G75*
G03*
X133604750Y-96162500I-50000J0D01*
G01*
X131324125Y-98840000D02*
G75*
G03*
X131324125Y-98840000I-50000J0D01*
G01*
X131223500Y-96162500D02*
G75*
G03*
X131223500Y-96162500I-50000J0D01*
G01*
X131223500Y-92987500D02*
G75*
G03*
X131223500Y-92987500I-50000J0D01*
G01*
X131324125Y-95665000D02*
G75*
G03*
X131324125Y-95665000I-50000J0D01*
G01*
D10*
X134845000Y-122631000D02*
X134845000Y-119971000D01*
X122085000Y-122631000D02*
X134845000Y-122631000D01*
X122085000Y-119971000D02*
X134845000Y-119971000D01*
X122085000Y-122631000D02*
X122085000Y-119971000D01*
X120815000Y-122631000D02*
X119485000Y-122631000D01*
X119485000Y-122631000D02*
X119485000Y-121301000D01*
X109445000Y-122631000D02*
X109445000Y-119971000D01*
X96685000Y-122631000D02*
X109445000Y-122631000D01*
X96685000Y-119971000D02*
X109445000Y-119971000D01*
X96685000Y-122631000D02*
X96685000Y-119971000D01*
X95415000Y-122631000D02*
X94085000Y-122631000D01*
X94085000Y-122631000D02*
X94085000Y-121301000D01*
X134845000Y-110312000D02*
X134845000Y-107652000D01*
X122085000Y-110312000D02*
X134845000Y-110312000D01*
X122085000Y-107652000D02*
X134845000Y-107652000D01*
X122085000Y-110312000D02*
X122085000Y-107652000D01*
X120815000Y-110312000D02*
X119485000Y-110312000D01*
X119485000Y-110312000D02*
X119485000Y-108982000D01*
X109445000Y-110312000D02*
X109445000Y-107652000D01*
X96685000Y-110312000D02*
X109445000Y-110312000D01*
X96685000Y-107652000D02*
X109445000Y-107652000D01*
X96685000Y-110312000D02*
X96685000Y-107652000D01*
X95415000Y-110312000D02*
X94085000Y-110312000D01*
X94085000Y-110312000D02*
X94085000Y-108982000D01*
D11*
X96843500Y-112461000D02*
G75*
G03*
X96843500Y-112461000I-50000J0D01*
G01*
X96843500Y-117816000D02*
G75*
G03*
X96843500Y-117816000I-50000J0D01*
G01*
X97341500Y-111963500D02*
G75*
G03*
X97341500Y-111963500I-50000J0D01*
G01*
X99202246Y-114321746D02*
G75*
G03*
X99202246Y-114321746I-50000J0D01*
G01*
X99521500Y-115138500D02*
G75*
G03*
X99521500Y-115138500I-50000J0D01*
G01*
X99202246Y-115955254D02*
G75*
G03*
X99202246Y-115955254I-50000J0D01*
G01*
X97341500Y-118313500D02*
G75*
G03*
X97341500Y-118313500I-50000J0D01*
G01*
X100019500Y-112461000D02*
G75*
G03*
X100019500Y-112461000I-50000J0D01*
G01*
X100019500Y-115636000D02*
G75*
G03*
X100019500Y-115636000I-50000J0D01*
G01*
X100516500Y-111963500D02*
G75*
G03*
X100516500Y-111963500I-50000J0D01*
G01*
X100835754Y-114321746D02*
G75*
G03*
X100835754Y-114321746I-50000J0D01*
G01*
X100516500Y-115138500D02*
G75*
G03*
X100516500Y-115138500I-50000J0D01*
G01*
X100835754Y-115955254D02*
G75*
G03*
X100835754Y-115955254I-50000J0D01*
G01*
X100516500Y-118313500D02*
G75*
G03*
X100516500Y-118313500I-50000J0D01*
G01*
X103193500Y-112461000D02*
G75*
G03*
X103193500Y-112461000I-50000J0D01*
G01*
X103193500Y-117816000D02*
G75*
G03*
X103193500Y-117816000I-50000J0D01*
G01*
X107003500Y-112461000D02*
G75*
G03*
X107003500Y-112461000I-50000J0D01*
G01*
X107003500Y-117816000D02*
G75*
G03*
X107003500Y-117816000I-50000J0D01*
G01*
X107501500Y-111963500D02*
G75*
G03*
X107501500Y-111963500I-50000J0D01*
G01*
X109362246Y-114321746D02*
G75*
G03*
X109362246Y-114321746I-50000J0D01*
G01*
X109681500Y-115138500D02*
G75*
G03*
X109681500Y-115138500I-50000J0D01*
G01*
X109362246Y-115955254D02*
G75*
G03*
X109362246Y-115955254I-50000J0D01*
G01*
X107501500Y-118313500D02*
G75*
G03*
X107501500Y-118313500I-50000J0D01*
G01*
X110179500Y-112461000D02*
G75*
G03*
X110179500Y-112461000I-50000J0D01*
G01*
X110179500Y-115636000D02*
G75*
G03*
X110179500Y-115636000I-50000J0D01*
G01*
X110676500Y-111963500D02*
G75*
G03*
X110676500Y-111963500I-50000J0D01*
G01*
X110995754Y-114321746D02*
G75*
G03*
X110995754Y-114321746I-50000J0D01*
G01*
X110676500Y-115138500D02*
G75*
G03*
X110676500Y-115138500I-50000J0D01*
G01*
X110995754Y-115955254D02*
G75*
G03*
X110995754Y-115955254I-50000J0D01*
G01*
X110676500Y-118313500D02*
G75*
G03*
X110676500Y-118313500I-50000J0D01*
G01*
X113353500Y-112461000D02*
G75*
G03*
X113353500Y-112461000I-50000J0D01*
G01*
X113353500Y-117816000D02*
G75*
G03*
X113353500Y-117816000I-50000J0D01*
G01*
X117163500Y-112461000D02*
G75*
G03*
X117163500Y-112461000I-50000J0D01*
G01*
X117163500Y-117816000D02*
G75*
G03*
X117163500Y-117816000I-50000J0D01*
G01*
X117661500Y-111963500D02*
G75*
G03*
X117661500Y-111963500I-50000J0D01*
G01*
X119522246Y-114321746D02*
G75*
G03*
X119522246Y-114321746I-50000J0D01*
G01*
X119841500Y-115138500D02*
G75*
G03*
X119841500Y-115138500I-50000J0D01*
G01*
X119522246Y-115955254D02*
G75*
G03*
X119522246Y-115955254I-50000J0D01*
G01*
X117661500Y-118313500D02*
G75*
G03*
X117661500Y-118313500I-50000J0D01*
G01*
X120339500Y-112461000D02*
G75*
G03*
X120339500Y-112461000I-50000J0D01*
G01*
X120339500Y-115636000D02*
G75*
G03*
X120339500Y-115636000I-50000J0D01*
G01*
X120836500Y-111963500D02*
G75*
G03*
X120836500Y-111963500I-50000J0D01*
G01*
X121155754Y-114321746D02*
G75*
G03*
X121155754Y-114321746I-50000J0D01*
G01*
X120836500Y-115138500D02*
G75*
G03*
X120836500Y-115138500I-50000J0D01*
G01*
X121155754Y-115955254D02*
G75*
G03*
X121155754Y-115955254I-50000J0D01*
G01*
X120836500Y-118313500D02*
G75*
G03*
X120836500Y-118313500I-50000J0D01*
G01*
X123513500Y-112461000D02*
G75*
G03*
X123513500Y-112461000I-50000J0D01*
G01*
X123513500Y-117816000D02*
G75*
G03*
X123513500Y-117816000I-50000J0D01*
G01*
X127323500Y-112461000D02*
G75*
G03*
X127323500Y-112461000I-50000J0D01*
G01*
X127323500Y-117816000D02*
G75*
G03*
X127323500Y-117816000I-50000J0D01*
G01*
X127821500Y-111963500D02*
G75*
G03*
X127821500Y-111963500I-50000J0D01*
G01*
X129682246Y-114321746D02*
G75*
G03*
X129682246Y-114321746I-50000J0D01*
G01*
X130001500Y-115138500D02*
G75*
G03*
X130001500Y-115138500I-50000J0D01*
G01*
X129682246Y-115955254D02*
G75*
G03*
X129682246Y-115955254I-50000J0D01*
G01*
X127821500Y-118313500D02*
G75*
G03*
X127821500Y-118313500I-50000J0D01*
G01*
X130499500Y-112461000D02*
G75*
G03*
X130499500Y-112461000I-50000J0D01*
G01*
X130499500Y-115639000D02*
G75*
G03*
X130499500Y-115639000I-50000J0D01*
G01*
X133176500Y-111963500D02*
G75*
G03*
X133176500Y-111963500I-50000J0D01*
G01*
X131315754Y-114321746D02*
G75*
G03*
X131315754Y-114321746I-50000J0D01*
G01*
X130996500Y-115138500D02*
G75*
G03*
X130996500Y-115138500I-50000J0D01*
G01*
X131315754Y-115955254D02*
G75*
G03*
X131315754Y-115955254I-50000J0D01*
G01*
X130996500Y-118313500D02*
G75*
G03*
X130996500Y-118313500I-50000J0D01*
G01*
X133673500Y-112461000D02*
G75*
G03*
X133673500Y-112461000I-50000J0D01*
G01*
X133673500Y-117816000D02*
G75*
G03*
X133673500Y-117816000I-50000J0D01*
G01*
X93669500Y-112461000D02*
G75*
G03*
X93669500Y-112461000I-50000J0D01*
G01*
X93669500Y-115636000D02*
G75*
G03*
X93669500Y-115636000I-50000J0D01*
G01*
D12*
X132563666Y-82728380D02*
X132230333Y-82252190D01*
X131992238Y-82728380D02*
X131992238Y-81728380D01*
X132373190Y-81728380D01*
X132468428Y-81776000D01*
X132516047Y-81823619D01*
X132563666Y-81918857D01*
X132563666Y-82061714D01*
X132516047Y-82156952D01*
X132468428Y-82204571D01*
X132373190Y-82252190D01*
X131992238Y-82252190D01*
X132992238Y-82204571D02*
X133325571Y-82204571D01*
X133468428Y-82728380D02*
X132992238Y-82728380D01*
X132992238Y-81728380D01*
X133468428Y-81728380D01*
X134230333Y-82204571D02*
X133897000Y-82204571D01*
X133897000Y-82728380D02*
X133897000Y-81728380D01*
X134373190Y-81728380D01*
X134897000Y-81728380D02*
X134897000Y-81966476D01*
X134658904Y-81871238D02*
X134897000Y-81966476D01*
X135135095Y-81871238D01*
X134754142Y-82156952D02*
X134897000Y-81966476D01*
X135039857Y-82156952D01*
X135658904Y-81728380D02*
X135658904Y-81966476D01*
X135420809Y-81871238D02*
X135658904Y-81966476D01*
X135897000Y-81871238D01*
X135516047Y-82156952D02*
X135658904Y-81966476D01*
X135801761Y-82156952D01*
X78563666Y-82728380D02*
X78230333Y-82252190D01*
X77992238Y-82728380D02*
X77992238Y-81728380D01*
X78373190Y-81728380D01*
X78468428Y-81776000D01*
X78516047Y-81823619D01*
X78563666Y-81918857D01*
X78563666Y-82061714D01*
X78516047Y-82156952D01*
X78468428Y-82204571D01*
X78373190Y-82252190D01*
X77992238Y-82252190D01*
X78992238Y-82204571D02*
X79325571Y-82204571D01*
X79468428Y-82728380D02*
X78992238Y-82728380D01*
X78992238Y-81728380D01*
X79468428Y-81728380D01*
X80230333Y-82204571D02*
X79897000Y-82204571D01*
X79897000Y-82728380D02*
X79897000Y-81728380D01*
X80373190Y-81728380D01*
X80897000Y-81728380D02*
X80897000Y-81966476D01*
X80658904Y-81871238D02*
X80897000Y-81966476D01*
X81135095Y-81871238D01*
X80754142Y-82156952D02*
X80897000Y-81966476D01*
X81039857Y-82156952D01*
X81658904Y-81728380D02*
X81658904Y-81966476D01*
X81420809Y-81871238D02*
X81658904Y-81966476D01*
X81897000Y-81871238D01*
X81516047Y-82156952D02*
X81658904Y-81966476D01*
X81801761Y-82156952D01*
X110222880Y-142412833D02*
X110937166Y-142412833D01*
X111080023Y-142460452D01*
X111175261Y-142555690D01*
X111222880Y-142698547D01*
X111222880Y-142793785D01*
X110318119Y-141984261D02*
X110270500Y-141936642D01*
X110222880Y-141841404D01*
X110222880Y-141603309D01*
X110270500Y-141508071D01*
X110318119Y-141460452D01*
X110413357Y-141412833D01*
X110508595Y-141412833D01*
X110651452Y-141460452D01*
X111222880Y-142031880D01*
X111222880Y-141412833D01*
X110222880Y-128442833D02*
X110937166Y-128442833D01*
X111080023Y-128490452D01*
X111175261Y-128585690D01*
X111222880Y-128728547D01*
X111222880Y-128823785D01*
X111222880Y-127442833D02*
X111222880Y-128014261D01*
X111222880Y-127728547D02*
X110222880Y-127728547D01*
X110365738Y-127823785D01*
X110460976Y-127919023D01*
X110508595Y-128014261D01*
X95915380Y-102595333D02*
X96629666Y-102595333D01*
X96772523Y-102642952D01*
X96867761Y-102738190D01*
X96915380Y-102881047D01*
X96915380Y-102976285D01*
X95915380Y-101690571D02*
X95915380Y-101881047D01*
X95963000Y-101976285D01*
X96010619Y-102023904D01*
X96153476Y-102119142D01*
X96343952Y-102166761D01*
X96724904Y-102166761D01*
X96820142Y-102119142D01*
X96867761Y-102071523D01*
X96915380Y-101976285D01*
X96915380Y-101785809D01*
X96867761Y-101690571D01*
X96820142Y-101642952D01*
X96724904Y-101595333D01*
X96486809Y-101595333D01*
X96391571Y-101642952D01*
X96343952Y-101690571D01*
X96296333Y-101785809D01*
X96296333Y-101976285D01*
X96343952Y-102071523D01*
X96391571Y-102119142D01*
X96486809Y-102166761D01*
X113441380Y-102595333D02*
X114155666Y-102595333D01*
X114298523Y-102642952D01*
X114393761Y-102738190D01*
X114441380Y-102881047D01*
X114441380Y-102976285D01*
X113441380Y-101642952D02*
X113441380Y-102119142D01*
X113917571Y-102166761D01*
X113869952Y-102119142D01*
X113822333Y-102023904D01*
X113822333Y-101785809D01*
X113869952Y-101690571D01*
X113917571Y-101642952D01*
X114012809Y-101595333D01*
X114250904Y-101595333D01*
X114346142Y-101642952D01*
X114393761Y-101690571D01*
X114441380Y-101785809D01*
X114441380Y-102023904D01*
X114393761Y-102119142D01*
X114346142Y-102166761D01*
X113441380Y-89387333D02*
X114155666Y-89387333D01*
X114298523Y-89434952D01*
X114393761Y-89530190D01*
X114441380Y-89673047D01*
X114441380Y-89768285D01*
X113441380Y-89006380D02*
X113441380Y-88387333D01*
X113822333Y-88720666D01*
X113822333Y-88577809D01*
X113869952Y-88482571D01*
X113917571Y-88434952D01*
X114012809Y-88387333D01*
X114250904Y-88387333D01*
X114346142Y-88434952D01*
X114393761Y-88482571D01*
X114441380Y-88577809D01*
X114441380Y-88863523D01*
X114393761Y-88958761D01*
X114346142Y-89006380D01*
X79278380Y-102595333D02*
X79992666Y-102595333D01*
X80135523Y-102642952D01*
X80230761Y-102738190D01*
X80278380Y-102881047D01*
X80278380Y-102976285D01*
X79373619Y-102166761D02*
X79326000Y-102119142D01*
X79278380Y-102023904D01*
X79278380Y-101785809D01*
X79326000Y-101690571D01*
X79373619Y-101642952D01*
X79468857Y-101595333D01*
X79564095Y-101595333D01*
X79706952Y-101642952D01*
X80278380Y-102214380D01*
X80278380Y-101595333D01*
X79278380Y-89387333D02*
X79992666Y-89387333D01*
X80135523Y-89434952D01*
X80230761Y-89530190D01*
X80278380Y-89673047D01*
X80278380Y-89768285D01*
X80278380Y-88387333D02*
X80278380Y-88958761D01*
X80278380Y-88673047D02*
X79278380Y-88673047D01*
X79421238Y-88768285D01*
X79516476Y-88863523D01*
X79564095Y-88958761D01*
X117937380Y-121634333D02*
X118651666Y-121634333D01*
X118794523Y-121681952D01*
X118889761Y-121777190D01*
X118937380Y-121920047D01*
X118937380Y-122015285D01*
X118270714Y-120729571D02*
X118937380Y-120729571D01*
X117889761Y-120967666D02*
X118604047Y-121205761D01*
X118604047Y-120586714D01*
X92537380Y-121634333D02*
X93251666Y-121634333D01*
X93394523Y-121681952D01*
X93489761Y-121777190D01*
X93537380Y-121920047D01*
X93537380Y-122015285D01*
X92537380Y-121253380D02*
X92537380Y-120634333D01*
X92918333Y-120967666D01*
X92918333Y-120824809D01*
X92965952Y-120729571D01*
X93013571Y-120681952D01*
X93108809Y-120634333D01*
X93346904Y-120634333D01*
X93442142Y-120681952D01*
X93489761Y-120729571D01*
X93537380Y-120824809D01*
X93537380Y-121110523D01*
X93489761Y-121205761D01*
X93442142Y-121253380D01*
X117937380Y-109315333D02*
X118651666Y-109315333D01*
X118794523Y-109362952D01*
X118889761Y-109458190D01*
X118937380Y-109601047D01*
X118937380Y-109696285D01*
X118032619Y-108886761D02*
X117985000Y-108839142D01*
X117937380Y-108743904D01*
X117937380Y-108505809D01*
X117985000Y-108410571D01*
X118032619Y-108362952D01*
X118127857Y-108315333D01*
X118223095Y-108315333D01*
X118365952Y-108362952D01*
X118937380Y-108934380D01*
X118937380Y-108315333D01*
X92537380Y-109315333D02*
X93251666Y-109315333D01*
X93394523Y-109362952D01*
X93489761Y-109458190D01*
X93537380Y-109601047D01*
X93537380Y-109696285D01*
X93537380Y-108315333D02*
X93537380Y-108886761D01*
X93537380Y-108601047D02*
X92537380Y-108601047D01*
X92680238Y-108696285D01*
X92775476Y-108791523D01*
X92823095Y-108886761D01*
M02*
