G04 #@! TF.GenerationSoftware,KiCad,Pcbnew,(5.1.9)-1*
G04 #@! TF.CreationDate,2021-05-14T22:38:37-04:00*
G04 #@! TF.ProjectId,PanelizedDisplays,50616e65-6c69-47a6-9564-446973706c61,rev?*
G04 #@! TF.SameCoordinates,Original*
G04 #@! TF.FileFunction,Paste,Top*
G04 #@! TF.FilePolarity,Positive*
%FSLAX46Y46*%
G04 Gerber Fmt 4.6, Leading zero omitted, Abs format (unit mm)*
G04 Created by KiCad (PCBNEW (5.1.9)-1) date 2021-05-14 22:38:37*
%MOMM*%
%LPD*%
G01*
G04 APERTURE LIST*
%ADD10C,4.000000*%
G04 APERTURE END LIST*
D10*
X133897000Y-79276000D03*
X79897000Y-79276000D03*
G36*
G01*
X120349500Y-132725500D02*
X120694500Y-132725500D01*
G75*
G02*
X120842000Y-132873000I0J-147500D01*
G01*
X120842000Y-133168000D01*
G75*
G02*
X120694500Y-133315500I-147500J0D01*
G01*
X120349500Y-133315500D01*
G75*
G02*
X120202000Y-133168000I0J147500D01*
G01*
X120202000Y-132873000D01*
G75*
G02*
X120349500Y-132725500I147500J0D01*
G01*
G37*
G36*
G01*
X120349500Y-133695500D02*
X120694500Y-133695500D01*
G75*
G02*
X120842000Y-133843000I0J-147500D01*
G01*
X120842000Y-134138000D01*
G75*
G02*
X120694500Y-134285500I-147500J0D01*
G01*
X120349500Y-134285500D01*
G75*
G02*
X120202000Y-134138000I0J147500D01*
G01*
X120202000Y-133843000D01*
G75*
G02*
X120349500Y-133695500I147500J0D01*
G01*
G37*
G36*
G01*
X124504500Y-132090500D02*
X124504500Y-131745500D01*
G75*
G02*
X124652000Y-131598000I147500J0D01*
G01*
X124947000Y-131598000D01*
G75*
G02*
X125094500Y-131745500I0J-147500D01*
G01*
X125094500Y-132090500D01*
G75*
G02*
X124947000Y-132238000I-147500J0D01*
G01*
X124652000Y-132238000D01*
G75*
G02*
X124504500Y-132090500I0J147500D01*
G01*
G37*
G36*
G01*
X125474500Y-132090500D02*
X125474500Y-131745500D01*
G75*
G02*
X125622000Y-131598000I147500J0D01*
G01*
X125917000Y-131598000D01*
G75*
G02*
X126064500Y-131745500I0J-147500D01*
G01*
X126064500Y-132090500D01*
G75*
G02*
X125917000Y-132238000I-147500J0D01*
G01*
X125622000Y-132238000D01*
G75*
G02*
X125474500Y-132090500I0J147500D01*
G01*
G37*
G36*
G01*
X126699500Y-132725500D02*
X127044500Y-132725500D01*
G75*
G02*
X127192000Y-132873000I0J-147500D01*
G01*
X127192000Y-133168000D01*
G75*
G02*
X127044500Y-133315500I-147500J0D01*
G01*
X126699500Y-133315500D01*
G75*
G02*
X126552000Y-133168000I0J147500D01*
G01*
X126552000Y-132873000D01*
G75*
G02*
X126699500Y-132725500I147500J0D01*
G01*
G37*
G36*
G01*
X126699500Y-133695500D02*
X127044500Y-133695500D01*
G75*
G02*
X127192000Y-133843000I0J-147500D01*
G01*
X127192000Y-134138000D01*
G75*
G02*
X127044500Y-134285500I-147500J0D01*
G01*
X126699500Y-134285500D01*
G75*
G02*
X126552000Y-134138000I0J147500D01*
G01*
X126552000Y-133843000D01*
G75*
G02*
X126699500Y-133695500I147500J0D01*
G01*
G37*
G36*
G01*
X125028173Y-133517875D02*
X125272125Y-133761827D01*
G75*
G02*
X125272125Y-133970423I-104298J-104298D01*
G01*
X125063529Y-134179019D01*
G75*
G02*
X124854933Y-134179019I-104298J104298D01*
G01*
X124610981Y-133935067D01*
G75*
G02*
X124610981Y-133726471I104298J104298D01*
G01*
X124819577Y-133517875D01*
G75*
G02*
X125028173Y-133517875I104298J-104298D01*
G01*
G37*
G36*
G01*
X125714067Y-132831981D02*
X125958019Y-133075933D01*
G75*
G02*
X125958019Y-133284529I-104298J-104298D01*
G01*
X125749423Y-133493125D01*
G75*
G02*
X125540827Y-133493125I-104298J104298D01*
G01*
X125296875Y-133249173D01*
G75*
G02*
X125296875Y-133040577I104298J104298D01*
G01*
X125505471Y-132831981D01*
G75*
G02*
X125714067Y-132831981I104298J-104298D01*
G01*
G37*
G36*
G01*
X124504500Y-138440500D02*
X124504500Y-138095500D01*
G75*
G02*
X124652000Y-137948000I147500J0D01*
G01*
X124947000Y-137948000D01*
G75*
G02*
X125094500Y-138095500I0J-147500D01*
G01*
X125094500Y-138440500D01*
G75*
G02*
X124947000Y-138588000I-147500J0D01*
G01*
X124652000Y-138588000D01*
G75*
G02*
X124504500Y-138440500I0J147500D01*
G01*
G37*
G36*
G01*
X125474500Y-138440500D02*
X125474500Y-138095500D01*
G75*
G02*
X125622000Y-137948000I147500J0D01*
G01*
X125917000Y-137948000D01*
G75*
G02*
X126064500Y-138095500I0J-147500D01*
G01*
X126064500Y-138440500D01*
G75*
G02*
X125917000Y-138588000I-147500J0D01*
G01*
X125622000Y-138588000D01*
G75*
G02*
X125474500Y-138440500I0J147500D01*
G01*
G37*
G36*
G01*
X124610981Y-136250933D02*
X124854933Y-136006981D01*
G75*
G02*
X125063529Y-136006981I104298J-104298D01*
G01*
X125272125Y-136215577D01*
G75*
G02*
X125272125Y-136424173I-104298J-104298D01*
G01*
X125028173Y-136668125D01*
G75*
G02*
X124819577Y-136668125I-104298J104298D01*
G01*
X124610981Y-136459529D01*
G75*
G02*
X124610981Y-136250933I104298J104298D01*
G01*
G37*
G36*
G01*
X125296875Y-136936827D02*
X125540827Y-136692875D01*
G75*
G02*
X125749423Y-136692875I104298J-104298D01*
G01*
X125958019Y-136901471D01*
G75*
G02*
X125958019Y-137110067I-104298J-104298D01*
G01*
X125714067Y-137354019D01*
G75*
G02*
X125505471Y-137354019I-104298J104298D01*
G01*
X125296875Y-137145423D01*
G75*
G02*
X125296875Y-136936827I104298J104298D01*
G01*
G37*
G36*
G01*
X122539067Y-136006981D02*
X122783019Y-136250933D01*
G75*
G02*
X122783019Y-136459529I-104298J-104298D01*
G01*
X122574423Y-136668125D01*
G75*
G02*
X122365827Y-136668125I-104298J104298D01*
G01*
X122121875Y-136424173D01*
G75*
G02*
X122121875Y-136215577I104298J104298D01*
G01*
X122330471Y-136006981D01*
G75*
G02*
X122539067Y-136006981I104298J-104298D01*
G01*
G37*
G36*
G01*
X121853173Y-136692875D02*
X122097125Y-136936827D01*
G75*
G02*
X122097125Y-137145423I-104298J-104298D01*
G01*
X121888529Y-137354019D01*
G75*
G02*
X121679933Y-137354019I-104298J104298D01*
G01*
X121435981Y-137110067D01*
G75*
G02*
X121435981Y-136901471I104298J104298D01*
G01*
X121644577Y-136692875D01*
G75*
G02*
X121853173Y-136692875I104298J-104298D01*
G01*
G37*
G36*
G01*
X122121875Y-133761827D02*
X122365827Y-133517875D01*
G75*
G02*
X122574423Y-133517875I104298J-104298D01*
G01*
X122783019Y-133726471D01*
G75*
G02*
X122783019Y-133935067I-104298J-104298D01*
G01*
X122539067Y-134179019D01*
G75*
G02*
X122330471Y-134179019I-104298J104298D01*
G01*
X122121875Y-133970423D01*
G75*
G02*
X122121875Y-133761827I104298J104298D01*
G01*
G37*
G36*
G01*
X121435981Y-133075933D02*
X121679933Y-132831981D01*
G75*
G02*
X121888529Y-132831981I104298J-104298D01*
G01*
X122097125Y-133040577D01*
G75*
G02*
X122097125Y-133249173I-104298J-104298D01*
G01*
X121853173Y-133493125D01*
G75*
G02*
X121644577Y-133493125I-104298J104298D01*
G01*
X121435981Y-133284529D01*
G75*
G02*
X121435981Y-133075933I104298J104298D01*
G01*
G37*
G36*
G01*
X122889500Y-134920500D02*
X122889500Y-135265500D01*
G75*
G02*
X122742000Y-135413000I-147500J0D01*
G01*
X122447000Y-135413000D01*
G75*
G02*
X122299500Y-135265500I0J147500D01*
G01*
X122299500Y-134920500D01*
G75*
G02*
X122447000Y-134773000I147500J0D01*
G01*
X122742000Y-134773000D01*
G75*
G02*
X122889500Y-134920500I0J-147500D01*
G01*
G37*
G36*
G01*
X121919500Y-134920500D02*
X121919500Y-135265500D01*
G75*
G02*
X121772000Y-135413000I-147500J0D01*
G01*
X121477000Y-135413000D01*
G75*
G02*
X121329500Y-135265500I0J147500D01*
G01*
X121329500Y-134920500D01*
G75*
G02*
X121477000Y-134773000I147500J0D01*
G01*
X121772000Y-134773000D01*
G75*
G02*
X121919500Y-134920500I0J-147500D01*
G01*
G37*
G36*
G01*
X122889500Y-138095500D02*
X122889500Y-138440500D01*
G75*
G02*
X122742000Y-138588000I-147500J0D01*
G01*
X122447000Y-138588000D01*
G75*
G02*
X122299500Y-138440500I0J147500D01*
G01*
X122299500Y-138095500D01*
G75*
G02*
X122447000Y-137948000I147500J0D01*
G01*
X122742000Y-137948000D01*
G75*
G02*
X122889500Y-138095500I0J-147500D01*
G01*
G37*
G36*
G01*
X121919500Y-138095500D02*
X121919500Y-138440500D01*
G75*
G02*
X121772000Y-138588000I-147500J0D01*
G01*
X121477000Y-138588000D01*
G75*
G02*
X121329500Y-138440500I0J147500D01*
G01*
X121329500Y-138095500D01*
G75*
G02*
X121477000Y-137948000I147500J0D01*
G01*
X121772000Y-137948000D01*
G75*
G02*
X121919500Y-138095500I0J-147500D01*
G01*
G37*
G36*
G01*
X123524500Y-132725500D02*
X123869500Y-132725500D01*
G75*
G02*
X124017000Y-132873000I0J-147500D01*
G01*
X124017000Y-133168000D01*
G75*
G02*
X123869500Y-133315500I-147500J0D01*
G01*
X123524500Y-133315500D01*
G75*
G02*
X123377000Y-133168000I0J147500D01*
G01*
X123377000Y-132873000D01*
G75*
G02*
X123524500Y-132725500I147500J0D01*
G01*
G37*
G36*
G01*
X123524500Y-133695500D02*
X123869500Y-133695500D01*
G75*
G02*
X124017000Y-133843000I0J-147500D01*
G01*
X124017000Y-134138000D01*
G75*
G02*
X123869500Y-134285500I-147500J0D01*
G01*
X123524500Y-134285500D01*
G75*
G02*
X123377000Y-134138000I0J147500D01*
G01*
X123377000Y-133843000D01*
G75*
G02*
X123524500Y-133695500I147500J0D01*
G01*
G37*
G36*
G01*
X124504500Y-135265500D02*
X124504500Y-134920500D01*
G75*
G02*
X124652000Y-134773000I147500J0D01*
G01*
X124947000Y-134773000D01*
G75*
G02*
X125094500Y-134920500I0J-147500D01*
G01*
X125094500Y-135265500D01*
G75*
G02*
X124947000Y-135413000I-147500J0D01*
G01*
X124652000Y-135413000D01*
G75*
G02*
X124504500Y-135265500I0J147500D01*
G01*
G37*
G36*
G01*
X125474500Y-135265500D02*
X125474500Y-134920500D01*
G75*
G02*
X125622000Y-134773000I147500J0D01*
G01*
X125917000Y-134773000D01*
G75*
G02*
X126064500Y-134920500I0J-147500D01*
G01*
X126064500Y-135265500D01*
G75*
G02*
X125917000Y-135413000I-147500J0D01*
G01*
X125622000Y-135413000D01*
G75*
G02*
X125474500Y-135265500I0J147500D01*
G01*
G37*
G36*
G01*
X123524500Y-136870500D02*
X123869500Y-136870500D01*
G75*
G02*
X124017000Y-137018000I0J-147500D01*
G01*
X124017000Y-137313000D01*
G75*
G02*
X123869500Y-137460500I-147500J0D01*
G01*
X123524500Y-137460500D01*
G75*
G02*
X123377000Y-137313000I0J147500D01*
G01*
X123377000Y-137018000D01*
G75*
G02*
X123524500Y-136870500I147500J0D01*
G01*
G37*
G36*
G01*
X123524500Y-135900500D02*
X123869500Y-135900500D01*
G75*
G02*
X124017000Y-136048000I0J-147500D01*
G01*
X124017000Y-136343000D01*
G75*
G02*
X123869500Y-136490500I-147500J0D01*
G01*
X123524500Y-136490500D01*
G75*
G02*
X123377000Y-136343000I0J147500D01*
G01*
X123377000Y-136048000D01*
G75*
G02*
X123524500Y-135900500I147500J0D01*
G01*
G37*
G36*
G01*
X120349500Y-136870500D02*
X120694500Y-136870500D01*
G75*
G02*
X120842000Y-137018000I0J-147500D01*
G01*
X120842000Y-137313000D01*
G75*
G02*
X120694500Y-137460500I-147500J0D01*
G01*
X120349500Y-137460500D01*
G75*
G02*
X120202000Y-137313000I0J147500D01*
G01*
X120202000Y-137018000D01*
G75*
G02*
X120349500Y-136870500I147500J0D01*
G01*
G37*
G36*
G01*
X120349500Y-135900500D02*
X120694500Y-135900500D01*
G75*
G02*
X120842000Y-136048000I0J-147500D01*
G01*
X120842000Y-136343000D01*
G75*
G02*
X120694500Y-136490500I-147500J0D01*
G01*
X120349500Y-136490500D01*
G75*
G02*
X120202000Y-136343000I0J147500D01*
G01*
X120202000Y-136048000D01*
G75*
G02*
X120349500Y-135900500I147500J0D01*
G01*
G37*
G36*
G01*
X121919500Y-131745500D02*
X121919500Y-132090500D01*
G75*
G02*
X121772000Y-132238000I-147500J0D01*
G01*
X121477000Y-132238000D01*
G75*
G02*
X121329500Y-132090500I0J147500D01*
G01*
X121329500Y-131745500D01*
G75*
G02*
X121477000Y-131598000I147500J0D01*
G01*
X121772000Y-131598000D01*
G75*
G02*
X121919500Y-131745500I0J-147500D01*
G01*
G37*
G36*
G01*
X122889500Y-131745500D02*
X122889500Y-132090500D01*
G75*
G02*
X122742000Y-132238000I-147500J0D01*
G01*
X122447000Y-132238000D01*
G75*
G02*
X122299500Y-132090500I0J147500D01*
G01*
X122299500Y-131745500D01*
G75*
G02*
X122447000Y-131598000I147500J0D01*
G01*
X122742000Y-131598000D01*
G75*
G02*
X122889500Y-131745500I0J-147500D01*
G01*
G37*
G36*
G01*
X126699500Y-136870500D02*
X127044500Y-136870500D01*
G75*
G02*
X127192000Y-137018000I0J-147500D01*
G01*
X127192000Y-137313000D01*
G75*
G02*
X127044500Y-137460500I-147500J0D01*
G01*
X126699500Y-137460500D01*
G75*
G02*
X126552000Y-137313000I0J147500D01*
G01*
X126552000Y-137018000D01*
G75*
G02*
X126699500Y-136870500I147500J0D01*
G01*
G37*
G36*
G01*
X126699500Y-135900500D02*
X127044500Y-135900500D01*
G75*
G02*
X127192000Y-136048000I0J-147500D01*
G01*
X127192000Y-136343000D01*
G75*
G02*
X127044500Y-136490500I-147500J0D01*
G01*
X126699500Y-136490500D01*
G75*
G02*
X126552000Y-136343000I0J147500D01*
G01*
X126552000Y-136048000D01*
G75*
G02*
X126699500Y-135900500I147500J0D01*
G01*
G37*
G36*
G01*
X91658500Y-93887500D02*
X91313500Y-93887500D01*
G75*
G02*
X91166000Y-93740000I0J147500D01*
G01*
X91166000Y-93445000D01*
G75*
G02*
X91313500Y-93297500I147500J0D01*
G01*
X91658500Y-93297500D01*
G75*
G02*
X91806000Y-93445000I0J-147500D01*
G01*
X91806000Y-93740000D01*
G75*
G02*
X91658500Y-93887500I-147500J0D01*
G01*
G37*
G36*
G01*
X91658500Y-94857500D02*
X91313500Y-94857500D01*
G75*
G02*
X91166000Y-94710000I0J147500D01*
G01*
X91166000Y-94415000D01*
G75*
G02*
X91313500Y-94267500I147500J0D01*
G01*
X91658500Y-94267500D01*
G75*
G02*
X91806000Y-94415000I0J-147500D01*
G01*
X91806000Y-94710000D01*
G75*
G02*
X91658500Y-94857500I-147500J0D01*
G01*
G37*
G36*
G01*
X92883500Y-92317500D02*
X92883500Y-92662500D01*
G75*
G02*
X92736000Y-92810000I-147500J0D01*
G01*
X92441000Y-92810000D01*
G75*
G02*
X92293500Y-92662500I0J147500D01*
G01*
X92293500Y-92317500D01*
G75*
G02*
X92441000Y-92170000I147500J0D01*
G01*
X92736000Y-92170000D01*
G75*
G02*
X92883500Y-92317500I0J-147500D01*
G01*
G37*
G36*
G01*
X93853500Y-92317500D02*
X93853500Y-92662500D01*
G75*
G02*
X93706000Y-92810000I-147500J0D01*
G01*
X93411000Y-92810000D01*
G75*
G02*
X93263500Y-92662500I0J147500D01*
G01*
X93263500Y-92317500D01*
G75*
G02*
X93411000Y-92170000I147500J0D01*
G01*
X93706000Y-92170000D01*
G75*
G02*
X93853500Y-92317500I0J-147500D01*
G01*
G37*
G36*
G01*
X89708500Y-98667500D02*
X89708500Y-99012500D01*
G75*
G02*
X89561000Y-99160000I-147500J0D01*
G01*
X89266000Y-99160000D01*
G75*
G02*
X89118500Y-99012500I0J147500D01*
G01*
X89118500Y-98667500D01*
G75*
G02*
X89266000Y-98520000I147500J0D01*
G01*
X89561000Y-98520000D01*
G75*
G02*
X89708500Y-98667500I0J-147500D01*
G01*
G37*
G36*
G01*
X90678500Y-98667500D02*
X90678500Y-99012500D01*
G75*
G02*
X90531000Y-99160000I-147500J0D01*
G01*
X90236000Y-99160000D01*
G75*
G02*
X90088500Y-99012500I0J147500D01*
G01*
X90088500Y-98667500D01*
G75*
G02*
X90236000Y-98520000I147500J0D01*
G01*
X90531000Y-98520000D01*
G75*
G02*
X90678500Y-98667500I0J-147500D01*
G01*
G37*
G36*
G01*
X89642173Y-97264875D02*
X89886125Y-97508827D01*
G75*
G02*
X89886125Y-97717423I-104298J-104298D01*
G01*
X89677529Y-97926019D01*
G75*
G02*
X89468933Y-97926019I-104298J104298D01*
G01*
X89224981Y-97682067D01*
G75*
G02*
X89224981Y-97473471I104298J104298D01*
G01*
X89433577Y-97264875D01*
G75*
G02*
X89642173Y-97264875I104298J-104298D01*
G01*
G37*
G36*
G01*
X90328067Y-96578981D02*
X90572019Y-96822933D01*
G75*
G02*
X90572019Y-97031529I-104298J-104298D01*
G01*
X90363423Y-97240125D01*
G75*
G02*
X90154827Y-97240125I-104298J104298D01*
G01*
X89910875Y-96996173D01*
G75*
G02*
X89910875Y-96787577I104298J104298D01*
G01*
X90119471Y-96578981D01*
G75*
G02*
X90328067Y-96578981I104298J-104298D01*
G01*
G37*
G36*
G01*
X92883500Y-95492500D02*
X92883500Y-95837500D01*
G75*
G02*
X92736000Y-95985000I-147500J0D01*
G01*
X92441000Y-95985000D01*
G75*
G02*
X92293500Y-95837500I0J147500D01*
G01*
X92293500Y-95492500D01*
G75*
G02*
X92441000Y-95345000I147500J0D01*
G01*
X92736000Y-95345000D01*
G75*
G02*
X92883500Y-95492500I0J-147500D01*
G01*
G37*
G36*
G01*
X93853500Y-95492500D02*
X93853500Y-95837500D01*
G75*
G02*
X93706000Y-95985000I-147500J0D01*
G01*
X93411000Y-95985000D01*
G75*
G02*
X93263500Y-95837500I0J147500D01*
G01*
X93263500Y-95492500D01*
G75*
G02*
X93411000Y-95345000I147500J0D01*
G01*
X93706000Y-95345000D01*
G75*
G02*
X93853500Y-95492500I0J-147500D01*
G01*
G37*
G36*
G01*
X93061125Y-96996173D02*
X92817173Y-97240125D01*
G75*
G02*
X92608577Y-97240125I-104298J104298D01*
G01*
X92399981Y-97031529D01*
G75*
G02*
X92399981Y-96822933I104298J104298D01*
G01*
X92643933Y-96578981D01*
G75*
G02*
X92852529Y-96578981I104298J-104298D01*
G01*
X93061125Y-96787577D01*
G75*
G02*
X93061125Y-96996173I-104298J-104298D01*
G01*
G37*
G36*
G01*
X93747019Y-97682067D02*
X93503067Y-97926019D01*
G75*
G02*
X93294471Y-97926019I-104298J104298D01*
G01*
X93085875Y-97717423D01*
G75*
G02*
X93085875Y-97508827I104298J104298D01*
G01*
X93329827Y-97264875D01*
G75*
G02*
X93538423Y-97264875I104298J-104298D01*
G01*
X93747019Y-97473471D01*
G75*
G02*
X93747019Y-97682067I-104298J-104298D01*
G01*
G37*
G36*
G01*
X92817173Y-94089875D02*
X93061125Y-94333827D01*
G75*
G02*
X93061125Y-94542423I-104298J-104298D01*
G01*
X92852529Y-94751019D01*
G75*
G02*
X92643933Y-94751019I-104298J104298D01*
G01*
X92399981Y-94507067D01*
G75*
G02*
X92399981Y-94298471I104298J104298D01*
G01*
X92608577Y-94089875D01*
G75*
G02*
X92817173Y-94089875I104298J-104298D01*
G01*
G37*
G36*
G01*
X93503067Y-93403981D02*
X93747019Y-93647933D01*
G75*
G02*
X93747019Y-93856529I-104298J-104298D01*
G01*
X93538423Y-94065125D01*
G75*
G02*
X93329827Y-94065125I-104298J104298D01*
G01*
X93085875Y-93821173D01*
G75*
G02*
X93085875Y-93612577I104298J104298D01*
G01*
X93294471Y-93403981D01*
G75*
G02*
X93503067Y-93403981I104298J-104298D01*
G01*
G37*
G36*
G01*
X92883500Y-98667500D02*
X92883500Y-99012500D01*
G75*
G02*
X92736000Y-99160000I-147500J0D01*
G01*
X92441000Y-99160000D01*
G75*
G02*
X92293500Y-99012500I0J147500D01*
G01*
X92293500Y-98667500D01*
G75*
G02*
X92441000Y-98520000I147500J0D01*
G01*
X92736000Y-98520000D01*
G75*
G02*
X92883500Y-98667500I0J-147500D01*
G01*
G37*
G36*
G01*
X93853500Y-98667500D02*
X93853500Y-99012500D01*
G75*
G02*
X93706000Y-99160000I-147500J0D01*
G01*
X93411000Y-99160000D01*
G75*
G02*
X93263500Y-99012500I0J147500D01*
G01*
X93263500Y-98667500D01*
G75*
G02*
X93411000Y-98520000I147500J0D01*
G01*
X93706000Y-98520000D01*
G75*
G02*
X93853500Y-98667500I0J-147500D01*
G01*
G37*
G36*
G01*
X94833500Y-93887500D02*
X94488500Y-93887500D01*
G75*
G02*
X94341000Y-93740000I0J147500D01*
G01*
X94341000Y-93445000D01*
G75*
G02*
X94488500Y-93297500I147500J0D01*
G01*
X94833500Y-93297500D01*
G75*
G02*
X94981000Y-93445000I0J-147500D01*
G01*
X94981000Y-93740000D01*
G75*
G02*
X94833500Y-93887500I-147500J0D01*
G01*
G37*
G36*
G01*
X94833500Y-94857500D02*
X94488500Y-94857500D01*
G75*
G02*
X94341000Y-94710000I0J147500D01*
G01*
X94341000Y-94415000D01*
G75*
G02*
X94488500Y-94267500I147500J0D01*
G01*
X94833500Y-94267500D01*
G75*
G02*
X94981000Y-94415000I0J-147500D01*
G01*
X94981000Y-94710000D01*
G75*
G02*
X94833500Y-94857500I-147500J0D01*
G01*
G37*
G36*
G01*
X91313500Y-97442500D02*
X91658500Y-97442500D01*
G75*
G02*
X91806000Y-97590000I0J-147500D01*
G01*
X91806000Y-97885000D01*
G75*
G02*
X91658500Y-98032500I-147500J0D01*
G01*
X91313500Y-98032500D01*
G75*
G02*
X91166000Y-97885000I0J147500D01*
G01*
X91166000Y-97590000D01*
G75*
G02*
X91313500Y-97442500I147500J0D01*
G01*
G37*
G36*
G01*
X91313500Y-96472500D02*
X91658500Y-96472500D01*
G75*
G02*
X91806000Y-96620000I0J-147500D01*
G01*
X91806000Y-96915000D01*
G75*
G02*
X91658500Y-97062500I-147500J0D01*
G01*
X91313500Y-97062500D01*
G75*
G02*
X91166000Y-96915000I0J147500D01*
G01*
X91166000Y-96620000D01*
G75*
G02*
X91313500Y-96472500I147500J0D01*
G01*
G37*
G36*
G01*
X94488500Y-97442500D02*
X94833500Y-97442500D01*
G75*
G02*
X94981000Y-97590000I0J-147500D01*
G01*
X94981000Y-97885000D01*
G75*
G02*
X94833500Y-98032500I-147500J0D01*
G01*
X94488500Y-98032500D01*
G75*
G02*
X94341000Y-97885000I0J147500D01*
G01*
X94341000Y-97590000D01*
G75*
G02*
X94488500Y-97442500I147500J0D01*
G01*
G37*
G36*
G01*
X94488500Y-96472500D02*
X94833500Y-96472500D01*
G75*
G02*
X94981000Y-96620000I0J-147500D01*
G01*
X94981000Y-96915000D01*
G75*
G02*
X94833500Y-97062500I-147500J0D01*
G01*
X94488500Y-97062500D01*
G75*
G02*
X94341000Y-96915000I0J147500D01*
G01*
X94341000Y-96620000D01*
G75*
G02*
X94488500Y-96472500I147500J0D01*
G01*
G37*
G36*
G01*
X88483500Y-93887500D02*
X88138500Y-93887500D01*
G75*
G02*
X87991000Y-93740000I0J147500D01*
G01*
X87991000Y-93445000D01*
G75*
G02*
X88138500Y-93297500I147500J0D01*
G01*
X88483500Y-93297500D01*
G75*
G02*
X88631000Y-93445000I0J-147500D01*
G01*
X88631000Y-93740000D01*
G75*
G02*
X88483500Y-93887500I-147500J0D01*
G01*
G37*
G36*
G01*
X88483500Y-94857500D02*
X88138500Y-94857500D01*
G75*
G02*
X87991000Y-94710000I0J147500D01*
G01*
X87991000Y-94415000D01*
G75*
G02*
X88138500Y-94267500I147500J0D01*
G01*
X88483500Y-94267500D01*
G75*
G02*
X88631000Y-94415000I0J-147500D01*
G01*
X88631000Y-94710000D01*
G75*
G02*
X88483500Y-94857500I-147500J0D01*
G01*
G37*
G36*
G01*
X89708500Y-92317500D02*
X89708500Y-92662500D01*
G75*
G02*
X89561000Y-92810000I-147500J0D01*
G01*
X89266000Y-92810000D01*
G75*
G02*
X89118500Y-92662500I0J147500D01*
G01*
X89118500Y-92317500D01*
G75*
G02*
X89266000Y-92170000I147500J0D01*
G01*
X89561000Y-92170000D01*
G75*
G02*
X89708500Y-92317500I0J-147500D01*
G01*
G37*
G36*
G01*
X90678500Y-92317500D02*
X90678500Y-92662500D01*
G75*
G02*
X90531000Y-92810000I-147500J0D01*
G01*
X90236000Y-92810000D01*
G75*
G02*
X90088500Y-92662500I0J147500D01*
G01*
X90088500Y-92317500D01*
G75*
G02*
X90236000Y-92170000I147500J0D01*
G01*
X90531000Y-92170000D01*
G75*
G02*
X90678500Y-92317500I0J-147500D01*
G01*
G37*
G36*
G01*
X89708500Y-95492500D02*
X89708500Y-95837500D01*
G75*
G02*
X89561000Y-95985000I-147500J0D01*
G01*
X89266000Y-95985000D01*
G75*
G02*
X89118500Y-95837500I0J147500D01*
G01*
X89118500Y-95492500D01*
G75*
G02*
X89266000Y-95345000I147500J0D01*
G01*
X89561000Y-95345000D01*
G75*
G02*
X89708500Y-95492500I0J-147500D01*
G01*
G37*
G36*
G01*
X90678500Y-95492500D02*
X90678500Y-95837500D01*
G75*
G02*
X90531000Y-95985000I-147500J0D01*
G01*
X90236000Y-95985000D01*
G75*
G02*
X90088500Y-95837500I0J147500D01*
G01*
X90088500Y-95492500D01*
G75*
G02*
X90236000Y-95345000I147500J0D01*
G01*
X90531000Y-95345000D01*
G75*
G02*
X90678500Y-95492500I0J-147500D01*
G01*
G37*
G36*
G01*
X89886125Y-93821173D02*
X89642173Y-94065125D01*
G75*
G02*
X89433577Y-94065125I-104298J104298D01*
G01*
X89224981Y-93856529D01*
G75*
G02*
X89224981Y-93647933I104298J104298D01*
G01*
X89468933Y-93403981D01*
G75*
G02*
X89677529Y-93403981I104298J-104298D01*
G01*
X89886125Y-93612577D01*
G75*
G02*
X89886125Y-93821173I-104298J-104298D01*
G01*
G37*
G36*
G01*
X90572019Y-94507067D02*
X90328067Y-94751019D01*
G75*
G02*
X90119471Y-94751019I-104298J104298D01*
G01*
X89910875Y-94542423D01*
G75*
G02*
X89910875Y-94333827I104298J104298D01*
G01*
X90154827Y-94089875D01*
G75*
G02*
X90363423Y-94089875I104298J-104298D01*
G01*
X90572019Y-94298471D01*
G75*
G02*
X90572019Y-94507067I-104298J-104298D01*
G01*
G37*
G36*
G01*
X88138500Y-97442500D02*
X88483500Y-97442500D01*
G75*
G02*
X88631000Y-97590000I0J-147500D01*
G01*
X88631000Y-97885000D01*
G75*
G02*
X88483500Y-98032500I-147500J0D01*
G01*
X88138500Y-98032500D01*
G75*
G02*
X87991000Y-97885000I0J147500D01*
G01*
X87991000Y-97590000D01*
G75*
G02*
X88138500Y-97442500I147500J0D01*
G01*
G37*
G36*
G01*
X88138500Y-96472500D02*
X88483500Y-96472500D01*
G75*
G02*
X88631000Y-96620000I0J-147500D01*
G01*
X88631000Y-96915000D01*
G75*
G02*
X88483500Y-97062500I-147500J0D01*
G01*
X88138500Y-97062500D01*
G75*
G02*
X87991000Y-96915000I0J147500D01*
G01*
X87991000Y-96620000D01*
G75*
G02*
X88138500Y-96472500I147500J0D01*
G01*
G37*
G36*
G01*
X84893673Y-94089375D02*
X85137625Y-94333327D01*
G75*
G02*
X85137625Y-94541923I-104298J-104298D01*
G01*
X84929029Y-94750519D01*
G75*
G02*
X84720433Y-94750519I-104298J104298D01*
G01*
X84476481Y-94506567D01*
G75*
G02*
X84476481Y-94297971I104298J104298D01*
G01*
X84685077Y-94089375D01*
G75*
G02*
X84893673Y-94089375I104298J-104298D01*
G01*
G37*
G36*
G01*
X85579567Y-93403481D02*
X85823519Y-93647433D01*
G75*
G02*
X85823519Y-93856029I-104298J-104298D01*
G01*
X85614923Y-94064625D01*
G75*
G02*
X85406327Y-94064625I-104298J104298D01*
G01*
X85162375Y-93820673D01*
G75*
G02*
X85162375Y-93612077I104298J104298D01*
G01*
X85370971Y-93403481D01*
G75*
G02*
X85579567Y-93403481I104298J-104298D01*
G01*
G37*
G36*
G01*
X81962625Y-93820673D02*
X81718673Y-94064625D01*
G75*
G02*
X81510077Y-94064625I-104298J104298D01*
G01*
X81301481Y-93856029D01*
G75*
G02*
X81301481Y-93647433I104298J104298D01*
G01*
X81545433Y-93403481D01*
G75*
G02*
X81754029Y-93403481I104298J-104298D01*
G01*
X81962625Y-93612077D01*
G75*
G02*
X81962625Y-93820673I-104298J-104298D01*
G01*
G37*
G36*
G01*
X82648519Y-94506567D02*
X82404567Y-94750519D01*
G75*
G02*
X82195971Y-94750519I-104298J104298D01*
G01*
X81987375Y-94541923D01*
G75*
G02*
X81987375Y-94333327I104298J104298D01*
G01*
X82231327Y-94089375D01*
G75*
G02*
X82439923Y-94089375I104298J-104298D01*
G01*
X82648519Y-94297971D01*
G75*
G02*
X82648519Y-94506567I-104298J-104298D01*
G01*
G37*
G36*
G01*
X85137625Y-96995673D02*
X84893673Y-97239625D01*
G75*
G02*
X84685077Y-97239625I-104298J104298D01*
G01*
X84476481Y-97031029D01*
G75*
G02*
X84476481Y-96822433I104298J104298D01*
G01*
X84720433Y-96578481D01*
G75*
G02*
X84929029Y-96578481I104298J-104298D01*
G01*
X85137625Y-96787077D01*
G75*
G02*
X85137625Y-96995673I-104298J-104298D01*
G01*
G37*
G36*
G01*
X85823519Y-97681567D02*
X85579567Y-97925519D01*
G75*
G02*
X85370971Y-97925519I-104298J104298D01*
G01*
X85162375Y-97716923D01*
G75*
G02*
X85162375Y-97508327I104298J104298D01*
G01*
X85406327Y-97264375D01*
G75*
G02*
X85614923Y-97264375I104298J-104298D01*
G01*
X85823519Y-97472971D01*
G75*
G02*
X85823519Y-97681567I-104298J-104298D01*
G01*
G37*
G36*
G01*
X84960000Y-92317000D02*
X84960000Y-92662000D01*
G75*
G02*
X84812500Y-92809500I-147500J0D01*
G01*
X84517500Y-92809500D01*
G75*
G02*
X84370000Y-92662000I0J147500D01*
G01*
X84370000Y-92317000D01*
G75*
G02*
X84517500Y-92169500I147500J0D01*
G01*
X84812500Y-92169500D01*
G75*
G02*
X84960000Y-92317000I0J-147500D01*
G01*
G37*
G36*
G01*
X85930000Y-92317000D02*
X85930000Y-92662000D01*
G75*
G02*
X85782500Y-92809500I-147500J0D01*
G01*
X85487500Y-92809500D01*
G75*
G02*
X85340000Y-92662000I0J147500D01*
G01*
X85340000Y-92317000D01*
G75*
G02*
X85487500Y-92169500I147500J0D01*
G01*
X85782500Y-92169500D01*
G75*
G02*
X85930000Y-92317000I0J-147500D01*
G01*
G37*
G36*
G01*
X84960000Y-95492000D02*
X84960000Y-95837000D01*
G75*
G02*
X84812500Y-95984500I-147500J0D01*
G01*
X84517500Y-95984500D01*
G75*
G02*
X84370000Y-95837000I0J147500D01*
G01*
X84370000Y-95492000D01*
G75*
G02*
X84517500Y-95344500I147500J0D01*
G01*
X84812500Y-95344500D01*
G75*
G02*
X84960000Y-95492000I0J-147500D01*
G01*
G37*
G36*
G01*
X85930000Y-95492000D02*
X85930000Y-95837000D01*
G75*
G02*
X85782500Y-95984500I-147500J0D01*
G01*
X85487500Y-95984500D01*
G75*
G02*
X85340000Y-95837000I0J147500D01*
G01*
X85340000Y-95492000D01*
G75*
G02*
X85487500Y-95344500I147500J0D01*
G01*
X85782500Y-95344500D01*
G75*
G02*
X85930000Y-95492000I0J-147500D01*
G01*
G37*
G36*
G01*
X83390000Y-97442000D02*
X83735000Y-97442000D01*
G75*
G02*
X83882500Y-97589500I0J-147500D01*
G01*
X83882500Y-97884500D01*
G75*
G02*
X83735000Y-98032000I-147500J0D01*
G01*
X83390000Y-98032000D01*
G75*
G02*
X83242500Y-97884500I0J147500D01*
G01*
X83242500Y-97589500D01*
G75*
G02*
X83390000Y-97442000I147500J0D01*
G01*
G37*
G36*
G01*
X83390000Y-96472000D02*
X83735000Y-96472000D01*
G75*
G02*
X83882500Y-96619500I0J-147500D01*
G01*
X83882500Y-96914500D01*
G75*
G02*
X83735000Y-97062000I-147500J0D01*
G01*
X83390000Y-97062000D01*
G75*
G02*
X83242500Y-96914500I0J147500D01*
G01*
X83242500Y-96619500D01*
G75*
G02*
X83390000Y-96472000I147500J0D01*
G01*
G37*
G36*
G01*
X81785000Y-95492000D02*
X81785000Y-95837000D01*
G75*
G02*
X81637500Y-95984500I-147500J0D01*
G01*
X81342500Y-95984500D01*
G75*
G02*
X81195000Y-95837000I0J147500D01*
G01*
X81195000Y-95492000D01*
G75*
G02*
X81342500Y-95344500I147500J0D01*
G01*
X81637500Y-95344500D01*
G75*
G02*
X81785000Y-95492000I0J-147500D01*
G01*
G37*
G36*
G01*
X82755000Y-95492000D02*
X82755000Y-95837000D01*
G75*
G02*
X82607500Y-95984500I-147500J0D01*
G01*
X82312500Y-95984500D01*
G75*
G02*
X82165000Y-95837000I0J147500D01*
G01*
X82165000Y-95492000D01*
G75*
G02*
X82312500Y-95344500I147500J0D01*
G01*
X82607500Y-95344500D01*
G75*
G02*
X82755000Y-95492000I0J-147500D01*
G01*
G37*
G36*
G01*
X81785000Y-98667000D02*
X81785000Y-99012000D01*
G75*
G02*
X81637500Y-99159500I-147500J0D01*
G01*
X81342500Y-99159500D01*
G75*
G02*
X81195000Y-99012000I0J147500D01*
G01*
X81195000Y-98667000D01*
G75*
G02*
X81342500Y-98519500I147500J0D01*
G01*
X81637500Y-98519500D01*
G75*
G02*
X81785000Y-98667000I0J-147500D01*
G01*
G37*
G36*
G01*
X82755000Y-98667000D02*
X82755000Y-99012000D01*
G75*
G02*
X82607500Y-99159500I-147500J0D01*
G01*
X82312500Y-99159500D01*
G75*
G02*
X82165000Y-99012000I0J147500D01*
G01*
X82165000Y-98667000D01*
G75*
G02*
X82312500Y-98519500I147500J0D01*
G01*
X82607500Y-98519500D01*
G75*
G02*
X82755000Y-98667000I0J-147500D01*
G01*
G37*
G36*
G01*
X86910000Y-93887000D02*
X86565000Y-93887000D01*
G75*
G02*
X86417500Y-93739500I0J147500D01*
G01*
X86417500Y-93444500D01*
G75*
G02*
X86565000Y-93297000I147500J0D01*
G01*
X86910000Y-93297000D01*
G75*
G02*
X87057500Y-93444500I0J-147500D01*
G01*
X87057500Y-93739500D01*
G75*
G02*
X86910000Y-93887000I-147500J0D01*
G01*
G37*
G36*
G01*
X86910000Y-94857000D02*
X86565000Y-94857000D01*
G75*
G02*
X86417500Y-94709500I0J147500D01*
G01*
X86417500Y-94414500D01*
G75*
G02*
X86565000Y-94267000I147500J0D01*
G01*
X86910000Y-94267000D01*
G75*
G02*
X87057500Y-94414500I0J-147500D01*
G01*
X87057500Y-94709500D01*
G75*
G02*
X86910000Y-94857000I-147500J0D01*
G01*
G37*
G36*
G01*
X81718673Y-97264375D02*
X81962625Y-97508327D01*
G75*
G02*
X81962625Y-97716923I-104298J-104298D01*
G01*
X81754029Y-97925519D01*
G75*
G02*
X81545433Y-97925519I-104298J104298D01*
G01*
X81301481Y-97681567D01*
G75*
G02*
X81301481Y-97472971I104298J104298D01*
G01*
X81510077Y-97264375D01*
G75*
G02*
X81718673Y-97264375I104298J-104298D01*
G01*
G37*
G36*
G01*
X82404567Y-96578481D02*
X82648519Y-96822433D01*
G75*
G02*
X82648519Y-97031029I-104298J-104298D01*
G01*
X82439923Y-97239625D01*
G75*
G02*
X82231327Y-97239625I-104298J104298D01*
G01*
X81987375Y-96995673D01*
G75*
G02*
X81987375Y-96787077I104298J104298D01*
G01*
X82195971Y-96578481D01*
G75*
G02*
X82404567Y-96578481I104298J-104298D01*
G01*
G37*
G36*
G01*
X86565000Y-97442000D02*
X86910000Y-97442000D01*
G75*
G02*
X87057500Y-97589500I0J-147500D01*
G01*
X87057500Y-97884500D01*
G75*
G02*
X86910000Y-98032000I-147500J0D01*
G01*
X86565000Y-98032000D01*
G75*
G02*
X86417500Y-97884500I0J147500D01*
G01*
X86417500Y-97589500D01*
G75*
G02*
X86565000Y-97442000I147500J0D01*
G01*
G37*
G36*
G01*
X86565000Y-96472000D02*
X86910000Y-96472000D01*
G75*
G02*
X87057500Y-96619500I0J-147500D01*
G01*
X87057500Y-96914500D01*
G75*
G02*
X86910000Y-97062000I-147500J0D01*
G01*
X86565000Y-97062000D01*
G75*
G02*
X86417500Y-96914500I0J147500D01*
G01*
X86417500Y-96619500D01*
G75*
G02*
X86565000Y-96472000I147500J0D01*
G01*
G37*
G36*
G01*
X83735000Y-93887000D02*
X83390000Y-93887000D01*
G75*
G02*
X83242500Y-93739500I0J147500D01*
G01*
X83242500Y-93444500D01*
G75*
G02*
X83390000Y-93297000I147500J0D01*
G01*
X83735000Y-93297000D01*
G75*
G02*
X83882500Y-93444500I0J-147500D01*
G01*
X83882500Y-93739500D01*
G75*
G02*
X83735000Y-93887000I-147500J0D01*
G01*
G37*
G36*
G01*
X83735000Y-94857000D02*
X83390000Y-94857000D01*
G75*
G02*
X83242500Y-94709500I0J147500D01*
G01*
X83242500Y-94414500D01*
G75*
G02*
X83390000Y-94267000I147500J0D01*
G01*
X83735000Y-94267000D01*
G75*
G02*
X83882500Y-94414500I0J-147500D01*
G01*
X83882500Y-94709500D01*
G75*
G02*
X83735000Y-94857000I-147500J0D01*
G01*
G37*
G36*
G01*
X84960000Y-98667000D02*
X84960000Y-99012000D01*
G75*
G02*
X84812500Y-99159500I-147500J0D01*
G01*
X84517500Y-99159500D01*
G75*
G02*
X84370000Y-99012000I0J147500D01*
G01*
X84370000Y-98667000D01*
G75*
G02*
X84517500Y-98519500I147500J0D01*
G01*
X84812500Y-98519500D01*
G75*
G02*
X84960000Y-98667000I0J-147500D01*
G01*
G37*
G36*
G01*
X85930000Y-98667000D02*
X85930000Y-99012000D01*
G75*
G02*
X85782500Y-99159500I-147500J0D01*
G01*
X85487500Y-99159500D01*
G75*
G02*
X85340000Y-99012000I0J147500D01*
G01*
X85340000Y-98667000D01*
G75*
G02*
X85487500Y-98519500I147500J0D01*
G01*
X85782500Y-98519500D01*
G75*
G02*
X85930000Y-98667000I0J-147500D01*
G01*
G37*
G36*
G01*
X81785000Y-92317000D02*
X81785000Y-92662000D01*
G75*
G02*
X81637500Y-92809500I-147500J0D01*
G01*
X81342500Y-92809500D01*
G75*
G02*
X81195000Y-92662000I0J147500D01*
G01*
X81195000Y-92317000D01*
G75*
G02*
X81342500Y-92169500I147500J0D01*
G01*
X81637500Y-92169500D01*
G75*
G02*
X81785000Y-92317000I0J-147500D01*
G01*
G37*
G36*
G01*
X82755000Y-92317000D02*
X82755000Y-92662000D01*
G75*
G02*
X82607500Y-92809500I-147500J0D01*
G01*
X82312500Y-92809500D01*
G75*
G02*
X82165000Y-92662000I0J147500D01*
G01*
X82165000Y-92317000D01*
G75*
G02*
X82312500Y-92169500I147500J0D01*
G01*
X82607500Y-92169500D01*
G75*
G02*
X82755000Y-92317000I0J-147500D01*
G01*
G37*
G36*
G01*
X80215000Y-97442000D02*
X80560000Y-97442000D01*
G75*
G02*
X80707500Y-97589500I0J-147500D01*
G01*
X80707500Y-97884500D01*
G75*
G02*
X80560000Y-98032000I-147500J0D01*
G01*
X80215000Y-98032000D01*
G75*
G02*
X80067500Y-97884500I0J147500D01*
G01*
X80067500Y-97589500D01*
G75*
G02*
X80215000Y-97442000I147500J0D01*
G01*
G37*
G36*
G01*
X80215000Y-96472000D02*
X80560000Y-96472000D01*
G75*
G02*
X80707500Y-96619500I0J-147500D01*
G01*
X80707500Y-96914500D01*
G75*
G02*
X80560000Y-97062000I-147500J0D01*
G01*
X80215000Y-97062000D01*
G75*
G02*
X80067500Y-96914500I0J147500D01*
G01*
X80067500Y-96619500D01*
G75*
G02*
X80215000Y-96472000I147500J0D01*
G01*
G37*
G36*
G01*
X80560000Y-93887000D02*
X80215000Y-93887000D01*
G75*
G02*
X80067500Y-93739500I0J147500D01*
G01*
X80067500Y-93444500D01*
G75*
G02*
X80215000Y-93297000I147500J0D01*
G01*
X80560000Y-93297000D01*
G75*
G02*
X80707500Y-93444500I0J-147500D01*
G01*
X80707500Y-93739500D01*
G75*
G02*
X80560000Y-93887000I-147500J0D01*
G01*
G37*
G36*
G01*
X80560000Y-94857000D02*
X80215000Y-94857000D01*
G75*
G02*
X80067500Y-94709500I0J147500D01*
G01*
X80067500Y-94414500D01*
G75*
G02*
X80215000Y-94267000I147500J0D01*
G01*
X80560000Y-94267000D01*
G75*
G02*
X80707500Y-94414500I0J-147500D01*
G01*
X80707500Y-94709500D01*
G75*
G02*
X80560000Y-94857000I-147500J0D01*
G01*
G37*
G36*
G01*
X97629125Y-92662500D02*
X97629125Y-92317500D01*
G75*
G02*
X97776625Y-92170000I147500J0D01*
G01*
X98071625Y-92170000D01*
G75*
G02*
X98219125Y-92317500I0J-147500D01*
G01*
X98219125Y-92662500D01*
G75*
G02*
X98071625Y-92810000I-147500J0D01*
G01*
X97776625Y-92810000D01*
G75*
G02*
X97629125Y-92662500I0J147500D01*
G01*
G37*
G36*
G01*
X96659125Y-92662500D02*
X96659125Y-92317500D01*
G75*
G02*
X96806625Y-92170000I147500J0D01*
G01*
X97101625Y-92170000D01*
G75*
G02*
X97249125Y-92317500I0J-147500D01*
G01*
X97249125Y-92662500D01*
G75*
G02*
X97101625Y-92810000I-147500J0D01*
G01*
X96806625Y-92810000D01*
G75*
G02*
X96659125Y-92662500I0J147500D01*
G01*
G37*
G36*
G01*
X98457250Y-94267500D02*
X98802250Y-94267500D01*
G75*
G02*
X98949750Y-94415000I0J-147500D01*
G01*
X98949750Y-94710000D01*
G75*
G02*
X98802250Y-94857500I-147500J0D01*
G01*
X98457250Y-94857500D01*
G75*
G02*
X98309750Y-94710000I0J147500D01*
G01*
X98309750Y-94415000D01*
G75*
G02*
X98457250Y-94267500I147500J0D01*
G01*
G37*
G36*
G01*
X98457250Y-93297500D02*
X98802250Y-93297500D01*
G75*
G02*
X98949750Y-93445000I0J-147500D01*
G01*
X98949750Y-93740000D01*
G75*
G02*
X98802250Y-93887500I-147500J0D01*
G01*
X98457250Y-93887500D01*
G75*
G02*
X98309750Y-93740000I0J147500D01*
G01*
X98309750Y-93445000D01*
G75*
G02*
X98457250Y-93297500I147500J0D01*
G01*
G37*
G36*
G01*
X98457250Y-97442500D02*
X98802250Y-97442500D01*
G75*
G02*
X98949750Y-97590000I0J-147500D01*
G01*
X98949750Y-97885000D01*
G75*
G02*
X98802250Y-98032500I-147500J0D01*
G01*
X98457250Y-98032500D01*
G75*
G02*
X98309750Y-97885000I0J147500D01*
G01*
X98309750Y-97590000D01*
G75*
G02*
X98457250Y-97442500I147500J0D01*
G01*
G37*
G36*
G01*
X98457250Y-96472500D02*
X98802250Y-96472500D01*
G75*
G02*
X98949750Y-96620000I0J-147500D01*
G01*
X98949750Y-96915000D01*
G75*
G02*
X98802250Y-97062500I-147500J0D01*
G01*
X98457250Y-97062500D01*
G75*
G02*
X98309750Y-96915000I0J147500D01*
G01*
X98309750Y-96620000D01*
G75*
G02*
X98457250Y-96472500I147500J0D01*
G01*
G37*
G36*
G01*
X97629125Y-99012500D02*
X97629125Y-98667500D01*
G75*
G02*
X97776625Y-98520000I147500J0D01*
G01*
X98071625Y-98520000D01*
G75*
G02*
X98219125Y-98667500I0J-147500D01*
G01*
X98219125Y-99012500D01*
G75*
G02*
X98071625Y-99160000I-147500J0D01*
G01*
X97776625Y-99160000D01*
G75*
G02*
X97629125Y-99012500I0J147500D01*
G01*
G37*
G36*
G01*
X96659125Y-99012500D02*
X96659125Y-98667500D01*
G75*
G02*
X96806625Y-98520000I147500J0D01*
G01*
X97101625Y-98520000D01*
G75*
G02*
X97249125Y-98667500I0J-147500D01*
G01*
X97249125Y-99012500D01*
G75*
G02*
X97101625Y-99160000I-147500J0D01*
G01*
X96806625Y-99160000D01*
G75*
G02*
X96659125Y-99012500I0J147500D01*
G01*
G37*
G36*
G01*
X96076000Y-97442500D02*
X96421000Y-97442500D01*
G75*
G02*
X96568500Y-97590000I0J-147500D01*
G01*
X96568500Y-97885000D01*
G75*
G02*
X96421000Y-98032500I-147500J0D01*
G01*
X96076000Y-98032500D01*
G75*
G02*
X95928500Y-97885000I0J147500D01*
G01*
X95928500Y-97590000D01*
G75*
G02*
X96076000Y-97442500I147500J0D01*
G01*
G37*
G36*
G01*
X96076000Y-96472500D02*
X96421000Y-96472500D01*
G75*
G02*
X96568500Y-96620000I0J-147500D01*
G01*
X96568500Y-96915000D01*
G75*
G02*
X96421000Y-97062500I-147500J0D01*
G01*
X96076000Y-97062500D01*
G75*
G02*
X95928500Y-96915000I0J147500D01*
G01*
X95928500Y-96620000D01*
G75*
G02*
X96076000Y-96472500I147500J0D01*
G01*
G37*
G36*
G01*
X96076000Y-94267500D02*
X96421000Y-94267500D01*
G75*
G02*
X96568500Y-94415000I0J-147500D01*
G01*
X96568500Y-94710000D01*
G75*
G02*
X96421000Y-94857500I-147500J0D01*
G01*
X96076000Y-94857500D01*
G75*
G02*
X95928500Y-94710000I0J147500D01*
G01*
X95928500Y-94415000D01*
G75*
G02*
X96076000Y-94267500I147500J0D01*
G01*
G37*
G36*
G01*
X96076000Y-93297500D02*
X96421000Y-93297500D01*
G75*
G02*
X96568500Y-93445000I0J-147500D01*
G01*
X96568500Y-93740000D01*
G75*
G02*
X96421000Y-93887500I-147500J0D01*
G01*
X96076000Y-93887500D01*
G75*
G02*
X95928500Y-93740000I0J147500D01*
G01*
X95928500Y-93445000D01*
G75*
G02*
X96076000Y-93297500I147500J0D01*
G01*
G37*
G36*
G01*
X97249125Y-95492500D02*
X97249125Y-95837500D01*
G75*
G02*
X97101625Y-95985000I-147500J0D01*
G01*
X96806625Y-95985000D01*
G75*
G02*
X96659125Y-95837500I0J147500D01*
G01*
X96659125Y-95492500D01*
G75*
G02*
X96806625Y-95345000I147500J0D01*
G01*
X97101625Y-95345000D01*
G75*
G02*
X97249125Y-95492500I0J-147500D01*
G01*
G37*
G36*
G01*
X98219125Y-95492500D02*
X98219125Y-95837500D01*
G75*
G02*
X98071625Y-95985000I-147500J0D01*
G01*
X97776625Y-95985000D01*
G75*
G02*
X97629125Y-95837500I0J147500D01*
G01*
X97629125Y-95492500D01*
G75*
G02*
X97776625Y-95345000I147500J0D01*
G01*
X98071625Y-95345000D01*
G75*
G02*
X98219125Y-95492500I0J-147500D01*
G01*
G37*
G36*
G01*
X101994750Y-92662500D02*
X101994750Y-92317500D01*
G75*
G02*
X102142250Y-92170000I147500J0D01*
G01*
X102437250Y-92170000D01*
G75*
G02*
X102584750Y-92317500I0J-147500D01*
G01*
X102584750Y-92662500D01*
G75*
G02*
X102437250Y-92810000I-147500J0D01*
G01*
X102142250Y-92810000D01*
G75*
G02*
X101994750Y-92662500I0J147500D01*
G01*
G37*
G36*
G01*
X101024750Y-92662500D02*
X101024750Y-92317500D01*
G75*
G02*
X101172250Y-92170000I147500J0D01*
G01*
X101467250Y-92170000D01*
G75*
G02*
X101614750Y-92317500I0J-147500D01*
G01*
X101614750Y-92662500D01*
G75*
G02*
X101467250Y-92810000I-147500J0D01*
G01*
X101172250Y-92810000D01*
G75*
G02*
X101024750Y-92662500I0J147500D01*
G01*
G37*
G36*
G01*
X102822875Y-94267500D02*
X103167875Y-94267500D01*
G75*
G02*
X103315375Y-94415000I0J-147500D01*
G01*
X103315375Y-94710000D01*
G75*
G02*
X103167875Y-94857500I-147500J0D01*
G01*
X102822875Y-94857500D01*
G75*
G02*
X102675375Y-94710000I0J147500D01*
G01*
X102675375Y-94415000D01*
G75*
G02*
X102822875Y-94267500I147500J0D01*
G01*
G37*
G36*
G01*
X102822875Y-93297500D02*
X103167875Y-93297500D01*
G75*
G02*
X103315375Y-93445000I0J-147500D01*
G01*
X103315375Y-93740000D01*
G75*
G02*
X103167875Y-93887500I-147500J0D01*
G01*
X102822875Y-93887500D01*
G75*
G02*
X102675375Y-93740000I0J147500D01*
G01*
X102675375Y-93445000D01*
G75*
G02*
X102822875Y-93297500I147500J0D01*
G01*
G37*
G36*
G01*
X102822875Y-97442500D02*
X103167875Y-97442500D01*
G75*
G02*
X103315375Y-97590000I0J-147500D01*
G01*
X103315375Y-97885000D01*
G75*
G02*
X103167875Y-98032500I-147500J0D01*
G01*
X102822875Y-98032500D01*
G75*
G02*
X102675375Y-97885000I0J147500D01*
G01*
X102675375Y-97590000D01*
G75*
G02*
X102822875Y-97442500I147500J0D01*
G01*
G37*
G36*
G01*
X102822875Y-96472500D02*
X103167875Y-96472500D01*
G75*
G02*
X103315375Y-96620000I0J-147500D01*
G01*
X103315375Y-96915000D01*
G75*
G02*
X103167875Y-97062500I-147500J0D01*
G01*
X102822875Y-97062500D01*
G75*
G02*
X102675375Y-96915000I0J147500D01*
G01*
X102675375Y-96620000D01*
G75*
G02*
X102822875Y-96472500I147500J0D01*
G01*
G37*
G36*
G01*
X101994750Y-99012500D02*
X101994750Y-98667500D01*
G75*
G02*
X102142250Y-98520000I147500J0D01*
G01*
X102437250Y-98520000D01*
G75*
G02*
X102584750Y-98667500I0J-147500D01*
G01*
X102584750Y-99012500D01*
G75*
G02*
X102437250Y-99160000I-147500J0D01*
G01*
X102142250Y-99160000D01*
G75*
G02*
X101994750Y-99012500I0J147500D01*
G01*
G37*
G36*
G01*
X101024750Y-99012500D02*
X101024750Y-98667500D01*
G75*
G02*
X101172250Y-98520000I147500J0D01*
G01*
X101467250Y-98520000D01*
G75*
G02*
X101614750Y-98667500I0J-147500D01*
G01*
X101614750Y-99012500D01*
G75*
G02*
X101467250Y-99160000I-147500J0D01*
G01*
X101172250Y-99160000D01*
G75*
G02*
X101024750Y-99012500I0J147500D01*
G01*
G37*
G36*
G01*
X100441625Y-97442500D02*
X100786625Y-97442500D01*
G75*
G02*
X100934125Y-97590000I0J-147500D01*
G01*
X100934125Y-97885000D01*
G75*
G02*
X100786625Y-98032500I-147500J0D01*
G01*
X100441625Y-98032500D01*
G75*
G02*
X100294125Y-97885000I0J147500D01*
G01*
X100294125Y-97590000D01*
G75*
G02*
X100441625Y-97442500I147500J0D01*
G01*
G37*
G36*
G01*
X100441625Y-96472500D02*
X100786625Y-96472500D01*
G75*
G02*
X100934125Y-96620000I0J-147500D01*
G01*
X100934125Y-96915000D01*
G75*
G02*
X100786625Y-97062500I-147500J0D01*
G01*
X100441625Y-97062500D01*
G75*
G02*
X100294125Y-96915000I0J147500D01*
G01*
X100294125Y-96620000D01*
G75*
G02*
X100441625Y-96472500I147500J0D01*
G01*
G37*
G36*
G01*
X100441625Y-94267500D02*
X100786625Y-94267500D01*
G75*
G02*
X100934125Y-94415000I0J-147500D01*
G01*
X100934125Y-94710000D01*
G75*
G02*
X100786625Y-94857500I-147500J0D01*
G01*
X100441625Y-94857500D01*
G75*
G02*
X100294125Y-94710000I0J147500D01*
G01*
X100294125Y-94415000D01*
G75*
G02*
X100441625Y-94267500I147500J0D01*
G01*
G37*
G36*
G01*
X100441625Y-93297500D02*
X100786625Y-93297500D01*
G75*
G02*
X100934125Y-93445000I0J-147500D01*
G01*
X100934125Y-93740000D01*
G75*
G02*
X100786625Y-93887500I-147500J0D01*
G01*
X100441625Y-93887500D01*
G75*
G02*
X100294125Y-93740000I0J147500D01*
G01*
X100294125Y-93445000D01*
G75*
G02*
X100441625Y-93297500I147500J0D01*
G01*
G37*
G36*
G01*
X101614750Y-95492500D02*
X101614750Y-95837500D01*
G75*
G02*
X101467250Y-95985000I-147500J0D01*
G01*
X101172250Y-95985000D01*
G75*
G02*
X101024750Y-95837500I0J147500D01*
G01*
X101024750Y-95492500D01*
G75*
G02*
X101172250Y-95345000I147500J0D01*
G01*
X101467250Y-95345000D01*
G75*
G02*
X101614750Y-95492500I0J-147500D01*
G01*
G37*
G36*
G01*
X102584750Y-95492500D02*
X102584750Y-95837500D01*
G75*
G02*
X102437250Y-95985000I-147500J0D01*
G01*
X102142250Y-95985000D01*
G75*
G02*
X101994750Y-95837500I0J147500D01*
G01*
X101994750Y-95492500D01*
G75*
G02*
X102142250Y-95345000I147500J0D01*
G01*
X102437250Y-95345000D01*
G75*
G02*
X102584750Y-95492500I0J-147500D01*
G01*
G37*
G36*
G01*
X106360375Y-92662500D02*
X106360375Y-92317500D01*
G75*
G02*
X106507875Y-92170000I147500J0D01*
G01*
X106802875Y-92170000D01*
G75*
G02*
X106950375Y-92317500I0J-147500D01*
G01*
X106950375Y-92662500D01*
G75*
G02*
X106802875Y-92810000I-147500J0D01*
G01*
X106507875Y-92810000D01*
G75*
G02*
X106360375Y-92662500I0J147500D01*
G01*
G37*
G36*
G01*
X105390375Y-92662500D02*
X105390375Y-92317500D01*
G75*
G02*
X105537875Y-92170000I147500J0D01*
G01*
X105832875Y-92170000D01*
G75*
G02*
X105980375Y-92317500I0J-147500D01*
G01*
X105980375Y-92662500D01*
G75*
G02*
X105832875Y-92810000I-147500J0D01*
G01*
X105537875Y-92810000D01*
G75*
G02*
X105390375Y-92662500I0J147500D01*
G01*
G37*
G36*
G01*
X107188500Y-94267500D02*
X107533500Y-94267500D01*
G75*
G02*
X107681000Y-94415000I0J-147500D01*
G01*
X107681000Y-94710000D01*
G75*
G02*
X107533500Y-94857500I-147500J0D01*
G01*
X107188500Y-94857500D01*
G75*
G02*
X107041000Y-94710000I0J147500D01*
G01*
X107041000Y-94415000D01*
G75*
G02*
X107188500Y-94267500I147500J0D01*
G01*
G37*
G36*
G01*
X107188500Y-93297500D02*
X107533500Y-93297500D01*
G75*
G02*
X107681000Y-93445000I0J-147500D01*
G01*
X107681000Y-93740000D01*
G75*
G02*
X107533500Y-93887500I-147500J0D01*
G01*
X107188500Y-93887500D01*
G75*
G02*
X107041000Y-93740000I0J147500D01*
G01*
X107041000Y-93445000D01*
G75*
G02*
X107188500Y-93297500I147500J0D01*
G01*
G37*
G36*
G01*
X107188500Y-97442500D02*
X107533500Y-97442500D01*
G75*
G02*
X107681000Y-97590000I0J-147500D01*
G01*
X107681000Y-97885000D01*
G75*
G02*
X107533500Y-98032500I-147500J0D01*
G01*
X107188500Y-98032500D01*
G75*
G02*
X107041000Y-97885000I0J147500D01*
G01*
X107041000Y-97590000D01*
G75*
G02*
X107188500Y-97442500I147500J0D01*
G01*
G37*
G36*
G01*
X107188500Y-96472500D02*
X107533500Y-96472500D01*
G75*
G02*
X107681000Y-96620000I0J-147500D01*
G01*
X107681000Y-96915000D01*
G75*
G02*
X107533500Y-97062500I-147500J0D01*
G01*
X107188500Y-97062500D01*
G75*
G02*
X107041000Y-96915000I0J147500D01*
G01*
X107041000Y-96620000D01*
G75*
G02*
X107188500Y-96472500I147500J0D01*
G01*
G37*
G36*
G01*
X106360375Y-99012500D02*
X106360375Y-98667500D01*
G75*
G02*
X106507875Y-98520000I147500J0D01*
G01*
X106802875Y-98520000D01*
G75*
G02*
X106950375Y-98667500I0J-147500D01*
G01*
X106950375Y-99012500D01*
G75*
G02*
X106802875Y-99160000I-147500J0D01*
G01*
X106507875Y-99160000D01*
G75*
G02*
X106360375Y-99012500I0J147500D01*
G01*
G37*
G36*
G01*
X105390375Y-99012500D02*
X105390375Y-98667500D01*
G75*
G02*
X105537875Y-98520000I147500J0D01*
G01*
X105832875Y-98520000D01*
G75*
G02*
X105980375Y-98667500I0J-147500D01*
G01*
X105980375Y-99012500D01*
G75*
G02*
X105832875Y-99160000I-147500J0D01*
G01*
X105537875Y-99160000D01*
G75*
G02*
X105390375Y-99012500I0J147500D01*
G01*
G37*
G36*
G01*
X104807250Y-97442500D02*
X105152250Y-97442500D01*
G75*
G02*
X105299750Y-97590000I0J-147500D01*
G01*
X105299750Y-97885000D01*
G75*
G02*
X105152250Y-98032500I-147500J0D01*
G01*
X104807250Y-98032500D01*
G75*
G02*
X104659750Y-97885000I0J147500D01*
G01*
X104659750Y-97590000D01*
G75*
G02*
X104807250Y-97442500I147500J0D01*
G01*
G37*
G36*
G01*
X104807250Y-96472500D02*
X105152250Y-96472500D01*
G75*
G02*
X105299750Y-96620000I0J-147500D01*
G01*
X105299750Y-96915000D01*
G75*
G02*
X105152250Y-97062500I-147500J0D01*
G01*
X104807250Y-97062500D01*
G75*
G02*
X104659750Y-96915000I0J147500D01*
G01*
X104659750Y-96620000D01*
G75*
G02*
X104807250Y-96472500I147500J0D01*
G01*
G37*
G36*
G01*
X104807250Y-94267500D02*
X105152250Y-94267500D01*
G75*
G02*
X105299750Y-94415000I0J-147500D01*
G01*
X105299750Y-94710000D01*
G75*
G02*
X105152250Y-94857500I-147500J0D01*
G01*
X104807250Y-94857500D01*
G75*
G02*
X104659750Y-94710000I0J147500D01*
G01*
X104659750Y-94415000D01*
G75*
G02*
X104807250Y-94267500I147500J0D01*
G01*
G37*
G36*
G01*
X104807250Y-93297500D02*
X105152250Y-93297500D01*
G75*
G02*
X105299750Y-93445000I0J-147500D01*
G01*
X105299750Y-93740000D01*
G75*
G02*
X105152250Y-93887500I-147500J0D01*
G01*
X104807250Y-93887500D01*
G75*
G02*
X104659750Y-93740000I0J147500D01*
G01*
X104659750Y-93445000D01*
G75*
G02*
X104807250Y-93297500I147500J0D01*
G01*
G37*
G36*
G01*
X105980375Y-95492500D02*
X105980375Y-95837500D01*
G75*
G02*
X105832875Y-95985000I-147500J0D01*
G01*
X105537875Y-95985000D01*
G75*
G02*
X105390375Y-95837500I0J147500D01*
G01*
X105390375Y-95492500D01*
G75*
G02*
X105537875Y-95345000I147500J0D01*
G01*
X105832875Y-95345000D01*
G75*
G02*
X105980375Y-95492500I0J-147500D01*
G01*
G37*
G36*
G01*
X106950375Y-95492500D02*
X106950375Y-95837500D01*
G75*
G02*
X106802875Y-95985000I-147500J0D01*
G01*
X106507875Y-95985000D01*
G75*
G02*
X106360375Y-95837500I0J147500D01*
G01*
X106360375Y-95492500D01*
G75*
G02*
X106507875Y-95345000I147500J0D01*
G01*
X106802875Y-95345000D01*
G75*
G02*
X106950375Y-95492500I0J-147500D01*
G01*
G37*
G36*
G01*
X110726000Y-92662500D02*
X110726000Y-92317500D01*
G75*
G02*
X110873500Y-92170000I147500J0D01*
G01*
X111168500Y-92170000D01*
G75*
G02*
X111316000Y-92317500I0J-147500D01*
G01*
X111316000Y-92662500D01*
G75*
G02*
X111168500Y-92810000I-147500J0D01*
G01*
X110873500Y-92810000D01*
G75*
G02*
X110726000Y-92662500I0J147500D01*
G01*
G37*
G36*
G01*
X109756000Y-92662500D02*
X109756000Y-92317500D01*
G75*
G02*
X109903500Y-92170000I147500J0D01*
G01*
X110198500Y-92170000D01*
G75*
G02*
X110346000Y-92317500I0J-147500D01*
G01*
X110346000Y-92662500D01*
G75*
G02*
X110198500Y-92810000I-147500J0D01*
G01*
X109903500Y-92810000D01*
G75*
G02*
X109756000Y-92662500I0J147500D01*
G01*
G37*
G36*
G01*
X111554125Y-94267500D02*
X111899125Y-94267500D01*
G75*
G02*
X112046625Y-94415000I0J-147500D01*
G01*
X112046625Y-94710000D01*
G75*
G02*
X111899125Y-94857500I-147500J0D01*
G01*
X111554125Y-94857500D01*
G75*
G02*
X111406625Y-94710000I0J147500D01*
G01*
X111406625Y-94415000D01*
G75*
G02*
X111554125Y-94267500I147500J0D01*
G01*
G37*
G36*
G01*
X111554125Y-93297500D02*
X111899125Y-93297500D01*
G75*
G02*
X112046625Y-93445000I0J-147500D01*
G01*
X112046625Y-93740000D01*
G75*
G02*
X111899125Y-93887500I-147500J0D01*
G01*
X111554125Y-93887500D01*
G75*
G02*
X111406625Y-93740000I0J147500D01*
G01*
X111406625Y-93445000D01*
G75*
G02*
X111554125Y-93297500I147500J0D01*
G01*
G37*
G36*
G01*
X111554125Y-97442500D02*
X111899125Y-97442500D01*
G75*
G02*
X112046625Y-97590000I0J-147500D01*
G01*
X112046625Y-97885000D01*
G75*
G02*
X111899125Y-98032500I-147500J0D01*
G01*
X111554125Y-98032500D01*
G75*
G02*
X111406625Y-97885000I0J147500D01*
G01*
X111406625Y-97590000D01*
G75*
G02*
X111554125Y-97442500I147500J0D01*
G01*
G37*
G36*
G01*
X111554125Y-96472500D02*
X111899125Y-96472500D01*
G75*
G02*
X112046625Y-96620000I0J-147500D01*
G01*
X112046625Y-96915000D01*
G75*
G02*
X111899125Y-97062500I-147500J0D01*
G01*
X111554125Y-97062500D01*
G75*
G02*
X111406625Y-96915000I0J147500D01*
G01*
X111406625Y-96620000D01*
G75*
G02*
X111554125Y-96472500I147500J0D01*
G01*
G37*
G36*
G01*
X110726000Y-99012500D02*
X110726000Y-98667500D01*
G75*
G02*
X110873500Y-98520000I147500J0D01*
G01*
X111168500Y-98520000D01*
G75*
G02*
X111316000Y-98667500I0J-147500D01*
G01*
X111316000Y-99012500D01*
G75*
G02*
X111168500Y-99160000I-147500J0D01*
G01*
X110873500Y-99160000D01*
G75*
G02*
X110726000Y-99012500I0J147500D01*
G01*
G37*
G36*
G01*
X109756000Y-99012500D02*
X109756000Y-98667500D01*
G75*
G02*
X109903500Y-98520000I147500J0D01*
G01*
X110198500Y-98520000D01*
G75*
G02*
X110346000Y-98667500I0J-147500D01*
G01*
X110346000Y-99012500D01*
G75*
G02*
X110198500Y-99160000I-147500J0D01*
G01*
X109903500Y-99160000D01*
G75*
G02*
X109756000Y-99012500I0J147500D01*
G01*
G37*
G36*
G01*
X109172875Y-97442500D02*
X109517875Y-97442500D01*
G75*
G02*
X109665375Y-97590000I0J-147500D01*
G01*
X109665375Y-97885000D01*
G75*
G02*
X109517875Y-98032500I-147500J0D01*
G01*
X109172875Y-98032500D01*
G75*
G02*
X109025375Y-97885000I0J147500D01*
G01*
X109025375Y-97590000D01*
G75*
G02*
X109172875Y-97442500I147500J0D01*
G01*
G37*
G36*
G01*
X109172875Y-96472500D02*
X109517875Y-96472500D01*
G75*
G02*
X109665375Y-96620000I0J-147500D01*
G01*
X109665375Y-96915000D01*
G75*
G02*
X109517875Y-97062500I-147500J0D01*
G01*
X109172875Y-97062500D01*
G75*
G02*
X109025375Y-96915000I0J147500D01*
G01*
X109025375Y-96620000D01*
G75*
G02*
X109172875Y-96472500I147500J0D01*
G01*
G37*
G36*
G01*
X109172875Y-94267500D02*
X109517875Y-94267500D01*
G75*
G02*
X109665375Y-94415000I0J-147500D01*
G01*
X109665375Y-94710000D01*
G75*
G02*
X109517875Y-94857500I-147500J0D01*
G01*
X109172875Y-94857500D01*
G75*
G02*
X109025375Y-94710000I0J147500D01*
G01*
X109025375Y-94415000D01*
G75*
G02*
X109172875Y-94267500I147500J0D01*
G01*
G37*
G36*
G01*
X109172875Y-93297500D02*
X109517875Y-93297500D01*
G75*
G02*
X109665375Y-93445000I0J-147500D01*
G01*
X109665375Y-93740000D01*
G75*
G02*
X109517875Y-93887500I-147500J0D01*
G01*
X109172875Y-93887500D01*
G75*
G02*
X109025375Y-93740000I0J147500D01*
G01*
X109025375Y-93445000D01*
G75*
G02*
X109172875Y-93297500I147500J0D01*
G01*
G37*
G36*
G01*
X110346000Y-95492500D02*
X110346000Y-95837500D01*
G75*
G02*
X110198500Y-95985000I-147500J0D01*
G01*
X109903500Y-95985000D01*
G75*
G02*
X109756000Y-95837500I0J147500D01*
G01*
X109756000Y-95492500D01*
G75*
G02*
X109903500Y-95345000I147500J0D01*
G01*
X110198500Y-95345000D01*
G75*
G02*
X110346000Y-95492500I0J-147500D01*
G01*
G37*
G36*
G01*
X111316000Y-95492500D02*
X111316000Y-95837500D01*
G75*
G02*
X111168500Y-95985000I-147500J0D01*
G01*
X110873500Y-95985000D01*
G75*
G02*
X110726000Y-95837500I0J147500D01*
G01*
X110726000Y-95492500D01*
G75*
G02*
X110873500Y-95345000I147500J0D01*
G01*
X111168500Y-95345000D01*
G75*
G02*
X111316000Y-95492500I0J-147500D01*
G01*
G37*
G36*
G01*
X115091625Y-92662500D02*
X115091625Y-92317500D01*
G75*
G02*
X115239125Y-92170000I147500J0D01*
G01*
X115534125Y-92170000D01*
G75*
G02*
X115681625Y-92317500I0J-147500D01*
G01*
X115681625Y-92662500D01*
G75*
G02*
X115534125Y-92810000I-147500J0D01*
G01*
X115239125Y-92810000D01*
G75*
G02*
X115091625Y-92662500I0J147500D01*
G01*
G37*
G36*
G01*
X114121625Y-92662500D02*
X114121625Y-92317500D01*
G75*
G02*
X114269125Y-92170000I147500J0D01*
G01*
X114564125Y-92170000D01*
G75*
G02*
X114711625Y-92317500I0J-147500D01*
G01*
X114711625Y-92662500D01*
G75*
G02*
X114564125Y-92810000I-147500J0D01*
G01*
X114269125Y-92810000D01*
G75*
G02*
X114121625Y-92662500I0J147500D01*
G01*
G37*
G36*
G01*
X115919750Y-94267500D02*
X116264750Y-94267500D01*
G75*
G02*
X116412250Y-94415000I0J-147500D01*
G01*
X116412250Y-94710000D01*
G75*
G02*
X116264750Y-94857500I-147500J0D01*
G01*
X115919750Y-94857500D01*
G75*
G02*
X115772250Y-94710000I0J147500D01*
G01*
X115772250Y-94415000D01*
G75*
G02*
X115919750Y-94267500I147500J0D01*
G01*
G37*
G36*
G01*
X115919750Y-93297500D02*
X116264750Y-93297500D01*
G75*
G02*
X116412250Y-93445000I0J-147500D01*
G01*
X116412250Y-93740000D01*
G75*
G02*
X116264750Y-93887500I-147500J0D01*
G01*
X115919750Y-93887500D01*
G75*
G02*
X115772250Y-93740000I0J147500D01*
G01*
X115772250Y-93445000D01*
G75*
G02*
X115919750Y-93297500I147500J0D01*
G01*
G37*
G36*
G01*
X115919750Y-97442500D02*
X116264750Y-97442500D01*
G75*
G02*
X116412250Y-97590000I0J-147500D01*
G01*
X116412250Y-97885000D01*
G75*
G02*
X116264750Y-98032500I-147500J0D01*
G01*
X115919750Y-98032500D01*
G75*
G02*
X115772250Y-97885000I0J147500D01*
G01*
X115772250Y-97590000D01*
G75*
G02*
X115919750Y-97442500I147500J0D01*
G01*
G37*
G36*
G01*
X115919750Y-96472500D02*
X116264750Y-96472500D01*
G75*
G02*
X116412250Y-96620000I0J-147500D01*
G01*
X116412250Y-96915000D01*
G75*
G02*
X116264750Y-97062500I-147500J0D01*
G01*
X115919750Y-97062500D01*
G75*
G02*
X115772250Y-96915000I0J147500D01*
G01*
X115772250Y-96620000D01*
G75*
G02*
X115919750Y-96472500I147500J0D01*
G01*
G37*
G36*
G01*
X115091625Y-99012500D02*
X115091625Y-98667500D01*
G75*
G02*
X115239125Y-98520000I147500J0D01*
G01*
X115534125Y-98520000D01*
G75*
G02*
X115681625Y-98667500I0J-147500D01*
G01*
X115681625Y-99012500D01*
G75*
G02*
X115534125Y-99160000I-147500J0D01*
G01*
X115239125Y-99160000D01*
G75*
G02*
X115091625Y-99012500I0J147500D01*
G01*
G37*
G36*
G01*
X114121625Y-99012500D02*
X114121625Y-98667500D01*
G75*
G02*
X114269125Y-98520000I147500J0D01*
G01*
X114564125Y-98520000D01*
G75*
G02*
X114711625Y-98667500I0J-147500D01*
G01*
X114711625Y-99012500D01*
G75*
G02*
X114564125Y-99160000I-147500J0D01*
G01*
X114269125Y-99160000D01*
G75*
G02*
X114121625Y-99012500I0J147500D01*
G01*
G37*
G36*
G01*
X113538500Y-97442500D02*
X113883500Y-97442500D01*
G75*
G02*
X114031000Y-97590000I0J-147500D01*
G01*
X114031000Y-97885000D01*
G75*
G02*
X113883500Y-98032500I-147500J0D01*
G01*
X113538500Y-98032500D01*
G75*
G02*
X113391000Y-97885000I0J147500D01*
G01*
X113391000Y-97590000D01*
G75*
G02*
X113538500Y-97442500I147500J0D01*
G01*
G37*
G36*
G01*
X113538500Y-96472500D02*
X113883500Y-96472500D01*
G75*
G02*
X114031000Y-96620000I0J-147500D01*
G01*
X114031000Y-96915000D01*
G75*
G02*
X113883500Y-97062500I-147500J0D01*
G01*
X113538500Y-97062500D01*
G75*
G02*
X113391000Y-96915000I0J147500D01*
G01*
X113391000Y-96620000D01*
G75*
G02*
X113538500Y-96472500I147500J0D01*
G01*
G37*
G36*
G01*
X113538500Y-94267500D02*
X113883500Y-94267500D01*
G75*
G02*
X114031000Y-94415000I0J-147500D01*
G01*
X114031000Y-94710000D01*
G75*
G02*
X113883500Y-94857500I-147500J0D01*
G01*
X113538500Y-94857500D01*
G75*
G02*
X113391000Y-94710000I0J147500D01*
G01*
X113391000Y-94415000D01*
G75*
G02*
X113538500Y-94267500I147500J0D01*
G01*
G37*
G36*
G01*
X113538500Y-93297500D02*
X113883500Y-93297500D01*
G75*
G02*
X114031000Y-93445000I0J-147500D01*
G01*
X114031000Y-93740000D01*
G75*
G02*
X113883500Y-93887500I-147500J0D01*
G01*
X113538500Y-93887500D01*
G75*
G02*
X113391000Y-93740000I0J147500D01*
G01*
X113391000Y-93445000D01*
G75*
G02*
X113538500Y-93297500I147500J0D01*
G01*
G37*
G36*
G01*
X115091625Y-95837500D02*
X115091625Y-95492500D01*
G75*
G02*
X115239125Y-95345000I147500J0D01*
G01*
X115534125Y-95345000D01*
G75*
G02*
X115681625Y-95492500I0J-147500D01*
G01*
X115681625Y-95837500D01*
G75*
G02*
X115534125Y-95985000I-147500J0D01*
G01*
X115239125Y-95985000D01*
G75*
G02*
X115091625Y-95837500I0J147500D01*
G01*
G37*
G36*
G01*
X114121625Y-95837500D02*
X114121625Y-95492500D01*
G75*
G02*
X114269125Y-95345000I147500J0D01*
G01*
X114564125Y-95345000D01*
G75*
G02*
X114711625Y-95492500I0J-147500D01*
G01*
X114711625Y-95837500D01*
G75*
G02*
X114564125Y-95985000I-147500J0D01*
G01*
X114269125Y-95985000D01*
G75*
G02*
X114121625Y-95837500I0J147500D01*
G01*
G37*
G36*
G01*
X119457250Y-92662500D02*
X119457250Y-92317500D01*
G75*
G02*
X119604750Y-92170000I147500J0D01*
G01*
X119899750Y-92170000D01*
G75*
G02*
X120047250Y-92317500I0J-147500D01*
G01*
X120047250Y-92662500D01*
G75*
G02*
X119899750Y-92810000I-147500J0D01*
G01*
X119604750Y-92810000D01*
G75*
G02*
X119457250Y-92662500I0J147500D01*
G01*
G37*
G36*
G01*
X118487250Y-92662500D02*
X118487250Y-92317500D01*
G75*
G02*
X118634750Y-92170000I147500J0D01*
G01*
X118929750Y-92170000D01*
G75*
G02*
X119077250Y-92317500I0J-147500D01*
G01*
X119077250Y-92662500D01*
G75*
G02*
X118929750Y-92810000I-147500J0D01*
G01*
X118634750Y-92810000D01*
G75*
G02*
X118487250Y-92662500I0J147500D01*
G01*
G37*
G36*
G01*
X120285375Y-94267500D02*
X120630375Y-94267500D01*
G75*
G02*
X120777875Y-94415000I0J-147500D01*
G01*
X120777875Y-94710000D01*
G75*
G02*
X120630375Y-94857500I-147500J0D01*
G01*
X120285375Y-94857500D01*
G75*
G02*
X120137875Y-94710000I0J147500D01*
G01*
X120137875Y-94415000D01*
G75*
G02*
X120285375Y-94267500I147500J0D01*
G01*
G37*
G36*
G01*
X120285375Y-93297500D02*
X120630375Y-93297500D01*
G75*
G02*
X120777875Y-93445000I0J-147500D01*
G01*
X120777875Y-93740000D01*
G75*
G02*
X120630375Y-93887500I-147500J0D01*
G01*
X120285375Y-93887500D01*
G75*
G02*
X120137875Y-93740000I0J147500D01*
G01*
X120137875Y-93445000D01*
G75*
G02*
X120285375Y-93297500I147500J0D01*
G01*
G37*
G36*
G01*
X120285375Y-97442500D02*
X120630375Y-97442500D01*
G75*
G02*
X120777875Y-97590000I0J-147500D01*
G01*
X120777875Y-97885000D01*
G75*
G02*
X120630375Y-98032500I-147500J0D01*
G01*
X120285375Y-98032500D01*
G75*
G02*
X120137875Y-97885000I0J147500D01*
G01*
X120137875Y-97590000D01*
G75*
G02*
X120285375Y-97442500I147500J0D01*
G01*
G37*
G36*
G01*
X120285375Y-96472500D02*
X120630375Y-96472500D01*
G75*
G02*
X120777875Y-96620000I0J-147500D01*
G01*
X120777875Y-96915000D01*
G75*
G02*
X120630375Y-97062500I-147500J0D01*
G01*
X120285375Y-97062500D01*
G75*
G02*
X120137875Y-96915000I0J147500D01*
G01*
X120137875Y-96620000D01*
G75*
G02*
X120285375Y-96472500I147500J0D01*
G01*
G37*
G36*
G01*
X119457250Y-99012500D02*
X119457250Y-98667500D01*
G75*
G02*
X119604750Y-98520000I147500J0D01*
G01*
X119899750Y-98520000D01*
G75*
G02*
X120047250Y-98667500I0J-147500D01*
G01*
X120047250Y-99012500D01*
G75*
G02*
X119899750Y-99160000I-147500J0D01*
G01*
X119604750Y-99160000D01*
G75*
G02*
X119457250Y-99012500I0J147500D01*
G01*
G37*
G36*
G01*
X118487250Y-99012500D02*
X118487250Y-98667500D01*
G75*
G02*
X118634750Y-98520000I147500J0D01*
G01*
X118929750Y-98520000D01*
G75*
G02*
X119077250Y-98667500I0J-147500D01*
G01*
X119077250Y-99012500D01*
G75*
G02*
X118929750Y-99160000I-147500J0D01*
G01*
X118634750Y-99160000D01*
G75*
G02*
X118487250Y-99012500I0J147500D01*
G01*
G37*
G36*
G01*
X117904125Y-97442500D02*
X118249125Y-97442500D01*
G75*
G02*
X118396625Y-97590000I0J-147500D01*
G01*
X118396625Y-97885000D01*
G75*
G02*
X118249125Y-98032500I-147500J0D01*
G01*
X117904125Y-98032500D01*
G75*
G02*
X117756625Y-97885000I0J147500D01*
G01*
X117756625Y-97590000D01*
G75*
G02*
X117904125Y-97442500I147500J0D01*
G01*
G37*
G36*
G01*
X117904125Y-96472500D02*
X118249125Y-96472500D01*
G75*
G02*
X118396625Y-96620000I0J-147500D01*
G01*
X118396625Y-96915000D01*
G75*
G02*
X118249125Y-97062500I-147500J0D01*
G01*
X117904125Y-97062500D01*
G75*
G02*
X117756625Y-96915000I0J147500D01*
G01*
X117756625Y-96620000D01*
G75*
G02*
X117904125Y-96472500I147500J0D01*
G01*
G37*
G36*
G01*
X117904125Y-94267500D02*
X118249125Y-94267500D01*
G75*
G02*
X118396625Y-94415000I0J-147500D01*
G01*
X118396625Y-94710000D01*
G75*
G02*
X118249125Y-94857500I-147500J0D01*
G01*
X117904125Y-94857500D01*
G75*
G02*
X117756625Y-94710000I0J147500D01*
G01*
X117756625Y-94415000D01*
G75*
G02*
X117904125Y-94267500I147500J0D01*
G01*
G37*
G36*
G01*
X117904125Y-93297500D02*
X118249125Y-93297500D01*
G75*
G02*
X118396625Y-93445000I0J-147500D01*
G01*
X118396625Y-93740000D01*
G75*
G02*
X118249125Y-93887500I-147500J0D01*
G01*
X117904125Y-93887500D01*
G75*
G02*
X117756625Y-93740000I0J147500D01*
G01*
X117756625Y-93445000D01*
G75*
G02*
X117904125Y-93297500I147500J0D01*
G01*
G37*
G36*
G01*
X119457250Y-95837500D02*
X119457250Y-95492500D01*
G75*
G02*
X119604750Y-95345000I147500J0D01*
G01*
X119899750Y-95345000D01*
G75*
G02*
X120047250Y-95492500I0J-147500D01*
G01*
X120047250Y-95837500D01*
G75*
G02*
X119899750Y-95985000I-147500J0D01*
G01*
X119604750Y-95985000D01*
G75*
G02*
X119457250Y-95837500I0J147500D01*
G01*
G37*
G36*
G01*
X118487250Y-95837500D02*
X118487250Y-95492500D01*
G75*
G02*
X118634750Y-95345000I147500J0D01*
G01*
X118929750Y-95345000D01*
G75*
G02*
X119077250Y-95492500I0J-147500D01*
G01*
X119077250Y-95837500D01*
G75*
G02*
X118929750Y-95985000I-147500J0D01*
G01*
X118634750Y-95985000D01*
G75*
G02*
X118487250Y-95837500I0J147500D01*
G01*
G37*
G36*
G01*
X123822875Y-92662500D02*
X123822875Y-92317500D01*
G75*
G02*
X123970375Y-92170000I147500J0D01*
G01*
X124265375Y-92170000D01*
G75*
G02*
X124412875Y-92317500I0J-147500D01*
G01*
X124412875Y-92662500D01*
G75*
G02*
X124265375Y-92810000I-147500J0D01*
G01*
X123970375Y-92810000D01*
G75*
G02*
X123822875Y-92662500I0J147500D01*
G01*
G37*
G36*
G01*
X122852875Y-92662500D02*
X122852875Y-92317500D01*
G75*
G02*
X123000375Y-92170000I147500J0D01*
G01*
X123295375Y-92170000D01*
G75*
G02*
X123442875Y-92317500I0J-147500D01*
G01*
X123442875Y-92662500D01*
G75*
G02*
X123295375Y-92810000I-147500J0D01*
G01*
X123000375Y-92810000D01*
G75*
G02*
X122852875Y-92662500I0J147500D01*
G01*
G37*
G36*
G01*
X124651000Y-94267500D02*
X124996000Y-94267500D01*
G75*
G02*
X125143500Y-94415000I0J-147500D01*
G01*
X125143500Y-94710000D01*
G75*
G02*
X124996000Y-94857500I-147500J0D01*
G01*
X124651000Y-94857500D01*
G75*
G02*
X124503500Y-94710000I0J147500D01*
G01*
X124503500Y-94415000D01*
G75*
G02*
X124651000Y-94267500I147500J0D01*
G01*
G37*
G36*
G01*
X124651000Y-93297500D02*
X124996000Y-93297500D01*
G75*
G02*
X125143500Y-93445000I0J-147500D01*
G01*
X125143500Y-93740000D01*
G75*
G02*
X124996000Y-93887500I-147500J0D01*
G01*
X124651000Y-93887500D01*
G75*
G02*
X124503500Y-93740000I0J147500D01*
G01*
X124503500Y-93445000D01*
G75*
G02*
X124651000Y-93297500I147500J0D01*
G01*
G37*
G36*
G01*
X124651000Y-97442500D02*
X124996000Y-97442500D01*
G75*
G02*
X125143500Y-97590000I0J-147500D01*
G01*
X125143500Y-97885000D01*
G75*
G02*
X124996000Y-98032500I-147500J0D01*
G01*
X124651000Y-98032500D01*
G75*
G02*
X124503500Y-97885000I0J147500D01*
G01*
X124503500Y-97590000D01*
G75*
G02*
X124651000Y-97442500I147500J0D01*
G01*
G37*
G36*
G01*
X124651000Y-96472500D02*
X124996000Y-96472500D01*
G75*
G02*
X125143500Y-96620000I0J-147500D01*
G01*
X125143500Y-96915000D01*
G75*
G02*
X124996000Y-97062500I-147500J0D01*
G01*
X124651000Y-97062500D01*
G75*
G02*
X124503500Y-96915000I0J147500D01*
G01*
X124503500Y-96620000D01*
G75*
G02*
X124651000Y-96472500I147500J0D01*
G01*
G37*
G36*
G01*
X123822875Y-99012500D02*
X123822875Y-98667500D01*
G75*
G02*
X123970375Y-98520000I147500J0D01*
G01*
X124265375Y-98520000D01*
G75*
G02*
X124412875Y-98667500I0J-147500D01*
G01*
X124412875Y-99012500D01*
G75*
G02*
X124265375Y-99160000I-147500J0D01*
G01*
X123970375Y-99160000D01*
G75*
G02*
X123822875Y-99012500I0J147500D01*
G01*
G37*
G36*
G01*
X122852875Y-99012500D02*
X122852875Y-98667500D01*
G75*
G02*
X123000375Y-98520000I147500J0D01*
G01*
X123295375Y-98520000D01*
G75*
G02*
X123442875Y-98667500I0J-147500D01*
G01*
X123442875Y-99012500D01*
G75*
G02*
X123295375Y-99160000I-147500J0D01*
G01*
X123000375Y-99160000D01*
G75*
G02*
X122852875Y-99012500I0J147500D01*
G01*
G37*
G36*
G01*
X122269750Y-97442500D02*
X122614750Y-97442500D01*
G75*
G02*
X122762250Y-97590000I0J-147500D01*
G01*
X122762250Y-97885000D01*
G75*
G02*
X122614750Y-98032500I-147500J0D01*
G01*
X122269750Y-98032500D01*
G75*
G02*
X122122250Y-97885000I0J147500D01*
G01*
X122122250Y-97590000D01*
G75*
G02*
X122269750Y-97442500I147500J0D01*
G01*
G37*
G36*
G01*
X122269750Y-96472500D02*
X122614750Y-96472500D01*
G75*
G02*
X122762250Y-96620000I0J-147500D01*
G01*
X122762250Y-96915000D01*
G75*
G02*
X122614750Y-97062500I-147500J0D01*
G01*
X122269750Y-97062500D01*
G75*
G02*
X122122250Y-96915000I0J147500D01*
G01*
X122122250Y-96620000D01*
G75*
G02*
X122269750Y-96472500I147500J0D01*
G01*
G37*
G36*
G01*
X122269750Y-94267500D02*
X122614750Y-94267500D01*
G75*
G02*
X122762250Y-94415000I0J-147500D01*
G01*
X122762250Y-94710000D01*
G75*
G02*
X122614750Y-94857500I-147500J0D01*
G01*
X122269750Y-94857500D01*
G75*
G02*
X122122250Y-94710000I0J147500D01*
G01*
X122122250Y-94415000D01*
G75*
G02*
X122269750Y-94267500I147500J0D01*
G01*
G37*
G36*
G01*
X122269750Y-93297500D02*
X122614750Y-93297500D01*
G75*
G02*
X122762250Y-93445000I0J-147500D01*
G01*
X122762250Y-93740000D01*
G75*
G02*
X122614750Y-93887500I-147500J0D01*
G01*
X122269750Y-93887500D01*
G75*
G02*
X122122250Y-93740000I0J147500D01*
G01*
X122122250Y-93445000D01*
G75*
G02*
X122269750Y-93297500I147500J0D01*
G01*
G37*
G36*
G01*
X123822875Y-95837500D02*
X123822875Y-95492500D01*
G75*
G02*
X123970375Y-95345000I147500J0D01*
G01*
X124265375Y-95345000D01*
G75*
G02*
X124412875Y-95492500I0J-147500D01*
G01*
X124412875Y-95837500D01*
G75*
G02*
X124265375Y-95985000I-147500J0D01*
G01*
X123970375Y-95985000D01*
G75*
G02*
X123822875Y-95837500I0J147500D01*
G01*
G37*
G36*
G01*
X122852875Y-95837500D02*
X122852875Y-95492500D01*
G75*
G02*
X123000375Y-95345000I147500J0D01*
G01*
X123295375Y-95345000D01*
G75*
G02*
X123442875Y-95492500I0J-147500D01*
G01*
X123442875Y-95837500D01*
G75*
G02*
X123295375Y-95985000I-147500J0D01*
G01*
X123000375Y-95985000D01*
G75*
G02*
X122852875Y-95837500I0J147500D01*
G01*
G37*
G36*
G01*
X128188500Y-92662500D02*
X128188500Y-92317500D01*
G75*
G02*
X128336000Y-92170000I147500J0D01*
G01*
X128631000Y-92170000D01*
G75*
G02*
X128778500Y-92317500I0J-147500D01*
G01*
X128778500Y-92662500D01*
G75*
G02*
X128631000Y-92810000I-147500J0D01*
G01*
X128336000Y-92810000D01*
G75*
G02*
X128188500Y-92662500I0J147500D01*
G01*
G37*
G36*
G01*
X127218500Y-92662500D02*
X127218500Y-92317500D01*
G75*
G02*
X127366000Y-92170000I147500J0D01*
G01*
X127661000Y-92170000D01*
G75*
G02*
X127808500Y-92317500I0J-147500D01*
G01*
X127808500Y-92662500D01*
G75*
G02*
X127661000Y-92810000I-147500J0D01*
G01*
X127366000Y-92810000D01*
G75*
G02*
X127218500Y-92662500I0J147500D01*
G01*
G37*
G36*
G01*
X129016625Y-94267500D02*
X129361625Y-94267500D01*
G75*
G02*
X129509125Y-94415000I0J-147500D01*
G01*
X129509125Y-94710000D01*
G75*
G02*
X129361625Y-94857500I-147500J0D01*
G01*
X129016625Y-94857500D01*
G75*
G02*
X128869125Y-94710000I0J147500D01*
G01*
X128869125Y-94415000D01*
G75*
G02*
X129016625Y-94267500I147500J0D01*
G01*
G37*
G36*
G01*
X129016625Y-93297500D02*
X129361625Y-93297500D01*
G75*
G02*
X129509125Y-93445000I0J-147500D01*
G01*
X129509125Y-93740000D01*
G75*
G02*
X129361625Y-93887500I-147500J0D01*
G01*
X129016625Y-93887500D01*
G75*
G02*
X128869125Y-93740000I0J147500D01*
G01*
X128869125Y-93445000D01*
G75*
G02*
X129016625Y-93297500I147500J0D01*
G01*
G37*
G36*
G01*
X129016625Y-97442500D02*
X129361625Y-97442500D01*
G75*
G02*
X129509125Y-97590000I0J-147500D01*
G01*
X129509125Y-97885000D01*
G75*
G02*
X129361625Y-98032500I-147500J0D01*
G01*
X129016625Y-98032500D01*
G75*
G02*
X128869125Y-97885000I0J147500D01*
G01*
X128869125Y-97590000D01*
G75*
G02*
X129016625Y-97442500I147500J0D01*
G01*
G37*
G36*
G01*
X129016625Y-96472500D02*
X129361625Y-96472500D01*
G75*
G02*
X129509125Y-96620000I0J-147500D01*
G01*
X129509125Y-96915000D01*
G75*
G02*
X129361625Y-97062500I-147500J0D01*
G01*
X129016625Y-97062500D01*
G75*
G02*
X128869125Y-96915000I0J147500D01*
G01*
X128869125Y-96620000D01*
G75*
G02*
X129016625Y-96472500I147500J0D01*
G01*
G37*
G36*
G01*
X128188500Y-99012500D02*
X128188500Y-98667500D01*
G75*
G02*
X128336000Y-98520000I147500J0D01*
G01*
X128631000Y-98520000D01*
G75*
G02*
X128778500Y-98667500I0J-147500D01*
G01*
X128778500Y-99012500D01*
G75*
G02*
X128631000Y-99160000I-147500J0D01*
G01*
X128336000Y-99160000D01*
G75*
G02*
X128188500Y-99012500I0J147500D01*
G01*
G37*
G36*
G01*
X127218500Y-99012500D02*
X127218500Y-98667500D01*
G75*
G02*
X127366000Y-98520000I147500J0D01*
G01*
X127661000Y-98520000D01*
G75*
G02*
X127808500Y-98667500I0J-147500D01*
G01*
X127808500Y-99012500D01*
G75*
G02*
X127661000Y-99160000I-147500J0D01*
G01*
X127366000Y-99160000D01*
G75*
G02*
X127218500Y-99012500I0J147500D01*
G01*
G37*
G36*
G01*
X126635375Y-97442500D02*
X126980375Y-97442500D01*
G75*
G02*
X127127875Y-97590000I0J-147500D01*
G01*
X127127875Y-97885000D01*
G75*
G02*
X126980375Y-98032500I-147500J0D01*
G01*
X126635375Y-98032500D01*
G75*
G02*
X126487875Y-97885000I0J147500D01*
G01*
X126487875Y-97590000D01*
G75*
G02*
X126635375Y-97442500I147500J0D01*
G01*
G37*
G36*
G01*
X126635375Y-96472500D02*
X126980375Y-96472500D01*
G75*
G02*
X127127875Y-96620000I0J-147500D01*
G01*
X127127875Y-96915000D01*
G75*
G02*
X126980375Y-97062500I-147500J0D01*
G01*
X126635375Y-97062500D01*
G75*
G02*
X126487875Y-96915000I0J147500D01*
G01*
X126487875Y-96620000D01*
G75*
G02*
X126635375Y-96472500I147500J0D01*
G01*
G37*
G36*
G01*
X126635375Y-94267500D02*
X126980375Y-94267500D01*
G75*
G02*
X127127875Y-94415000I0J-147500D01*
G01*
X127127875Y-94710000D01*
G75*
G02*
X126980375Y-94857500I-147500J0D01*
G01*
X126635375Y-94857500D01*
G75*
G02*
X126487875Y-94710000I0J147500D01*
G01*
X126487875Y-94415000D01*
G75*
G02*
X126635375Y-94267500I147500J0D01*
G01*
G37*
G36*
G01*
X126635375Y-93297500D02*
X126980375Y-93297500D01*
G75*
G02*
X127127875Y-93445000I0J-147500D01*
G01*
X127127875Y-93740000D01*
G75*
G02*
X126980375Y-93887500I-147500J0D01*
G01*
X126635375Y-93887500D01*
G75*
G02*
X126487875Y-93740000I0J147500D01*
G01*
X126487875Y-93445000D01*
G75*
G02*
X126635375Y-93297500I147500J0D01*
G01*
G37*
G36*
G01*
X128188500Y-95837500D02*
X128188500Y-95492500D01*
G75*
G02*
X128336000Y-95345000I147500J0D01*
G01*
X128631000Y-95345000D01*
G75*
G02*
X128778500Y-95492500I0J-147500D01*
G01*
X128778500Y-95837500D01*
G75*
G02*
X128631000Y-95985000I-147500J0D01*
G01*
X128336000Y-95985000D01*
G75*
G02*
X128188500Y-95837500I0J147500D01*
G01*
G37*
G36*
G01*
X127218500Y-95837500D02*
X127218500Y-95492500D01*
G75*
G02*
X127366000Y-95345000I147500J0D01*
G01*
X127661000Y-95345000D01*
G75*
G02*
X127808500Y-95492500I0J-147500D01*
G01*
X127808500Y-95837500D01*
G75*
G02*
X127661000Y-95985000I-147500J0D01*
G01*
X127366000Y-95985000D01*
G75*
G02*
X127218500Y-95837500I0J147500D01*
G01*
G37*
G36*
G01*
X132554125Y-92662500D02*
X132554125Y-92317500D01*
G75*
G02*
X132701625Y-92170000I147500J0D01*
G01*
X132996625Y-92170000D01*
G75*
G02*
X133144125Y-92317500I0J-147500D01*
G01*
X133144125Y-92662500D01*
G75*
G02*
X132996625Y-92810000I-147500J0D01*
G01*
X132701625Y-92810000D01*
G75*
G02*
X132554125Y-92662500I0J147500D01*
G01*
G37*
G36*
G01*
X131584125Y-92662500D02*
X131584125Y-92317500D01*
G75*
G02*
X131731625Y-92170000I147500J0D01*
G01*
X132026625Y-92170000D01*
G75*
G02*
X132174125Y-92317500I0J-147500D01*
G01*
X132174125Y-92662500D01*
G75*
G02*
X132026625Y-92810000I-147500J0D01*
G01*
X131731625Y-92810000D01*
G75*
G02*
X131584125Y-92662500I0J147500D01*
G01*
G37*
G36*
G01*
X133382250Y-94267500D02*
X133727250Y-94267500D01*
G75*
G02*
X133874750Y-94415000I0J-147500D01*
G01*
X133874750Y-94710000D01*
G75*
G02*
X133727250Y-94857500I-147500J0D01*
G01*
X133382250Y-94857500D01*
G75*
G02*
X133234750Y-94710000I0J147500D01*
G01*
X133234750Y-94415000D01*
G75*
G02*
X133382250Y-94267500I147500J0D01*
G01*
G37*
G36*
G01*
X133382250Y-93297500D02*
X133727250Y-93297500D01*
G75*
G02*
X133874750Y-93445000I0J-147500D01*
G01*
X133874750Y-93740000D01*
G75*
G02*
X133727250Y-93887500I-147500J0D01*
G01*
X133382250Y-93887500D01*
G75*
G02*
X133234750Y-93740000I0J147500D01*
G01*
X133234750Y-93445000D01*
G75*
G02*
X133382250Y-93297500I147500J0D01*
G01*
G37*
G36*
G01*
X133382250Y-97442500D02*
X133727250Y-97442500D01*
G75*
G02*
X133874750Y-97590000I0J-147500D01*
G01*
X133874750Y-97885000D01*
G75*
G02*
X133727250Y-98032500I-147500J0D01*
G01*
X133382250Y-98032500D01*
G75*
G02*
X133234750Y-97885000I0J147500D01*
G01*
X133234750Y-97590000D01*
G75*
G02*
X133382250Y-97442500I147500J0D01*
G01*
G37*
G36*
G01*
X133382250Y-96472500D02*
X133727250Y-96472500D01*
G75*
G02*
X133874750Y-96620000I0J-147500D01*
G01*
X133874750Y-96915000D01*
G75*
G02*
X133727250Y-97062500I-147500J0D01*
G01*
X133382250Y-97062500D01*
G75*
G02*
X133234750Y-96915000I0J147500D01*
G01*
X133234750Y-96620000D01*
G75*
G02*
X133382250Y-96472500I147500J0D01*
G01*
G37*
G36*
G01*
X132554125Y-99012500D02*
X132554125Y-98667500D01*
G75*
G02*
X132701625Y-98520000I147500J0D01*
G01*
X132996625Y-98520000D01*
G75*
G02*
X133144125Y-98667500I0J-147500D01*
G01*
X133144125Y-99012500D01*
G75*
G02*
X132996625Y-99160000I-147500J0D01*
G01*
X132701625Y-99160000D01*
G75*
G02*
X132554125Y-99012500I0J147500D01*
G01*
G37*
G36*
G01*
X131584125Y-99012500D02*
X131584125Y-98667500D01*
G75*
G02*
X131731625Y-98520000I147500J0D01*
G01*
X132026625Y-98520000D01*
G75*
G02*
X132174125Y-98667500I0J-147500D01*
G01*
X132174125Y-99012500D01*
G75*
G02*
X132026625Y-99160000I-147500J0D01*
G01*
X131731625Y-99160000D01*
G75*
G02*
X131584125Y-99012500I0J147500D01*
G01*
G37*
G36*
G01*
X131001000Y-97442500D02*
X131346000Y-97442500D01*
G75*
G02*
X131493500Y-97590000I0J-147500D01*
G01*
X131493500Y-97885000D01*
G75*
G02*
X131346000Y-98032500I-147500J0D01*
G01*
X131001000Y-98032500D01*
G75*
G02*
X130853500Y-97885000I0J147500D01*
G01*
X130853500Y-97590000D01*
G75*
G02*
X131001000Y-97442500I147500J0D01*
G01*
G37*
G36*
G01*
X131001000Y-96472500D02*
X131346000Y-96472500D01*
G75*
G02*
X131493500Y-96620000I0J-147500D01*
G01*
X131493500Y-96915000D01*
G75*
G02*
X131346000Y-97062500I-147500J0D01*
G01*
X131001000Y-97062500D01*
G75*
G02*
X130853500Y-96915000I0J147500D01*
G01*
X130853500Y-96620000D01*
G75*
G02*
X131001000Y-96472500I147500J0D01*
G01*
G37*
G36*
G01*
X131001000Y-94267500D02*
X131346000Y-94267500D01*
G75*
G02*
X131493500Y-94415000I0J-147500D01*
G01*
X131493500Y-94710000D01*
G75*
G02*
X131346000Y-94857500I-147500J0D01*
G01*
X131001000Y-94857500D01*
G75*
G02*
X130853500Y-94710000I0J147500D01*
G01*
X130853500Y-94415000D01*
G75*
G02*
X131001000Y-94267500I147500J0D01*
G01*
G37*
G36*
G01*
X131001000Y-93297500D02*
X131346000Y-93297500D01*
G75*
G02*
X131493500Y-93445000I0J-147500D01*
G01*
X131493500Y-93740000D01*
G75*
G02*
X131346000Y-93887500I-147500J0D01*
G01*
X131001000Y-93887500D01*
G75*
G02*
X130853500Y-93740000I0J147500D01*
G01*
X130853500Y-93445000D01*
G75*
G02*
X131001000Y-93297500I147500J0D01*
G01*
G37*
G36*
G01*
X132554125Y-95837500D02*
X132554125Y-95492500D01*
G75*
G02*
X132701625Y-95345000I147500J0D01*
G01*
X132996625Y-95345000D01*
G75*
G02*
X133144125Y-95492500I0J-147500D01*
G01*
X133144125Y-95837500D01*
G75*
G02*
X132996625Y-95985000I-147500J0D01*
G01*
X132701625Y-95985000D01*
G75*
G02*
X132554125Y-95837500I0J147500D01*
G01*
G37*
G36*
G01*
X131584125Y-95837500D02*
X131584125Y-95492500D01*
G75*
G02*
X131731625Y-95345000I147500J0D01*
G01*
X132026625Y-95345000D01*
G75*
G02*
X132174125Y-95492500I0J-147500D01*
G01*
X132174125Y-95837500D01*
G75*
G02*
X132026625Y-95985000I-147500J0D01*
G01*
X131731625Y-95985000D01*
G75*
G02*
X131584125Y-95837500I0J147500D01*
G01*
G37*
G36*
G01*
X96621000Y-113741000D02*
X96966000Y-113741000D01*
G75*
G02*
X97113500Y-113888500I0J-147500D01*
G01*
X97113500Y-114183500D01*
G75*
G02*
X96966000Y-114331000I-147500J0D01*
G01*
X96621000Y-114331000D01*
G75*
G02*
X96473500Y-114183500I0J147500D01*
G01*
X96473500Y-113888500D01*
G75*
G02*
X96621000Y-113741000I147500J0D01*
G01*
G37*
G36*
G01*
X96621000Y-112771000D02*
X96966000Y-112771000D01*
G75*
G02*
X97113500Y-112918500I0J-147500D01*
G01*
X97113500Y-113213500D01*
G75*
G02*
X96966000Y-113361000I-147500J0D01*
G01*
X96621000Y-113361000D01*
G75*
G02*
X96473500Y-113213500I0J147500D01*
G01*
X96473500Y-112918500D01*
G75*
G02*
X96621000Y-112771000I147500J0D01*
G01*
G37*
G36*
G01*
X96966000Y-116536000D02*
X96621000Y-116536000D01*
G75*
G02*
X96473500Y-116388500I0J147500D01*
G01*
X96473500Y-116093500D01*
G75*
G02*
X96621000Y-115946000I147500J0D01*
G01*
X96966000Y-115946000D01*
G75*
G02*
X97113500Y-116093500I0J-147500D01*
G01*
X97113500Y-116388500D01*
G75*
G02*
X96966000Y-116536000I-147500J0D01*
G01*
G37*
G36*
G01*
X96966000Y-117506000D02*
X96621000Y-117506000D01*
G75*
G02*
X96473500Y-117358500I0J147500D01*
G01*
X96473500Y-117063500D01*
G75*
G02*
X96621000Y-116916000I147500J0D01*
G01*
X96966000Y-116916000D01*
G75*
G02*
X97113500Y-117063500I0J-147500D01*
G01*
X97113500Y-117358500D01*
G75*
G02*
X96966000Y-117506000I-147500J0D01*
G01*
G37*
G36*
G01*
X98571500Y-112136000D02*
X98571500Y-111791000D01*
G75*
G02*
X98719000Y-111643500I147500J0D01*
G01*
X99014000Y-111643500D01*
G75*
G02*
X99161500Y-111791000I0J-147500D01*
G01*
X99161500Y-112136000D01*
G75*
G02*
X99014000Y-112283500I-147500J0D01*
G01*
X98719000Y-112283500D01*
G75*
G02*
X98571500Y-112136000I0J147500D01*
G01*
G37*
G36*
G01*
X97601500Y-112136000D02*
X97601500Y-111791000D01*
G75*
G02*
X97749000Y-111643500I147500J0D01*
G01*
X98044000Y-111643500D01*
G75*
G02*
X98191500Y-111791000I0J-147500D01*
G01*
X98191500Y-112136000D01*
G75*
G02*
X98044000Y-112283500I-147500J0D01*
G01*
X97749000Y-112283500D01*
G75*
G02*
X97601500Y-112136000I0J147500D01*
G01*
G37*
G36*
G01*
X98369125Y-113294673D02*
X98125173Y-113538625D01*
G75*
G02*
X97916577Y-113538625I-104298J104298D01*
G01*
X97707981Y-113330029D01*
G75*
G02*
X97707981Y-113121433I104298J104298D01*
G01*
X97951933Y-112877481D01*
G75*
G02*
X98160529Y-112877481I104298J-104298D01*
G01*
X98369125Y-113086077D01*
G75*
G02*
X98369125Y-113294673I-104298J-104298D01*
G01*
G37*
G36*
G01*
X99055019Y-113980567D02*
X98811067Y-114224519D01*
G75*
G02*
X98602471Y-114224519I-104298J104298D01*
G01*
X98393875Y-114015923D01*
G75*
G02*
X98393875Y-113807327I104298J104298D01*
G01*
X98637827Y-113563375D01*
G75*
G02*
X98846423Y-113563375I104298J-104298D01*
G01*
X99055019Y-113771971D01*
G75*
G02*
X99055019Y-113980567I-104298J-104298D01*
G01*
G37*
G36*
G01*
X98191500Y-114966000D02*
X98191500Y-115311000D01*
G75*
G02*
X98044000Y-115458500I-147500J0D01*
G01*
X97749000Y-115458500D01*
G75*
G02*
X97601500Y-115311000I0J147500D01*
G01*
X97601500Y-114966000D01*
G75*
G02*
X97749000Y-114818500I147500J0D01*
G01*
X98044000Y-114818500D01*
G75*
G02*
X98191500Y-114966000I0J-147500D01*
G01*
G37*
G36*
G01*
X99161500Y-114966000D02*
X99161500Y-115311000D01*
G75*
G02*
X99014000Y-115458500I-147500J0D01*
G01*
X98719000Y-115458500D01*
G75*
G02*
X98571500Y-115311000I0J147500D01*
G01*
X98571500Y-114966000D01*
G75*
G02*
X98719000Y-114818500I147500J0D01*
G01*
X99014000Y-114818500D01*
G75*
G02*
X99161500Y-114966000I0J-147500D01*
G01*
G37*
G36*
G01*
X98125173Y-116738375D02*
X98369125Y-116982327D01*
G75*
G02*
X98369125Y-117190923I-104298J-104298D01*
G01*
X98160529Y-117399519D01*
G75*
G02*
X97951933Y-117399519I-104298J104298D01*
G01*
X97707981Y-117155567D01*
G75*
G02*
X97707981Y-116946971I104298J104298D01*
G01*
X97916577Y-116738375D01*
G75*
G02*
X98125173Y-116738375I104298J-104298D01*
G01*
G37*
G36*
G01*
X98811067Y-116052481D02*
X99055019Y-116296433D01*
G75*
G02*
X99055019Y-116505029I-104298J-104298D01*
G01*
X98846423Y-116713625D01*
G75*
G02*
X98637827Y-116713625I-104298J104298D01*
G01*
X98393875Y-116469673D01*
G75*
G02*
X98393875Y-116261077I104298J104298D01*
G01*
X98602471Y-116052481D01*
G75*
G02*
X98811067Y-116052481I104298J-104298D01*
G01*
G37*
G36*
G01*
X98571500Y-118486000D02*
X98571500Y-118141000D01*
G75*
G02*
X98719000Y-117993500I147500J0D01*
G01*
X99014000Y-117993500D01*
G75*
G02*
X99161500Y-118141000I0J-147500D01*
G01*
X99161500Y-118486000D01*
G75*
G02*
X99014000Y-118633500I-147500J0D01*
G01*
X98719000Y-118633500D01*
G75*
G02*
X98571500Y-118486000I0J147500D01*
G01*
G37*
G36*
G01*
X97601500Y-118486000D02*
X97601500Y-118141000D01*
G75*
G02*
X97749000Y-117993500I147500J0D01*
G01*
X98044000Y-117993500D01*
G75*
G02*
X98191500Y-118141000I0J-147500D01*
G01*
X98191500Y-118486000D01*
G75*
G02*
X98044000Y-118633500I-147500J0D01*
G01*
X97749000Y-118633500D01*
G75*
G02*
X97601500Y-118486000I0J147500D01*
G01*
G37*
G36*
G01*
X99797000Y-113741000D02*
X100142000Y-113741000D01*
G75*
G02*
X100289500Y-113888500I0J-147500D01*
G01*
X100289500Y-114183500D01*
G75*
G02*
X100142000Y-114331000I-147500J0D01*
G01*
X99797000Y-114331000D01*
G75*
G02*
X99649500Y-114183500I0J147500D01*
G01*
X99649500Y-113888500D01*
G75*
G02*
X99797000Y-113741000I147500J0D01*
G01*
G37*
G36*
G01*
X99797000Y-112771000D02*
X100142000Y-112771000D01*
G75*
G02*
X100289500Y-112918500I0J-147500D01*
G01*
X100289500Y-113213500D01*
G75*
G02*
X100142000Y-113361000I-147500J0D01*
G01*
X99797000Y-113361000D01*
G75*
G02*
X99649500Y-113213500I0J147500D01*
G01*
X99649500Y-112918500D01*
G75*
G02*
X99797000Y-112771000I147500J0D01*
G01*
G37*
G36*
G01*
X99797000Y-116916000D02*
X100142000Y-116916000D01*
G75*
G02*
X100289500Y-117063500I0J-147500D01*
G01*
X100289500Y-117358500D01*
G75*
G02*
X100142000Y-117506000I-147500J0D01*
G01*
X99797000Y-117506000D01*
G75*
G02*
X99649500Y-117358500I0J147500D01*
G01*
X99649500Y-117063500D01*
G75*
G02*
X99797000Y-116916000I147500J0D01*
G01*
G37*
G36*
G01*
X99797000Y-115946000D02*
X100142000Y-115946000D01*
G75*
G02*
X100289500Y-116093500I0J-147500D01*
G01*
X100289500Y-116388500D01*
G75*
G02*
X100142000Y-116536000I-147500J0D01*
G01*
X99797000Y-116536000D01*
G75*
G02*
X99649500Y-116388500I0J147500D01*
G01*
X99649500Y-116093500D01*
G75*
G02*
X99797000Y-115946000I147500J0D01*
G01*
G37*
G36*
G01*
X101746500Y-112136000D02*
X101746500Y-111791000D01*
G75*
G02*
X101894000Y-111643500I147500J0D01*
G01*
X102189000Y-111643500D01*
G75*
G02*
X102336500Y-111791000I0J-147500D01*
G01*
X102336500Y-112136000D01*
G75*
G02*
X102189000Y-112283500I-147500J0D01*
G01*
X101894000Y-112283500D01*
G75*
G02*
X101746500Y-112136000I0J147500D01*
G01*
G37*
G36*
G01*
X100776500Y-112136000D02*
X100776500Y-111791000D01*
G75*
G02*
X100924000Y-111643500I147500J0D01*
G01*
X101219000Y-111643500D01*
G75*
G02*
X101366500Y-111791000I0J-147500D01*
G01*
X101366500Y-112136000D01*
G75*
G02*
X101219000Y-112283500I-147500J0D01*
G01*
X100924000Y-112283500D01*
G75*
G02*
X100776500Y-112136000I0J147500D01*
G01*
G37*
G36*
G01*
X101812827Y-113538625D02*
X101568875Y-113294673D01*
G75*
G02*
X101568875Y-113086077I104298J104298D01*
G01*
X101777471Y-112877481D01*
G75*
G02*
X101986067Y-112877481I104298J-104298D01*
G01*
X102230019Y-113121433D01*
G75*
G02*
X102230019Y-113330029I-104298J-104298D01*
G01*
X102021423Y-113538625D01*
G75*
G02*
X101812827Y-113538625I-104298J104298D01*
G01*
G37*
G36*
G01*
X101126933Y-114224519D02*
X100882981Y-113980567D01*
G75*
G02*
X100882981Y-113771971I104298J104298D01*
G01*
X101091577Y-113563375D01*
G75*
G02*
X101300173Y-113563375I104298J-104298D01*
G01*
X101544125Y-113807327D01*
G75*
G02*
X101544125Y-114015923I-104298J-104298D01*
G01*
X101335529Y-114224519D01*
G75*
G02*
X101126933Y-114224519I-104298J104298D01*
G01*
G37*
G36*
G01*
X101746500Y-115311000D02*
X101746500Y-114966000D01*
G75*
G02*
X101894000Y-114818500I147500J0D01*
G01*
X102189000Y-114818500D01*
G75*
G02*
X102336500Y-114966000I0J-147500D01*
G01*
X102336500Y-115311000D01*
G75*
G02*
X102189000Y-115458500I-147500J0D01*
G01*
X101894000Y-115458500D01*
G75*
G02*
X101746500Y-115311000I0J147500D01*
G01*
G37*
G36*
G01*
X100776500Y-115311000D02*
X100776500Y-114966000D01*
G75*
G02*
X100924000Y-114818500I147500J0D01*
G01*
X101219000Y-114818500D01*
G75*
G02*
X101366500Y-114966000I0J-147500D01*
G01*
X101366500Y-115311000D01*
G75*
G02*
X101219000Y-115458500I-147500J0D01*
G01*
X100924000Y-115458500D01*
G75*
G02*
X100776500Y-115311000I0J147500D01*
G01*
G37*
G36*
G01*
X101568875Y-116982327D02*
X101812827Y-116738375D01*
G75*
G02*
X102021423Y-116738375I104298J-104298D01*
G01*
X102230019Y-116946971D01*
G75*
G02*
X102230019Y-117155567I-104298J-104298D01*
G01*
X101986067Y-117399519D01*
G75*
G02*
X101777471Y-117399519I-104298J104298D01*
G01*
X101568875Y-117190923D01*
G75*
G02*
X101568875Y-116982327I104298J104298D01*
G01*
G37*
G36*
G01*
X100882981Y-116296433D02*
X101126933Y-116052481D01*
G75*
G02*
X101335529Y-116052481I104298J-104298D01*
G01*
X101544125Y-116261077D01*
G75*
G02*
X101544125Y-116469673I-104298J-104298D01*
G01*
X101300173Y-116713625D01*
G75*
G02*
X101091577Y-116713625I-104298J104298D01*
G01*
X100882981Y-116505029D01*
G75*
G02*
X100882981Y-116296433I104298J104298D01*
G01*
G37*
G36*
G01*
X101746500Y-118486000D02*
X101746500Y-118141000D01*
G75*
G02*
X101894000Y-117993500I147500J0D01*
G01*
X102189000Y-117993500D01*
G75*
G02*
X102336500Y-118141000I0J-147500D01*
G01*
X102336500Y-118486000D01*
G75*
G02*
X102189000Y-118633500I-147500J0D01*
G01*
X101894000Y-118633500D01*
G75*
G02*
X101746500Y-118486000I0J147500D01*
G01*
G37*
G36*
G01*
X100776500Y-118486000D02*
X100776500Y-118141000D01*
G75*
G02*
X100924000Y-117993500I147500J0D01*
G01*
X101219000Y-117993500D01*
G75*
G02*
X101366500Y-118141000I0J-147500D01*
G01*
X101366500Y-118486000D01*
G75*
G02*
X101219000Y-118633500I-147500J0D01*
G01*
X100924000Y-118633500D01*
G75*
G02*
X100776500Y-118486000I0J147500D01*
G01*
G37*
G36*
G01*
X102971000Y-113741000D02*
X103316000Y-113741000D01*
G75*
G02*
X103463500Y-113888500I0J-147500D01*
G01*
X103463500Y-114183500D01*
G75*
G02*
X103316000Y-114331000I-147500J0D01*
G01*
X102971000Y-114331000D01*
G75*
G02*
X102823500Y-114183500I0J147500D01*
G01*
X102823500Y-113888500D01*
G75*
G02*
X102971000Y-113741000I147500J0D01*
G01*
G37*
G36*
G01*
X102971000Y-112771000D02*
X103316000Y-112771000D01*
G75*
G02*
X103463500Y-112918500I0J-147500D01*
G01*
X103463500Y-113213500D01*
G75*
G02*
X103316000Y-113361000I-147500J0D01*
G01*
X102971000Y-113361000D01*
G75*
G02*
X102823500Y-113213500I0J147500D01*
G01*
X102823500Y-112918500D01*
G75*
G02*
X102971000Y-112771000I147500J0D01*
G01*
G37*
G36*
G01*
X103316000Y-116536000D02*
X102971000Y-116536000D01*
G75*
G02*
X102823500Y-116388500I0J147500D01*
G01*
X102823500Y-116093500D01*
G75*
G02*
X102971000Y-115946000I147500J0D01*
G01*
X103316000Y-115946000D01*
G75*
G02*
X103463500Y-116093500I0J-147500D01*
G01*
X103463500Y-116388500D01*
G75*
G02*
X103316000Y-116536000I-147500J0D01*
G01*
G37*
G36*
G01*
X103316000Y-117506000D02*
X102971000Y-117506000D01*
G75*
G02*
X102823500Y-117358500I0J147500D01*
G01*
X102823500Y-117063500D01*
G75*
G02*
X102971000Y-116916000I147500J0D01*
G01*
X103316000Y-116916000D01*
G75*
G02*
X103463500Y-117063500I0J-147500D01*
G01*
X103463500Y-117358500D01*
G75*
G02*
X103316000Y-117506000I-147500J0D01*
G01*
G37*
G36*
G01*
X106781000Y-113741000D02*
X107126000Y-113741000D01*
G75*
G02*
X107273500Y-113888500I0J-147500D01*
G01*
X107273500Y-114183500D01*
G75*
G02*
X107126000Y-114331000I-147500J0D01*
G01*
X106781000Y-114331000D01*
G75*
G02*
X106633500Y-114183500I0J147500D01*
G01*
X106633500Y-113888500D01*
G75*
G02*
X106781000Y-113741000I147500J0D01*
G01*
G37*
G36*
G01*
X106781000Y-112771000D02*
X107126000Y-112771000D01*
G75*
G02*
X107273500Y-112918500I0J-147500D01*
G01*
X107273500Y-113213500D01*
G75*
G02*
X107126000Y-113361000I-147500J0D01*
G01*
X106781000Y-113361000D01*
G75*
G02*
X106633500Y-113213500I0J147500D01*
G01*
X106633500Y-112918500D01*
G75*
G02*
X106781000Y-112771000I147500J0D01*
G01*
G37*
G36*
G01*
X107126000Y-116536000D02*
X106781000Y-116536000D01*
G75*
G02*
X106633500Y-116388500I0J147500D01*
G01*
X106633500Y-116093500D01*
G75*
G02*
X106781000Y-115946000I147500J0D01*
G01*
X107126000Y-115946000D01*
G75*
G02*
X107273500Y-116093500I0J-147500D01*
G01*
X107273500Y-116388500D01*
G75*
G02*
X107126000Y-116536000I-147500J0D01*
G01*
G37*
G36*
G01*
X107126000Y-117506000D02*
X106781000Y-117506000D01*
G75*
G02*
X106633500Y-117358500I0J147500D01*
G01*
X106633500Y-117063500D01*
G75*
G02*
X106781000Y-116916000I147500J0D01*
G01*
X107126000Y-116916000D01*
G75*
G02*
X107273500Y-117063500I0J-147500D01*
G01*
X107273500Y-117358500D01*
G75*
G02*
X107126000Y-117506000I-147500J0D01*
G01*
G37*
G36*
G01*
X108731500Y-112136000D02*
X108731500Y-111791000D01*
G75*
G02*
X108879000Y-111643500I147500J0D01*
G01*
X109174000Y-111643500D01*
G75*
G02*
X109321500Y-111791000I0J-147500D01*
G01*
X109321500Y-112136000D01*
G75*
G02*
X109174000Y-112283500I-147500J0D01*
G01*
X108879000Y-112283500D01*
G75*
G02*
X108731500Y-112136000I0J147500D01*
G01*
G37*
G36*
G01*
X107761500Y-112136000D02*
X107761500Y-111791000D01*
G75*
G02*
X107909000Y-111643500I147500J0D01*
G01*
X108204000Y-111643500D01*
G75*
G02*
X108351500Y-111791000I0J-147500D01*
G01*
X108351500Y-112136000D01*
G75*
G02*
X108204000Y-112283500I-147500J0D01*
G01*
X107909000Y-112283500D01*
G75*
G02*
X107761500Y-112136000I0J147500D01*
G01*
G37*
G36*
G01*
X108529125Y-113294673D02*
X108285173Y-113538625D01*
G75*
G02*
X108076577Y-113538625I-104298J104298D01*
G01*
X107867981Y-113330029D01*
G75*
G02*
X107867981Y-113121433I104298J104298D01*
G01*
X108111933Y-112877481D01*
G75*
G02*
X108320529Y-112877481I104298J-104298D01*
G01*
X108529125Y-113086077D01*
G75*
G02*
X108529125Y-113294673I-104298J-104298D01*
G01*
G37*
G36*
G01*
X109215019Y-113980567D02*
X108971067Y-114224519D01*
G75*
G02*
X108762471Y-114224519I-104298J104298D01*
G01*
X108553875Y-114015923D01*
G75*
G02*
X108553875Y-113807327I104298J104298D01*
G01*
X108797827Y-113563375D01*
G75*
G02*
X109006423Y-113563375I104298J-104298D01*
G01*
X109215019Y-113771971D01*
G75*
G02*
X109215019Y-113980567I-104298J-104298D01*
G01*
G37*
G36*
G01*
X108351500Y-114966000D02*
X108351500Y-115311000D01*
G75*
G02*
X108204000Y-115458500I-147500J0D01*
G01*
X107909000Y-115458500D01*
G75*
G02*
X107761500Y-115311000I0J147500D01*
G01*
X107761500Y-114966000D01*
G75*
G02*
X107909000Y-114818500I147500J0D01*
G01*
X108204000Y-114818500D01*
G75*
G02*
X108351500Y-114966000I0J-147500D01*
G01*
G37*
G36*
G01*
X109321500Y-114966000D02*
X109321500Y-115311000D01*
G75*
G02*
X109174000Y-115458500I-147500J0D01*
G01*
X108879000Y-115458500D01*
G75*
G02*
X108731500Y-115311000I0J147500D01*
G01*
X108731500Y-114966000D01*
G75*
G02*
X108879000Y-114818500I147500J0D01*
G01*
X109174000Y-114818500D01*
G75*
G02*
X109321500Y-114966000I0J-147500D01*
G01*
G37*
G36*
G01*
X108285173Y-116738375D02*
X108529125Y-116982327D01*
G75*
G02*
X108529125Y-117190923I-104298J-104298D01*
G01*
X108320529Y-117399519D01*
G75*
G02*
X108111933Y-117399519I-104298J104298D01*
G01*
X107867981Y-117155567D01*
G75*
G02*
X107867981Y-116946971I104298J104298D01*
G01*
X108076577Y-116738375D01*
G75*
G02*
X108285173Y-116738375I104298J-104298D01*
G01*
G37*
G36*
G01*
X108971067Y-116052481D02*
X109215019Y-116296433D01*
G75*
G02*
X109215019Y-116505029I-104298J-104298D01*
G01*
X109006423Y-116713625D01*
G75*
G02*
X108797827Y-116713625I-104298J104298D01*
G01*
X108553875Y-116469673D01*
G75*
G02*
X108553875Y-116261077I104298J104298D01*
G01*
X108762471Y-116052481D01*
G75*
G02*
X108971067Y-116052481I104298J-104298D01*
G01*
G37*
G36*
G01*
X108731500Y-118486000D02*
X108731500Y-118141000D01*
G75*
G02*
X108879000Y-117993500I147500J0D01*
G01*
X109174000Y-117993500D01*
G75*
G02*
X109321500Y-118141000I0J-147500D01*
G01*
X109321500Y-118486000D01*
G75*
G02*
X109174000Y-118633500I-147500J0D01*
G01*
X108879000Y-118633500D01*
G75*
G02*
X108731500Y-118486000I0J147500D01*
G01*
G37*
G36*
G01*
X107761500Y-118486000D02*
X107761500Y-118141000D01*
G75*
G02*
X107909000Y-117993500I147500J0D01*
G01*
X108204000Y-117993500D01*
G75*
G02*
X108351500Y-118141000I0J-147500D01*
G01*
X108351500Y-118486000D01*
G75*
G02*
X108204000Y-118633500I-147500J0D01*
G01*
X107909000Y-118633500D01*
G75*
G02*
X107761500Y-118486000I0J147500D01*
G01*
G37*
G36*
G01*
X109957000Y-113741000D02*
X110302000Y-113741000D01*
G75*
G02*
X110449500Y-113888500I0J-147500D01*
G01*
X110449500Y-114183500D01*
G75*
G02*
X110302000Y-114331000I-147500J0D01*
G01*
X109957000Y-114331000D01*
G75*
G02*
X109809500Y-114183500I0J147500D01*
G01*
X109809500Y-113888500D01*
G75*
G02*
X109957000Y-113741000I147500J0D01*
G01*
G37*
G36*
G01*
X109957000Y-112771000D02*
X110302000Y-112771000D01*
G75*
G02*
X110449500Y-112918500I0J-147500D01*
G01*
X110449500Y-113213500D01*
G75*
G02*
X110302000Y-113361000I-147500J0D01*
G01*
X109957000Y-113361000D01*
G75*
G02*
X109809500Y-113213500I0J147500D01*
G01*
X109809500Y-112918500D01*
G75*
G02*
X109957000Y-112771000I147500J0D01*
G01*
G37*
G36*
G01*
X109957000Y-116916000D02*
X110302000Y-116916000D01*
G75*
G02*
X110449500Y-117063500I0J-147500D01*
G01*
X110449500Y-117358500D01*
G75*
G02*
X110302000Y-117506000I-147500J0D01*
G01*
X109957000Y-117506000D01*
G75*
G02*
X109809500Y-117358500I0J147500D01*
G01*
X109809500Y-117063500D01*
G75*
G02*
X109957000Y-116916000I147500J0D01*
G01*
G37*
G36*
G01*
X109957000Y-115946000D02*
X110302000Y-115946000D01*
G75*
G02*
X110449500Y-116093500I0J-147500D01*
G01*
X110449500Y-116388500D01*
G75*
G02*
X110302000Y-116536000I-147500J0D01*
G01*
X109957000Y-116536000D01*
G75*
G02*
X109809500Y-116388500I0J147500D01*
G01*
X109809500Y-116093500D01*
G75*
G02*
X109957000Y-115946000I147500J0D01*
G01*
G37*
G36*
G01*
X111906500Y-112136000D02*
X111906500Y-111791000D01*
G75*
G02*
X112054000Y-111643500I147500J0D01*
G01*
X112349000Y-111643500D01*
G75*
G02*
X112496500Y-111791000I0J-147500D01*
G01*
X112496500Y-112136000D01*
G75*
G02*
X112349000Y-112283500I-147500J0D01*
G01*
X112054000Y-112283500D01*
G75*
G02*
X111906500Y-112136000I0J147500D01*
G01*
G37*
G36*
G01*
X110936500Y-112136000D02*
X110936500Y-111791000D01*
G75*
G02*
X111084000Y-111643500I147500J0D01*
G01*
X111379000Y-111643500D01*
G75*
G02*
X111526500Y-111791000I0J-147500D01*
G01*
X111526500Y-112136000D01*
G75*
G02*
X111379000Y-112283500I-147500J0D01*
G01*
X111084000Y-112283500D01*
G75*
G02*
X110936500Y-112136000I0J147500D01*
G01*
G37*
G36*
G01*
X111972827Y-113538625D02*
X111728875Y-113294673D01*
G75*
G02*
X111728875Y-113086077I104298J104298D01*
G01*
X111937471Y-112877481D01*
G75*
G02*
X112146067Y-112877481I104298J-104298D01*
G01*
X112390019Y-113121433D01*
G75*
G02*
X112390019Y-113330029I-104298J-104298D01*
G01*
X112181423Y-113538625D01*
G75*
G02*
X111972827Y-113538625I-104298J104298D01*
G01*
G37*
G36*
G01*
X111286933Y-114224519D02*
X111042981Y-113980567D01*
G75*
G02*
X111042981Y-113771971I104298J104298D01*
G01*
X111251577Y-113563375D01*
G75*
G02*
X111460173Y-113563375I104298J-104298D01*
G01*
X111704125Y-113807327D01*
G75*
G02*
X111704125Y-114015923I-104298J-104298D01*
G01*
X111495529Y-114224519D01*
G75*
G02*
X111286933Y-114224519I-104298J104298D01*
G01*
G37*
G36*
G01*
X111906500Y-115311000D02*
X111906500Y-114966000D01*
G75*
G02*
X112054000Y-114818500I147500J0D01*
G01*
X112349000Y-114818500D01*
G75*
G02*
X112496500Y-114966000I0J-147500D01*
G01*
X112496500Y-115311000D01*
G75*
G02*
X112349000Y-115458500I-147500J0D01*
G01*
X112054000Y-115458500D01*
G75*
G02*
X111906500Y-115311000I0J147500D01*
G01*
G37*
G36*
G01*
X110936500Y-115311000D02*
X110936500Y-114966000D01*
G75*
G02*
X111084000Y-114818500I147500J0D01*
G01*
X111379000Y-114818500D01*
G75*
G02*
X111526500Y-114966000I0J-147500D01*
G01*
X111526500Y-115311000D01*
G75*
G02*
X111379000Y-115458500I-147500J0D01*
G01*
X111084000Y-115458500D01*
G75*
G02*
X110936500Y-115311000I0J147500D01*
G01*
G37*
G36*
G01*
X111728875Y-116982327D02*
X111972827Y-116738375D01*
G75*
G02*
X112181423Y-116738375I104298J-104298D01*
G01*
X112390019Y-116946971D01*
G75*
G02*
X112390019Y-117155567I-104298J-104298D01*
G01*
X112146067Y-117399519D01*
G75*
G02*
X111937471Y-117399519I-104298J104298D01*
G01*
X111728875Y-117190923D01*
G75*
G02*
X111728875Y-116982327I104298J104298D01*
G01*
G37*
G36*
G01*
X111042981Y-116296433D02*
X111286933Y-116052481D01*
G75*
G02*
X111495529Y-116052481I104298J-104298D01*
G01*
X111704125Y-116261077D01*
G75*
G02*
X111704125Y-116469673I-104298J-104298D01*
G01*
X111460173Y-116713625D01*
G75*
G02*
X111251577Y-116713625I-104298J104298D01*
G01*
X111042981Y-116505029D01*
G75*
G02*
X111042981Y-116296433I104298J104298D01*
G01*
G37*
G36*
G01*
X111906500Y-118486000D02*
X111906500Y-118141000D01*
G75*
G02*
X112054000Y-117993500I147500J0D01*
G01*
X112349000Y-117993500D01*
G75*
G02*
X112496500Y-118141000I0J-147500D01*
G01*
X112496500Y-118486000D01*
G75*
G02*
X112349000Y-118633500I-147500J0D01*
G01*
X112054000Y-118633500D01*
G75*
G02*
X111906500Y-118486000I0J147500D01*
G01*
G37*
G36*
G01*
X110936500Y-118486000D02*
X110936500Y-118141000D01*
G75*
G02*
X111084000Y-117993500I147500J0D01*
G01*
X111379000Y-117993500D01*
G75*
G02*
X111526500Y-118141000I0J-147500D01*
G01*
X111526500Y-118486000D01*
G75*
G02*
X111379000Y-118633500I-147500J0D01*
G01*
X111084000Y-118633500D01*
G75*
G02*
X110936500Y-118486000I0J147500D01*
G01*
G37*
G36*
G01*
X113131000Y-113741000D02*
X113476000Y-113741000D01*
G75*
G02*
X113623500Y-113888500I0J-147500D01*
G01*
X113623500Y-114183500D01*
G75*
G02*
X113476000Y-114331000I-147500J0D01*
G01*
X113131000Y-114331000D01*
G75*
G02*
X112983500Y-114183500I0J147500D01*
G01*
X112983500Y-113888500D01*
G75*
G02*
X113131000Y-113741000I147500J0D01*
G01*
G37*
G36*
G01*
X113131000Y-112771000D02*
X113476000Y-112771000D01*
G75*
G02*
X113623500Y-112918500I0J-147500D01*
G01*
X113623500Y-113213500D01*
G75*
G02*
X113476000Y-113361000I-147500J0D01*
G01*
X113131000Y-113361000D01*
G75*
G02*
X112983500Y-113213500I0J147500D01*
G01*
X112983500Y-112918500D01*
G75*
G02*
X113131000Y-112771000I147500J0D01*
G01*
G37*
G36*
G01*
X113476000Y-116536000D02*
X113131000Y-116536000D01*
G75*
G02*
X112983500Y-116388500I0J147500D01*
G01*
X112983500Y-116093500D01*
G75*
G02*
X113131000Y-115946000I147500J0D01*
G01*
X113476000Y-115946000D01*
G75*
G02*
X113623500Y-116093500I0J-147500D01*
G01*
X113623500Y-116388500D01*
G75*
G02*
X113476000Y-116536000I-147500J0D01*
G01*
G37*
G36*
G01*
X113476000Y-117506000D02*
X113131000Y-117506000D01*
G75*
G02*
X112983500Y-117358500I0J147500D01*
G01*
X112983500Y-117063500D01*
G75*
G02*
X113131000Y-116916000I147500J0D01*
G01*
X113476000Y-116916000D01*
G75*
G02*
X113623500Y-117063500I0J-147500D01*
G01*
X113623500Y-117358500D01*
G75*
G02*
X113476000Y-117506000I-147500J0D01*
G01*
G37*
G36*
G01*
X116941000Y-113741000D02*
X117286000Y-113741000D01*
G75*
G02*
X117433500Y-113888500I0J-147500D01*
G01*
X117433500Y-114183500D01*
G75*
G02*
X117286000Y-114331000I-147500J0D01*
G01*
X116941000Y-114331000D01*
G75*
G02*
X116793500Y-114183500I0J147500D01*
G01*
X116793500Y-113888500D01*
G75*
G02*
X116941000Y-113741000I147500J0D01*
G01*
G37*
G36*
G01*
X116941000Y-112771000D02*
X117286000Y-112771000D01*
G75*
G02*
X117433500Y-112918500I0J-147500D01*
G01*
X117433500Y-113213500D01*
G75*
G02*
X117286000Y-113361000I-147500J0D01*
G01*
X116941000Y-113361000D01*
G75*
G02*
X116793500Y-113213500I0J147500D01*
G01*
X116793500Y-112918500D01*
G75*
G02*
X116941000Y-112771000I147500J0D01*
G01*
G37*
G36*
G01*
X117286000Y-116536000D02*
X116941000Y-116536000D01*
G75*
G02*
X116793500Y-116388500I0J147500D01*
G01*
X116793500Y-116093500D01*
G75*
G02*
X116941000Y-115946000I147500J0D01*
G01*
X117286000Y-115946000D01*
G75*
G02*
X117433500Y-116093500I0J-147500D01*
G01*
X117433500Y-116388500D01*
G75*
G02*
X117286000Y-116536000I-147500J0D01*
G01*
G37*
G36*
G01*
X117286000Y-117506000D02*
X116941000Y-117506000D01*
G75*
G02*
X116793500Y-117358500I0J147500D01*
G01*
X116793500Y-117063500D01*
G75*
G02*
X116941000Y-116916000I147500J0D01*
G01*
X117286000Y-116916000D01*
G75*
G02*
X117433500Y-117063500I0J-147500D01*
G01*
X117433500Y-117358500D01*
G75*
G02*
X117286000Y-117506000I-147500J0D01*
G01*
G37*
G36*
G01*
X118891500Y-112136000D02*
X118891500Y-111791000D01*
G75*
G02*
X119039000Y-111643500I147500J0D01*
G01*
X119334000Y-111643500D01*
G75*
G02*
X119481500Y-111791000I0J-147500D01*
G01*
X119481500Y-112136000D01*
G75*
G02*
X119334000Y-112283500I-147500J0D01*
G01*
X119039000Y-112283500D01*
G75*
G02*
X118891500Y-112136000I0J147500D01*
G01*
G37*
G36*
G01*
X117921500Y-112136000D02*
X117921500Y-111791000D01*
G75*
G02*
X118069000Y-111643500I147500J0D01*
G01*
X118364000Y-111643500D01*
G75*
G02*
X118511500Y-111791000I0J-147500D01*
G01*
X118511500Y-112136000D01*
G75*
G02*
X118364000Y-112283500I-147500J0D01*
G01*
X118069000Y-112283500D01*
G75*
G02*
X117921500Y-112136000I0J147500D01*
G01*
G37*
G36*
G01*
X118689125Y-113294673D02*
X118445173Y-113538625D01*
G75*
G02*
X118236577Y-113538625I-104298J104298D01*
G01*
X118027981Y-113330029D01*
G75*
G02*
X118027981Y-113121433I104298J104298D01*
G01*
X118271933Y-112877481D01*
G75*
G02*
X118480529Y-112877481I104298J-104298D01*
G01*
X118689125Y-113086077D01*
G75*
G02*
X118689125Y-113294673I-104298J-104298D01*
G01*
G37*
G36*
G01*
X119375019Y-113980567D02*
X119131067Y-114224519D01*
G75*
G02*
X118922471Y-114224519I-104298J104298D01*
G01*
X118713875Y-114015923D01*
G75*
G02*
X118713875Y-113807327I104298J104298D01*
G01*
X118957827Y-113563375D01*
G75*
G02*
X119166423Y-113563375I104298J-104298D01*
G01*
X119375019Y-113771971D01*
G75*
G02*
X119375019Y-113980567I-104298J-104298D01*
G01*
G37*
G36*
G01*
X118511500Y-114966000D02*
X118511500Y-115311000D01*
G75*
G02*
X118364000Y-115458500I-147500J0D01*
G01*
X118069000Y-115458500D01*
G75*
G02*
X117921500Y-115311000I0J147500D01*
G01*
X117921500Y-114966000D01*
G75*
G02*
X118069000Y-114818500I147500J0D01*
G01*
X118364000Y-114818500D01*
G75*
G02*
X118511500Y-114966000I0J-147500D01*
G01*
G37*
G36*
G01*
X119481500Y-114966000D02*
X119481500Y-115311000D01*
G75*
G02*
X119334000Y-115458500I-147500J0D01*
G01*
X119039000Y-115458500D01*
G75*
G02*
X118891500Y-115311000I0J147500D01*
G01*
X118891500Y-114966000D01*
G75*
G02*
X119039000Y-114818500I147500J0D01*
G01*
X119334000Y-114818500D01*
G75*
G02*
X119481500Y-114966000I0J-147500D01*
G01*
G37*
G36*
G01*
X118445173Y-116738375D02*
X118689125Y-116982327D01*
G75*
G02*
X118689125Y-117190923I-104298J-104298D01*
G01*
X118480529Y-117399519D01*
G75*
G02*
X118271933Y-117399519I-104298J104298D01*
G01*
X118027981Y-117155567D01*
G75*
G02*
X118027981Y-116946971I104298J104298D01*
G01*
X118236577Y-116738375D01*
G75*
G02*
X118445173Y-116738375I104298J-104298D01*
G01*
G37*
G36*
G01*
X119131067Y-116052481D02*
X119375019Y-116296433D01*
G75*
G02*
X119375019Y-116505029I-104298J-104298D01*
G01*
X119166423Y-116713625D01*
G75*
G02*
X118957827Y-116713625I-104298J104298D01*
G01*
X118713875Y-116469673D01*
G75*
G02*
X118713875Y-116261077I104298J104298D01*
G01*
X118922471Y-116052481D01*
G75*
G02*
X119131067Y-116052481I104298J-104298D01*
G01*
G37*
G36*
G01*
X118891500Y-118486000D02*
X118891500Y-118141000D01*
G75*
G02*
X119039000Y-117993500I147500J0D01*
G01*
X119334000Y-117993500D01*
G75*
G02*
X119481500Y-118141000I0J-147500D01*
G01*
X119481500Y-118486000D01*
G75*
G02*
X119334000Y-118633500I-147500J0D01*
G01*
X119039000Y-118633500D01*
G75*
G02*
X118891500Y-118486000I0J147500D01*
G01*
G37*
G36*
G01*
X117921500Y-118486000D02*
X117921500Y-118141000D01*
G75*
G02*
X118069000Y-117993500I147500J0D01*
G01*
X118364000Y-117993500D01*
G75*
G02*
X118511500Y-118141000I0J-147500D01*
G01*
X118511500Y-118486000D01*
G75*
G02*
X118364000Y-118633500I-147500J0D01*
G01*
X118069000Y-118633500D01*
G75*
G02*
X117921500Y-118486000I0J147500D01*
G01*
G37*
G36*
G01*
X120117000Y-113741000D02*
X120462000Y-113741000D01*
G75*
G02*
X120609500Y-113888500I0J-147500D01*
G01*
X120609500Y-114183500D01*
G75*
G02*
X120462000Y-114331000I-147500J0D01*
G01*
X120117000Y-114331000D01*
G75*
G02*
X119969500Y-114183500I0J147500D01*
G01*
X119969500Y-113888500D01*
G75*
G02*
X120117000Y-113741000I147500J0D01*
G01*
G37*
G36*
G01*
X120117000Y-112771000D02*
X120462000Y-112771000D01*
G75*
G02*
X120609500Y-112918500I0J-147500D01*
G01*
X120609500Y-113213500D01*
G75*
G02*
X120462000Y-113361000I-147500J0D01*
G01*
X120117000Y-113361000D01*
G75*
G02*
X119969500Y-113213500I0J147500D01*
G01*
X119969500Y-112918500D01*
G75*
G02*
X120117000Y-112771000I147500J0D01*
G01*
G37*
G36*
G01*
X120117000Y-116916000D02*
X120462000Y-116916000D01*
G75*
G02*
X120609500Y-117063500I0J-147500D01*
G01*
X120609500Y-117358500D01*
G75*
G02*
X120462000Y-117506000I-147500J0D01*
G01*
X120117000Y-117506000D01*
G75*
G02*
X119969500Y-117358500I0J147500D01*
G01*
X119969500Y-117063500D01*
G75*
G02*
X120117000Y-116916000I147500J0D01*
G01*
G37*
G36*
G01*
X120117000Y-115946000D02*
X120462000Y-115946000D01*
G75*
G02*
X120609500Y-116093500I0J-147500D01*
G01*
X120609500Y-116388500D01*
G75*
G02*
X120462000Y-116536000I-147500J0D01*
G01*
X120117000Y-116536000D01*
G75*
G02*
X119969500Y-116388500I0J147500D01*
G01*
X119969500Y-116093500D01*
G75*
G02*
X120117000Y-115946000I147500J0D01*
G01*
G37*
G36*
G01*
X122066500Y-112136000D02*
X122066500Y-111791000D01*
G75*
G02*
X122214000Y-111643500I147500J0D01*
G01*
X122509000Y-111643500D01*
G75*
G02*
X122656500Y-111791000I0J-147500D01*
G01*
X122656500Y-112136000D01*
G75*
G02*
X122509000Y-112283500I-147500J0D01*
G01*
X122214000Y-112283500D01*
G75*
G02*
X122066500Y-112136000I0J147500D01*
G01*
G37*
G36*
G01*
X121096500Y-112136000D02*
X121096500Y-111791000D01*
G75*
G02*
X121244000Y-111643500I147500J0D01*
G01*
X121539000Y-111643500D01*
G75*
G02*
X121686500Y-111791000I0J-147500D01*
G01*
X121686500Y-112136000D01*
G75*
G02*
X121539000Y-112283500I-147500J0D01*
G01*
X121244000Y-112283500D01*
G75*
G02*
X121096500Y-112136000I0J147500D01*
G01*
G37*
G36*
G01*
X122132827Y-113538625D02*
X121888875Y-113294673D01*
G75*
G02*
X121888875Y-113086077I104298J104298D01*
G01*
X122097471Y-112877481D01*
G75*
G02*
X122306067Y-112877481I104298J-104298D01*
G01*
X122550019Y-113121433D01*
G75*
G02*
X122550019Y-113330029I-104298J-104298D01*
G01*
X122341423Y-113538625D01*
G75*
G02*
X122132827Y-113538625I-104298J104298D01*
G01*
G37*
G36*
G01*
X121446933Y-114224519D02*
X121202981Y-113980567D01*
G75*
G02*
X121202981Y-113771971I104298J104298D01*
G01*
X121411577Y-113563375D01*
G75*
G02*
X121620173Y-113563375I104298J-104298D01*
G01*
X121864125Y-113807327D01*
G75*
G02*
X121864125Y-114015923I-104298J-104298D01*
G01*
X121655529Y-114224519D01*
G75*
G02*
X121446933Y-114224519I-104298J104298D01*
G01*
G37*
G36*
G01*
X122066500Y-115311000D02*
X122066500Y-114966000D01*
G75*
G02*
X122214000Y-114818500I147500J0D01*
G01*
X122509000Y-114818500D01*
G75*
G02*
X122656500Y-114966000I0J-147500D01*
G01*
X122656500Y-115311000D01*
G75*
G02*
X122509000Y-115458500I-147500J0D01*
G01*
X122214000Y-115458500D01*
G75*
G02*
X122066500Y-115311000I0J147500D01*
G01*
G37*
G36*
G01*
X121096500Y-115311000D02*
X121096500Y-114966000D01*
G75*
G02*
X121244000Y-114818500I147500J0D01*
G01*
X121539000Y-114818500D01*
G75*
G02*
X121686500Y-114966000I0J-147500D01*
G01*
X121686500Y-115311000D01*
G75*
G02*
X121539000Y-115458500I-147500J0D01*
G01*
X121244000Y-115458500D01*
G75*
G02*
X121096500Y-115311000I0J147500D01*
G01*
G37*
G36*
G01*
X121888875Y-116982327D02*
X122132827Y-116738375D01*
G75*
G02*
X122341423Y-116738375I104298J-104298D01*
G01*
X122550019Y-116946971D01*
G75*
G02*
X122550019Y-117155567I-104298J-104298D01*
G01*
X122306067Y-117399519D01*
G75*
G02*
X122097471Y-117399519I-104298J104298D01*
G01*
X121888875Y-117190923D01*
G75*
G02*
X121888875Y-116982327I104298J104298D01*
G01*
G37*
G36*
G01*
X121202981Y-116296433D02*
X121446933Y-116052481D01*
G75*
G02*
X121655529Y-116052481I104298J-104298D01*
G01*
X121864125Y-116261077D01*
G75*
G02*
X121864125Y-116469673I-104298J-104298D01*
G01*
X121620173Y-116713625D01*
G75*
G02*
X121411577Y-116713625I-104298J104298D01*
G01*
X121202981Y-116505029D01*
G75*
G02*
X121202981Y-116296433I104298J104298D01*
G01*
G37*
G36*
G01*
X122066500Y-118486000D02*
X122066500Y-118141000D01*
G75*
G02*
X122214000Y-117993500I147500J0D01*
G01*
X122509000Y-117993500D01*
G75*
G02*
X122656500Y-118141000I0J-147500D01*
G01*
X122656500Y-118486000D01*
G75*
G02*
X122509000Y-118633500I-147500J0D01*
G01*
X122214000Y-118633500D01*
G75*
G02*
X122066500Y-118486000I0J147500D01*
G01*
G37*
G36*
G01*
X121096500Y-118486000D02*
X121096500Y-118141000D01*
G75*
G02*
X121244000Y-117993500I147500J0D01*
G01*
X121539000Y-117993500D01*
G75*
G02*
X121686500Y-118141000I0J-147500D01*
G01*
X121686500Y-118486000D01*
G75*
G02*
X121539000Y-118633500I-147500J0D01*
G01*
X121244000Y-118633500D01*
G75*
G02*
X121096500Y-118486000I0J147500D01*
G01*
G37*
G36*
G01*
X123291000Y-113741000D02*
X123636000Y-113741000D01*
G75*
G02*
X123783500Y-113888500I0J-147500D01*
G01*
X123783500Y-114183500D01*
G75*
G02*
X123636000Y-114331000I-147500J0D01*
G01*
X123291000Y-114331000D01*
G75*
G02*
X123143500Y-114183500I0J147500D01*
G01*
X123143500Y-113888500D01*
G75*
G02*
X123291000Y-113741000I147500J0D01*
G01*
G37*
G36*
G01*
X123291000Y-112771000D02*
X123636000Y-112771000D01*
G75*
G02*
X123783500Y-112918500I0J-147500D01*
G01*
X123783500Y-113213500D01*
G75*
G02*
X123636000Y-113361000I-147500J0D01*
G01*
X123291000Y-113361000D01*
G75*
G02*
X123143500Y-113213500I0J147500D01*
G01*
X123143500Y-112918500D01*
G75*
G02*
X123291000Y-112771000I147500J0D01*
G01*
G37*
G36*
G01*
X123636000Y-116536000D02*
X123291000Y-116536000D01*
G75*
G02*
X123143500Y-116388500I0J147500D01*
G01*
X123143500Y-116093500D01*
G75*
G02*
X123291000Y-115946000I147500J0D01*
G01*
X123636000Y-115946000D01*
G75*
G02*
X123783500Y-116093500I0J-147500D01*
G01*
X123783500Y-116388500D01*
G75*
G02*
X123636000Y-116536000I-147500J0D01*
G01*
G37*
G36*
G01*
X123636000Y-117506000D02*
X123291000Y-117506000D01*
G75*
G02*
X123143500Y-117358500I0J147500D01*
G01*
X123143500Y-117063500D01*
G75*
G02*
X123291000Y-116916000I147500J0D01*
G01*
X123636000Y-116916000D01*
G75*
G02*
X123783500Y-117063500I0J-147500D01*
G01*
X123783500Y-117358500D01*
G75*
G02*
X123636000Y-117506000I-147500J0D01*
G01*
G37*
G36*
G01*
X127101000Y-113741000D02*
X127446000Y-113741000D01*
G75*
G02*
X127593500Y-113888500I0J-147500D01*
G01*
X127593500Y-114183500D01*
G75*
G02*
X127446000Y-114331000I-147500J0D01*
G01*
X127101000Y-114331000D01*
G75*
G02*
X126953500Y-114183500I0J147500D01*
G01*
X126953500Y-113888500D01*
G75*
G02*
X127101000Y-113741000I147500J0D01*
G01*
G37*
G36*
G01*
X127101000Y-112771000D02*
X127446000Y-112771000D01*
G75*
G02*
X127593500Y-112918500I0J-147500D01*
G01*
X127593500Y-113213500D01*
G75*
G02*
X127446000Y-113361000I-147500J0D01*
G01*
X127101000Y-113361000D01*
G75*
G02*
X126953500Y-113213500I0J147500D01*
G01*
X126953500Y-112918500D01*
G75*
G02*
X127101000Y-112771000I147500J0D01*
G01*
G37*
G36*
G01*
X127446000Y-116536000D02*
X127101000Y-116536000D01*
G75*
G02*
X126953500Y-116388500I0J147500D01*
G01*
X126953500Y-116093500D01*
G75*
G02*
X127101000Y-115946000I147500J0D01*
G01*
X127446000Y-115946000D01*
G75*
G02*
X127593500Y-116093500I0J-147500D01*
G01*
X127593500Y-116388500D01*
G75*
G02*
X127446000Y-116536000I-147500J0D01*
G01*
G37*
G36*
G01*
X127446000Y-117506000D02*
X127101000Y-117506000D01*
G75*
G02*
X126953500Y-117358500I0J147500D01*
G01*
X126953500Y-117063500D01*
G75*
G02*
X127101000Y-116916000I147500J0D01*
G01*
X127446000Y-116916000D01*
G75*
G02*
X127593500Y-117063500I0J-147500D01*
G01*
X127593500Y-117358500D01*
G75*
G02*
X127446000Y-117506000I-147500J0D01*
G01*
G37*
G36*
G01*
X129051500Y-112136000D02*
X129051500Y-111791000D01*
G75*
G02*
X129199000Y-111643500I147500J0D01*
G01*
X129494000Y-111643500D01*
G75*
G02*
X129641500Y-111791000I0J-147500D01*
G01*
X129641500Y-112136000D01*
G75*
G02*
X129494000Y-112283500I-147500J0D01*
G01*
X129199000Y-112283500D01*
G75*
G02*
X129051500Y-112136000I0J147500D01*
G01*
G37*
G36*
G01*
X128081500Y-112136000D02*
X128081500Y-111791000D01*
G75*
G02*
X128229000Y-111643500I147500J0D01*
G01*
X128524000Y-111643500D01*
G75*
G02*
X128671500Y-111791000I0J-147500D01*
G01*
X128671500Y-112136000D01*
G75*
G02*
X128524000Y-112283500I-147500J0D01*
G01*
X128229000Y-112283500D01*
G75*
G02*
X128081500Y-112136000I0J147500D01*
G01*
G37*
G36*
G01*
X128849125Y-113294673D02*
X128605173Y-113538625D01*
G75*
G02*
X128396577Y-113538625I-104298J104298D01*
G01*
X128187981Y-113330029D01*
G75*
G02*
X128187981Y-113121433I104298J104298D01*
G01*
X128431933Y-112877481D01*
G75*
G02*
X128640529Y-112877481I104298J-104298D01*
G01*
X128849125Y-113086077D01*
G75*
G02*
X128849125Y-113294673I-104298J-104298D01*
G01*
G37*
G36*
G01*
X129535019Y-113980567D02*
X129291067Y-114224519D01*
G75*
G02*
X129082471Y-114224519I-104298J104298D01*
G01*
X128873875Y-114015923D01*
G75*
G02*
X128873875Y-113807327I104298J104298D01*
G01*
X129117827Y-113563375D01*
G75*
G02*
X129326423Y-113563375I104298J-104298D01*
G01*
X129535019Y-113771971D01*
G75*
G02*
X129535019Y-113980567I-104298J-104298D01*
G01*
G37*
G36*
G01*
X128671500Y-114966000D02*
X128671500Y-115311000D01*
G75*
G02*
X128524000Y-115458500I-147500J0D01*
G01*
X128229000Y-115458500D01*
G75*
G02*
X128081500Y-115311000I0J147500D01*
G01*
X128081500Y-114966000D01*
G75*
G02*
X128229000Y-114818500I147500J0D01*
G01*
X128524000Y-114818500D01*
G75*
G02*
X128671500Y-114966000I0J-147500D01*
G01*
G37*
G36*
G01*
X129641500Y-114966000D02*
X129641500Y-115311000D01*
G75*
G02*
X129494000Y-115458500I-147500J0D01*
G01*
X129199000Y-115458500D01*
G75*
G02*
X129051500Y-115311000I0J147500D01*
G01*
X129051500Y-114966000D01*
G75*
G02*
X129199000Y-114818500I147500J0D01*
G01*
X129494000Y-114818500D01*
G75*
G02*
X129641500Y-114966000I0J-147500D01*
G01*
G37*
G36*
G01*
X128605173Y-116738375D02*
X128849125Y-116982327D01*
G75*
G02*
X128849125Y-117190923I-104298J-104298D01*
G01*
X128640529Y-117399519D01*
G75*
G02*
X128431933Y-117399519I-104298J104298D01*
G01*
X128187981Y-117155567D01*
G75*
G02*
X128187981Y-116946971I104298J104298D01*
G01*
X128396577Y-116738375D01*
G75*
G02*
X128605173Y-116738375I104298J-104298D01*
G01*
G37*
G36*
G01*
X129291067Y-116052481D02*
X129535019Y-116296433D01*
G75*
G02*
X129535019Y-116505029I-104298J-104298D01*
G01*
X129326423Y-116713625D01*
G75*
G02*
X129117827Y-116713625I-104298J104298D01*
G01*
X128873875Y-116469673D01*
G75*
G02*
X128873875Y-116261077I104298J104298D01*
G01*
X129082471Y-116052481D01*
G75*
G02*
X129291067Y-116052481I104298J-104298D01*
G01*
G37*
G36*
G01*
X129051500Y-118486000D02*
X129051500Y-118141000D01*
G75*
G02*
X129199000Y-117993500I147500J0D01*
G01*
X129494000Y-117993500D01*
G75*
G02*
X129641500Y-118141000I0J-147500D01*
G01*
X129641500Y-118486000D01*
G75*
G02*
X129494000Y-118633500I-147500J0D01*
G01*
X129199000Y-118633500D01*
G75*
G02*
X129051500Y-118486000I0J147500D01*
G01*
G37*
G36*
G01*
X128081500Y-118486000D02*
X128081500Y-118141000D01*
G75*
G02*
X128229000Y-117993500I147500J0D01*
G01*
X128524000Y-117993500D01*
G75*
G02*
X128671500Y-118141000I0J-147500D01*
G01*
X128671500Y-118486000D01*
G75*
G02*
X128524000Y-118633500I-147500J0D01*
G01*
X128229000Y-118633500D01*
G75*
G02*
X128081500Y-118486000I0J147500D01*
G01*
G37*
G36*
G01*
X130277000Y-113741000D02*
X130622000Y-113741000D01*
G75*
G02*
X130769500Y-113888500I0J-147500D01*
G01*
X130769500Y-114183500D01*
G75*
G02*
X130622000Y-114331000I-147500J0D01*
G01*
X130277000Y-114331000D01*
G75*
G02*
X130129500Y-114183500I0J147500D01*
G01*
X130129500Y-113888500D01*
G75*
G02*
X130277000Y-113741000I147500J0D01*
G01*
G37*
G36*
G01*
X130277000Y-112771000D02*
X130622000Y-112771000D01*
G75*
G02*
X130769500Y-112918500I0J-147500D01*
G01*
X130769500Y-113213500D01*
G75*
G02*
X130622000Y-113361000I-147500J0D01*
G01*
X130277000Y-113361000D01*
G75*
G02*
X130129500Y-113213500I0J147500D01*
G01*
X130129500Y-112918500D01*
G75*
G02*
X130277000Y-112771000I147500J0D01*
G01*
G37*
G36*
G01*
X130277000Y-116919000D02*
X130622000Y-116919000D01*
G75*
G02*
X130769500Y-117066500I0J-147500D01*
G01*
X130769500Y-117361500D01*
G75*
G02*
X130622000Y-117509000I-147500J0D01*
G01*
X130277000Y-117509000D01*
G75*
G02*
X130129500Y-117361500I0J147500D01*
G01*
X130129500Y-117066500D01*
G75*
G02*
X130277000Y-116919000I147500J0D01*
G01*
G37*
G36*
G01*
X130277000Y-115949000D02*
X130622000Y-115949000D01*
G75*
G02*
X130769500Y-116096500I0J-147500D01*
G01*
X130769500Y-116391500D01*
G75*
G02*
X130622000Y-116539000I-147500J0D01*
G01*
X130277000Y-116539000D01*
G75*
G02*
X130129500Y-116391500I0J147500D01*
G01*
X130129500Y-116096500D01*
G75*
G02*
X130277000Y-115949000I147500J0D01*
G01*
G37*
G36*
G01*
X131846500Y-111791000D02*
X131846500Y-112136000D01*
G75*
G02*
X131699000Y-112283500I-147500J0D01*
G01*
X131404000Y-112283500D01*
G75*
G02*
X131256500Y-112136000I0J147500D01*
G01*
X131256500Y-111791000D01*
G75*
G02*
X131404000Y-111643500I147500J0D01*
G01*
X131699000Y-111643500D01*
G75*
G02*
X131846500Y-111791000I0J-147500D01*
G01*
G37*
G36*
G01*
X132816500Y-111791000D02*
X132816500Y-112136000D01*
G75*
G02*
X132669000Y-112283500I-147500J0D01*
G01*
X132374000Y-112283500D01*
G75*
G02*
X132226500Y-112136000I0J147500D01*
G01*
X132226500Y-111791000D01*
G75*
G02*
X132374000Y-111643500I147500J0D01*
G01*
X132669000Y-111643500D01*
G75*
G02*
X132816500Y-111791000I0J-147500D01*
G01*
G37*
G36*
G01*
X132292827Y-113538625D02*
X132048875Y-113294673D01*
G75*
G02*
X132048875Y-113086077I104298J104298D01*
G01*
X132257471Y-112877481D01*
G75*
G02*
X132466067Y-112877481I104298J-104298D01*
G01*
X132710019Y-113121433D01*
G75*
G02*
X132710019Y-113330029I-104298J-104298D01*
G01*
X132501423Y-113538625D01*
G75*
G02*
X132292827Y-113538625I-104298J104298D01*
G01*
G37*
G36*
G01*
X131606933Y-114224519D02*
X131362981Y-113980567D01*
G75*
G02*
X131362981Y-113771971I104298J104298D01*
G01*
X131571577Y-113563375D01*
G75*
G02*
X131780173Y-113563375I104298J-104298D01*
G01*
X132024125Y-113807327D01*
G75*
G02*
X132024125Y-114015923I-104298J-104298D01*
G01*
X131815529Y-114224519D01*
G75*
G02*
X131606933Y-114224519I-104298J104298D01*
G01*
G37*
G36*
G01*
X132226500Y-115311000D02*
X132226500Y-114966000D01*
G75*
G02*
X132374000Y-114818500I147500J0D01*
G01*
X132669000Y-114818500D01*
G75*
G02*
X132816500Y-114966000I0J-147500D01*
G01*
X132816500Y-115311000D01*
G75*
G02*
X132669000Y-115458500I-147500J0D01*
G01*
X132374000Y-115458500D01*
G75*
G02*
X132226500Y-115311000I0J147500D01*
G01*
G37*
G36*
G01*
X131256500Y-115311000D02*
X131256500Y-114966000D01*
G75*
G02*
X131404000Y-114818500I147500J0D01*
G01*
X131699000Y-114818500D01*
G75*
G02*
X131846500Y-114966000I0J-147500D01*
G01*
X131846500Y-115311000D01*
G75*
G02*
X131699000Y-115458500I-147500J0D01*
G01*
X131404000Y-115458500D01*
G75*
G02*
X131256500Y-115311000I0J147500D01*
G01*
G37*
G36*
G01*
X132048875Y-116982327D02*
X132292827Y-116738375D01*
G75*
G02*
X132501423Y-116738375I104298J-104298D01*
G01*
X132710019Y-116946971D01*
G75*
G02*
X132710019Y-117155567I-104298J-104298D01*
G01*
X132466067Y-117399519D01*
G75*
G02*
X132257471Y-117399519I-104298J104298D01*
G01*
X132048875Y-117190923D01*
G75*
G02*
X132048875Y-116982327I104298J104298D01*
G01*
G37*
G36*
G01*
X131362981Y-116296433D02*
X131606933Y-116052481D01*
G75*
G02*
X131815529Y-116052481I104298J-104298D01*
G01*
X132024125Y-116261077D01*
G75*
G02*
X132024125Y-116469673I-104298J-104298D01*
G01*
X131780173Y-116713625D01*
G75*
G02*
X131571577Y-116713625I-104298J104298D01*
G01*
X131362981Y-116505029D01*
G75*
G02*
X131362981Y-116296433I104298J104298D01*
G01*
G37*
G36*
G01*
X132226500Y-118486000D02*
X132226500Y-118141000D01*
G75*
G02*
X132374000Y-117993500I147500J0D01*
G01*
X132669000Y-117993500D01*
G75*
G02*
X132816500Y-118141000I0J-147500D01*
G01*
X132816500Y-118486000D01*
G75*
G02*
X132669000Y-118633500I-147500J0D01*
G01*
X132374000Y-118633500D01*
G75*
G02*
X132226500Y-118486000I0J147500D01*
G01*
G37*
G36*
G01*
X131256500Y-118486000D02*
X131256500Y-118141000D01*
G75*
G02*
X131404000Y-117993500I147500J0D01*
G01*
X131699000Y-117993500D01*
G75*
G02*
X131846500Y-118141000I0J-147500D01*
G01*
X131846500Y-118486000D01*
G75*
G02*
X131699000Y-118633500I-147500J0D01*
G01*
X131404000Y-118633500D01*
G75*
G02*
X131256500Y-118486000I0J147500D01*
G01*
G37*
G36*
G01*
X133451000Y-113741000D02*
X133796000Y-113741000D01*
G75*
G02*
X133943500Y-113888500I0J-147500D01*
G01*
X133943500Y-114183500D01*
G75*
G02*
X133796000Y-114331000I-147500J0D01*
G01*
X133451000Y-114331000D01*
G75*
G02*
X133303500Y-114183500I0J147500D01*
G01*
X133303500Y-113888500D01*
G75*
G02*
X133451000Y-113741000I147500J0D01*
G01*
G37*
G36*
G01*
X133451000Y-112771000D02*
X133796000Y-112771000D01*
G75*
G02*
X133943500Y-112918500I0J-147500D01*
G01*
X133943500Y-113213500D01*
G75*
G02*
X133796000Y-113361000I-147500J0D01*
G01*
X133451000Y-113361000D01*
G75*
G02*
X133303500Y-113213500I0J147500D01*
G01*
X133303500Y-112918500D01*
G75*
G02*
X133451000Y-112771000I147500J0D01*
G01*
G37*
G36*
G01*
X133796000Y-116536000D02*
X133451000Y-116536000D01*
G75*
G02*
X133303500Y-116388500I0J147500D01*
G01*
X133303500Y-116093500D01*
G75*
G02*
X133451000Y-115946000I147500J0D01*
G01*
X133796000Y-115946000D01*
G75*
G02*
X133943500Y-116093500I0J-147500D01*
G01*
X133943500Y-116388500D01*
G75*
G02*
X133796000Y-116536000I-147500J0D01*
G01*
G37*
G36*
G01*
X133796000Y-117506000D02*
X133451000Y-117506000D01*
G75*
G02*
X133303500Y-117358500I0J147500D01*
G01*
X133303500Y-117063500D01*
G75*
G02*
X133451000Y-116916000I147500J0D01*
G01*
X133796000Y-116916000D01*
G75*
G02*
X133943500Y-117063500I0J-147500D01*
G01*
X133943500Y-117358500D01*
G75*
G02*
X133796000Y-117506000I-147500J0D01*
G01*
G37*
G36*
G01*
X93447000Y-113741000D02*
X93792000Y-113741000D01*
G75*
G02*
X93939500Y-113888500I0J-147500D01*
G01*
X93939500Y-114183500D01*
G75*
G02*
X93792000Y-114331000I-147500J0D01*
G01*
X93447000Y-114331000D01*
G75*
G02*
X93299500Y-114183500I0J147500D01*
G01*
X93299500Y-113888500D01*
G75*
G02*
X93447000Y-113741000I147500J0D01*
G01*
G37*
G36*
G01*
X93447000Y-112771000D02*
X93792000Y-112771000D01*
G75*
G02*
X93939500Y-112918500I0J-147500D01*
G01*
X93939500Y-113213500D01*
G75*
G02*
X93792000Y-113361000I-147500J0D01*
G01*
X93447000Y-113361000D01*
G75*
G02*
X93299500Y-113213500I0J147500D01*
G01*
X93299500Y-112918500D01*
G75*
G02*
X93447000Y-112771000I147500J0D01*
G01*
G37*
G36*
G01*
X93447000Y-116916000D02*
X93792000Y-116916000D01*
G75*
G02*
X93939500Y-117063500I0J-147500D01*
G01*
X93939500Y-117358500D01*
G75*
G02*
X93792000Y-117506000I-147500J0D01*
G01*
X93447000Y-117506000D01*
G75*
G02*
X93299500Y-117358500I0J147500D01*
G01*
X93299500Y-117063500D01*
G75*
G02*
X93447000Y-116916000I147500J0D01*
G01*
G37*
G36*
G01*
X93447000Y-115946000D02*
X93792000Y-115946000D01*
G75*
G02*
X93939500Y-116093500I0J-147500D01*
G01*
X93939500Y-116388500D01*
G75*
G02*
X93792000Y-116536000I-147500J0D01*
G01*
X93447000Y-116536000D01*
G75*
G02*
X93299500Y-116388500I0J147500D01*
G01*
X93299500Y-116093500D01*
G75*
G02*
X93447000Y-115946000I147500J0D01*
G01*
G37*
M02*
