G04 #@! TF.GenerationSoftware,KiCad,Pcbnew,(5.1.9)-1*
G04 #@! TF.CreationDate,2021-05-14T22:38:37-04:00*
G04 #@! TF.ProjectId,PanelizedDisplays,50616e65-6c69-47a6-9564-446973706c61,rev?*
G04 #@! TF.SameCoordinates,Original*
G04 #@! TF.FileFunction,Copper,L2,Bot*
G04 #@! TF.FilePolarity,Positive*
%FSLAX46Y46*%
G04 Gerber Fmt 4.6, Leading zero omitted, Abs format (unit mm)*
G04 Created by KiCad (PCBNEW (5.1.9)-1) date 2021-05-14 22:38:37*
%MOMM*%
%LPD*%
G01*
G04 APERTURE LIST*
G04 #@! TA.AperFunction,ComponentPad*
%ADD10O,1.700000X1.700000*%
G04 #@! TD*
G04 #@! TA.AperFunction,ComponentPad*
%ADD11R,1.700000X1.700000*%
G04 #@! TD*
G04 #@! TA.AperFunction,ViaPad*
%ADD12C,0.450000*%
G04 #@! TD*
G04 #@! TA.AperFunction,ViaPad*
%ADD13C,0.800000*%
G04 #@! TD*
G04 #@! TA.AperFunction,Conductor*
%ADD14C,0.250000*%
G04 #@! TD*
G04 #@! TA.AperFunction,Conductor*
%ADD15C,0.304800*%
G04 #@! TD*
G04 APERTURE END LIST*
D10*
X133860500Y-142079500D03*
X131320500Y-142079500D03*
X128780500Y-142079500D03*
X126240500Y-142079500D03*
X123700500Y-142079500D03*
X121160500Y-142079500D03*
X118620500Y-142079500D03*
X116080500Y-142079500D03*
D11*
X113540500Y-142079500D03*
D10*
X133860500Y-128109500D03*
X131320500Y-128109500D03*
X128780500Y-128109500D03*
X126240500Y-128109500D03*
X123700500Y-128109500D03*
X121160500Y-128109500D03*
X118620500Y-128109500D03*
X116080500Y-128109500D03*
D11*
X113540500Y-128109500D03*
D10*
X109393000Y-102262000D03*
X106853000Y-102262000D03*
X104313000Y-102262000D03*
X101773000Y-102262000D03*
D11*
X99233000Y-102262000D03*
D10*
X131999000Y-102262000D03*
X129459000Y-102262000D03*
X126919000Y-102262000D03*
X124379000Y-102262000D03*
X121839000Y-102262000D03*
X119299000Y-102262000D03*
D11*
X116759000Y-102262000D03*
D10*
X131999000Y-89054000D03*
X129459000Y-89054000D03*
X126919000Y-89054000D03*
X124379000Y-89054000D03*
X121839000Y-89054000D03*
X119299000Y-89054000D03*
D11*
X116759000Y-89054000D03*
D10*
X90216000Y-102262000D03*
X87676000Y-102262000D03*
X85136000Y-102262000D03*
D11*
X82596000Y-102262000D03*
D10*
X100376000Y-89054000D03*
X97836000Y-89054000D03*
X95296000Y-89054000D03*
X92756000Y-89054000D03*
X90216000Y-89054000D03*
X87676000Y-89054000D03*
X85136000Y-89054000D03*
D11*
X82596000Y-89054000D03*
D10*
X133515000Y-121301000D03*
X130975000Y-121301000D03*
X128435000Y-121301000D03*
X125895000Y-121301000D03*
X123355000Y-121301000D03*
D11*
X120815000Y-121301000D03*
D10*
X108115000Y-121301000D03*
X105575000Y-121301000D03*
X103035000Y-121301000D03*
X100495000Y-121301000D03*
X97955000Y-121301000D03*
D11*
X95415000Y-121301000D03*
D10*
X133515000Y-108982000D03*
X130975000Y-108982000D03*
X128435000Y-108982000D03*
X125895000Y-108982000D03*
X123355000Y-108982000D03*
D11*
X120815000Y-108982000D03*
D10*
X108115000Y-108982000D03*
X105575000Y-108982000D03*
X103035000Y-108982000D03*
X100495000Y-108982000D03*
X97955000Y-108982000D03*
D11*
X95415000Y-108982000D03*
D12*
X119573000Y-132999000D03*
X79548000Y-95658000D03*
X91486000Y-98325000D03*
X83485000Y-98452000D03*
X79421000Y-92737000D03*
X87676000Y-93372000D03*
D13*
X110147000Y-120793000D03*
X131102000Y-119650000D03*
X118783000Y-120280055D03*
D12*
X115445500Y-131348000D03*
X79421000Y-98071000D03*
X87803000Y-98452000D03*
X85136000Y-91086000D03*
X92502000Y-90959000D03*
D13*
X130467000Y-114951000D03*
X110147000Y-114860990D03*
X99987000Y-114860990D03*
X120307000Y-114951000D03*
D12*
X92438500Y-93626000D03*
X84501000Y-93626000D03*
X81326000Y-90705000D03*
X89327000Y-91086000D03*
X91359000Y-92652010D03*
D13*
X95669000Y-113427000D03*
X115973738Y-113515845D03*
X126131789Y-113299609D03*
X105790875Y-113515875D03*
D12*
X117033000Y-135285000D03*
X91740000Y-95531000D03*
X83866000Y-95531000D03*
X80310000Y-91594000D03*
X88184000Y-91594000D03*
D13*
X99987000Y-111395000D03*
X130340000Y-111395000D03*
X110147000Y-111014000D03*
X120307000Y-111014000D03*
D12*
X123697000Y-138329500D03*
X80437000Y-95658000D03*
X88311000Y-95658000D03*
X93391000Y-96547000D03*
X85644000Y-96547000D03*
D13*
X96558000Y-118761000D03*
X117005000Y-118634000D03*
X106972000Y-118470010D03*
X126493010Y-118343002D03*
D12*
X131892000Y-134078500D03*
X130145750Y-131252750D03*
X87676000Y-99722000D03*
X80437000Y-98706000D03*
X91740000Y-99595000D03*
X83866000Y-99595000D03*
D13*
X127165000Y-115205000D03*
X116116000Y-115459000D03*
X96812000Y-115205000D03*
X105829000Y-115491010D03*
D12*
X95931000Y-91340000D03*
X88438000Y-100103000D03*
X80818000Y-100103000D03*
X93645000Y-91467000D03*
X86787000Y-92737000D03*
D13*
X96939000Y-112030000D03*
X117005000Y-112030000D03*
X127292000Y-112030000D03*
X106591000Y-112030000D03*
D12*
X124531749Y-130464749D03*
X127637500Y-130459000D03*
X120576422Y-135224054D03*
X95931000Y-90451000D03*
X94280000Y-90324000D03*
X86660000Y-98706000D03*
X83612000Y-91890010D03*
X94618990Y-98833000D03*
X91732084Y-91424990D03*
D13*
X99987000Y-118761000D03*
X130467000Y-118253000D03*
X120307000Y-118950916D03*
X110786660Y-119391340D03*
X105891226Y-118950974D03*
D12*
X117508452Y-133549010D03*
D13*
X103035000Y-119269000D03*
X113195000Y-120158000D03*
X133515000Y-119396000D03*
X123355000Y-119400927D03*
D12*
X119065000Y-134904000D03*
D13*
X114338000Y-117872000D03*
X124371000Y-117618000D03*
X134023000Y-118380000D03*
X104157317Y-117462192D03*
D12*
X121859000Y-134205500D03*
D13*
X134912000Y-114316000D03*
X103162000Y-115078000D03*
X123355000Y-115078000D03*
X113322000Y-114987990D03*
D12*
X123383000Y-135094500D03*
D13*
X104051000Y-111776000D03*
X133642000Y-111903000D03*
X114084000Y-111522000D03*
X124528321Y-111494957D03*
D12*
X124589500Y-133062500D03*
D13*
X102908000Y-110633000D03*
X113068000Y-110252000D03*
X123228000Y-110633000D03*
D12*
X127930500Y-133990500D03*
D13*
X114719000Y-116221000D03*
X124879000Y-115967000D03*
X134658000Y-116856000D03*
X105041489Y-116248041D03*
D12*
X126811998Y-131348000D03*
D13*
X134785000Y-113046000D03*
X114465000Y-113046000D03*
X104298765Y-113300000D03*
X124625000Y-112944968D03*
D12*
X129330510Y-133498103D03*
D13*
X95542000Y-116729000D03*
X126149000Y-116856000D03*
X115989000Y-117110000D03*
X105829000Y-116983054D03*
D12*
X114092000Y-100230000D03*
X111679000Y-100865000D03*
X121966000Y-100357000D03*
X123109000Y-101034010D03*
X125649000Y-101034010D03*
X130729000Y-101034010D03*
X107615000Y-92483000D03*
X111044000Y-91594000D03*
X98979000Y-92483000D03*
X103297000Y-92483000D03*
X107615000Y-95404000D03*
X103297000Y-95531000D03*
X98979000Y-95531000D03*
X112398990Y-92102000D03*
X112060000Y-98579000D03*
X103551000Y-98452000D03*
X99233000Y-98579000D03*
X107996000Y-98414947D03*
X111806000Y-99595000D03*
X98725000Y-99468000D03*
X103041825Y-99161047D03*
X107361000Y-98964957D03*
X96312000Y-100230000D03*
X100305452Y-99785950D03*
X104821000Y-99610979D03*
X109266000Y-99414968D03*
X111806000Y-91594000D03*
X105837000Y-94515000D03*
X110155000Y-94515000D03*
X97201000Y-94515000D03*
X101519000Y-94515000D03*
X104821000Y-95658000D03*
X109266000Y-95658000D03*
X96185000Y-95658000D03*
X100503000Y-95658000D03*
X116251000Y-92483000D03*
X120696000Y-92483000D03*
X125014000Y-92483000D03*
X129332000Y-92483000D03*
X133650000Y-92483000D03*
X121458000Y-94642000D03*
X119553000Y-94642000D03*
X123998000Y-94515000D03*
X128316000Y-94515000D03*
X132761000Y-94642000D03*
X115235000Y-94642000D03*
X116759000Y-98452000D03*
X121077000Y-98452000D03*
X125395000Y-98452000D03*
X134158000Y-98452000D03*
X129416990Y-98533337D03*
X133650000Y-99468000D03*
X116251000Y-99044990D03*
X120569000Y-99044990D03*
X124887000Y-99044990D03*
X129331245Y-99177668D03*
X117902000Y-99595000D03*
X122220000Y-99595000D03*
X113427863Y-99679990D03*
X131110000Y-99806990D03*
X126665000Y-99806990D03*
X113457000Y-95531000D03*
X117902000Y-95785000D03*
X122220000Y-95785000D03*
X126538000Y-95785000D03*
X130983000Y-95785000D03*
X116124000Y-95658000D03*
X120569000Y-95658000D03*
X124887000Y-95658000D03*
X129205000Y-95658000D03*
X133650000Y-95658000D03*
D13*
X93637000Y-115141500D03*
X93637000Y-118253000D03*
D14*
X113540500Y-130586000D02*
X113540500Y-128109500D01*
X115953500Y-132999000D02*
X113540500Y-130586000D01*
X119573000Y-132999000D02*
X115953500Y-132999000D01*
X79888991Y-92269009D02*
X79421000Y-92737000D01*
X83144009Y-92269009D02*
X79888991Y-92269009D01*
X83485000Y-92610000D02*
X83144009Y-92269009D01*
X85771000Y-92610000D02*
X83485000Y-92610000D01*
X87591001Y-93287001D02*
X87676000Y-93372000D01*
X86448001Y-93287001D02*
X87591001Y-93287001D01*
X85771000Y-92610000D02*
X86448001Y-93287001D01*
X91486000Y-97182000D02*
X90724000Y-96420000D01*
X90724000Y-96420000D02*
X87168000Y-96420000D01*
X84839999Y-97097001D02*
X83485000Y-98452000D01*
X86490999Y-97097001D02*
X84839999Y-97097001D01*
X87168000Y-96420000D02*
X86490999Y-97097001D01*
X91486000Y-98325000D02*
X91486000Y-97182000D01*
X82416998Y-98452000D02*
X83485000Y-98452000D01*
X82342000Y-98452000D02*
X82416998Y-98452000D01*
X79548000Y-95658000D02*
X82342000Y-98452000D01*
X117508055Y-121555000D02*
X118783000Y-120280055D01*
X110909000Y-121555000D02*
X117508055Y-121555000D01*
X110147000Y-120793000D02*
X110909000Y-121555000D01*
X118937056Y-120125999D02*
X118783000Y-120280055D01*
X130626001Y-120125999D02*
X118937056Y-120125999D01*
X131102000Y-119650000D02*
X130626001Y-120125999D01*
X101670001Y-120125999D02*
X109479999Y-120125999D01*
X100495000Y-121301000D02*
X101670001Y-120125999D01*
X109479999Y-120125999D02*
X110147000Y-120793000D01*
X118620500Y-128109500D02*
X115445500Y-131284500D01*
X115445500Y-131284500D02*
X115445500Y-131348000D01*
X80616002Y-98071000D02*
X81886002Y-99341000D01*
X79421000Y-98071000D02*
X80616002Y-98071000D01*
X81886002Y-99341000D02*
X83104000Y-99341000D01*
X83442999Y-99002001D02*
X83950999Y-99002001D01*
X83104000Y-99341000D02*
X83442999Y-99002001D01*
X84797001Y-98155999D02*
X87506999Y-98155999D01*
X87506999Y-98155999D02*
X87803000Y-98452000D01*
X83950999Y-99002001D02*
X84797001Y-98155999D01*
X78420989Y-92286599D02*
X78420989Y-93260989D01*
X79663589Y-91043999D02*
X78420989Y-92286599D01*
X80574001Y-91043999D02*
X79663589Y-91043999D01*
X80785003Y-91255001D02*
X80574001Y-91043999D01*
X81663589Y-91255001D02*
X80785003Y-91255001D01*
X82028600Y-90889990D02*
X81663589Y-91255001D01*
X84939990Y-90889990D02*
X82028600Y-90889990D01*
X85136000Y-91086000D02*
X84939990Y-90889990D01*
X78997999Y-97647999D02*
X79421000Y-98071000D01*
X78997999Y-93837999D02*
X78997999Y-97647999D01*
X78420989Y-93260989D02*
X78997999Y-93837999D01*
X85454198Y-91086000D02*
X85512188Y-91028010D01*
X85136000Y-91086000D02*
X85454198Y-91086000D01*
X85512188Y-91028010D02*
X88455008Y-91028010D01*
X89062999Y-91636001D02*
X89591001Y-91636001D01*
X90493001Y-90734001D02*
X92277001Y-90734001D01*
X89591001Y-91636001D02*
X90493001Y-90734001D01*
X92277001Y-90734001D02*
X92502000Y-90959000D01*
X88455008Y-91028010D02*
X89062999Y-91636001D01*
X94907000Y-113738002D02*
X94907000Y-112919000D01*
X94907000Y-112919000D02*
X97193000Y-110633000D01*
X97193000Y-110633000D02*
X101384000Y-110633000D01*
X101384000Y-110633000D02*
X103035000Y-108982000D01*
X94907000Y-113738002D02*
X95484998Y-114316000D01*
X99442010Y-114316000D02*
X99987000Y-114860990D01*
X95484998Y-114316000D02*
X99442010Y-114316000D01*
X110761001Y-114246989D02*
X119602989Y-114246989D01*
X110147000Y-114860990D02*
X110761001Y-114246989D01*
X119602989Y-114246989D02*
X119907001Y-114551001D01*
X119907001Y-114551001D02*
X120307000Y-114951000D01*
X126343600Y-113992989D02*
X129508989Y-113992989D01*
X120307000Y-114951000D02*
X121138011Y-114119989D01*
X129508989Y-113992989D02*
X130467000Y-114951000D01*
X121138011Y-114119989D02*
X126216600Y-114119989D01*
X126216600Y-114119989D02*
X126343600Y-113992989D01*
X103850018Y-114623018D02*
X104888391Y-114623018D01*
X103162000Y-113935000D02*
X103850018Y-114623018D01*
X104888391Y-114623018D02*
X105227421Y-114283988D01*
X99987000Y-114860990D02*
X100912990Y-113935000D01*
X109747001Y-114460991D02*
X110147000Y-114860990D01*
X100912990Y-113935000D02*
X103162000Y-113935000D01*
X105227421Y-114283988D02*
X109569998Y-114283988D01*
X109569998Y-114283988D02*
X109747001Y-114460991D01*
X88819000Y-90578000D02*
X89327000Y-91086000D01*
X92057500Y-93245000D02*
X92438500Y-93626000D01*
X87676000Y-90578000D02*
X87676000Y-89054000D01*
X88819000Y-90578000D02*
X87676000Y-90578000D01*
X81707000Y-90324000D02*
X81326000Y-90705000D01*
X87422000Y-90324000D02*
X81707000Y-90324000D01*
X87676000Y-90578000D02*
X87422000Y-90324000D01*
X92438500Y-93626000D02*
X91464510Y-92652010D01*
X91464510Y-92652010D02*
X91359000Y-92652010D01*
X84797001Y-93922001D02*
X90089009Y-93922001D01*
X90089009Y-93922001D02*
X91359000Y-92652010D01*
X84501000Y-93626000D02*
X84797001Y-93922001D01*
X125761420Y-113669978D02*
X126131789Y-113299609D01*
X115973738Y-113515845D02*
X123697845Y-113515845D01*
X123697845Y-113515845D02*
X123851978Y-113669978D01*
X123851978Y-113669978D02*
X125761420Y-113669978D01*
X115973738Y-113515845D02*
X115718582Y-113771001D01*
X113830000Y-113554000D02*
X108567993Y-113554000D01*
X108567993Y-113554000D02*
X108485432Y-113471439D01*
X105829000Y-113554000D02*
X105790875Y-113515875D01*
X114047001Y-113771001D02*
X113830000Y-113554000D01*
X105911561Y-113471439D02*
X105829000Y-113554000D01*
X115718582Y-113771001D02*
X114047001Y-113771001D01*
X108485432Y-113471439D02*
X105911561Y-113471439D01*
X95669000Y-113427000D02*
X103388281Y-113427000D01*
X105225190Y-113515875D02*
X105790875Y-113515875D01*
X103388281Y-113427000D02*
X104134288Y-114173007D01*
X104134288Y-114173007D02*
X104568058Y-114173007D01*
X104568058Y-114173007D02*
X105225190Y-113515875D01*
X123700500Y-129685502D02*
X123700500Y-128109500D01*
X119837001Y-133549001D02*
X123700500Y-129685502D01*
X118768999Y-133549001D02*
X119837001Y-133549001D01*
X117033000Y-135285000D02*
X118768999Y-133549001D01*
X90851000Y-94642000D02*
X91740000Y-95531000D01*
X84755000Y-94642000D02*
X90851000Y-94642000D01*
X83866000Y-95531000D02*
X84755000Y-94642000D01*
X79749998Y-91594000D02*
X80310000Y-91594000D01*
X78870999Y-92472999D02*
X79749998Y-91594000D01*
X78870999Y-93001001D02*
X78870999Y-92472999D01*
X81400998Y-95531000D02*
X78870999Y-93001001D01*
X83866000Y-95531000D02*
X81400998Y-95531000D01*
X88141999Y-91636001D02*
X88184000Y-91594000D01*
X81736001Y-91818999D02*
X82215000Y-91340000D01*
X80310000Y-91594000D02*
X80534999Y-91818999D01*
X80534999Y-91818999D02*
X81736001Y-91818999D01*
X84871999Y-91636001D02*
X88141999Y-91636001D01*
X82215000Y-91340000D02*
X84575998Y-91340000D01*
X84575998Y-91340000D02*
X84871999Y-91636001D01*
X120053000Y-110760000D02*
X120307000Y-111014000D01*
X113703000Y-110760000D02*
X120053000Y-110760000D01*
X113449000Y-111014000D02*
X113703000Y-110760000D01*
X110147000Y-111014000D02*
X113449000Y-111014000D01*
X109893000Y-110760000D02*
X110147000Y-111014000D01*
X103924000Y-110760000D02*
X109893000Y-110760000D01*
X103289000Y-111395000D02*
X103924000Y-110760000D01*
X99987000Y-111395000D02*
X103289000Y-111395000D01*
X120307000Y-111014000D02*
X122466000Y-111014000D01*
X122810001Y-111358001D02*
X123592273Y-111358001D01*
X123592273Y-111358001D02*
X124180319Y-110769955D01*
X129714955Y-110769955D02*
X130340000Y-111395000D01*
X124180319Y-110769955D02*
X129714955Y-110769955D01*
X122466000Y-111014000D02*
X122810001Y-111358001D01*
X123933001Y-138093499D02*
X123697000Y-138329500D01*
X126240500Y-130332000D02*
X123933001Y-132639499D01*
X123933001Y-132639499D02*
X123933001Y-138093499D01*
X126240500Y-128109500D02*
X126240500Y-130332000D01*
X93189002Y-90197000D02*
X93189002Y-89487002D01*
X93189002Y-89487002D02*
X92756000Y-89054000D01*
X94195001Y-91202999D02*
X93189002Y-90197000D01*
X94195001Y-91932999D02*
X94195001Y-91202999D01*
X93391000Y-92737000D02*
X94195001Y-91932999D01*
X93391000Y-96547000D02*
X93391000Y-92737000D01*
X86533000Y-95658000D02*
X88311000Y-95658000D01*
X85644000Y-96547000D02*
X86533000Y-95658000D01*
X81326000Y-96547000D02*
X80437000Y-95658000D01*
X85644000Y-96547000D02*
X81326000Y-96547000D01*
X91052998Y-95658000D02*
X91941998Y-96547000D01*
X88311000Y-95658000D02*
X91052998Y-95658000D01*
X91941998Y-96547000D02*
X93391000Y-96547000D01*
X110999010Y-118470010D02*
X106972000Y-118470010D01*
X117005000Y-118634000D02*
X111163000Y-118634000D01*
X111163000Y-118634000D02*
X110999010Y-118470010D01*
X122666512Y-118380000D02*
X122820598Y-118225914D01*
X117259000Y-118380000D02*
X119804912Y-118380000D01*
X119958998Y-118225914D02*
X120655002Y-118225914D01*
X117005000Y-118634000D02*
X117259000Y-118380000D01*
X120655002Y-118225914D02*
X120809088Y-118380000D01*
X122820598Y-118225914D02*
X123889402Y-118225914D01*
X120809088Y-118380000D02*
X122666512Y-118380000D01*
X119804912Y-118380000D02*
X119958998Y-118225914D01*
X123889402Y-118225914D02*
X124006490Y-118343002D01*
X124006490Y-118343002D02*
X126493010Y-118343002D01*
X106727962Y-118225972D02*
X106972000Y-118470010D01*
X96558000Y-118761000D02*
X97320000Y-117999000D01*
X103670000Y-117999000D02*
X103896972Y-118225972D01*
X103896972Y-118225972D02*
X106727962Y-118225972D01*
X97320000Y-117999000D02*
X103670000Y-117999000D01*
X131892000Y-134078500D02*
X131892000Y-132999000D01*
X131892000Y-132999000D02*
X130145750Y-131252750D01*
X130145750Y-131252750D02*
X130114000Y-131221000D01*
X83866000Y-99595000D02*
X83427010Y-100033990D01*
X83427010Y-100033990D02*
X81562992Y-100033990D01*
X80437000Y-98907998D02*
X80437000Y-98706000D01*
X81562992Y-100033990D02*
X80437000Y-98907998D01*
X91697999Y-99552999D02*
X91740000Y-99595000D01*
X83866000Y-99595000D02*
X84304990Y-100033990D01*
X87364010Y-100033990D02*
X87676000Y-99722000D01*
X84304990Y-100033990D02*
X87364010Y-100033990D01*
X87900999Y-99497001D02*
X91642001Y-99497001D01*
X91642001Y-99497001D02*
X91740000Y-99595000D01*
X87676000Y-99722000D02*
X87900999Y-99497001D01*
X95169000Y-89181000D02*
X95296000Y-89054000D01*
X95169000Y-99139002D02*
X95169000Y-89181000D01*
X94713002Y-99595000D02*
X95169000Y-99139002D01*
X91740000Y-99595000D02*
X94713002Y-99595000D01*
X126022000Y-115205000D02*
X124244000Y-115205000D01*
X124080001Y-115426001D02*
X123666002Y-115840000D01*
X124080001Y-115368999D02*
X124080001Y-115426001D01*
X124244000Y-115205000D02*
X124080001Y-115368999D01*
X123666002Y-115840000D02*
X121323000Y-115840000D01*
X120999990Y-116163010D02*
X119809598Y-116163010D01*
X121323000Y-115840000D02*
X120999990Y-116163010D01*
X119809598Y-116163010D02*
X118851588Y-115205000D01*
X116370000Y-115205000D02*
X116116000Y-115459000D01*
X118851588Y-115205000D02*
X116370000Y-115205000D01*
X126022000Y-115205000D02*
X127165000Y-115205000D01*
X134912000Y-119904000D02*
X133515000Y-121301000D01*
X135383001Y-119432999D02*
X134912000Y-119904000D01*
X134658000Y-115205000D02*
X135383001Y-115930001D01*
X132118000Y-115205000D02*
X134658000Y-115205000D01*
X131196989Y-116126011D02*
X132118000Y-115205000D01*
X135383001Y-115930001D02*
X135383001Y-119432999D01*
X129737011Y-116126011D02*
X131196989Y-116126011D01*
X128816000Y-115205000D02*
X129737011Y-116126011D01*
X127165000Y-115205000D02*
X128816000Y-115205000D01*
X97211999Y-115604999D02*
X100349001Y-115604999D01*
X113633999Y-116036001D02*
X106939676Y-116036001D01*
X114211000Y-115459000D02*
X113633999Y-116036001D01*
X96812000Y-115205000D02*
X97211999Y-115604999D01*
X102850998Y-115840000D02*
X104376528Y-115840000D01*
X102273000Y-115262002D02*
X102850998Y-115840000D01*
X116116000Y-115459000D02*
X114211000Y-115459000D01*
X100349001Y-115604999D02*
X100691998Y-115262002D01*
X105796970Y-115523040D02*
X105829000Y-115491010D01*
X100691998Y-115262002D02*
X102273000Y-115262002D01*
X104376528Y-115840000D02*
X104693488Y-115523040D01*
X106939676Y-116036001D02*
X106394685Y-115491010D01*
X104693488Y-115523040D02*
X105796970Y-115523040D01*
X106394685Y-115491010D02*
X105829000Y-115491010D01*
X97709000Y-89054000D02*
X97836000Y-89054000D01*
X80818000Y-100103000D02*
X81199000Y-100484000D01*
X88057000Y-100484000D02*
X88438000Y-100103000D01*
X81199000Y-100484000D02*
X88057000Y-100484000D01*
X94616413Y-100327999D02*
X95619010Y-99325402D01*
X88662999Y-100327999D02*
X94616413Y-100327999D01*
X88438000Y-100103000D02*
X88662999Y-100327999D01*
X95619010Y-91651990D02*
X95931000Y-91340000D01*
X93602999Y-91509001D02*
X93645000Y-91467000D01*
X92586999Y-91509001D02*
X93602999Y-91509001D01*
X92121000Y-91975000D02*
X92586999Y-91509001D01*
X90851000Y-91975000D02*
X92121000Y-91975000D01*
X90089000Y-92737000D02*
X90851000Y-91975000D01*
X86787000Y-92737000D02*
X90089000Y-92737000D01*
X95619010Y-99325402D02*
X95619010Y-91651990D01*
X96939000Y-112030000D02*
X98971000Y-112030000D01*
X98971000Y-112030000D02*
X99225000Y-112284000D01*
X99225000Y-112284000D02*
X100495000Y-112284000D01*
X100495000Y-112284000D02*
X100622000Y-112157000D01*
X100622000Y-112157000D02*
X103289000Y-112157000D01*
X103289000Y-112157000D02*
X103670000Y-112538000D01*
X103670000Y-112538000D02*
X104559000Y-112538000D01*
X105067000Y-112030000D02*
X106591000Y-112030000D01*
X104559000Y-112538000D02*
X105067000Y-112030000D01*
X106591000Y-112030000D02*
X109258000Y-112030000D01*
X116787999Y-112247001D02*
X117005000Y-112030000D01*
X109475001Y-112247001D02*
X116787999Y-112247001D01*
X109258000Y-112030000D02*
X109475001Y-112247001D01*
X125502017Y-112219966D02*
X125691983Y-112030000D01*
X117005000Y-112030000D02*
X117404999Y-112429999D01*
X124066965Y-112429999D02*
X124276998Y-112219966D01*
X117404999Y-112429999D02*
X124066965Y-112429999D01*
X125691983Y-112030000D02*
X127292000Y-112030000D01*
X124276998Y-112219966D02*
X125502017Y-112219966D01*
X131511000Y-130459000D02*
X133860500Y-128109500D01*
X127637500Y-130459000D02*
X131511000Y-130459000D01*
X120576422Y-134420076D02*
X120576422Y-135224054D01*
X124531749Y-130464749D02*
X120576422Y-134420076D01*
X86956001Y-99002001D02*
X94449989Y-99002001D01*
X94449989Y-99002001D02*
X94618990Y-98833000D01*
X94661000Y-90705000D02*
X94661000Y-98790990D01*
X86660000Y-98706000D02*
X86956001Y-99002001D01*
X94661000Y-98790990D02*
X94618990Y-98833000D01*
X94280000Y-90324000D02*
X94661000Y-90705000D01*
X98979000Y-90451000D02*
X100376000Y-89054000D01*
X95931000Y-90451000D02*
X98979000Y-90451000D01*
X83612000Y-91890010D02*
X83865991Y-92144001D01*
X90045589Y-92144001D02*
X90764600Y-91424990D01*
X90764600Y-91424990D02*
X91732084Y-91424990D01*
X83865991Y-92144001D02*
X90045589Y-92144001D01*
X117831084Y-118950916D02*
X117390660Y-119391340D01*
X120307000Y-118950916D02*
X117831084Y-118950916D01*
X117390660Y-119391340D02*
X110786660Y-119391340D01*
X127218011Y-118652999D02*
X126802999Y-119068011D01*
X130467000Y-118253000D02*
X130067001Y-118652999D01*
X124095088Y-119068011D02*
X123703002Y-118675925D01*
X126802999Y-119068011D02*
X124095088Y-119068011D01*
X123703002Y-118675925D02*
X123006998Y-118675925D01*
X123006998Y-118675925D02*
X122732007Y-118950916D01*
X122732007Y-118950916D02*
X120307000Y-118950916D01*
X130067001Y-118652999D02*
X127218011Y-118652999D01*
X110786660Y-119391340D02*
X110590332Y-119195012D01*
X99987000Y-118761000D02*
X102273000Y-118761000D01*
X106135264Y-119195012D02*
X105891226Y-118950974D01*
X102273000Y-118761000D02*
X102490001Y-118543999D01*
X110590332Y-119195012D02*
X106135264Y-119195012D01*
X103455263Y-118543999D02*
X103862238Y-118950974D01*
X102490001Y-118543999D02*
X103455263Y-118543999D01*
X103862238Y-118950974D02*
X105891226Y-118950974D01*
X113540500Y-137516962D02*
X117508452Y-133549010D01*
X113540500Y-142079500D02*
X113540500Y-137516962D01*
X117513000Y-120158000D02*
X118115949Y-119555051D01*
X119684007Y-119555051D02*
X119804944Y-119675988D01*
X119804944Y-119675988D02*
X123079939Y-119675988D01*
X123079939Y-119675988D02*
X123355000Y-119400927D01*
X118115949Y-119555051D02*
X119684007Y-119555051D01*
X113195000Y-120158000D02*
X117513000Y-120158000D01*
X123472095Y-119518022D02*
X123355000Y-119400927D01*
X133043999Y-118924999D02*
X130753999Y-118924999D01*
X130753999Y-118924999D02*
X130278071Y-119400927D01*
X130278071Y-119400927D02*
X127144498Y-119400927D01*
X127027403Y-119518022D02*
X123472095Y-119518022D01*
X127144498Y-119400927D02*
X127027403Y-119518022D01*
X133515000Y-119396000D02*
X133043999Y-118924999D01*
X110528000Y-120158000D02*
X113195000Y-120158000D01*
X110045988Y-119675988D02*
X110528000Y-120158000D01*
X103035000Y-119269000D02*
X103441988Y-119675988D01*
X103441988Y-119675988D02*
X110045988Y-119675988D01*
X116080500Y-142079500D02*
X116080500Y-137888500D01*
X116080500Y-137888500D02*
X119065000Y-134904000D01*
X119418000Y-117872000D02*
X114338000Y-117872000D01*
X119672000Y-117618000D02*
X119418000Y-117872000D01*
X119672000Y-117618000D02*
X124371000Y-117618000D01*
X131864000Y-118380000D02*
X134023000Y-118380000D01*
X131011999Y-117527999D02*
X131864000Y-118380000D01*
X130118999Y-117527999D02*
X131011999Y-117527999D01*
X129705000Y-117941998D02*
X130118999Y-117527999D01*
X127361998Y-117941998D02*
X129705000Y-117941998D01*
X127038000Y-117618000D02*
X127361998Y-117941998D01*
X124371000Y-117618000D02*
X127038000Y-117618000D01*
X111163000Y-117872000D02*
X111036000Y-117745000D01*
X114338000Y-117872000D02*
X111163000Y-117872000D01*
X111036000Y-117745000D02*
X104440125Y-117745000D01*
X104440125Y-117745000D02*
X104157317Y-117462192D01*
X121859000Y-134755480D02*
X121859000Y-134205500D01*
X118620500Y-137993980D02*
X121859000Y-134755480D01*
X118620500Y-142079500D02*
X118620500Y-137993980D01*
X115481000Y-114697000D02*
X115317001Y-114860999D01*
X119995998Y-115713000D02*
X118979998Y-114697000D01*
X120688000Y-115713000D02*
X119995998Y-115713000D01*
X121323000Y-115078000D02*
X120688000Y-115713000D01*
X115317001Y-114860999D02*
X113448991Y-114860999D01*
X123355000Y-115078000D02*
X121323000Y-115078000D01*
X118979998Y-114697000D02*
X115481000Y-114697000D01*
X113448991Y-114860999D02*
X113322000Y-114987990D01*
X130815001Y-115676001D02*
X132175002Y-114316000D01*
X128885998Y-114443000D02*
X130118999Y-115676001D01*
X126530000Y-114443000D02*
X128885998Y-114443000D01*
X126403000Y-114570000D02*
X126530000Y-114443000D01*
X132175002Y-114316000D02*
X134912000Y-114316000D01*
X123355000Y-115078000D02*
X123863000Y-114570000D01*
X130118999Y-115676001D02*
X130815001Y-115676001D01*
X123863000Y-114570000D02*
X126403000Y-114570000D01*
X105413821Y-114733999D02*
X105074791Y-115073029D01*
X109253187Y-115585990D02*
X108401196Y-114733999D01*
X112724000Y-115585990D02*
X109253187Y-115585990D01*
X105074791Y-115073029D02*
X103166971Y-115073029D01*
X113322000Y-114987990D02*
X112724000Y-115585990D01*
X108401196Y-114733999D02*
X105413821Y-114733999D01*
X103166971Y-115073029D02*
X103162000Y-115078000D01*
X121160500Y-142079500D02*
X121160500Y-137317000D01*
X121160500Y-137317000D02*
X123383000Y-135094500D01*
X110782000Y-111522000D02*
X114084000Y-111522000D01*
X110528000Y-111776000D02*
X110782000Y-111522000D01*
X109835998Y-111776000D02*
X110528000Y-111776000D01*
X109327998Y-111268000D02*
X109835998Y-111776000D01*
X104559000Y-111268000D02*
X109327998Y-111268000D01*
X104051000Y-111776000D02*
X104559000Y-111268000D01*
X133642000Y-111903000D02*
X133242001Y-112302999D01*
X130104999Y-112302999D02*
X129070000Y-111268000D01*
X124365598Y-111494957D02*
X124528321Y-111494957D01*
X114084000Y-111522000D02*
X114301001Y-111304999D01*
X133242001Y-112302999D02*
X130104999Y-112302999D01*
X124052544Y-111808011D02*
X124365598Y-111494957D01*
X119454999Y-111304999D02*
X119958011Y-111808011D01*
X129070000Y-111268000D02*
X124755278Y-111268000D01*
X124755278Y-111268000D02*
X124528321Y-111494957D01*
X119958011Y-111808011D02*
X124052544Y-111808011D01*
X114301001Y-111304999D02*
X119454999Y-111304999D01*
X124589500Y-141190500D02*
X123700500Y-142079500D01*
X124589500Y-133062500D02*
X124589500Y-141190500D01*
X113086999Y-110233001D02*
X113068000Y-110252000D01*
X122828001Y-110233001D02*
X113086999Y-110233001D01*
X123228000Y-110633000D02*
X122828001Y-110233001D01*
X103289000Y-110252000D02*
X102908000Y-110633000D01*
X113068000Y-110252000D02*
X103289000Y-110252000D01*
X128435000Y-108982000D02*
X127097056Y-110319944D01*
X127097056Y-110319944D02*
X123541056Y-110319944D01*
X123541056Y-110319944D02*
X123228000Y-110633000D01*
X127930500Y-140389500D02*
X126240500Y-142079500D01*
X127930500Y-133990500D02*
X127930500Y-140389500D01*
X124879000Y-115967000D02*
X127800000Y-115967000D01*
X128689000Y-116856000D02*
X134658000Y-116856000D01*
X127800000Y-115967000D02*
X128689000Y-116856000D01*
X114719000Y-116221000D02*
X118783000Y-116221000D01*
X118783000Y-116221000D02*
X119175020Y-116613020D01*
X119175020Y-116613020D02*
X123596569Y-116613020D01*
X123596569Y-116613020D02*
X124242589Y-115967000D01*
X124242589Y-115967000D02*
X124879000Y-115967000D01*
X114719000Y-116221000D02*
X114319001Y-116620999D01*
X106540051Y-116620999D02*
X106167093Y-116248041D01*
X114319001Y-116620999D02*
X106540051Y-116620999D01*
X106167093Y-116248041D02*
X105041489Y-116248041D01*
X126812000Y-131348000D02*
X126811998Y-131348000D01*
X128780500Y-142079500D02*
X128780500Y-133316500D01*
X128780500Y-133316500D02*
X126812000Y-131348000D01*
X134785000Y-111972998D02*
X133096003Y-110284001D01*
X132277001Y-110284001D02*
X132531001Y-110284001D01*
X130975000Y-108982000D02*
X132277001Y-110284001D01*
X132531001Y-110284001D02*
X132150001Y-110284001D01*
X133096003Y-110284001D02*
X132531001Y-110284001D01*
X104298765Y-113300000D02*
X104686000Y-113300000D01*
X114174001Y-112755001D02*
X114465000Y-113046000D01*
X105230999Y-112755001D02*
X114174001Y-112755001D01*
X104686000Y-113300000D02*
X105230999Y-112755001D01*
X134785000Y-113046000D02*
X134785000Y-111972998D01*
X124059315Y-112944968D02*
X124625000Y-112944968D01*
X114465000Y-113046000D02*
X114720157Y-112790843D01*
X116321740Y-112790843D02*
X116475865Y-112944968D01*
X116475865Y-112944968D02*
X124059315Y-112944968D01*
X114720157Y-112790843D02*
X116321740Y-112790843D01*
X134785000Y-113046000D02*
X126951184Y-113046000D01*
X125413426Y-112944968D02*
X124625000Y-112944968D01*
X126951184Y-113046000D02*
X126479791Y-112574607D01*
X126479791Y-112574607D02*
X125783787Y-112574607D01*
X125783787Y-112574607D02*
X125413426Y-112944968D01*
X131320500Y-142079500D02*
X131320500Y-135488093D01*
X131320500Y-135488093D02*
X129330510Y-133498103D01*
X123990000Y-116856000D02*
X126149000Y-116856000D01*
X115989000Y-117110000D02*
X123736000Y-117110000D01*
X123736000Y-117110000D02*
X123990000Y-116856000D01*
X105955946Y-117110000D02*
X105829000Y-116983054D01*
X115989000Y-117110000D02*
X105955946Y-117110000D01*
X104497129Y-116729000D02*
X104751183Y-116983054D01*
X95542000Y-116729000D02*
X104497129Y-116729000D01*
X104751183Y-116983054D02*
X105829000Y-116983054D01*
X114092000Y-100230000D02*
X110372824Y-100230000D01*
X110372824Y-100230000D02*
X110107802Y-99964978D01*
X110107802Y-99964978D02*
X105337200Y-99964978D01*
X105337200Y-99964978D02*
X105141189Y-100160989D01*
X100630000Y-100230000D02*
X99233000Y-101627000D01*
X103168589Y-100230000D02*
X100630000Y-100230000D01*
X105141189Y-100160989D02*
X103237600Y-100160989D01*
X99233000Y-101627000D02*
X99233000Y-102262000D01*
X103237600Y-100160989D02*
X103168589Y-100230000D01*
X105523600Y-100414989D02*
X105327589Y-100611000D01*
X111679000Y-100865000D02*
X110371413Y-100865000D01*
X105327589Y-100611000D02*
X103424000Y-100611000D01*
X109921402Y-100414989D02*
X105523600Y-100414989D01*
X103424000Y-100611000D02*
X101773000Y-102262000D01*
X110371413Y-100865000D02*
X109921402Y-100414989D01*
X113721001Y-101415001D02*
X110285003Y-101415001D01*
X109735002Y-100865000D02*
X105710000Y-100865000D01*
X105710000Y-100865000D02*
X104313000Y-102262000D01*
X114779002Y-100357000D02*
X113721001Y-101415001D01*
X121966000Y-100357000D02*
X114779002Y-100357000D01*
X110285003Y-101415001D02*
X109735002Y-100865000D01*
X109393000Y-102262000D02*
X113584000Y-102262000D01*
X114811990Y-101034010D02*
X123109000Y-101034010D01*
X113584000Y-102262000D02*
X114811990Y-101034010D01*
X130410802Y-101034010D02*
X125649000Y-101034010D01*
X130729000Y-101034010D02*
X130410802Y-101034010D01*
X98979000Y-92483000D02*
X103297000Y-92483000D01*
X103297000Y-92483000D02*
X107615000Y-92483000D01*
X107615000Y-92483000D02*
X110155000Y-92483000D01*
X110155000Y-92483000D02*
X111044000Y-91594000D01*
X111044000Y-90197000D02*
X111044000Y-91594000D01*
X112187000Y-89054000D02*
X111044000Y-90197000D01*
X116759000Y-89054000D02*
X112187000Y-89054000D01*
X102873999Y-95107999D02*
X103297000Y-95531000D01*
X99402001Y-95107999D02*
X102873999Y-95107999D01*
X98979000Y-95531000D02*
X99402001Y-95107999D01*
X103297000Y-95531000D02*
X103720001Y-95107999D01*
X107318999Y-95107999D02*
X107615000Y-95404000D01*
X103720001Y-95107999D02*
X107318999Y-95107999D01*
X107911001Y-95107999D02*
X107615000Y-95404000D01*
X108292001Y-95107999D02*
X108419001Y-95107999D01*
X108419001Y-95107999D02*
X107911001Y-95107999D01*
X112173991Y-94528009D02*
X112173991Y-92326999D01*
X119299000Y-89054000D02*
X117775000Y-90578000D01*
X112173991Y-92326999D02*
X112398990Y-92102000D01*
X108419001Y-95107999D02*
X111594001Y-95107999D01*
X112398990Y-91255010D02*
X112398990Y-92102000D01*
X111594001Y-95107999D02*
X112173991Y-94528009D01*
X113076000Y-90578000D02*
X112398990Y-91255010D01*
X117775000Y-90578000D02*
X113076000Y-90578000D01*
X103424000Y-98579000D02*
X103551000Y-98452000D01*
X99233000Y-98579000D02*
X103424000Y-98579000D01*
X111895947Y-98414947D02*
X107996000Y-98414947D01*
X112060000Y-98579000D02*
X111895947Y-98414947D01*
X103551000Y-98452000D02*
X103588053Y-98414947D01*
X103588053Y-98414947D02*
X107996000Y-98414947D01*
X122347000Y-91086000D02*
X124379000Y-89054000D01*
X113711000Y-91086000D02*
X122347000Y-91086000D01*
X112949000Y-93171412D02*
X112949000Y-91848000D01*
X112695000Y-93425412D02*
X112949000Y-93171412D01*
X112695000Y-99024198D02*
X112695000Y-93425412D01*
X112124198Y-99595000D02*
X112695000Y-99024198D01*
X112949000Y-91848000D02*
X113711000Y-91086000D01*
X111806000Y-99595000D02*
X112124198Y-99595000D01*
X98725000Y-99468000D02*
X99031953Y-99161047D01*
X99031953Y-99161047D02*
X103041825Y-99161047D01*
X111806000Y-99595000D02*
X111075966Y-98864966D01*
X109001998Y-98864966D02*
X108902007Y-98964957D01*
X111075966Y-98864966D02*
X109001998Y-98864966D01*
X103041825Y-99161047D02*
X103141895Y-99060977D01*
X103141895Y-99060977D02*
X107264980Y-99060977D01*
X108902007Y-98964957D02*
X107361000Y-98964957D01*
X107264980Y-99060977D02*
X107361000Y-98964957D01*
X96312000Y-100230000D02*
X99861402Y-100230000D01*
X99861402Y-100230000D02*
X100305452Y-99785950D01*
X100305452Y-99785950D02*
X100311413Y-99779989D01*
X102982189Y-99779989D02*
X103051200Y-99710978D01*
X100311413Y-99779989D02*
X102982189Y-99779989D01*
X103051200Y-99710978D02*
X104721001Y-99710978D01*
X104721001Y-99710978D02*
X104821000Y-99610979D01*
X109166001Y-99514967D02*
X109266000Y-99414968D01*
X104917012Y-99514967D02*
X109166001Y-99514967D01*
X104821000Y-99610979D02*
X104917012Y-99514967D01*
X97201000Y-94515000D02*
X101519000Y-94515000D01*
X101519000Y-94515000D02*
X105837000Y-94515000D01*
X105837000Y-94515000D02*
X110155000Y-94515000D01*
X110155000Y-94515000D02*
X111594001Y-93075999D01*
X111594001Y-91805999D02*
X111806000Y-91594000D01*
X111594001Y-93075999D02*
X111594001Y-91805999D01*
X100079999Y-96081001D02*
X100503000Y-95658000D01*
X96608001Y-96081001D02*
X100079999Y-96081001D01*
X96185000Y-95658000D02*
X96608001Y-96081001D01*
X100926001Y-96081001D02*
X104397999Y-96081001D01*
X104397999Y-96081001D02*
X104821000Y-95658000D01*
X100503000Y-95658000D02*
X100926001Y-96081001D01*
X108969999Y-95954001D02*
X109266000Y-95658000D01*
X105117001Y-95954001D02*
X108969999Y-95954001D01*
X104821000Y-95658000D02*
X105117001Y-95954001D01*
X104694000Y-87657000D02*
X130602000Y-87657000D01*
X100418001Y-91932999D02*
X104694000Y-87657000D01*
X97878001Y-91932999D02*
X100418001Y-91932999D01*
X96185000Y-93626000D02*
X97878001Y-91932999D01*
X130602000Y-87657000D02*
X131999000Y-89054000D01*
X96185000Y-95658000D02*
X96185000Y-93626000D01*
X116251000Y-92483000D02*
X120696000Y-92483000D01*
X120696000Y-92483000D02*
X125014000Y-92483000D01*
X125014000Y-92483000D02*
X129332000Y-92483000D01*
X129332000Y-92483000D02*
X133650000Y-92483000D01*
X115235000Y-94642000D02*
X119553000Y-94642000D01*
X123998000Y-94515000D02*
X128316000Y-94515000D01*
X132634000Y-94515000D02*
X132761000Y-94642000D01*
X128316000Y-94515000D02*
X132634000Y-94515000D01*
X119553000Y-94642000D02*
X121458000Y-94642000D01*
X123871000Y-94642000D02*
X123998000Y-94515000D01*
X121458000Y-94642000D02*
X123871000Y-94642000D01*
X116759000Y-98452000D02*
X121077000Y-98452000D01*
X121077000Y-98452000D02*
X125395000Y-98452000D01*
X134158000Y-98452000D02*
X129498327Y-98452000D01*
X129335653Y-98452000D02*
X129416990Y-98533337D01*
X125395000Y-98452000D02*
X129335653Y-98452000D01*
X129498327Y-98452000D02*
X129416990Y-98533337D01*
X116251000Y-99044990D02*
X120569000Y-99044990D01*
X120569000Y-99044990D02*
X124887000Y-99044990D01*
X124887000Y-100357000D02*
X124379000Y-100865000D01*
X132761000Y-100357000D02*
X124887000Y-100357000D01*
X124379000Y-100865000D02*
X124379000Y-102262000D01*
X133650000Y-99468000D02*
X132761000Y-100357000D01*
X129198567Y-99044990D02*
X129331245Y-99177668D01*
X124887000Y-99044990D02*
X129198567Y-99044990D01*
X133359668Y-99177668D02*
X129331245Y-99177668D01*
X133650000Y-99468000D02*
X133359668Y-99177668D01*
X118156000Y-99595000D02*
X117902000Y-99595000D01*
X122220000Y-99595000D02*
X118156000Y-99595000D01*
X113512853Y-99595000D02*
X113427863Y-99679990D01*
X117902000Y-99595000D02*
X113512853Y-99595000D01*
X130791802Y-99806990D02*
X126665000Y-99806990D01*
X131110000Y-99806990D02*
X130791802Y-99806990D01*
X126453010Y-99595000D02*
X126665000Y-99806990D01*
X122220000Y-99595000D02*
X126453010Y-99595000D01*
X130559999Y-96208001D02*
X126961001Y-96208001D01*
X126961001Y-96208001D02*
X126538000Y-95785000D01*
X130983000Y-95785000D02*
X130559999Y-96208001D01*
X122643001Y-96208001D02*
X122220000Y-95785000D01*
X126114999Y-96208001D02*
X122643001Y-96208001D01*
X126538000Y-95785000D02*
X126114999Y-96208001D01*
X118325001Y-96208001D02*
X117902000Y-95785000D01*
X121796999Y-96208001D02*
X118325001Y-96208001D01*
X122220000Y-95785000D02*
X121796999Y-96208001D01*
X114134001Y-96208001D02*
X113457000Y-95531000D01*
X117478999Y-96208001D02*
X114134001Y-96208001D01*
X117902000Y-95785000D02*
X117478999Y-96208001D01*
X120145999Y-95234999D02*
X120569000Y-95658000D01*
X116547001Y-95234999D02*
X120145999Y-95234999D01*
X116124000Y-95658000D02*
X116547001Y-95234999D01*
X124463999Y-95234999D02*
X124887000Y-95658000D01*
X120992001Y-95234999D02*
X124463999Y-95234999D01*
X120569000Y-95658000D02*
X120992001Y-95234999D01*
X128781999Y-95234999D02*
X129205000Y-95658000D01*
X125310001Y-95234999D02*
X128781999Y-95234999D01*
X124887000Y-95658000D02*
X125310001Y-95234999D01*
X133226999Y-95234999D02*
X133650000Y-95658000D01*
X129628001Y-95234999D02*
X133226999Y-95234999D01*
X129205000Y-95658000D02*
X129628001Y-95234999D01*
X131999000Y-102262000D02*
X133777000Y-102262000D01*
X133777000Y-102262000D02*
X135047000Y-100992000D01*
X135047000Y-97055000D02*
X133650000Y-95658000D01*
X135047000Y-100992000D02*
X135047000Y-97055000D01*
D15*
X93637000Y-111522000D02*
X94145000Y-111014000D01*
X93637000Y-115141500D02*
X93637000Y-111522000D01*
X94145000Y-111014000D02*
X95669000Y-111014000D01*
X95923000Y-111014000D02*
X95669000Y-111014000D01*
X97955000Y-108982000D02*
X95923000Y-111014000D01*
X93637000Y-118253000D02*
X94716500Y-119332500D01*
D14*
X94716500Y-119332500D02*
X94722011Y-119338011D01*
D15*
X95986500Y-119332500D02*
X95732500Y-119332500D01*
X97955000Y-121301000D02*
X95986500Y-119332500D01*
X94716500Y-119332500D02*
X95732500Y-119332500D01*
M02*
