M48
; DRILL file {KiCad (5.1.9)-1} date 05/14/21 22:38:41
; FORMAT={-:-/ absolute / inch / decimal}
; #@! TF.CreationDate,2021-05-14T22:38:41-04:00
; #@! TF.GenerationSoftware,Kicad,Pcbnew,(5.1.9)-1
; #@! TF.FileFunction,Plated,1,2,PTH
FMAT,2
INCH
T1C0.0079
T2C0.0157
T3C0.0394
%
G90
G05
T1
X3.1268Y-3.6511
X3.1268Y-3.8611
X3.1318Y-3.7661
X3.1618Y-3.6061
X3.1668Y-3.7661
X3.1668Y-3.8861
X3.1818Y-3.9411
X3.2018Y-3.5711
X3.2868Y-3.8761
X3.2918Y-3.6177
X3.3018Y-3.7611
X3.3018Y-3.9211
X3.3268Y-3.6861
X3.3518Y-3.5861
X3.3718Y-3.8011
X3.4118Y-3.8861
X3.4168Y-3.6511
X3.4518Y-3.6761
X3.4518Y-3.9261
X3.4568Y-3.8761
X3.4718Y-3.6061
X3.4768Y-3.7661
X3.4818Y-3.9411
X3.5168Y-3.5861
X3.5968Y-3.6477
X3.6018Y-3.8711
X3.6115Y-3.5994
X3.6118Y-3.7611
X3.6118Y-3.9211
X3.6393Y-3.6861
X3.6418Y-3.5811
X3.6768Y-3.8011
X3.6868Y-3.6011
X3.7118Y-3.5561
X3.7252Y-3.8911
X3.7768Y-3.5611
X3.7768Y-3.5961
X3.7868Y-3.7661
X3.7918Y-3.9461
X3.8268Y-3.7211
X3.8868Y-3.9161
X3.8968Y-3.6411
X3.8968Y-3.7611
X3.9068Y-3.8811
X3.949Y-3.9286
X3.9568Y-3.7661
X3.9968Y-3.7211
X4.0568Y-3.904
X4.0668Y-3.6411
X4.0668Y-3.7611
X4.0768Y-3.8761
X4.1268Y-3.7661
X4.1268Y-3.9217
X4.1668Y-3.7211
X4.2268Y-3.8963
X4.2368Y-3.6411
X4.2368Y-3.7561
X4.2518Y-3.8746
X4.3018Y-3.7661
X4.3018Y-3.914
X4.3368Y-3.7211
X4.3718Y-3.6061
X4.3968Y-3.9711
X4.4018Y-3.6061
X4.4018Y-3.9211
X4.4118Y-3.8811
X4.4252Y-3.6261
X4.4657Y-3.9244
X4.4668Y-3.7611
X4.4918Y-3.9461
X4.5368Y-3.7261
X4.5451Y-5.1712
X4.5718Y-3.7661
X4.5768Y-3.6411
X4.5768Y-3.8994
X4.5968Y-3.8761
X4.6076Y-5.3262
X4.6263Y-5.2578
X4.6418Y-3.7711
X4.6418Y-3.9211
X4.6876Y-5.3112
X4.7068Y-3.7261
X4.7076Y-5.2362
X4.7468Y-3.7661
X4.7468Y-3.8994
X4.7471Y-5.3238
X4.7518Y-3.6411
X4.7668Y-3.8761
X4.7818Y-3.7261
X4.7976Y-5.2837
X4.8018Y-3.9511
X4.8118Y-3.7711
X4.8118Y-3.9211
X4.8468Y-3.9777
X4.8576Y-5.3187
X4.87Y-5.446
X4.8818Y-3.7211
X4.9028Y-5.1364
X4.9051Y-5.2387
X4.9168Y-3.7661
X4.9168Y-3.8994
X4.9218Y-3.6411
X4.9368Y-3.8761
X4.9468Y-3.9777
X4.9818Y-3.7711
X4.9868Y-3.9294
X4.9926Y-5.1712
X5.0251Y-5.1362
X5.0366Y-5.2752
X5.0518Y-3.7211
X5.0868Y-3.7661
X5.0918Y-5.2558
X5.0918Y-3.9046
X5.0918Y-3.6411
X5.0952Y-3.8793
X5.1238Y-5.1674
X5.1468Y-3.9777
X5.1568Y-3.7711
X5.1618Y-3.9294
X5.1926Y-5.2787
X5.2268Y-3.7261
X5.2618Y-3.6411
X5.2618Y-3.7661
X5.2618Y-3.9161
X5.2818Y-3.8761
T2
X3.6865Y-4.5331
X3.6865Y-4.6556
X3.7615Y-4.5956
X3.7665Y-4.4656
X3.8015Y-4.6756
X3.8115Y-4.5356
X3.8165Y-4.4106
X3.9365Y-4.3856
X3.9365Y-4.5221
X3.9365Y-4.6756
X4.0515Y-4.3556
X4.0565Y-4.6956
X4.0615Y-4.5306
X4.0965Y-4.4006
X4.1007Y-4.6245
X4.1063Y-4.4606
X4.1355Y-4.5767
X4.165Y-4.4691
X4.1665Y-4.5469
X4.1665Y-4.6056
X4.1689Y-4.6831
X4.1965Y-4.4106
X4.2115Y-4.6642
X4.3365Y-4.3706
X4.3365Y-4.5221
X4.3365Y-4.7556
X4.3617Y-4.7004
X4.4515Y-4.3406
X4.4565Y-4.7306
X4.4615Y-4.5271
X4.4915Y-4.3906
X4.5015Y-4.6406
X4.5065Y-4.4506
X4.5165Y-4.5756
X4.5659Y-4.4691
X4.5665Y-4.6106
X4.5715Y-4.5456
X4.6065Y-4.4106
X4.6065Y-4.6706
X4.6765Y-4.7354
X4.7365Y-4.3706
X4.7365Y-4.5256
X4.7365Y-4.6831
X4.8515Y-4.3556
X4.8565Y-4.5306
X4.8565Y-4.7008
X4.8965Y-4.6306
X4.9027Y-4.3896
X4.9065Y-4.4467
X4.9165Y-4.5656
X4.9658Y-4.4606
X4.9665Y-4.6006
X4.98Y-4.6592
X5.0065Y-4.5356
X5.0115Y-4.4106
X5.1315Y-4.3856
X5.1365Y-4.5256
X5.1365Y-4.6556
X5.1615Y-4.7106
X5.2565Y-4.7006
X5.2615Y-4.4056
X5.2765Y-4.6606
X5.3015Y-4.6006
X5.3065Y-4.4506
X5.3115Y-4.5006
T3
X3.2518Y-3.5061
X3.2518Y-4.0261
X3.3518Y-3.5061
X3.3518Y-4.0261
X3.4518Y-3.5061
X3.4518Y-4.0261
X3.5518Y-3.5061
X3.5518Y-4.0261
X3.6518Y-3.5061
X3.7518Y-3.5061
X3.7565Y-4.2906
X3.7565Y-4.7756
X3.8518Y-3.5061
X3.8565Y-4.2906
X3.8565Y-4.7756
X3.9068Y-4.0261
X3.9518Y-3.5061
X3.9565Y-4.2906
X3.9565Y-4.7756
X4.0068Y-4.0261
X4.0565Y-4.2906
X4.0565Y-4.7756
X4.1068Y-4.0261
X4.1565Y-4.2906
X4.1565Y-4.7756
X4.2068Y-4.0261
X4.2565Y-4.2906
X4.2565Y-4.7756
X4.3068Y-4.0261
X4.4701Y-5.0437
X4.4701Y-5.5937
X4.5701Y-5.0437
X4.5701Y-5.5937
X4.5968Y-3.5061
X4.5968Y-4.0261
X4.6701Y-5.0437
X4.6701Y-5.5937
X4.6968Y-3.5061
X4.6968Y-4.0261
X4.7565Y-4.2906
X4.7565Y-4.7756
X4.7701Y-5.0437
X4.7701Y-5.5937
X4.7968Y-3.5061
X4.7968Y-4.0261
X4.8565Y-4.2906
X4.8565Y-4.7756
X4.8701Y-5.0437
X4.8701Y-5.5937
X4.8968Y-3.5061
X4.8968Y-4.0261
X4.9565Y-4.2906
X4.9565Y-4.7756
X4.9701Y-5.0437
X4.9701Y-5.5937
X4.9968Y-3.5061
X4.9968Y-4.0261
X5.0565Y-4.2906
X5.0565Y-4.7756
X5.0701Y-5.0437
X5.0701Y-5.5937
X5.0968Y-3.5061
X5.0968Y-4.0261
X5.1565Y-4.2906
X5.1565Y-4.7756
X5.1701Y-5.0437
X5.1701Y-5.5937
X5.1968Y-3.5061
X5.1968Y-4.0261
X5.2565Y-4.2906
X5.2565Y-4.7756
X5.2701Y-5.0437
X5.2701Y-5.5937
T0
M30
