M48
; DRILL file {KiCad (5.1.9)-1} date 05/14/21 23:19:00
; FORMAT={-:-/ absolute / inch / decimal}
; #@! TF.CreationDate,2021-05-14T23:19:00-04:00
; #@! TF.GenerationSoftware,Kicad,Pcbnew,(5.1.9)-1
; #@! TF.FileFunction,NonPlated,1,2,NPTH
FMAT,2
INCH
T1C0.0197
T2C0.1575
%
G90
G05
T1
X3.937Y-2.437
X3.9464Y-3.8282
X3.966Y-2.4345
X3.9715Y-3.8297
X3.9936Y-2.4345
X3.999Y-3.8297
X4.0212Y-2.4345
X4.0266Y-3.8297
X4.0472Y-2.4331
X4.0527Y-3.8282
X4.0748Y-2.4331
X4.0802Y-3.8282
X4.1024Y-2.4331
X4.1078Y-3.8282
X4.1319Y-2.4331
X4.1319Y-3.8268
X4.1614Y-2.4331
X4.1614Y-3.8268
X4.1909Y-2.4331
X4.1909Y-3.8268
X4.2205Y-2.3445
X4.2205Y-2.374
X4.2205Y-2.4035
X4.2205Y-2.4567
X4.2205Y-2.4862
X4.2205Y-2.5157
X4.2205Y-3.7441
X4.2205Y-3.7736
X4.2205Y-3.8031
X4.2205Y-3.8563
X4.2205Y-3.8858
X4.2205Y-3.9154
X4.2219Y-2.9956
X4.2219Y-3.0251
X4.2219Y-3.0546
X4.2219Y-3.1294
X4.2219Y-3.2042
X4.2219Y-3.2337
X4.2219Y-3.2633
X4.2441Y-2.4331
X4.2441Y-3.8268
X4.2456Y-3.0782
X4.2456Y-3.1806
X4.2736Y-2.4331
X4.2736Y-3.8268
X4.2751Y-3.0782
X4.2751Y-3.1806
X4.3031Y-2.4331
X4.3031Y-3.8268
X4.3046Y-3.0782
X4.3046Y-3.1806
X4.7515Y-3.8243
X4.7515Y-3.9267
X4.753Y-2.3322
X4.753Y-2.4345
X4.7776Y-3.0787
X4.7776Y-3.1811
X4.781Y-3.8243
X4.781Y-3.9267
X4.7825Y-2.3322
X4.7825Y-2.4345
X4.8071Y-3.0787
X4.8071Y-3.1811
X4.8105Y-3.8243
X4.8105Y-3.9267
X4.812Y-2.3322
X4.812Y-2.4345
X4.8366Y-3.0787
X4.8366Y-3.1811
X5.3169Y-3.0787
X5.3169Y-3.1811
X5.3465Y-3.0787
X5.3465Y-3.1811
X5.3524Y-3.8243
X5.3524Y-3.9267
X5.3538Y-2.3322
X5.3538Y-2.4345
X5.376Y-3.0787
X5.376Y-3.1811
X5.3819Y-3.8243
X5.3819Y-3.9267
X5.3834Y-2.3322
X5.3834Y-2.4345
X5.4114Y-3.8243
X5.4114Y-3.9267
X5.4129Y-2.3322
X5.4129Y-2.4345
X5.8465Y-2.4331
X5.8465Y-3.0787
X5.8465Y-3.1811
X5.8465Y-3.8228
X5.876Y-2.4331
X5.876Y-3.0787
X5.876Y-3.1811
X5.876Y-3.8228
X5.9055Y-2.4331
X5.9055Y-3.0787
X5.9055Y-3.1811
X5.9055Y-3.8228
X5.9291Y-2.3445
X5.9291Y-2.374
X5.9291Y-2.4035
X5.9291Y-2.4567
X5.9291Y-2.4862
X5.9291Y-2.5157
X5.9291Y-2.9961
X5.9291Y-3.0256
X5.9291Y-3.0551
X5.9291Y-3.1299
X5.9291Y-3.2047
X5.9291Y-3.2343
X5.9291Y-3.2638
X5.9291Y-3.7402
X5.9291Y-3.7697
X5.9291Y-3.7992
X5.9291Y-3.8524
X5.9291Y-3.8819
X5.9291Y-3.9114
X5.9587Y-2.4331
X5.9587Y-3.8228
X5.9882Y-2.4331
X5.9882Y-3.8228
X6.0177Y-2.4331
X6.0177Y-3.8228
X6.0448Y-2.4345
X6.0448Y-3.8243
X6.0723Y-2.4345
X6.0723Y-3.8243
X6.0999Y-2.4345
X6.0999Y-3.8243
X6.126Y-2.4331
X6.126Y-3.8228
X6.1535Y-2.4331
X6.1535Y-3.8228
X6.1811Y-2.4331
X6.1811Y-3.8228
X6.2062Y-2.4306
X6.2062Y-3.8243
X6.2338Y-2.4306
X6.2338Y-3.8243
T2
X4.3307Y-2.126
X5.8268Y-2.126
T0
M30
