G04 #@! TF.GenerationSoftware,KiCad,Pcbnew,(5.1.9)-1*
G04 #@! TF.CreationDate,2021-05-14T23:18:57-04:00*
G04 #@! TF.ProjectId,2xOPT Panelized,32784f50-5420-4506-916e-656c697a6564,rev?*
G04 #@! TF.SameCoordinates,Original*
G04 #@! TF.FileFunction,Paste,Top*
G04 #@! TF.FilePolarity,Positive*
%FSLAX46Y46*%
G04 Gerber Fmt 4.6, Leading zero omitted, Abs format (unit mm)*
G04 Created by KiCad (PCBNEW (5.1.9)-1) date 2021-05-14 23:18:57*
%MOMM*%
%LPD*%
G01*
G04 APERTURE LIST*
%ADD10C,4.000000*%
G04 APERTURE END LIST*
D10*
X148000000Y-54000000D03*
X110000000Y-54000000D03*
G36*
G01*
X111171000Y-68611000D02*
X111516000Y-68611000D01*
G75*
G02*
X111663500Y-68758500I0J-147500D01*
G01*
X111663500Y-69053500D01*
G75*
G02*
X111516000Y-69201000I-147500J0D01*
G01*
X111171000Y-69201000D01*
G75*
G02*
X111023500Y-69053500I0J147500D01*
G01*
X111023500Y-68758500D01*
G75*
G02*
X111171000Y-68611000I147500J0D01*
G01*
G37*
G36*
G01*
X111171000Y-67641000D02*
X111516000Y-67641000D01*
G75*
G02*
X111663500Y-67788500I0J-147500D01*
G01*
X111663500Y-68083500D01*
G75*
G02*
X111516000Y-68231000I-147500J0D01*
G01*
X111171000Y-68231000D01*
G75*
G02*
X111023500Y-68083500I0J147500D01*
G01*
X111023500Y-67788500D01*
G75*
G02*
X111171000Y-67641000I147500J0D01*
G01*
G37*
G36*
G01*
X111516000Y-71406000D02*
X111171000Y-71406000D01*
G75*
G02*
X111023500Y-71258500I0J147500D01*
G01*
X111023500Y-70963500D01*
G75*
G02*
X111171000Y-70816000I147500J0D01*
G01*
X111516000Y-70816000D01*
G75*
G02*
X111663500Y-70963500I0J-147500D01*
G01*
X111663500Y-71258500D01*
G75*
G02*
X111516000Y-71406000I-147500J0D01*
G01*
G37*
G36*
G01*
X111516000Y-72376000D02*
X111171000Y-72376000D01*
G75*
G02*
X111023500Y-72228500I0J147500D01*
G01*
X111023500Y-71933500D01*
G75*
G02*
X111171000Y-71786000I147500J0D01*
G01*
X111516000Y-71786000D01*
G75*
G02*
X111663500Y-71933500I0J-147500D01*
G01*
X111663500Y-72228500D01*
G75*
G02*
X111516000Y-72376000I-147500J0D01*
G01*
G37*
G36*
G01*
X113121500Y-67006000D02*
X113121500Y-66661000D01*
G75*
G02*
X113269000Y-66513500I147500J0D01*
G01*
X113564000Y-66513500D01*
G75*
G02*
X113711500Y-66661000I0J-147500D01*
G01*
X113711500Y-67006000D01*
G75*
G02*
X113564000Y-67153500I-147500J0D01*
G01*
X113269000Y-67153500D01*
G75*
G02*
X113121500Y-67006000I0J147500D01*
G01*
G37*
G36*
G01*
X112151500Y-67006000D02*
X112151500Y-66661000D01*
G75*
G02*
X112299000Y-66513500I147500J0D01*
G01*
X112594000Y-66513500D01*
G75*
G02*
X112741500Y-66661000I0J-147500D01*
G01*
X112741500Y-67006000D01*
G75*
G02*
X112594000Y-67153500I-147500J0D01*
G01*
X112299000Y-67153500D01*
G75*
G02*
X112151500Y-67006000I0J147500D01*
G01*
G37*
G36*
G01*
X112919125Y-68164673D02*
X112675173Y-68408625D01*
G75*
G02*
X112466577Y-68408625I-104298J104298D01*
G01*
X112257981Y-68200029D01*
G75*
G02*
X112257981Y-67991433I104298J104298D01*
G01*
X112501933Y-67747481D01*
G75*
G02*
X112710529Y-67747481I104298J-104298D01*
G01*
X112919125Y-67956077D01*
G75*
G02*
X112919125Y-68164673I-104298J-104298D01*
G01*
G37*
G36*
G01*
X113605019Y-68850567D02*
X113361067Y-69094519D01*
G75*
G02*
X113152471Y-69094519I-104298J104298D01*
G01*
X112943875Y-68885923D01*
G75*
G02*
X112943875Y-68677327I104298J104298D01*
G01*
X113187827Y-68433375D01*
G75*
G02*
X113396423Y-68433375I104298J-104298D01*
G01*
X113605019Y-68641971D01*
G75*
G02*
X113605019Y-68850567I-104298J-104298D01*
G01*
G37*
G36*
G01*
X112741500Y-69836000D02*
X112741500Y-70181000D01*
G75*
G02*
X112594000Y-70328500I-147500J0D01*
G01*
X112299000Y-70328500D01*
G75*
G02*
X112151500Y-70181000I0J147500D01*
G01*
X112151500Y-69836000D01*
G75*
G02*
X112299000Y-69688500I147500J0D01*
G01*
X112594000Y-69688500D01*
G75*
G02*
X112741500Y-69836000I0J-147500D01*
G01*
G37*
G36*
G01*
X113711500Y-69836000D02*
X113711500Y-70181000D01*
G75*
G02*
X113564000Y-70328500I-147500J0D01*
G01*
X113269000Y-70328500D01*
G75*
G02*
X113121500Y-70181000I0J147500D01*
G01*
X113121500Y-69836000D01*
G75*
G02*
X113269000Y-69688500I147500J0D01*
G01*
X113564000Y-69688500D01*
G75*
G02*
X113711500Y-69836000I0J-147500D01*
G01*
G37*
G36*
G01*
X112675173Y-71608375D02*
X112919125Y-71852327D01*
G75*
G02*
X112919125Y-72060923I-104298J-104298D01*
G01*
X112710529Y-72269519D01*
G75*
G02*
X112501933Y-72269519I-104298J104298D01*
G01*
X112257981Y-72025567D01*
G75*
G02*
X112257981Y-71816971I104298J104298D01*
G01*
X112466577Y-71608375D01*
G75*
G02*
X112675173Y-71608375I104298J-104298D01*
G01*
G37*
G36*
G01*
X113361067Y-70922481D02*
X113605019Y-71166433D01*
G75*
G02*
X113605019Y-71375029I-104298J-104298D01*
G01*
X113396423Y-71583625D01*
G75*
G02*
X113187827Y-71583625I-104298J104298D01*
G01*
X112943875Y-71339673D01*
G75*
G02*
X112943875Y-71131077I104298J104298D01*
G01*
X113152471Y-70922481D01*
G75*
G02*
X113361067Y-70922481I104298J-104298D01*
G01*
G37*
G36*
G01*
X113121500Y-73356000D02*
X113121500Y-73011000D01*
G75*
G02*
X113269000Y-72863500I147500J0D01*
G01*
X113564000Y-72863500D01*
G75*
G02*
X113711500Y-73011000I0J-147500D01*
G01*
X113711500Y-73356000D01*
G75*
G02*
X113564000Y-73503500I-147500J0D01*
G01*
X113269000Y-73503500D01*
G75*
G02*
X113121500Y-73356000I0J147500D01*
G01*
G37*
G36*
G01*
X112151500Y-73356000D02*
X112151500Y-73011000D01*
G75*
G02*
X112299000Y-72863500I147500J0D01*
G01*
X112594000Y-72863500D01*
G75*
G02*
X112741500Y-73011000I0J-147500D01*
G01*
X112741500Y-73356000D01*
G75*
G02*
X112594000Y-73503500I-147500J0D01*
G01*
X112299000Y-73503500D01*
G75*
G02*
X112151500Y-73356000I0J147500D01*
G01*
G37*
G36*
G01*
X114347000Y-68611000D02*
X114692000Y-68611000D01*
G75*
G02*
X114839500Y-68758500I0J-147500D01*
G01*
X114839500Y-69053500D01*
G75*
G02*
X114692000Y-69201000I-147500J0D01*
G01*
X114347000Y-69201000D01*
G75*
G02*
X114199500Y-69053500I0J147500D01*
G01*
X114199500Y-68758500D01*
G75*
G02*
X114347000Y-68611000I147500J0D01*
G01*
G37*
G36*
G01*
X114347000Y-67641000D02*
X114692000Y-67641000D01*
G75*
G02*
X114839500Y-67788500I0J-147500D01*
G01*
X114839500Y-68083500D01*
G75*
G02*
X114692000Y-68231000I-147500J0D01*
G01*
X114347000Y-68231000D01*
G75*
G02*
X114199500Y-68083500I0J147500D01*
G01*
X114199500Y-67788500D01*
G75*
G02*
X114347000Y-67641000I147500J0D01*
G01*
G37*
G36*
G01*
X114347000Y-71786000D02*
X114692000Y-71786000D01*
G75*
G02*
X114839500Y-71933500I0J-147500D01*
G01*
X114839500Y-72228500D01*
G75*
G02*
X114692000Y-72376000I-147500J0D01*
G01*
X114347000Y-72376000D01*
G75*
G02*
X114199500Y-72228500I0J147500D01*
G01*
X114199500Y-71933500D01*
G75*
G02*
X114347000Y-71786000I147500J0D01*
G01*
G37*
G36*
G01*
X114347000Y-70816000D02*
X114692000Y-70816000D01*
G75*
G02*
X114839500Y-70963500I0J-147500D01*
G01*
X114839500Y-71258500D01*
G75*
G02*
X114692000Y-71406000I-147500J0D01*
G01*
X114347000Y-71406000D01*
G75*
G02*
X114199500Y-71258500I0J147500D01*
G01*
X114199500Y-70963500D01*
G75*
G02*
X114347000Y-70816000I147500J0D01*
G01*
G37*
G36*
G01*
X116296500Y-67006000D02*
X116296500Y-66661000D01*
G75*
G02*
X116444000Y-66513500I147500J0D01*
G01*
X116739000Y-66513500D01*
G75*
G02*
X116886500Y-66661000I0J-147500D01*
G01*
X116886500Y-67006000D01*
G75*
G02*
X116739000Y-67153500I-147500J0D01*
G01*
X116444000Y-67153500D01*
G75*
G02*
X116296500Y-67006000I0J147500D01*
G01*
G37*
G36*
G01*
X115326500Y-67006000D02*
X115326500Y-66661000D01*
G75*
G02*
X115474000Y-66513500I147500J0D01*
G01*
X115769000Y-66513500D01*
G75*
G02*
X115916500Y-66661000I0J-147500D01*
G01*
X115916500Y-67006000D01*
G75*
G02*
X115769000Y-67153500I-147500J0D01*
G01*
X115474000Y-67153500D01*
G75*
G02*
X115326500Y-67006000I0J147500D01*
G01*
G37*
G36*
G01*
X116362827Y-68408625D02*
X116118875Y-68164673D01*
G75*
G02*
X116118875Y-67956077I104298J104298D01*
G01*
X116327471Y-67747481D01*
G75*
G02*
X116536067Y-67747481I104298J-104298D01*
G01*
X116780019Y-67991433D01*
G75*
G02*
X116780019Y-68200029I-104298J-104298D01*
G01*
X116571423Y-68408625D01*
G75*
G02*
X116362827Y-68408625I-104298J104298D01*
G01*
G37*
G36*
G01*
X115676933Y-69094519D02*
X115432981Y-68850567D01*
G75*
G02*
X115432981Y-68641971I104298J104298D01*
G01*
X115641577Y-68433375D01*
G75*
G02*
X115850173Y-68433375I104298J-104298D01*
G01*
X116094125Y-68677327D01*
G75*
G02*
X116094125Y-68885923I-104298J-104298D01*
G01*
X115885529Y-69094519D01*
G75*
G02*
X115676933Y-69094519I-104298J104298D01*
G01*
G37*
G36*
G01*
X116296500Y-70181000D02*
X116296500Y-69836000D01*
G75*
G02*
X116444000Y-69688500I147500J0D01*
G01*
X116739000Y-69688500D01*
G75*
G02*
X116886500Y-69836000I0J-147500D01*
G01*
X116886500Y-70181000D01*
G75*
G02*
X116739000Y-70328500I-147500J0D01*
G01*
X116444000Y-70328500D01*
G75*
G02*
X116296500Y-70181000I0J147500D01*
G01*
G37*
G36*
G01*
X115326500Y-70181000D02*
X115326500Y-69836000D01*
G75*
G02*
X115474000Y-69688500I147500J0D01*
G01*
X115769000Y-69688500D01*
G75*
G02*
X115916500Y-69836000I0J-147500D01*
G01*
X115916500Y-70181000D01*
G75*
G02*
X115769000Y-70328500I-147500J0D01*
G01*
X115474000Y-70328500D01*
G75*
G02*
X115326500Y-70181000I0J147500D01*
G01*
G37*
G36*
G01*
X116118875Y-71852327D02*
X116362827Y-71608375D01*
G75*
G02*
X116571423Y-71608375I104298J-104298D01*
G01*
X116780019Y-71816971D01*
G75*
G02*
X116780019Y-72025567I-104298J-104298D01*
G01*
X116536067Y-72269519D01*
G75*
G02*
X116327471Y-72269519I-104298J104298D01*
G01*
X116118875Y-72060923D01*
G75*
G02*
X116118875Y-71852327I104298J104298D01*
G01*
G37*
G36*
G01*
X115432981Y-71166433D02*
X115676933Y-70922481D01*
G75*
G02*
X115885529Y-70922481I104298J-104298D01*
G01*
X116094125Y-71131077D01*
G75*
G02*
X116094125Y-71339673I-104298J-104298D01*
G01*
X115850173Y-71583625D01*
G75*
G02*
X115641577Y-71583625I-104298J104298D01*
G01*
X115432981Y-71375029D01*
G75*
G02*
X115432981Y-71166433I104298J104298D01*
G01*
G37*
G36*
G01*
X116296500Y-73356000D02*
X116296500Y-73011000D01*
G75*
G02*
X116444000Y-72863500I147500J0D01*
G01*
X116739000Y-72863500D01*
G75*
G02*
X116886500Y-73011000I0J-147500D01*
G01*
X116886500Y-73356000D01*
G75*
G02*
X116739000Y-73503500I-147500J0D01*
G01*
X116444000Y-73503500D01*
G75*
G02*
X116296500Y-73356000I0J147500D01*
G01*
G37*
G36*
G01*
X115326500Y-73356000D02*
X115326500Y-73011000D01*
G75*
G02*
X115474000Y-72863500I147500J0D01*
G01*
X115769000Y-72863500D01*
G75*
G02*
X115916500Y-73011000I0J-147500D01*
G01*
X115916500Y-73356000D01*
G75*
G02*
X115769000Y-73503500I-147500J0D01*
G01*
X115474000Y-73503500D01*
G75*
G02*
X115326500Y-73356000I0J147500D01*
G01*
G37*
G36*
G01*
X117521000Y-68611000D02*
X117866000Y-68611000D01*
G75*
G02*
X118013500Y-68758500I0J-147500D01*
G01*
X118013500Y-69053500D01*
G75*
G02*
X117866000Y-69201000I-147500J0D01*
G01*
X117521000Y-69201000D01*
G75*
G02*
X117373500Y-69053500I0J147500D01*
G01*
X117373500Y-68758500D01*
G75*
G02*
X117521000Y-68611000I147500J0D01*
G01*
G37*
G36*
G01*
X117521000Y-67641000D02*
X117866000Y-67641000D01*
G75*
G02*
X118013500Y-67788500I0J-147500D01*
G01*
X118013500Y-68083500D01*
G75*
G02*
X117866000Y-68231000I-147500J0D01*
G01*
X117521000Y-68231000D01*
G75*
G02*
X117373500Y-68083500I0J147500D01*
G01*
X117373500Y-67788500D01*
G75*
G02*
X117521000Y-67641000I147500J0D01*
G01*
G37*
G36*
G01*
X117866000Y-71406000D02*
X117521000Y-71406000D01*
G75*
G02*
X117373500Y-71258500I0J147500D01*
G01*
X117373500Y-70963500D01*
G75*
G02*
X117521000Y-70816000I147500J0D01*
G01*
X117866000Y-70816000D01*
G75*
G02*
X118013500Y-70963500I0J-147500D01*
G01*
X118013500Y-71258500D01*
G75*
G02*
X117866000Y-71406000I-147500J0D01*
G01*
G37*
G36*
G01*
X117866000Y-72376000D02*
X117521000Y-72376000D01*
G75*
G02*
X117373500Y-72228500I0J147500D01*
G01*
X117373500Y-71933500D01*
G75*
G02*
X117521000Y-71786000I147500J0D01*
G01*
X117866000Y-71786000D01*
G75*
G02*
X118013500Y-71933500I0J-147500D01*
G01*
X118013500Y-72228500D01*
G75*
G02*
X117866000Y-72376000I-147500J0D01*
G01*
G37*
G36*
G01*
X121331000Y-68611000D02*
X121676000Y-68611000D01*
G75*
G02*
X121823500Y-68758500I0J-147500D01*
G01*
X121823500Y-69053500D01*
G75*
G02*
X121676000Y-69201000I-147500J0D01*
G01*
X121331000Y-69201000D01*
G75*
G02*
X121183500Y-69053500I0J147500D01*
G01*
X121183500Y-68758500D01*
G75*
G02*
X121331000Y-68611000I147500J0D01*
G01*
G37*
G36*
G01*
X121331000Y-67641000D02*
X121676000Y-67641000D01*
G75*
G02*
X121823500Y-67788500I0J-147500D01*
G01*
X121823500Y-68083500D01*
G75*
G02*
X121676000Y-68231000I-147500J0D01*
G01*
X121331000Y-68231000D01*
G75*
G02*
X121183500Y-68083500I0J147500D01*
G01*
X121183500Y-67788500D01*
G75*
G02*
X121331000Y-67641000I147500J0D01*
G01*
G37*
G36*
G01*
X121676000Y-71406000D02*
X121331000Y-71406000D01*
G75*
G02*
X121183500Y-71258500I0J147500D01*
G01*
X121183500Y-70963500D01*
G75*
G02*
X121331000Y-70816000I147500J0D01*
G01*
X121676000Y-70816000D01*
G75*
G02*
X121823500Y-70963500I0J-147500D01*
G01*
X121823500Y-71258500D01*
G75*
G02*
X121676000Y-71406000I-147500J0D01*
G01*
G37*
G36*
G01*
X121676000Y-72376000D02*
X121331000Y-72376000D01*
G75*
G02*
X121183500Y-72228500I0J147500D01*
G01*
X121183500Y-71933500D01*
G75*
G02*
X121331000Y-71786000I147500J0D01*
G01*
X121676000Y-71786000D01*
G75*
G02*
X121823500Y-71933500I0J-147500D01*
G01*
X121823500Y-72228500D01*
G75*
G02*
X121676000Y-72376000I-147500J0D01*
G01*
G37*
G36*
G01*
X123281500Y-67006000D02*
X123281500Y-66661000D01*
G75*
G02*
X123429000Y-66513500I147500J0D01*
G01*
X123724000Y-66513500D01*
G75*
G02*
X123871500Y-66661000I0J-147500D01*
G01*
X123871500Y-67006000D01*
G75*
G02*
X123724000Y-67153500I-147500J0D01*
G01*
X123429000Y-67153500D01*
G75*
G02*
X123281500Y-67006000I0J147500D01*
G01*
G37*
G36*
G01*
X122311500Y-67006000D02*
X122311500Y-66661000D01*
G75*
G02*
X122459000Y-66513500I147500J0D01*
G01*
X122754000Y-66513500D01*
G75*
G02*
X122901500Y-66661000I0J-147500D01*
G01*
X122901500Y-67006000D01*
G75*
G02*
X122754000Y-67153500I-147500J0D01*
G01*
X122459000Y-67153500D01*
G75*
G02*
X122311500Y-67006000I0J147500D01*
G01*
G37*
G36*
G01*
X123079125Y-68164673D02*
X122835173Y-68408625D01*
G75*
G02*
X122626577Y-68408625I-104298J104298D01*
G01*
X122417981Y-68200029D01*
G75*
G02*
X122417981Y-67991433I104298J104298D01*
G01*
X122661933Y-67747481D01*
G75*
G02*
X122870529Y-67747481I104298J-104298D01*
G01*
X123079125Y-67956077D01*
G75*
G02*
X123079125Y-68164673I-104298J-104298D01*
G01*
G37*
G36*
G01*
X123765019Y-68850567D02*
X123521067Y-69094519D01*
G75*
G02*
X123312471Y-69094519I-104298J104298D01*
G01*
X123103875Y-68885923D01*
G75*
G02*
X123103875Y-68677327I104298J104298D01*
G01*
X123347827Y-68433375D01*
G75*
G02*
X123556423Y-68433375I104298J-104298D01*
G01*
X123765019Y-68641971D01*
G75*
G02*
X123765019Y-68850567I-104298J-104298D01*
G01*
G37*
G36*
G01*
X122901500Y-69836000D02*
X122901500Y-70181000D01*
G75*
G02*
X122754000Y-70328500I-147500J0D01*
G01*
X122459000Y-70328500D01*
G75*
G02*
X122311500Y-70181000I0J147500D01*
G01*
X122311500Y-69836000D01*
G75*
G02*
X122459000Y-69688500I147500J0D01*
G01*
X122754000Y-69688500D01*
G75*
G02*
X122901500Y-69836000I0J-147500D01*
G01*
G37*
G36*
G01*
X123871500Y-69836000D02*
X123871500Y-70181000D01*
G75*
G02*
X123724000Y-70328500I-147500J0D01*
G01*
X123429000Y-70328500D01*
G75*
G02*
X123281500Y-70181000I0J147500D01*
G01*
X123281500Y-69836000D01*
G75*
G02*
X123429000Y-69688500I147500J0D01*
G01*
X123724000Y-69688500D01*
G75*
G02*
X123871500Y-69836000I0J-147500D01*
G01*
G37*
G36*
G01*
X122835173Y-71608375D02*
X123079125Y-71852327D01*
G75*
G02*
X123079125Y-72060923I-104298J-104298D01*
G01*
X122870529Y-72269519D01*
G75*
G02*
X122661933Y-72269519I-104298J104298D01*
G01*
X122417981Y-72025567D01*
G75*
G02*
X122417981Y-71816971I104298J104298D01*
G01*
X122626577Y-71608375D01*
G75*
G02*
X122835173Y-71608375I104298J-104298D01*
G01*
G37*
G36*
G01*
X123521067Y-70922481D02*
X123765019Y-71166433D01*
G75*
G02*
X123765019Y-71375029I-104298J-104298D01*
G01*
X123556423Y-71583625D01*
G75*
G02*
X123347827Y-71583625I-104298J104298D01*
G01*
X123103875Y-71339673D01*
G75*
G02*
X123103875Y-71131077I104298J104298D01*
G01*
X123312471Y-70922481D01*
G75*
G02*
X123521067Y-70922481I104298J-104298D01*
G01*
G37*
G36*
G01*
X123281500Y-73356000D02*
X123281500Y-73011000D01*
G75*
G02*
X123429000Y-72863500I147500J0D01*
G01*
X123724000Y-72863500D01*
G75*
G02*
X123871500Y-73011000I0J-147500D01*
G01*
X123871500Y-73356000D01*
G75*
G02*
X123724000Y-73503500I-147500J0D01*
G01*
X123429000Y-73503500D01*
G75*
G02*
X123281500Y-73356000I0J147500D01*
G01*
G37*
G36*
G01*
X122311500Y-73356000D02*
X122311500Y-73011000D01*
G75*
G02*
X122459000Y-72863500I147500J0D01*
G01*
X122754000Y-72863500D01*
G75*
G02*
X122901500Y-73011000I0J-147500D01*
G01*
X122901500Y-73356000D01*
G75*
G02*
X122754000Y-73503500I-147500J0D01*
G01*
X122459000Y-73503500D01*
G75*
G02*
X122311500Y-73356000I0J147500D01*
G01*
G37*
G36*
G01*
X124507000Y-68611000D02*
X124852000Y-68611000D01*
G75*
G02*
X124999500Y-68758500I0J-147500D01*
G01*
X124999500Y-69053500D01*
G75*
G02*
X124852000Y-69201000I-147500J0D01*
G01*
X124507000Y-69201000D01*
G75*
G02*
X124359500Y-69053500I0J147500D01*
G01*
X124359500Y-68758500D01*
G75*
G02*
X124507000Y-68611000I147500J0D01*
G01*
G37*
G36*
G01*
X124507000Y-67641000D02*
X124852000Y-67641000D01*
G75*
G02*
X124999500Y-67788500I0J-147500D01*
G01*
X124999500Y-68083500D01*
G75*
G02*
X124852000Y-68231000I-147500J0D01*
G01*
X124507000Y-68231000D01*
G75*
G02*
X124359500Y-68083500I0J147500D01*
G01*
X124359500Y-67788500D01*
G75*
G02*
X124507000Y-67641000I147500J0D01*
G01*
G37*
G36*
G01*
X124507000Y-71786000D02*
X124852000Y-71786000D01*
G75*
G02*
X124999500Y-71933500I0J-147500D01*
G01*
X124999500Y-72228500D01*
G75*
G02*
X124852000Y-72376000I-147500J0D01*
G01*
X124507000Y-72376000D01*
G75*
G02*
X124359500Y-72228500I0J147500D01*
G01*
X124359500Y-71933500D01*
G75*
G02*
X124507000Y-71786000I147500J0D01*
G01*
G37*
G36*
G01*
X124507000Y-70816000D02*
X124852000Y-70816000D01*
G75*
G02*
X124999500Y-70963500I0J-147500D01*
G01*
X124999500Y-71258500D01*
G75*
G02*
X124852000Y-71406000I-147500J0D01*
G01*
X124507000Y-71406000D01*
G75*
G02*
X124359500Y-71258500I0J147500D01*
G01*
X124359500Y-70963500D01*
G75*
G02*
X124507000Y-70816000I147500J0D01*
G01*
G37*
G36*
G01*
X126456500Y-67006000D02*
X126456500Y-66661000D01*
G75*
G02*
X126604000Y-66513500I147500J0D01*
G01*
X126899000Y-66513500D01*
G75*
G02*
X127046500Y-66661000I0J-147500D01*
G01*
X127046500Y-67006000D01*
G75*
G02*
X126899000Y-67153500I-147500J0D01*
G01*
X126604000Y-67153500D01*
G75*
G02*
X126456500Y-67006000I0J147500D01*
G01*
G37*
G36*
G01*
X125486500Y-67006000D02*
X125486500Y-66661000D01*
G75*
G02*
X125634000Y-66513500I147500J0D01*
G01*
X125929000Y-66513500D01*
G75*
G02*
X126076500Y-66661000I0J-147500D01*
G01*
X126076500Y-67006000D01*
G75*
G02*
X125929000Y-67153500I-147500J0D01*
G01*
X125634000Y-67153500D01*
G75*
G02*
X125486500Y-67006000I0J147500D01*
G01*
G37*
G36*
G01*
X126522827Y-68408625D02*
X126278875Y-68164673D01*
G75*
G02*
X126278875Y-67956077I104298J104298D01*
G01*
X126487471Y-67747481D01*
G75*
G02*
X126696067Y-67747481I104298J-104298D01*
G01*
X126940019Y-67991433D01*
G75*
G02*
X126940019Y-68200029I-104298J-104298D01*
G01*
X126731423Y-68408625D01*
G75*
G02*
X126522827Y-68408625I-104298J104298D01*
G01*
G37*
G36*
G01*
X125836933Y-69094519D02*
X125592981Y-68850567D01*
G75*
G02*
X125592981Y-68641971I104298J104298D01*
G01*
X125801577Y-68433375D01*
G75*
G02*
X126010173Y-68433375I104298J-104298D01*
G01*
X126254125Y-68677327D01*
G75*
G02*
X126254125Y-68885923I-104298J-104298D01*
G01*
X126045529Y-69094519D01*
G75*
G02*
X125836933Y-69094519I-104298J104298D01*
G01*
G37*
G36*
G01*
X126456500Y-70181000D02*
X126456500Y-69836000D01*
G75*
G02*
X126604000Y-69688500I147500J0D01*
G01*
X126899000Y-69688500D01*
G75*
G02*
X127046500Y-69836000I0J-147500D01*
G01*
X127046500Y-70181000D01*
G75*
G02*
X126899000Y-70328500I-147500J0D01*
G01*
X126604000Y-70328500D01*
G75*
G02*
X126456500Y-70181000I0J147500D01*
G01*
G37*
G36*
G01*
X125486500Y-70181000D02*
X125486500Y-69836000D01*
G75*
G02*
X125634000Y-69688500I147500J0D01*
G01*
X125929000Y-69688500D01*
G75*
G02*
X126076500Y-69836000I0J-147500D01*
G01*
X126076500Y-70181000D01*
G75*
G02*
X125929000Y-70328500I-147500J0D01*
G01*
X125634000Y-70328500D01*
G75*
G02*
X125486500Y-70181000I0J147500D01*
G01*
G37*
G36*
G01*
X126278875Y-71852327D02*
X126522827Y-71608375D01*
G75*
G02*
X126731423Y-71608375I104298J-104298D01*
G01*
X126940019Y-71816971D01*
G75*
G02*
X126940019Y-72025567I-104298J-104298D01*
G01*
X126696067Y-72269519D01*
G75*
G02*
X126487471Y-72269519I-104298J104298D01*
G01*
X126278875Y-72060923D01*
G75*
G02*
X126278875Y-71852327I104298J104298D01*
G01*
G37*
G36*
G01*
X125592981Y-71166433D02*
X125836933Y-70922481D01*
G75*
G02*
X126045529Y-70922481I104298J-104298D01*
G01*
X126254125Y-71131077D01*
G75*
G02*
X126254125Y-71339673I-104298J-104298D01*
G01*
X126010173Y-71583625D01*
G75*
G02*
X125801577Y-71583625I-104298J104298D01*
G01*
X125592981Y-71375029D01*
G75*
G02*
X125592981Y-71166433I104298J104298D01*
G01*
G37*
G36*
G01*
X126456500Y-73356000D02*
X126456500Y-73011000D01*
G75*
G02*
X126604000Y-72863500I147500J0D01*
G01*
X126899000Y-72863500D01*
G75*
G02*
X127046500Y-73011000I0J-147500D01*
G01*
X127046500Y-73356000D01*
G75*
G02*
X126899000Y-73503500I-147500J0D01*
G01*
X126604000Y-73503500D01*
G75*
G02*
X126456500Y-73356000I0J147500D01*
G01*
G37*
G36*
G01*
X125486500Y-73356000D02*
X125486500Y-73011000D01*
G75*
G02*
X125634000Y-72863500I147500J0D01*
G01*
X125929000Y-72863500D01*
G75*
G02*
X126076500Y-73011000I0J-147500D01*
G01*
X126076500Y-73356000D01*
G75*
G02*
X125929000Y-73503500I-147500J0D01*
G01*
X125634000Y-73503500D01*
G75*
G02*
X125486500Y-73356000I0J147500D01*
G01*
G37*
G36*
G01*
X127681000Y-68611000D02*
X128026000Y-68611000D01*
G75*
G02*
X128173500Y-68758500I0J-147500D01*
G01*
X128173500Y-69053500D01*
G75*
G02*
X128026000Y-69201000I-147500J0D01*
G01*
X127681000Y-69201000D01*
G75*
G02*
X127533500Y-69053500I0J147500D01*
G01*
X127533500Y-68758500D01*
G75*
G02*
X127681000Y-68611000I147500J0D01*
G01*
G37*
G36*
G01*
X127681000Y-67641000D02*
X128026000Y-67641000D01*
G75*
G02*
X128173500Y-67788500I0J-147500D01*
G01*
X128173500Y-68083500D01*
G75*
G02*
X128026000Y-68231000I-147500J0D01*
G01*
X127681000Y-68231000D01*
G75*
G02*
X127533500Y-68083500I0J147500D01*
G01*
X127533500Y-67788500D01*
G75*
G02*
X127681000Y-67641000I147500J0D01*
G01*
G37*
G36*
G01*
X128026000Y-71406000D02*
X127681000Y-71406000D01*
G75*
G02*
X127533500Y-71258500I0J147500D01*
G01*
X127533500Y-70963500D01*
G75*
G02*
X127681000Y-70816000I147500J0D01*
G01*
X128026000Y-70816000D01*
G75*
G02*
X128173500Y-70963500I0J-147500D01*
G01*
X128173500Y-71258500D01*
G75*
G02*
X128026000Y-71406000I-147500J0D01*
G01*
G37*
G36*
G01*
X128026000Y-72376000D02*
X127681000Y-72376000D01*
G75*
G02*
X127533500Y-72228500I0J147500D01*
G01*
X127533500Y-71933500D01*
G75*
G02*
X127681000Y-71786000I147500J0D01*
G01*
X128026000Y-71786000D01*
G75*
G02*
X128173500Y-71933500I0J-147500D01*
G01*
X128173500Y-72228500D01*
G75*
G02*
X128026000Y-72376000I-147500J0D01*
G01*
G37*
G36*
G01*
X131491000Y-68611000D02*
X131836000Y-68611000D01*
G75*
G02*
X131983500Y-68758500I0J-147500D01*
G01*
X131983500Y-69053500D01*
G75*
G02*
X131836000Y-69201000I-147500J0D01*
G01*
X131491000Y-69201000D01*
G75*
G02*
X131343500Y-69053500I0J147500D01*
G01*
X131343500Y-68758500D01*
G75*
G02*
X131491000Y-68611000I147500J0D01*
G01*
G37*
G36*
G01*
X131491000Y-67641000D02*
X131836000Y-67641000D01*
G75*
G02*
X131983500Y-67788500I0J-147500D01*
G01*
X131983500Y-68083500D01*
G75*
G02*
X131836000Y-68231000I-147500J0D01*
G01*
X131491000Y-68231000D01*
G75*
G02*
X131343500Y-68083500I0J147500D01*
G01*
X131343500Y-67788500D01*
G75*
G02*
X131491000Y-67641000I147500J0D01*
G01*
G37*
G36*
G01*
X131836000Y-71406000D02*
X131491000Y-71406000D01*
G75*
G02*
X131343500Y-71258500I0J147500D01*
G01*
X131343500Y-70963500D01*
G75*
G02*
X131491000Y-70816000I147500J0D01*
G01*
X131836000Y-70816000D01*
G75*
G02*
X131983500Y-70963500I0J-147500D01*
G01*
X131983500Y-71258500D01*
G75*
G02*
X131836000Y-71406000I-147500J0D01*
G01*
G37*
G36*
G01*
X131836000Y-72376000D02*
X131491000Y-72376000D01*
G75*
G02*
X131343500Y-72228500I0J147500D01*
G01*
X131343500Y-71933500D01*
G75*
G02*
X131491000Y-71786000I147500J0D01*
G01*
X131836000Y-71786000D01*
G75*
G02*
X131983500Y-71933500I0J-147500D01*
G01*
X131983500Y-72228500D01*
G75*
G02*
X131836000Y-72376000I-147500J0D01*
G01*
G37*
G36*
G01*
X133441500Y-67006000D02*
X133441500Y-66661000D01*
G75*
G02*
X133589000Y-66513500I147500J0D01*
G01*
X133884000Y-66513500D01*
G75*
G02*
X134031500Y-66661000I0J-147500D01*
G01*
X134031500Y-67006000D01*
G75*
G02*
X133884000Y-67153500I-147500J0D01*
G01*
X133589000Y-67153500D01*
G75*
G02*
X133441500Y-67006000I0J147500D01*
G01*
G37*
G36*
G01*
X132471500Y-67006000D02*
X132471500Y-66661000D01*
G75*
G02*
X132619000Y-66513500I147500J0D01*
G01*
X132914000Y-66513500D01*
G75*
G02*
X133061500Y-66661000I0J-147500D01*
G01*
X133061500Y-67006000D01*
G75*
G02*
X132914000Y-67153500I-147500J0D01*
G01*
X132619000Y-67153500D01*
G75*
G02*
X132471500Y-67006000I0J147500D01*
G01*
G37*
G36*
G01*
X133239125Y-68164673D02*
X132995173Y-68408625D01*
G75*
G02*
X132786577Y-68408625I-104298J104298D01*
G01*
X132577981Y-68200029D01*
G75*
G02*
X132577981Y-67991433I104298J104298D01*
G01*
X132821933Y-67747481D01*
G75*
G02*
X133030529Y-67747481I104298J-104298D01*
G01*
X133239125Y-67956077D01*
G75*
G02*
X133239125Y-68164673I-104298J-104298D01*
G01*
G37*
G36*
G01*
X133925019Y-68850567D02*
X133681067Y-69094519D01*
G75*
G02*
X133472471Y-69094519I-104298J104298D01*
G01*
X133263875Y-68885923D01*
G75*
G02*
X133263875Y-68677327I104298J104298D01*
G01*
X133507827Y-68433375D01*
G75*
G02*
X133716423Y-68433375I104298J-104298D01*
G01*
X133925019Y-68641971D01*
G75*
G02*
X133925019Y-68850567I-104298J-104298D01*
G01*
G37*
G36*
G01*
X133061500Y-69836000D02*
X133061500Y-70181000D01*
G75*
G02*
X132914000Y-70328500I-147500J0D01*
G01*
X132619000Y-70328500D01*
G75*
G02*
X132471500Y-70181000I0J147500D01*
G01*
X132471500Y-69836000D01*
G75*
G02*
X132619000Y-69688500I147500J0D01*
G01*
X132914000Y-69688500D01*
G75*
G02*
X133061500Y-69836000I0J-147500D01*
G01*
G37*
G36*
G01*
X134031500Y-69836000D02*
X134031500Y-70181000D01*
G75*
G02*
X133884000Y-70328500I-147500J0D01*
G01*
X133589000Y-70328500D01*
G75*
G02*
X133441500Y-70181000I0J147500D01*
G01*
X133441500Y-69836000D01*
G75*
G02*
X133589000Y-69688500I147500J0D01*
G01*
X133884000Y-69688500D01*
G75*
G02*
X134031500Y-69836000I0J-147500D01*
G01*
G37*
G36*
G01*
X132995173Y-71608375D02*
X133239125Y-71852327D01*
G75*
G02*
X133239125Y-72060923I-104298J-104298D01*
G01*
X133030529Y-72269519D01*
G75*
G02*
X132821933Y-72269519I-104298J104298D01*
G01*
X132577981Y-72025567D01*
G75*
G02*
X132577981Y-71816971I104298J104298D01*
G01*
X132786577Y-71608375D01*
G75*
G02*
X132995173Y-71608375I104298J-104298D01*
G01*
G37*
G36*
G01*
X133681067Y-70922481D02*
X133925019Y-71166433D01*
G75*
G02*
X133925019Y-71375029I-104298J-104298D01*
G01*
X133716423Y-71583625D01*
G75*
G02*
X133507827Y-71583625I-104298J104298D01*
G01*
X133263875Y-71339673D01*
G75*
G02*
X133263875Y-71131077I104298J104298D01*
G01*
X133472471Y-70922481D01*
G75*
G02*
X133681067Y-70922481I104298J-104298D01*
G01*
G37*
G36*
G01*
X133441500Y-73356000D02*
X133441500Y-73011000D01*
G75*
G02*
X133589000Y-72863500I147500J0D01*
G01*
X133884000Y-72863500D01*
G75*
G02*
X134031500Y-73011000I0J-147500D01*
G01*
X134031500Y-73356000D01*
G75*
G02*
X133884000Y-73503500I-147500J0D01*
G01*
X133589000Y-73503500D01*
G75*
G02*
X133441500Y-73356000I0J147500D01*
G01*
G37*
G36*
G01*
X132471500Y-73356000D02*
X132471500Y-73011000D01*
G75*
G02*
X132619000Y-72863500I147500J0D01*
G01*
X132914000Y-72863500D01*
G75*
G02*
X133061500Y-73011000I0J-147500D01*
G01*
X133061500Y-73356000D01*
G75*
G02*
X132914000Y-73503500I-147500J0D01*
G01*
X132619000Y-73503500D01*
G75*
G02*
X132471500Y-73356000I0J147500D01*
G01*
G37*
G36*
G01*
X134667000Y-68611000D02*
X135012000Y-68611000D01*
G75*
G02*
X135159500Y-68758500I0J-147500D01*
G01*
X135159500Y-69053500D01*
G75*
G02*
X135012000Y-69201000I-147500J0D01*
G01*
X134667000Y-69201000D01*
G75*
G02*
X134519500Y-69053500I0J147500D01*
G01*
X134519500Y-68758500D01*
G75*
G02*
X134667000Y-68611000I147500J0D01*
G01*
G37*
G36*
G01*
X134667000Y-67641000D02*
X135012000Y-67641000D01*
G75*
G02*
X135159500Y-67788500I0J-147500D01*
G01*
X135159500Y-68083500D01*
G75*
G02*
X135012000Y-68231000I-147500J0D01*
G01*
X134667000Y-68231000D01*
G75*
G02*
X134519500Y-68083500I0J147500D01*
G01*
X134519500Y-67788500D01*
G75*
G02*
X134667000Y-67641000I147500J0D01*
G01*
G37*
G36*
G01*
X134667000Y-71786000D02*
X135012000Y-71786000D01*
G75*
G02*
X135159500Y-71933500I0J-147500D01*
G01*
X135159500Y-72228500D01*
G75*
G02*
X135012000Y-72376000I-147500J0D01*
G01*
X134667000Y-72376000D01*
G75*
G02*
X134519500Y-72228500I0J147500D01*
G01*
X134519500Y-71933500D01*
G75*
G02*
X134667000Y-71786000I147500J0D01*
G01*
G37*
G36*
G01*
X134667000Y-70816000D02*
X135012000Y-70816000D01*
G75*
G02*
X135159500Y-70963500I0J-147500D01*
G01*
X135159500Y-71258500D01*
G75*
G02*
X135012000Y-71406000I-147500J0D01*
G01*
X134667000Y-71406000D01*
G75*
G02*
X134519500Y-71258500I0J147500D01*
G01*
X134519500Y-70963500D01*
G75*
G02*
X134667000Y-70816000I147500J0D01*
G01*
G37*
G36*
G01*
X136616500Y-67006000D02*
X136616500Y-66661000D01*
G75*
G02*
X136764000Y-66513500I147500J0D01*
G01*
X137059000Y-66513500D01*
G75*
G02*
X137206500Y-66661000I0J-147500D01*
G01*
X137206500Y-67006000D01*
G75*
G02*
X137059000Y-67153500I-147500J0D01*
G01*
X136764000Y-67153500D01*
G75*
G02*
X136616500Y-67006000I0J147500D01*
G01*
G37*
G36*
G01*
X135646500Y-67006000D02*
X135646500Y-66661000D01*
G75*
G02*
X135794000Y-66513500I147500J0D01*
G01*
X136089000Y-66513500D01*
G75*
G02*
X136236500Y-66661000I0J-147500D01*
G01*
X136236500Y-67006000D01*
G75*
G02*
X136089000Y-67153500I-147500J0D01*
G01*
X135794000Y-67153500D01*
G75*
G02*
X135646500Y-67006000I0J147500D01*
G01*
G37*
G36*
G01*
X136682827Y-68408625D02*
X136438875Y-68164673D01*
G75*
G02*
X136438875Y-67956077I104298J104298D01*
G01*
X136647471Y-67747481D01*
G75*
G02*
X136856067Y-67747481I104298J-104298D01*
G01*
X137100019Y-67991433D01*
G75*
G02*
X137100019Y-68200029I-104298J-104298D01*
G01*
X136891423Y-68408625D01*
G75*
G02*
X136682827Y-68408625I-104298J104298D01*
G01*
G37*
G36*
G01*
X135996933Y-69094519D02*
X135752981Y-68850567D01*
G75*
G02*
X135752981Y-68641971I104298J104298D01*
G01*
X135961577Y-68433375D01*
G75*
G02*
X136170173Y-68433375I104298J-104298D01*
G01*
X136414125Y-68677327D01*
G75*
G02*
X136414125Y-68885923I-104298J-104298D01*
G01*
X136205529Y-69094519D01*
G75*
G02*
X135996933Y-69094519I-104298J104298D01*
G01*
G37*
G36*
G01*
X136616500Y-70181000D02*
X136616500Y-69836000D01*
G75*
G02*
X136764000Y-69688500I147500J0D01*
G01*
X137059000Y-69688500D01*
G75*
G02*
X137206500Y-69836000I0J-147500D01*
G01*
X137206500Y-70181000D01*
G75*
G02*
X137059000Y-70328500I-147500J0D01*
G01*
X136764000Y-70328500D01*
G75*
G02*
X136616500Y-70181000I0J147500D01*
G01*
G37*
G36*
G01*
X135646500Y-70181000D02*
X135646500Y-69836000D01*
G75*
G02*
X135794000Y-69688500I147500J0D01*
G01*
X136089000Y-69688500D01*
G75*
G02*
X136236500Y-69836000I0J-147500D01*
G01*
X136236500Y-70181000D01*
G75*
G02*
X136089000Y-70328500I-147500J0D01*
G01*
X135794000Y-70328500D01*
G75*
G02*
X135646500Y-70181000I0J147500D01*
G01*
G37*
G36*
G01*
X136438875Y-71852327D02*
X136682827Y-71608375D01*
G75*
G02*
X136891423Y-71608375I104298J-104298D01*
G01*
X137100019Y-71816971D01*
G75*
G02*
X137100019Y-72025567I-104298J-104298D01*
G01*
X136856067Y-72269519D01*
G75*
G02*
X136647471Y-72269519I-104298J104298D01*
G01*
X136438875Y-72060923D01*
G75*
G02*
X136438875Y-71852327I104298J104298D01*
G01*
G37*
G36*
G01*
X135752981Y-71166433D02*
X135996933Y-70922481D01*
G75*
G02*
X136205529Y-70922481I104298J-104298D01*
G01*
X136414125Y-71131077D01*
G75*
G02*
X136414125Y-71339673I-104298J-104298D01*
G01*
X136170173Y-71583625D01*
G75*
G02*
X135961577Y-71583625I-104298J104298D01*
G01*
X135752981Y-71375029D01*
G75*
G02*
X135752981Y-71166433I104298J104298D01*
G01*
G37*
G36*
G01*
X136616500Y-73356000D02*
X136616500Y-73011000D01*
G75*
G02*
X136764000Y-72863500I147500J0D01*
G01*
X137059000Y-72863500D01*
G75*
G02*
X137206500Y-73011000I0J-147500D01*
G01*
X137206500Y-73356000D01*
G75*
G02*
X137059000Y-73503500I-147500J0D01*
G01*
X136764000Y-73503500D01*
G75*
G02*
X136616500Y-73356000I0J147500D01*
G01*
G37*
G36*
G01*
X135646500Y-73356000D02*
X135646500Y-73011000D01*
G75*
G02*
X135794000Y-72863500I147500J0D01*
G01*
X136089000Y-72863500D01*
G75*
G02*
X136236500Y-73011000I0J-147500D01*
G01*
X136236500Y-73356000D01*
G75*
G02*
X136089000Y-73503500I-147500J0D01*
G01*
X135794000Y-73503500D01*
G75*
G02*
X135646500Y-73356000I0J147500D01*
G01*
G37*
G36*
G01*
X137841000Y-68611000D02*
X138186000Y-68611000D01*
G75*
G02*
X138333500Y-68758500I0J-147500D01*
G01*
X138333500Y-69053500D01*
G75*
G02*
X138186000Y-69201000I-147500J0D01*
G01*
X137841000Y-69201000D01*
G75*
G02*
X137693500Y-69053500I0J147500D01*
G01*
X137693500Y-68758500D01*
G75*
G02*
X137841000Y-68611000I147500J0D01*
G01*
G37*
G36*
G01*
X137841000Y-67641000D02*
X138186000Y-67641000D01*
G75*
G02*
X138333500Y-67788500I0J-147500D01*
G01*
X138333500Y-68083500D01*
G75*
G02*
X138186000Y-68231000I-147500J0D01*
G01*
X137841000Y-68231000D01*
G75*
G02*
X137693500Y-68083500I0J147500D01*
G01*
X137693500Y-67788500D01*
G75*
G02*
X137841000Y-67641000I147500J0D01*
G01*
G37*
G36*
G01*
X138186000Y-71406000D02*
X137841000Y-71406000D01*
G75*
G02*
X137693500Y-71258500I0J147500D01*
G01*
X137693500Y-70963500D01*
G75*
G02*
X137841000Y-70816000I147500J0D01*
G01*
X138186000Y-70816000D01*
G75*
G02*
X138333500Y-70963500I0J-147500D01*
G01*
X138333500Y-71258500D01*
G75*
G02*
X138186000Y-71406000I-147500J0D01*
G01*
G37*
G36*
G01*
X138186000Y-72376000D02*
X137841000Y-72376000D01*
G75*
G02*
X137693500Y-72228500I0J147500D01*
G01*
X137693500Y-71933500D01*
G75*
G02*
X137841000Y-71786000I147500J0D01*
G01*
X138186000Y-71786000D01*
G75*
G02*
X138333500Y-71933500I0J-147500D01*
G01*
X138333500Y-72228500D01*
G75*
G02*
X138186000Y-72376000I-147500J0D01*
G01*
G37*
G36*
G01*
X141651000Y-68611000D02*
X141996000Y-68611000D01*
G75*
G02*
X142143500Y-68758500I0J-147500D01*
G01*
X142143500Y-69053500D01*
G75*
G02*
X141996000Y-69201000I-147500J0D01*
G01*
X141651000Y-69201000D01*
G75*
G02*
X141503500Y-69053500I0J147500D01*
G01*
X141503500Y-68758500D01*
G75*
G02*
X141651000Y-68611000I147500J0D01*
G01*
G37*
G36*
G01*
X141651000Y-67641000D02*
X141996000Y-67641000D01*
G75*
G02*
X142143500Y-67788500I0J-147500D01*
G01*
X142143500Y-68083500D01*
G75*
G02*
X141996000Y-68231000I-147500J0D01*
G01*
X141651000Y-68231000D01*
G75*
G02*
X141503500Y-68083500I0J147500D01*
G01*
X141503500Y-67788500D01*
G75*
G02*
X141651000Y-67641000I147500J0D01*
G01*
G37*
G36*
G01*
X141996000Y-71406000D02*
X141651000Y-71406000D01*
G75*
G02*
X141503500Y-71258500I0J147500D01*
G01*
X141503500Y-70963500D01*
G75*
G02*
X141651000Y-70816000I147500J0D01*
G01*
X141996000Y-70816000D01*
G75*
G02*
X142143500Y-70963500I0J-147500D01*
G01*
X142143500Y-71258500D01*
G75*
G02*
X141996000Y-71406000I-147500J0D01*
G01*
G37*
G36*
G01*
X141996000Y-72376000D02*
X141651000Y-72376000D01*
G75*
G02*
X141503500Y-72228500I0J147500D01*
G01*
X141503500Y-71933500D01*
G75*
G02*
X141651000Y-71786000I147500J0D01*
G01*
X141996000Y-71786000D01*
G75*
G02*
X142143500Y-71933500I0J-147500D01*
G01*
X142143500Y-72228500D01*
G75*
G02*
X141996000Y-72376000I-147500J0D01*
G01*
G37*
G36*
G01*
X143601500Y-67006000D02*
X143601500Y-66661000D01*
G75*
G02*
X143749000Y-66513500I147500J0D01*
G01*
X144044000Y-66513500D01*
G75*
G02*
X144191500Y-66661000I0J-147500D01*
G01*
X144191500Y-67006000D01*
G75*
G02*
X144044000Y-67153500I-147500J0D01*
G01*
X143749000Y-67153500D01*
G75*
G02*
X143601500Y-67006000I0J147500D01*
G01*
G37*
G36*
G01*
X142631500Y-67006000D02*
X142631500Y-66661000D01*
G75*
G02*
X142779000Y-66513500I147500J0D01*
G01*
X143074000Y-66513500D01*
G75*
G02*
X143221500Y-66661000I0J-147500D01*
G01*
X143221500Y-67006000D01*
G75*
G02*
X143074000Y-67153500I-147500J0D01*
G01*
X142779000Y-67153500D01*
G75*
G02*
X142631500Y-67006000I0J147500D01*
G01*
G37*
G36*
G01*
X143399125Y-68164673D02*
X143155173Y-68408625D01*
G75*
G02*
X142946577Y-68408625I-104298J104298D01*
G01*
X142737981Y-68200029D01*
G75*
G02*
X142737981Y-67991433I104298J104298D01*
G01*
X142981933Y-67747481D01*
G75*
G02*
X143190529Y-67747481I104298J-104298D01*
G01*
X143399125Y-67956077D01*
G75*
G02*
X143399125Y-68164673I-104298J-104298D01*
G01*
G37*
G36*
G01*
X144085019Y-68850567D02*
X143841067Y-69094519D01*
G75*
G02*
X143632471Y-69094519I-104298J104298D01*
G01*
X143423875Y-68885923D01*
G75*
G02*
X143423875Y-68677327I104298J104298D01*
G01*
X143667827Y-68433375D01*
G75*
G02*
X143876423Y-68433375I104298J-104298D01*
G01*
X144085019Y-68641971D01*
G75*
G02*
X144085019Y-68850567I-104298J-104298D01*
G01*
G37*
G36*
G01*
X143221500Y-69836000D02*
X143221500Y-70181000D01*
G75*
G02*
X143074000Y-70328500I-147500J0D01*
G01*
X142779000Y-70328500D01*
G75*
G02*
X142631500Y-70181000I0J147500D01*
G01*
X142631500Y-69836000D01*
G75*
G02*
X142779000Y-69688500I147500J0D01*
G01*
X143074000Y-69688500D01*
G75*
G02*
X143221500Y-69836000I0J-147500D01*
G01*
G37*
G36*
G01*
X144191500Y-69836000D02*
X144191500Y-70181000D01*
G75*
G02*
X144044000Y-70328500I-147500J0D01*
G01*
X143749000Y-70328500D01*
G75*
G02*
X143601500Y-70181000I0J147500D01*
G01*
X143601500Y-69836000D01*
G75*
G02*
X143749000Y-69688500I147500J0D01*
G01*
X144044000Y-69688500D01*
G75*
G02*
X144191500Y-69836000I0J-147500D01*
G01*
G37*
G36*
G01*
X143155173Y-71608375D02*
X143399125Y-71852327D01*
G75*
G02*
X143399125Y-72060923I-104298J-104298D01*
G01*
X143190529Y-72269519D01*
G75*
G02*
X142981933Y-72269519I-104298J104298D01*
G01*
X142737981Y-72025567D01*
G75*
G02*
X142737981Y-71816971I104298J104298D01*
G01*
X142946577Y-71608375D01*
G75*
G02*
X143155173Y-71608375I104298J-104298D01*
G01*
G37*
G36*
G01*
X143841067Y-70922481D02*
X144085019Y-71166433D01*
G75*
G02*
X144085019Y-71375029I-104298J-104298D01*
G01*
X143876423Y-71583625D01*
G75*
G02*
X143667827Y-71583625I-104298J104298D01*
G01*
X143423875Y-71339673D01*
G75*
G02*
X143423875Y-71131077I104298J104298D01*
G01*
X143632471Y-70922481D01*
G75*
G02*
X143841067Y-70922481I104298J-104298D01*
G01*
G37*
G36*
G01*
X143601500Y-73356000D02*
X143601500Y-73011000D01*
G75*
G02*
X143749000Y-72863500I147500J0D01*
G01*
X144044000Y-72863500D01*
G75*
G02*
X144191500Y-73011000I0J-147500D01*
G01*
X144191500Y-73356000D01*
G75*
G02*
X144044000Y-73503500I-147500J0D01*
G01*
X143749000Y-73503500D01*
G75*
G02*
X143601500Y-73356000I0J147500D01*
G01*
G37*
G36*
G01*
X142631500Y-73356000D02*
X142631500Y-73011000D01*
G75*
G02*
X142779000Y-72863500I147500J0D01*
G01*
X143074000Y-72863500D01*
G75*
G02*
X143221500Y-73011000I0J-147500D01*
G01*
X143221500Y-73356000D01*
G75*
G02*
X143074000Y-73503500I-147500J0D01*
G01*
X142779000Y-73503500D01*
G75*
G02*
X142631500Y-73356000I0J147500D01*
G01*
G37*
G36*
G01*
X144827000Y-68611000D02*
X145172000Y-68611000D01*
G75*
G02*
X145319500Y-68758500I0J-147500D01*
G01*
X145319500Y-69053500D01*
G75*
G02*
X145172000Y-69201000I-147500J0D01*
G01*
X144827000Y-69201000D01*
G75*
G02*
X144679500Y-69053500I0J147500D01*
G01*
X144679500Y-68758500D01*
G75*
G02*
X144827000Y-68611000I147500J0D01*
G01*
G37*
G36*
G01*
X144827000Y-67641000D02*
X145172000Y-67641000D01*
G75*
G02*
X145319500Y-67788500I0J-147500D01*
G01*
X145319500Y-68083500D01*
G75*
G02*
X145172000Y-68231000I-147500J0D01*
G01*
X144827000Y-68231000D01*
G75*
G02*
X144679500Y-68083500I0J147500D01*
G01*
X144679500Y-67788500D01*
G75*
G02*
X144827000Y-67641000I147500J0D01*
G01*
G37*
G36*
G01*
X144827000Y-71789000D02*
X145172000Y-71789000D01*
G75*
G02*
X145319500Y-71936500I0J-147500D01*
G01*
X145319500Y-72231500D01*
G75*
G02*
X145172000Y-72379000I-147500J0D01*
G01*
X144827000Y-72379000D01*
G75*
G02*
X144679500Y-72231500I0J147500D01*
G01*
X144679500Y-71936500D01*
G75*
G02*
X144827000Y-71789000I147500J0D01*
G01*
G37*
G36*
G01*
X144827000Y-70819000D02*
X145172000Y-70819000D01*
G75*
G02*
X145319500Y-70966500I0J-147500D01*
G01*
X145319500Y-71261500D01*
G75*
G02*
X145172000Y-71409000I-147500J0D01*
G01*
X144827000Y-71409000D01*
G75*
G02*
X144679500Y-71261500I0J147500D01*
G01*
X144679500Y-70966500D01*
G75*
G02*
X144827000Y-70819000I147500J0D01*
G01*
G37*
G36*
G01*
X146396500Y-66661000D02*
X146396500Y-67006000D01*
G75*
G02*
X146249000Y-67153500I-147500J0D01*
G01*
X145954000Y-67153500D01*
G75*
G02*
X145806500Y-67006000I0J147500D01*
G01*
X145806500Y-66661000D01*
G75*
G02*
X145954000Y-66513500I147500J0D01*
G01*
X146249000Y-66513500D01*
G75*
G02*
X146396500Y-66661000I0J-147500D01*
G01*
G37*
G36*
G01*
X147366500Y-66661000D02*
X147366500Y-67006000D01*
G75*
G02*
X147219000Y-67153500I-147500J0D01*
G01*
X146924000Y-67153500D01*
G75*
G02*
X146776500Y-67006000I0J147500D01*
G01*
X146776500Y-66661000D01*
G75*
G02*
X146924000Y-66513500I147500J0D01*
G01*
X147219000Y-66513500D01*
G75*
G02*
X147366500Y-66661000I0J-147500D01*
G01*
G37*
G36*
G01*
X146842827Y-68408625D02*
X146598875Y-68164673D01*
G75*
G02*
X146598875Y-67956077I104298J104298D01*
G01*
X146807471Y-67747481D01*
G75*
G02*
X147016067Y-67747481I104298J-104298D01*
G01*
X147260019Y-67991433D01*
G75*
G02*
X147260019Y-68200029I-104298J-104298D01*
G01*
X147051423Y-68408625D01*
G75*
G02*
X146842827Y-68408625I-104298J104298D01*
G01*
G37*
G36*
G01*
X146156933Y-69094519D02*
X145912981Y-68850567D01*
G75*
G02*
X145912981Y-68641971I104298J104298D01*
G01*
X146121577Y-68433375D01*
G75*
G02*
X146330173Y-68433375I104298J-104298D01*
G01*
X146574125Y-68677327D01*
G75*
G02*
X146574125Y-68885923I-104298J-104298D01*
G01*
X146365529Y-69094519D01*
G75*
G02*
X146156933Y-69094519I-104298J104298D01*
G01*
G37*
G36*
G01*
X146776500Y-70181000D02*
X146776500Y-69836000D01*
G75*
G02*
X146924000Y-69688500I147500J0D01*
G01*
X147219000Y-69688500D01*
G75*
G02*
X147366500Y-69836000I0J-147500D01*
G01*
X147366500Y-70181000D01*
G75*
G02*
X147219000Y-70328500I-147500J0D01*
G01*
X146924000Y-70328500D01*
G75*
G02*
X146776500Y-70181000I0J147500D01*
G01*
G37*
G36*
G01*
X145806500Y-70181000D02*
X145806500Y-69836000D01*
G75*
G02*
X145954000Y-69688500I147500J0D01*
G01*
X146249000Y-69688500D01*
G75*
G02*
X146396500Y-69836000I0J-147500D01*
G01*
X146396500Y-70181000D01*
G75*
G02*
X146249000Y-70328500I-147500J0D01*
G01*
X145954000Y-70328500D01*
G75*
G02*
X145806500Y-70181000I0J147500D01*
G01*
G37*
G36*
G01*
X146598875Y-71852327D02*
X146842827Y-71608375D01*
G75*
G02*
X147051423Y-71608375I104298J-104298D01*
G01*
X147260019Y-71816971D01*
G75*
G02*
X147260019Y-72025567I-104298J-104298D01*
G01*
X147016067Y-72269519D01*
G75*
G02*
X146807471Y-72269519I-104298J104298D01*
G01*
X146598875Y-72060923D01*
G75*
G02*
X146598875Y-71852327I104298J104298D01*
G01*
G37*
G36*
G01*
X145912981Y-71166433D02*
X146156933Y-70922481D01*
G75*
G02*
X146365529Y-70922481I104298J-104298D01*
G01*
X146574125Y-71131077D01*
G75*
G02*
X146574125Y-71339673I-104298J-104298D01*
G01*
X146330173Y-71583625D01*
G75*
G02*
X146121577Y-71583625I-104298J104298D01*
G01*
X145912981Y-71375029D01*
G75*
G02*
X145912981Y-71166433I104298J104298D01*
G01*
G37*
G36*
G01*
X146776500Y-73356000D02*
X146776500Y-73011000D01*
G75*
G02*
X146924000Y-72863500I147500J0D01*
G01*
X147219000Y-72863500D01*
G75*
G02*
X147366500Y-73011000I0J-147500D01*
G01*
X147366500Y-73356000D01*
G75*
G02*
X147219000Y-73503500I-147500J0D01*
G01*
X146924000Y-73503500D01*
G75*
G02*
X146776500Y-73356000I0J147500D01*
G01*
G37*
G36*
G01*
X145806500Y-73356000D02*
X145806500Y-73011000D01*
G75*
G02*
X145954000Y-72863500I147500J0D01*
G01*
X146249000Y-72863500D01*
G75*
G02*
X146396500Y-73011000I0J-147500D01*
G01*
X146396500Y-73356000D01*
G75*
G02*
X146249000Y-73503500I-147500J0D01*
G01*
X145954000Y-73503500D01*
G75*
G02*
X145806500Y-73356000I0J147500D01*
G01*
G37*
G36*
G01*
X148001000Y-68611000D02*
X148346000Y-68611000D01*
G75*
G02*
X148493500Y-68758500I0J-147500D01*
G01*
X148493500Y-69053500D01*
G75*
G02*
X148346000Y-69201000I-147500J0D01*
G01*
X148001000Y-69201000D01*
G75*
G02*
X147853500Y-69053500I0J147500D01*
G01*
X147853500Y-68758500D01*
G75*
G02*
X148001000Y-68611000I147500J0D01*
G01*
G37*
G36*
G01*
X148001000Y-67641000D02*
X148346000Y-67641000D01*
G75*
G02*
X148493500Y-67788500I0J-147500D01*
G01*
X148493500Y-68083500D01*
G75*
G02*
X148346000Y-68231000I-147500J0D01*
G01*
X148001000Y-68231000D01*
G75*
G02*
X147853500Y-68083500I0J147500D01*
G01*
X147853500Y-67788500D01*
G75*
G02*
X148001000Y-67641000I147500J0D01*
G01*
G37*
G36*
G01*
X148346000Y-71406000D02*
X148001000Y-71406000D01*
G75*
G02*
X147853500Y-71258500I0J147500D01*
G01*
X147853500Y-70963500D01*
G75*
G02*
X148001000Y-70816000I147500J0D01*
G01*
X148346000Y-70816000D01*
G75*
G02*
X148493500Y-70963500I0J-147500D01*
G01*
X148493500Y-71258500D01*
G75*
G02*
X148346000Y-71406000I-147500J0D01*
G01*
G37*
G36*
G01*
X148346000Y-72376000D02*
X148001000Y-72376000D01*
G75*
G02*
X147853500Y-72228500I0J147500D01*
G01*
X147853500Y-71933500D01*
G75*
G02*
X148001000Y-71786000I147500J0D01*
G01*
X148346000Y-71786000D01*
G75*
G02*
X148493500Y-71933500I0J-147500D01*
G01*
X148493500Y-72228500D01*
G75*
G02*
X148346000Y-72376000I-147500J0D01*
G01*
G37*
G36*
G01*
X107997000Y-68611000D02*
X108342000Y-68611000D01*
G75*
G02*
X108489500Y-68758500I0J-147500D01*
G01*
X108489500Y-69053500D01*
G75*
G02*
X108342000Y-69201000I-147500J0D01*
G01*
X107997000Y-69201000D01*
G75*
G02*
X107849500Y-69053500I0J147500D01*
G01*
X107849500Y-68758500D01*
G75*
G02*
X107997000Y-68611000I147500J0D01*
G01*
G37*
G36*
G01*
X107997000Y-67641000D02*
X108342000Y-67641000D01*
G75*
G02*
X108489500Y-67788500I0J-147500D01*
G01*
X108489500Y-68083500D01*
G75*
G02*
X108342000Y-68231000I-147500J0D01*
G01*
X107997000Y-68231000D01*
G75*
G02*
X107849500Y-68083500I0J147500D01*
G01*
X107849500Y-67788500D01*
G75*
G02*
X107997000Y-67641000I147500J0D01*
G01*
G37*
G36*
G01*
X107997000Y-71786000D02*
X108342000Y-71786000D01*
G75*
G02*
X108489500Y-71933500I0J-147500D01*
G01*
X108489500Y-72228500D01*
G75*
G02*
X108342000Y-72376000I-147500J0D01*
G01*
X107997000Y-72376000D01*
G75*
G02*
X107849500Y-72228500I0J147500D01*
G01*
X107849500Y-71933500D01*
G75*
G02*
X107997000Y-71786000I147500J0D01*
G01*
G37*
G36*
G01*
X107997000Y-70816000D02*
X108342000Y-70816000D01*
G75*
G02*
X108489500Y-70963500I0J-147500D01*
G01*
X108489500Y-71258500D01*
G75*
G02*
X108342000Y-71406000I-147500J0D01*
G01*
X107997000Y-71406000D01*
G75*
G02*
X107849500Y-71258500I0J147500D01*
G01*
X107849500Y-70963500D01*
G75*
G02*
X107997000Y-70816000I147500J0D01*
G01*
G37*
G36*
G01*
X111171000Y-87561000D02*
X111516000Y-87561000D01*
G75*
G02*
X111663500Y-87708500I0J-147500D01*
G01*
X111663500Y-88003500D01*
G75*
G02*
X111516000Y-88151000I-147500J0D01*
G01*
X111171000Y-88151000D01*
G75*
G02*
X111023500Y-88003500I0J147500D01*
G01*
X111023500Y-87708500D01*
G75*
G02*
X111171000Y-87561000I147500J0D01*
G01*
G37*
G36*
G01*
X111171000Y-86591000D02*
X111516000Y-86591000D01*
G75*
G02*
X111663500Y-86738500I0J-147500D01*
G01*
X111663500Y-87033500D01*
G75*
G02*
X111516000Y-87181000I-147500J0D01*
G01*
X111171000Y-87181000D01*
G75*
G02*
X111023500Y-87033500I0J147500D01*
G01*
X111023500Y-86738500D01*
G75*
G02*
X111171000Y-86591000I147500J0D01*
G01*
G37*
G36*
G01*
X111516000Y-90356000D02*
X111171000Y-90356000D01*
G75*
G02*
X111023500Y-90208500I0J147500D01*
G01*
X111023500Y-89913500D01*
G75*
G02*
X111171000Y-89766000I147500J0D01*
G01*
X111516000Y-89766000D01*
G75*
G02*
X111663500Y-89913500I0J-147500D01*
G01*
X111663500Y-90208500D01*
G75*
G02*
X111516000Y-90356000I-147500J0D01*
G01*
G37*
G36*
G01*
X111516000Y-91326000D02*
X111171000Y-91326000D01*
G75*
G02*
X111023500Y-91178500I0J147500D01*
G01*
X111023500Y-90883500D01*
G75*
G02*
X111171000Y-90736000I147500J0D01*
G01*
X111516000Y-90736000D01*
G75*
G02*
X111663500Y-90883500I0J-147500D01*
G01*
X111663500Y-91178500D01*
G75*
G02*
X111516000Y-91326000I-147500J0D01*
G01*
G37*
G36*
G01*
X113121500Y-85956000D02*
X113121500Y-85611000D01*
G75*
G02*
X113269000Y-85463500I147500J0D01*
G01*
X113564000Y-85463500D01*
G75*
G02*
X113711500Y-85611000I0J-147500D01*
G01*
X113711500Y-85956000D01*
G75*
G02*
X113564000Y-86103500I-147500J0D01*
G01*
X113269000Y-86103500D01*
G75*
G02*
X113121500Y-85956000I0J147500D01*
G01*
G37*
G36*
G01*
X112151500Y-85956000D02*
X112151500Y-85611000D01*
G75*
G02*
X112299000Y-85463500I147500J0D01*
G01*
X112594000Y-85463500D01*
G75*
G02*
X112741500Y-85611000I0J-147500D01*
G01*
X112741500Y-85956000D01*
G75*
G02*
X112594000Y-86103500I-147500J0D01*
G01*
X112299000Y-86103500D01*
G75*
G02*
X112151500Y-85956000I0J147500D01*
G01*
G37*
G36*
G01*
X112919125Y-87114673D02*
X112675173Y-87358625D01*
G75*
G02*
X112466577Y-87358625I-104298J104298D01*
G01*
X112257981Y-87150029D01*
G75*
G02*
X112257981Y-86941433I104298J104298D01*
G01*
X112501933Y-86697481D01*
G75*
G02*
X112710529Y-86697481I104298J-104298D01*
G01*
X112919125Y-86906077D01*
G75*
G02*
X112919125Y-87114673I-104298J-104298D01*
G01*
G37*
G36*
G01*
X113605019Y-87800567D02*
X113361067Y-88044519D01*
G75*
G02*
X113152471Y-88044519I-104298J104298D01*
G01*
X112943875Y-87835923D01*
G75*
G02*
X112943875Y-87627327I104298J104298D01*
G01*
X113187827Y-87383375D01*
G75*
G02*
X113396423Y-87383375I104298J-104298D01*
G01*
X113605019Y-87591971D01*
G75*
G02*
X113605019Y-87800567I-104298J-104298D01*
G01*
G37*
G36*
G01*
X112741500Y-88786000D02*
X112741500Y-89131000D01*
G75*
G02*
X112594000Y-89278500I-147500J0D01*
G01*
X112299000Y-89278500D01*
G75*
G02*
X112151500Y-89131000I0J147500D01*
G01*
X112151500Y-88786000D01*
G75*
G02*
X112299000Y-88638500I147500J0D01*
G01*
X112594000Y-88638500D01*
G75*
G02*
X112741500Y-88786000I0J-147500D01*
G01*
G37*
G36*
G01*
X113711500Y-88786000D02*
X113711500Y-89131000D01*
G75*
G02*
X113564000Y-89278500I-147500J0D01*
G01*
X113269000Y-89278500D01*
G75*
G02*
X113121500Y-89131000I0J147500D01*
G01*
X113121500Y-88786000D01*
G75*
G02*
X113269000Y-88638500I147500J0D01*
G01*
X113564000Y-88638500D01*
G75*
G02*
X113711500Y-88786000I0J-147500D01*
G01*
G37*
G36*
G01*
X112675173Y-90558375D02*
X112919125Y-90802327D01*
G75*
G02*
X112919125Y-91010923I-104298J-104298D01*
G01*
X112710529Y-91219519D01*
G75*
G02*
X112501933Y-91219519I-104298J104298D01*
G01*
X112257981Y-90975567D01*
G75*
G02*
X112257981Y-90766971I104298J104298D01*
G01*
X112466577Y-90558375D01*
G75*
G02*
X112675173Y-90558375I104298J-104298D01*
G01*
G37*
G36*
G01*
X113361067Y-89872481D02*
X113605019Y-90116433D01*
G75*
G02*
X113605019Y-90325029I-104298J-104298D01*
G01*
X113396423Y-90533625D01*
G75*
G02*
X113187827Y-90533625I-104298J104298D01*
G01*
X112943875Y-90289673D01*
G75*
G02*
X112943875Y-90081077I104298J104298D01*
G01*
X113152471Y-89872481D01*
G75*
G02*
X113361067Y-89872481I104298J-104298D01*
G01*
G37*
G36*
G01*
X113121500Y-92306000D02*
X113121500Y-91961000D01*
G75*
G02*
X113269000Y-91813500I147500J0D01*
G01*
X113564000Y-91813500D01*
G75*
G02*
X113711500Y-91961000I0J-147500D01*
G01*
X113711500Y-92306000D01*
G75*
G02*
X113564000Y-92453500I-147500J0D01*
G01*
X113269000Y-92453500D01*
G75*
G02*
X113121500Y-92306000I0J147500D01*
G01*
G37*
G36*
G01*
X112151500Y-92306000D02*
X112151500Y-91961000D01*
G75*
G02*
X112299000Y-91813500I147500J0D01*
G01*
X112594000Y-91813500D01*
G75*
G02*
X112741500Y-91961000I0J-147500D01*
G01*
X112741500Y-92306000D01*
G75*
G02*
X112594000Y-92453500I-147500J0D01*
G01*
X112299000Y-92453500D01*
G75*
G02*
X112151500Y-92306000I0J147500D01*
G01*
G37*
G36*
G01*
X114347000Y-87561000D02*
X114692000Y-87561000D01*
G75*
G02*
X114839500Y-87708500I0J-147500D01*
G01*
X114839500Y-88003500D01*
G75*
G02*
X114692000Y-88151000I-147500J0D01*
G01*
X114347000Y-88151000D01*
G75*
G02*
X114199500Y-88003500I0J147500D01*
G01*
X114199500Y-87708500D01*
G75*
G02*
X114347000Y-87561000I147500J0D01*
G01*
G37*
G36*
G01*
X114347000Y-86591000D02*
X114692000Y-86591000D01*
G75*
G02*
X114839500Y-86738500I0J-147500D01*
G01*
X114839500Y-87033500D01*
G75*
G02*
X114692000Y-87181000I-147500J0D01*
G01*
X114347000Y-87181000D01*
G75*
G02*
X114199500Y-87033500I0J147500D01*
G01*
X114199500Y-86738500D01*
G75*
G02*
X114347000Y-86591000I147500J0D01*
G01*
G37*
G36*
G01*
X114347000Y-90736000D02*
X114692000Y-90736000D01*
G75*
G02*
X114839500Y-90883500I0J-147500D01*
G01*
X114839500Y-91178500D01*
G75*
G02*
X114692000Y-91326000I-147500J0D01*
G01*
X114347000Y-91326000D01*
G75*
G02*
X114199500Y-91178500I0J147500D01*
G01*
X114199500Y-90883500D01*
G75*
G02*
X114347000Y-90736000I147500J0D01*
G01*
G37*
G36*
G01*
X114347000Y-89766000D02*
X114692000Y-89766000D01*
G75*
G02*
X114839500Y-89913500I0J-147500D01*
G01*
X114839500Y-90208500D01*
G75*
G02*
X114692000Y-90356000I-147500J0D01*
G01*
X114347000Y-90356000D01*
G75*
G02*
X114199500Y-90208500I0J147500D01*
G01*
X114199500Y-89913500D01*
G75*
G02*
X114347000Y-89766000I147500J0D01*
G01*
G37*
G36*
G01*
X116296500Y-85956000D02*
X116296500Y-85611000D01*
G75*
G02*
X116444000Y-85463500I147500J0D01*
G01*
X116739000Y-85463500D01*
G75*
G02*
X116886500Y-85611000I0J-147500D01*
G01*
X116886500Y-85956000D01*
G75*
G02*
X116739000Y-86103500I-147500J0D01*
G01*
X116444000Y-86103500D01*
G75*
G02*
X116296500Y-85956000I0J147500D01*
G01*
G37*
G36*
G01*
X115326500Y-85956000D02*
X115326500Y-85611000D01*
G75*
G02*
X115474000Y-85463500I147500J0D01*
G01*
X115769000Y-85463500D01*
G75*
G02*
X115916500Y-85611000I0J-147500D01*
G01*
X115916500Y-85956000D01*
G75*
G02*
X115769000Y-86103500I-147500J0D01*
G01*
X115474000Y-86103500D01*
G75*
G02*
X115326500Y-85956000I0J147500D01*
G01*
G37*
G36*
G01*
X116362827Y-87358625D02*
X116118875Y-87114673D01*
G75*
G02*
X116118875Y-86906077I104298J104298D01*
G01*
X116327471Y-86697481D01*
G75*
G02*
X116536067Y-86697481I104298J-104298D01*
G01*
X116780019Y-86941433D01*
G75*
G02*
X116780019Y-87150029I-104298J-104298D01*
G01*
X116571423Y-87358625D01*
G75*
G02*
X116362827Y-87358625I-104298J104298D01*
G01*
G37*
G36*
G01*
X115676933Y-88044519D02*
X115432981Y-87800567D01*
G75*
G02*
X115432981Y-87591971I104298J104298D01*
G01*
X115641577Y-87383375D01*
G75*
G02*
X115850173Y-87383375I104298J-104298D01*
G01*
X116094125Y-87627327D01*
G75*
G02*
X116094125Y-87835923I-104298J-104298D01*
G01*
X115885529Y-88044519D01*
G75*
G02*
X115676933Y-88044519I-104298J104298D01*
G01*
G37*
G36*
G01*
X116296500Y-89131000D02*
X116296500Y-88786000D01*
G75*
G02*
X116444000Y-88638500I147500J0D01*
G01*
X116739000Y-88638500D01*
G75*
G02*
X116886500Y-88786000I0J-147500D01*
G01*
X116886500Y-89131000D01*
G75*
G02*
X116739000Y-89278500I-147500J0D01*
G01*
X116444000Y-89278500D01*
G75*
G02*
X116296500Y-89131000I0J147500D01*
G01*
G37*
G36*
G01*
X115326500Y-89131000D02*
X115326500Y-88786000D01*
G75*
G02*
X115474000Y-88638500I147500J0D01*
G01*
X115769000Y-88638500D01*
G75*
G02*
X115916500Y-88786000I0J-147500D01*
G01*
X115916500Y-89131000D01*
G75*
G02*
X115769000Y-89278500I-147500J0D01*
G01*
X115474000Y-89278500D01*
G75*
G02*
X115326500Y-89131000I0J147500D01*
G01*
G37*
G36*
G01*
X116118875Y-90802327D02*
X116362827Y-90558375D01*
G75*
G02*
X116571423Y-90558375I104298J-104298D01*
G01*
X116780019Y-90766971D01*
G75*
G02*
X116780019Y-90975567I-104298J-104298D01*
G01*
X116536067Y-91219519D01*
G75*
G02*
X116327471Y-91219519I-104298J104298D01*
G01*
X116118875Y-91010923D01*
G75*
G02*
X116118875Y-90802327I104298J104298D01*
G01*
G37*
G36*
G01*
X115432981Y-90116433D02*
X115676933Y-89872481D01*
G75*
G02*
X115885529Y-89872481I104298J-104298D01*
G01*
X116094125Y-90081077D01*
G75*
G02*
X116094125Y-90289673I-104298J-104298D01*
G01*
X115850173Y-90533625D01*
G75*
G02*
X115641577Y-90533625I-104298J104298D01*
G01*
X115432981Y-90325029D01*
G75*
G02*
X115432981Y-90116433I104298J104298D01*
G01*
G37*
G36*
G01*
X116296500Y-92306000D02*
X116296500Y-91961000D01*
G75*
G02*
X116444000Y-91813500I147500J0D01*
G01*
X116739000Y-91813500D01*
G75*
G02*
X116886500Y-91961000I0J-147500D01*
G01*
X116886500Y-92306000D01*
G75*
G02*
X116739000Y-92453500I-147500J0D01*
G01*
X116444000Y-92453500D01*
G75*
G02*
X116296500Y-92306000I0J147500D01*
G01*
G37*
G36*
G01*
X115326500Y-92306000D02*
X115326500Y-91961000D01*
G75*
G02*
X115474000Y-91813500I147500J0D01*
G01*
X115769000Y-91813500D01*
G75*
G02*
X115916500Y-91961000I0J-147500D01*
G01*
X115916500Y-92306000D01*
G75*
G02*
X115769000Y-92453500I-147500J0D01*
G01*
X115474000Y-92453500D01*
G75*
G02*
X115326500Y-92306000I0J147500D01*
G01*
G37*
G36*
G01*
X117521000Y-87561000D02*
X117866000Y-87561000D01*
G75*
G02*
X118013500Y-87708500I0J-147500D01*
G01*
X118013500Y-88003500D01*
G75*
G02*
X117866000Y-88151000I-147500J0D01*
G01*
X117521000Y-88151000D01*
G75*
G02*
X117373500Y-88003500I0J147500D01*
G01*
X117373500Y-87708500D01*
G75*
G02*
X117521000Y-87561000I147500J0D01*
G01*
G37*
G36*
G01*
X117521000Y-86591000D02*
X117866000Y-86591000D01*
G75*
G02*
X118013500Y-86738500I0J-147500D01*
G01*
X118013500Y-87033500D01*
G75*
G02*
X117866000Y-87181000I-147500J0D01*
G01*
X117521000Y-87181000D01*
G75*
G02*
X117373500Y-87033500I0J147500D01*
G01*
X117373500Y-86738500D01*
G75*
G02*
X117521000Y-86591000I147500J0D01*
G01*
G37*
G36*
G01*
X117866000Y-90356000D02*
X117521000Y-90356000D01*
G75*
G02*
X117373500Y-90208500I0J147500D01*
G01*
X117373500Y-89913500D01*
G75*
G02*
X117521000Y-89766000I147500J0D01*
G01*
X117866000Y-89766000D01*
G75*
G02*
X118013500Y-89913500I0J-147500D01*
G01*
X118013500Y-90208500D01*
G75*
G02*
X117866000Y-90356000I-147500J0D01*
G01*
G37*
G36*
G01*
X117866000Y-91326000D02*
X117521000Y-91326000D01*
G75*
G02*
X117373500Y-91178500I0J147500D01*
G01*
X117373500Y-90883500D01*
G75*
G02*
X117521000Y-90736000I147500J0D01*
G01*
X117866000Y-90736000D01*
G75*
G02*
X118013500Y-90883500I0J-147500D01*
G01*
X118013500Y-91178500D01*
G75*
G02*
X117866000Y-91326000I-147500J0D01*
G01*
G37*
G36*
G01*
X121331000Y-87561000D02*
X121676000Y-87561000D01*
G75*
G02*
X121823500Y-87708500I0J-147500D01*
G01*
X121823500Y-88003500D01*
G75*
G02*
X121676000Y-88151000I-147500J0D01*
G01*
X121331000Y-88151000D01*
G75*
G02*
X121183500Y-88003500I0J147500D01*
G01*
X121183500Y-87708500D01*
G75*
G02*
X121331000Y-87561000I147500J0D01*
G01*
G37*
G36*
G01*
X121331000Y-86591000D02*
X121676000Y-86591000D01*
G75*
G02*
X121823500Y-86738500I0J-147500D01*
G01*
X121823500Y-87033500D01*
G75*
G02*
X121676000Y-87181000I-147500J0D01*
G01*
X121331000Y-87181000D01*
G75*
G02*
X121183500Y-87033500I0J147500D01*
G01*
X121183500Y-86738500D01*
G75*
G02*
X121331000Y-86591000I147500J0D01*
G01*
G37*
G36*
G01*
X121676000Y-90356000D02*
X121331000Y-90356000D01*
G75*
G02*
X121183500Y-90208500I0J147500D01*
G01*
X121183500Y-89913500D01*
G75*
G02*
X121331000Y-89766000I147500J0D01*
G01*
X121676000Y-89766000D01*
G75*
G02*
X121823500Y-89913500I0J-147500D01*
G01*
X121823500Y-90208500D01*
G75*
G02*
X121676000Y-90356000I-147500J0D01*
G01*
G37*
G36*
G01*
X121676000Y-91326000D02*
X121331000Y-91326000D01*
G75*
G02*
X121183500Y-91178500I0J147500D01*
G01*
X121183500Y-90883500D01*
G75*
G02*
X121331000Y-90736000I147500J0D01*
G01*
X121676000Y-90736000D01*
G75*
G02*
X121823500Y-90883500I0J-147500D01*
G01*
X121823500Y-91178500D01*
G75*
G02*
X121676000Y-91326000I-147500J0D01*
G01*
G37*
G36*
G01*
X123281500Y-85956000D02*
X123281500Y-85611000D01*
G75*
G02*
X123429000Y-85463500I147500J0D01*
G01*
X123724000Y-85463500D01*
G75*
G02*
X123871500Y-85611000I0J-147500D01*
G01*
X123871500Y-85956000D01*
G75*
G02*
X123724000Y-86103500I-147500J0D01*
G01*
X123429000Y-86103500D01*
G75*
G02*
X123281500Y-85956000I0J147500D01*
G01*
G37*
G36*
G01*
X122311500Y-85956000D02*
X122311500Y-85611000D01*
G75*
G02*
X122459000Y-85463500I147500J0D01*
G01*
X122754000Y-85463500D01*
G75*
G02*
X122901500Y-85611000I0J-147500D01*
G01*
X122901500Y-85956000D01*
G75*
G02*
X122754000Y-86103500I-147500J0D01*
G01*
X122459000Y-86103500D01*
G75*
G02*
X122311500Y-85956000I0J147500D01*
G01*
G37*
G36*
G01*
X123079125Y-87114673D02*
X122835173Y-87358625D01*
G75*
G02*
X122626577Y-87358625I-104298J104298D01*
G01*
X122417981Y-87150029D01*
G75*
G02*
X122417981Y-86941433I104298J104298D01*
G01*
X122661933Y-86697481D01*
G75*
G02*
X122870529Y-86697481I104298J-104298D01*
G01*
X123079125Y-86906077D01*
G75*
G02*
X123079125Y-87114673I-104298J-104298D01*
G01*
G37*
G36*
G01*
X123765019Y-87800567D02*
X123521067Y-88044519D01*
G75*
G02*
X123312471Y-88044519I-104298J104298D01*
G01*
X123103875Y-87835923D01*
G75*
G02*
X123103875Y-87627327I104298J104298D01*
G01*
X123347827Y-87383375D01*
G75*
G02*
X123556423Y-87383375I104298J-104298D01*
G01*
X123765019Y-87591971D01*
G75*
G02*
X123765019Y-87800567I-104298J-104298D01*
G01*
G37*
G36*
G01*
X122901500Y-88786000D02*
X122901500Y-89131000D01*
G75*
G02*
X122754000Y-89278500I-147500J0D01*
G01*
X122459000Y-89278500D01*
G75*
G02*
X122311500Y-89131000I0J147500D01*
G01*
X122311500Y-88786000D01*
G75*
G02*
X122459000Y-88638500I147500J0D01*
G01*
X122754000Y-88638500D01*
G75*
G02*
X122901500Y-88786000I0J-147500D01*
G01*
G37*
G36*
G01*
X123871500Y-88786000D02*
X123871500Y-89131000D01*
G75*
G02*
X123724000Y-89278500I-147500J0D01*
G01*
X123429000Y-89278500D01*
G75*
G02*
X123281500Y-89131000I0J147500D01*
G01*
X123281500Y-88786000D01*
G75*
G02*
X123429000Y-88638500I147500J0D01*
G01*
X123724000Y-88638500D01*
G75*
G02*
X123871500Y-88786000I0J-147500D01*
G01*
G37*
G36*
G01*
X122835173Y-90558375D02*
X123079125Y-90802327D01*
G75*
G02*
X123079125Y-91010923I-104298J-104298D01*
G01*
X122870529Y-91219519D01*
G75*
G02*
X122661933Y-91219519I-104298J104298D01*
G01*
X122417981Y-90975567D01*
G75*
G02*
X122417981Y-90766971I104298J104298D01*
G01*
X122626577Y-90558375D01*
G75*
G02*
X122835173Y-90558375I104298J-104298D01*
G01*
G37*
G36*
G01*
X123521067Y-89872481D02*
X123765019Y-90116433D01*
G75*
G02*
X123765019Y-90325029I-104298J-104298D01*
G01*
X123556423Y-90533625D01*
G75*
G02*
X123347827Y-90533625I-104298J104298D01*
G01*
X123103875Y-90289673D01*
G75*
G02*
X123103875Y-90081077I104298J104298D01*
G01*
X123312471Y-89872481D01*
G75*
G02*
X123521067Y-89872481I104298J-104298D01*
G01*
G37*
G36*
G01*
X123281500Y-92306000D02*
X123281500Y-91961000D01*
G75*
G02*
X123429000Y-91813500I147500J0D01*
G01*
X123724000Y-91813500D01*
G75*
G02*
X123871500Y-91961000I0J-147500D01*
G01*
X123871500Y-92306000D01*
G75*
G02*
X123724000Y-92453500I-147500J0D01*
G01*
X123429000Y-92453500D01*
G75*
G02*
X123281500Y-92306000I0J147500D01*
G01*
G37*
G36*
G01*
X122311500Y-92306000D02*
X122311500Y-91961000D01*
G75*
G02*
X122459000Y-91813500I147500J0D01*
G01*
X122754000Y-91813500D01*
G75*
G02*
X122901500Y-91961000I0J-147500D01*
G01*
X122901500Y-92306000D01*
G75*
G02*
X122754000Y-92453500I-147500J0D01*
G01*
X122459000Y-92453500D01*
G75*
G02*
X122311500Y-92306000I0J147500D01*
G01*
G37*
G36*
G01*
X124507000Y-87561000D02*
X124852000Y-87561000D01*
G75*
G02*
X124999500Y-87708500I0J-147500D01*
G01*
X124999500Y-88003500D01*
G75*
G02*
X124852000Y-88151000I-147500J0D01*
G01*
X124507000Y-88151000D01*
G75*
G02*
X124359500Y-88003500I0J147500D01*
G01*
X124359500Y-87708500D01*
G75*
G02*
X124507000Y-87561000I147500J0D01*
G01*
G37*
G36*
G01*
X124507000Y-86591000D02*
X124852000Y-86591000D01*
G75*
G02*
X124999500Y-86738500I0J-147500D01*
G01*
X124999500Y-87033500D01*
G75*
G02*
X124852000Y-87181000I-147500J0D01*
G01*
X124507000Y-87181000D01*
G75*
G02*
X124359500Y-87033500I0J147500D01*
G01*
X124359500Y-86738500D01*
G75*
G02*
X124507000Y-86591000I147500J0D01*
G01*
G37*
G36*
G01*
X124507000Y-90736000D02*
X124852000Y-90736000D01*
G75*
G02*
X124999500Y-90883500I0J-147500D01*
G01*
X124999500Y-91178500D01*
G75*
G02*
X124852000Y-91326000I-147500J0D01*
G01*
X124507000Y-91326000D01*
G75*
G02*
X124359500Y-91178500I0J147500D01*
G01*
X124359500Y-90883500D01*
G75*
G02*
X124507000Y-90736000I147500J0D01*
G01*
G37*
G36*
G01*
X124507000Y-89766000D02*
X124852000Y-89766000D01*
G75*
G02*
X124999500Y-89913500I0J-147500D01*
G01*
X124999500Y-90208500D01*
G75*
G02*
X124852000Y-90356000I-147500J0D01*
G01*
X124507000Y-90356000D01*
G75*
G02*
X124359500Y-90208500I0J147500D01*
G01*
X124359500Y-89913500D01*
G75*
G02*
X124507000Y-89766000I147500J0D01*
G01*
G37*
G36*
G01*
X126456500Y-85956000D02*
X126456500Y-85611000D01*
G75*
G02*
X126604000Y-85463500I147500J0D01*
G01*
X126899000Y-85463500D01*
G75*
G02*
X127046500Y-85611000I0J-147500D01*
G01*
X127046500Y-85956000D01*
G75*
G02*
X126899000Y-86103500I-147500J0D01*
G01*
X126604000Y-86103500D01*
G75*
G02*
X126456500Y-85956000I0J147500D01*
G01*
G37*
G36*
G01*
X125486500Y-85956000D02*
X125486500Y-85611000D01*
G75*
G02*
X125634000Y-85463500I147500J0D01*
G01*
X125929000Y-85463500D01*
G75*
G02*
X126076500Y-85611000I0J-147500D01*
G01*
X126076500Y-85956000D01*
G75*
G02*
X125929000Y-86103500I-147500J0D01*
G01*
X125634000Y-86103500D01*
G75*
G02*
X125486500Y-85956000I0J147500D01*
G01*
G37*
G36*
G01*
X126522827Y-87358625D02*
X126278875Y-87114673D01*
G75*
G02*
X126278875Y-86906077I104298J104298D01*
G01*
X126487471Y-86697481D01*
G75*
G02*
X126696067Y-86697481I104298J-104298D01*
G01*
X126940019Y-86941433D01*
G75*
G02*
X126940019Y-87150029I-104298J-104298D01*
G01*
X126731423Y-87358625D01*
G75*
G02*
X126522827Y-87358625I-104298J104298D01*
G01*
G37*
G36*
G01*
X125836933Y-88044519D02*
X125592981Y-87800567D01*
G75*
G02*
X125592981Y-87591971I104298J104298D01*
G01*
X125801577Y-87383375D01*
G75*
G02*
X126010173Y-87383375I104298J-104298D01*
G01*
X126254125Y-87627327D01*
G75*
G02*
X126254125Y-87835923I-104298J-104298D01*
G01*
X126045529Y-88044519D01*
G75*
G02*
X125836933Y-88044519I-104298J104298D01*
G01*
G37*
G36*
G01*
X126456500Y-89131000D02*
X126456500Y-88786000D01*
G75*
G02*
X126604000Y-88638500I147500J0D01*
G01*
X126899000Y-88638500D01*
G75*
G02*
X127046500Y-88786000I0J-147500D01*
G01*
X127046500Y-89131000D01*
G75*
G02*
X126899000Y-89278500I-147500J0D01*
G01*
X126604000Y-89278500D01*
G75*
G02*
X126456500Y-89131000I0J147500D01*
G01*
G37*
G36*
G01*
X125486500Y-89131000D02*
X125486500Y-88786000D01*
G75*
G02*
X125634000Y-88638500I147500J0D01*
G01*
X125929000Y-88638500D01*
G75*
G02*
X126076500Y-88786000I0J-147500D01*
G01*
X126076500Y-89131000D01*
G75*
G02*
X125929000Y-89278500I-147500J0D01*
G01*
X125634000Y-89278500D01*
G75*
G02*
X125486500Y-89131000I0J147500D01*
G01*
G37*
G36*
G01*
X126278875Y-90802327D02*
X126522827Y-90558375D01*
G75*
G02*
X126731423Y-90558375I104298J-104298D01*
G01*
X126940019Y-90766971D01*
G75*
G02*
X126940019Y-90975567I-104298J-104298D01*
G01*
X126696067Y-91219519D01*
G75*
G02*
X126487471Y-91219519I-104298J104298D01*
G01*
X126278875Y-91010923D01*
G75*
G02*
X126278875Y-90802327I104298J104298D01*
G01*
G37*
G36*
G01*
X125592981Y-90116433D02*
X125836933Y-89872481D01*
G75*
G02*
X126045529Y-89872481I104298J-104298D01*
G01*
X126254125Y-90081077D01*
G75*
G02*
X126254125Y-90289673I-104298J-104298D01*
G01*
X126010173Y-90533625D01*
G75*
G02*
X125801577Y-90533625I-104298J104298D01*
G01*
X125592981Y-90325029D01*
G75*
G02*
X125592981Y-90116433I104298J104298D01*
G01*
G37*
G36*
G01*
X126456500Y-92306000D02*
X126456500Y-91961000D01*
G75*
G02*
X126604000Y-91813500I147500J0D01*
G01*
X126899000Y-91813500D01*
G75*
G02*
X127046500Y-91961000I0J-147500D01*
G01*
X127046500Y-92306000D01*
G75*
G02*
X126899000Y-92453500I-147500J0D01*
G01*
X126604000Y-92453500D01*
G75*
G02*
X126456500Y-92306000I0J147500D01*
G01*
G37*
G36*
G01*
X125486500Y-92306000D02*
X125486500Y-91961000D01*
G75*
G02*
X125634000Y-91813500I147500J0D01*
G01*
X125929000Y-91813500D01*
G75*
G02*
X126076500Y-91961000I0J-147500D01*
G01*
X126076500Y-92306000D01*
G75*
G02*
X125929000Y-92453500I-147500J0D01*
G01*
X125634000Y-92453500D01*
G75*
G02*
X125486500Y-92306000I0J147500D01*
G01*
G37*
G36*
G01*
X127681000Y-87561000D02*
X128026000Y-87561000D01*
G75*
G02*
X128173500Y-87708500I0J-147500D01*
G01*
X128173500Y-88003500D01*
G75*
G02*
X128026000Y-88151000I-147500J0D01*
G01*
X127681000Y-88151000D01*
G75*
G02*
X127533500Y-88003500I0J147500D01*
G01*
X127533500Y-87708500D01*
G75*
G02*
X127681000Y-87561000I147500J0D01*
G01*
G37*
G36*
G01*
X127681000Y-86591000D02*
X128026000Y-86591000D01*
G75*
G02*
X128173500Y-86738500I0J-147500D01*
G01*
X128173500Y-87033500D01*
G75*
G02*
X128026000Y-87181000I-147500J0D01*
G01*
X127681000Y-87181000D01*
G75*
G02*
X127533500Y-87033500I0J147500D01*
G01*
X127533500Y-86738500D01*
G75*
G02*
X127681000Y-86591000I147500J0D01*
G01*
G37*
G36*
G01*
X128026000Y-90356000D02*
X127681000Y-90356000D01*
G75*
G02*
X127533500Y-90208500I0J147500D01*
G01*
X127533500Y-89913500D01*
G75*
G02*
X127681000Y-89766000I147500J0D01*
G01*
X128026000Y-89766000D01*
G75*
G02*
X128173500Y-89913500I0J-147500D01*
G01*
X128173500Y-90208500D01*
G75*
G02*
X128026000Y-90356000I-147500J0D01*
G01*
G37*
G36*
G01*
X128026000Y-91326000D02*
X127681000Y-91326000D01*
G75*
G02*
X127533500Y-91178500I0J147500D01*
G01*
X127533500Y-90883500D01*
G75*
G02*
X127681000Y-90736000I147500J0D01*
G01*
X128026000Y-90736000D01*
G75*
G02*
X128173500Y-90883500I0J-147500D01*
G01*
X128173500Y-91178500D01*
G75*
G02*
X128026000Y-91326000I-147500J0D01*
G01*
G37*
G36*
G01*
X131491000Y-87561000D02*
X131836000Y-87561000D01*
G75*
G02*
X131983500Y-87708500I0J-147500D01*
G01*
X131983500Y-88003500D01*
G75*
G02*
X131836000Y-88151000I-147500J0D01*
G01*
X131491000Y-88151000D01*
G75*
G02*
X131343500Y-88003500I0J147500D01*
G01*
X131343500Y-87708500D01*
G75*
G02*
X131491000Y-87561000I147500J0D01*
G01*
G37*
G36*
G01*
X131491000Y-86591000D02*
X131836000Y-86591000D01*
G75*
G02*
X131983500Y-86738500I0J-147500D01*
G01*
X131983500Y-87033500D01*
G75*
G02*
X131836000Y-87181000I-147500J0D01*
G01*
X131491000Y-87181000D01*
G75*
G02*
X131343500Y-87033500I0J147500D01*
G01*
X131343500Y-86738500D01*
G75*
G02*
X131491000Y-86591000I147500J0D01*
G01*
G37*
G36*
G01*
X131836000Y-90356000D02*
X131491000Y-90356000D01*
G75*
G02*
X131343500Y-90208500I0J147500D01*
G01*
X131343500Y-89913500D01*
G75*
G02*
X131491000Y-89766000I147500J0D01*
G01*
X131836000Y-89766000D01*
G75*
G02*
X131983500Y-89913500I0J-147500D01*
G01*
X131983500Y-90208500D01*
G75*
G02*
X131836000Y-90356000I-147500J0D01*
G01*
G37*
G36*
G01*
X131836000Y-91326000D02*
X131491000Y-91326000D01*
G75*
G02*
X131343500Y-91178500I0J147500D01*
G01*
X131343500Y-90883500D01*
G75*
G02*
X131491000Y-90736000I147500J0D01*
G01*
X131836000Y-90736000D01*
G75*
G02*
X131983500Y-90883500I0J-147500D01*
G01*
X131983500Y-91178500D01*
G75*
G02*
X131836000Y-91326000I-147500J0D01*
G01*
G37*
G36*
G01*
X133441500Y-85956000D02*
X133441500Y-85611000D01*
G75*
G02*
X133589000Y-85463500I147500J0D01*
G01*
X133884000Y-85463500D01*
G75*
G02*
X134031500Y-85611000I0J-147500D01*
G01*
X134031500Y-85956000D01*
G75*
G02*
X133884000Y-86103500I-147500J0D01*
G01*
X133589000Y-86103500D01*
G75*
G02*
X133441500Y-85956000I0J147500D01*
G01*
G37*
G36*
G01*
X132471500Y-85956000D02*
X132471500Y-85611000D01*
G75*
G02*
X132619000Y-85463500I147500J0D01*
G01*
X132914000Y-85463500D01*
G75*
G02*
X133061500Y-85611000I0J-147500D01*
G01*
X133061500Y-85956000D01*
G75*
G02*
X132914000Y-86103500I-147500J0D01*
G01*
X132619000Y-86103500D01*
G75*
G02*
X132471500Y-85956000I0J147500D01*
G01*
G37*
G36*
G01*
X133239125Y-87114673D02*
X132995173Y-87358625D01*
G75*
G02*
X132786577Y-87358625I-104298J104298D01*
G01*
X132577981Y-87150029D01*
G75*
G02*
X132577981Y-86941433I104298J104298D01*
G01*
X132821933Y-86697481D01*
G75*
G02*
X133030529Y-86697481I104298J-104298D01*
G01*
X133239125Y-86906077D01*
G75*
G02*
X133239125Y-87114673I-104298J-104298D01*
G01*
G37*
G36*
G01*
X133925019Y-87800567D02*
X133681067Y-88044519D01*
G75*
G02*
X133472471Y-88044519I-104298J104298D01*
G01*
X133263875Y-87835923D01*
G75*
G02*
X133263875Y-87627327I104298J104298D01*
G01*
X133507827Y-87383375D01*
G75*
G02*
X133716423Y-87383375I104298J-104298D01*
G01*
X133925019Y-87591971D01*
G75*
G02*
X133925019Y-87800567I-104298J-104298D01*
G01*
G37*
G36*
G01*
X133061500Y-88786000D02*
X133061500Y-89131000D01*
G75*
G02*
X132914000Y-89278500I-147500J0D01*
G01*
X132619000Y-89278500D01*
G75*
G02*
X132471500Y-89131000I0J147500D01*
G01*
X132471500Y-88786000D01*
G75*
G02*
X132619000Y-88638500I147500J0D01*
G01*
X132914000Y-88638500D01*
G75*
G02*
X133061500Y-88786000I0J-147500D01*
G01*
G37*
G36*
G01*
X134031500Y-88786000D02*
X134031500Y-89131000D01*
G75*
G02*
X133884000Y-89278500I-147500J0D01*
G01*
X133589000Y-89278500D01*
G75*
G02*
X133441500Y-89131000I0J147500D01*
G01*
X133441500Y-88786000D01*
G75*
G02*
X133589000Y-88638500I147500J0D01*
G01*
X133884000Y-88638500D01*
G75*
G02*
X134031500Y-88786000I0J-147500D01*
G01*
G37*
G36*
G01*
X132995173Y-90558375D02*
X133239125Y-90802327D01*
G75*
G02*
X133239125Y-91010923I-104298J-104298D01*
G01*
X133030529Y-91219519D01*
G75*
G02*
X132821933Y-91219519I-104298J104298D01*
G01*
X132577981Y-90975567D01*
G75*
G02*
X132577981Y-90766971I104298J104298D01*
G01*
X132786577Y-90558375D01*
G75*
G02*
X132995173Y-90558375I104298J-104298D01*
G01*
G37*
G36*
G01*
X133681067Y-89872481D02*
X133925019Y-90116433D01*
G75*
G02*
X133925019Y-90325029I-104298J-104298D01*
G01*
X133716423Y-90533625D01*
G75*
G02*
X133507827Y-90533625I-104298J104298D01*
G01*
X133263875Y-90289673D01*
G75*
G02*
X133263875Y-90081077I104298J104298D01*
G01*
X133472471Y-89872481D01*
G75*
G02*
X133681067Y-89872481I104298J-104298D01*
G01*
G37*
G36*
G01*
X133441500Y-92306000D02*
X133441500Y-91961000D01*
G75*
G02*
X133589000Y-91813500I147500J0D01*
G01*
X133884000Y-91813500D01*
G75*
G02*
X134031500Y-91961000I0J-147500D01*
G01*
X134031500Y-92306000D01*
G75*
G02*
X133884000Y-92453500I-147500J0D01*
G01*
X133589000Y-92453500D01*
G75*
G02*
X133441500Y-92306000I0J147500D01*
G01*
G37*
G36*
G01*
X132471500Y-92306000D02*
X132471500Y-91961000D01*
G75*
G02*
X132619000Y-91813500I147500J0D01*
G01*
X132914000Y-91813500D01*
G75*
G02*
X133061500Y-91961000I0J-147500D01*
G01*
X133061500Y-92306000D01*
G75*
G02*
X132914000Y-92453500I-147500J0D01*
G01*
X132619000Y-92453500D01*
G75*
G02*
X132471500Y-92306000I0J147500D01*
G01*
G37*
G36*
G01*
X134667000Y-87561000D02*
X135012000Y-87561000D01*
G75*
G02*
X135159500Y-87708500I0J-147500D01*
G01*
X135159500Y-88003500D01*
G75*
G02*
X135012000Y-88151000I-147500J0D01*
G01*
X134667000Y-88151000D01*
G75*
G02*
X134519500Y-88003500I0J147500D01*
G01*
X134519500Y-87708500D01*
G75*
G02*
X134667000Y-87561000I147500J0D01*
G01*
G37*
G36*
G01*
X134667000Y-86591000D02*
X135012000Y-86591000D01*
G75*
G02*
X135159500Y-86738500I0J-147500D01*
G01*
X135159500Y-87033500D01*
G75*
G02*
X135012000Y-87181000I-147500J0D01*
G01*
X134667000Y-87181000D01*
G75*
G02*
X134519500Y-87033500I0J147500D01*
G01*
X134519500Y-86738500D01*
G75*
G02*
X134667000Y-86591000I147500J0D01*
G01*
G37*
G36*
G01*
X134667000Y-90736000D02*
X135012000Y-90736000D01*
G75*
G02*
X135159500Y-90883500I0J-147500D01*
G01*
X135159500Y-91178500D01*
G75*
G02*
X135012000Y-91326000I-147500J0D01*
G01*
X134667000Y-91326000D01*
G75*
G02*
X134519500Y-91178500I0J147500D01*
G01*
X134519500Y-90883500D01*
G75*
G02*
X134667000Y-90736000I147500J0D01*
G01*
G37*
G36*
G01*
X134667000Y-89766000D02*
X135012000Y-89766000D01*
G75*
G02*
X135159500Y-89913500I0J-147500D01*
G01*
X135159500Y-90208500D01*
G75*
G02*
X135012000Y-90356000I-147500J0D01*
G01*
X134667000Y-90356000D01*
G75*
G02*
X134519500Y-90208500I0J147500D01*
G01*
X134519500Y-89913500D01*
G75*
G02*
X134667000Y-89766000I147500J0D01*
G01*
G37*
G36*
G01*
X136616500Y-85956000D02*
X136616500Y-85611000D01*
G75*
G02*
X136764000Y-85463500I147500J0D01*
G01*
X137059000Y-85463500D01*
G75*
G02*
X137206500Y-85611000I0J-147500D01*
G01*
X137206500Y-85956000D01*
G75*
G02*
X137059000Y-86103500I-147500J0D01*
G01*
X136764000Y-86103500D01*
G75*
G02*
X136616500Y-85956000I0J147500D01*
G01*
G37*
G36*
G01*
X135646500Y-85956000D02*
X135646500Y-85611000D01*
G75*
G02*
X135794000Y-85463500I147500J0D01*
G01*
X136089000Y-85463500D01*
G75*
G02*
X136236500Y-85611000I0J-147500D01*
G01*
X136236500Y-85956000D01*
G75*
G02*
X136089000Y-86103500I-147500J0D01*
G01*
X135794000Y-86103500D01*
G75*
G02*
X135646500Y-85956000I0J147500D01*
G01*
G37*
G36*
G01*
X136682827Y-87358625D02*
X136438875Y-87114673D01*
G75*
G02*
X136438875Y-86906077I104298J104298D01*
G01*
X136647471Y-86697481D01*
G75*
G02*
X136856067Y-86697481I104298J-104298D01*
G01*
X137100019Y-86941433D01*
G75*
G02*
X137100019Y-87150029I-104298J-104298D01*
G01*
X136891423Y-87358625D01*
G75*
G02*
X136682827Y-87358625I-104298J104298D01*
G01*
G37*
G36*
G01*
X135996933Y-88044519D02*
X135752981Y-87800567D01*
G75*
G02*
X135752981Y-87591971I104298J104298D01*
G01*
X135961577Y-87383375D01*
G75*
G02*
X136170173Y-87383375I104298J-104298D01*
G01*
X136414125Y-87627327D01*
G75*
G02*
X136414125Y-87835923I-104298J-104298D01*
G01*
X136205529Y-88044519D01*
G75*
G02*
X135996933Y-88044519I-104298J104298D01*
G01*
G37*
G36*
G01*
X136616500Y-89131000D02*
X136616500Y-88786000D01*
G75*
G02*
X136764000Y-88638500I147500J0D01*
G01*
X137059000Y-88638500D01*
G75*
G02*
X137206500Y-88786000I0J-147500D01*
G01*
X137206500Y-89131000D01*
G75*
G02*
X137059000Y-89278500I-147500J0D01*
G01*
X136764000Y-89278500D01*
G75*
G02*
X136616500Y-89131000I0J147500D01*
G01*
G37*
G36*
G01*
X135646500Y-89131000D02*
X135646500Y-88786000D01*
G75*
G02*
X135794000Y-88638500I147500J0D01*
G01*
X136089000Y-88638500D01*
G75*
G02*
X136236500Y-88786000I0J-147500D01*
G01*
X136236500Y-89131000D01*
G75*
G02*
X136089000Y-89278500I-147500J0D01*
G01*
X135794000Y-89278500D01*
G75*
G02*
X135646500Y-89131000I0J147500D01*
G01*
G37*
G36*
G01*
X136438875Y-90802327D02*
X136682827Y-90558375D01*
G75*
G02*
X136891423Y-90558375I104298J-104298D01*
G01*
X137100019Y-90766971D01*
G75*
G02*
X137100019Y-90975567I-104298J-104298D01*
G01*
X136856067Y-91219519D01*
G75*
G02*
X136647471Y-91219519I-104298J104298D01*
G01*
X136438875Y-91010923D01*
G75*
G02*
X136438875Y-90802327I104298J104298D01*
G01*
G37*
G36*
G01*
X135752981Y-90116433D02*
X135996933Y-89872481D01*
G75*
G02*
X136205529Y-89872481I104298J-104298D01*
G01*
X136414125Y-90081077D01*
G75*
G02*
X136414125Y-90289673I-104298J-104298D01*
G01*
X136170173Y-90533625D01*
G75*
G02*
X135961577Y-90533625I-104298J104298D01*
G01*
X135752981Y-90325029D01*
G75*
G02*
X135752981Y-90116433I104298J104298D01*
G01*
G37*
G36*
G01*
X136616500Y-92306000D02*
X136616500Y-91961000D01*
G75*
G02*
X136764000Y-91813500I147500J0D01*
G01*
X137059000Y-91813500D01*
G75*
G02*
X137206500Y-91961000I0J-147500D01*
G01*
X137206500Y-92306000D01*
G75*
G02*
X137059000Y-92453500I-147500J0D01*
G01*
X136764000Y-92453500D01*
G75*
G02*
X136616500Y-92306000I0J147500D01*
G01*
G37*
G36*
G01*
X135646500Y-92306000D02*
X135646500Y-91961000D01*
G75*
G02*
X135794000Y-91813500I147500J0D01*
G01*
X136089000Y-91813500D01*
G75*
G02*
X136236500Y-91961000I0J-147500D01*
G01*
X136236500Y-92306000D01*
G75*
G02*
X136089000Y-92453500I-147500J0D01*
G01*
X135794000Y-92453500D01*
G75*
G02*
X135646500Y-92306000I0J147500D01*
G01*
G37*
G36*
G01*
X137841000Y-87561000D02*
X138186000Y-87561000D01*
G75*
G02*
X138333500Y-87708500I0J-147500D01*
G01*
X138333500Y-88003500D01*
G75*
G02*
X138186000Y-88151000I-147500J0D01*
G01*
X137841000Y-88151000D01*
G75*
G02*
X137693500Y-88003500I0J147500D01*
G01*
X137693500Y-87708500D01*
G75*
G02*
X137841000Y-87561000I147500J0D01*
G01*
G37*
G36*
G01*
X137841000Y-86591000D02*
X138186000Y-86591000D01*
G75*
G02*
X138333500Y-86738500I0J-147500D01*
G01*
X138333500Y-87033500D01*
G75*
G02*
X138186000Y-87181000I-147500J0D01*
G01*
X137841000Y-87181000D01*
G75*
G02*
X137693500Y-87033500I0J147500D01*
G01*
X137693500Y-86738500D01*
G75*
G02*
X137841000Y-86591000I147500J0D01*
G01*
G37*
G36*
G01*
X138186000Y-90356000D02*
X137841000Y-90356000D01*
G75*
G02*
X137693500Y-90208500I0J147500D01*
G01*
X137693500Y-89913500D01*
G75*
G02*
X137841000Y-89766000I147500J0D01*
G01*
X138186000Y-89766000D01*
G75*
G02*
X138333500Y-89913500I0J-147500D01*
G01*
X138333500Y-90208500D01*
G75*
G02*
X138186000Y-90356000I-147500J0D01*
G01*
G37*
G36*
G01*
X138186000Y-91326000D02*
X137841000Y-91326000D01*
G75*
G02*
X137693500Y-91178500I0J147500D01*
G01*
X137693500Y-90883500D01*
G75*
G02*
X137841000Y-90736000I147500J0D01*
G01*
X138186000Y-90736000D01*
G75*
G02*
X138333500Y-90883500I0J-147500D01*
G01*
X138333500Y-91178500D01*
G75*
G02*
X138186000Y-91326000I-147500J0D01*
G01*
G37*
G36*
G01*
X141651000Y-87561000D02*
X141996000Y-87561000D01*
G75*
G02*
X142143500Y-87708500I0J-147500D01*
G01*
X142143500Y-88003500D01*
G75*
G02*
X141996000Y-88151000I-147500J0D01*
G01*
X141651000Y-88151000D01*
G75*
G02*
X141503500Y-88003500I0J147500D01*
G01*
X141503500Y-87708500D01*
G75*
G02*
X141651000Y-87561000I147500J0D01*
G01*
G37*
G36*
G01*
X141651000Y-86591000D02*
X141996000Y-86591000D01*
G75*
G02*
X142143500Y-86738500I0J-147500D01*
G01*
X142143500Y-87033500D01*
G75*
G02*
X141996000Y-87181000I-147500J0D01*
G01*
X141651000Y-87181000D01*
G75*
G02*
X141503500Y-87033500I0J147500D01*
G01*
X141503500Y-86738500D01*
G75*
G02*
X141651000Y-86591000I147500J0D01*
G01*
G37*
G36*
G01*
X141996000Y-90356000D02*
X141651000Y-90356000D01*
G75*
G02*
X141503500Y-90208500I0J147500D01*
G01*
X141503500Y-89913500D01*
G75*
G02*
X141651000Y-89766000I147500J0D01*
G01*
X141996000Y-89766000D01*
G75*
G02*
X142143500Y-89913500I0J-147500D01*
G01*
X142143500Y-90208500D01*
G75*
G02*
X141996000Y-90356000I-147500J0D01*
G01*
G37*
G36*
G01*
X141996000Y-91326000D02*
X141651000Y-91326000D01*
G75*
G02*
X141503500Y-91178500I0J147500D01*
G01*
X141503500Y-90883500D01*
G75*
G02*
X141651000Y-90736000I147500J0D01*
G01*
X141996000Y-90736000D01*
G75*
G02*
X142143500Y-90883500I0J-147500D01*
G01*
X142143500Y-91178500D01*
G75*
G02*
X141996000Y-91326000I-147500J0D01*
G01*
G37*
G36*
G01*
X143601500Y-85956000D02*
X143601500Y-85611000D01*
G75*
G02*
X143749000Y-85463500I147500J0D01*
G01*
X144044000Y-85463500D01*
G75*
G02*
X144191500Y-85611000I0J-147500D01*
G01*
X144191500Y-85956000D01*
G75*
G02*
X144044000Y-86103500I-147500J0D01*
G01*
X143749000Y-86103500D01*
G75*
G02*
X143601500Y-85956000I0J147500D01*
G01*
G37*
G36*
G01*
X142631500Y-85956000D02*
X142631500Y-85611000D01*
G75*
G02*
X142779000Y-85463500I147500J0D01*
G01*
X143074000Y-85463500D01*
G75*
G02*
X143221500Y-85611000I0J-147500D01*
G01*
X143221500Y-85956000D01*
G75*
G02*
X143074000Y-86103500I-147500J0D01*
G01*
X142779000Y-86103500D01*
G75*
G02*
X142631500Y-85956000I0J147500D01*
G01*
G37*
G36*
G01*
X143399125Y-87114673D02*
X143155173Y-87358625D01*
G75*
G02*
X142946577Y-87358625I-104298J104298D01*
G01*
X142737981Y-87150029D01*
G75*
G02*
X142737981Y-86941433I104298J104298D01*
G01*
X142981933Y-86697481D01*
G75*
G02*
X143190529Y-86697481I104298J-104298D01*
G01*
X143399125Y-86906077D01*
G75*
G02*
X143399125Y-87114673I-104298J-104298D01*
G01*
G37*
G36*
G01*
X144085019Y-87800567D02*
X143841067Y-88044519D01*
G75*
G02*
X143632471Y-88044519I-104298J104298D01*
G01*
X143423875Y-87835923D01*
G75*
G02*
X143423875Y-87627327I104298J104298D01*
G01*
X143667827Y-87383375D01*
G75*
G02*
X143876423Y-87383375I104298J-104298D01*
G01*
X144085019Y-87591971D01*
G75*
G02*
X144085019Y-87800567I-104298J-104298D01*
G01*
G37*
G36*
G01*
X143221500Y-88786000D02*
X143221500Y-89131000D01*
G75*
G02*
X143074000Y-89278500I-147500J0D01*
G01*
X142779000Y-89278500D01*
G75*
G02*
X142631500Y-89131000I0J147500D01*
G01*
X142631500Y-88786000D01*
G75*
G02*
X142779000Y-88638500I147500J0D01*
G01*
X143074000Y-88638500D01*
G75*
G02*
X143221500Y-88786000I0J-147500D01*
G01*
G37*
G36*
G01*
X144191500Y-88786000D02*
X144191500Y-89131000D01*
G75*
G02*
X144044000Y-89278500I-147500J0D01*
G01*
X143749000Y-89278500D01*
G75*
G02*
X143601500Y-89131000I0J147500D01*
G01*
X143601500Y-88786000D01*
G75*
G02*
X143749000Y-88638500I147500J0D01*
G01*
X144044000Y-88638500D01*
G75*
G02*
X144191500Y-88786000I0J-147500D01*
G01*
G37*
G36*
G01*
X143155173Y-90558375D02*
X143399125Y-90802327D01*
G75*
G02*
X143399125Y-91010923I-104298J-104298D01*
G01*
X143190529Y-91219519D01*
G75*
G02*
X142981933Y-91219519I-104298J104298D01*
G01*
X142737981Y-90975567D01*
G75*
G02*
X142737981Y-90766971I104298J104298D01*
G01*
X142946577Y-90558375D01*
G75*
G02*
X143155173Y-90558375I104298J-104298D01*
G01*
G37*
G36*
G01*
X143841067Y-89872481D02*
X144085019Y-90116433D01*
G75*
G02*
X144085019Y-90325029I-104298J-104298D01*
G01*
X143876423Y-90533625D01*
G75*
G02*
X143667827Y-90533625I-104298J104298D01*
G01*
X143423875Y-90289673D01*
G75*
G02*
X143423875Y-90081077I104298J104298D01*
G01*
X143632471Y-89872481D01*
G75*
G02*
X143841067Y-89872481I104298J-104298D01*
G01*
G37*
G36*
G01*
X143601500Y-92306000D02*
X143601500Y-91961000D01*
G75*
G02*
X143749000Y-91813500I147500J0D01*
G01*
X144044000Y-91813500D01*
G75*
G02*
X144191500Y-91961000I0J-147500D01*
G01*
X144191500Y-92306000D01*
G75*
G02*
X144044000Y-92453500I-147500J0D01*
G01*
X143749000Y-92453500D01*
G75*
G02*
X143601500Y-92306000I0J147500D01*
G01*
G37*
G36*
G01*
X142631500Y-92306000D02*
X142631500Y-91961000D01*
G75*
G02*
X142779000Y-91813500I147500J0D01*
G01*
X143074000Y-91813500D01*
G75*
G02*
X143221500Y-91961000I0J-147500D01*
G01*
X143221500Y-92306000D01*
G75*
G02*
X143074000Y-92453500I-147500J0D01*
G01*
X142779000Y-92453500D01*
G75*
G02*
X142631500Y-92306000I0J147500D01*
G01*
G37*
G36*
G01*
X144827000Y-87561000D02*
X145172000Y-87561000D01*
G75*
G02*
X145319500Y-87708500I0J-147500D01*
G01*
X145319500Y-88003500D01*
G75*
G02*
X145172000Y-88151000I-147500J0D01*
G01*
X144827000Y-88151000D01*
G75*
G02*
X144679500Y-88003500I0J147500D01*
G01*
X144679500Y-87708500D01*
G75*
G02*
X144827000Y-87561000I147500J0D01*
G01*
G37*
G36*
G01*
X144827000Y-86591000D02*
X145172000Y-86591000D01*
G75*
G02*
X145319500Y-86738500I0J-147500D01*
G01*
X145319500Y-87033500D01*
G75*
G02*
X145172000Y-87181000I-147500J0D01*
G01*
X144827000Y-87181000D01*
G75*
G02*
X144679500Y-87033500I0J147500D01*
G01*
X144679500Y-86738500D01*
G75*
G02*
X144827000Y-86591000I147500J0D01*
G01*
G37*
G36*
G01*
X144827000Y-90739000D02*
X145172000Y-90739000D01*
G75*
G02*
X145319500Y-90886500I0J-147500D01*
G01*
X145319500Y-91181500D01*
G75*
G02*
X145172000Y-91329000I-147500J0D01*
G01*
X144827000Y-91329000D01*
G75*
G02*
X144679500Y-91181500I0J147500D01*
G01*
X144679500Y-90886500D01*
G75*
G02*
X144827000Y-90739000I147500J0D01*
G01*
G37*
G36*
G01*
X144827000Y-89769000D02*
X145172000Y-89769000D01*
G75*
G02*
X145319500Y-89916500I0J-147500D01*
G01*
X145319500Y-90211500D01*
G75*
G02*
X145172000Y-90359000I-147500J0D01*
G01*
X144827000Y-90359000D01*
G75*
G02*
X144679500Y-90211500I0J147500D01*
G01*
X144679500Y-89916500D01*
G75*
G02*
X144827000Y-89769000I147500J0D01*
G01*
G37*
G36*
G01*
X146396500Y-85611000D02*
X146396500Y-85956000D01*
G75*
G02*
X146249000Y-86103500I-147500J0D01*
G01*
X145954000Y-86103500D01*
G75*
G02*
X145806500Y-85956000I0J147500D01*
G01*
X145806500Y-85611000D01*
G75*
G02*
X145954000Y-85463500I147500J0D01*
G01*
X146249000Y-85463500D01*
G75*
G02*
X146396500Y-85611000I0J-147500D01*
G01*
G37*
G36*
G01*
X147366500Y-85611000D02*
X147366500Y-85956000D01*
G75*
G02*
X147219000Y-86103500I-147500J0D01*
G01*
X146924000Y-86103500D01*
G75*
G02*
X146776500Y-85956000I0J147500D01*
G01*
X146776500Y-85611000D01*
G75*
G02*
X146924000Y-85463500I147500J0D01*
G01*
X147219000Y-85463500D01*
G75*
G02*
X147366500Y-85611000I0J-147500D01*
G01*
G37*
G36*
G01*
X146842827Y-87358625D02*
X146598875Y-87114673D01*
G75*
G02*
X146598875Y-86906077I104298J104298D01*
G01*
X146807471Y-86697481D01*
G75*
G02*
X147016067Y-86697481I104298J-104298D01*
G01*
X147260019Y-86941433D01*
G75*
G02*
X147260019Y-87150029I-104298J-104298D01*
G01*
X147051423Y-87358625D01*
G75*
G02*
X146842827Y-87358625I-104298J104298D01*
G01*
G37*
G36*
G01*
X146156933Y-88044519D02*
X145912981Y-87800567D01*
G75*
G02*
X145912981Y-87591971I104298J104298D01*
G01*
X146121577Y-87383375D01*
G75*
G02*
X146330173Y-87383375I104298J-104298D01*
G01*
X146574125Y-87627327D01*
G75*
G02*
X146574125Y-87835923I-104298J-104298D01*
G01*
X146365529Y-88044519D01*
G75*
G02*
X146156933Y-88044519I-104298J104298D01*
G01*
G37*
G36*
G01*
X146776500Y-89131000D02*
X146776500Y-88786000D01*
G75*
G02*
X146924000Y-88638500I147500J0D01*
G01*
X147219000Y-88638500D01*
G75*
G02*
X147366500Y-88786000I0J-147500D01*
G01*
X147366500Y-89131000D01*
G75*
G02*
X147219000Y-89278500I-147500J0D01*
G01*
X146924000Y-89278500D01*
G75*
G02*
X146776500Y-89131000I0J147500D01*
G01*
G37*
G36*
G01*
X145806500Y-89131000D02*
X145806500Y-88786000D01*
G75*
G02*
X145954000Y-88638500I147500J0D01*
G01*
X146249000Y-88638500D01*
G75*
G02*
X146396500Y-88786000I0J-147500D01*
G01*
X146396500Y-89131000D01*
G75*
G02*
X146249000Y-89278500I-147500J0D01*
G01*
X145954000Y-89278500D01*
G75*
G02*
X145806500Y-89131000I0J147500D01*
G01*
G37*
G36*
G01*
X146598875Y-90802327D02*
X146842827Y-90558375D01*
G75*
G02*
X147051423Y-90558375I104298J-104298D01*
G01*
X147260019Y-90766971D01*
G75*
G02*
X147260019Y-90975567I-104298J-104298D01*
G01*
X147016067Y-91219519D01*
G75*
G02*
X146807471Y-91219519I-104298J104298D01*
G01*
X146598875Y-91010923D01*
G75*
G02*
X146598875Y-90802327I104298J104298D01*
G01*
G37*
G36*
G01*
X145912981Y-90116433D02*
X146156933Y-89872481D01*
G75*
G02*
X146365529Y-89872481I104298J-104298D01*
G01*
X146574125Y-90081077D01*
G75*
G02*
X146574125Y-90289673I-104298J-104298D01*
G01*
X146330173Y-90533625D01*
G75*
G02*
X146121577Y-90533625I-104298J104298D01*
G01*
X145912981Y-90325029D01*
G75*
G02*
X145912981Y-90116433I104298J104298D01*
G01*
G37*
G36*
G01*
X146776500Y-92306000D02*
X146776500Y-91961000D01*
G75*
G02*
X146924000Y-91813500I147500J0D01*
G01*
X147219000Y-91813500D01*
G75*
G02*
X147366500Y-91961000I0J-147500D01*
G01*
X147366500Y-92306000D01*
G75*
G02*
X147219000Y-92453500I-147500J0D01*
G01*
X146924000Y-92453500D01*
G75*
G02*
X146776500Y-92306000I0J147500D01*
G01*
G37*
G36*
G01*
X145806500Y-92306000D02*
X145806500Y-91961000D01*
G75*
G02*
X145954000Y-91813500I147500J0D01*
G01*
X146249000Y-91813500D01*
G75*
G02*
X146396500Y-91961000I0J-147500D01*
G01*
X146396500Y-92306000D01*
G75*
G02*
X146249000Y-92453500I-147500J0D01*
G01*
X145954000Y-92453500D01*
G75*
G02*
X145806500Y-92306000I0J147500D01*
G01*
G37*
G36*
G01*
X148001000Y-87561000D02*
X148346000Y-87561000D01*
G75*
G02*
X148493500Y-87708500I0J-147500D01*
G01*
X148493500Y-88003500D01*
G75*
G02*
X148346000Y-88151000I-147500J0D01*
G01*
X148001000Y-88151000D01*
G75*
G02*
X147853500Y-88003500I0J147500D01*
G01*
X147853500Y-87708500D01*
G75*
G02*
X148001000Y-87561000I147500J0D01*
G01*
G37*
G36*
G01*
X148001000Y-86591000D02*
X148346000Y-86591000D01*
G75*
G02*
X148493500Y-86738500I0J-147500D01*
G01*
X148493500Y-87033500D01*
G75*
G02*
X148346000Y-87181000I-147500J0D01*
G01*
X148001000Y-87181000D01*
G75*
G02*
X147853500Y-87033500I0J147500D01*
G01*
X147853500Y-86738500D01*
G75*
G02*
X148001000Y-86591000I147500J0D01*
G01*
G37*
G36*
G01*
X148346000Y-90356000D02*
X148001000Y-90356000D01*
G75*
G02*
X147853500Y-90208500I0J147500D01*
G01*
X147853500Y-89913500D01*
G75*
G02*
X148001000Y-89766000I147500J0D01*
G01*
X148346000Y-89766000D01*
G75*
G02*
X148493500Y-89913500I0J-147500D01*
G01*
X148493500Y-90208500D01*
G75*
G02*
X148346000Y-90356000I-147500J0D01*
G01*
G37*
G36*
G01*
X148346000Y-91326000D02*
X148001000Y-91326000D01*
G75*
G02*
X147853500Y-91178500I0J147500D01*
G01*
X147853500Y-90883500D01*
G75*
G02*
X148001000Y-90736000I147500J0D01*
G01*
X148346000Y-90736000D01*
G75*
G02*
X148493500Y-90883500I0J-147500D01*
G01*
X148493500Y-91178500D01*
G75*
G02*
X148346000Y-91326000I-147500J0D01*
G01*
G37*
G36*
G01*
X107997000Y-87561000D02*
X108342000Y-87561000D01*
G75*
G02*
X108489500Y-87708500I0J-147500D01*
G01*
X108489500Y-88003500D01*
G75*
G02*
X108342000Y-88151000I-147500J0D01*
G01*
X107997000Y-88151000D01*
G75*
G02*
X107849500Y-88003500I0J147500D01*
G01*
X107849500Y-87708500D01*
G75*
G02*
X107997000Y-87561000I147500J0D01*
G01*
G37*
G36*
G01*
X107997000Y-86591000D02*
X108342000Y-86591000D01*
G75*
G02*
X108489500Y-86738500I0J-147500D01*
G01*
X108489500Y-87033500D01*
G75*
G02*
X108342000Y-87181000I-147500J0D01*
G01*
X107997000Y-87181000D01*
G75*
G02*
X107849500Y-87033500I0J147500D01*
G01*
X107849500Y-86738500D01*
G75*
G02*
X107997000Y-86591000I147500J0D01*
G01*
G37*
G36*
G01*
X107997000Y-90736000D02*
X108342000Y-90736000D01*
G75*
G02*
X108489500Y-90883500I0J-147500D01*
G01*
X108489500Y-91178500D01*
G75*
G02*
X108342000Y-91326000I-147500J0D01*
G01*
X107997000Y-91326000D01*
G75*
G02*
X107849500Y-91178500I0J147500D01*
G01*
X107849500Y-90883500D01*
G75*
G02*
X107997000Y-90736000I147500J0D01*
G01*
G37*
G36*
G01*
X107997000Y-89766000D02*
X108342000Y-89766000D01*
G75*
G02*
X108489500Y-89913500I0J-147500D01*
G01*
X108489500Y-90208500D01*
G75*
G02*
X108342000Y-90356000I-147500J0D01*
G01*
X107997000Y-90356000D01*
G75*
G02*
X107849500Y-90208500I0J147500D01*
G01*
X107849500Y-89913500D01*
G75*
G02*
X107997000Y-89766000I147500J0D01*
G01*
G37*
M02*
