G04 #@! TF.GenerationSoftware,KiCad,Pcbnew,(5.1.9)-1*
G04 #@! TF.CreationDate,2021-05-14T23:18:57-04:00*
G04 #@! TF.ProjectId,2xOPT Panelized,32784f50-5420-4506-916e-656c697a6564,rev?*
G04 #@! TF.SameCoordinates,Original*
G04 #@! TF.FileFunction,Other,Comment*
%FSLAX46Y46*%
G04 Gerber Fmt 4.6, Leading zero omitted, Abs format (unit mm)*
G04 Created by KiCad (PCBNEW (5.1.9)-1) date 2021-05-14 23:18:57*
%MOMM*%
%LPD*%
G01*
G04 APERTURE LIST*
%ADD10C,0.150000*%
G04 APERTURE END LIST*
D10*
X140095238Y-98857142D02*
X140047619Y-98904761D01*
X139904761Y-98952380D01*
X139809523Y-98952380D01*
X139666666Y-98904761D01*
X139571428Y-98809523D01*
X139523809Y-98714285D01*
X139476190Y-98523809D01*
X139476190Y-98380952D01*
X139523809Y-98190476D01*
X139571428Y-98095238D01*
X139666666Y-98000000D01*
X139809523Y-97952380D01*
X139904761Y-97952380D01*
X140047619Y-98000000D01*
X140095238Y-98047619D01*
X140523809Y-97952380D02*
X140523809Y-98761904D01*
X140571428Y-98857142D01*
X140619047Y-98904761D01*
X140714285Y-98952380D01*
X140904761Y-98952380D01*
X141000000Y-98904761D01*
X141047619Y-98857142D01*
X141095238Y-98761904D01*
X141095238Y-97952380D01*
X141428571Y-97952380D02*
X142000000Y-97952380D01*
X141714285Y-98952380D02*
X141714285Y-97952380D01*
X143095238Y-98952380D02*
X143095238Y-97952380D01*
X143095238Y-98428571D02*
X143666666Y-98428571D01*
X143666666Y-98952380D02*
X143666666Y-97952380D01*
X144142857Y-98428571D02*
X144476190Y-98428571D01*
X144619047Y-98952380D02*
X144142857Y-98952380D01*
X144142857Y-97952380D01*
X144619047Y-97952380D01*
X145619047Y-98952380D02*
X145285714Y-98476190D01*
X145047619Y-98952380D02*
X145047619Y-97952380D01*
X145428571Y-97952380D01*
X145523809Y-98000000D01*
X145571428Y-98047619D01*
X145619047Y-98142857D01*
X145619047Y-98285714D01*
X145571428Y-98380952D01*
X145523809Y-98428571D01*
X145428571Y-98476190D01*
X145047619Y-98476190D01*
X146047619Y-98428571D02*
X146380952Y-98428571D01*
X146523809Y-98952380D02*
X146047619Y-98952380D01*
X146047619Y-97952380D01*
X146523809Y-97952380D01*
X126095238Y-98857142D02*
X126047619Y-98904761D01*
X125904761Y-98952380D01*
X125809523Y-98952380D01*
X125666666Y-98904761D01*
X125571428Y-98809523D01*
X125523809Y-98714285D01*
X125476190Y-98523809D01*
X125476190Y-98380952D01*
X125523809Y-98190476D01*
X125571428Y-98095238D01*
X125666666Y-98000000D01*
X125809523Y-97952380D01*
X125904761Y-97952380D01*
X126047619Y-98000000D01*
X126095238Y-98047619D01*
X126523809Y-97952380D02*
X126523809Y-98761904D01*
X126571428Y-98857142D01*
X126619047Y-98904761D01*
X126714285Y-98952380D01*
X126904761Y-98952380D01*
X127000000Y-98904761D01*
X127047619Y-98857142D01*
X127095238Y-98761904D01*
X127095238Y-97952380D01*
X127428571Y-97952380D02*
X128000000Y-97952380D01*
X127714285Y-98952380D02*
X127714285Y-97952380D01*
X129095238Y-98952380D02*
X129095238Y-97952380D01*
X129095238Y-98428571D02*
X129666666Y-98428571D01*
X129666666Y-98952380D02*
X129666666Y-97952380D01*
X130142857Y-98428571D02*
X130476190Y-98428571D01*
X130619047Y-98952380D02*
X130142857Y-98952380D01*
X130142857Y-97952380D01*
X130619047Y-97952380D01*
X131619047Y-98952380D02*
X131285714Y-98476190D01*
X131047619Y-98952380D02*
X131047619Y-97952380D01*
X131428571Y-97952380D01*
X131523809Y-98000000D01*
X131571428Y-98047619D01*
X131619047Y-98142857D01*
X131619047Y-98285714D01*
X131571428Y-98380952D01*
X131523809Y-98428571D01*
X131428571Y-98476190D01*
X131047619Y-98476190D01*
X132047619Y-98428571D02*
X132380952Y-98428571D01*
X132523809Y-98952380D02*
X132047619Y-98952380D01*
X132047619Y-97952380D01*
X132523809Y-97952380D01*
X112095238Y-98857142D02*
X112047619Y-98904761D01*
X111904761Y-98952380D01*
X111809523Y-98952380D01*
X111666666Y-98904761D01*
X111571428Y-98809523D01*
X111523809Y-98714285D01*
X111476190Y-98523809D01*
X111476190Y-98380952D01*
X111523809Y-98190476D01*
X111571428Y-98095238D01*
X111666666Y-98000000D01*
X111809523Y-97952380D01*
X111904761Y-97952380D01*
X112047619Y-98000000D01*
X112095238Y-98047619D01*
X112523809Y-97952380D02*
X112523809Y-98761904D01*
X112571428Y-98857142D01*
X112619047Y-98904761D01*
X112714285Y-98952380D01*
X112904761Y-98952380D01*
X113000000Y-98904761D01*
X113047619Y-98857142D01*
X113095238Y-98761904D01*
X113095238Y-97952380D01*
X113428571Y-97952380D02*
X114000000Y-97952380D01*
X113714285Y-98952380D02*
X113714285Y-97952380D01*
X115095238Y-98952380D02*
X115095238Y-97952380D01*
X115095238Y-98428571D02*
X115666666Y-98428571D01*
X115666666Y-98952380D02*
X115666666Y-97952380D01*
X116142857Y-98428571D02*
X116476190Y-98428571D01*
X116619047Y-98952380D02*
X116142857Y-98952380D01*
X116142857Y-97952380D01*
X116619047Y-97952380D01*
X117619047Y-98952380D02*
X117285714Y-98476190D01*
X117047619Y-98952380D02*
X117047619Y-97952380D01*
X117428571Y-97952380D01*
X117523809Y-98000000D01*
X117571428Y-98047619D01*
X117619047Y-98142857D01*
X117619047Y-98285714D01*
X117571428Y-98380952D01*
X117523809Y-98428571D01*
X117428571Y-98476190D01*
X117047619Y-98476190D01*
X118047619Y-98428571D02*
X118380952Y-98428571D01*
X118523809Y-98952380D02*
X118047619Y-98952380D01*
X118047619Y-97952380D01*
X118523809Y-97952380D01*
X106357642Y-92179261D02*
X106405261Y-92226880D01*
X106452880Y-92369738D01*
X106452880Y-92464976D01*
X106405261Y-92607833D01*
X106310023Y-92703071D01*
X106214785Y-92750690D01*
X106024309Y-92798309D01*
X105881452Y-92798309D01*
X105690976Y-92750690D01*
X105595738Y-92703071D01*
X105500500Y-92607833D01*
X105452880Y-92464976D01*
X105452880Y-92369738D01*
X105500500Y-92226880D01*
X105548119Y-92179261D01*
X105452880Y-91750690D02*
X106262404Y-91750690D01*
X106357642Y-91703071D01*
X106405261Y-91655452D01*
X106452880Y-91560214D01*
X106452880Y-91369738D01*
X106405261Y-91274500D01*
X106357642Y-91226880D01*
X106262404Y-91179261D01*
X105452880Y-91179261D01*
X105452880Y-90845928D02*
X105452880Y-90274500D01*
X106452880Y-90560214D02*
X105452880Y-90560214D01*
X106452880Y-89179261D02*
X105452880Y-89179261D01*
X105929071Y-89179261D02*
X105929071Y-88607833D01*
X106452880Y-88607833D02*
X105452880Y-88607833D01*
X105929071Y-88131642D02*
X105929071Y-87798309D01*
X106452880Y-87655452D02*
X106452880Y-88131642D01*
X105452880Y-88131642D01*
X105452880Y-87655452D01*
X106452880Y-86655452D02*
X105976690Y-86988785D01*
X106452880Y-87226880D02*
X105452880Y-87226880D01*
X105452880Y-86845928D01*
X105500500Y-86750690D01*
X105548119Y-86703071D01*
X105643357Y-86655452D01*
X105786214Y-86655452D01*
X105881452Y-86703071D01*
X105929071Y-86750690D01*
X105976690Y-86845928D01*
X105976690Y-87226880D01*
X105929071Y-86226880D02*
X105929071Y-85893547D01*
X106452880Y-85750690D02*
X106452880Y-86226880D01*
X105452880Y-86226880D01*
X105452880Y-85750690D01*
X106357642Y-72679261D02*
X106405261Y-72726880D01*
X106452880Y-72869738D01*
X106452880Y-72964976D01*
X106405261Y-73107833D01*
X106310023Y-73203071D01*
X106214785Y-73250690D01*
X106024309Y-73298309D01*
X105881452Y-73298309D01*
X105690976Y-73250690D01*
X105595738Y-73203071D01*
X105500500Y-73107833D01*
X105452880Y-72964976D01*
X105452880Y-72869738D01*
X105500500Y-72726880D01*
X105548119Y-72679261D01*
X105452880Y-72250690D02*
X106262404Y-72250690D01*
X106357642Y-72203071D01*
X106405261Y-72155452D01*
X106452880Y-72060214D01*
X106452880Y-71869738D01*
X106405261Y-71774500D01*
X106357642Y-71726880D01*
X106262404Y-71679261D01*
X105452880Y-71679261D01*
X105452880Y-71345928D02*
X105452880Y-70774500D01*
X106452880Y-71060214D02*
X105452880Y-71060214D01*
X106452880Y-69679261D02*
X105452880Y-69679261D01*
X105929071Y-69679261D02*
X105929071Y-69107833D01*
X106452880Y-69107833D02*
X105452880Y-69107833D01*
X105929071Y-68631642D02*
X105929071Y-68298309D01*
X106452880Y-68155452D02*
X106452880Y-68631642D01*
X105452880Y-68631642D01*
X105452880Y-68155452D01*
X106452880Y-67155452D02*
X105976690Y-67488785D01*
X106452880Y-67726880D02*
X105452880Y-67726880D01*
X105452880Y-67345928D01*
X105500500Y-67250690D01*
X105548119Y-67203071D01*
X105643357Y-67155452D01*
X105786214Y-67155452D01*
X105881452Y-67203071D01*
X105929071Y-67250690D01*
X105976690Y-67345928D01*
X105976690Y-67726880D01*
X105929071Y-66726880D02*
X105929071Y-66393547D01*
X106452880Y-66250690D02*
X106452880Y-66726880D01*
X105452880Y-66726880D01*
X105452880Y-66250690D01*
X112095238Y-60857142D02*
X112047619Y-60904761D01*
X111904761Y-60952380D01*
X111809523Y-60952380D01*
X111666666Y-60904761D01*
X111571428Y-60809523D01*
X111523809Y-60714285D01*
X111476190Y-60523809D01*
X111476190Y-60380952D01*
X111523809Y-60190476D01*
X111571428Y-60095238D01*
X111666666Y-60000000D01*
X111809523Y-59952380D01*
X111904761Y-59952380D01*
X112047619Y-60000000D01*
X112095238Y-60047619D01*
X112523809Y-59952380D02*
X112523809Y-60761904D01*
X112571428Y-60857142D01*
X112619047Y-60904761D01*
X112714285Y-60952380D01*
X112904761Y-60952380D01*
X113000000Y-60904761D01*
X113047619Y-60857142D01*
X113095238Y-60761904D01*
X113095238Y-59952380D01*
X113428571Y-59952380D02*
X114000000Y-59952380D01*
X113714285Y-60952380D02*
X113714285Y-59952380D01*
X115095238Y-60952380D02*
X115095238Y-59952380D01*
X115095238Y-60428571D02*
X115666666Y-60428571D01*
X115666666Y-60952380D02*
X115666666Y-59952380D01*
X116142857Y-60428571D02*
X116476190Y-60428571D01*
X116619047Y-60952380D02*
X116142857Y-60952380D01*
X116142857Y-59952380D01*
X116619047Y-59952380D01*
X117619047Y-60952380D02*
X117285714Y-60476190D01*
X117047619Y-60952380D02*
X117047619Y-59952380D01*
X117428571Y-59952380D01*
X117523809Y-60000000D01*
X117571428Y-60047619D01*
X117619047Y-60142857D01*
X117619047Y-60285714D01*
X117571428Y-60380952D01*
X117523809Y-60428571D01*
X117428571Y-60476190D01*
X117047619Y-60476190D01*
X118047619Y-60428571D02*
X118380952Y-60428571D01*
X118523809Y-60952380D02*
X118047619Y-60952380D01*
X118047619Y-59952380D01*
X118523809Y-59952380D01*
X126095238Y-60857142D02*
X126047619Y-60904761D01*
X125904761Y-60952380D01*
X125809523Y-60952380D01*
X125666666Y-60904761D01*
X125571428Y-60809523D01*
X125523809Y-60714285D01*
X125476190Y-60523809D01*
X125476190Y-60380952D01*
X125523809Y-60190476D01*
X125571428Y-60095238D01*
X125666666Y-60000000D01*
X125809523Y-59952380D01*
X125904761Y-59952380D01*
X126047619Y-60000000D01*
X126095238Y-60047619D01*
X126523809Y-59952380D02*
X126523809Y-60761904D01*
X126571428Y-60857142D01*
X126619047Y-60904761D01*
X126714285Y-60952380D01*
X126904761Y-60952380D01*
X127000000Y-60904761D01*
X127047619Y-60857142D01*
X127095238Y-60761904D01*
X127095238Y-59952380D01*
X127428571Y-59952380D02*
X128000000Y-59952380D01*
X127714285Y-60952380D02*
X127714285Y-59952380D01*
X129095238Y-60952380D02*
X129095238Y-59952380D01*
X129095238Y-60428571D02*
X129666666Y-60428571D01*
X129666666Y-60952380D02*
X129666666Y-59952380D01*
X130142857Y-60428571D02*
X130476190Y-60428571D01*
X130619047Y-60952380D02*
X130142857Y-60952380D01*
X130142857Y-59952380D01*
X130619047Y-59952380D01*
X131619047Y-60952380D02*
X131285714Y-60476190D01*
X131047619Y-60952380D02*
X131047619Y-59952380D01*
X131428571Y-59952380D01*
X131523809Y-60000000D01*
X131571428Y-60047619D01*
X131619047Y-60142857D01*
X131619047Y-60285714D01*
X131571428Y-60380952D01*
X131523809Y-60428571D01*
X131428571Y-60476190D01*
X131047619Y-60476190D01*
X132047619Y-60428571D02*
X132380952Y-60428571D01*
X132523809Y-60952380D02*
X132047619Y-60952380D01*
X132047619Y-59952380D01*
X132523809Y-59952380D01*
X140095238Y-60857142D02*
X140047619Y-60904761D01*
X139904761Y-60952380D01*
X139809523Y-60952380D01*
X139666666Y-60904761D01*
X139571428Y-60809523D01*
X139523809Y-60714285D01*
X139476190Y-60523809D01*
X139476190Y-60380952D01*
X139523809Y-60190476D01*
X139571428Y-60095238D01*
X139666666Y-60000000D01*
X139809523Y-59952380D01*
X139904761Y-59952380D01*
X140047619Y-60000000D01*
X140095238Y-60047619D01*
X140523809Y-59952380D02*
X140523809Y-60761904D01*
X140571428Y-60857142D01*
X140619047Y-60904761D01*
X140714285Y-60952380D01*
X140904761Y-60952380D01*
X141000000Y-60904761D01*
X141047619Y-60857142D01*
X141095238Y-60761904D01*
X141095238Y-59952380D01*
X141428571Y-59952380D02*
X142000000Y-59952380D01*
X141714285Y-60952380D02*
X141714285Y-59952380D01*
X143095238Y-60952380D02*
X143095238Y-59952380D01*
X143095238Y-60428571D02*
X143666666Y-60428571D01*
X143666666Y-60952380D02*
X143666666Y-59952380D01*
X144142857Y-60428571D02*
X144476190Y-60428571D01*
X144619047Y-60952380D02*
X144142857Y-60952380D01*
X144142857Y-59952380D01*
X144619047Y-59952380D01*
X145619047Y-60952380D02*
X145285714Y-60476190D01*
X145047619Y-60952380D02*
X145047619Y-59952380D01*
X145428571Y-59952380D01*
X145523809Y-60000000D01*
X145571428Y-60047619D01*
X145619047Y-60142857D01*
X145619047Y-60285714D01*
X145571428Y-60380952D01*
X145523809Y-60428571D01*
X145428571Y-60476190D01*
X145047619Y-60476190D01*
X146047619Y-60428571D02*
X146380952Y-60428571D01*
X146523809Y-60952380D02*
X146047619Y-60952380D01*
X146047619Y-59952380D01*
X146523809Y-59952380D01*
X152357642Y-72679261D02*
X152405261Y-72726880D01*
X152452880Y-72869738D01*
X152452880Y-72964976D01*
X152405261Y-73107833D01*
X152310023Y-73203071D01*
X152214785Y-73250690D01*
X152024309Y-73298309D01*
X151881452Y-73298309D01*
X151690976Y-73250690D01*
X151595738Y-73203071D01*
X151500500Y-73107833D01*
X151452880Y-72964976D01*
X151452880Y-72869738D01*
X151500500Y-72726880D01*
X151548119Y-72679261D01*
X151452880Y-72250690D02*
X152262404Y-72250690D01*
X152357642Y-72203071D01*
X152405261Y-72155452D01*
X152452880Y-72060214D01*
X152452880Y-71869738D01*
X152405261Y-71774500D01*
X152357642Y-71726880D01*
X152262404Y-71679261D01*
X151452880Y-71679261D01*
X151452880Y-71345928D02*
X151452880Y-70774500D01*
X152452880Y-71060214D02*
X151452880Y-71060214D01*
X152452880Y-69679261D02*
X151452880Y-69679261D01*
X151929071Y-69679261D02*
X151929071Y-69107833D01*
X152452880Y-69107833D02*
X151452880Y-69107833D01*
X151929071Y-68631642D02*
X151929071Y-68298309D01*
X152452880Y-68155452D02*
X152452880Y-68631642D01*
X151452880Y-68631642D01*
X151452880Y-68155452D01*
X152452880Y-67155452D02*
X151976690Y-67488785D01*
X152452880Y-67726880D02*
X151452880Y-67726880D01*
X151452880Y-67345928D01*
X151500500Y-67250690D01*
X151548119Y-67203071D01*
X151643357Y-67155452D01*
X151786214Y-67155452D01*
X151881452Y-67203071D01*
X151929071Y-67250690D01*
X151976690Y-67345928D01*
X151976690Y-67726880D01*
X151929071Y-66726880D02*
X151929071Y-66393547D01*
X152452880Y-66250690D02*
X152452880Y-66726880D01*
X151452880Y-66726880D01*
X151452880Y-66250690D01*
X152357642Y-91679261D02*
X152405261Y-91726880D01*
X152452880Y-91869738D01*
X152452880Y-91964976D01*
X152405261Y-92107833D01*
X152310023Y-92203071D01*
X152214785Y-92250690D01*
X152024309Y-92298309D01*
X151881452Y-92298309D01*
X151690976Y-92250690D01*
X151595738Y-92203071D01*
X151500500Y-92107833D01*
X151452880Y-91964976D01*
X151452880Y-91869738D01*
X151500500Y-91726880D01*
X151548119Y-91679261D01*
X151452880Y-91250690D02*
X152262404Y-91250690D01*
X152357642Y-91203071D01*
X152405261Y-91155452D01*
X152452880Y-91060214D01*
X152452880Y-90869738D01*
X152405261Y-90774500D01*
X152357642Y-90726880D01*
X152262404Y-90679261D01*
X151452880Y-90679261D01*
X151452880Y-90345928D02*
X151452880Y-89774500D01*
X152452880Y-90060214D02*
X151452880Y-90060214D01*
X152452880Y-88679261D02*
X151452880Y-88679261D01*
X151929071Y-88679261D02*
X151929071Y-88107833D01*
X152452880Y-88107833D02*
X151452880Y-88107833D01*
X151929071Y-87631642D02*
X151929071Y-87298309D01*
X152452880Y-87155452D02*
X152452880Y-87631642D01*
X151452880Y-87631642D01*
X151452880Y-87155452D01*
X152452880Y-86155452D02*
X151976690Y-86488785D01*
X152452880Y-86726880D02*
X151452880Y-86726880D01*
X151452880Y-86345928D01*
X151500500Y-86250690D01*
X151548119Y-86203071D01*
X151643357Y-86155452D01*
X151786214Y-86155452D01*
X151881452Y-86203071D01*
X151929071Y-86250690D01*
X151976690Y-86345928D01*
X151976690Y-86726880D01*
X151929071Y-85726880D02*
X151929071Y-85393547D01*
X152452880Y-85250690D02*
X152452880Y-85726880D01*
X151452880Y-85726880D01*
X151452880Y-85250690D01*
X112095238Y-79857142D02*
X112047619Y-79904761D01*
X111904761Y-79952380D01*
X111809523Y-79952380D01*
X111666666Y-79904761D01*
X111571428Y-79809523D01*
X111523809Y-79714285D01*
X111476190Y-79523809D01*
X111476190Y-79380952D01*
X111523809Y-79190476D01*
X111571428Y-79095238D01*
X111666666Y-79000000D01*
X111809523Y-78952380D01*
X111904761Y-78952380D01*
X112047619Y-79000000D01*
X112095238Y-79047619D01*
X112523809Y-78952380D02*
X112523809Y-79761904D01*
X112571428Y-79857142D01*
X112619047Y-79904761D01*
X112714285Y-79952380D01*
X112904761Y-79952380D01*
X113000000Y-79904761D01*
X113047619Y-79857142D01*
X113095238Y-79761904D01*
X113095238Y-78952380D01*
X113428571Y-78952380D02*
X114000000Y-78952380D01*
X113714285Y-79952380D02*
X113714285Y-78952380D01*
X115095238Y-79952380D02*
X115095238Y-78952380D01*
X115095238Y-79428571D02*
X115666666Y-79428571D01*
X115666666Y-79952380D02*
X115666666Y-78952380D01*
X116142857Y-79428571D02*
X116476190Y-79428571D01*
X116619047Y-79952380D02*
X116142857Y-79952380D01*
X116142857Y-78952380D01*
X116619047Y-78952380D01*
X117619047Y-79952380D02*
X117285714Y-79476190D01*
X117047619Y-79952380D02*
X117047619Y-78952380D01*
X117428571Y-78952380D01*
X117523809Y-79000000D01*
X117571428Y-79047619D01*
X117619047Y-79142857D01*
X117619047Y-79285714D01*
X117571428Y-79380952D01*
X117523809Y-79428571D01*
X117428571Y-79476190D01*
X117047619Y-79476190D01*
X118047619Y-79428571D02*
X118380952Y-79428571D01*
X118523809Y-79952380D02*
X118047619Y-79952380D01*
X118047619Y-78952380D01*
X118523809Y-78952380D01*
X126095238Y-79857142D02*
X126047619Y-79904761D01*
X125904761Y-79952380D01*
X125809523Y-79952380D01*
X125666666Y-79904761D01*
X125571428Y-79809523D01*
X125523809Y-79714285D01*
X125476190Y-79523809D01*
X125476190Y-79380952D01*
X125523809Y-79190476D01*
X125571428Y-79095238D01*
X125666666Y-79000000D01*
X125809523Y-78952380D01*
X125904761Y-78952380D01*
X126047619Y-79000000D01*
X126095238Y-79047619D01*
X126523809Y-78952380D02*
X126523809Y-79761904D01*
X126571428Y-79857142D01*
X126619047Y-79904761D01*
X126714285Y-79952380D01*
X126904761Y-79952380D01*
X127000000Y-79904761D01*
X127047619Y-79857142D01*
X127095238Y-79761904D01*
X127095238Y-78952380D01*
X127428571Y-78952380D02*
X128000000Y-78952380D01*
X127714285Y-79952380D02*
X127714285Y-78952380D01*
X129095238Y-79952380D02*
X129095238Y-78952380D01*
X129095238Y-79428571D02*
X129666666Y-79428571D01*
X129666666Y-79952380D02*
X129666666Y-78952380D01*
X130142857Y-79428571D02*
X130476190Y-79428571D01*
X130619047Y-79952380D02*
X130142857Y-79952380D01*
X130142857Y-78952380D01*
X130619047Y-78952380D01*
X131619047Y-79952380D02*
X131285714Y-79476190D01*
X131047619Y-79952380D02*
X131047619Y-78952380D01*
X131428571Y-78952380D01*
X131523809Y-79000000D01*
X131571428Y-79047619D01*
X131619047Y-79142857D01*
X131619047Y-79285714D01*
X131571428Y-79380952D01*
X131523809Y-79428571D01*
X131428571Y-79476190D01*
X131047619Y-79476190D01*
X132047619Y-79428571D02*
X132380952Y-79428571D01*
X132523809Y-79952380D02*
X132047619Y-79952380D01*
X132047619Y-78952380D01*
X132523809Y-78952380D01*
X139595238Y-79857142D02*
X139547619Y-79904761D01*
X139404761Y-79952380D01*
X139309523Y-79952380D01*
X139166666Y-79904761D01*
X139071428Y-79809523D01*
X139023809Y-79714285D01*
X138976190Y-79523809D01*
X138976190Y-79380952D01*
X139023809Y-79190476D01*
X139071428Y-79095238D01*
X139166666Y-79000000D01*
X139309523Y-78952380D01*
X139404761Y-78952380D01*
X139547619Y-79000000D01*
X139595238Y-79047619D01*
X140023809Y-78952380D02*
X140023809Y-79761904D01*
X140071428Y-79857142D01*
X140119047Y-79904761D01*
X140214285Y-79952380D01*
X140404761Y-79952380D01*
X140500000Y-79904761D01*
X140547619Y-79857142D01*
X140595238Y-79761904D01*
X140595238Y-78952380D01*
X140928571Y-78952380D02*
X141500000Y-78952380D01*
X141214285Y-79952380D02*
X141214285Y-78952380D01*
X142595238Y-79952380D02*
X142595238Y-78952380D01*
X142595238Y-79428571D02*
X143166666Y-79428571D01*
X143166666Y-79952380D02*
X143166666Y-78952380D01*
X143642857Y-79428571D02*
X143976190Y-79428571D01*
X144119047Y-79952380D02*
X143642857Y-79952380D01*
X143642857Y-78952380D01*
X144119047Y-78952380D01*
X145119047Y-79952380D02*
X144785714Y-79476190D01*
X144547619Y-79952380D02*
X144547619Y-78952380D01*
X144928571Y-78952380D01*
X145023809Y-79000000D01*
X145071428Y-79047619D01*
X145119047Y-79142857D01*
X145119047Y-79285714D01*
X145071428Y-79380952D01*
X145023809Y-79428571D01*
X144928571Y-79476190D01*
X144547619Y-79476190D01*
X145547619Y-79428571D02*
X145880952Y-79428571D01*
X146023809Y-79952380D02*
X145547619Y-79952380D01*
X145547619Y-78952380D01*
X146023809Y-78952380D01*
M02*
