M48
; DRILL file {KiCad (5.1.9)-1} date 05/14/21 23:19:00
; FORMAT={-:-/ absolute / inch / decimal}
; #@! TF.CreationDate,2021-05-14T23:19:00-04:00
; #@! TF.GenerationSoftware,Kicad,Pcbnew,(5.1.9)-1
; #@! TF.FileFunction,Plated,1,2,PTH
FMAT,2
INCH
T1C0.0157
T2C0.0394
%
G90
G05
T1
X4.2593Y-2.7564
X4.2593Y-2.8789
X4.2593Y-3.5024
X4.2593Y-3.6249
X4.3343Y-2.8189
X4.3343Y-3.5649
X4.3393Y-2.6889
X4.3393Y-3.4349
X4.3743Y-2.8989
X4.3743Y-3.6449
X4.3843Y-2.7589
X4.3843Y-3.5049
X4.3893Y-2.6339
X4.3893Y-3.3799
X4.5093Y-2.6089
X4.5093Y-2.7453
X4.5093Y-2.8989
X4.5093Y-3.3549
X4.5093Y-3.4914
X4.5093Y-3.6449
X4.6243Y-2.5789
X4.6243Y-3.3249
X4.6293Y-2.9189
X4.6293Y-3.6649
X4.6343Y-2.7539
X4.6343Y-3.4999
X4.6693Y-2.6239
X4.6693Y-3.3699
X4.6735Y-2.8477
X4.6735Y-3.5938
X4.6791Y-2.6839
X4.6791Y-3.4299
X4.7083Y-2.7999
X4.7083Y-3.546
X4.7378Y-2.6924
X4.7378Y-3.4384
X4.7393Y-2.7701
X4.7393Y-2.8289
X4.7393Y-3.5162
X4.7393Y-3.5749
X4.7418Y-2.9063
X4.7418Y-3.6524
X4.7693Y-2.6339
X4.7693Y-3.3799
X4.7843Y-2.8874
X4.7843Y-3.6335
X4.9093Y-2.5939
X4.9093Y-2.7453
X4.9093Y-2.9789
X4.9093Y-3.3399
X4.9093Y-3.4914
X4.9093Y-3.7249
X4.9345Y-2.9237
X4.9345Y-3.6697
X5.0243Y-2.5639
X5.0243Y-3.3099
X5.0293Y-2.9539
X5.0293Y-3.6999
X5.0343Y-2.7503
X5.0343Y-3.4964
X5.0643Y-2.6139
X5.0643Y-3.3599
X5.0743Y-2.8639
X5.0743Y-3.6099
X5.0793Y-2.6739
X5.0793Y-3.4199
X5.0893Y-2.7989
X5.0893Y-3.5449
X5.1387Y-2.6924
X5.1387Y-3.4384
X5.1393Y-2.8339
X5.1393Y-3.5799
X5.1443Y-2.7689
X5.1443Y-3.5149
X5.1793Y-2.6339
X5.1793Y-2.8939
X5.1793Y-3.3799
X5.1793Y-3.6399
X5.2493Y-2.9587
X5.2493Y-3.7047
X5.3093Y-2.5939
X5.3093Y-2.7489
X5.3093Y-2.9063
X5.3093Y-3.3399
X5.3093Y-3.4949
X5.3093Y-3.6524
X5.4243Y-2.5789
X5.4243Y-3.3249
X5.4293Y-2.7539
X5.4293Y-2.9241
X5.4293Y-3.4999
X5.4293Y-3.6701
X5.4693Y-2.8539
X5.4693Y-3.5999
X5.4755Y-2.6128
X5.4755Y-3.3589
X5.4793Y-2.6699
X5.4793Y-3.4159
X5.4893Y-2.7889
X5.4893Y-3.5349
X5.5387Y-2.6838
X5.5387Y-3.4299
X5.5393Y-2.8239
X5.5393Y-3.5699
X5.5529Y-2.8824
X5.5529Y-3.6285
X5.5793Y-2.7589
X5.5793Y-3.5049
X5.5843Y-2.6339
X5.5843Y-3.3799
X5.7043Y-2.6089
X5.7043Y-3.3549
X5.7093Y-2.7489
X5.7093Y-2.8789
X5.7093Y-3.4949
X5.7093Y-3.6249
X5.7343Y-2.9339
X5.7343Y-3.6799
X5.8293Y-2.9239
X5.8293Y-3.6699
X5.8343Y-2.6289
X5.8343Y-3.3749
X5.8493Y-2.8839
X5.8493Y-3.6299
X5.8743Y-2.8239
X5.8743Y-3.5699
X5.8793Y-2.6739
X5.8793Y-3.4199
X5.8843Y-2.7239
X5.8843Y-3.4699
T2
X4.3293Y-2.5139
X4.3293Y-2.9989
X4.3293Y-3.2599
X4.3293Y-3.7449
X4.4293Y-2.5139
X4.4293Y-2.9989
X4.4293Y-3.2599
X4.4293Y-3.7449
X4.5293Y-2.5139
X4.5293Y-2.9989
X4.5293Y-3.2599
X4.5293Y-3.7449
X4.6293Y-2.5139
X4.6293Y-2.9989
X4.6293Y-3.2599
X4.6293Y-3.7449
X4.7293Y-2.5139
X4.7293Y-2.9989
X4.7293Y-3.2599
X4.7293Y-3.7449
X4.8293Y-2.5139
X4.8293Y-2.9989
X4.8293Y-3.2599
X4.8293Y-3.7449
X5.3293Y-2.5139
X5.3293Y-2.9989
X5.3293Y-3.2599
X5.3293Y-3.7449
X5.4293Y-2.5139
X5.4293Y-2.9989
X5.4293Y-3.2599
X5.4293Y-3.7449
X5.5293Y-2.5139
X5.5293Y-2.9989
X5.5293Y-3.2599
X5.5293Y-3.7449
X5.6293Y-2.5139
X5.6293Y-2.9989
X5.6293Y-3.2599
X5.6293Y-3.7449
X5.7293Y-2.5139
X5.7293Y-2.9989
X5.7293Y-3.2599
X5.7293Y-3.7449
X5.8293Y-2.5139
X5.8293Y-2.9989
X5.8293Y-3.2599
X5.8293Y-3.7449
T0
M30
