G04 #@! TF.GenerationSoftware,KiCad,Pcbnew,(5.1.9)-1*
G04 #@! TF.CreationDate,2021-05-14T23:18:57-04:00*
G04 #@! TF.ProjectId,2xOPT Panelized,32784f50-5420-4506-916e-656c697a6564,rev?*
G04 #@! TF.SameCoordinates,Original*
G04 #@! TF.FileFunction,Copper,L2,Bot*
G04 #@! TF.FilePolarity,Positive*
%FSLAX46Y46*%
G04 Gerber Fmt 4.6, Leading zero omitted, Abs format (unit mm)*
G04 Created by KiCad (PCBNEW (5.1.9)-1) date 2021-05-14 23:18:57*
%MOMM*%
%LPD*%
G01*
G04 APERTURE LIST*
G04 #@! TA.AperFunction,ComponentPad*
%ADD10O,1.700000X1.700000*%
G04 #@! TD*
G04 #@! TA.AperFunction,ComponentPad*
%ADD11R,1.700000X1.700000*%
G04 #@! TD*
G04 #@! TA.AperFunction,ViaPad*
%ADD12C,0.800000*%
G04 #@! TD*
G04 #@! TA.AperFunction,Conductor*
%ADD13C,0.250000*%
G04 #@! TD*
G04 #@! TA.AperFunction,Conductor*
%ADD14C,0.304800*%
G04 #@! TD*
G04 APERTURE END LIST*
D10*
X148065000Y-76171000D03*
X145525000Y-76171000D03*
X142985000Y-76171000D03*
X140445000Y-76171000D03*
X137905000Y-76171000D03*
D11*
X135365000Y-76171000D03*
D10*
X122665000Y-76171000D03*
X120125000Y-76171000D03*
X117585000Y-76171000D03*
X115045000Y-76171000D03*
X112505000Y-76171000D03*
D11*
X109965000Y-76171000D03*
D10*
X148065000Y-63852000D03*
X145525000Y-63852000D03*
X142985000Y-63852000D03*
X140445000Y-63852000D03*
X137905000Y-63852000D03*
D11*
X135365000Y-63852000D03*
D10*
X122665000Y-63852000D03*
X120125000Y-63852000D03*
X117585000Y-63852000D03*
X115045000Y-63852000D03*
X112505000Y-63852000D03*
D11*
X109965000Y-63852000D03*
D10*
X148065000Y-95121000D03*
X145525000Y-95121000D03*
X142985000Y-95121000D03*
X140445000Y-95121000D03*
X137905000Y-95121000D03*
D11*
X135365000Y-95121000D03*
D10*
X122665000Y-95121000D03*
X120125000Y-95121000D03*
X117585000Y-95121000D03*
X115045000Y-95121000D03*
X112505000Y-95121000D03*
D11*
X109965000Y-95121000D03*
D10*
X148065000Y-82802000D03*
X145525000Y-82802000D03*
X142985000Y-82802000D03*
X140445000Y-82802000D03*
X137905000Y-82802000D03*
D11*
X135365000Y-82802000D03*
D10*
X122665000Y-82802000D03*
X120125000Y-82802000D03*
X117585000Y-82802000D03*
X115045000Y-82802000D03*
X112505000Y-82802000D03*
D11*
X109965000Y-82802000D03*
D12*
X111489000Y-66900000D03*
X131555000Y-66900000D03*
X141842000Y-66900000D03*
X121141000Y-66900000D03*
X111489000Y-85850000D03*
X131555000Y-85850000D03*
X141842000Y-85850000D03*
X121141000Y-85850000D03*
X108187000Y-70011500D03*
X108187000Y-88961500D03*
X108187000Y-73123000D03*
X108187000Y-92073000D03*
X110092000Y-71599000D03*
X140699000Y-71726000D03*
X130539000Y-71980000D03*
X120379000Y-71853054D03*
X110092000Y-90549000D03*
X140699000Y-90676000D03*
X130539000Y-90930000D03*
X120379000Y-90803054D03*
X124697000Y-75663000D03*
X145652000Y-74520000D03*
X133333000Y-75150055D03*
X124697000Y-94613000D03*
X145652000Y-93470000D03*
X133333000Y-94100055D03*
X145017000Y-69821000D03*
X124697000Y-69730990D03*
X114537000Y-69730990D03*
X134857000Y-69821000D03*
X145017000Y-88771000D03*
X124697000Y-88680990D03*
X114537000Y-88680990D03*
X134857000Y-88771000D03*
X110219000Y-68297000D03*
X130523738Y-68385845D03*
X140681789Y-68169609D03*
X120340875Y-68385875D03*
X110219000Y-87247000D03*
X130523738Y-87335845D03*
X140681789Y-87119609D03*
X120340875Y-87335875D03*
X114537000Y-66265000D03*
X144890000Y-66265000D03*
X124697000Y-65884000D03*
X134857000Y-65884000D03*
X114537000Y-85215000D03*
X144890000Y-85215000D03*
X124697000Y-84834000D03*
X134857000Y-84834000D03*
X111108000Y-73631000D03*
X131555000Y-73504000D03*
X121522000Y-73340010D03*
X141043010Y-73213002D03*
X111108000Y-92581000D03*
X131555000Y-92454000D03*
X121522000Y-92290010D03*
X141043010Y-92163002D03*
X141715000Y-70075000D03*
X130666000Y-70329000D03*
X111362000Y-70075000D03*
X120379000Y-70361010D03*
X141715000Y-89025000D03*
X130666000Y-89279000D03*
X111362000Y-89025000D03*
X120379000Y-89311010D03*
X114537000Y-73631000D03*
X145017000Y-73123000D03*
X134857000Y-73820916D03*
X125336660Y-74261340D03*
X120441226Y-73820974D03*
X114537000Y-92581000D03*
X145017000Y-92073000D03*
X134857000Y-92770916D03*
X125336660Y-93211340D03*
X120441226Y-92770974D03*
X117458000Y-65503000D03*
X127618000Y-65122000D03*
X137778000Y-65503000D03*
X117458000Y-84453000D03*
X127618000Y-84072000D03*
X137778000Y-84453000D03*
X118601000Y-66646000D03*
X148192000Y-66773000D03*
X128634000Y-66392000D03*
X139078321Y-66364957D03*
X118601000Y-85596000D03*
X148192000Y-85723000D03*
X128634000Y-85342000D03*
X139078321Y-85314957D03*
X149462000Y-69186000D03*
X117712000Y-69948000D03*
X137905000Y-69948000D03*
X127872000Y-69857990D03*
X149462000Y-88136000D03*
X117712000Y-88898000D03*
X137905000Y-88898000D03*
X127872000Y-88807990D03*
X128888000Y-72742000D03*
X138921000Y-72488000D03*
X148573000Y-73250000D03*
X118707317Y-72332192D03*
X128888000Y-91692000D03*
X138921000Y-91438000D03*
X148573000Y-92200000D03*
X118707317Y-91282192D03*
X117585000Y-74139000D03*
X127745000Y-75028000D03*
X148065000Y-74266000D03*
X137905000Y-74270927D03*
X117585000Y-93089000D03*
X127745000Y-93978000D03*
X148065000Y-93216000D03*
X137905000Y-93220927D03*
X149335000Y-67916000D03*
X129015000Y-67916000D03*
X118848765Y-68170000D03*
X139175000Y-67814968D03*
X149335000Y-86866000D03*
X129015000Y-86866000D03*
X118848765Y-87120000D03*
X139175000Y-86764968D03*
X129269000Y-71091000D03*
X139429000Y-70837000D03*
X149208000Y-71726000D03*
X119591489Y-71118041D03*
X129269000Y-90041000D03*
X139429000Y-89787000D03*
X149208000Y-90676000D03*
X119591489Y-90068041D03*
D13*
X111489000Y-66900000D02*
X113521000Y-66900000D01*
X113521000Y-66900000D02*
X113775000Y-67154000D01*
X113775000Y-67154000D02*
X115045000Y-67154000D01*
X115045000Y-67154000D02*
X115172000Y-67027000D01*
X115172000Y-67027000D02*
X117839000Y-67027000D01*
X117839000Y-67027000D02*
X118220000Y-67408000D01*
X118220000Y-67408000D02*
X119109000Y-67408000D01*
X119617000Y-66900000D02*
X121141000Y-66900000D01*
X119109000Y-67408000D02*
X119617000Y-66900000D01*
X121141000Y-66900000D02*
X123808000Y-66900000D01*
X131337999Y-67117001D02*
X131555000Y-66900000D01*
X124025001Y-67117001D02*
X131337999Y-67117001D01*
X123808000Y-66900000D02*
X124025001Y-67117001D01*
X140052017Y-67089966D02*
X140241983Y-66900000D01*
X131555000Y-66900000D02*
X131954999Y-67299999D01*
X138616965Y-67299999D02*
X138826998Y-67089966D01*
X131954999Y-67299999D02*
X138616965Y-67299999D01*
X140241983Y-66900000D02*
X141842000Y-66900000D01*
X138826998Y-67089966D02*
X140052017Y-67089966D01*
X111489000Y-85850000D02*
X113521000Y-85850000D01*
X113521000Y-85850000D02*
X113775000Y-86104000D01*
X113775000Y-86104000D02*
X115045000Y-86104000D01*
X115045000Y-86104000D02*
X115172000Y-85977000D01*
X115172000Y-85977000D02*
X117839000Y-85977000D01*
X117839000Y-85977000D02*
X118220000Y-86358000D01*
X118220000Y-86358000D02*
X119109000Y-86358000D01*
X119617000Y-85850000D02*
X121141000Y-85850000D01*
X119109000Y-86358000D02*
X119617000Y-85850000D01*
X121141000Y-85850000D02*
X123808000Y-85850000D01*
X131337999Y-86067001D02*
X131555000Y-85850000D01*
X124025001Y-86067001D02*
X131337999Y-86067001D01*
X123808000Y-85850000D02*
X124025001Y-86067001D01*
X140052017Y-86039966D02*
X140241983Y-85850000D01*
X131555000Y-85850000D02*
X131954999Y-86249999D01*
X138616965Y-86249999D02*
X138826998Y-86039966D01*
X131954999Y-86249999D02*
X138616965Y-86249999D01*
X140241983Y-85850000D02*
X141842000Y-85850000D01*
X138826998Y-86039966D02*
X140052017Y-86039966D01*
D14*
X108187000Y-66392000D02*
X108695000Y-65884000D01*
X108187000Y-70011500D02*
X108187000Y-66392000D01*
X108695000Y-65884000D02*
X110219000Y-65884000D01*
X110473000Y-65884000D02*
X110219000Y-65884000D01*
X112505000Y-63852000D02*
X110473000Y-65884000D01*
X108187000Y-85342000D02*
X108695000Y-84834000D01*
X108187000Y-88961500D02*
X108187000Y-85342000D01*
X108695000Y-84834000D02*
X110219000Y-84834000D01*
X110473000Y-84834000D02*
X110219000Y-84834000D01*
X112505000Y-82802000D02*
X110473000Y-84834000D01*
X108187000Y-73123000D02*
X109266500Y-74202500D01*
D13*
X109266500Y-74202500D02*
X109272011Y-74208011D01*
D14*
X110536500Y-74202500D02*
X110282500Y-74202500D01*
X112505000Y-76171000D02*
X110536500Y-74202500D01*
X109266500Y-74202500D02*
X110282500Y-74202500D01*
X108187000Y-92073000D02*
X109266500Y-93152500D01*
D13*
X109266500Y-93152500D02*
X109272011Y-93158011D01*
D14*
X110536500Y-93152500D02*
X110282500Y-93152500D01*
X112505000Y-95121000D02*
X110536500Y-93152500D01*
X109266500Y-93152500D02*
X110282500Y-93152500D01*
D13*
X138540000Y-71726000D02*
X140699000Y-71726000D01*
X130539000Y-71980000D02*
X138286000Y-71980000D01*
X138286000Y-71980000D02*
X138540000Y-71726000D01*
X120505946Y-71980000D02*
X120379000Y-71853054D01*
X130539000Y-71980000D02*
X120505946Y-71980000D01*
X119047129Y-71599000D02*
X119301183Y-71853054D01*
X110092000Y-71599000D02*
X119047129Y-71599000D01*
X119301183Y-71853054D02*
X120379000Y-71853054D01*
X138540000Y-90676000D02*
X140699000Y-90676000D01*
X130539000Y-90930000D02*
X138286000Y-90930000D01*
X138286000Y-90930000D02*
X138540000Y-90676000D01*
X120505946Y-90930000D02*
X120379000Y-90803054D01*
X130539000Y-90930000D02*
X120505946Y-90930000D01*
X119047129Y-90549000D02*
X119301183Y-90803054D01*
X110092000Y-90549000D02*
X119047129Y-90549000D01*
X119301183Y-90803054D02*
X120379000Y-90803054D01*
X132058055Y-76425000D02*
X133333000Y-75150055D01*
X125459000Y-76425000D02*
X132058055Y-76425000D01*
X124697000Y-75663000D02*
X125459000Y-76425000D01*
X133487056Y-74995999D02*
X133333000Y-75150055D01*
X145176001Y-74995999D02*
X133487056Y-74995999D01*
X145652000Y-74520000D02*
X145176001Y-74995999D01*
X116220001Y-74995999D02*
X124029999Y-74995999D01*
X115045000Y-76171000D02*
X116220001Y-74995999D01*
X124029999Y-74995999D02*
X124697000Y-75663000D01*
X132058055Y-95375000D02*
X133333000Y-94100055D01*
X125459000Y-95375000D02*
X132058055Y-95375000D01*
X124697000Y-94613000D02*
X125459000Y-95375000D01*
X133487056Y-93945999D02*
X133333000Y-94100055D01*
X145176001Y-93945999D02*
X133487056Y-93945999D01*
X145652000Y-93470000D02*
X145176001Y-93945999D01*
X116220001Y-93945999D02*
X124029999Y-93945999D01*
X115045000Y-95121000D02*
X116220001Y-93945999D01*
X124029999Y-93945999D02*
X124697000Y-94613000D01*
X109457000Y-68608002D02*
X109457000Y-67789000D01*
X109457000Y-67789000D02*
X111743000Y-65503000D01*
X111743000Y-65503000D02*
X115934000Y-65503000D01*
X115934000Y-65503000D02*
X117585000Y-63852000D01*
X109457000Y-68608002D02*
X110034998Y-69186000D01*
X113992010Y-69186000D02*
X114537000Y-69730990D01*
X110034998Y-69186000D02*
X113992010Y-69186000D01*
X125311001Y-69116989D02*
X134152989Y-69116989D01*
X124697000Y-69730990D02*
X125311001Y-69116989D01*
X134152989Y-69116989D02*
X134457001Y-69421001D01*
X134457001Y-69421001D02*
X134857000Y-69821000D01*
X140893600Y-68862989D02*
X144058989Y-68862989D01*
X134857000Y-69821000D02*
X135688011Y-68989989D01*
X144058989Y-68862989D02*
X145017000Y-69821000D01*
X135688011Y-68989989D02*
X140766600Y-68989989D01*
X140766600Y-68989989D02*
X140893600Y-68862989D01*
X118400018Y-69493018D02*
X119438391Y-69493018D01*
X117712000Y-68805000D02*
X118400018Y-69493018D01*
X119438391Y-69493018D02*
X119777421Y-69153988D01*
X114537000Y-69730990D02*
X115462990Y-68805000D01*
X124297001Y-69330991D02*
X124697000Y-69730990D01*
X115462990Y-68805000D02*
X117712000Y-68805000D01*
X119777421Y-69153988D02*
X124119998Y-69153988D01*
X124119998Y-69153988D02*
X124297001Y-69330991D01*
X109457000Y-87558002D02*
X109457000Y-86739000D01*
X109457000Y-86739000D02*
X111743000Y-84453000D01*
X111743000Y-84453000D02*
X115934000Y-84453000D01*
X115934000Y-84453000D02*
X117585000Y-82802000D01*
X109457000Y-87558002D02*
X110034998Y-88136000D01*
X113992010Y-88136000D02*
X114537000Y-88680990D01*
X110034998Y-88136000D02*
X113992010Y-88136000D01*
X125311001Y-88066989D02*
X134152989Y-88066989D01*
X124697000Y-88680990D02*
X125311001Y-88066989D01*
X134152989Y-88066989D02*
X134457001Y-88371001D01*
X134457001Y-88371001D02*
X134857000Y-88771000D01*
X140893600Y-87812989D02*
X144058989Y-87812989D01*
X134857000Y-88771000D02*
X135688011Y-87939989D01*
X144058989Y-87812989D02*
X145017000Y-88771000D01*
X135688011Y-87939989D02*
X140766600Y-87939989D01*
X140766600Y-87939989D02*
X140893600Y-87812989D01*
X118400018Y-88443018D02*
X119438391Y-88443018D01*
X117712000Y-87755000D02*
X118400018Y-88443018D01*
X119438391Y-88443018D02*
X119777421Y-88103988D01*
X114537000Y-88680990D02*
X115462990Y-87755000D01*
X124297001Y-88280991D02*
X124697000Y-88680990D01*
X115462990Y-87755000D02*
X117712000Y-87755000D01*
X119777421Y-88103988D02*
X124119998Y-88103988D01*
X124119998Y-88103988D02*
X124297001Y-88280991D01*
X140311420Y-68539978D02*
X140681789Y-68169609D01*
X130523738Y-68385845D02*
X138247845Y-68385845D01*
X138247845Y-68385845D02*
X138401978Y-68539978D01*
X138401978Y-68539978D02*
X140311420Y-68539978D01*
X130523738Y-68385845D02*
X130268582Y-68641001D01*
X128380000Y-68424000D02*
X123117993Y-68424000D01*
X123117993Y-68424000D02*
X123035432Y-68341439D01*
X120379000Y-68424000D02*
X120340875Y-68385875D01*
X128597001Y-68641001D02*
X128380000Y-68424000D01*
X120461561Y-68341439D02*
X120379000Y-68424000D01*
X130268582Y-68641001D02*
X128597001Y-68641001D01*
X123035432Y-68341439D02*
X120461561Y-68341439D01*
X110219000Y-68297000D02*
X117938281Y-68297000D01*
X119775190Y-68385875D02*
X120340875Y-68385875D01*
X117938281Y-68297000D02*
X118684288Y-69043007D01*
X118684288Y-69043007D02*
X119118058Y-69043007D01*
X119118058Y-69043007D02*
X119775190Y-68385875D01*
X140311420Y-87489978D02*
X140681789Y-87119609D01*
X130523738Y-87335845D02*
X138247845Y-87335845D01*
X138247845Y-87335845D02*
X138401978Y-87489978D01*
X138401978Y-87489978D02*
X140311420Y-87489978D01*
X130523738Y-87335845D02*
X130268582Y-87591001D01*
X128380000Y-87374000D02*
X123117993Y-87374000D01*
X123117993Y-87374000D02*
X123035432Y-87291439D01*
X120379000Y-87374000D02*
X120340875Y-87335875D01*
X128597001Y-87591001D02*
X128380000Y-87374000D01*
X120461561Y-87291439D02*
X120379000Y-87374000D01*
X130268582Y-87591001D02*
X128597001Y-87591001D01*
X123035432Y-87291439D02*
X120461561Y-87291439D01*
X110219000Y-87247000D02*
X117938281Y-87247000D01*
X119775190Y-87335875D02*
X120340875Y-87335875D01*
X117938281Y-87247000D02*
X118684288Y-87993007D01*
X118684288Y-87993007D02*
X119118058Y-87993007D01*
X119118058Y-87993007D02*
X119775190Y-87335875D01*
X134603000Y-65630000D02*
X134857000Y-65884000D01*
X128253000Y-65630000D02*
X134603000Y-65630000D01*
X127999000Y-65884000D02*
X128253000Y-65630000D01*
X124697000Y-65884000D02*
X127999000Y-65884000D01*
X124443000Y-65630000D02*
X124697000Y-65884000D01*
X118474000Y-65630000D02*
X124443000Y-65630000D01*
X117839000Y-66265000D02*
X118474000Y-65630000D01*
X114537000Y-66265000D02*
X117839000Y-66265000D01*
X134857000Y-65884000D02*
X137016000Y-65884000D01*
X137360001Y-66228001D02*
X138142273Y-66228001D01*
X138142273Y-66228001D02*
X138730319Y-65639955D01*
X144264955Y-65639955D02*
X144890000Y-66265000D01*
X138730319Y-65639955D02*
X144264955Y-65639955D01*
X137016000Y-65884000D02*
X137360001Y-66228001D01*
X134603000Y-84580000D02*
X134857000Y-84834000D01*
X128253000Y-84580000D02*
X134603000Y-84580000D01*
X127999000Y-84834000D02*
X128253000Y-84580000D01*
X124697000Y-84834000D02*
X127999000Y-84834000D01*
X124443000Y-84580000D02*
X124697000Y-84834000D01*
X118474000Y-84580000D02*
X124443000Y-84580000D01*
X117839000Y-85215000D02*
X118474000Y-84580000D01*
X114537000Y-85215000D02*
X117839000Y-85215000D01*
X134857000Y-84834000D02*
X137016000Y-84834000D01*
X137360001Y-85178001D02*
X138142273Y-85178001D01*
X138142273Y-85178001D02*
X138730319Y-84589955D01*
X144264955Y-84589955D02*
X144890000Y-85215000D01*
X138730319Y-84589955D02*
X144264955Y-84589955D01*
X137016000Y-84834000D02*
X137360001Y-85178001D01*
X125549010Y-73340010D02*
X121522000Y-73340010D01*
X131555000Y-73504000D02*
X125713000Y-73504000D01*
X125713000Y-73504000D02*
X125549010Y-73340010D01*
X137216512Y-73250000D02*
X137370598Y-73095914D01*
X131809000Y-73250000D02*
X134354912Y-73250000D01*
X134508998Y-73095914D02*
X135205002Y-73095914D01*
X131555000Y-73504000D02*
X131809000Y-73250000D01*
X135205002Y-73095914D02*
X135359088Y-73250000D01*
X137370598Y-73095914D02*
X138439402Y-73095914D01*
X135359088Y-73250000D02*
X137216512Y-73250000D01*
X134354912Y-73250000D02*
X134508998Y-73095914D01*
X138439402Y-73095914D02*
X138556490Y-73213002D01*
X138556490Y-73213002D02*
X141043010Y-73213002D01*
X121277962Y-73095972D02*
X121522000Y-73340010D01*
X111108000Y-73631000D02*
X111870000Y-72869000D01*
X118220000Y-72869000D02*
X118446972Y-73095972D01*
X118446972Y-73095972D02*
X121277962Y-73095972D01*
X111870000Y-72869000D02*
X118220000Y-72869000D01*
X125549010Y-92290010D02*
X121522000Y-92290010D01*
X131555000Y-92454000D02*
X125713000Y-92454000D01*
X125713000Y-92454000D02*
X125549010Y-92290010D01*
X137216512Y-92200000D02*
X137370598Y-92045914D01*
X131809000Y-92200000D02*
X134354912Y-92200000D01*
X134508998Y-92045914D02*
X135205002Y-92045914D01*
X131555000Y-92454000D02*
X131809000Y-92200000D01*
X135205002Y-92045914D02*
X135359088Y-92200000D01*
X137370598Y-92045914D02*
X138439402Y-92045914D01*
X135359088Y-92200000D02*
X137216512Y-92200000D01*
X134354912Y-92200000D02*
X134508998Y-92045914D01*
X138439402Y-92045914D02*
X138556490Y-92163002D01*
X138556490Y-92163002D02*
X141043010Y-92163002D01*
X121277962Y-92045972D02*
X121522000Y-92290010D01*
X111108000Y-92581000D02*
X111870000Y-91819000D01*
X118220000Y-91819000D02*
X118446972Y-92045972D01*
X118446972Y-92045972D02*
X121277962Y-92045972D01*
X111870000Y-91819000D02*
X118220000Y-91819000D01*
X140572000Y-70075000D02*
X138794000Y-70075000D01*
X138630001Y-70296001D02*
X138216002Y-70710000D01*
X138630001Y-70238999D02*
X138630001Y-70296001D01*
X138794000Y-70075000D02*
X138630001Y-70238999D01*
X138216002Y-70710000D02*
X135873000Y-70710000D01*
X135549990Y-71033010D02*
X134359598Y-71033010D01*
X135873000Y-70710000D02*
X135549990Y-71033010D01*
X134359598Y-71033010D02*
X133401588Y-70075000D01*
X130920000Y-70075000D02*
X130666000Y-70329000D01*
X133401588Y-70075000D02*
X130920000Y-70075000D01*
X140572000Y-70075000D02*
X141715000Y-70075000D01*
X149462000Y-74774000D02*
X148065000Y-76171000D01*
X149933001Y-74302999D02*
X149462000Y-74774000D01*
X149208000Y-70075000D02*
X149933001Y-70800001D01*
X146668000Y-70075000D02*
X149208000Y-70075000D01*
X145746989Y-70996011D02*
X146668000Y-70075000D01*
X149933001Y-70800001D02*
X149933001Y-74302999D01*
X144287011Y-70996011D02*
X145746989Y-70996011D01*
X143366000Y-70075000D02*
X144287011Y-70996011D01*
X141715000Y-70075000D02*
X143366000Y-70075000D01*
X111761999Y-70474999D02*
X114899001Y-70474999D01*
X128183999Y-70906001D02*
X121489676Y-70906001D01*
X128761000Y-70329000D02*
X128183999Y-70906001D01*
X111362000Y-70075000D02*
X111761999Y-70474999D01*
X117400998Y-70710000D02*
X118926528Y-70710000D01*
X116823000Y-70132002D02*
X117400998Y-70710000D01*
X130666000Y-70329000D02*
X128761000Y-70329000D01*
X114899001Y-70474999D02*
X115241998Y-70132002D01*
X120346970Y-70393040D02*
X120379000Y-70361010D01*
X115241998Y-70132002D02*
X116823000Y-70132002D01*
X118926528Y-70710000D02*
X119243488Y-70393040D01*
X121489676Y-70906001D02*
X120944685Y-70361010D01*
X119243488Y-70393040D02*
X120346970Y-70393040D01*
X120944685Y-70361010D02*
X120379000Y-70361010D01*
X140572000Y-89025000D02*
X138794000Y-89025000D01*
X138630001Y-89246001D02*
X138216002Y-89660000D01*
X138630001Y-89188999D02*
X138630001Y-89246001D01*
X138794000Y-89025000D02*
X138630001Y-89188999D01*
X138216002Y-89660000D02*
X135873000Y-89660000D01*
X135549990Y-89983010D02*
X134359598Y-89983010D01*
X135873000Y-89660000D02*
X135549990Y-89983010D01*
X134359598Y-89983010D02*
X133401588Y-89025000D01*
X130920000Y-89025000D02*
X130666000Y-89279000D01*
X133401588Y-89025000D02*
X130920000Y-89025000D01*
X140572000Y-89025000D02*
X141715000Y-89025000D01*
X149462000Y-93724000D02*
X148065000Y-95121000D01*
X149933001Y-93252999D02*
X149462000Y-93724000D01*
X149208000Y-89025000D02*
X149933001Y-89750001D01*
X146668000Y-89025000D02*
X149208000Y-89025000D01*
X145746989Y-89946011D02*
X146668000Y-89025000D01*
X149933001Y-89750001D02*
X149933001Y-93252999D01*
X144287011Y-89946011D02*
X145746989Y-89946011D01*
X143366000Y-89025000D02*
X144287011Y-89946011D01*
X141715000Y-89025000D02*
X143366000Y-89025000D01*
X111761999Y-89424999D02*
X114899001Y-89424999D01*
X128183999Y-89856001D02*
X121489676Y-89856001D01*
X128761000Y-89279000D02*
X128183999Y-89856001D01*
X111362000Y-89025000D02*
X111761999Y-89424999D01*
X117400998Y-89660000D02*
X118926528Y-89660000D01*
X116823000Y-89082002D02*
X117400998Y-89660000D01*
X130666000Y-89279000D02*
X128761000Y-89279000D01*
X114899001Y-89424999D02*
X115241998Y-89082002D01*
X120346970Y-89343040D02*
X120379000Y-89311010D01*
X115241998Y-89082002D02*
X116823000Y-89082002D01*
X118926528Y-89660000D02*
X119243488Y-89343040D01*
X121489676Y-89856001D02*
X120944685Y-89311010D01*
X119243488Y-89343040D02*
X120346970Y-89343040D01*
X120944685Y-89311010D02*
X120379000Y-89311010D01*
X132381084Y-73820916D02*
X131940660Y-74261340D01*
X134857000Y-73820916D02*
X132381084Y-73820916D01*
X131940660Y-74261340D02*
X125336660Y-74261340D01*
X141768011Y-73522999D02*
X141352999Y-73938011D01*
X145017000Y-73123000D02*
X144617001Y-73522999D01*
X138645088Y-73938011D02*
X138253002Y-73545925D01*
X141352999Y-73938011D02*
X138645088Y-73938011D01*
X138253002Y-73545925D02*
X137556998Y-73545925D01*
X137556998Y-73545925D02*
X137282007Y-73820916D01*
X137282007Y-73820916D02*
X134857000Y-73820916D01*
X144617001Y-73522999D02*
X141768011Y-73522999D01*
X125336660Y-74261340D02*
X125140332Y-74065012D01*
X114537000Y-73631000D02*
X116823000Y-73631000D01*
X120685264Y-74065012D02*
X120441226Y-73820974D01*
X116823000Y-73631000D02*
X117040001Y-73413999D01*
X125140332Y-74065012D02*
X120685264Y-74065012D01*
X118005263Y-73413999D02*
X118412238Y-73820974D01*
X117040001Y-73413999D02*
X118005263Y-73413999D01*
X118412238Y-73820974D02*
X120441226Y-73820974D01*
X132381084Y-92770916D02*
X131940660Y-93211340D01*
X134857000Y-92770916D02*
X132381084Y-92770916D01*
X131940660Y-93211340D02*
X125336660Y-93211340D01*
X141768011Y-92472999D02*
X141352999Y-92888011D01*
X145017000Y-92073000D02*
X144617001Y-92472999D01*
X138645088Y-92888011D02*
X138253002Y-92495925D01*
X141352999Y-92888011D02*
X138645088Y-92888011D01*
X138253002Y-92495925D02*
X137556998Y-92495925D01*
X137556998Y-92495925D02*
X137282007Y-92770916D01*
X137282007Y-92770916D02*
X134857000Y-92770916D01*
X144617001Y-92472999D02*
X141768011Y-92472999D01*
X125336660Y-93211340D02*
X125140332Y-93015012D01*
X114537000Y-92581000D02*
X116823000Y-92581000D01*
X120685264Y-93015012D02*
X120441226Y-92770974D01*
X116823000Y-92581000D02*
X117040001Y-92363999D01*
X125140332Y-93015012D02*
X120685264Y-93015012D01*
X118005263Y-92363999D02*
X118412238Y-92770974D01*
X117040001Y-92363999D02*
X118005263Y-92363999D01*
X118412238Y-92770974D02*
X120441226Y-92770974D01*
X127636999Y-65103001D02*
X127618000Y-65122000D01*
X137378001Y-65103001D02*
X127636999Y-65103001D01*
X137778000Y-65503000D02*
X137378001Y-65103001D01*
X117839000Y-65122000D02*
X117458000Y-65503000D01*
X127618000Y-65122000D02*
X117839000Y-65122000D01*
X142985000Y-63852000D02*
X141647056Y-65189944D01*
X141647056Y-65189944D02*
X138091056Y-65189944D01*
X138091056Y-65189944D02*
X137778000Y-65503000D01*
X127636999Y-84053001D02*
X127618000Y-84072000D01*
X137378001Y-84053001D02*
X127636999Y-84053001D01*
X137778000Y-84453000D02*
X137378001Y-84053001D01*
X117839000Y-84072000D02*
X117458000Y-84453000D01*
X127618000Y-84072000D02*
X117839000Y-84072000D01*
X142985000Y-82802000D02*
X141647056Y-84139944D01*
X141647056Y-84139944D02*
X138091056Y-84139944D01*
X138091056Y-84139944D02*
X137778000Y-84453000D01*
X125332000Y-66392000D02*
X128634000Y-66392000D01*
X125078000Y-66646000D02*
X125332000Y-66392000D01*
X124385998Y-66646000D02*
X125078000Y-66646000D01*
X123877998Y-66138000D02*
X124385998Y-66646000D01*
X119109000Y-66138000D02*
X123877998Y-66138000D01*
X118601000Y-66646000D02*
X119109000Y-66138000D01*
X148192000Y-66773000D02*
X147792001Y-67172999D01*
X144654999Y-67172999D02*
X143620000Y-66138000D01*
X138915598Y-66364957D02*
X139078321Y-66364957D01*
X128634000Y-66392000D02*
X128851001Y-66174999D01*
X147792001Y-67172999D02*
X144654999Y-67172999D01*
X138602544Y-66678011D02*
X138915598Y-66364957D01*
X134004999Y-66174999D02*
X134508011Y-66678011D01*
X143620000Y-66138000D02*
X139305278Y-66138000D01*
X139305278Y-66138000D02*
X139078321Y-66364957D01*
X134508011Y-66678011D02*
X138602544Y-66678011D01*
X128851001Y-66174999D02*
X134004999Y-66174999D01*
X125332000Y-85342000D02*
X128634000Y-85342000D01*
X125078000Y-85596000D02*
X125332000Y-85342000D01*
X124385998Y-85596000D02*
X125078000Y-85596000D01*
X123877998Y-85088000D02*
X124385998Y-85596000D01*
X119109000Y-85088000D02*
X123877998Y-85088000D01*
X118601000Y-85596000D02*
X119109000Y-85088000D01*
X148192000Y-85723000D02*
X147792001Y-86122999D01*
X144654999Y-86122999D02*
X143620000Y-85088000D01*
X138915598Y-85314957D02*
X139078321Y-85314957D01*
X128634000Y-85342000D02*
X128851001Y-85124999D01*
X147792001Y-86122999D02*
X144654999Y-86122999D01*
X138602544Y-85628011D02*
X138915598Y-85314957D01*
X134004999Y-85124999D02*
X134508011Y-85628011D01*
X143620000Y-85088000D02*
X139305278Y-85088000D01*
X139305278Y-85088000D02*
X139078321Y-85314957D01*
X134508011Y-85628011D02*
X138602544Y-85628011D01*
X128851001Y-85124999D02*
X134004999Y-85124999D01*
X130031000Y-69567000D02*
X129867001Y-69730999D01*
X134545998Y-70583000D02*
X133529998Y-69567000D01*
X135238000Y-70583000D02*
X134545998Y-70583000D01*
X135873000Y-69948000D02*
X135238000Y-70583000D01*
X129867001Y-69730999D02*
X127998991Y-69730999D01*
X137905000Y-69948000D02*
X135873000Y-69948000D01*
X133529998Y-69567000D02*
X130031000Y-69567000D01*
X127998991Y-69730999D02*
X127872000Y-69857990D01*
X145365001Y-70546001D02*
X146725002Y-69186000D01*
X143435998Y-69313000D02*
X144668999Y-70546001D01*
X141080000Y-69313000D02*
X143435998Y-69313000D01*
X140953000Y-69440000D02*
X141080000Y-69313000D01*
X146725002Y-69186000D02*
X149462000Y-69186000D01*
X137905000Y-69948000D02*
X138413000Y-69440000D01*
X144668999Y-70546001D02*
X145365001Y-70546001D01*
X138413000Y-69440000D02*
X140953000Y-69440000D01*
X119963821Y-69603999D02*
X119624791Y-69943029D01*
X123803187Y-70455990D02*
X122951196Y-69603999D01*
X127274000Y-70455990D02*
X123803187Y-70455990D01*
X119624791Y-69943029D02*
X117716971Y-69943029D01*
X127872000Y-69857990D02*
X127274000Y-70455990D01*
X122951196Y-69603999D02*
X119963821Y-69603999D01*
X117716971Y-69943029D02*
X117712000Y-69948000D01*
X130031000Y-88517000D02*
X129867001Y-88680999D01*
X134545998Y-89533000D02*
X133529998Y-88517000D01*
X135238000Y-89533000D02*
X134545998Y-89533000D01*
X135873000Y-88898000D02*
X135238000Y-89533000D01*
X129867001Y-88680999D02*
X127998991Y-88680999D01*
X137905000Y-88898000D02*
X135873000Y-88898000D01*
X133529998Y-88517000D02*
X130031000Y-88517000D01*
X127998991Y-88680999D02*
X127872000Y-88807990D01*
X145365001Y-89496001D02*
X146725002Y-88136000D01*
X143435998Y-88263000D02*
X144668999Y-89496001D01*
X141080000Y-88263000D02*
X143435998Y-88263000D01*
X140953000Y-88390000D02*
X141080000Y-88263000D01*
X146725002Y-88136000D02*
X149462000Y-88136000D01*
X137905000Y-88898000D02*
X138413000Y-88390000D01*
X144668999Y-89496001D02*
X145365001Y-89496001D01*
X138413000Y-88390000D02*
X140953000Y-88390000D01*
X119963821Y-88553999D02*
X119624791Y-88893029D01*
X123803187Y-89405990D02*
X122951196Y-88553999D01*
X127274000Y-89405990D02*
X123803187Y-89405990D01*
X119624791Y-88893029D02*
X117716971Y-88893029D01*
X127872000Y-88807990D02*
X127274000Y-89405990D01*
X122951196Y-88553999D02*
X119963821Y-88553999D01*
X117716971Y-88893029D02*
X117712000Y-88898000D01*
X133968000Y-72742000D02*
X128888000Y-72742000D01*
X134222000Y-72488000D02*
X133968000Y-72742000D01*
X134222000Y-72488000D02*
X138921000Y-72488000D01*
X146414000Y-73250000D02*
X148573000Y-73250000D01*
X145561999Y-72397999D02*
X146414000Y-73250000D01*
X144668999Y-72397999D02*
X145561999Y-72397999D01*
X144255000Y-72811998D02*
X144668999Y-72397999D01*
X141911998Y-72811998D02*
X144255000Y-72811998D01*
X141588000Y-72488000D02*
X141911998Y-72811998D01*
X138921000Y-72488000D02*
X141588000Y-72488000D01*
X125713000Y-72742000D02*
X125586000Y-72615000D01*
X128888000Y-72742000D02*
X125713000Y-72742000D01*
X125586000Y-72615000D02*
X118990125Y-72615000D01*
X118990125Y-72615000D02*
X118707317Y-72332192D01*
X133968000Y-91692000D02*
X128888000Y-91692000D01*
X134222000Y-91438000D02*
X133968000Y-91692000D01*
X134222000Y-91438000D02*
X138921000Y-91438000D01*
X146414000Y-92200000D02*
X148573000Y-92200000D01*
X145561999Y-91347999D02*
X146414000Y-92200000D01*
X144668999Y-91347999D02*
X145561999Y-91347999D01*
X144255000Y-91761998D02*
X144668999Y-91347999D01*
X141911998Y-91761998D02*
X144255000Y-91761998D01*
X141588000Y-91438000D02*
X141911998Y-91761998D01*
X138921000Y-91438000D02*
X141588000Y-91438000D01*
X125713000Y-91692000D02*
X125586000Y-91565000D01*
X128888000Y-91692000D02*
X125713000Y-91692000D01*
X125586000Y-91565000D02*
X118990125Y-91565000D01*
X118990125Y-91565000D02*
X118707317Y-91282192D01*
X132063000Y-75028000D02*
X132665949Y-74425051D01*
X134234007Y-74425051D02*
X134354944Y-74545988D01*
X134354944Y-74545988D02*
X137629939Y-74545988D01*
X137629939Y-74545988D02*
X137905000Y-74270927D01*
X132665949Y-74425051D02*
X134234007Y-74425051D01*
X127745000Y-75028000D02*
X132063000Y-75028000D01*
X138022095Y-74388022D02*
X137905000Y-74270927D01*
X147593999Y-73794999D02*
X145303999Y-73794999D01*
X145303999Y-73794999D02*
X144828071Y-74270927D01*
X144828071Y-74270927D02*
X141694498Y-74270927D01*
X141577403Y-74388022D02*
X138022095Y-74388022D01*
X141694498Y-74270927D02*
X141577403Y-74388022D01*
X148065000Y-74266000D02*
X147593999Y-73794999D01*
X125078000Y-75028000D02*
X127745000Y-75028000D01*
X124595988Y-74545988D02*
X125078000Y-75028000D01*
X117585000Y-74139000D02*
X117991988Y-74545988D01*
X117991988Y-74545988D02*
X124595988Y-74545988D01*
X132063000Y-93978000D02*
X132665949Y-93375051D01*
X134234007Y-93375051D02*
X134354944Y-93495988D01*
X134354944Y-93495988D02*
X137629939Y-93495988D01*
X137629939Y-93495988D02*
X137905000Y-93220927D01*
X132665949Y-93375051D02*
X134234007Y-93375051D01*
X127745000Y-93978000D02*
X132063000Y-93978000D01*
X138022095Y-93338022D02*
X137905000Y-93220927D01*
X147593999Y-92744999D02*
X145303999Y-92744999D01*
X145303999Y-92744999D02*
X144828071Y-93220927D01*
X144828071Y-93220927D02*
X141694498Y-93220927D01*
X141577403Y-93338022D02*
X138022095Y-93338022D01*
X141694498Y-93220927D02*
X141577403Y-93338022D01*
X148065000Y-93216000D02*
X147593999Y-92744999D01*
X125078000Y-93978000D02*
X127745000Y-93978000D01*
X124595988Y-93495988D02*
X125078000Y-93978000D01*
X117585000Y-93089000D02*
X117991988Y-93495988D01*
X117991988Y-93495988D02*
X124595988Y-93495988D01*
X149335000Y-66842998D02*
X147646003Y-65154001D01*
X146827001Y-65154001D02*
X147081001Y-65154001D01*
X145525000Y-63852000D02*
X146827001Y-65154001D01*
X147081001Y-65154001D02*
X146700001Y-65154001D01*
X147646003Y-65154001D02*
X147081001Y-65154001D01*
X118848765Y-68170000D02*
X119236000Y-68170000D01*
X128724001Y-67625001D02*
X129015000Y-67916000D01*
X119780999Y-67625001D02*
X128724001Y-67625001D01*
X119236000Y-68170000D02*
X119780999Y-67625001D01*
X149335000Y-67916000D02*
X149335000Y-66842998D01*
X138609315Y-67814968D02*
X139175000Y-67814968D01*
X129015000Y-67916000D02*
X129270157Y-67660843D01*
X130871740Y-67660843D02*
X131025865Y-67814968D01*
X131025865Y-67814968D02*
X138609315Y-67814968D01*
X129270157Y-67660843D02*
X130871740Y-67660843D01*
X149335000Y-67916000D02*
X141501184Y-67916000D01*
X139963426Y-67814968D02*
X139175000Y-67814968D01*
X141501184Y-67916000D02*
X141029791Y-67444607D01*
X141029791Y-67444607D02*
X140333787Y-67444607D01*
X140333787Y-67444607D02*
X139963426Y-67814968D01*
X149335000Y-85792998D02*
X147646003Y-84104001D01*
X146827001Y-84104001D02*
X147081001Y-84104001D01*
X145525000Y-82802000D02*
X146827001Y-84104001D01*
X147081001Y-84104001D02*
X146700001Y-84104001D01*
X147646003Y-84104001D02*
X147081001Y-84104001D01*
X118848765Y-87120000D02*
X119236000Y-87120000D01*
X128724001Y-86575001D02*
X129015000Y-86866000D01*
X119780999Y-86575001D02*
X128724001Y-86575001D01*
X119236000Y-87120000D02*
X119780999Y-86575001D01*
X149335000Y-86866000D02*
X149335000Y-85792998D01*
X138609315Y-86764968D02*
X139175000Y-86764968D01*
X129015000Y-86866000D02*
X129270157Y-86610843D01*
X130871740Y-86610843D02*
X131025865Y-86764968D01*
X131025865Y-86764968D02*
X138609315Y-86764968D01*
X129270157Y-86610843D02*
X130871740Y-86610843D01*
X149335000Y-86866000D02*
X141501184Y-86866000D01*
X139963426Y-86764968D02*
X139175000Y-86764968D01*
X141501184Y-86866000D02*
X141029791Y-86394607D01*
X141029791Y-86394607D02*
X140333787Y-86394607D01*
X140333787Y-86394607D02*
X139963426Y-86764968D01*
X139429000Y-70837000D02*
X142350000Y-70837000D01*
X143239000Y-71726000D02*
X149208000Y-71726000D01*
X142350000Y-70837000D02*
X143239000Y-71726000D01*
X129269000Y-71091000D02*
X133333000Y-71091000D01*
X133333000Y-71091000D02*
X133725020Y-71483020D01*
X133725020Y-71483020D02*
X138146569Y-71483020D01*
X138146569Y-71483020D02*
X138792589Y-70837000D01*
X138792589Y-70837000D02*
X139429000Y-70837000D01*
X129269000Y-71091000D02*
X128869001Y-71490999D01*
X121090051Y-71490999D02*
X120717093Y-71118041D01*
X128869001Y-71490999D02*
X121090051Y-71490999D01*
X120717093Y-71118041D02*
X119591489Y-71118041D01*
X139429000Y-89787000D02*
X142350000Y-89787000D01*
X143239000Y-90676000D02*
X149208000Y-90676000D01*
X142350000Y-89787000D02*
X143239000Y-90676000D01*
X129269000Y-90041000D02*
X133333000Y-90041000D01*
X133333000Y-90041000D02*
X133725020Y-90433020D01*
X133725020Y-90433020D02*
X138146569Y-90433020D01*
X138146569Y-90433020D02*
X138792589Y-89787000D01*
X138792589Y-89787000D02*
X139429000Y-89787000D01*
X129269000Y-90041000D02*
X128869001Y-90440999D01*
X121090051Y-90440999D02*
X120717093Y-90068041D01*
X128869001Y-90440999D02*
X121090051Y-90440999D01*
X120717093Y-90068041D02*
X119591489Y-90068041D01*
M02*
