M48
; DRILL file {KiCad (5.1.9)-1} date 05/19/21 12:02:57
; FORMAT={-:-/ absolute / inch / decimal}
; #@! TF.CreationDate,2021-05-19T12:02:57-04:00
; #@! TF.GenerationSoftware,Kicad,Pcbnew,(5.1.9)-1
; #@! TF.FileFunction,NonPlated,1,2,NPTH
FMAT,2
INCH
T1C0.0236
%
G90
G05
T1
X3.8918Y-2.828
X3.8918Y-2.8635
X3.8918Y-2.953
X3.8918Y-2.9885
X3.892Y-3.5054
X3.892Y-3.5408
X3.892Y-3.6304
X3.892Y-3.6658
X3.9578Y-4.1821
X3.9578Y-4.2176
X3.9578Y-4.253
X3.9578Y-4.3071
X3.9578Y-4.3426
X3.9578Y-4.378
X3.9849Y-4.1551
X3.9849Y-4.2801
X3.9849Y-4.4051
X3.9953Y-4.1925
X3.9953Y-4.3676
X4.0168Y-2.8103
X4.0168Y-2.8457
X4.0168Y-2.8812
X4.0168Y-2.9353
X4.0168Y-2.9707
X4.0168Y-3.0062
X4.017Y-3.4877
X4.017Y-3.5231
X4.017Y-3.5585
X4.017Y-3.6127
X4.017Y-3.6481
X4.017Y-3.6835
X4.0203Y-4.1551
X4.0203Y-4.2176
X4.0203Y-4.2801
X4.0203Y-4.3426
X4.0203Y-4.4051
X4.0439Y-2.7832
X4.0439Y-2.9082
X4.0439Y-3.0332
X4.0441Y-3.4606
X4.0441Y-3.5856
X4.0441Y-3.7106
X4.0454Y-4.2426
X4.0454Y-4.3175
X4.0543Y-2.8207
X4.0543Y-2.9958
X4.0544Y-3.4981
X4.0544Y-3.6732
X4.0558Y-4.1551
X4.0558Y-4.2801
X4.0558Y-4.4051
X4.0793Y-2.7832
X4.0793Y-2.8457
X4.0793Y-2.9082
X4.0793Y-2.9707
X4.0793Y-3.0332
X4.0795Y-3.4606
X4.0795Y-3.5231
X4.0795Y-3.5856
X4.0795Y-3.6481
X4.0795Y-3.7106
X4.0828Y-4.1821
X4.0828Y-4.2176
X4.0828Y-4.253
X4.0828Y-4.3071
X4.0828Y-4.3426
X4.0828Y-4.378
X4.1044Y-2.8708
X4.1044Y-2.9457
X4.1045Y-3.5482
X4.1045Y-3.6231
X4.1099Y-4.1551
X4.1099Y-4.2801
X4.1099Y-4.4051
X4.1148Y-2.7832
X4.1148Y-2.9082
X4.1148Y-3.0332
X4.1149Y-3.4606
X4.1149Y-3.5856
X4.1149Y-3.7106
X4.1203Y-4.2426
X4.1203Y-4.3175
X4.1418Y-2.8103
X4.1418Y-2.8457
X4.1418Y-2.8812
X4.1418Y-2.9353
X4.1418Y-2.9707
X4.1418Y-3.0062
X4.142Y-3.4877
X4.142Y-3.5231
X4.142Y-3.5585
X4.142Y-3.6127
X4.142Y-3.6481
X4.142Y-3.6835
X4.1453Y-4.1551
X4.1453Y-4.2176
X4.1453Y-4.2801
X4.1453Y-4.3426
X4.1453Y-4.4051
X4.1689Y-2.7832
X4.1689Y-2.9082
X4.1689Y-3.0332
X4.1691Y-3.4606
X4.1691Y-3.5856
X4.1691Y-3.7106
X4.1704Y-4.1925
X4.1704Y-4.3676
X4.1793Y-2.8708
X4.1793Y-2.9457
X4.1794Y-3.5482
X4.1794Y-3.6231
X4.1808Y-4.1551
X4.1808Y-4.2801
X4.1808Y-4.4051
X4.2043Y-2.7832
X4.2043Y-2.8457
X4.2043Y-2.9082
X4.2043Y-2.9707
X4.2043Y-3.0332
X4.2045Y-3.4606
X4.2045Y-3.5231
X4.2045Y-3.5856
X4.2045Y-3.6481
X4.2045Y-3.7106
X4.2078Y-4.1821
X4.2078Y-4.2176
X4.2078Y-4.253
X4.2078Y-4.3071
X4.2078Y-4.3426
X4.2078Y-4.378
X4.2294Y-2.8207
X4.2294Y-2.9958
X4.2295Y-3.4981
X4.2295Y-3.6732
X4.2398Y-2.7832
X4.2398Y-2.9082
X4.2398Y-3.0332
X4.2399Y-3.4606
X4.2399Y-3.5856
X4.2399Y-3.7106
X4.2668Y-2.8103
X4.2668Y-2.8457
X4.2668Y-2.8812
X4.2668Y-2.9353
X4.2668Y-2.9707
X4.2668Y-3.0062
X4.267Y-3.4877
X4.267Y-3.5231
X4.267Y-3.5585
X4.267Y-3.6127
X4.267Y-3.6481
X4.267Y-3.6835
X4.2696Y-4.1821
X4.2696Y-4.2176
X4.2696Y-4.253
X4.2696Y-4.3071
X4.2696Y-4.3426
X4.2696Y-4.378
X4.2967Y-4.1551
X4.2967Y-4.2801
X4.2967Y-4.4051
X4.3071Y-4.1925
X4.3071Y-4.3676
X4.3321Y-4.1551
X4.3321Y-4.2176
X4.3321Y-4.2801
X4.3321Y-4.3426
X4.3321Y-4.4051
X4.3572Y-4.2426
X4.3572Y-4.3175
X4.3676Y-4.1551
X4.3676Y-4.2801
X4.3676Y-4.4051
X4.3946Y-4.1821
X4.3946Y-4.2176
X4.3946Y-4.253
X4.3946Y-4.3071
X4.3946Y-4.3426
X4.3946Y-4.378
X4.4168Y-2.8103
X4.4168Y-2.8457
X4.4168Y-2.8812
X4.4168Y-2.9353
X4.4168Y-2.9707
X4.4168Y-3.0062
X4.417Y-3.4877
X4.417Y-3.5231
X4.417Y-3.5585
X4.417Y-3.6127
X4.417Y-3.6481
X4.417Y-3.6835
X4.4217Y-4.1551
X4.4217Y-4.2801
X4.4217Y-4.4051
X4.4321Y-4.2426
X4.4321Y-4.3175
X4.4439Y-2.7832
X4.4439Y-2.9082
X4.4439Y-3.0332
X4.4441Y-3.4606
X4.4441Y-3.5856
X4.4441Y-3.7106
X4.4543Y-2.8207
X4.4543Y-2.9958
X4.4544Y-3.4981
X4.4544Y-3.6732
X4.4571Y-4.1551
X4.4571Y-4.2176
X4.4571Y-4.2801
X4.4571Y-4.3426
X4.4571Y-4.4051
X4.4793Y-2.7832
X4.4793Y-2.8457
X4.4793Y-2.9082
X4.4793Y-2.9707
X4.4793Y-3.0332
X4.4795Y-3.4606
X4.4795Y-3.5231
X4.4795Y-3.5856
X4.4795Y-3.6481
X4.4795Y-3.7106
X4.4822Y-4.1925
X4.4822Y-4.3676
X4.4926Y-4.1551
X4.4926Y-4.2801
X4.4926Y-4.4051
X4.5044Y-2.8708
X4.5044Y-2.9457
X4.5045Y-3.5482
X4.5045Y-3.6231
X4.5148Y-2.7832
X4.5148Y-2.9082
X4.5148Y-3.0332
X4.5149Y-3.4606
X4.5149Y-3.5856
X4.5149Y-3.7106
X4.5196Y-4.1821
X4.5196Y-4.2176
X4.5196Y-4.253
X4.5196Y-4.3071
X4.5196Y-4.3426
X4.5196Y-4.378
X4.5418Y-2.8103
X4.5418Y-2.8457
X4.5418Y-2.8812
X4.5418Y-2.9353
X4.5418Y-2.9707
X4.5418Y-3.0062
X4.542Y-3.4877
X4.542Y-3.5231
X4.542Y-3.5585
X4.542Y-3.6127
X4.542Y-3.6481
X4.542Y-3.6835
X4.5689Y-2.7832
X4.5689Y-2.9082
X4.5689Y-3.0332
X4.5691Y-3.4606
X4.5691Y-3.5856
X4.5691Y-3.7106
X4.5793Y-2.8708
X4.5793Y-2.9457
X4.5794Y-3.5482
X4.5794Y-3.6231
X4.5829Y-4.1822
X4.5829Y-4.2177
X4.5829Y-4.2531
X4.5829Y-4.3072
X4.5829Y-4.3427
X4.5829Y-4.3781
X4.5943Y-4.1552
X4.5943Y-4.2802
X4.5943Y-4.4052
X4.6043Y-2.7832
X4.6043Y-2.8457
X4.6043Y-2.9082
X4.6043Y-2.9707
X4.6043Y-3.0332
X4.6045Y-3.4606
X4.6045Y-3.5231
X4.6045Y-3.5856
X4.6045Y-3.6481
X4.6045Y-3.7106
X4.6294Y-2.8207
X4.6294Y-2.9958
X4.6295Y-3.4981
X4.6295Y-3.6732
X4.6297Y-4.1552
X4.6297Y-4.2802
X4.6297Y-4.4052
X4.6398Y-2.7832
X4.6398Y-2.9082
X4.6398Y-3.0332
X4.6399Y-3.4606
X4.6399Y-3.5856
X4.6399Y-3.7106
X4.6652Y-4.1552
X4.6652Y-4.2802
X4.6652Y-4.4052
X4.6668Y-2.8103
X4.6668Y-2.8457
X4.6668Y-2.8812
X4.6668Y-2.9353
X4.6668Y-2.9707
X4.6668Y-3.0062
X4.667Y-3.4877
X4.667Y-3.5231
X4.667Y-3.5585
X4.667Y-3.6127
X4.667Y-3.6481
X4.667Y-3.6835
X4.6766Y-4.1822
X4.6766Y-4.2177
X4.6766Y-4.2531
X4.6766Y-4.3072
X4.6766Y-4.3427
X4.6766Y-4.3781
X4.7548Y-4.1822
X4.7548Y-4.2177
X4.7548Y-4.2531
X4.7548Y-4.3072
X4.7548Y-4.3427
X4.7548Y-4.3781
X4.7662Y-4.1552
X4.7662Y-4.2802
X4.7662Y-4.4052
X4.8016Y-4.1552
X4.8016Y-4.2802
X4.8016Y-4.4052
X4.8168Y-2.8103
X4.8168Y-2.8457
X4.8168Y-2.8812
X4.8168Y-2.9353
X4.8168Y-2.9707
X4.8168Y-3.0062
X4.817Y-3.4877
X4.817Y-3.5231
X4.817Y-3.5585
X4.817Y-3.6127
X4.817Y-3.6481
X4.817Y-3.6835
X4.8371Y-4.1552
X4.8371Y-4.2802
X4.8371Y-4.4052
X4.8439Y-2.7832
X4.8439Y-2.9082
X4.8439Y-3.0332
X4.8441Y-3.4606
X4.8441Y-3.5856
X4.8441Y-3.7106
X4.8485Y-4.1822
X4.8485Y-4.2177
X4.8485Y-4.2531
X4.8485Y-4.3072
X4.8485Y-4.3427
X4.8485Y-4.3781
X4.8543Y-2.8207
X4.8543Y-2.9958
X4.8544Y-3.4981
X4.8544Y-3.6732
X4.8793Y-2.7832
X4.8793Y-2.8457
X4.8793Y-2.9082
X4.8793Y-2.9707
X4.8793Y-3.0332
X4.8795Y-3.4606
X4.8795Y-3.5231
X4.8795Y-3.5856
X4.8795Y-3.6481
X4.8795Y-3.7106
X4.9044Y-2.8708
X4.9044Y-2.9457
X4.9045Y-3.5482
X4.9045Y-3.6231
X4.9148Y-2.7832
X4.9148Y-2.9082
X4.9148Y-3.0332
X4.9149Y-3.4606
X4.9149Y-3.5856
X4.9149Y-3.7106
X4.9267Y-4.1822
X4.9267Y-4.2177
X4.9267Y-4.2531
X4.9267Y-4.3072
X4.9267Y-4.3427
X4.9267Y-4.3781
X4.9381Y-4.1552
X4.9381Y-4.2802
X4.9381Y-4.4052
X4.9418Y-2.8103
X4.9418Y-2.8457
X4.9418Y-2.8812
X4.9418Y-2.9353
X4.9418Y-2.9707
X4.9418Y-3.0062
X4.942Y-3.4877
X4.942Y-3.5231
X4.942Y-3.5585
X4.942Y-3.6127
X4.942Y-3.6481
X4.942Y-3.6835
X4.9689Y-2.7832
X4.9689Y-2.9082
X4.9689Y-3.0332
X4.9691Y-3.4606
X4.9691Y-3.5856
X4.9691Y-3.7106
X4.9735Y-4.1552
X4.9735Y-4.2802
X4.9735Y-4.4052
X4.9793Y-2.8708
X4.9793Y-2.9457
X4.9794Y-3.5482
X4.9794Y-3.6231
X5.0043Y-2.7832
X5.0043Y-2.8457
X5.0043Y-2.9082
X5.0043Y-2.9707
X5.0043Y-3.0332
X5.0045Y-3.4606
X5.0045Y-3.5231
X5.0045Y-3.5856
X5.0045Y-3.6481
X5.0045Y-3.7106
X5.009Y-4.1552
X5.009Y-4.2802
X5.009Y-4.4052
X5.0204Y-4.1822
X5.0204Y-4.2177
X5.0204Y-4.2531
X5.0204Y-4.3072
X5.0204Y-4.3427
X5.0204Y-4.3781
X5.0294Y-2.8207
X5.0294Y-2.9958
X5.0295Y-3.4981
X5.0295Y-3.6732
X5.0398Y-2.7832
X5.0398Y-2.9082
X5.0398Y-3.0332
X5.0399Y-3.4606
X5.0399Y-3.5856
X5.0399Y-3.7106
X5.0668Y-2.8103
X5.0668Y-2.8457
X5.0668Y-2.8812
X5.0668Y-2.9353
X5.0668Y-2.9707
X5.0668Y-3.0062
X5.067Y-3.4877
X5.067Y-3.5231
X5.067Y-3.5585
X5.067Y-3.6127
X5.067Y-3.6481
X5.067Y-3.6835
X5.0985Y-4.1822
X5.0985Y-4.2177
X5.0985Y-4.2531
X5.0985Y-4.3072
X5.0985Y-4.3427
X5.0985Y-4.3781
X5.11Y-4.1552
X5.11Y-4.2802
X5.11Y-4.4052
X5.1454Y-4.1552
X5.1454Y-4.2802
X5.1454Y-4.4052
X5.1809Y-4.1552
X5.1809Y-4.2802
X5.1809Y-4.4052
X5.1923Y-4.1822
X5.1923Y-4.2177
X5.1923Y-4.2531
X5.1923Y-4.3072
X5.1923Y-4.3427
X5.1923Y-4.3781
X5.2168Y-2.8103
X5.2168Y-2.8457
X5.2168Y-2.8812
X5.2168Y-2.9353
X5.2168Y-2.9707
X5.2168Y-3.0062
X5.217Y-3.4877
X5.217Y-3.5231
X5.217Y-3.5585
X5.217Y-3.6127
X5.217Y-3.6481
X5.217Y-3.6835
X5.2439Y-2.7832
X5.2439Y-2.9082
X5.2439Y-3.0332
X5.2441Y-3.4606
X5.2441Y-3.5856
X5.2441Y-3.7106
X5.2543Y-2.8207
X5.2543Y-2.9958
X5.2544Y-3.4981
X5.2544Y-3.6732
X5.2704Y-4.1822
X5.2704Y-4.2177
X5.2704Y-4.2531
X5.2704Y-4.3072
X5.2704Y-4.3427
X5.2704Y-4.3781
X5.2793Y-2.7832
X5.2793Y-2.8457
X5.2793Y-2.9082
X5.2793Y-2.9707
X5.2793Y-3.0332
X5.2795Y-3.4606
X5.2795Y-3.5231
X5.2795Y-3.5856
X5.2795Y-3.6481
X5.2795Y-3.7106
X5.2819Y-4.1552
X5.2819Y-4.2802
X5.2819Y-4.4052
X5.3044Y-2.8708
X5.3044Y-2.9457
X5.3045Y-3.5482
X5.3045Y-3.6231
X5.3148Y-2.7832
X5.3148Y-2.9082
X5.3148Y-3.0332
X5.3149Y-3.4606
X5.3149Y-3.5856
X5.3149Y-3.7106
X5.3173Y-4.1552
X5.3173Y-4.2802
X5.3173Y-4.4052
X5.3418Y-2.8103
X5.3418Y-2.8457
X5.3418Y-2.8812
X5.3418Y-2.9353
X5.3418Y-2.9707
X5.3418Y-3.0062
X5.342Y-3.4877
X5.342Y-3.5231
X5.342Y-3.5585
X5.342Y-3.6127
X5.342Y-3.6481
X5.342Y-3.6835
X5.3527Y-4.1552
X5.3527Y-4.2802
X5.3527Y-4.4052
X5.3642Y-4.1822
X5.3642Y-4.2177
X5.3642Y-4.2531
X5.3642Y-4.3072
X5.3642Y-4.3427
X5.3642Y-4.3781
X5.3689Y-2.7832
X5.3689Y-2.9082
X5.3689Y-3.0332
X5.3691Y-3.4606
X5.3691Y-3.5856
X5.3691Y-3.7106
X5.3793Y-2.8708
X5.3793Y-2.9457
X5.3794Y-3.5482
X5.3794Y-3.6231
X5.4043Y-2.7832
X5.4043Y-2.8457
X5.4043Y-2.9082
X5.4043Y-2.9707
X5.4043Y-3.0332
X5.4045Y-3.4606
X5.4045Y-3.5231
X5.4045Y-3.5856
X5.4045Y-3.6481
X5.4045Y-3.7106
X5.4294Y-2.8207
X5.4294Y-2.9958
X5.4295Y-3.4981
X5.4295Y-3.6732
X5.4398Y-2.7832
X5.4398Y-2.9082
X5.4398Y-3.0332
X5.4399Y-3.4606
X5.4399Y-3.5856
X5.4399Y-3.7106
X5.4423Y-4.1822
X5.4423Y-4.2177
X5.4423Y-4.2531
X5.4423Y-4.3072
X5.4423Y-4.3427
X5.4423Y-4.3781
X5.4538Y-4.1552
X5.4538Y-4.2802
X5.4538Y-4.4052
X5.4668Y-2.8103
X5.4668Y-2.8457
X5.4668Y-2.8812
X5.4668Y-2.9353
X5.4668Y-2.9707
X5.4668Y-3.0062
X5.467Y-3.4877
X5.467Y-3.5231
X5.467Y-3.5585
X5.467Y-3.6127
X5.467Y-3.6481
X5.467Y-3.6835
X5.4892Y-4.1552
X5.4892Y-4.2802
X5.4892Y-4.4052
X5.5246Y-4.1552
X5.5246Y-4.2802
X5.5246Y-4.4052
X5.5361Y-4.1822
X5.5361Y-4.2177
X5.5361Y-4.2531
X5.5361Y-4.3072
X5.5361Y-4.3427
X5.5361Y-4.3781
X5.6142Y-4.1822
X5.6142Y-4.2177
X5.6142Y-4.2531
X5.6142Y-4.3072
X5.6142Y-4.3427
X5.6142Y-4.3781
X5.6257Y-4.1552
X5.6257Y-4.2802
X5.6257Y-4.4052
X5.6611Y-4.1552
X5.6611Y-4.2802
X5.6611Y-4.4052
X5.6965Y-4.1552
X5.6965Y-4.2802
X5.6965Y-4.4052
X5.708Y-4.1822
X5.708Y-4.2177
X5.708Y-4.2531
X5.708Y-4.3072
X5.708Y-4.3427
X5.708Y-4.3781
X5.7861Y-4.1822
X5.7861Y-4.2177
X5.7861Y-4.2531
X5.7861Y-4.3072
X5.7861Y-4.3427
X5.7861Y-4.3781
X5.7975Y-4.1552
X5.7975Y-4.2802
X5.7975Y-4.4052
X5.828Y-3.3261
X5.828Y-3.3615
X5.828Y-3.3969
X5.828Y-3.4511
X5.828Y-3.4865
X5.828Y-3.5219
X5.833Y-4.1552
X5.833Y-4.2802
X5.833Y-4.4052
X5.8551Y-3.299
X5.8551Y-3.424
X5.8551Y-3.549
X5.8655Y-3.3364
X5.8655Y-3.5116
X5.8684Y-4.1552
X5.8684Y-4.2802
X5.8684Y-4.4052
X5.8799Y-4.1822
X5.8799Y-4.2177
X5.8799Y-4.2531
X5.8799Y-4.3072
X5.8799Y-4.3427
X5.8799Y-4.3781
X5.8905Y-3.299
X5.8905Y-3.3615
X5.8905Y-3.424
X5.8905Y-3.4865
X5.8905Y-3.549
X5.9156Y-3.3866
X5.9156Y-3.4614
X5.9259Y-3.299
X5.9259Y-3.424
X5.9259Y-3.549
X5.953Y-3.3261
X5.953Y-3.3615
X5.953Y-3.3969
X5.953Y-3.4511
X5.953Y-3.4865
X5.953Y-3.5219
X5.958Y-4.1822
X5.958Y-4.2177
X5.958Y-4.2531
X5.958Y-4.3072
X5.958Y-4.3427
X5.958Y-4.3781
X5.9694Y-4.1552
X5.9694Y-4.2802
X5.9694Y-4.4052
X5.9801Y-3.299
X5.9801Y-3.424
X5.9801Y-3.549
X5.9905Y-3.3866
X5.9905Y-3.4614
X6.0049Y-4.1552
X6.0049Y-4.2802
X6.0049Y-4.4052
X6.0155Y-3.299
X6.0155Y-3.3615
X6.0155Y-3.424
X6.0155Y-3.4865
X6.0155Y-3.549
X6.0403Y-4.1552
X6.0403Y-4.2802
X6.0403Y-4.4052
X6.0406Y-3.3364
X6.0406Y-3.5116
X6.0509Y-3.299
X6.0509Y-3.424
X6.0509Y-3.549
X6.0517Y-4.1822
X6.0517Y-4.2177
X6.0517Y-4.2531
X6.0517Y-4.3072
X6.0517Y-4.3427
X6.0517Y-4.3781
X6.078Y-3.3261
X6.078Y-3.3615
X6.078Y-3.3969
X6.078Y-3.4511
X6.078Y-3.4865
X6.078Y-3.5219
T0
M30
