%TF.GenerationSoftware,KiCad,Pcbnew,(5.1.9)-1*%
%TF.CreationDate,2021-05-29T21:33:32-04:00*%
%TF.ProjectId,backside,6261636b-7369-4646-952e-6b696361645f,rev?*%
%TF.SameCoordinates,Original*%
%TF.FileFunction,Legend,Bot*%
%TF.FilePolarity,Positive*%
%FSLAX46Y46*%
G04 Gerber Fmt 4.6, Leading zero omitted, Abs format (unit mm)*
G04 Created by KiCad (PCBNEW (5.1.9)-1) date 2021-05-29 21:33:32*
%MOMM*%
%LPD*%
G01*
G04 APERTURE LIST*
%ADD10C,0.150000*%
G04 APERTURE END LIST*
D10*
X107139761Y-61952142D02*
X107187380Y-61999761D01*
X107330238Y-62047380D01*
X107425476Y-62047380D01*
X107568333Y-61999761D01*
X107663571Y-61904523D01*
X107711190Y-61809285D01*
X107758809Y-61618809D01*
X107758809Y-61475952D01*
X107711190Y-61285476D01*
X107663571Y-61190238D01*
X107568333Y-61095000D01*
X107425476Y-61047380D01*
X107330238Y-61047380D01*
X107187380Y-61095000D01*
X107139761Y-61142619D01*
X106139761Y-61952142D02*
X106187380Y-61999761D01*
X106330238Y-62047380D01*
X106425476Y-62047380D01*
X106568333Y-61999761D01*
X106663571Y-61904523D01*
X106711190Y-61809285D01*
X106758809Y-61618809D01*
X106758809Y-61475952D01*
X106711190Y-61285476D01*
X106663571Y-61190238D01*
X106568333Y-61095000D01*
X106425476Y-61047380D01*
X106330238Y-61047380D01*
X106187380Y-61095000D01*
X106139761Y-61142619D01*
X105711190Y-61666428D02*
X104949285Y-61666428D01*
X104139761Y-61523571D02*
X103996904Y-61571190D01*
X103949285Y-61618809D01*
X103901666Y-61714047D01*
X103901666Y-61856904D01*
X103949285Y-61952142D01*
X103996904Y-61999761D01*
X104092142Y-62047380D01*
X104473095Y-62047380D01*
X104473095Y-61047380D01*
X104139761Y-61047380D01*
X104044523Y-61095000D01*
X103996904Y-61142619D01*
X103949285Y-61237857D01*
X103949285Y-61333095D01*
X103996904Y-61428333D01*
X104044523Y-61475952D01*
X104139761Y-61523571D01*
X104473095Y-61523571D01*
X103282619Y-61571190D02*
X103282619Y-62047380D01*
X103615952Y-61047380D02*
X103282619Y-61571190D01*
X102949285Y-61047380D01*
X102615952Y-61666428D02*
X101854047Y-61666428D01*
X101377857Y-62047380D02*
X101377857Y-61047380D01*
X100806428Y-62047380D01*
X100806428Y-61047380D01*
X99758809Y-61952142D02*
X99806428Y-61999761D01*
X99949285Y-62047380D01*
X100044523Y-62047380D01*
X100187380Y-61999761D01*
X100282619Y-61904523D01*
X100330238Y-61809285D01*
X100377857Y-61618809D01*
X100377857Y-61475952D01*
X100330238Y-61285476D01*
X100282619Y-61190238D01*
X100187380Y-61095000D01*
X100044523Y-61047380D01*
X99949285Y-61047380D01*
X99806428Y-61095000D01*
X99758809Y-61142619D01*
X99330238Y-61666428D02*
X98568333Y-61666428D01*
X98139761Y-61999761D02*
X97996904Y-62047380D01*
X97758809Y-62047380D01*
X97663571Y-61999761D01*
X97615952Y-61952142D01*
X97568333Y-61856904D01*
X97568333Y-61761666D01*
X97615952Y-61666428D01*
X97663571Y-61618809D01*
X97758809Y-61571190D01*
X97949285Y-61523571D01*
X98044523Y-61475952D01*
X98092142Y-61428333D01*
X98139761Y-61333095D01*
X98139761Y-61237857D01*
X98092142Y-61142619D01*
X98044523Y-61095000D01*
X97949285Y-61047380D01*
X97711190Y-61047380D01*
X97568333Y-61095000D01*
X97187380Y-61761666D02*
X96711190Y-61761666D01*
X97282619Y-62047380D02*
X96949285Y-61047380D01*
X96615952Y-62047380D01*
X104425476Y-64539761D02*
X104282619Y-64587380D01*
X104044523Y-64587380D01*
X103949285Y-64539761D01*
X103901666Y-64492142D01*
X103854047Y-64396904D01*
X103854047Y-64301666D01*
X103901666Y-64206428D01*
X103949285Y-64158809D01*
X104044523Y-64111190D01*
X104235000Y-64063571D01*
X104330238Y-64015952D01*
X104377857Y-63968333D01*
X104425476Y-63873095D01*
X104425476Y-63777857D01*
X104377857Y-63682619D01*
X104330238Y-63635000D01*
X104235000Y-63587380D01*
X103996904Y-63587380D01*
X103854047Y-63635000D01*
X103568333Y-63587380D02*
X102996904Y-63587380D01*
X103282619Y-64587380D02*
X103282619Y-63587380D01*
X102663571Y-64587380D02*
X102663571Y-63587380D01*
X102330238Y-64301666D01*
X101996904Y-63587380D01*
X101996904Y-64587380D01*
X101615952Y-63587380D02*
X100996904Y-63587380D01*
X101330238Y-63968333D01*
X101187380Y-63968333D01*
X101092142Y-64015952D01*
X101044523Y-64063571D01*
X100996904Y-64158809D01*
X100996904Y-64396904D01*
X101044523Y-64492142D01*
X101092142Y-64539761D01*
X101187380Y-64587380D01*
X101473095Y-64587380D01*
X101568333Y-64539761D01*
X101615952Y-64492142D01*
X100615952Y-63682619D02*
X100568333Y-63635000D01*
X100473095Y-63587380D01*
X100235000Y-63587380D01*
X100139761Y-63635000D01*
X100092142Y-63682619D01*
X100044523Y-63777857D01*
X100044523Y-63873095D01*
X100092142Y-64015952D01*
X100663571Y-64587380D01*
X100044523Y-64587380D01*
X122761190Y-84542380D02*
X122142142Y-84542380D01*
X122475476Y-84923333D01*
X122332619Y-84923333D01*
X122237380Y-84970952D01*
X122189761Y-85018571D01*
X122142142Y-85113809D01*
X122142142Y-85351904D01*
X122189761Y-85447142D01*
X122237380Y-85494761D01*
X122332619Y-85542380D01*
X122618333Y-85542380D01*
X122713571Y-85494761D01*
X122761190Y-85447142D01*
X121713571Y-85447142D02*
X121665952Y-85494761D01*
X121713571Y-85542380D01*
X121761190Y-85494761D01*
X121713571Y-85447142D01*
X121713571Y-85542380D01*
X121332619Y-84542380D02*
X120713571Y-84542380D01*
X121046904Y-84923333D01*
X120904047Y-84923333D01*
X120808809Y-84970952D01*
X120761190Y-85018571D01*
X120713571Y-85113809D01*
X120713571Y-85351904D01*
X120761190Y-85447142D01*
X120808809Y-85494761D01*
X120904047Y-85542380D01*
X121189761Y-85542380D01*
X121285000Y-85494761D01*
X121332619Y-85447142D01*
X120427857Y-84542380D02*
X120094523Y-85542380D01*
X119761190Y-84542380D01*
X122300714Y-88082380D02*
X122776904Y-88082380D01*
X122776904Y-87082380D01*
X121967380Y-87558571D02*
X121634047Y-87558571D01*
X121491190Y-88082380D02*
X121967380Y-88082380D01*
X121967380Y-87082380D01*
X121491190Y-87082380D01*
X121062619Y-88082380D02*
X121062619Y-87082380D01*
X120824523Y-87082380D01*
X120681666Y-87130000D01*
X120586428Y-87225238D01*
X120538809Y-87320476D01*
X120491190Y-87510952D01*
X120491190Y-87653809D01*
X120538809Y-87844285D01*
X120586428Y-87939523D01*
X120681666Y-88034761D01*
X120824523Y-88082380D01*
X121062619Y-88082380D01*
X120062619Y-88082380D02*
X120062619Y-87082380D01*
X119681666Y-87082380D01*
X119586428Y-87130000D01*
X119538809Y-87177619D01*
X119491190Y-87272857D01*
X119491190Y-87415714D01*
X119538809Y-87510952D01*
X119586428Y-87558571D01*
X119681666Y-87606190D01*
X120062619Y-87606190D01*
X119157857Y-87082380D02*
X118919761Y-88082380D01*
X118729285Y-87368095D01*
X118538809Y-88082380D01*
X118300714Y-87082380D01*
X117919761Y-88082380D02*
X117919761Y-87082380D01*
X117586428Y-87796666D01*
X117253095Y-87082380D01*
X117253095Y-88082380D01*
X122046904Y-89670000D02*
X122142142Y-89622380D01*
X122285000Y-89622380D01*
X122427857Y-89670000D01*
X122523095Y-89765238D01*
X122570714Y-89860476D01*
X122618333Y-90050952D01*
X122618333Y-90193809D01*
X122570714Y-90384285D01*
X122523095Y-90479523D01*
X122427857Y-90574761D01*
X122285000Y-90622380D01*
X122189761Y-90622380D01*
X122046904Y-90574761D01*
X121999285Y-90527142D01*
X121999285Y-90193809D01*
X122189761Y-90193809D01*
X121570714Y-90622380D02*
X121570714Y-89622380D01*
X120999285Y-90622380D01*
X120999285Y-89622380D01*
X120523095Y-90622380D02*
X120523095Y-89622380D01*
X120285000Y-89622380D01*
X120142142Y-89670000D01*
X120046904Y-89765238D01*
X119999285Y-89860476D01*
X119951666Y-90050952D01*
X119951666Y-90193809D01*
X119999285Y-90384285D01*
X120046904Y-90479523D01*
X120142142Y-90574761D01*
X120285000Y-90622380D01*
X120523095Y-90622380D01*
X122546904Y-118562380D02*
X122880238Y-118086190D01*
X123118333Y-118562380D02*
X123118333Y-117562380D01*
X122737380Y-117562380D01*
X122642142Y-117610000D01*
X122594523Y-117657619D01*
X122546904Y-117752857D01*
X122546904Y-117895714D01*
X122594523Y-117990952D01*
X122642142Y-118038571D01*
X122737380Y-118086190D01*
X123118333Y-118086190D01*
X121927857Y-117562380D02*
X121737380Y-117562380D01*
X121642142Y-117610000D01*
X121546904Y-117705238D01*
X121499285Y-117895714D01*
X121499285Y-118229047D01*
X121546904Y-118419523D01*
X121642142Y-118514761D01*
X121737380Y-118562380D01*
X121927857Y-118562380D01*
X122023095Y-118514761D01*
X122118333Y-118419523D01*
X122165952Y-118229047D01*
X122165952Y-117895714D01*
X122118333Y-117705238D01*
X122023095Y-117610000D01*
X121927857Y-117562380D01*
X121165952Y-117562380D02*
X120927857Y-118562380D01*
X120737380Y-117848095D01*
X120546904Y-118562380D01*
X120308809Y-117562380D01*
X119499285Y-117895714D02*
X119499285Y-118562380D01*
X119737380Y-117514761D02*
X119975476Y-118229047D01*
X119356428Y-118229047D01*
X122546904Y-116022380D02*
X122880238Y-115546190D01*
X123118333Y-116022380D02*
X123118333Y-115022380D01*
X122737380Y-115022380D01*
X122642142Y-115070000D01*
X122594523Y-115117619D01*
X122546904Y-115212857D01*
X122546904Y-115355714D01*
X122594523Y-115450952D01*
X122642142Y-115498571D01*
X122737380Y-115546190D01*
X123118333Y-115546190D01*
X121927857Y-115022380D02*
X121737380Y-115022380D01*
X121642142Y-115070000D01*
X121546904Y-115165238D01*
X121499285Y-115355714D01*
X121499285Y-115689047D01*
X121546904Y-115879523D01*
X121642142Y-115974761D01*
X121737380Y-116022380D01*
X121927857Y-116022380D01*
X122023095Y-115974761D01*
X122118333Y-115879523D01*
X122165952Y-115689047D01*
X122165952Y-115355714D01*
X122118333Y-115165238D01*
X122023095Y-115070000D01*
X121927857Y-115022380D01*
X121165952Y-115022380D02*
X120927857Y-116022380D01*
X120737380Y-115308095D01*
X120546904Y-116022380D01*
X120308809Y-115022380D01*
X120023095Y-115022380D02*
X119404047Y-115022380D01*
X119737380Y-115403333D01*
X119594523Y-115403333D01*
X119499285Y-115450952D01*
X119451666Y-115498571D01*
X119404047Y-115593809D01*
X119404047Y-115831904D01*
X119451666Y-115927142D01*
X119499285Y-115974761D01*
X119594523Y-116022380D01*
X119880238Y-116022380D01*
X119975476Y-115974761D01*
X120023095Y-115927142D01*
X122546904Y-113482380D02*
X122880238Y-113006190D01*
X123118333Y-113482380D02*
X123118333Y-112482380D01*
X122737380Y-112482380D01*
X122642142Y-112530000D01*
X122594523Y-112577619D01*
X122546904Y-112672857D01*
X122546904Y-112815714D01*
X122594523Y-112910952D01*
X122642142Y-112958571D01*
X122737380Y-113006190D01*
X123118333Y-113006190D01*
X121927857Y-112482380D02*
X121737380Y-112482380D01*
X121642142Y-112530000D01*
X121546904Y-112625238D01*
X121499285Y-112815714D01*
X121499285Y-113149047D01*
X121546904Y-113339523D01*
X121642142Y-113434761D01*
X121737380Y-113482380D01*
X121927857Y-113482380D01*
X122023095Y-113434761D01*
X122118333Y-113339523D01*
X122165952Y-113149047D01*
X122165952Y-112815714D01*
X122118333Y-112625238D01*
X122023095Y-112530000D01*
X121927857Y-112482380D01*
X121165952Y-112482380D02*
X120927857Y-113482380D01*
X120737380Y-112768095D01*
X120546904Y-113482380D01*
X120308809Y-112482380D01*
X119975476Y-112577619D02*
X119927857Y-112530000D01*
X119832619Y-112482380D01*
X119594523Y-112482380D01*
X119499285Y-112530000D01*
X119451666Y-112577619D01*
X119404047Y-112672857D01*
X119404047Y-112768095D01*
X119451666Y-112910952D01*
X120023095Y-113482380D01*
X119404047Y-113482380D01*
X122546904Y-110942380D02*
X122880238Y-110466190D01*
X123118333Y-110942380D02*
X123118333Y-109942380D01*
X122737380Y-109942380D01*
X122642142Y-109990000D01*
X122594523Y-110037619D01*
X122546904Y-110132857D01*
X122546904Y-110275714D01*
X122594523Y-110370952D01*
X122642142Y-110418571D01*
X122737380Y-110466190D01*
X123118333Y-110466190D01*
X121927857Y-109942380D02*
X121737380Y-109942380D01*
X121642142Y-109990000D01*
X121546904Y-110085238D01*
X121499285Y-110275714D01*
X121499285Y-110609047D01*
X121546904Y-110799523D01*
X121642142Y-110894761D01*
X121737380Y-110942380D01*
X121927857Y-110942380D01*
X122023095Y-110894761D01*
X122118333Y-110799523D01*
X122165952Y-110609047D01*
X122165952Y-110275714D01*
X122118333Y-110085238D01*
X122023095Y-109990000D01*
X121927857Y-109942380D01*
X121165952Y-109942380D02*
X120927857Y-110942380D01*
X120737380Y-110228095D01*
X120546904Y-110942380D01*
X120308809Y-109942380D01*
X119404047Y-110942380D02*
X119975476Y-110942380D01*
X119689761Y-110942380D02*
X119689761Y-109942380D01*
X119785000Y-110085238D01*
X119880238Y-110180476D01*
X119975476Y-110228095D01*
X122546904Y-108402380D02*
X122880238Y-107926190D01*
X123118333Y-108402380D02*
X123118333Y-107402380D01*
X122737380Y-107402380D01*
X122642142Y-107450000D01*
X122594523Y-107497619D01*
X122546904Y-107592857D01*
X122546904Y-107735714D01*
X122594523Y-107830952D01*
X122642142Y-107878571D01*
X122737380Y-107926190D01*
X123118333Y-107926190D01*
X121927857Y-107402380D02*
X121737380Y-107402380D01*
X121642142Y-107450000D01*
X121546904Y-107545238D01*
X121499285Y-107735714D01*
X121499285Y-108069047D01*
X121546904Y-108259523D01*
X121642142Y-108354761D01*
X121737380Y-108402380D01*
X121927857Y-108402380D01*
X122023095Y-108354761D01*
X122118333Y-108259523D01*
X122165952Y-108069047D01*
X122165952Y-107735714D01*
X122118333Y-107545238D01*
X122023095Y-107450000D01*
X121927857Y-107402380D01*
X121165952Y-107402380D02*
X120927857Y-108402380D01*
X120737380Y-107688095D01*
X120546904Y-108402380D01*
X120308809Y-107402380D01*
X119737380Y-107402380D02*
X119642142Y-107402380D01*
X119546904Y-107450000D01*
X119499285Y-107497619D01*
X119451666Y-107592857D01*
X119404047Y-107783333D01*
X119404047Y-108021428D01*
X119451666Y-108211904D01*
X119499285Y-108307142D01*
X119546904Y-108354761D01*
X119642142Y-108402380D01*
X119737380Y-108402380D01*
X119832619Y-108354761D01*
X119880238Y-108307142D01*
X119927857Y-108211904D01*
X119975476Y-108021428D01*
X119975476Y-107783333D01*
X119927857Y-107592857D01*
X119880238Y-107497619D01*
X119832619Y-107450000D01*
X119737380Y-107402380D01*
X122380238Y-105767142D02*
X122427857Y-105814761D01*
X122570714Y-105862380D01*
X122665952Y-105862380D01*
X122808809Y-105814761D01*
X122904047Y-105719523D01*
X122951666Y-105624285D01*
X122999285Y-105433809D01*
X122999285Y-105290952D01*
X122951666Y-105100476D01*
X122904047Y-105005238D01*
X122808809Y-104910000D01*
X122665952Y-104862380D01*
X122570714Y-104862380D01*
X122427857Y-104910000D01*
X122380238Y-104957619D01*
X121761190Y-104862380D02*
X121570714Y-104862380D01*
X121475476Y-104910000D01*
X121380238Y-105005238D01*
X121332619Y-105195714D01*
X121332619Y-105529047D01*
X121380238Y-105719523D01*
X121475476Y-105814761D01*
X121570714Y-105862380D01*
X121761190Y-105862380D01*
X121856428Y-105814761D01*
X121951666Y-105719523D01*
X121999285Y-105529047D01*
X121999285Y-105195714D01*
X121951666Y-105005238D01*
X121856428Y-104910000D01*
X121761190Y-104862380D01*
X120427857Y-105862380D02*
X120904047Y-105862380D01*
X120904047Y-104862380D01*
X119570714Y-105862380D02*
X120142142Y-105862380D01*
X119856428Y-105862380D02*
X119856428Y-104862380D01*
X119951666Y-105005238D01*
X120046904Y-105100476D01*
X120142142Y-105148095D01*
X122380238Y-103227142D02*
X122427857Y-103274761D01*
X122570714Y-103322380D01*
X122665952Y-103322380D01*
X122808809Y-103274761D01*
X122904047Y-103179523D01*
X122951666Y-103084285D01*
X122999285Y-102893809D01*
X122999285Y-102750952D01*
X122951666Y-102560476D01*
X122904047Y-102465238D01*
X122808809Y-102370000D01*
X122665952Y-102322380D01*
X122570714Y-102322380D01*
X122427857Y-102370000D01*
X122380238Y-102417619D01*
X121761190Y-102322380D02*
X121570714Y-102322380D01*
X121475476Y-102370000D01*
X121380238Y-102465238D01*
X121332619Y-102655714D01*
X121332619Y-102989047D01*
X121380238Y-103179523D01*
X121475476Y-103274761D01*
X121570714Y-103322380D01*
X121761190Y-103322380D01*
X121856428Y-103274761D01*
X121951666Y-103179523D01*
X121999285Y-102989047D01*
X121999285Y-102655714D01*
X121951666Y-102465238D01*
X121856428Y-102370000D01*
X121761190Y-102322380D01*
X120427857Y-103322380D02*
X120904047Y-103322380D01*
X120904047Y-102322380D01*
X120142142Y-102417619D02*
X120094523Y-102370000D01*
X119999285Y-102322380D01*
X119761190Y-102322380D01*
X119665952Y-102370000D01*
X119618333Y-102417619D01*
X119570714Y-102512857D01*
X119570714Y-102608095D01*
X119618333Y-102750952D01*
X120189761Y-103322380D01*
X119570714Y-103322380D01*
X122380238Y-100687142D02*
X122427857Y-100734761D01*
X122570714Y-100782380D01*
X122665952Y-100782380D01*
X122808809Y-100734761D01*
X122904047Y-100639523D01*
X122951666Y-100544285D01*
X122999285Y-100353809D01*
X122999285Y-100210952D01*
X122951666Y-100020476D01*
X122904047Y-99925238D01*
X122808809Y-99830000D01*
X122665952Y-99782380D01*
X122570714Y-99782380D01*
X122427857Y-99830000D01*
X122380238Y-99877619D01*
X121761190Y-99782380D02*
X121570714Y-99782380D01*
X121475476Y-99830000D01*
X121380238Y-99925238D01*
X121332619Y-100115714D01*
X121332619Y-100449047D01*
X121380238Y-100639523D01*
X121475476Y-100734761D01*
X121570714Y-100782380D01*
X121761190Y-100782380D01*
X121856428Y-100734761D01*
X121951666Y-100639523D01*
X121999285Y-100449047D01*
X121999285Y-100115714D01*
X121951666Y-99925238D01*
X121856428Y-99830000D01*
X121761190Y-99782380D01*
X120427857Y-100782380D02*
X120904047Y-100782380D01*
X120904047Y-99782380D01*
X120189761Y-99782380D02*
X119570714Y-99782380D01*
X119904047Y-100163333D01*
X119761190Y-100163333D01*
X119665952Y-100210952D01*
X119618333Y-100258571D01*
X119570714Y-100353809D01*
X119570714Y-100591904D01*
X119618333Y-100687142D01*
X119665952Y-100734761D01*
X119761190Y-100782380D01*
X120046904Y-100782380D01*
X120142142Y-100734761D01*
X120189761Y-100687142D01*
X122380238Y-98147142D02*
X122427857Y-98194761D01*
X122570714Y-98242380D01*
X122665952Y-98242380D01*
X122808809Y-98194761D01*
X122904047Y-98099523D01*
X122951666Y-98004285D01*
X122999285Y-97813809D01*
X122999285Y-97670952D01*
X122951666Y-97480476D01*
X122904047Y-97385238D01*
X122808809Y-97290000D01*
X122665952Y-97242380D01*
X122570714Y-97242380D01*
X122427857Y-97290000D01*
X122380238Y-97337619D01*
X121761190Y-97242380D02*
X121570714Y-97242380D01*
X121475476Y-97290000D01*
X121380238Y-97385238D01*
X121332619Y-97575714D01*
X121332619Y-97909047D01*
X121380238Y-98099523D01*
X121475476Y-98194761D01*
X121570714Y-98242380D01*
X121761190Y-98242380D01*
X121856428Y-98194761D01*
X121951666Y-98099523D01*
X121999285Y-97909047D01*
X121999285Y-97575714D01*
X121951666Y-97385238D01*
X121856428Y-97290000D01*
X121761190Y-97242380D01*
X120427857Y-98242380D02*
X120904047Y-98242380D01*
X120904047Y-97242380D01*
X119665952Y-97575714D02*
X119665952Y-98242380D01*
X119904047Y-97194761D02*
X120142142Y-97909047D01*
X119523095Y-97909047D01*
X-7326666Y-138787142D02*
X-7279047Y-138834761D01*
X-7136190Y-138882380D01*
X-7040952Y-138882380D01*
X-6898095Y-138834761D01*
X-6802857Y-138739523D01*
X-6755238Y-138644285D01*
X-6707619Y-138453809D01*
X-6707619Y-138310952D01*
X-6755238Y-138120476D01*
X-6802857Y-138025238D01*
X-6898095Y-137930000D01*
X-7040952Y-137882380D01*
X-7136190Y-137882380D01*
X-7279047Y-137930000D01*
X-7326666Y-137977619D01*
X-7945714Y-137882380D02*
X-8136190Y-137882380D01*
X-8231428Y-137930000D01*
X-8326666Y-138025238D01*
X-8374285Y-138215714D01*
X-8374285Y-138549047D01*
X-8326666Y-138739523D01*
X-8231428Y-138834761D01*
X-8136190Y-138882380D01*
X-7945714Y-138882380D01*
X-7850476Y-138834761D01*
X-7755238Y-138739523D01*
X-7707619Y-138549047D01*
X-7707619Y-138215714D01*
X-7755238Y-138025238D01*
X-7850476Y-137930000D01*
X-7945714Y-137882380D01*
X-8802857Y-138882380D02*
X-8802857Y-137882380D01*
X-9136190Y-138596666D01*
X-9469523Y-137882380D01*
X-9469523Y-138882380D01*
X-10469523Y-138882380D02*
X-9898095Y-138882380D01*
X-10183809Y-138882380D02*
X-10183809Y-137882380D01*
X-10088571Y-138025238D01*
X-9993333Y-138120476D01*
X-9898095Y-138168095D01*
X-11374285Y-137882380D02*
X-10898095Y-137882380D01*
X-10850476Y-138358571D01*
X-10898095Y-138310952D01*
X-10993333Y-138263333D01*
X-11231428Y-138263333D01*
X-11326666Y-138310952D01*
X-11374285Y-138358571D01*
X-11421904Y-138453809D01*
X-11421904Y-138691904D01*
X-11374285Y-138787142D01*
X-11326666Y-138834761D01*
X-11231428Y-138882380D01*
X-10993333Y-138882380D01*
X-10898095Y-138834761D01*
X-10850476Y-138787142D01*
X-11850476Y-138501428D02*
X-12612380Y-138501428D01*
X-13040952Y-137977619D02*
X-13088571Y-137930000D01*
X-13183809Y-137882380D01*
X-13421904Y-137882380D01*
X-13517142Y-137930000D01*
X-13564761Y-137977619D01*
X-13612380Y-138072857D01*
X-13612380Y-138168095D01*
X-13564761Y-138310952D01*
X-12993333Y-138882380D01*
X-13612380Y-138882380D01*
X-7326666Y-136247142D02*
X-7279047Y-136294761D01*
X-7136190Y-136342380D01*
X-7040952Y-136342380D01*
X-6898095Y-136294761D01*
X-6802857Y-136199523D01*
X-6755238Y-136104285D01*
X-6707619Y-135913809D01*
X-6707619Y-135770952D01*
X-6755238Y-135580476D01*
X-6802857Y-135485238D01*
X-6898095Y-135390000D01*
X-7040952Y-135342380D01*
X-7136190Y-135342380D01*
X-7279047Y-135390000D01*
X-7326666Y-135437619D01*
X-7945714Y-135342380D02*
X-8136190Y-135342380D01*
X-8231428Y-135390000D01*
X-8326666Y-135485238D01*
X-8374285Y-135675714D01*
X-8374285Y-136009047D01*
X-8326666Y-136199523D01*
X-8231428Y-136294761D01*
X-8136190Y-136342380D01*
X-7945714Y-136342380D01*
X-7850476Y-136294761D01*
X-7755238Y-136199523D01*
X-7707619Y-136009047D01*
X-7707619Y-135675714D01*
X-7755238Y-135485238D01*
X-7850476Y-135390000D01*
X-7945714Y-135342380D01*
X-8802857Y-136342380D02*
X-8802857Y-135342380D01*
X-9136190Y-136056666D01*
X-9469523Y-135342380D01*
X-9469523Y-136342380D01*
X-10469523Y-136342380D02*
X-9898095Y-136342380D01*
X-10183809Y-136342380D02*
X-10183809Y-135342380D01*
X-10088571Y-135485238D01*
X-9993333Y-135580476D01*
X-9898095Y-135628095D01*
X-11326666Y-135675714D02*
X-11326666Y-136342380D01*
X-11088571Y-135294761D02*
X-10850476Y-136009047D01*
X-11469523Y-136009047D01*
X-11850476Y-135961428D02*
X-12612380Y-135961428D01*
X-13040952Y-135437619D02*
X-13088571Y-135390000D01*
X-13183809Y-135342380D01*
X-13421904Y-135342380D01*
X-13517142Y-135390000D01*
X-13564761Y-135437619D01*
X-13612380Y-135532857D01*
X-13612380Y-135628095D01*
X-13564761Y-135770952D01*
X-12993333Y-136342380D01*
X-13612380Y-136342380D01*
X-7326666Y-133707142D02*
X-7279047Y-133754761D01*
X-7136190Y-133802380D01*
X-7040952Y-133802380D01*
X-6898095Y-133754761D01*
X-6802857Y-133659523D01*
X-6755238Y-133564285D01*
X-6707619Y-133373809D01*
X-6707619Y-133230952D01*
X-6755238Y-133040476D01*
X-6802857Y-132945238D01*
X-6898095Y-132850000D01*
X-7040952Y-132802380D01*
X-7136190Y-132802380D01*
X-7279047Y-132850000D01*
X-7326666Y-132897619D01*
X-7945714Y-132802380D02*
X-8136190Y-132802380D01*
X-8231428Y-132850000D01*
X-8326666Y-132945238D01*
X-8374285Y-133135714D01*
X-8374285Y-133469047D01*
X-8326666Y-133659523D01*
X-8231428Y-133754761D01*
X-8136190Y-133802380D01*
X-7945714Y-133802380D01*
X-7850476Y-133754761D01*
X-7755238Y-133659523D01*
X-7707619Y-133469047D01*
X-7707619Y-133135714D01*
X-7755238Y-132945238D01*
X-7850476Y-132850000D01*
X-7945714Y-132802380D01*
X-8802857Y-133802380D02*
X-8802857Y-132802380D01*
X-9136190Y-133516666D01*
X-9469523Y-132802380D01*
X-9469523Y-133802380D01*
X-10469523Y-133802380D02*
X-9898095Y-133802380D01*
X-10183809Y-133802380D02*
X-10183809Y-132802380D01*
X-10088571Y-132945238D01*
X-9993333Y-133040476D01*
X-9898095Y-133088095D01*
X-10802857Y-132802380D02*
X-11421904Y-132802380D01*
X-11088571Y-133183333D01*
X-11231428Y-133183333D01*
X-11326666Y-133230952D01*
X-11374285Y-133278571D01*
X-11421904Y-133373809D01*
X-11421904Y-133611904D01*
X-11374285Y-133707142D01*
X-11326666Y-133754761D01*
X-11231428Y-133802380D01*
X-10945714Y-133802380D01*
X-10850476Y-133754761D01*
X-10802857Y-133707142D01*
X-11850476Y-133421428D02*
X-12612380Y-133421428D01*
X-13040952Y-132897619D02*
X-13088571Y-132850000D01*
X-13183809Y-132802380D01*
X-13421904Y-132802380D01*
X-13517142Y-132850000D01*
X-13564761Y-132897619D01*
X-13612380Y-132992857D01*
X-13612380Y-133088095D01*
X-13564761Y-133230952D01*
X-12993333Y-133802380D01*
X-13612380Y-133802380D01*
X-7326666Y-131167142D02*
X-7279047Y-131214761D01*
X-7136190Y-131262380D01*
X-7040952Y-131262380D01*
X-6898095Y-131214761D01*
X-6802857Y-131119523D01*
X-6755238Y-131024285D01*
X-6707619Y-130833809D01*
X-6707619Y-130690952D01*
X-6755238Y-130500476D01*
X-6802857Y-130405238D01*
X-6898095Y-130310000D01*
X-7040952Y-130262380D01*
X-7136190Y-130262380D01*
X-7279047Y-130310000D01*
X-7326666Y-130357619D01*
X-7945714Y-130262380D02*
X-8136190Y-130262380D01*
X-8231428Y-130310000D01*
X-8326666Y-130405238D01*
X-8374285Y-130595714D01*
X-8374285Y-130929047D01*
X-8326666Y-131119523D01*
X-8231428Y-131214761D01*
X-8136190Y-131262380D01*
X-7945714Y-131262380D01*
X-7850476Y-131214761D01*
X-7755238Y-131119523D01*
X-7707619Y-130929047D01*
X-7707619Y-130595714D01*
X-7755238Y-130405238D01*
X-7850476Y-130310000D01*
X-7945714Y-130262380D01*
X-8802857Y-131262380D02*
X-8802857Y-130262380D01*
X-9136190Y-130976666D01*
X-9469523Y-130262380D01*
X-9469523Y-131262380D01*
X-10469523Y-131262380D02*
X-9898095Y-131262380D01*
X-10183809Y-131262380D02*
X-10183809Y-130262380D01*
X-10088571Y-130405238D01*
X-9993333Y-130500476D01*
X-9898095Y-130548095D01*
X-10850476Y-130357619D02*
X-10898095Y-130310000D01*
X-10993333Y-130262380D01*
X-11231428Y-130262380D01*
X-11326666Y-130310000D01*
X-11374285Y-130357619D01*
X-11421904Y-130452857D01*
X-11421904Y-130548095D01*
X-11374285Y-130690952D01*
X-10802857Y-131262380D01*
X-11421904Y-131262380D01*
X-11850476Y-130881428D02*
X-12612380Y-130881428D01*
X-13040952Y-130357619D02*
X-13088571Y-130310000D01*
X-13183809Y-130262380D01*
X-13421904Y-130262380D01*
X-13517142Y-130310000D01*
X-13564761Y-130357619D01*
X-13612380Y-130452857D01*
X-13612380Y-130548095D01*
X-13564761Y-130690952D01*
X-12993333Y-131262380D01*
X-13612380Y-131262380D01*
X-11985714Y-128436666D02*
X-12461904Y-128436666D01*
X-11890476Y-128722380D02*
X-12223809Y-127722380D01*
X-12557142Y-128722380D01*
X-12842857Y-127817619D02*
X-12890476Y-127770000D01*
X-12985714Y-127722380D01*
X-13223809Y-127722380D01*
X-13319047Y-127770000D01*
X-13366666Y-127817619D01*
X-13414285Y-127912857D01*
X-13414285Y-128008095D01*
X-13366666Y-128150952D01*
X-12795238Y-128722380D01*
X-13414285Y-128722380D01*
X-12295238Y-125658571D02*
X-12438095Y-125706190D01*
X-12485714Y-125753809D01*
X-12533333Y-125849047D01*
X-12533333Y-125991904D01*
X-12485714Y-126087142D01*
X-12438095Y-126134761D01*
X-12342857Y-126182380D01*
X-11961904Y-126182380D01*
X-11961904Y-125182380D01*
X-12295238Y-125182380D01*
X-12390476Y-125230000D01*
X-12438095Y-125277619D01*
X-12485714Y-125372857D01*
X-12485714Y-125468095D01*
X-12438095Y-125563333D01*
X-12390476Y-125610952D01*
X-12295238Y-125658571D01*
X-11961904Y-125658571D01*
X-12914285Y-125277619D02*
X-12961904Y-125230000D01*
X-13057142Y-125182380D01*
X-13295238Y-125182380D01*
X-13390476Y-125230000D01*
X-13438095Y-125277619D01*
X-13485714Y-125372857D01*
X-13485714Y-125468095D01*
X-13438095Y-125610952D01*
X-12866666Y-126182380D01*
X-13485714Y-126182380D01*
X-12533333Y-123547142D02*
X-12485714Y-123594761D01*
X-12342857Y-123642380D01*
X-12247619Y-123642380D01*
X-12104761Y-123594761D01*
X-12009523Y-123499523D01*
X-11961904Y-123404285D01*
X-11914285Y-123213809D01*
X-11914285Y-123070952D01*
X-11961904Y-122880476D01*
X-12009523Y-122785238D01*
X-12104761Y-122690000D01*
X-12247619Y-122642380D01*
X-12342857Y-122642380D01*
X-12485714Y-122690000D01*
X-12533333Y-122737619D01*
X-12914285Y-122737619D02*
X-12961904Y-122690000D01*
X-13057142Y-122642380D01*
X-13295238Y-122642380D01*
X-13390476Y-122690000D01*
X-13438095Y-122737619D01*
X-13485714Y-122832857D01*
X-13485714Y-122928095D01*
X-13438095Y-123070952D01*
X-12866666Y-123642380D01*
X-13485714Y-123642380D01*
X-11961904Y-121102380D02*
X-11961904Y-120102380D01*
X-12200000Y-120102380D01*
X-12342857Y-120150000D01*
X-12438095Y-120245238D01*
X-12485714Y-120340476D01*
X-12533333Y-120530952D01*
X-12533333Y-120673809D01*
X-12485714Y-120864285D01*
X-12438095Y-120959523D01*
X-12342857Y-121054761D01*
X-12200000Y-121102380D01*
X-11961904Y-121102380D01*
X-12914285Y-120197619D02*
X-12961904Y-120150000D01*
X-13057142Y-120102380D01*
X-13295238Y-120102380D01*
X-13390476Y-120150000D01*
X-13438095Y-120197619D01*
X-13485714Y-120292857D01*
X-13485714Y-120388095D01*
X-13438095Y-120530952D01*
X-12866666Y-121102380D01*
X-13485714Y-121102380D01*
X-12533333Y-118562380D02*
X-12057142Y-118562380D01*
X-12057142Y-117562380D01*
X-12819047Y-117657619D02*
X-12866666Y-117610000D01*
X-12961904Y-117562380D01*
X-13200000Y-117562380D01*
X-13295238Y-117610000D01*
X-13342857Y-117657619D01*
X-13390476Y-117752857D01*
X-13390476Y-117848095D01*
X-13342857Y-117990952D01*
X-12771428Y-118562380D01*
X-13390476Y-118562380D01*
X-7326666Y-115927142D02*
X-7279047Y-115974761D01*
X-7136190Y-116022380D01*
X-7040952Y-116022380D01*
X-6898095Y-115974761D01*
X-6802857Y-115879523D01*
X-6755238Y-115784285D01*
X-6707619Y-115593809D01*
X-6707619Y-115450952D01*
X-6755238Y-115260476D01*
X-6802857Y-115165238D01*
X-6898095Y-115070000D01*
X-7040952Y-115022380D01*
X-7136190Y-115022380D01*
X-7279047Y-115070000D01*
X-7326666Y-115117619D01*
X-7945714Y-115022380D02*
X-8136190Y-115022380D01*
X-8231428Y-115070000D01*
X-8326666Y-115165238D01*
X-8374285Y-115355714D01*
X-8374285Y-115689047D01*
X-8326666Y-115879523D01*
X-8231428Y-115974761D01*
X-8136190Y-116022380D01*
X-7945714Y-116022380D01*
X-7850476Y-115974761D01*
X-7755238Y-115879523D01*
X-7707619Y-115689047D01*
X-7707619Y-115355714D01*
X-7755238Y-115165238D01*
X-7850476Y-115070000D01*
X-7945714Y-115022380D01*
X-8802857Y-116022380D02*
X-8802857Y-115022380D01*
X-9136190Y-115736666D01*
X-9469523Y-115022380D01*
X-9469523Y-116022380D01*
X-10469523Y-116022380D02*
X-9898095Y-116022380D01*
X-10183809Y-116022380D02*
X-10183809Y-115022380D01*
X-10088571Y-115165238D01*
X-9993333Y-115260476D01*
X-9898095Y-115308095D01*
X-11421904Y-116022380D02*
X-10850476Y-116022380D01*
X-11136190Y-116022380D02*
X-11136190Y-115022380D01*
X-11040952Y-115165238D01*
X-10945714Y-115260476D01*
X-10850476Y-115308095D01*
X-11850476Y-115641428D02*
X-12612380Y-115641428D01*
X-13040952Y-115117619D02*
X-13088571Y-115070000D01*
X-13183809Y-115022380D01*
X-13421904Y-115022380D01*
X-13517142Y-115070000D01*
X-13564761Y-115117619D01*
X-13612380Y-115212857D01*
X-13612380Y-115308095D01*
X-13564761Y-115450952D01*
X-12993333Y-116022380D01*
X-13612380Y-116022380D01*
X-7326666Y-113387142D02*
X-7279047Y-113434761D01*
X-7136190Y-113482380D01*
X-7040952Y-113482380D01*
X-6898095Y-113434761D01*
X-6802857Y-113339523D01*
X-6755238Y-113244285D01*
X-6707619Y-113053809D01*
X-6707619Y-112910952D01*
X-6755238Y-112720476D01*
X-6802857Y-112625238D01*
X-6898095Y-112530000D01*
X-7040952Y-112482380D01*
X-7136190Y-112482380D01*
X-7279047Y-112530000D01*
X-7326666Y-112577619D01*
X-7945714Y-112482380D02*
X-8136190Y-112482380D01*
X-8231428Y-112530000D01*
X-8326666Y-112625238D01*
X-8374285Y-112815714D01*
X-8374285Y-113149047D01*
X-8326666Y-113339523D01*
X-8231428Y-113434761D01*
X-8136190Y-113482380D01*
X-7945714Y-113482380D01*
X-7850476Y-113434761D01*
X-7755238Y-113339523D01*
X-7707619Y-113149047D01*
X-7707619Y-112815714D01*
X-7755238Y-112625238D01*
X-7850476Y-112530000D01*
X-7945714Y-112482380D01*
X-8802857Y-113482380D02*
X-8802857Y-112482380D01*
X-9136190Y-113196666D01*
X-9469523Y-112482380D01*
X-9469523Y-113482380D01*
X-10469523Y-113482380D02*
X-9898095Y-113482380D01*
X-10183809Y-113482380D02*
X-10183809Y-112482380D01*
X-10088571Y-112625238D01*
X-9993333Y-112720476D01*
X-9898095Y-112768095D01*
X-11088571Y-112482380D02*
X-11183809Y-112482380D01*
X-11279047Y-112530000D01*
X-11326666Y-112577619D01*
X-11374285Y-112672857D01*
X-11421904Y-112863333D01*
X-11421904Y-113101428D01*
X-11374285Y-113291904D01*
X-11326666Y-113387142D01*
X-11279047Y-113434761D01*
X-11183809Y-113482380D01*
X-11088571Y-113482380D01*
X-10993333Y-113434761D01*
X-10945714Y-113387142D01*
X-10898095Y-113291904D01*
X-10850476Y-113101428D01*
X-10850476Y-112863333D01*
X-10898095Y-112672857D01*
X-10945714Y-112577619D01*
X-10993333Y-112530000D01*
X-11088571Y-112482380D01*
X-11850476Y-113101428D02*
X-12612380Y-113101428D01*
X-13040952Y-112577619D02*
X-13088571Y-112530000D01*
X-13183809Y-112482380D01*
X-13421904Y-112482380D01*
X-13517142Y-112530000D01*
X-13564761Y-112577619D01*
X-13612380Y-112672857D01*
X-13612380Y-112768095D01*
X-13564761Y-112910952D01*
X-12993333Y-113482380D01*
X-13612380Y-113482380D01*
X-8437857Y-110847142D02*
X-8390238Y-110894761D01*
X-8247380Y-110942380D01*
X-8152142Y-110942380D01*
X-8009285Y-110894761D01*
X-7914047Y-110799523D01*
X-7866428Y-110704285D01*
X-7818809Y-110513809D01*
X-7818809Y-110370952D01*
X-7866428Y-110180476D01*
X-7914047Y-110085238D01*
X-8009285Y-109990000D01*
X-8152142Y-109942380D01*
X-8247380Y-109942380D01*
X-8390238Y-109990000D01*
X-8437857Y-110037619D01*
X-9056904Y-109942380D02*
X-9247380Y-109942380D01*
X-9342619Y-109990000D01*
X-9437857Y-110085238D01*
X-9485476Y-110275714D01*
X-9485476Y-110609047D01*
X-9437857Y-110799523D01*
X-9342619Y-110894761D01*
X-9247380Y-110942380D01*
X-9056904Y-110942380D01*
X-8961666Y-110894761D01*
X-8866428Y-110799523D01*
X-8818809Y-110609047D01*
X-8818809Y-110275714D01*
X-8866428Y-110085238D01*
X-8961666Y-109990000D01*
X-9056904Y-109942380D01*
X-9914047Y-110942380D02*
X-9914047Y-109942380D01*
X-10247380Y-110656666D01*
X-10580714Y-109942380D01*
X-10580714Y-110942380D01*
X-11104523Y-110942380D02*
X-11295000Y-110942380D01*
X-11390238Y-110894761D01*
X-11437857Y-110847142D01*
X-11533095Y-110704285D01*
X-11580714Y-110513809D01*
X-11580714Y-110132857D01*
X-11533095Y-110037619D01*
X-11485476Y-109990000D01*
X-11390238Y-109942380D01*
X-11199761Y-109942380D01*
X-11104523Y-109990000D01*
X-11056904Y-110037619D01*
X-11009285Y-110132857D01*
X-11009285Y-110370952D01*
X-11056904Y-110466190D01*
X-11104523Y-110513809D01*
X-11199761Y-110561428D01*
X-11390238Y-110561428D01*
X-11485476Y-110513809D01*
X-11533095Y-110466190D01*
X-11580714Y-110370952D01*
X-12009285Y-110561428D02*
X-12771190Y-110561428D01*
X-13199761Y-110037619D02*
X-13247380Y-109990000D01*
X-13342619Y-109942380D01*
X-13580714Y-109942380D01*
X-13675952Y-109990000D01*
X-13723571Y-110037619D01*
X-13771190Y-110132857D01*
X-13771190Y-110228095D01*
X-13723571Y-110370952D01*
X-13152142Y-110942380D01*
X-13771190Y-110942380D01*
X-8437857Y-108307142D02*
X-8390238Y-108354761D01*
X-8247380Y-108402380D01*
X-8152142Y-108402380D01*
X-8009285Y-108354761D01*
X-7914047Y-108259523D01*
X-7866428Y-108164285D01*
X-7818809Y-107973809D01*
X-7818809Y-107830952D01*
X-7866428Y-107640476D01*
X-7914047Y-107545238D01*
X-8009285Y-107450000D01*
X-8152142Y-107402380D01*
X-8247380Y-107402380D01*
X-8390238Y-107450000D01*
X-8437857Y-107497619D01*
X-9056904Y-107402380D02*
X-9247380Y-107402380D01*
X-9342619Y-107450000D01*
X-9437857Y-107545238D01*
X-9485476Y-107735714D01*
X-9485476Y-108069047D01*
X-9437857Y-108259523D01*
X-9342619Y-108354761D01*
X-9247380Y-108402380D01*
X-9056904Y-108402380D01*
X-8961666Y-108354761D01*
X-8866428Y-108259523D01*
X-8818809Y-108069047D01*
X-8818809Y-107735714D01*
X-8866428Y-107545238D01*
X-8961666Y-107450000D01*
X-9056904Y-107402380D01*
X-9914047Y-108402380D02*
X-9914047Y-107402380D01*
X-10247380Y-108116666D01*
X-10580714Y-107402380D01*
X-10580714Y-108402380D01*
X-11199761Y-107830952D02*
X-11104523Y-107783333D01*
X-11056904Y-107735714D01*
X-11009285Y-107640476D01*
X-11009285Y-107592857D01*
X-11056904Y-107497619D01*
X-11104523Y-107450000D01*
X-11199761Y-107402380D01*
X-11390238Y-107402380D01*
X-11485476Y-107450000D01*
X-11533095Y-107497619D01*
X-11580714Y-107592857D01*
X-11580714Y-107640476D01*
X-11533095Y-107735714D01*
X-11485476Y-107783333D01*
X-11390238Y-107830952D01*
X-11199761Y-107830952D01*
X-11104523Y-107878571D01*
X-11056904Y-107926190D01*
X-11009285Y-108021428D01*
X-11009285Y-108211904D01*
X-11056904Y-108307142D01*
X-11104523Y-108354761D01*
X-11199761Y-108402380D01*
X-11390238Y-108402380D01*
X-11485476Y-108354761D01*
X-11533095Y-108307142D01*
X-11580714Y-108211904D01*
X-11580714Y-108021428D01*
X-11533095Y-107926190D01*
X-11485476Y-107878571D01*
X-11390238Y-107830952D01*
X-12009285Y-108021428D02*
X-12771190Y-108021428D01*
X-13199761Y-107497619D02*
X-13247380Y-107450000D01*
X-13342619Y-107402380D01*
X-13580714Y-107402380D01*
X-13675952Y-107450000D01*
X-13723571Y-107497619D01*
X-13771190Y-107592857D01*
X-13771190Y-107688095D01*
X-13723571Y-107830952D01*
X-13152142Y-108402380D01*
X-13771190Y-108402380D01*
X-12009523Y-105338571D02*
X-12342857Y-105338571D01*
X-12485714Y-105862380D02*
X-12009523Y-105862380D01*
X-12009523Y-104862380D01*
X-12485714Y-104862380D01*
X-12866666Y-104957619D02*
X-12914285Y-104910000D01*
X-13009523Y-104862380D01*
X-13247619Y-104862380D01*
X-13342857Y-104910000D01*
X-13390476Y-104957619D01*
X-13438095Y-105052857D01*
X-13438095Y-105148095D01*
X-13390476Y-105290952D01*
X-12819047Y-105862380D01*
X-13438095Y-105862380D01*
X-12485714Y-102370000D02*
X-12390476Y-102322380D01*
X-12247619Y-102322380D01*
X-12104761Y-102370000D01*
X-12009523Y-102465238D01*
X-11961904Y-102560476D01*
X-11914285Y-102750952D01*
X-11914285Y-102893809D01*
X-11961904Y-103084285D01*
X-12009523Y-103179523D01*
X-12104761Y-103274761D01*
X-12247619Y-103322380D01*
X-12342857Y-103322380D01*
X-12485714Y-103274761D01*
X-12533333Y-103227142D01*
X-12533333Y-102893809D01*
X-12342857Y-102893809D01*
X-12914285Y-102417619D02*
X-12961904Y-102370000D01*
X-13057142Y-102322380D01*
X-13295238Y-102322380D01*
X-13390476Y-102370000D01*
X-13438095Y-102417619D01*
X-13485714Y-102512857D01*
X-13485714Y-102608095D01*
X-13438095Y-102750952D01*
X-12866666Y-103322380D01*
X-13485714Y-103322380D01*
X-12604761Y-100877619D02*
X-12509523Y-100830000D01*
X-12414285Y-100734761D01*
X-12271428Y-100591904D01*
X-12176190Y-100544285D01*
X-12080952Y-100544285D01*
X-12128571Y-100782380D02*
X-12033333Y-100734761D01*
X-11938095Y-100639523D01*
X-11890476Y-100449047D01*
X-11890476Y-100115714D01*
X-11938095Y-99925238D01*
X-12033333Y-99830000D01*
X-12128571Y-99782380D01*
X-12319047Y-99782380D01*
X-12414285Y-99830000D01*
X-12509523Y-99925238D01*
X-12557142Y-100115714D01*
X-12557142Y-100449047D01*
X-12509523Y-100639523D01*
X-12414285Y-100734761D01*
X-12319047Y-100782380D01*
X-12128571Y-100782380D01*
X-12938095Y-99877619D02*
X-12985714Y-99830000D01*
X-13080952Y-99782380D01*
X-13319047Y-99782380D01*
X-13414285Y-99830000D01*
X-13461904Y-99877619D01*
X-13509523Y-99972857D01*
X-13509523Y-100068095D01*
X-13461904Y-100210952D01*
X-12890476Y-100782380D01*
X-13509523Y-100782380D01*
X-12366666Y-97242380D02*
X-12366666Y-97956666D01*
X-12319047Y-98099523D01*
X-12223809Y-98194761D01*
X-12080952Y-98242380D01*
X-11985714Y-98242380D01*
X-12795238Y-97337619D02*
X-12842857Y-97290000D01*
X-12938095Y-97242380D01*
X-13176190Y-97242380D01*
X-13271428Y-97290000D01*
X-13319047Y-97337619D01*
X-13366666Y-97432857D01*
X-13366666Y-97528095D01*
X-13319047Y-97670952D01*
X-12747619Y-98242380D01*
X-13366666Y-98242380D01*
X-8437857Y-95607142D02*
X-8390238Y-95654761D01*
X-8247380Y-95702380D01*
X-8152142Y-95702380D01*
X-8009285Y-95654761D01*
X-7914047Y-95559523D01*
X-7866428Y-95464285D01*
X-7818809Y-95273809D01*
X-7818809Y-95130952D01*
X-7866428Y-94940476D01*
X-7914047Y-94845238D01*
X-8009285Y-94750000D01*
X-8152142Y-94702380D01*
X-8247380Y-94702380D01*
X-8390238Y-94750000D01*
X-8437857Y-94797619D01*
X-9056904Y-94702380D02*
X-9247380Y-94702380D01*
X-9342619Y-94750000D01*
X-9437857Y-94845238D01*
X-9485476Y-95035714D01*
X-9485476Y-95369047D01*
X-9437857Y-95559523D01*
X-9342619Y-95654761D01*
X-9247380Y-95702380D01*
X-9056904Y-95702380D01*
X-8961666Y-95654761D01*
X-8866428Y-95559523D01*
X-8818809Y-95369047D01*
X-8818809Y-95035714D01*
X-8866428Y-94845238D01*
X-8961666Y-94750000D01*
X-9056904Y-94702380D01*
X-9914047Y-95702380D02*
X-9914047Y-94702380D01*
X-10247380Y-95416666D01*
X-10580714Y-94702380D01*
X-10580714Y-95702380D01*
X-10961666Y-94702380D02*
X-11628333Y-94702380D01*
X-11199761Y-95702380D01*
X-12009285Y-95321428D02*
X-12771190Y-95321428D01*
X-13199761Y-94797619D02*
X-13247380Y-94750000D01*
X-13342619Y-94702380D01*
X-13580714Y-94702380D01*
X-13675952Y-94750000D01*
X-13723571Y-94797619D01*
X-13771190Y-94892857D01*
X-13771190Y-94988095D01*
X-13723571Y-95130952D01*
X-13152142Y-95702380D01*
X-13771190Y-95702380D01*
X-8437857Y-93067142D02*
X-8390238Y-93114761D01*
X-8247380Y-93162380D01*
X-8152142Y-93162380D01*
X-8009285Y-93114761D01*
X-7914047Y-93019523D01*
X-7866428Y-92924285D01*
X-7818809Y-92733809D01*
X-7818809Y-92590952D01*
X-7866428Y-92400476D01*
X-7914047Y-92305238D01*
X-8009285Y-92210000D01*
X-8152142Y-92162380D01*
X-8247380Y-92162380D01*
X-8390238Y-92210000D01*
X-8437857Y-92257619D01*
X-9056904Y-92162380D02*
X-9247380Y-92162380D01*
X-9342619Y-92210000D01*
X-9437857Y-92305238D01*
X-9485476Y-92495714D01*
X-9485476Y-92829047D01*
X-9437857Y-93019523D01*
X-9342619Y-93114761D01*
X-9247380Y-93162380D01*
X-9056904Y-93162380D01*
X-8961666Y-93114761D01*
X-8866428Y-93019523D01*
X-8818809Y-92829047D01*
X-8818809Y-92495714D01*
X-8866428Y-92305238D01*
X-8961666Y-92210000D01*
X-9056904Y-92162380D01*
X-9914047Y-93162380D02*
X-9914047Y-92162380D01*
X-10247380Y-92876666D01*
X-10580714Y-92162380D01*
X-10580714Y-93162380D01*
X-11485476Y-92162380D02*
X-11295000Y-92162380D01*
X-11199761Y-92210000D01*
X-11152142Y-92257619D01*
X-11056904Y-92400476D01*
X-11009285Y-92590952D01*
X-11009285Y-92971904D01*
X-11056904Y-93067142D01*
X-11104523Y-93114761D01*
X-11199761Y-93162380D01*
X-11390238Y-93162380D01*
X-11485476Y-93114761D01*
X-11533095Y-93067142D01*
X-11580714Y-92971904D01*
X-11580714Y-92733809D01*
X-11533095Y-92638571D01*
X-11485476Y-92590952D01*
X-11390238Y-92543333D01*
X-11199761Y-92543333D01*
X-11104523Y-92590952D01*
X-11056904Y-92638571D01*
X-11009285Y-92733809D01*
X-12009285Y-92781428D02*
X-12771190Y-92781428D01*
X-13199761Y-92257619D02*
X-13247380Y-92210000D01*
X-13342619Y-92162380D01*
X-13580714Y-92162380D01*
X-13675952Y-92210000D01*
X-13723571Y-92257619D01*
X-13771190Y-92352857D01*
X-13771190Y-92448095D01*
X-13723571Y-92590952D01*
X-13152142Y-93162380D01*
X-13771190Y-93162380D01*
X-8437857Y-90527142D02*
X-8390238Y-90574761D01*
X-8247380Y-90622380D01*
X-8152142Y-90622380D01*
X-8009285Y-90574761D01*
X-7914047Y-90479523D01*
X-7866428Y-90384285D01*
X-7818809Y-90193809D01*
X-7818809Y-90050952D01*
X-7866428Y-89860476D01*
X-7914047Y-89765238D01*
X-8009285Y-89670000D01*
X-8152142Y-89622380D01*
X-8247380Y-89622380D01*
X-8390238Y-89670000D01*
X-8437857Y-89717619D01*
X-9056904Y-89622380D02*
X-9247380Y-89622380D01*
X-9342619Y-89670000D01*
X-9437857Y-89765238D01*
X-9485476Y-89955714D01*
X-9485476Y-90289047D01*
X-9437857Y-90479523D01*
X-9342619Y-90574761D01*
X-9247380Y-90622380D01*
X-9056904Y-90622380D01*
X-8961666Y-90574761D01*
X-8866428Y-90479523D01*
X-8818809Y-90289047D01*
X-8818809Y-89955714D01*
X-8866428Y-89765238D01*
X-8961666Y-89670000D01*
X-9056904Y-89622380D01*
X-9914047Y-90622380D02*
X-9914047Y-89622380D01*
X-10247380Y-90336666D01*
X-10580714Y-89622380D01*
X-10580714Y-90622380D01*
X-11533095Y-89622380D02*
X-11056904Y-89622380D01*
X-11009285Y-90098571D01*
X-11056904Y-90050952D01*
X-11152142Y-90003333D01*
X-11390238Y-90003333D01*
X-11485476Y-90050952D01*
X-11533095Y-90098571D01*
X-11580714Y-90193809D01*
X-11580714Y-90431904D01*
X-11533095Y-90527142D01*
X-11485476Y-90574761D01*
X-11390238Y-90622380D01*
X-11152142Y-90622380D01*
X-11056904Y-90574761D01*
X-11009285Y-90527142D01*
X-12009285Y-90241428D02*
X-12771190Y-90241428D01*
X-13199761Y-89717619D02*
X-13247380Y-89670000D01*
X-13342619Y-89622380D01*
X-13580714Y-89622380D01*
X-13675952Y-89670000D01*
X-13723571Y-89717619D01*
X-13771190Y-89812857D01*
X-13771190Y-89908095D01*
X-13723571Y-90050952D01*
X-13152142Y-90622380D01*
X-13771190Y-90622380D01*
X-8437857Y-87987142D02*
X-8390238Y-88034761D01*
X-8247380Y-88082380D01*
X-8152142Y-88082380D01*
X-8009285Y-88034761D01*
X-7914047Y-87939523D01*
X-7866428Y-87844285D01*
X-7818809Y-87653809D01*
X-7818809Y-87510952D01*
X-7866428Y-87320476D01*
X-7914047Y-87225238D01*
X-8009285Y-87130000D01*
X-8152142Y-87082380D01*
X-8247380Y-87082380D01*
X-8390238Y-87130000D01*
X-8437857Y-87177619D01*
X-9056904Y-87082380D02*
X-9247380Y-87082380D01*
X-9342619Y-87130000D01*
X-9437857Y-87225238D01*
X-9485476Y-87415714D01*
X-9485476Y-87749047D01*
X-9437857Y-87939523D01*
X-9342619Y-88034761D01*
X-9247380Y-88082380D01*
X-9056904Y-88082380D01*
X-8961666Y-88034761D01*
X-8866428Y-87939523D01*
X-8818809Y-87749047D01*
X-8818809Y-87415714D01*
X-8866428Y-87225238D01*
X-8961666Y-87130000D01*
X-9056904Y-87082380D01*
X-9914047Y-88082380D02*
X-9914047Y-87082380D01*
X-10247380Y-87796666D01*
X-10580714Y-87082380D01*
X-10580714Y-88082380D01*
X-11485476Y-87415714D02*
X-11485476Y-88082380D01*
X-11247380Y-87034761D02*
X-11009285Y-87749047D01*
X-11628333Y-87749047D01*
X-12009285Y-87701428D02*
X-12771190Y-87701428D01*
X-13199761Y-87177619D02*
X-13247380Y-87130000D01*
X-13342619Y-87082380D01*
X-13580714Y-87082380D01*
X-13675952Y-87130000D01*
X-13723571Y-87177619D01*
X-13771190Y-87272857D01*
X-13771190Y-87368095D01*
X-13723571Y-87510952D01*
X-13152142Y-88082380D01*
X-13771190Y-88082380D01*
X-11961904Y-85542380D02*
X-11961904Y-84542380D01*
X-12533333Y-85542380D02*
X-12104761Y-84970952D01*
X-12533333Y-84542380D02*
X-11961904Y-85113809D01*
X-12914285Y-84637619D02*
X-12961904Y-84590000D01*
X-13057142Y-84542380D01*
X-13295238Y-84542380D01*
X-13390476Y-84590000D01*
X-13438095Y-84637619D01*
X-13485714Y-84732857D01*
X-13485714Y-84828095D01*
X-13438095Y-84970952D01*
X-12866666Y-85542380D01*
X-13485714Y-85542380D01*
X-12366666Y-82478571D02*
X-12033333Y-82478571D01*
X-12033333Y-83002380D02*
X-12033333Y-82002380D01*
X-12509523Y-82002380D01*
X-12842857Y-82097619D02*
X-12890476Y-82050000D01*
X-12985714Y-82002380D01*
X-13223809Y-82002380D01*
X-13319047Y-82050000D01*
X-13366666Y-82097619D01*
X-13414285Y-82192857D01*
X-13414285Y-82288095D01*
X-13366666Y-82430952D01*
X-12795238Y-83002380D01*
X-13414285Y-83002380D01*
X-11890476Y-80462380D02*
X-11890476Y-79462380D01*
X-12223809Y-80176666D01*
X-12557142Y-79462380D01*
X-12557142Y-80462380D01*
X-12985714Y-79557619D02*
X-13033333Y-79510000D01*
X-13128571Y-79462380D01*
X-13366666Y-79462380D01*
X-13461904Y-79510000D01*
X-13509523Y-79557619D01*
X-13557142Y-79652857D01*
X-13557142Y-79748095D01*
X-13509523Y-79890952D01*
X-12938095Y-80462380D01*
X-13557142Y-80462380D01*
X-11938095Y-77922380D02*
X-11938095Y-76922380D01*
X-12509523Y-77922380D01*
X-12509523Y-76922380D01*
X-12938095Y-77017619D02*
X-12985714Y-76970000D01*
X-13080952Y-76922380D01*
X-13319047Y-76922380D01*
X-13414285Y-76970000D01*
X-13461904Y-77017619D01*
X-13509523Y-77112857D01*
X-13509523Y-77208095D01*
X-13461904Y-77350952D01*
X-12890476Y-77922380D01*
X-13509523Y-77922380D01*
X-11961904Y-75382380D02*
X-11961904Y-74382380D01*
X-12342857Y-74382380D01*
X-12438095Y-74430000D01*
X-12485714Y-74477619D01*
X-12533333Y-74572857D01*
X-12533333Y-74715714D01*
X-12485714Y-74810952D01*
X-12438095Y-74858571D01*
X-12342857Y-74906190D01*
X-11961904Y-74906190D01*
X-12914285Y-74477619D02*
X-12961904Y-74430000D01*
X-13057142Y-74382380D01*
X-13295238Y-74382380D01*
X-13390476Y-74430000D01*
X-13438095Y-74477619D01*
X-13485714Y-74572857D01*
X-13485714Y-74668095D01*
X-13438095Y-74810952D01*
X-12866666Y-75382380D01*
X-13485714Y-75382380D01*
X-11938095Y-72842380D02*
X-11938095Y-71842380D01*
X-11938095Y-72318571D02*
X-12509523Y-72318571D01*
X-12509523Y-72842380D02*
X-12509523Y-71842380D01*
X-12938095Y-71937619D02*
X-12985714Y-71890000D01*
X-13080952Y-71842380D01*
X-13319047Y-71842380D01*
X-13414285Y-71890000D01*
X-13461904Y-71937619D01*
X-13509523Y-72032857D01*
X-13509523Y-72128095D01*
X-13461904Y-72270952D01*
X-12890476Y-72842380D01*
X-13509523Y-72842380D01*
X-11461904Y-70302380D02*
X-11461904Y-69302380D01*
X-11700000Y-69302380D01*
X-11842857Y-69350000D01*
X-11938095Y-69445238D01*
X-11985714Y-69540476D01*
X-12033333Y-69730952D01*
X-12033333Y-69873809D01*
X-11985714Y-70064285D01*
X-11938095Y-70159523D01*
X-11842857Y-70254761D01*
X-11700000Y-70302380D01*
X-11461904Y-70302380D01*
X-12461904Y-70302380D02*
X-12461904Y-69302380D01*
X-12842857Y-69302380D01*
X-12938095Y-69350000D01*
X-12985714Y-69397619D01*
X-13033333Y-69492857D01*
X-13033333Y-69635714D01*
X-12985714Y-69730952D01*
X-12938095Y-69778571D01*
X-12842857Y-69826190D01*
X-12461904Y-69826190D01*
X-13414285Y-69397619D02*
X-13461904Y-69350000D01*
X-13557142Y-69302380D01*
X-13795238Y-69302380D01*
X-13890476Y-69350000D01*
X-13938095Y-69397619D01*
X-13985714Y-69492857D01*
X-13985714Y-69588095D01*
X-13938095Y-69730952D01*
X-13366666Y-70302380D01*
X-13985714Y-70302380D01*
X-10422142Y-67762380D02*
X-10422142Y-66762380D01*
X-10660238Y-66762380D01*
X-10803095Y-66810000D01*
X-10898333Y-66905238D01*
X-10945952Y-67000476D01*
X-10993571Y-67190952D01*
X-10993571Y-67333809D01*
X-10945952Y-67524285D01*
X-10898333Y-67619523D01*
X-10803095Y-67714761D01*
X-10660238Y-67762380D01*
X-10422142Y-67762380D01*
X-11612619Y-66762380D02*
X-11803095Y-66762380D01*
X-11898333Y-66810000D01*
X-11993571Y-66905238D01*
X-12041190Y-67095714D01*
X-12041190Y-67429047D01*
X-11993571Y-67619523D01*
X-11898333Y-67714761D01*
X-11803095Y-67762380D01*
X-11612619Y-67762380D01*
X-11517380Y-67714761D01*
X-11422142Y-67619523D01*
X-11374523Y-67429047D01*
X-11374523Y-67095714D01*
X-11422142Y-66905238D01*
X-11517380Y-66810000D01*
X-11612619Y-66762380D01*
X-12326904Y-66762380D02*
X-12898333Y-66762380D01*
X-12612619Y-67762380D02*
X-12612619Y-66762380D01*
X-13184047Y-66857619D02*
X-13231666Y-66810000D01*
X-13326904Y-66762380D01*
X-13565000Y-66762380D01*
X-13660238Y-66810000D01*
X-13707857Y-66857619D01*
X-13755476Y-66952857D01*
X-13755476Y-67048095D01*
X-13707857Y-67190952D01*
X-13136428Y-67762380D01*
X-13755476Y-67762380D01*
X-8437857Y-65127142D02*
X-8390238Y-65174761D01*
X-8247380Y-65222380D01*
X-8152142Y-65222380D01*
X-8009285Y-65174761D01*
X-7914047Y-65079523D01*
X-7866428Y-64984285D01*
X-7818809Y-64793809D01*
X-7818809Y-64650952D01*
X-7866428Y-64460476D01*
X-7914047Y-64365238D01*
X-8009285Y-64270000D01*
X-8152142Y-64222380D01*
X-8247380Y-64222380D01*
X-8390238Y-64270000D01*
X-8437857Y-64317619D01*
X-9056904Y-64222380D02*
X-9247380Y-64222380D01*
X-9342619Y-64270000D01*
X-9437857Y-64365238D01*
X-9485476Y-64555714D01*
X-9485476Y-64889047D01*
X-9437857Y-65079523D01*
X-9342619Y-65174761D01*
X-9247380Y-65222380D01*
X-9056904Y-65222380D01*
X-8961666Y-65174761D01*
X-8866428Y-65079523D01*
X-8818809Y-64889047D01*
X-8818809Y-64555714D01*
X-8866428Y-64365238D01*
X-8961666Y-64270000D01*
X-9056904Y-64222380D01*
X-9914047Y-65222380D02*
X-9914047Y-64222380D01*
X-10247380Y-64936666D01*
X-10580714Y-64222380D01*
X-10580714Y-65222380D01*
X-10961666Y-64222380D02*
X-11580714Y-64222380D01*
X-11247380Y-64603333D01*
X-11390238Y-64603333D01*
X-11485476Y-64650952D01*
X-11533095Y-64698571D01*
X-11580714Y-64793809D01*
X-11580714Y-65031904D01*
X-11533095Y-65127142D01*
X-11485476Y-65174761D01*
X-11390238Y-65222380D01*
X-11104523Y-65222380D01*
X-11009285Y-65174761D01*
X-10961666Y-65127142D01*
X-12009285Y-64841428D02*
X-12771190Y-64841428D01*
X-13199761Y-64317619D02*
X-13247380Y-64270000D01*
X-13342619Y-64222380D01*
X-13580714Y-64222380D01*
X-13675952Y-64270000D01*
X-13723571Y-64317619D01*
X-13771190Y-64412857D01*
X-13771190Y-64508095D01*
X-13723571Y-64650952D01*
X-13152142Y-65222380D01*
X-13771190Y-65222380D01*
X-8437857Y-62587142D02*
X-8390238Y-62634761D01*
X-8247380Y-62682380D01*
X-8152142Y-62682380D01*
X-8009285Y-62634761D01*
X-7914047Y-62539523D01*
X-7866428Y-62444285D01*
X-7818809Y-62253809D01*
X-7818809Y-62110952D01*
X-7866428Y-61920476D01*
X-7914047Y-61825238D01*
X-8009285Y-61730000D01*
X-8152142Y-61682380D01*
X-8247380Y-61682380D01*
X-8390238Y-61730000D01*
X-8437857Y-61777619D01*
X-9056904Y-61682380D02*
X-9247380Y-61682380D01*
X-9342619Y-61730000D01*
X-9437857Y-61825238D01*
X-9485476Y-62015714D01*
X-9485476Y-62349047D01*
X-9437857Y-62539523D01*
X-9342619Y-62634761D01*
X-9247380Y-62682380D01*
X-9056904Y-62682380D01*
X-8961666Y-62634761D01*
X-8866428Y-62539523D01*
X-8818809Y-62349047D01*
X-8818809Y-62015714D01*
X-8866428Y-61825238D01*
X-8961666Y-61730000D01*
X-9056904Y-61682380D01*
X-9914047Y-62682380D02*
X-9914047Y-61682380D01*
X-10247380Y-62396666D01*
X-10580714Y-61682380D01*
X-10580714Y-62682380D01*
X-11009285Y-61777619D02*
X-11056904Y-61730000D01*
X-11152142Y-61682380D01*
X-11390238Y-61682380D01*
X-11485476Y-61730000D01*
X-11533095Y-61777619D01*
X-11580714Y-61872857D01*
X-11580714Y-61968095D01*
X-11533095Y-62110952D01*
X-10961666Y-62682380D01*
X-11580714Y-62682380D01*
X-12009285Y-62301428D02*
X-12771190Y-62301428D01*
X-13199761Y-61777619D02*
X-13247380Y-61730000D01*
X-13342619Y-61682380D01*
X-13580714Y-61682380D01*
X-13675952Y-61730000D01*
X-13723571Y-61777619D01*
X-13771190Y-61872857D01*
X-13771190Y-61968095D01*
X-13723571Y-62110952D01*
X-13152142Y-62682380D01*
X-13771190Y-62682380D01*
X-8437857Y-60047142D02*
X-8390238Y-60094761D01*
X-8247380Y-60142380D01*
X-8152142Y-60142380D01*
X-8009285Y-60094761D01*
X-7914047Y-59999523D01*
X-7866428Y-59904285D01*
X-7818809Y-59713809D01*
X-7818809Y-59570952D01*
X-7866428Y-59380476D01*
X-7914047Y-59285238D01*
X-8009285Y-59190000D01*
X-8152142Y-59142380D01*
X-8247380Y-59142380D01*
X-8390238Y-59190000D01*
X-8437857Y-59237619D01*
X-9056904Y-59142380D02*
X-9247380Y-59142380D01*
X-9342619Y-59190000D01*
X-9437857Y-59285238D01*
X-9485476Y-59475714D01*
X-9485476Y-59809047D01*
X-9437857Y-59999523D01*
X-9342619Y-60094761D01*
X-9247380Y-60142380D01*
X-9056904Y-60142380D01*
X-8961666Y-60094761D01*
X-8866428Y-59999523D01*
X-8818809Y-59809047D01*
X-8818809Y-59475714D01*
X-8866428Y-59285238D01*
X-8961666Y-59190000D01*
X-9056904Y-59142380D01*
X-9914047Y-60142380D02*
X-9914047Y-59142380D01*
X-10247380Y-59856666D01*
X-10580714Y-59142380D01*
X-10580714Y-60142380D01*
X-11580714Y-60142380D02*
X-11009285Y-60142380D01*
X-11295000Y-60142380D02*
X-11295000Y-59142380D01*
X-11199761Y-59285238D01*
X-11104523Y-59380476D01*
X-11009285Y-59428095D01*
X-12009285Y-59761428D02*
X-12771190Y-59761428D01*
X-13199761Y-59237619D02*
X-13247380Y-59190000D01*
X-13342619Y-59142380D01*
X-13580714Y-59142380D01*
X-13675952Y-59190000D01*
X-13723571Y-59237619D01*
X-13771190Y-59332857D01*
X-13771190Y-59428095D01*
X-13723571Y-59570952D01*
X-13152142Y-60142380D01*
X-13771190Y-60142380D01*
X-8437857Y-57507142D02*
X-8390238Y-57554761D01*
X-8247380Y-57602380D01*
X-8152142Y-57602380D01*
X-8009285Y-57554761D01*
X-7914047Y-57459523D01*
X-7866428Y-57364285D01*
X-7818809Y-57173809D01*
X-7818809Y-57030952D01*
X-7866428Y-56840476D01*
X-7914047Y-56745238D01*
X-8009285Y-56650000D01*
X-8152142Y-56602380D01*
X-8247380Y-56602380D01*
X-8390238Y-56650000D01*
X-8437857Y-56697619D01*
X-9056904Y-56602380D02*
X-9247380Y-56602380D01*
X-9342619Y-56650000D01*
X-9437857Y-56745238D01*
X-9485476Y-56935714D01*
X-9485476Y-57269047D01*
X-9437857Y-57459523D01*
X-9342619Y-57554761D01*
X-9247380Y-57602380D01*
X-9056904Y-57602380D01*
X-8961666Y-57554761D01*
X-8866428Y-57459523D01*
X-8818809Y-57269047D01*
X-8818809Y-56935714D01*
X-8866428Y-56745238D01*
X-8961666Y-56650000D01*
X-9056904Y-56602380D01*
X-9914047Y-57602380D02*
X-9914047Y-56602380D01*
X-10247380Y-57316666D01*
X-10580714Y-56602380D01*
X-10580714Y-57602380D01*
X-11247380Y-56602380D02*
X-11342619Y-56602380D01*
X-11437857Y-56650000D01*
X-11485476Y-56697619D01*
X-11533095Y-56792857D01*
X-11580714Y-56983333D01*
X-11580714Y-57221428D01*
X-11533095Y-57411904D01*
X-11485476Y-57507142D01*
X-11437857Y-57554761D01*
X-11342619Y-57602380D01*
X-11247380Y-57602380D01*
X-11152142Y-57554761D01*
X-11104523Y-57507142D01*
X-11056904Y-57411904D01*
X-11009285Y-57221428D01*
X-11009285Y-56983333D01*
X-11056904Y-56792857D01*
X-11104523Y-56697619D01*
X-11152142Y-56650000D01*
X-11247380Y-56602380D01*
X-12009285Y-57221428D02*
X-12771190Y-57221428D01*
X-13199761Y-56697619D02*
X-13247380Y-56650000D01*
X-13342619Y-56602380D01*
X-13580714Y-56602380D01*
X-13675952Y-56650000D01*
X-13723571Y-56697619D01*
X-13771190Y-56792857D01*
X-13771190Y-56888095D01*
X-13723571Y-57030952D01*
X-13152142Y-57602380D01*
X-13771190Y-57602380D01*
X26328333Y-44807142D02*
X26375952Y-44854761D01*
X26518809Y-44902380D01*
X26614047Y-44902380D01*
X26756904Y-44854761D01*
X26852142Y-44759523D01*
X26899761Y-44664285D01*
X26947380Y-44473809D01*
X26947380Y-44330952D01*
X26899761Y-44140476D01*
X26852142Y-44045238D01*
X26756904Y-43950000D01*
X26614047Y-43902380D01*
X26518809Y-43902380D01*
X26375952Y-43950000D01*
X26328333Y-43997619D01*
X25709285Y-43902380D02*
X25518809Y-43902380D01*
X25423571Y-43950000D01*
X25328333Y-44045238D01*
X25280714Y-44235714D01*
X25280714Y-44569047D01*
X25328333Y-44759523D01*
X25423571Y-44854761D01*
X25518809Y-44902380D01*
X25709285Y-44902380D01*
X25804523Y-44854761D01*
X25899761Y-44759523D01*
X25947380Y-44569047D01*
X25947380Y-44235714D01*
X25899761Y-44045238D01*
X25804523Y-43950000D01*
X25709285Y-43902380D01*
X24852142Y-44902380D02*
X24852142Y-43902380D01*
X24518809Y-44616666D01*
X24185476Y-43902380D01*
X24185476Y-44902380D01*
X23185476Y-44902380D02*
X23756904Y-44902380D01*
X23471190Y-44902380D02*
X23471190Y-43902380D01*
X23566428Y-44045238D01*
X23661666Y-44140476D01*
X23756904Y-44188095D01*
X22328333Y-44235714D02*
X22328333Y-44902380D01*
X22566428Y-43854761D02*
X22804523Y-44569047D01*
X22185476Y-44569047D01*
X21804523Y-44521428D02*
X21042619Y-44521428D01*
X20042619Y-44902380D02*
X20614047Y-44902380D01*
X20328333Y-44902380D02*
X20328333Y-43902380D01*
X20423571Y-44045238D01*
X20518809Y-44140476D01*
X20614047Y-44188095D01*
X26328333Y-47347142D02*
X26375952Y-47394761D01*
X26518809Y-47442380D01*
X26614047Y-47442380D01*
X26756904Y-47394761D01*
X26852142Y-47299523D01*
X26899761Y-47204285D01*
X26947380Y-47013809D01*
X26947380Y-46870952D01*
X26899761Y-46680476D01*
X26852142Y-46585238D01*
X26756904Y-46490000D01*
X26614047Y-46442380D01*
X26518809Y-46442380D01*
X26375952Y-46490000D01*
X26328333Y-46537619D01*
X25709285Y-46442380D02*
X25518809Y-46442380D01*
X25423571Y-46490000D01*
X25328333Y-46585238D01*
X25280714Y-46775714D01*
X25280714Y-47109047D01*
X25328333Y-47299523D01*
X25423571Y-47394761D01*
X25518809Y-47442380D01*
X25709285Y-47442380D01*
X25804523Y-47394761D01*
X25899761Y-47299523D01*
X25947380Y-47109047D01*
X25947380Y-46775714D01*
X25899761Y-46585238D01*
X25804523Y-46490000D01*
X25709285Y-46442380D01*
X24852142Y-47442380D02*
X24852142Y-46442380D01*
X24518809Y-47156666D01*
X24185476Y-46442380D01*
X24185476Y-47442380D01*
X23185476Y-47442380D02*
X23756904Y-47442380D01*
X23471190Y-47442380D02*
X23471190Y-46442380D01*
X23566428Y-46585238D01*
X23661666Y-46680476D01*
X23756904Y-46728095D01*
X22852142Y-46442380D02*
X22233095Y-46442380D01*
X22566428Y-46823333D01*
X22423571Y-46823333D01*
X22328333Y-46870952D01*
X22280714Y-46918571D01*
X22233095Y-47013809D01*
X22233095Y-47251904D01*
X22280714Y-47347142D01*
X22328333Y-47394761D01*
X22423571Y-47442380D01*
X22709285Y-47442380D01*
X22804523Y-47394761D01*
X22852142Y-47347142D01*
X21804523Y-47061428D02*
X21042619Y-47061428D01*
X20042619Y-47442380D02*
X20614047Y-47442380D01*
X20328333Y-47442380D02*
X20328333Y-46442380D01*
X20423571Y-46585238D01*
X20518809Y-46680476D01*
X20614047Y-46728095D01*
X19407142Y-53681666D02*
X19454761Y-53634047D01*
X19502380Y-53491190D01*
X19502380Y-53395952D01*
X19454761Y-53253095D01*
X19359523Y-53157857D01*
X19264285Y-53110238D01*
X19073809Y-53062619D01*
X18930952Y-53062619D01*
X18740476Y-53110238D01*
X18645238Y-53157857D01*
X18550000Y-53253095D01*
X18502380Y-53395952D01*
X18502380Y-53491190D01*
X18550000Y-53634047D01*
X18597619Y-53681666D01*
X18502380Y-54300714D02*
X18502380Y-54491190D01*
X18550000Y-54586428D01*
X18645238Y-54681666D01*
X18835714Y-54729285D01*
X19169047Y-54729285D01*
X19359523Y-54681666D01*
X19454761Y-54586428D01*
X19502380Y-54491190D01*
X19502380Y-54300714D01*
X19454761Y-54205476D01*
X19359523Y-54110238D01*
X19169047Y-54062619D01*
X18835714Y-54062619D01*
X18645238Y-54110238D01*
X18550000Y-54205476D01*
X18502380Y-54300714D01*
X19502380Y-55157857D02*
X18502380Y-55157857D01*
X19216666Y-55491190D01*
X18502380Y-55824523D01*
X19502380Y-55824523D01*
X19502380Y-56824523D02*
X19502380Y-56253095D01*
X19502380Y-56538809D02*
X18502380Y-56538809D01*
X18645238Y-56443571D01*
X18740476Y-56348333D01*
X18788095Y-56253095D01*
X18597619Y-57205476D02*
X18550000Y-57253095D01*
X18502380Y-57348333D01*
X18502380Y-57586428D01*
X18550000Y-57681666D01*
X18597619Y-57729285D01*
X18692857Y-57776904D01*
X18788095Y-57776904D01*
X18930952Y-57729285D01*
X19502380Y-57157857D01*
X19502380Y-57776904D01*
X19121428Y-58205476D02*
X19121428Y-58967380D01*
X19502380Y-59967380D02*
X19502380Y-59395952D01*
X19502380Y-59681666D02*
X18502380Y-59681666D01*
X18645238Y-59586428D01*
X18740476Y-59491190D01*
X18788095Y-59395952D01*
X21947142Y-53681666D02*
X21994761Y-53634047D01*
X22042380Y-53491190D01*
X22042380Y-53395952D01*
X21994761Y-53253095D01*
X21899523Y-53157857D01*
X21804285Y-53110238D01*
X21613809Y-53062619D01*
X21470952Y-53062619D01*
X21280476Y-53110238D01*
X21185238Y-53157857D01*
X21090000Y-53253095D01*
X21042380Y-53395952D01*
X21042380Y-53491190D01*
X21090000Y-53634047D01*
X21137619Y-53681666D01*
X21042380Y-54300714D02*
X21042380Y-54491190D01*
X21090000Y-54586428D01*
X21185238Y-54681666D01*
X21375714Y-54729285D01*
X21709047Y-54729285D01*
X21899523Y-54681666D01*
X21994761Y-54586428D01*
X22042380Y-54491190D01*
X22042380Y-54300714D01*
X21994761Y-54205476D01*
X21899523Y-54110238D01*
X21709047Y-54062619D01*
X21375714Y-54062619D01*
X21185238Y-54110238D01*
X21090000Y-54205476D01*
X21042380Y-54300714D01*
X22042380Y-55157857D02*
X21042380Y-55157857D01*
X21756666Y-55491190D01*
X21042380Y-55824523D01*
X22042380Y-55824523D01*
X22042380Y-56824523D02*
X22042380Y-56253095D01*
X22042380Y-56538809D02*
X21042380Y-56538809D01*
X21185238Y-56443571D01*
X21280476Y-56348333D01*
X21328095Y-56253095D01*
X22042380Y-57776904D02*
X22042380Y-57205476D01*
X22042380Y-57491190D02*
X21042380Y-57491190D01*
X21185238Y-57395952D01*
X21280476Y-57300714D01*
X21328095Y-57205476D01*
X21661428Y-58205476D02*
X21661428Y-58967380D01*
X22042380Y-59967380D02*
X22042380Y-59395952D01*
X22042380Y-59681666D02*
X21042380Y-59681666D01*
X21185238Y-59586428D01*
X21280476Y-59491190D01*
X21328095Y-59395952D01*
X24487142Y-53681666D02*
X24534761Y-53634047D01*
X24582380Y-53491190D01*
X24582380Y-53395952D01*
X24534761Y-53253095D01*
X24439523Y-53157857D01*
X24344285Y-53110238D01*
X24153809Y-53062619D01*
X24010952Y-53062619D01*
X23820476Y-53110238D01*
X23725238Y-53157857D01*
X23630000Y-53253095D01*
X23582380Y-53395952D01*
X23582380Y-53491190D01*
X23630000Y-53634047D01*
X23677619Y-53681666D01*
X23582380Y-54300714D02*
X23582380Y-54491190D01*
X23630000Y-54586428D01*
X23725238Y-54681666D01*
X23915714Y-54729285D01*
X24249047Y-54729285D01*
X24439523Y-54681666D01*
X24534761Y-54586428D01*
X24582380Y-54491190D01*
X24582380Y-54300714D01*
X24534761Y-54205476D01*
X24439523Y-54110238D01*
X24249047Y-54062619D01*
X23915714Y-54062619D01*
X23725238Y-54110238D01*
X23630000Y-54205476D01*
X23582380Y-54300714D01*
X24582380Y-55157857D02*
X23582380Y-55157857D01*
X24296666Y-55491190D01*
X23582380Y-55824523D01*
X24582380Y-55824523D01*
X24582380Y-56824523D02*
X24582380Y-56253095D01*
X24582380Y-56538809D02*
X23582380Y-56538809D01*
X23725238Y-56443571D01*
X23820476Y-56348333D01*
X23868095Y-56253095D01*
X23582380Y-57443571D02*
X23582380Y-57538809D01*
X23630000Y-57634047D01*
X23677619Y-57681666D01*
X23772857Y-57729285D01*
X23963333Y-57776904D01*
X24201428Y-57776904D01*
X24391904Y-57729285D01*
X24487142Y-57681666D01*
X24534761Y-57634047D01*
X24582380Y-57538809D01*
X24582380Y-57443571D01*
X24534761Y-57348333D01*
X24487142Y-57300714D01*
X24391904Y-57253095D01*
X24201428Y-57205476D01*
X23963333Y-57205476D01*
X23772857Y-57253095D01*
X23677619Y-57300714D01*
X23630000Y-57348333D01*
X23582380Y-57443571D01*
X24201428Y-58205476D02*
X24201428Y-58967380D01*
X24582380Y-59967380D02*
X24582380Y-59395952D01*
X24582380Y-59681666D02*
X23582380Y-59681666D01*
X23725238Y-59586428D01*
X23820476Y-59491190D01*
X23868095Y-59395952D01*
X27027142Y-53522857D02*
X27074761Y-53475238D01*
X27122380Y-53332380D01*
X27122380Y-53237142D01*
X27074761Y-53094285D01*
X26979523Y-52999047D01*
X26884285Y-52951428D01*
X26693809Y-52903809D01*
X26550952Y-52903809D01*
X26360476Y-52951428D01*
X26265238Y-52999047D01*
X26170000Y-53094285D01*
X26122380Y-53237142D01*
X26122380Y-53332380D01*
X26170000Y-53475238D01*
X26217619Y-53522857D01*
X26122380Y-54141904D02*
X26122380Y-54332380D01*
X26170000Y-54427619D01*
X26265238Y-54522857D01*
X26455714Y-54570476D01*
X26789047Y-54570476D01*
X26979523Y-54522857D01*
X27074761Y-54427619D01*
X27122380Y-54332380D01*
X27122380Y-54141904D01*
X27074761Y-54046666D01*
X26979523Y-53951428D01*
X26789047Y-53903809D01*
X26455714Y-53903809D01*
X26265238Y-53951428D01*
X26170000Y-54046666D01*
X26122380Y-54141904D01*
X27122380Y-54999047D02*
X26122380Y-54999047D01*
X26836666Y-55332380D01*
X26122380Y-55665714D01*
X27122380Y-55665714D01*
X27122380Y-56189523D02*
X27122380Y-56380000D01*
X27074761Y-56475238D01*
X27027142Y-56522857D01*
X26884285Y-56618095D01*
X26693809Y-56665714D01*
X26312857Y-56665714D01*
X26217619Y-56618095D01*
X26170000Y-56570476D01*
X26122380Y-56475238D01*
X26122380Y-56284761D01*
X26170000Y-56189523D01*
X26217619Y-56141904D01*
X26312857Y-56094285D01*
X26550952Y-56094285D01*
X26646190Y-56141904D01*
X26693809Y-56189523D01*
X26741428Y-56284761D01*
X26741428Y-56475238D01*
X26693809Y-56570476D01*
X26646190Y-56618095D01*
X26550952Y-56665714D01*
X26741428Y-57094285D02*
X26741428Y-57856190D01*
X27122380Y-58856190D02*
X27122380Y-58284761D01*
X27122380Y-58570476D02*
X26122380Y-58570476D01*
X26265238Y-58475238D01*
X26360476Y-58380000D01*
X26408095Y-58284761D01*
X29662380Y-52967142D02*
X28662380Y-52967142D01*
X28662380Y-53205238D01*
X28710000Y-53348095D01*
X28805238Y-53443333D01*
X28900476Y-53490952D01*
X29090952Y-53538571D01*
X29233809Y-53538571D01*
X29424285Y-53490952D01*
X29519523Y-53443333D01*
X29614761Y-53348095D01*
X29662380Y-53205238D01*
X29662380Y-52967142D01*
X28662380Y-54157619D02*
X28662380Y-54348095D01*
X28710000Y-54443333D01*
X28805238Y-54538571D01*
X28995714Y-54586190D01*
X29329047Y-54586190D01*
X29519523Y-54538571D01*
X29614761Y-54443333D01*
X29662380Y-54348095D01*
X29662380Y-54157619D01*
X29614761Y-54062380D01*
X29519523Y-53967142D01*
X29329047Y-53919523D01*
X28995714Y-53919523D01*
X28805238Y-53967142D01*
X28710000Y-54062380D01*
X28662380Y-54157619D01*
X28662380Y-54871904D02*
X28662380Y-55443333D01*
X29662380Y-55157619D02*
X28662380Y-55157619D01*
X29662380Y-56300476D02*
X29662380Y-55729047D01*
X29662380Y-56014761D02*
X28662380Y-56014761D01*
X28805238Y-55919523D01*
X28900476Y-55824285D01*
X28948095Y-55729047D01*
X93067142Y-53522857D02*
X93114761Y-53475238D01*
X93162380Y-53332380D01*
X93162380Y-53237142D01*
X93114761Y-53094285D01*
X93019523Y-52999047D01*
X92924285Y-52951428D01*
X92733809Y-52903809D01*
X92590952Y-52903809D01*
X92400476Y-52951428D01*
X92305238Y-52999047D01*
X92210000Y-53094285D01*
X92162380Y-53237142D01*
X92162380Y-53332380D01*
X92210000Y-53475238D01*
X92257619Y-53522857D01*
X92162380Y-54141904D02*
X92162380Y-54332380D01*
X92210000Y-54427619D01*
X92305238Y-54522857D01*
X92495714Y-54570476D01*
X92829047Y-54570476D01*
X93019523Y-54522857D01*
X93114761Y-54427619D01*
X93162380Y-54332380D01*
X93162380Y-54141904D01*
X93114761Y-54046666D01*
X93019523Y-53951428D01*
X92829047Y-53903809D01*
X92495714Y-53903809D01*
X92305238Y-53951428D01*
X92210000Y-54046666D01*
X92162380Y-54141904D01*
X93162380Y-54999047D02*
X92162380Y-54999047D01*
X92876666Y-55332380D01*
X92162380Y-55665714D01*
X93162380Y-55665714D01*
X92162380Y-56332380D02*
X92162380Y-56427619D01*
X92210000Y-56522857D01*
X92257619Y-56570476D01*
X92352857Y-56618095D01*
X92543333Y-56665714D01*
X92781428Y-56665714D01*
X92971904Y-56618095D01*
X93067142Y-56570476D01*
X93114761Y-56522857D01*
X93162380Y-56427619D01*
X93162380Y-56332380D01*
X93114761Y-56237142D01*
X93067142Y-56189523D01*
X92971904Y-56141904D01*
X92781428Y-56094285D01*
X92543333Y-56094285D01*
X92352857Y-56141904D01*
X92257619Y-56189523D01*
X92210000Y-56237142D01*
X92162380Y-56332380D01*
X92781428Y-57094285D02*
X92781428Y-57856190D01*
X93162380Y-58856190D02*
X93162380Y-58284761D01*
X93162380Y-58570476D02*
X92162380Y-58570476D01*
X92305238Y-58475238D01*
X92400476Y-58380000D01*
X92448095Y-58284761D01*
X90527142Y-53522857D02*
X90574761Y-53475238D01*
X90622380Y-53332380D01*
X90622380Y-53237142D01*
X90574761Y-53094285D01*
X90479523Y-52999047D01*
X90384285Y-52951428D01*
X90193809Y-52903809D01*
X90050952Y-52903809D01*
X89860476Y-52951428D01*
X89765238Y-52999047D01*
X89670000Y-53094285D01*
X89622380Y-53237142D01*
X89622380Y-53332380D01*
X89670000Y-53475238D01*
X89717619Y-53522857D01*
X89622380Y-54141904D02*
X89622380Y-54332380D01*
X89670000Y-54427619D01*
X89765238Y-54522857D01*
X89955714Y-54570476D01*
X90289047Y-54570476D01*
X90479523Y-54522857D01*
X90574761Y-54427619D01*
X90622380Y-54332380D01*
X90622380Y-54141904D01*
X90574761Y-54046666D01*
X90479523Y-53951428D01*
X90289047Y-53903809D01*
X89955714Y-53903809D01*
X89765238Y-53951428D01*
X89670000Y-54046666D01*
X89622380Y-54141904D01*
X90622380Y-54999047D02*
X89622380Y-54999047D01*
X90336666Y-55332380D01*
X89622380Y-55665714D01*
X90622380Y-55665714D01*
X90622380Y-56665714D02*
X90622380Y-56094285D01*
X90622380Y-56380000D02*
X89622380Y-56380000D01*
X89765238Y-56284761D01*
X89860476Y-56189523D01*
X89908095Y-56094285D01*
X90241428Y-57094285D02*
X90241428Y-57856190D01*
X90622380Y-58856190D02*
X90622380Y-58284761D01*
X90622380Y-58570476D02*
X89622380Y-58570476D01*
X89765238Y-58475238D01*
X89860476Y-58380000D01*
X89908095Y-58284761D01*
X87987142Y-53522857D02*
X88034761Y-53475238D01*
X88082380Y-53332380D01*
X88082380Y-53237142D01*
X88034761Y-53094285D01*
X87939523Y-52999047D01*
X87844285Y-52951428D01*
X87653809Y-52903809D01*
X87510952Y-52903809D01*
X87320476Y-52951428D01*
X87225238Y-52999047D01*
X87130000Y-53094285D01*
X87082380Y-53237142D01*
X87082380Y-53332380D01*
X87130000Y-53475238D01*
X87177619Y-53522857D01*
X87082380Y-54141904D02*
X87082380Y-54332380D01*
X87130000Y-54427619D01*
X87225238Y-54522857D01*
X87415714Y-54570476D01*
X87749047Y-54570476D01*
X87939523Y-54522857D01*
X88034761Y-54427619D01*
X88082380Y-54332380D01*
X88082380Y-54141904D01*
X88034761Y-54046666D01*
X87939523Y-53951428D01*
X87749047Y-53903809D01*
X87415714Y-53903809D01*
X87225238Y-53951428D01*
X87130000Y-54046666D01*
X87082380Y-54141904D01*
X88082380Y-54999047D02*
X87082380Y-54999047D01*
X87796666Y-55332380D01*
X87082380Y-55665714D01*
X88082380Y-55665714D01*
X87177619Y-56094285D02*
X87130000Y-56141904D01*
X87082380Y-56237142D01*
X87082380Y-56475238D01*
X87130000Y-56570476D01*
X87177619Y-56618095D01*
X87272857Y-56665714D01*
X87368095Y-56665714D01*
X87510952Y-56618095D01*
X88082380Y-56046666D01*
X88082380Y-56665714D01*
X87701428Y-57094285D02*
X87701428Y-57856190D01*
X88082380Y-58856190D02*
X88082380Y-58284761D01*
X88082380Y-58570476D02*
X87082380Y-58570476D01*
X87225238Y-58475238D01*
X87320476Y-58380000D01*
X87368095Y-58284761D01*
X85447142Y-53522857D02*
X85494761Y-53475238D01*
X85542380Y-53332380D01*
X85542380Y-53237142D01*
X85494761Y-53094285D01*
X85399523Y-52999047D01*
X85304285Y-52951428D01*
X85113809Y-52903809D01*
X84970952Y-52903809D01*
X84780476Y-52951428D01*
X84685238Y-52999047D01*
X84590000Y-53094285D01*
X84542380Y-53237142D01*
X84542380Y-53332380D01*
X84590000Y-53475238D01*
X84637619Y-53522857D01*
X84542380Y-54141904D02*
X84542380Y-54332380D01*
X84590000Y-54427619D01*
X84685238Y-54522857D01*
X84875714Y-54570476D01*
X85209047Y-54570476D01*
X85399523Y-54522857D01*
X85494761Y-54427619D01*
X85542380Y-54332380D01*
X85542380Y-54141904D01*
X85494761Y-54046666D01*
X85399523Y-53951428D01*
X85209047Y-53903809D01*
X84875714Y-53903809D01*
X84685238Y-53951428D01*
X84590000Y-54046666D01*
X84542380Y-54141904D01*
X85542380Y-54999047D02*
X84542380Y-54999047D01*
X85256666Y-55332380D01*
X84542380Y-55665714D01*
X85542380Y-55665714D01*
X84542380Y-56046666D02*
X84542380Y-56665714D01*
X84923333Y-56332380D01*
X84923333Y-56475238D01*
X84970952Y-56570476D01*
X85018571Y-56618095D01*
X85113809Y-56665714D01*
X85351904Y-56665714D01*
X85447142Y-56618095D01*
X85494761Y-56570476D01*
X85542380Y-56475238D01*
X85542380Y-56189523D01*
X85494761Y-56094285D01*
X85447142Y-56046666D01*
X85161428Y-57094285D02*
X85161428Y-57856190D01*
X85542380Y-58856190D02*
X85542380Y-58284761D01*
X85542380Y-58570476D02*
X84542380Y-58570476D01*
X84685238Y-58475238D01*
X84780476Y-58380000D01*
X84828095Y-58284761D01*
X82907142Y-53522857D02*
X82954761Y-53475238D01*
X83002380Y-53332380D01*
X83002380Y-53237142D01*
X82954761Y-53094285D01*
X82859523Y-52999047D01*
X82764285Y-52951428D01*
X82573809Y-52903809D01*
X82430952Y-52903809D01*
X82240476Y-52951428D01*
X82145238Y-52999047D01*
X82050000Y-53094285D01*
X82002380Y-53237142D01*
X82002380Y-53332380D01*
X82050000Y-53475238D01*
X82097619Y-53522857D01*
X82002380Y-54141904D02*
X82002380Y-54332380D01*
X82050000Y-54427619D01*
X82145238Y-54522857D01*
X82335714Y-54570476D01*
X82669047Y-54570476D01*
X82859523Y-54522857D01*
X82954761Y-54427619D01*
X83002380Y-54332380D01*
X83002380Y-54141904D01*
X82954761Y-54046666D01*
X82859523Y-53951428D01*
X82669047Y-53903809D01*
X82335714Y-53903809D01*
X82145238Y-53951428D01*
X82050000Y-54046666D01*
X82002380Y-54141904D01*
X83002380Y-54999047D02*
X82002380Y-54999047D01*
X82716666Y-55332380D01*
X82002380Y-55665714D01*
X83002380Y-55665714D01*
X82335714Y-56570476D02*
X83002380Y-56570476D01*
X81954761Y-56332380D02*
X82669047Y-56094285D01*
X82669047Y-56713333D01*
X82621428Y-57094285D02*
X82621428Y-57856190D01*
X83002380Y-58856190D02*
X83002380Y-58284761D01*
X83002380Y-58570476D02*
X82002380Y-58570476D01*
X82145238Y-58475238D01*
X82240476Y-58380000D01*
X82288095Y-58284761D01*
X80367142Y-53522857D02*
X80414761Y-53475238D01*
X80462380Y-53332380D01*
X80462380Y-53237142D01*
X80414761Y-53094285D01*
X80319523Y-52999047D01*
X80224285Y-52951428D01*
X80033809Y-52903809D01*
X79890952Y-52903809D01*
X79700476Y-52951428D01*
X79605238Y-52999047D01*
X79510000Y-53094285D01*
X79462380Y-53237142D01*
X79462380Y-53332380D01*
X79510000Y-53475238D01*
X79557619Y-53522857D01*
X79462380Y-54141904D02*
X79462380Y-54332380D01*
X79510000Y-54427619D01*
X79605238Y-54522857D01*
X79795714Y-54570476D01*
X80129047Y-54570476D01*
X80319523Y-54522857D01*
X80414761Y-54427619D01*
X80462380Y-54332380D01*
X80462380Y-54141904D01*
X80414761Y-54046666D01*
X80319523Y-53951428D01*
X80129047Y-53903809D01*
X79795714Y-53903809D01*
X79605238Y-53951428D01*
X79510000Y-54046666D01*
X79462380Y-54141904D01*
X80462380Y-54999047D02*
X79462380Y-54999047D01*
X80176666Y-55332380D01*
X79462380Y-55665714D01*
X80462380Y-55665714D01*
X79462380Y-56618095D02*
X79462380Y-56141904D01*
X79938571Y-56094285D01*
X79890952Y-56141904D01*
X79843333Y-56237142D01*
X79843333Y-56475238D01*
X79890952Y-56570476D01*
X79938571Y-56618095D01*
X80033809Y-56665714D01*
X80271904Y-56665714D01*
X80367142Y-56618095D01*
X80414761Y-56570476D01*
X80462380Y-56475238D01*
X80462380Y-56237142D01*
X80414761Y-56141904D01*
X80367142Y-56094285D01*
X80081428Y-57094285D02*
X80081428Y-57856190D01*
X80462380Y-58856190D02*
X80462380Y-58284761D01*
X80462380Y-58570476D02*
X79462380Y-58570476D01*
X79605238Y-58475238D01*
X79700476Y-58380000D01*
X79748095Y-58284761D01*
X77827142Y-53522857D02*
X77874761Y-53475238D01*
X77922380Y-53332380D01*
X77922380Y-53237142D01*
X77874761Y-53094285D01*
X77779523Y-52999047D01*
X77684285Y-52951428D01*
X77493809Y-52903809D01*
X77350952Y-52903809D01*
X77160476Y-52951428D01*
X77065238Y-52999047D01*
X76970000Y-53094285D01*
X76922380Y-53237142D01*
X76922380Y-53332380D01*
X76970000Y-53475238D01*
X77017619Y-53522857D01*
X76922380Y-54141904D02*
X76922380Y-54332380D01*
X76970000Y-54427619D01*
X77065238Y-54522857D01*
X77255714Y-54570476D01*
X77589047Y-54570476D01*
X77779523Y-54522857D01*
X77874761Y-54427619D01*
X77922380Y-54332380D01*
X77922380Y-54141904D01*
X77874761Y-54046666D01*
X77779523Y-53951428D01*
X77589047Y-53903809D01*
X77255714Y-53903809D01*
X77065238Y-53951428D01*
X76970000Y-54046666D01*
X76922380Y-54141904D01*
X77922380Y-54999047D02*
X76922380Y-54999047D01*
X77636666Y-55332380D01*
X76922380Y-55665714D01*
X77922380Y-55665714D01*
X76922380Y-56570476D02*
X76922380Y-56380000D01*
X76970000Y-56284761D01*
X77017619Y-56237142D01*
X77160476Y-56141904D01*
X77350952Y-56094285D01*
X77731904Y-56094285D01*
X77827142Y-56141904D01*
X77874761Y-56189523D01*
X77922380Y-56284761D01*
X77922380Y-56475238D01*
X77874761Y-56570476D01*
X77827142Y-56618095D01*
X77731904Y-56665714D01*
X77493809Y-56665714D01*
X77398571Y-56618095D01*
X77350952Y-56570476D01*
X77303333Y-56475238D01*
X77303333Y-56284761D01*
X77350952Y-56189523D01*
X77398571Y-56141904D01*
X77493809Y-56094285D01*
X77541428Y-57094285D02*
X77541428Y-57856190D01*
X77922380Y-58856190D02*
X77922380Y-58284761D01*
X77922380Y-58570476D02*
X76922380Y-58570476D01*
X77065238Y-58475238D01*
X77160476Y-58380000D01*
X77208095Y-58284761D01*
X75287142Y-53522857D02*
X75334761Y-53475238D01*
X75382380Y-53332380D01*
X75382380Y-53237142D01*
X75334761Y-53094285D01*
X75239523Y-52999047D01*
X75144285Y-52951428D01*
X74953809Y-52903809D01*
X74810952Y-52903809D01*
X74620476Y-52951428D01*
X74525238Y-52999047D01*
X74430000Y-53094285D01*
X74382380Y-53237142D01*
X74382380Y-53332380D01*
X74430000Y-53475238D01*
X74477619Y-53522857D01*
X74382380Y-54141904D02*
X74382380Y-54332380D01*
X74430000Y-54427619D01*
X74525238Y-54522857D01*
X74715714Y-54570476D01*
X75049047Y-54570476D01*
X75239523Y-54522857D01*
X75334761Y-54427619D01*
X75382380Y-54332380D01*
X75382380Y-54141904D01*
X75334761Y-54046666D01*
X75239523Y-53951428D01*
X75049047Y-53903809D01*
X74715714Y-53903809D01*
X74525238Y-53951428D01*
X74430000Y-54046666D01*
X74382380Y-54141904D01*
X75382380Y-54999047D02*
X74382380Y-54999047D01*
X75096666Y-55332380D01*
X74382380Y-55665714D01*
X75382380Y-55665714D01*
X74382380Y-56046666D02*
X74382380Y-56713333D01*
X75382380Y-56284761D01*
X75001428Y-57094285D02*
X75001428Y-57856190D01*
X75382380Y-58856190D02*
X75382380Y-58284761D01*
X75382380Y-58570476D02*
X74382380Y-58570476D01*
X74525238Y-58475238D01*
X74620476Y-58380000D01*
X74668095Y-58284761D01*
X72747142Y-53522857D02*
X72794761Y-53475238D01*
X72842380Y-53332380D01*
X72842380Y-53237142D01*
X72794761Y-53094285D01*
X72699523Y-52999047D01*
X72604285Y-52951428D01*
X72413809Y-52903809D01*
X72270952Y-52903809D01*
X72080476Y-52951428D01*
X71985238Y-52999047D01*
X71890000Y-53094285D01*
X71842380Y-53237142D01*
X71842380Y-53332380D01*
X71890000Y-53475238D01*
X71937619Y-53522857D01*
X71842380Y-54141904D02*
X71842380Y-54332380D01*
X71890000Y-54427619D01*
X71985238Y-54522857D01*
X72175714Y-54570476D01*
X72509047Y-54570476D01*
X72699523Y-54522857D01*
X72794761Y-54427619D01*
X72842380Y-54332380D01*
X72842380Y-54141904D01*
X72794761Y-54046666D01*
X72699523Y-53951428D01*
X72509047Y-53903809D01*
X72175714Y-53903809D01*
X71985238Y-53951428D01*
X71890000Y-54046666D01*
X71842380Y-54141904D01*
X72842380Y-54999047D02*
X71842380Y-54999047D01*
X72556666Y-55332380D01*
X71842380Y-55665714D01*
X72842380Y-55665714D01*
X72270952Y-56284761D02*
X72223333Y-56189523D01*
X72175714Y-56141904D01*
X72080476Y-56094285D01*
X72032857Y-56094285D01*
X71937619Y-56141904D01*
X71890000Y-56189523D01*
X71842380Y-56284761D01*
X71842380Y-56475238D01*
X71890000Y-56570476D01*
X71937619Y-56618095D01*
X72032857Y-56665714D01*
X72080476Y-56665714D01*
X72175714Y-56618095D01*
X72223333Y-56570476D01*
X72270952Y-56475238D01*
X72270952Y-56284761D01*
X72318571Y-56189523D01*
X72366190Y-56141904D01*
X72461428Y-56094285D01*
X72651904Y-56094285D01*
X72747142Y-56141904D01*
X72794761Y-56189523D01*
X72842380Y-56284761D01*
X72842380Y-56475238D01*
X72794761Y-56570476D01*
X72747142Y-56618095D01*
X72651904Y-56665714D01*
X72461428Y-56665714D01*
X72366190Y-56618095D01*
X72318571Y-56570476D01*
X72270952Y-56475238D01*
X72461428Y-57094285D02*
X72461428Y-57856190D01*
X72842380Y-58856190D02*
X72842380Y-58284761D01*
X72842380Y-58570476D02*
X71842380Y-58570476D01*
X71985238Y-58475238D01*
X72080476Y-58380000D01*
X72128095Y-58284761D01*
X70016666Y-53260714D02*
X70016666Y-53736904D01*
X70302380Y-53165476D02*
X69302380Y-53498809D01*
X70302380Y-53832142D01*
X70302380Y-54689285D02*
X70302380Y-54117857D01*
X70302380Y-54403571D02*
X69302380Y-54403571D01*
X69445238Y-54308333D01*
X69540476Y-54213095D01*
X69588095Y-54117857D01*
X67238571Y-53570238D02*
X67286190Y-53713095D01*
X67333809Y-53760714D01*
X67429047Y-53808333D01*
X67571904Y-53808333D01*
X67667142Y-53760714D01*
X67714761Y-53713095D01*
X67762380Y-53617857D01*
X67762380Y-53236904D01*
X66762380Y-53236904D01*
X66762380Y-53570238D01*
X66810000Y-53665476D01*
X66857619Y-53713095D01*
X66952857Y-53760714D01*
X67048095Y-53760714D01*
X67143333Y-53713095D01*
X67190952Y-53665476D01*
X67238571Y-53570238D01*
X67238571Y-53236904D01*
X67762380Y-54760714D02*
X67762380Y-54189285D01*
X67762380Y-54475000D02*
X66762380Y-54475000D01*
X66905238Y-54379761D01*
X67000476Y-54284523D01*
X67048095Y-54189285D01*
X65127142Y-53808333D02*
X65174761Y-53760714D01*
X65222380Y-53617857D01*
X65222380Y-53522619D01*
X65174761Y-53379761D01*
X65079523Y-53284523D01*
X64984285Y-53236904D01*
X64793809Y-53189285D01*
X64650952Y-53189285D01*
X64460476Y-53236904D01*
X64365238Y-53284523D01*
X64270000Y-53379761D01*
X64222380Y-53522619D01*
X64222380Y-53617857D01*
X64270000Y-53760714D01*
X64317619Y-53808333D01*
X65222380Y-54760714D02*
X65222380Y-54189285D01*
X65222380Y-54475000D02*
X64222380Y-54475000D01*
X64365238Y-54379761D01*
X64460476Y-54284523D01*
X64508095Y-54189285D01*
X62682380Y-53236904D02*
X61682380Y-53236904D01*
X61682380Y-53475000D01*
X61730000Y-53617857D01*
X61825238Y-53713095D01*
X61920476Y-53760714D01*
X62110952Y-53808333D01*
X62253809Y-53808333D01*
X62444285Y-53760714D01*
X62539523Y-53713095D01*
X62634761Y-53617857D01*
X62682380Y-53475000D01*
X62682380Y-53236904D01*
X62682380Y-54760714D02*
X62682380Y-54189285D01*
X62682380Y-54475000D02*
X61682380Y-54475000D01*
X61825238Y-54379761D01*
X61920476Y-54284523D01*
X61968095Y-54189285D01*
X59190000Y-53760714D02*
X59142380Y-53665476D01*
X59142380Y-53522619D01*
X59190000Y-53379761D01*
X59285238Y-53284523D01*
X59380476Y-53236904D01*
X59570952Y-53189285D01*
X59713809Y-53189285D01*
X59904285Y-53236904D01*
X59999523Y-53284523D01*
X60094761Y-53379761D01*
X60142380Y-53522619D01*
X60142380Y-53617857D01*
X60094761Y-53760714D01*
X60047142Y-53808333D01*
X59713809Y-53808333D01*
X59713809Y-53617857D01*
X60142380Y-54760714D02*
X60142380Y-54189285D01*
X60142380Y-54475000D02*
X59142380Y-54475000D01*
X59285238Y-54379761D01*
X59380476Y-54284523D01*
X59428095Y-54189285D01*
X57078571Y-53641666D02*
X57078571Y-53308333D01*
X57602380Y-53308333D02*
X56602380Y-53308333D01*
X56602380Y-53784523D01*
X57602380Y-54689285D02*
X57602380Y-54117857D01*
X57602380Y-54403571D02*
X56602380Y-54403571D01*
X56745238Y-54308333D01*
X56840476Y-54213095D01*
X56888095Y-54117857D01*
X54538571Y-53284523D02*
X54538571Y-53617857D01*
X55062380Y-53760714D02*
X55062380Y-53284523D01*
X54062380Y-53284523D01*
X54062380Y-53760714D01*
X55062380Y-54713095D02*
X55062380Y-54141666D01*
X55062380Y-54427380D02*
X54062380Y-54427380D01*
X54205238Y-54332142D01*
X54300476Y-54236904D01*
X54348095Y-54141666D01*
X52522380Y-53213095D02*
X51522380Y-53213095D01*
X51998571Y-53213095D02*
X51998571Y-53784523D01*
X52522380Y-53784523D02*
X51522380Y-53784523D01*
X52522380Y-54784523D02*
X52522380Y-54213095D01*
X52522380Y-54498809D02*
X51522380Y-54498809D01*
X51665238Y-54403571D01*
X51760476Y-54308333D01*
X51808095Y-54213095D01*
X48982380Y-53641666D02*
X49696666Y-53641666D01*
X49839523Y-53594047D01*
X49934761Y-53498809D01*
X49982380Y-53355952D01*
X49982380Y-53260714D01*
X49982380Y-54641666D02*
X49982380Y-54070238D01*
X49982380Y-54355952D02*
X48982380Y-54355952D01*
X49125238Y-54260714D01*
X49220476Y-54165476D01*
X49268095Y-54070238D01*
X47442380Y-53236904D02*
X46442380Y-53236904D01*
X47442380Y-53808333D02*
X46870952Y-53379761D01*
X46442380Y-53808333D02*
X47013809Y-53236904D01*
X47442380Y-54760714D02*
X47442380Y-54189285D01*
X47442380Y-54475000D02*
X46442380Y-54475000D01*
X46585238Y-54379761D01*
X46680476Y-54284523D01*
X46728095Y-54189285D01*
X44902380Y-53808333D02*
X44902380Y-53332142D01*
X43902380Y-53332142D01*
X44902380Y-54665476D02*
X44902380Y-54094047D01*
X44902380Y-54379761D02*
X43902380Y-54379761D01*
X44045238Y-54284523D01*
X44140476Y-54189285D01*
X44188095Y-54094047D01*
X42362380Y-53165476D02*
X41362380Y-53165476D01*
X42076666Y-53498809D01*
X41362380Y-53832142D01*
X42362380Y-53832142D01*
X42362380Y-54832142D02*
X42362380Y-54260714D01*
X42362380Y-54546428D02*
X41362380Y-54546428D01*
X41505238Y-54451190D01*
X41600476Y-54355952D01*
X41648095Y-54260714D01*
X39822380Y-53213095D02*
X38822380Y-53213095D01*
X39822380Y-53784523D01*
X38822380Y-53784523D01*
X39822380Y-54784523D02*
X39822380Y-54213095D01*
X39822380Y-54498809D02*
X38822380Y-54498809D01*
X38965238Y-54403571D01*
X39060476Y-54308333D01*
X39108095Y-54213095D01*
X37282380Y-53236904D02*
X36282380Y-53236904D01*
X36282380Y-53617857D01*
X36330000Y-53713095D01*
X36377619Y-53760714D01*
X36472857Y-53808333D01*
X36615714Y-53808333D01*
X36710952Y-53760714D01*
X36758571Y-53713095D01*
X36806190Y-53617857D01*
X36806190Y-53236904D01*
X37282380Y-54760714D02*
X37282380Y-54189285D01*
X37282380Y-54475000D02*
X36282380Y-54475000D01*
X36425238Y-54379761D01*
X36520476Y-54284523D01*
X36568095Y-54189285D01*
X34837619Y-53879761D02*
X34790000Y-53784523D01*
X34694761Y-53689285D01*
X34551904Y-53546428D01*
X34504285Y-53451190D01*
X34504285Y-53355952D01*
X34742380Y-53403571D02*
X34694761Y-53308333D01*
X34599523Y-53213095D01*
X34409047Y-53165476D01*
X34075714Y-53165476D01*
X33885238Y-53213095D01*
X33790000Y-53308333D01*
X33742380Y-53403571D01*
X33742380Y-53594047D01*
X33790000Y-53689285D01*
X33885238Y-53784523D01*
X34075714Y-53832142D01*
X34409047Y-53832142D01*
X34599523Y-53784523D01*
X34694761Y-53689285D01*
X34742380Y-53594047D01*
X34742380Y-53403571D01*
X34742380Y-54784523D02*
X34742380Y-54213095D01*
X34742380Y-54498809D02*
X33742380Y-54498809D01*
X33885238Y-54403571D01*
X33980476Y-54308333D01*
X34028095Y-54213095D01*
X32202380Y-52736904D02*
X31202380Y-52736904D01*
X31202380Y-52975000D01*
X31250000Y-53117857D01*
X31345238Y-53213095D01*
X31440476Y-53260714D01*
X31630952Y-53308333D01*
X31773809Y-53308333D01*
X31964285Y-53260714D01*
X32059523Y-53213095D01*
X32154761Y-53117857D01*
X32202380Y-52975000D01*
X32202380Y-52736904D01*
X32202380Y-53736904D02*
X31202380Y-53736904D01*
X31202380Y-54117857D01*
X31250000Y-54213095D01*
X31297619Y-54260714D01*
X31392857Y-54308333D01*
X31535714Y-54308333D01*
X31630952Y-54260714D01*
X31678571Y-54213095D01*
X31726190Y-54117857D01*
X31726190Y-53736904D01*
X32202380Y-55260714D02*
X32202380Y-54689285D01*
X32202380Y-54975000D02*
X31202380Y-54975000D01*
X31345238Y-54879761D01*
X31440476Y-54784523D01*
X31488095Y-54689285D01*
X110282619Y-59777380D02*
X109711190Y-59777380D01*
X109996904Y-60777380D02*
X109996904Y-59777380D01*
X109425476Y-60491666D02*
X108949285Y-60491666D01*
X109520714Y-60777380D02*
X109187380Y-59777380D01*
X108854047Y-60777380D01*
X107949285Y-60682142D02*
X107996904Y-60729761D01*
X108139761Y-60777380D01*
X108235000Y-60777380D01*
X108377857Y-60729761D01*
X108473095Y-60634523D01*
X108520714Y-60539285D01*
X108568333Y-60348809D01*
X108568333Y-60205952D01*
X108520714Y-60015476D01*
X108473095Y-59920238D01*
X108377857Y-59825000D01*
X108235000Y-59777380D01*
X108139761Y-59777380D01*
X107996904Y-59825000D01*
X107949285Y-59872619D01*
X106758809Y-59777380D02*
X106758809Y-60586904D01*
X106711190Y-60682142D01*
X106663571Y-60729761D01*
X106568333Y-60777380D01*
X106377857Y-60777380D01*
X106282619Y-60729761D01*
X106235000Y-60682142D01*
X106187380Y-60586904D01*
X106187380Y-59777380D01*
X105377857Y-60253571D02*
X105711190Y-60253571D01*
X105711190Y-60777380D02*
X105711190Y-59777380D01*
X105235000Y-59777380D01*
X104282619Y-60682142D02*
X104330238Y-60729761D01*
X104473095Y-60777380D01*
X104568333Y-60777380D01*
X104711190Y-60729761D01*
X104806428Y-60634523D01*
X104854047Y-60539285D01*
X104901666Y-60348809D01*
X104901666Y-60205952D01*
X104854047Y-60015476D01*
X104806428Y-59920238D01*
X104711190Y-59825000D01*
X104568333Y-59777380D01*
X104473095Y-59777380D01*
X104330238Y-59825000D01*
X104282619Y-59872619D01*
X102758809Y-60253571D02*
X102615952Y-60301190D01*
X102568333Y-60348809D01*
X102520714Y-60444047D01*
X102520714Y-60586904D01*
X102568333Y-60682142D01*
X102615952Y-60729761D01*
X102711190Y-60777380D01*
X103092142Y-60777380D01*
X103092142Y-59777380D01*
X102758809Y-59777380D01*
X102663571Y-59825000D01*
X102615952Y-59872619D01*
X102568333Y-59967857D01*
X102568333Y-60063095D01*
X102615952Y-60158333D01*
X102663571Y-60205952D01*
X102758809Y-60253571D01*
X103092142Y-60253571D01*
X102139761Y-60491666D02*
X101663571Y-60491666D01*
X102235000Y-60777380D02*
X101901666Y-59777380D01*
X101568333Y-60777380D01*
X100663571Y-60682142D02*
X100711190Y-60729761D01*
X100854047Y-60777380D01*
X100949285Y-60777380D01*
X101092142Y-60729761D01*
X101187380Y-60634523D01*
X101235000Y-60539285D01*
X101282619Y-60348809D01*
X101282619Y-60205952D01*
X101235000Y-60015476D01*
X101187380Y-59920238D01*
X101092142Y-59825000D01*
X100949285Y-59777380D01*
X100854047Y-59777380D01*
X100711190Y-59825000D01*
X100663571Y-59872619D01*
X100235000Y-60777380D02*
X100235000Y-59777380D01*
X99663571Y-60777380D02*
X100092142Y-60205952D01*
X99663571Y-59777380D02*
X100235000Y-60348809D01*
X98473095Y-60777380D02*
X98473095Y-59777380D01*
X98092142Y-59777380D01*
X97996904Y-59825000D01*
X97949285Y-59872619D01*
X97901666Y-59967857D01*
X97901666Y-60110714D01*
X97949285Y-60205952D01*
X97996904Y-60253571D01*
X98092142Y-60301190D01*
X98473095Y-60301190D01*
X97520714Y-60491666D02*
X97044523Y-60491666D01*
X97615952Y-60777380D02*
X97282619Y-59777380D01*
X96949285Y-60777380D01*
X96615952Y-60777380D02*
X96615952Y-59777380D01*
X96044523Y-60777380D01*
X96044523Y-59777380D01*
X95568333Y-60253571D02*
X95235000Y-60253571D01*
X95092142Y-60777380D02*
X95568333Y-60777380D01*
X95568333Y-59777380D01*
X95092142Y-59777380D01*
X94187380Y-60777380D02*
X94663571Y-60777380D01*
X94663571Y-59777380D01*
M02*
