%TF.GenerationSoftware,KiCad,Pcbnew,(5.1.10)-1*%
%TF.CreationDate,2021-06-21T01:13:09-04:00*%
%TF.ProjectId,backside,6261636b-7369-4646-952e-6b696361645f,rev?*%
%TF.SameCoordinates,Original*%
%TF.FileFunction,Soldermask,Bot*%
%TF.FilePolarity,Negative*%
%FSLAX46Y46*%
G04 Gerber Fmt 4.6, Leading zero omitted, Abs format (unit mm)*
G04 Created by KiCad (PCBNEW (5.1.10)-1) date 2021-06-21 01:13:09*
%MOMM*%
%LPD*%
G01*
G04 APERTURE LIST*
%ADD10O,1.600000X1.600000*%
%ADD11R,1.600000X1.600000*%
%ADD12C,1.524000*%
%ADD13C,3.250000*%
%ADD14C,1.700000*%
%ADD15O,1.700000X1.700000*%
%ADD16R,1.700000X1.700000*%
%ADD17O,2.000000X1.905000*%
%ADD18R,2.000000X1.905000*%
%ADD19C,3.200000*%
G04 APERTURE END LIST*
D10*
%TO.C,U5*%
X78740000Y-133350000D03*
X60960000Y-125730000D03*
X76200000Y-133350000D03*
X63500000Y-125730000D03*
X73660000Y-133350000D03*
X66040000Y-125730000D03*
X71120000Y-133350000D03*
X68580000Y-125730000D03*
X68580000Y-133350000D03*
X71120000Y-125730000D03*
X66040000Y-133350000D03*
X73660000Y-125730000D03*
X63500000Y-133350000D03*
X76200000Y-125730000D03*
X60960000Y-133350000D03*
D11*
X78740000Y-125730000D03*
%TD*%
D12*
%TO.C,U3*%
X109855000Y-88265000D03*
X109855000Y-90805000D03*
X109855000Y-93345000D03*
X109855000Y-95885000D03*
X109855000Y-98425000D03*
X109855000Y-100965000D03*
X109855000Y-103505000D03*
X109855000Y-106045000D03*
X109855000Y-108585000D03*
X109855000Y-111125000D03*
X109855000Y-113665000D03*
X109855000Y-116205000D03*
X109855000Y-118745000D03*
X109855000Y-85725000D03*
X109855000Y-83185000D03*
X109855000Y-80645000D03*
X109855000Y-78105000D03*
X109855000Y-75565000D03*
X109855000Y-73025000D03*
X109855000Y-70485000D03*
X94615000Y-118745000D03*
X94615000Y-116205000D03*
X94615000Y-113665000D03*
X94615000Y-111125000D03*
X94615000Y-108585000D03*
X94615000Y-106045000D03*
X94615000Y-103505000D03*
X94615000Y-100965000D03*
X94615000Y-98425000D03*
X94615000Y-95885000D03*
X94615000Y-93345000D03*
X94615000Y-90805000D03*
X94615000Y-88265000D03*
X94615000Y-85725000D03*
X94615000Y-83185000D03*
X94615000Y-80645000D03*
X94615000Y-78105000D03*
X94615000Y-75565000D03*
X94615000Y-73025000D03*
X94615000Y-70485000D03*
%TD*%
D10*
%TO.C,U4*%
X54610000Y-133350000D03*
X36830000Y-125730000D03*
X52070000Y-133350000D03*
X39370000Y-125730000D03*
X49530000Y-133350000D03*
X41910000Y-125730000D03*
X46990000Y-133350000D03*
X44450000Y-125730000D03*
X44450000Y-133350000D03*
X46990000Y-125730000D03*
X41910000Y-133350000D03*
X49530000Y-125730000D03*
X39370000Y-133350000D03*
X52070000Y-125730000D03*
X36830000Y-133350000D03*
D11*
X54610000Y-125730000D03*
%TD*%
D13*
%TO.C,J20*%
X25405000Y-144780000D03*
X15245000Y-144780000D03*
D14*
X23495000Y-138430000D03*
X22225000Y-135890000D03*
X20955000Y-138430000D03*
X19685000Y-135890000D03*
X18415000Y-138430000D03*
X17145000Y-135890000D03*
%TD*%
D13*
%TO.C,J19*%
X5999999Y-144890000D03*
X-4160001Y-144890000D03*
D14*
X4089999Y-138540000D03*
X2819999Y-136000000D03*
X1549999Y-138540000D03*
X279999Y-136000000D03*
X-990001Y-138540000D03*
X-2260001Y-136000000D03*
%TD*%
D15*
%TO.C,J17*%
X81280000Y-103505000D03*
X81280000Y-100965000D03*
X81280000Y-98425000D03*
D16*
X81280000Y-95885000D03*
%TD*%
D15*
%TO.C,J16*%
X103505000Y-136525000D03*
X106045000Y-136525000D03*
D16*
X108585000Y-136525000D03*
%TD*%
D15*
%TO.C,J15*%
X103505000Y-133985000D03*
X106045000Y-133985000D03*
D16*
X108585000Y-133985000D03*
%TD*%
D15*
%TO.C,J14*%
X103505000Y-131445000D03*
X106045000Y-131445000D03*
D16*
X108585000Y-131445000D03*
%TD*%
D15*
%TO.C,J8*%
X83820000Y-103505000D03*
X83820000Y-100965000D03*
X83820000Y-98425000D03*
D16*
X83820000Y-95885000D03*
%TD*%
D15*
%TO.C,J4*%
X47625000Y-148590000D03*
X47625000Y-146050000D03*
X50165000Y-148590000D03*
X50165000Y-146050000D03*
X52705000Y-148590000D03*
X52705000Y-146050000D03*
X55245000Y-148590000D03*
X55245000Y-146050000D03*
X57785000Y-148590000D03*
X57785000Y-146050000D03*
X60325000Y-148590000D03*
X60325000Y-146050000D03*
X62865000Y-148590000D03*
X62865000Y-146050000D03*
X65405000Y-148590000D03*
X65405000Y-146050000D03*
X67945000Y-148590000D03*
D16*
X67945000Y-146050000D03*
%TD*%
D17*
%TO.C,Q1*%
X122555000Y-132080000D03*
X122555000Y-129540000D03*
D18*
X122555000Y-127000000D03*
%TD*%
D15*
%TO.C,J18*%
X29210000Y-44450000D03*
X29210000Y-46990000D03*
X31750000Y-44450000D03*
X31750000Y-46990000D03*
X34290000Y-44450000D03*
X34290000Y-46990000D03*
X36830000Y-44450000D03*
X36830000Y-46990000D03*
X39370000Y-44450000D03*
X39370000Y-46990000D03*
X41910000Y-44450000D03*
X41910000Y-46990000D03*
X44450000Y-44450000D03*
X44450000Y-46990000D03*
X46990000Y-44450000D03*
X46990000Y-46990000D03*
X49530000Y-44450000D03*
X49530000Y-46990000D03*
X52070000Y-44450000D03*
X52070000Y-46990000D03*
X54610000Y-44450000D03*
X54610000Y-46990000D03*
X57150000Y-44450000D03*
X57150000Y-46990000D03*
X59690000Y-44450000D03*
X59690000Y-46990000D03*
X62230000Y-44450000D03*
X62230000Y-46990000D03*
X64770000Y-44450000D03*
X64770000Y-46990000D03*
X67310000Y-44450000D03*
X67310000Y-46990000D03*
X69850000Y-44450000D03*
D16*
X69850000Y-46990000D03*
%TD*%
D19*
%TO.C,MH1*%
X125070000Y-52070000D03*
%TD*%
%TO.C,MH4*%
X-10820000Y-52070000D03*
%TD*%
%TO.C,MH2*%
X121260000Y-148590000D03*
%TD*%
%TO.C,MH3*%
X-13360000Y-148590000D03*
%TD*%
D15*
%TO.C,J9*%
X92685000Y-50800000D03*
X90145000Y-50800000D03*
X87605000Y-50800000D03*
X85065000Y-50800000D03*
X82525000Y-50800000D03*
X79985000Y-50800000D03*
X77445000Y-50800000D03*
X74905000Y-50800000D03*
X72365000Y-50800000D03*
X69825000Y-50800000D03*
X67285000Y-50800000D03*
X64745000Y-50800000D03*
X62205000Y-50800000D03*
X59665000Y-50800000D03*
X57125000Y-50800000D03*
X54585000Y-50800000D03*
X52045000Y-50800000D03*
X49505000Y-50800000D03*
X46965000Y-50800000D03*
X44425000Y-50800000D03*
X41885000Y-50800000D03*
X39345000Y-50800000D03*
X36805000Y-50800000D03*
X34265000Y-50800000D03*
X31725000Y-50800000D03*
X29185000Y-50800000D03*
X26645000Y-50800000D03*
X24105000Y-50800000D03*
X21565000Y-50800000D03*
D16*
X19025000Y-50800000D03*
%TD*%
D15*
%TO.C,J7*%
X-15900000Y-138430000D03*
X-15900000Y-135890000D03*
X-15900000Y-133350000D03*
X-15900000Y-130810000D03*
X-15900000Y-128270000D03*
X-15900000Y-125730000D03*
X-15900000Y-123190000D03*
X-15900000Y-120650000D03*
X-15900000Y-118110000D03*
X-15900000Y-115570000D03*
X-15900000Y-113030000D03*
X-15900000Y-110490000D03*
X-15900000Y-107950000D03*
X-15900000Y-105410000D03*
X-15900000Y-102870000D03*
X-15900000Y-100330000D03*
X-15900000Y-97790000D03*
X-15900000Y-95250000D03*
X-15900000Y-92710000D03*
X-15900000Y-90170000D03*
X-15900000Y-87630000D03*
X-15900000Y-85090000D03*
X-15900000Y-82550000D03*
X-15900000Y-80010000D03*
X-15900000Y-77470000D03*
X-15900000Y-74930000D03*
X-15900000Y-72390000D03*
X-15900000Y-69850000D03*
X-15900000Y-67310000D03*
X-15900000Y-64770000D03*
X-15900000Y-62230000D03*
X-15900000Y-59690000D03*
D16*
X-15900000Y-57150000D03*
%TD*%
D15*
%TO.C,J5*%
X125070000Y-118110000D03*
X125070000Y-115570000D03*
X125070000Y-113030000D03*
X125070000Y-110490000D03*
X125070000Y-107950000D03*
X125070000Y-105410000D03*
X125070000Y-102870000D03*
X125070000Y-100330000D03*
D16*
X125070000Y-97790000D03*
%TD*%
D15*
%TO.C,J3*%
X125070000Y-90170000D03*
X125070000Y-87630000D03*
D16*
X125070000Y-85090000D03*
%TD*%
D15*
%TO.C,J1*%
X50419000Y-112395000D03*
X52959000Y-112395000D03*
X55499000Y-112395000D03*
X58039000Y-112395000D03*
X60579000Y-112395000D03*
X63119000Y-112395000D03*
X65659000Y-112395000D03*
X68199000Y-112395000D03*
D16*
X70739000Y-112395000D03*
%TD*%
M02*
