%TF.GenerationSoftware,KiCad,Pcbnew,(5.1.9)-1*%
%TF.CreationDate,2021-05-14T23:56:10-04:00*%
%TF.ProjectId,backside,6261636b-7369-4646-952e-6b696361645f,rev?*%
%TF.SameCoordinates,Original*%
%TF.FileFunction,Copper,L1,Top*%
%TF.FilePolarity,Positive*%
%FSLAX46Y46*%
G04 Gerber Fmt 4.6, Leading zero omitted, Abs format (unit mm)*
G04 Created by KiCad (PCBNEW (5.1.9)-1) date 2021-05-14 23:56:10*
%MOMM*%
%LPD*%
G01*
G04 APERTURE LIST*
%TA.AperFunction,ComponentPad*%
%ADD10O,1.700000X1.700000*%
%TD*%
%TA.AperFunction,ComponentPad*%
%ADD11R,1.700000X1.700000*%
%TD*%
%TA.AperFunction,ComponentPad*%
%ADD12C,1.700000*%
%TD*%
%TA.AperFunction,ComponentPad*%
%ADD13C,1.524000*%
%TD*%
%TA.AperFunction,ViaPad*%
%ADD14C,1.000000*%
%TD*%
%TA.AperFunction,ViaPad*%
%ADD15C,0.800000*%
%TD*%
%TA.AperFunction,Conductor*%
%ADD16C,0.508000*%
%TD*%
%TA.AperFunction,Conductor*%
%ADD17C,0.762000*%
%TD*%
G04 APERTURE END LIST*
D10*
%TO.P,J18,34*%
%TO.N,/COM14-1*%
X29210000Y-44450000D03*
%TO.P,J18,33*%
%TO.N,/COM13-1*%
X29210000Y-46990000D03*
%TO.P,J18,32*%
%TO.N,/DP1*%
X31750000Y-44450000D03*
%TO.P,J18,31*%
X31750000Y-46990000D03*
%TO.P,J18,30*%
%TO.N,/Q1*%
X34290000Y-44450000D03*
%TO.P,J18,29*%
X34290000Y-46990000D03*
%TO.P,J18,28*%
%TO.N,/P1*%
X36830000Y-44450000D03*
%TO.P,J18,27*%
X36830000Y-46990000D03*
%TO.P,J18,26*%
%TO.N,/N1*%
X39370000Y-44450000D03*
%TO.P,J18,25*%
X39370000Y-46990000D03*
%TO.P,J18,24*%
%TO.N,/M1*%
X41910000Y-44450000D03*
%TO.P,J18,23*%
X41910000Y-46990000D03*
%TO.P,J18,22*%
%TO.N,/L1*%
X44450000Y-44450000D03*
%TO.P,J18,21*%
X44450000Y-46990000D03*
%TO.P,J18,20*%
%TO.N,/K1*%
X46990000Y-44450000D03*
%TO.P,J18,19*%
X46990000Y-46990000D03*
%TO.P,J18,18*%
%TO.N,/J1*%
X49530000Y-44450000D03*
%TO.P,J18,17*%
X49530000Y-46990000D03*
%TO.P,J18,16*%
%TO.N,/H1*%
X52070000Y-44450000D03*
%TO.P,J18,15*%
X52070000Y-46990000D03*
%TO.P,J18,14*%
%TO.N,/E1*%
X54610000Y-44450000D03*
%TO.P,J18,13*%
X54610000Y-46990000D03*
%TO.P,J18,12*%
%TO.N,/F1*%
X57150000Y-44450000D03*
%TO.P,J18,11*%
X57150000Y-46990000D03*
%TO.P,J18,10*%
%TO.N,/G1*%
X59690000Y-44450000D03*
%TO.P,J18,9*%
X59690000Y-46990000D03*
%TO.P,J18,8*%
%TO.N,/D1*%
X62230000Y-44450000D03*
%TO.P,J18,7*%
X62230000Y-46990000D03*
%TO.P,J18,6*%
%TO.N,/C1*%
X64770000Y-44450000D03*
%TO.P,J18,5*%
X64770000Y-46990000D03*
%TO.P,J18,4*%
%TO.N,/B1*%
X67310000Y-44450000D03*
%TO.P,J18,3*%
X67310000Y-46990000D03*
%TO.P,J18,2*%
%TO.N,/A1*%
X69850000Y-44450000D03*
D11*
%TO.P,J18,1*%
X69850000Y-46990000D03*
%TD*%
D12*
%TO.P,A1,34*%
%TO.N,/SW24*%
X69335000Y-122940000D03*
%TO.P,A1,33*%
%TO.N,/SW23*%
X66795000Y-122940000D03*
%TO.P,A1,32*%
%TO.N,/SW22*%
X64255000Y-122940000D03*
%TO.P,A1,31*%
%TO.N,/SW21*%
X61715000Y-122940000D03*
%TO.P,A1,30*%
%TO.N,/SW20*%
X58035000Y-122940000D03*
%TO.P,A1,29*%
%TO.N,/SW19*%
X55495000Y-122940000D03*
%TO.P,A1,28*%
%TO.N,/SW18*%
X52955000Y-122940000D03*
%TO.P,A1,27*%
%TO.N,/DIN17*%
X50415000Y-122940000D03*
%TO.P,A1,26*%
%TO.N,/DIN16*%
X46735000Y-122940000D03*
%TO.P,A1,25*%
%TO.N,/DIN15*%
X44195000Y-122940000D03*
%TO.P,A1,24*%
%TO.N,/DIN14*%
X41655000Y-122940000D03*
%TO.P,A1,23*%
%TO.N,/DIN13*%
X39115000Y-122940000D03*
%TO.P,A1,22*%
%TO.N,/DIN12*%
X69335000Y-134870000D03*
%TO.P,A1,21*%
%TO.N,/DIN11*%
X66795000Y-134870000D03*
%TO.P,A1,20*%
%TO.N,/DIN10*%
X64255000Y-134870000D03*
%TO.P,A1,19*%
%TO.N,/DIN9*%
X61715000Y-134870000D03*
%TO.P,A1,18*%
%TO.N,/DIN8*%
X58035000Y-134870000D03*
%TO.P,A1,17*%
%TO.N,/DIN7*%
X55495000Y-134870000D03*
%TO.P,A1,15*%
%TO.N,/DIN5*%
X50415000Y-134870000D03*
%TO.P,A1,16*%
%TO.N,/DIN6*%
X52955000Y-134870000D03*
%TO.P,A1,14*%
%TO.N,/DIN4*%
X46735000Y-134870000D03*
%TO.P,A1,13*%
%TO.N,/DIN3*%
X44195000Y-134870000D03*
%TO.P,A1,12*%
%TO.N,/DIN2*%
X41655000Y-134870000D03*
%TO.P,A1,11*%
%TO.N,/DIN1*%
X39115000Y-134870000D03*
%TO.P,A1,10*%
%TO.N,/3.3V*%
X72385000Y-123820000D03*
%TO.P,A1,9*%
%TO.N,/SRMISO*%
X72385000Y-126360000D03*
%TO.P,A1,8*%
%TO.N,/SRCS*%
X72385000Y-128900000D03*
%TO.P,A1,7*%
%TO.N,/SRCLK*%
X72385000Y-131440000D03*
%TO.P,A1,6*%
%TO.N,/GND*%
X72385000Y-133980000D03*
%TO.P,A1,5*%
%TO.N,Net-(A1-Pad5)*%
X35945000Y-123820000D03*
%TO.P,A1,4*%
%TO.N,Net-(A1-Pad4)*%
X35945000Y-126360000D03*
%TO.P,A1,3*%
%TO.N,Net-(A1-Pad3)*%
X35945000Y-128900000D03*
%TO.P,A1,2*%
%TO.N,Net-(A1-Pad2)*%
X35945000Y-131440000D03*
%TO.P,A1,1*%
%TO.N,/GND*%
X35945000Y-133980000D03*
%TD*%
%TO.P,C10,2*%
%TO.N,/GND*%
%TA.AperFunction,SMDPad,CuDef*%
G36*
G01*
X98027500Y-129622500D02*
X97552500Y-129622500D01*
G75*
G02*
X97315000Y-129385000I0J237500D01*
G01*
X97315000Y-128785000D01*
G75*
G02*
X97552500Y-128547500I237500J0D01*
G01*
X98027500Y-128547500D01*
G75*
G02*
X98265000Y-128785000I0J-237500D01*
G01*
X98265000Y-129385000D01*
G75*
G02*
X98027500Y-129622500I-237500J0D01*
G01*
G37*
%TD.AperFunction*%
%TO.P,C10,1*%
%TO.N,/Analog7*%
%TA.AperFunction,SMDPad,CuDef*%
G36*
G01*
X98027500Y-131347500D02*
X97552500Y-131347500D01*
G75*
G02*
X97315000Y-131110000I0J237500D01*
G01*
X97315000Y-130510000D01*
G75*
G02*
X97552500Y-130272500I237500J0D01*
G01*
X98027500Y-130272500D01*
G75*
G02*
X98265000Y-130510000I0J-237500D01*
G01*
X98265000Y-131110000D01*
G75*
G02*
X98027500Y-131347500I-237500J0D01*
G01*
G37*
%TD.AperFunction*%
%TD*%
%TO.P,C9,2*%
%TO.N,/GND*%
%TA.AperFunction,SMDPad,CuDef*%
G36*
G01*
X100567500Y-129622500D02*
X100092500Y-129622500D01*
G75*
G02*
X99855000Y-129385000I0J237500D01*
G01*
X99855000Y-128785000D01*
G75*
G02*
X100092500Y-128547500I237500J0D01*
G01*
X100567500Y-128547500D01*
G75*
G02*
X100805000Y-128785000I0J-237500D01*
G01*
X100805000Y-129385000D01*
G75*
G02*
X100567500Y-129622500I-237500J0D01*
G01*
G37*
%TD.AperFunction*%
%TO.P,C9,1*%
%TO.N,/Analog6*%
%TA.AperFunction,SMDPad,CuDef*%
G36*
G01*
X100567500Y-131347500D02*
X100092500Y-131347500D01*
G75*
G02*
X99855000Y-131110000I0J237500D01*
G01*
X99855000Y-130510000D01*
G75*
G02*
X100092500Y-130272500I237500J0D01*
G01*
X100567500Y-130272500D01*
G75*
G02*
X100805000Y-130510000I0J-237500D01*
G01*
X100805000Y-131110000D01*
G75*
G02*
X100567500Y-131347500I-237500J0D01*
G01*
G37*
%TD.AperFunction*%
%TD*%
%TO.P,C8,2*%
%TO.N,/GND*%
%TA.AperFunction,SMDPad,CuDef*%
G36*
G01*
X103107500Y-129622500D02*
X102632500Y-129622500D01*
G75*
G02*
X102395000Y-129385000I0J237500D01*
G01*
X102395000Y-128785000D01*
G75*
G02*
X102632500Y-128547500I237500J0D01*
G01*
X103107500Y-128547500D01*
G75*
G02*
X103345000Y-128785000I0J-237500D01*
G01*
X103345000Y-129385000D01*
G75*
G02*
X103107500Y-129622500I-237500J0D01*
G01*
G37*
%TD.AperFunction*%
%TO.P,C8,1*%
%TO.N,/Analog5*%
%TA.AperFunction,SMDPad,CuDef*%
G36*
G01*
X103107500Y-131347500D02*
X102632500Y-131347500D01*
G75*
G02*
X102395000Y-131110000I0J237500D01*
G01*
X102395000Y-130510000D01*
G75*
G02*
X102632500Y-130272500I237500J0D01*
G01*
X103107500Y-130272500D01*
G75*
G02*
X103345000Y-130510000I0J-237500D01*
G01*
X103345000Y-131110000D01*
G75*
G02*
X103107500Y-131347500I-237500J0D01*
G01*
G37*
%TD.AperFunction*%
%TD*%
%TO.P,C7,2*%
%TO.N,/GND*%
%TA.AperFunction,SMDPad,CuDef*%
G36*
G01*
X105647500Y-129622500D02*
X105172500Y-129622500D01*
G75*
G02*
X104935000Y-129385000I0J237500D01*
G01*
X104935000Y-128785000D01*
G75*
G02*
X105172500Y-128547500I237500J0D01*
G01*
X105647500Y-128547500D01*
G75*
G02*
X105885000Y-128785000I0J-237500D01*
G01*
X105885000Y-129385000D01*
G75*
G02*
X105647500Y-129622500I-237500J0D01*
G01*
G37*
%TD.AperFunction*%
%TO.P,C7,1*%
%TO.N,/Analog4*%
%TA.AperFunction,SMDPad,CuDef*%
G36*
G01*
X105647500Y-131347500D02*
X105172500Y-131347500D01*
G75*
G02*
X104935000Y-131110000I0J237500D01*
G01*
X104935000Y-130510000D01*
G75*
G02*
X105172500Y-130272500I237500J0D01*
G01*
X105647500Y-130272500D01*
G75*
G02*
X105885000Y-130510000I0J-237500D01*
G01*
X105885000Y-131110000D01*
G75*
G02*
X105647500Y-131347500I-237500J0D01*
G01*
G37*
%TD.AperFunction*%
%TD*%
%TO.P,C6,2*%
%TO.N,/GND*%
%TA.AperFunction,SMDPad,CuDef*%
G36*
G01*
X108187500Y-129622500D02*
X107712500Y-129622500D01*
G75*
G02*
X107475000Y-129385000I0J237500D01*
G01*
X107475000Y-128785000D01*
G75*
G02*
X107712500Y-128547500I237500J0D01*
G01*
X108187500Y-128547500D01*
G75*
G02*
X108425000Y-128785000I0J-237500D01*
G01*
X108425000Y-129385000D01*
G75*
G02*
X108187500Y-129622500I-237500J0D01*
G01*
G37*
%TD.AperFunction*%
%TO.P,C6,1*%
%TO.N,/Analog3*%
%TA.AperFunction,SMDPad,CuDef*%
G36*
G01*
X108187500Y-131347500D02*
X107712500Y-131347500D01*
G75*
G02*
X107475000Y-131110000I0J237500D01*
G01*
X107475000Y-130510000D01*
G75*
G02*
X107712500Y-130272500I237500J0D01*
G01*
X108187500Y-130272500D01*
G75*
G02*
X108425000Y-130510000I0J-237500D01*
G01*
X108425000Y-131110000D01*
G75*
G02*
X108187500Y-131347500I-237500J0D01*
G01*
G37*
%TD.AperFunction*%
%TD*%
%TO.P,C5,2*%
%TO.N,/GND*%
%TA.AperFunction,SMDPad,CuDef*%
G36*
G01*
X110727500Y-129622500D02*
X110252500Y-129622500D01*
G75*
G02*
X110015000Y-129385000I0J237500D01*
G01*
X110015000Y-128785000D01*
G75*
G02*
X110252500Y-128547500I237500J0D01*
G01*
X110727500Y-128547500D01*
G75*
G02*
X110965000Y-128785000I0J-237500D01*
G01*
X110965000Y-129385000D01*
G75*
G02*
X110727500Y-129622500I-237500J0D01*
G01*
G37*
%TD.AperFunction*%
%TO.P,C5,1*%
%TO.N,/Analog2*%
%TA.AperFunction,SMDPad,CuDef*%
G36*
G01*
X110727500Y-131347500D02*
X110252500Y-131347500D01*
G75*
G02*
X110015000Y-131110000I0J237500D01*
G01*
X110015000Y-130510000D01*
G75*
G02*
X110252500Y-130272500I237500J0D01*
G01*
X110727500Y-130272500D01*
G75*
G02*
X110965000Y-130510000I0J-237500D01*
G01*
X110965000Y-131110000D01*
G75*
G02*
X110727500Y-131347500I-237500J0D01*
G01*
G37*
%TD.AperFunction*%
%TD*%
%TO.P,C4,2*%
%TO.N,/GND*%
%TA.AperFunction,SMDPad,CuDef*%
G36*
G01*
X113267500Y-129622500D02*
X112792500Y-129622500D01*
G75*
G02*
X112555000Y-129385000I0J237500D01*
G01*
X112555000Y-128785000D01*
G75*
G02*
X112792500Y-128547500I237500J0D01*
G01*
X113267500Y-128547500D01*
G75*
G02*
X113505000Y-128785000I0J-237500D01*
G01*
X113505000Y-129385000D01*
G75*
G02*
X113267500Y-129622500I-237500J0D01*
G01*
G37*
%TD.AperFunction*%
%TO.P,C4,1*%
%TO.N,/Analog1*%
%TA.AperFunction,SMDPad,CuDef*%
G36*
G01*
X113267500Y-131347500D02*
X112792500Y-131347500D01*
G75*
G02*
X112555000Y-131110000I0J237500D01*
G01*
X112555000Y-130510000D01*
G75*
G02*
X112792500Y-130272500I237500J0D01*
G01*
X113267500Y-130272500D01*
G75*
G02*
X113505000Y-130510000I0J-237500D01*
G01*
X113505000Y-131110000D01*
G75*
G02*
X113267500Y-131347500I-237500J0D01*
G01*
G37*
%TD.AperFunction*%
%TD*%
%TO.P,C3,2*%
%TO.N,/GND*%
%TA.AperFunction,SMDPad,CuDef*%
G36*
G01*
X77006500Y-124062500D02*
X77006500Y-123587500D01*
G75*
G02*
X77244000Y-123350000I237500J0D01*
G01*
X77844000Y-123350000D01*
G75*
G02*
X78081500Y-123587500I0J-237500D01*
G01*
X78081500Y-124062500D01*
G75*
G02*
X77844000Y-124300000I-237500J0D01*
G01*
X77244000Y-124300000D01*
G75*
G02*
X77006500Y-124062500I0J237500D01*
G01*
G37*
%TD.AperFunction*%
%TO.P,C3,1*%
%TO.N,/3.3V*%
%TA.AperFunction,SMDPad,CuDef*%
G36*
G01*
X75281500Y-124062500D02*
X75281500Y-123587500D01*
G75*
G02*
X75519000Y-123350000I237500J0D01*
G01*
X76119000Y-123350000D01*
G75*
G02*
X76356500Y-123587500I0J-237500D01*
G01*
X76356500Y-124062500D01*
G75*
G02*
X76119000Y-124300000I-237500J0D01*
G01*
X75519000Y-124300000D01*
G75*
G02*
X75281500Y-124062500I0J237500D01*
G01*
G37*
%TD.AperFunction*%
%TD*%
D10*
%TO.P,J17,4*%
%TO.N,/GND*%
X81280000Y-97572000D03*
%TO.P,J17,3*%
X81280000Y-100112000D03*
%TO.P,J17,2*%
X81280000Y-102652000D03*
D11*
%TO.P,J17,1*%
X81280000Y-105192000D03*
%TD*%
D10*
%TO.P,J16,7*%
%TO.N,/3.3V*%
X98080000Y-139065000D03*
%TO.P,J16,6*%
X100620000Y-139065000D03*
%TO.P,J16,5*%
X103160000Y-139065000D03*
%TO.P,J16,4*%
X105700000Y-139065000D03*
%TO.P,J16,3*%
X108240000Y-139065000D03*
%TO.P,J16,2*%
X110780000Y-139065000D03*
D11*
%TO.P,J16,1*%
X113320000Y-139065000D03*
%TD*%
D10*
%TO.P,J15,7*%
%TO.N,/GND*%
X98080000Y-136525000D03*
%TO.P,J15,6*%
X100620000Y-136525000D03*
%TO.P,J15,5*%
X103160000Y-136525000D03*
%TO.P,J15,4*%
X105700000Y-136525000D03*
%TO.P,J15,3*%
X108240000Y-136525000D03*
%TO.P,J15,2*%
X110780000Y-136525000D03*
D11*
%TO.P,J15,1*%
X113320000Y-136525000D03*
%TD*%
D10*
%TO.P,J14,7*%
%TO.N,/Analog7*%
X98044000Y-133985000D03*
%TO.P,J14,6*%
%TO.N,/Analog6*%
X100584000Y-133985000D03*
%TO.P,J14,5*%
%TO.N,/Analog5*%
X103124000Y-133985000D03*
%TO.P,J14,4*%
%TO.N,/Analog4*%
X105664000Y-133985000D03*
%TO.P,J14,3*%
%TO.N,/Analog3*%
X108204000Y-133985000D03*
%TO.P,J14,2*%
%TO.N,/Analog2*%
X110744000Y-133985000D03*
D11*
%TO.P,J14,1*%
%TO.N,/Analog1*%
X113284000Y-133985000D03*
%TD*%
D10*
%TO.P,J9,30*%
%TO.N,/COM0-1*%
X92685000Y-50800000D03*
%TO.P,J9,29*%
%TO.N,/COM1-1*%
X90145000Y-50800000D03*
%TO.P,J9,28*%
%TO.N,/COM2-1*%
X87605000Y-50800000D03*
%TO.P,J9,27*%
%TO.N,/COM3-1*%
X85065000Y-50800000D03*
%TO.P,J9,26*%
%TO.N,/COM4-1*%
X82525000Y-50800000D03*
%TO.P,J9,25*%
%TO.N,/COM5-1*%
X79985000Y-50800000D03*
%TO.P,J9,24*%
%TO.N,/COM6-1*%
X77445000Y-50800000D03*
%TO.P,J9,23*%
%TO.N,/COM7-1*%
X74905000Y-50800000D03*
%TO.P,J9,22*%
%TO.N,/COM8-1*%
X72365000Y-50800000D03*
%TO.P,J9,21*%
%TO.N,/A1*%
X69825000Y-50800000D03*
%TO.P,J9,20*%
%TO.N,/B1*%
X67285000Y-50800000D03*
%TO.P,J9,19*%
%TO.N,/C1*%
X64745000Y-50800000D03*
%TO.P,J9,18*%
%TO.N,/D1*%
X62205000Y-50800000D03*
%TO.P,J9,17*%
%TO.N,/G1*%
X59665000Y-50800000D03*
%TO.P,J9,16*%
%TO.N,/F1*%
X57125000Y-50800000D03*
%TO.P,J9,15*%
%TO.N,/E1*%
X54585000Y-50800000D03*
%TO.P,J9,14*%
%TO.N,/H1*%
X52045000Y-50800000D03*
%TO.P,J9,13*%
%TO.N,/J1*%
X49505000Y-50800000D03*
%TO.P,J9,12*%
%TO.N,/K1*%
X46965000Y-50800000D03*
%TO.P,J9,11*%
%TO.N,/L1*%
X44425000Y-50800000D03*
%TO.P,J9,10*%
%TO.N,/M1*%
X41885000Y-50800000D03*
%TO.P,J9,9*%
%TO.N,/N1*%
X39345000Y-50800000D03*
%TO.P,J9,8*%
%TO.N,/P1*%
X36805000Y-50800000D03*
%TO.P,J9,7*%
%TO.N,/Q1*%
X34265000Y-50800000D03*
%TO.P,J9,6*%
%TO.N,/DP1*%
X31725000Y-50800000D03*
%TO.P,J9,5*%
%TO.N,/DOT1*%
X29185000Y-50800000D03*
%TO.P,J9,4*%
%TO.N,/COM9-1*%
X26645000Y-50800000D03*
%TO.P,J9,3*%
%TO.N,/COM10-1*%
X24105000Y-50800000D03*
%TO.P,J9,2*%
%TO.N,/COM11-1*%
X21565000Y-50800000D03*
D11*
%TO.P,J9,1*%
%TO.N,/COM12-1*%
X19025000Y-50800000D03*
%TD*%
D10*
%TO.P,J8,4*%
%TO.N,/DigInt4*%
X83820000Y-97572000D03*
%TO.P,J8,3*%
%TO.N,/DigInt3*%
X83820000Y-100112000D03*
%TO.P,J8,2*%
%TO.N,/DigInt2*%
X83820000Y-102652000D03*
D11*
%TO.P,J8,1*%
%TO.N,/DigInt1*%
X83820000Y-105192000D03*
%TD*%
D10*
%TO.P,J6,17*%
%TO.N,/GND*%
X74459000Y-147955000D03*
%TO.P,J6,16*%
X71919000Y-147955000D03*
%TO.P,J6,15*%
X69379000Y-147955000D03*
%TO.P,J6,14*%
X66839000Y-147955000D03*
%TO.P,J6,13*%
X64299000Y-147955000D03*
%TO.P,J6,12*%
X61759000Y-147955000D03*
%TO.P,J6,11*%
X59219000Y-147955000D03*
%TO.P,J6,10*%
X56679000Y-147955000D03*
%TO.P,J6,9*%
X54139000Y-147955000D03*
%TO.P,J6,8*%
X51599000Y-147955000D03*
%TO.P,J6,7*%
X49059000Y-147955000D03*
%TO.P,J6,6*%
X46519000Y-147955000D03*
%TO.P,J6,5*%
X43979000Y-147955000D03*
%TO.P,J6,4*%
X41439000Y-147955000D03*
%TO.P,J6,3*%
X38899000Y-147955000D03*
%TO.P,J6,2*%
X36359000Y-147955000D03*
D11*
%TO.P,J6,1*%
X33819000Y-147955000D03*
%TD*%
D10*
%TO.P,J4,17*%
%TO.N,/DIN12*%
X74459000Y-145415000D03*
%TO.P,J4,16*%
%TO.N,/DIN11*%
X71919000Y-145415000D03*
%TO.P,J4,15*%
%TO.N,/DIN10*%
X69379000Y-145415000D03*
%TO.P,J4,14*%
%TO.N,/DIN9*%
X66839000Y-145415000D03*
%TO.P,J4,13*%
%TO.N,/DIN8*%
X64299000Y-145415000D03*
%TO.P,J4,12*%
%TO.N,/DIN7*%
X61759000Y-145415000D03*
%TO.P,J4,11*%
%TO.N,/DIN6*%
X59219000Y-145415000D03*
%TO.P,J4,10*%
%TO.N,/DIN5*%
X56679000Y-145415000D03*
%TO.P,J4,9*%
%TO.N,/DIN4*%
X54139000Y-145415000D03*
%TO.P,J4,8*%
%TO.N,/DIN3*%
X51599000Y-145415000D03*
%TO.P,J4,7*%
%TO.N,/DIN2*%
X49059000Y-145415000D03*
%TO.P,J4,6*%
%TO.N,/DIN1*%
X46519000Y-145415000D03*
%TO.P,J4,5*%
%TO.N,/DIN13*%
X43979000Y-145415000D03*
%TO.P,J4,4*%
%TO.N,/DIN14*%
X41439000Y-145415000D03*
%TO.P,J4,3*%
%TO.N,/DIN15*%
X38899000Y-145415000D03*
%TO.P,J4,2*%
%TO.N,/DIN16*%
X36359000Y-145415000D03*
D11*
%TO.P,J4,1*%
%TO.N,/DIN17*%
X33819000Y-145415000D03*
%TD*%
D13*
%TO.P,U3,18*%
%TO.N,/COL1*%
X109855000Y-88265000D03*
%TO.P,U3,17*%
%TO.N,/Analog7*%
X109855000Y-90805000D03*
%TO.P,U3,16*%
%TO.N,/Analog6*%
X109855000Y-93345000D03*
%TO.P,U3,15*%
%TO.N,/Analog5*%
X109855000Y-95885000D03*
%TO.P,U3,14*%
%TO.N,/Analog4*%
X109855000Y-98425000D03*
%TO.P,U3,13*%
%TO.N,/Analog3*%
X109855000Y-100965000D03*
%TO.P,U3,12*%
%TO.N,/Analog2*%
X109855000Y-103505000D03*
%TO.P,U3,11*%
%TO.N,/Analog1*%
X109855000Y-106045000D03*
%TO.P,U3,10*%
%TO.N,Net-(R35-Pad2)*%
X109855000Y-108585000D03*
%TO.P,U3,4*%
%TO.N,Net-(U3-Pad4)*%
X109855000Y-111125000D03*
%TO.P,U3,3*%
%TO.N,Net-(U3-Pad3)*%
X109855000Y-113665000D03*
%TO.P,U3,2*%
%TO.N,Net-(U3-Pad2)*%
X109855000Y-116205000D03*
%TO.P,U3,1*%
%TO.N,Net-(U3-Pad1)*%
X109855000Y-118745000D03*
%TO.P,U3,19*%
%TO.N,/COL2*%
X109855000Y-85725000D03*
%TO.P,U3,21*%
%TO.N,/COL3*%
X109855000Y-83185000D03*
%TO.P,U3,22*%
%TO.N,/COL4*%
X109855000Y-80645000D03*
%TO.P,U3,7*%
%TO.N,Net-(U3-Pad7)*%
X109855000Y-78105000D03*
%TO.P,U3,47*%
%TO.N,/3.3V*%
X109855000Y-75565000D03*
%TO.P,U3,48*%
%TO.N,/GND*%
X109855000Y-73025000D03*
%TO.P,U3,49*%
X109855000Y-70485000D03*
%TO.P,U3,52*%
%TO.N,/3.3V*%
X94615000Y-118745000D03*
%TO.P,U3,51*%
%TO.N,/GND*%
X94615000Y-116205000D03*
%TO.P,U3,50*%
%TO.N,Net-(U3-Pad50)*%
X94615000Y-113665000D03*
%TO.P,U3,46*%
%TO.N,/ROW0*%
X94615000Y-111125000D03*
%TO.P,U3,45*%
%TO.N,/ROW1*%
X94615000Y-108585000D03*
%TO.P,U3,43*%
%TO.N,/ROW2*%
X94615000Y-106045000D03*
%TO.P,U3,42*%
%TO.N,/ROW3*%
X94615000Y-103505000D03*
%TO.P,U3,41*%
%TO.N,/ROW4*%
X94615000Y-100965000D03*
%TO.P,U3,40*%
%TO.N,/SRMISO*%
X94615000Y-98425000D03*
%TO.P,U3,39*%
%TO.N,/SRCLK*%
X94615000Y-95885000D03*
%TO.P,U3,38*%
%TO.N,/SRCS*%
X94615000Y-93345000D03*
%TO.P,U3,33*%
%TO.N,/DigInt1*%
X94615000Y-90805000D03*
%TO.P,U3,32*%
%TO.N,/DigInt2*%
X94615000Y-88265000D03*
%TO.P,U3,31*%
%TO.N,/DigInt3*%
X94615000Y-85725000D03*
%TO.P,U3,30*%
%TO.N,/DigInt4*%
X94615000Y-83185000D03*
%TO.P,U3,29*%
%TO.N,/DATA*%
X94615000Y-80645000D03*
%TO.P,U3,28*%
%TO.N,/WR*%
X94615000Y-78105000D03*
%TO.P,U3,27*%
%TO.N,/RD*%
X94615000Y-75565000D03*
%TO.P,U3,26*%
%TO.N,/CS2*%
X94615000Y-73025000D03*
%TO.P,U3,25*%
%TO.N,/CS1*%
X94615000Y-70485000D03*
%TD*%
%TO.P,U2,52*%
%TO.N,Net-(R30-Pad1)*%
%TA.AperFunction,SMDPad,CuDef*%
G36*
G01*
X8825000Y-91390000D02*
X7575000Y-91390000D01*
G75*
G02*
X7425000Y-91240000I0J150000D01*
G01*
X7425000Y-90940000D01*
G75*
G02*
X7575000Y-90790000I150000J0D01*
G01*
X8825000Y-90790000D01*
G75*
G02*
X8975000Y-90940000I0J-150000D01*
G01*
X8975000Y-91240000D01*
G75*
G02*
X8825000Y-91390000I-150000J0D01*
G01*
G37*
%TD.AperFunction*%
%TO.P,U2,51*%
%TO.N,Net-(R31-Pad1)*%
%TA.AperFunction,SMDPad,CuDef*%
G36*
G01*
X8825000Y-90390000D02*
X7575000Y-90390000D01*
G75*
G02*
X7425000Y-90240000I0J150000D01*
G01*
X7425000Y-89940000D01*
G75*
G02*
X7575000Y-89790000I150000J0D01*
G01*
X8825000Y-89790000D01*
G75*
G02*
X8975000Y-89940000I0J-150000D01*
G01*
X8975000Y-90240000D01*
G75*
G02*
X8825000Y-90390000I-150000J0D01*
G01*
G37*
%TD.AperFunction*%
%TO.P,U2,50*%
%TO.N,Net-(R32-Pad1)*%
%TA.AperFunction,SMDPad,CuDef*%
G36*
G01*
X8825000Y-89390000D02*
X7575000Y-89390000D01*
G75*
G02*
X7425000Y-89240000I0J150000D01*
G01*
X7425000Y-88940000D01*
G75*
G02*
X7575000Y-88790000I150000J0D01*
G01*
X8825000Y-88790000D01*
G75*
G02*
X8975000Y-88940000I0J-150000D01*
G01*
X8975000Y-89240000D01*
G75*
G02*
X8825000Y-89390000I-150000J0D01*
G01*
G37*
%TD.AperFunction*%
%TO.P,U2,49*%
%TO.N,Net-(R33-Pad1)*%
%TA.AperFunction,SMDPad,CuDef*%
G36*
G01*
X8825000Y-88390000D02*
X7575000Y-88390000D01*
G75*
G02*
X7425000Y-88240000I0J150000D01*
G01*
X7425000Y-87940000D01*
G75*
G02*
X7575000Y-87790000I150000J0D01*
G01*
X8825000Y-87790000D01*
G75*
G02*
X8975000Y-87940000I0J-150000D01*
G01*
X8975000Y-88240000D01*
G75*
G02*
X8825000Y-88390000I-150000J0D01*
G01*
G37*
%TD.AperFunction*%
%TO.P,U2,48*%
%TO.N,Net-(R34-Pad1)*%
%TA.AperFunction,SMDPad,CuDef*%
G36*
G01*
X8825000Y-87390000D02*
X7575000Y-87390000D01*
G75*
G02*
X7425000Y-87240000I0J150000D01*
G01*
X7425000Y-86940000D01*
G75*
G02*
X7575000Y-86790000I150000J0D01*
G01*
X8825000Y-86790000D01*
G75*
G02*
X8975000Y-86940000I0J-150000D01*
G01*
X8975000Y-87240000D01*
G75*
G02*
X8825000Y-87390000I-150000J0D01*
G01*
G37*
%TD.AperFunction*%
%TO.P,U2,47*%
%TO.N,Net-(U2-Pad47)*%
%TA.AperFunction,SMDPad,CuDef*%
G36*
G01*
X8825000Y-86390000D02*
X7575000Y-86390000D01*
G75*
G02*
X7425000Y-86240000I0J150000D01*
G01*
X7425000Y-85940000D01*
G75*
G02*
X7575000Y-85790000I150000J0D01*
G01*
X8825000Y-85790000D01*
G75*
G02*
X8975000Y-85940000I0J-150000D01*
G01*
X8975000Y-86240000D01*
G75*
G02*
X8825000Y-86390000I-150000J0D01*
G01*
G37*
%TD.AperFunction*%
%TO.P,U2,46*%
%TO.N,Net-(U2-Pad46)*%
%TA.AperFunction,SMDPad,CuDef*%
G36*
G01*
X8825000Y-85390000D02*
X7575000Y-85390000D01*
G75*
G02*
X7425000Y-85240000I0J150000D01*
G01*
X7425000Y-84940000D01*
G75*
G02*
X7575000Y-84790000I150000J0D01*
G01*
X8825000Y-84790000D01*
G75*
G02*
X8975000Y-84940000I0J-150000D01*
G01*
X8975000Y-85240000D01*
G75*
G02*
X8825000Y-85390000I-150000J0D01*
G01*
G37*
%TD.AperFunction*%
%TO.P,U2,45*%
%TO.N,Net-(U2-Pad45)*%
%TA.AperFunction,SMDPad,CuDef*%
G36*
G01*
X8825000Y-84390000D02*
X7575000Y-84390000D01*
G75*
G02*
X7425000Y-84240000I0J150000D01*
G01*
X7425000Y-83940000D01*
G75*
G02*
X7575000Y-83790000I150000J0D01*
G01*
X8825000Y-83790000D01*
G75*
G02*
X8975000Y-83940000I0J-150000D01*
G01*
X8975000Y-84240000D01*
G75*
G02*
X8825000Y-84390000I-150000J0D01*
G01*
G37*
%TD.AperFunction*%
%TO.P,U2,44*%
%TO.N,Net-(U2-Pad44)*%
%TA.AperFunction,SMDPad,CuDef*%
G36*
G01*
X8825000Y-83390000D02*
X7575000Y-83390000D01*
G75*
G02*
X7425000Y-83240000I0J150000D01*
G01*
X7425000Y-82940000D01*
G75*
G02*
X7575000Y-82790000I150000J0D01*
G01*
X8825000Y-82790000D01*
G75*
G02*
X8975000Y-82940000I0J-150000D01*
G01*
X8975000Y-83240000D01*
G75*
G02*
X8825000Y-83390000I-150000J0D01*
G01*
G37*
%TD.AperFunction*%
%TO.P,U2,43*%
%TO.N,Net-(U2-Pad43)*%
%TA.AperFunction,SMDPad,CuDef*%
G36*
G01*
X8825000Y-82390000D02*
X7575000Y-82390000D01*
G75*
G02*
X7425000Y-82240000I0J150000D01*
G01*
X7425000Y-81940000D01*
G75*
G02*
X7575000Y-81790000I150000J0D01*
G01*
X8825000Y-81790000D01*
G75*
G02*
X8975000Y-81940000I0J-150000D01*
G01*
X8975000Y-82240000D01*
G75*
G02*
X8825000Y-82390000I-150000J0D01*
G01*
G37*
%TD.AperFunction*%
%TO.P,U2,42*%
%TO.N,Net-(U2-Pad42)*%
%TA.AperFunction,SMDPad,CuDef*%
G36*
G01*
X8825000Y-81390000D02*
X7575000Y-81390000D01*
G75*
G02*
X7425000Y-81240000I0J150000D01*
G01*
X7425000Y-80940000D01*
G75*
G02*
X7575000Y-80790000I150000J0D01*
G01*
X8825000Y-80790000D01*
G75*
G02*
X8975000Y-80940000I0J-150000D01*
G01*
X8975000Y-81240000D01*
G75*
G02*
X8825000Y-81390000I-150000J0D01*
G01*
G37*
%TD.AperFunction*%
%TO.P,U2,41*%
%TO.N,Net-(U2-Pad41)*%
%TA.AperFunction,SMDPad,CuDef*%
G36*
G01*
X8825000Y-80390000D02*
X7575000Y-80390000D01*
G75*
G02*
X7425000Y-80240000I0J150000D01*
G01*
X7425000Y-79940000D01*
G75*
G02*
X7575000Y-79790000I150000J0D01*
G01*
X8825000Y-79790000D01*
G75*
G02*
X8975000Y-79940000I0J-150000D01*
G01*
X8975000Y-80240000D01*
G75*
G02*
X8825000Y-80390000I-150000J0D01*
G01*
G37*
%TD.AperFunction*%
%TO.P,U2,40*%
%TO.N,/COM15-2*%
%TA.AperFunction,SMDPad,CuDef*%
G36*
G01*
X8825000Y-79390000D02*
X7575000Y-79390000D01*
G75*
G02*
X7425000Y-79240000I0J150000D01*
G01*
X7425000Y-78940000D01*
G75*
G02*
X7575000Y-78790000I150000J0D01*
G01*
X8825000Y-78790000D01*
G75*
G02*
X8975000Y-78940000I0J-150000D01*
G01*
X8975000Y-79240000D01*
G75*
G02*
X8825000Y-79390000I-150000J0D01*
G01*
G37*
%TD.AperFunction*%
%TO.P,U2,39*%
%TO.N,/COM14-2*%
%TA.AperFunction,SMDPad,CuDef*%
G36*
G01*
X10025000Y-78190000D02*
X9725000Y-78190000D01*
G75*
G02*
X9575000Y-78040000I0J150000D01*
G01*
X9575000Y-76790000D01*
G75*
G02*
X9725000Y-76640000I150000J0D01*
G01*
X10025000Y-76640000D01*
G75*
G02*
X10175000Y-76790000I0J-150000D01*
G01*
X10175000Y-78040000D01*
G75*
G02*
X10025000Y-78190000I-150000J0D01*
G01*
G37*
%TD.AperFunction*%
%TO.P,U2,38*%
%TO.N,/3.3V*%
%TA.AperFunction,SMDPad,CuDef*%
G36*
G01*
X11025000Y-78190000D02*
X10725000Y-78190000D01*
G75*
G02*
X10575000Y-78040000I0J150000D01*
G01*
X10575000Y-76790000D01*
G75*
G02*
X10725000Y-76640000I150000J0D01*
G01*
X11025000Y-76640000D01*
G75*
G02*
X11175000Y-76790000I0J-150000D01*
G01*
X11175000Y-78040000D01*
G75*
G02*
X11025000Y-78190000I-150000J0D01*
G01*
G37*
%TD.AperFunction*%
%TO.P,U2,37*%
%TO.N,/COM13-2*%
%TA.AperFunction,SMDPad,CuDef*%
G36*
G01*
X12025000Y-78190000D02*
X11725000Y-78190000D01*
G75*
G02*
X11575000Y-78040000I0J150000D01*
G01*
X11575000Y-76790000D01*
G75*
G02*
X11725000Y-76640000I150000J0D01*
G01*
X12025000Y-76640000D01*
G75*
G02*
X12175000Y-76790000I0J-150000D01*
G01*
X12175000Y-78040000D01*
G75*
G02*
X12025000Y-78190000I-150000J0D01*
G01*
G37*
%TD.AperFunction*%
%TO.P,U2,36*%
%TO.N,/GND*%
%TA.AperFunction,SMDPad,CuDef*%
G36*
G01*
X13025000Y-78190000D02*
X12725000Y-78190000D01*
G75*
G02*
X12575000Y-78040000I0J150000D01*
G01*
X12575000Y-76790000D01*
G75*
G02*
X12725000Y-76640000I150000J0D01*
G01*
X13025000Y-76640000D01*
G75*
G02*
X13175000Y-76790000I0J-150000D01*
G01*
X13175000Y-78040000D01*
G75*
G02*
X13025000Y-78190000I-150000J0D01*
G01*
G37*
%TD.AperFunction*%
%TO.P,U2,35*%
%TO.N,/COM12-2*%
%TA.AperFunction,SMDPad,CuDef*%
G36*
G01*
X14025000Y-78190000D02*
X13725000Y-78190000D01*
G75*
G02*
X13575000Y-78040000I0J150000D01*
G01*
X13575000Y-76790000D01*
G75*
G02*
X13725000Y-76640000I150000J0D01*
G01*
X14025000Y-76640000D01*
G75*
G02*
X14175000Y-76790000I0J-150000D01*
G01*
X14175000Y-78040000D01*
G75*
G02*
X14025000Y-78190000I-150000J0D01*
G01*
G37*
%TD.AperFunction*%
%TO.P,U2,34*%
%TO.N,/COM11-2*%
%TA.AperFunction,SMDPad,CuDef*%
G36*
G01*
X15025000Y-78190000D02*
X14725000Y-78190000D01*
G75*
G02*
X14575000Y-78040000I0J150000D01*
G01*
X14575000Y-76790000D01*
G75*
G02*
X14725000Y-76640000I150000J0D01*
G01*
X15025000Y-76640000D01*
G75*
G02*
X15175000Y-76790000I0J-150000D01*
G01*
X15175000Y-78040000D01*
G75*
G02*
X15025000Y-78190000I-150000J0D01*
G01*
G37*
%TD.AperFunction*%
%TO.P,U2,33*%
%TO.N,/COM10-2*%
%TA.AperFunction,SMDPad,CuDef*%
G36*
G01*
X16025000Y-78190000D02*
X15725000Y-78190000D01*
G75*
G02*
X15575000Y-78040000I0J150000D01*
G01*
X15575000Y-76790000D01*
G75*
G02*
X15725000Y-76640000I150000J0D01*
G01*
X16025000Y-76640000D01*
G75*
G02*
X16175000Y-76790000I0J-150000D01*
G01*
X16175000Y-78040000D01*
G75*
G02*
X16025000Y-78190000I-150000J0D01*
G01*
G37*
%TD.AperFunction*%
%TO.P,U2,32*%
%TO.N,/COM9-2*%
%TA.AperFunction,SMDPad,CuDef*%
G36*
G01*
X17025000Y-78190000D02*
X16725000Y-78190000D01*
G75*
G02*
X16575000Y-78040000I0J150000D01*
G01*
X16575000Y-76790000D01*
G75*
G02*
X16725000Y-76640000I150000J0D01*
G01*
X17025000Y-76640000D01*
G75*
G02*
X17175000Y-76790000I0J-150000D01*
G01*
X17175000Y-78040000D01*
G75*
G02*
X17025000Y-78190000I-150000J0D01*
G01*
G37*
%TD.AperFunction*%
%TO.P,U2,31*%
%TO.N,/COM8-2*%
%TA.AperFunction,SMDPad,CuDef*%
G36*
G01*
X18025000Y-78190000D02*
X17725000Y-78190000D01*
G75*
G02*
X17575000Y-78040000I0J150000D01*
G01*
X17575000Y-76790000D01*
G75*
G02*
X17725000Y-76640000I150000J0D01*
G01*
X18025000Y-76640000D01*
G75*
G02*
X18175000Y-76790000I0J-150000D01*
G01*
X18175000Y-78040000D01*
G75*
G02*
X18025000Y-78190000I-150000J0D01*
G01*
G37*
%TD.AperFunction*%
%TO.P,U2,30*%
%TO.N,/COM7-2*%
%TA.AperFunction,SMDPad,CuDef*%
G36*
G01*
X19025000Y-78190000D02*
X18725000Y-78190000D01*
G75*
G02*
X18575000Y-78040000I0J150000D01*
G01*
X18575000Y-76790000D01*
G75*
G02*
X18725000Y-76640000I150000J0D01*
G01*
X19025000Y-76640000D01*
G75*
G02*
X19175000Y-76790000I0J-150000D01*
G01*
X19175000Y-78040000D01*
G75*
G02*
X19025000Y-78190000I-150000J0D01*
G01*
G37*
%TD.AperFunction*%
%TO.P,U2,29*%
%TO.N,/COM6-2*%
%TA.AperFunction,SMDPad,CuDef*%
G36*
G01*
X20025000Y-78190000D02*
X19725000Y-78190000D01*
G75*
G02*
X19575000Y-78040000I0J150000D01*
G01*
X19575000Y-76790000D01*
G75*
G02*
X19725000Y-76640000I150000J0D01*
G01*
X20025000Y-76640000D01*
G75*
G02*
X20175000Y-76790000I0J-150000D01*
G01*
X20175000Y-78040000D01*
G75*
G02*
X20025000Y-78190000I-150000J0D01*
G01*
G37*
%TD.AperFunction*%
%TO.P,U2,28*%
%TO.N,/COM5-2*%
%TA.AperFunction,SMDPad,CuDef*%
G36*
G01*
X21025000Y-78190000D02*
X20725000Y-78190000D01*
G75*
G02*
X20575000Y-78040000I0J150000D01*
G01*
X20575000Y-76790000D01*
G75*
G02*
X20725000Y-76640000I150000J0D01*
G01*
X21025000Y-76640000D01*
G75*
G02*
X21175000Y-76790000I0J-150000D01*
G01*
X21175000Y-78040000D01*
G75*
G02*
X21025000Y-78190000I-150000J0D01*
G01*
G37*
%TD.AperFunction*%
%TO.P,U2,27*%
%TO.N,/COM4-2*%
%TA.AperFunction,SMDPad,CuDef*%
G36*
G01*
X22025000Y-78190000D02*
X21725000Y-78190000D01*
G75*
G02*
X21575000Y-78040000I0J150000D01*
G01*
X21575000Y-76790000D01*
G75*
G02*
X21725000Y-76640000I150000J0D01*
G01*
X22025000Y-76640000D01*
G75*
G02*
X22175000Y-76790000I0J-150000D01*
G01*
X22175000Y-78040000D01*
G75*
G02*
X22025000Y-78190000I-150000J0D01*
G01*
G37*
%TD.AperFunction*%
%TO.P,U2,26*%
%TO.N,/COM3-2*%
%TA.AperFunction,SMDPad,CuDef*%
G36*
G01*
X24175000Y-79390000D02*
X22925000Y-79390000D01*
G75*
G02*
X22775000Y-79240000I0J150000D01*
G01*
X22775000Y-78940000D01*
G75*
G02*
X22925000Y-78790000I150000J0D01*
G01*
X24175000Y-78790000D01*
G75*
G02*
X24325000Y-78940000I0J-150000D01*
G01*
X24325000Y-79240000D01*
G75*
G02*
X24175000Y-79390000I-150000J0D01*
G01*
G37*
%TD.AperFunction*%
%TO.P,U2,25*%
%TO.N,/GND*%
%TA.AperFunction,SMDPad,CuDef*%
G36*
G01*
X24175000Y-80390000D02*
X22925000Y-80390000D01*
G75*
G02*
X22775000Y-80240000I0J150000D01*
G01*
X22775000Y-79940000D01*
G75*
G02*
X22925000Y-79790000I150000J0D01*
G01*
X24175000Y-79790000D01*
G75*
G02*
X24325000Y-79940000I0J-150000D01*
G01*
X24325000Y-80240000D01*
G75*
G02*
X24175000Y-80390000I-150000J0D01*
G01*
G37*
%TD.AperFunction*%
%TO.P,U2,24*%
%TO.N,/COM2-2*%
%TA.AperFunction,SMDPad,CuDef*%
G36*
G01*
X24175000Y-81390000D02*
X22925000Y-81390000D01*
G75*
G02*
X22775000Y-81240000I0J150000D01*
G01*
X22775000Y-80940000D01*
G75*
G02*
X22925000Y-80790000I150000J0D01*
G01*
X24175000Y-80790000D01*
G75*
G02*
X24325000Y-80940000I0J-150000D01*
G01*
X24325000Y-81240000D01*
G75*
G02*
X24175000Y-81390000I-150000J0D01*
G01*
G37*
%TD.AperFunction*%
%TO.P,U2,23*%
%TO.N,/COM1-2*%
%TA.AperFunction,SMDPad,CuDef*%
G36*
G01*
X24175000Y-82390000D02*
X22925000Y-82390000D01*
G75*
G02*
X22775000Y-82240000I0J150000D01*
G01*
X22775000Y-81940000D01*
G75*
G02*
X22925000Y-81790000I150000J0D01*
G01*
X24175000Y-81790000D01*
G75*
G02*
X24325000Y-81940000I0J-150000D01*
G01*
X24325000Y-82240000D01*
G75*
G02*
X24175000Y-82390000I-150000J0D01*
G01*
G37*
%TD.AperFunction*%
%TO.P,U2,22*%
%TO.N,/COM0-2*%
%TA.AperFunction,SMDPad,CuDef*%
G36*
G01*
X24175000Y-83390000D02*
X22925000Y-83390000D01*
G75*
G02*
X22775000Y-83240000I0J150000D01*
G01*
X22775000Y-82940000D01*
G75*
G02*
X22925000Y-82790000I150000J0D01*
G01*
X24175000Y-82790000D01*
G75*
G02*
X24325000Y-82940000I0J-150000D01*
G01*
X24325000Y-83240000D01*
G75*
G02*
X24175000Y-83390000I-150000J0D01*
G01*
G37*
%TD.AperFunction*%
%TO.P,U2,21*%
%TO.N,/3.3V*%
%TA.AperFunction,SMDPad,CuDef*%
G36*
G01*
X24175000Y-84390000D02*
X22925000Y-84390000D01*
G75*
G02*
X22775000Y-84240000I0J150000D01*
G01*
X22775000Y-83940000D01*
G75*
G02*
X22925000Y-83790000I150000J0D01*
G01*
X24175000Y-83790000D01*
G75*
G02*
X24325000Y-83940000I0J-150000D01*
G01*
X24325000Y-84240000D01*
G75*
G02*
X24175000Y-84390000I-150000J0D01*
G01*
G37*
%TD.AperFunction*%
%TO.P,U2,20*%
%TO.N,/SYNC*%
%TA.AperFunction,SMDPad,CuDef*%
G36*
G01*
X24175000Y-85390000D02*
X22925000Y-85390000D01*
G75*
G02*
X22775000Y-85240000I0J150000D01*
G01*
X22775000Y-84940000D01*
G75*
G02*
X22925000Y-84790000I150000J0D01*
G01*
X24175000Y-84790000D01*
G75*
G02*
X24325000Y-84940000I0J-150000D01*
G01*
X24325000Y-85240000D01*
G75*
G02*
X24175000Y-85390000I-150000J0D01*
G01*
G37*
%TD.AperFunction*%
%TO.P,U2,19*%
%TO.N,/CS2*%
%TA.AperFunction,SMDPad,CuDef*%
G36*
G01*
X24175000Y-86390000D02*
X22925000Y-86390000D01*
G75*
G02*
X22775000Y-86240000I0J150000D01*
G01*
X22775000Y-85940000D01*
G75*
G02*
X22925000Y-85790000I150000J0D01*
G01*
X24175000Y-85790000D01*
G75*
G02*
X24325000Y-85940000I0J-150000D01*
G01*
X24325000Y-86240000D01*
G75*
G02*
X24175000Y-86390000I-150000J0D01*
G01*
G37*
%TD.AperFunction*%
%TO.P,U2,18*%
%TO.N,/RD*%
%TA.AperFunction,SMDPad,CuDef*%
G36*
G01*
X24175000Y-87390000D02*
X22925000Y-87390000D01*
G75*
G02*
X22775000Y-87240000I0J150000D01*
G01*
X22775000Y-86940000D01*
G75*
G02*
X22925000Y-86790000I150000J0D01*
G01*
X24175000Y-86790000D01*
G75*
G02*
X24325000Y-86940000I0J-150000D01*
G01*
X24325000Y-87240000D01*
G75*
G02*
X24175000Y-87390000I-150000J0D01*
G01*
G37*
%TD.AperFunction*%
%TO.P,U2,17*%
%TO.N,/WR*%
%TA.AperFunction,SMDPad,CuDef*%
G36*
G01*
X24175000Y-88390000D02*
X22925000Y-88390000D01*
G75*
G02*
X22775000Y-88240000I0J150000D01*
G01*
X22775000Y-87940000D01*
G75*
G02*
X22925000Y-87790000I150000J0D01*
G01*
X24175000Y-87790000D01*
G75*
G02*
X24325000Y-87940000I0J-150000D01*
G01*
X24325000Y-88240000D01*
G75*
G02*
X24175000Y-88390000I-150000J0D01*
G01*
G37*
%TD.AperFunction*%
%TO.P,U2,16*%
%TO.N,/DATA*%
%TA.AperFunction,SMDPad,CuDef*%
G36*
G01*
X24175000Y-89390000D02*
X22925000Y-89390000D01*
G75*
G02*
X22775000Y-89240000I0J150000D01*
G01*
X22775000Y-88940000D01*
G75*
G02*
X22925000Y-88790000I150000J0D01*
G01*
X24175000Y-88790000D01*
G75*
G02*
X24325000Y-88940000I0J-150000D01*
G01*
X24325000Y-89240000D01*
G75*
G02*
X24175000Y-89390000I-150000J0D01*
G01*
G37*
%TD.AperFunction*%
%TO.P,U2,15*%
%TO.N,/OSC*%
%TA.AperFunction,SMDPad,CuDef*%
G36*
G01*
X24175000Y-90390000D02*
X22925000Y-90390000D01*
G75*
G02*
X22775000Y-90240000I0J150000D01*
G01*
X22775000Y-89940000D01*
G75*
G02*
X22925000Y-89790000I150000J0D01*
G01*
X24175000Y-89790000D01*
G75*
G02*
X24325000Y-89940000I0J-150000D01*
G01*
X24325000Y-90240000D01*
G75*
G02*
X24175000Y-90390000I-150000J0D01*
G01*
G37*
%TD.AperFunction*%
%TO.P,U2,14*%
%TO.N,/GND*%
%TA.AperFunction,SMDPad,CuDef*%
G36*
G01*
X24175000Y-91390000D02*
X22925000Y-91390000D01*
G75*
G02*
X22775000Y-91240000I0J150000D01*
G01*
X22775000Y-90940000D01*
G75*
G02*
X22925000Y-90790000I150000J0D01*
G01*
X24175000Y-90790000D01*
G75*
G02*
X24325000Y-90940000I0J-150000D01*
G01*
X24325000Y-91240000D01*
G75*
G02*
X24175000Y-91390000I-150000J0D01*
G01*
G37*
%TD.AperFunction*%
%TO.P,U2,13*%
%TO.N,Net-(R18-Pad1)*%
%TA.AperFunction,SMDPad,CuDef*%
G36*
G01*
X22025000Y-93540000D02*
X21725000Y-93540000D01*
G75*
G02*
X21575000Y-93390000I0J150000D01*
G01*
X21575000Y-92140000D01*
G75*
G02*
X21725000Y-91990000I150000J0D01*
G01*
X22025000Y-91990000D01*
G75*
G02*
X22175000Y-92140000I0J-150000D01*
G01*
X22175000Y-93390000D01*
G75*
G02*
X22025000Y-93540000I-150000J0D01*
G01*
G37*
%TD.AperFunction*%
%TO.P,U2,12*%
%TO.N,Net-(R19-Pad1)*%
%TA.AperFunction,SMDPad,CuDef*%
G36*
G01*
X21025000Y-93540000D02*
X20725000Y-93540000D01*
G75*
G02*
X20575000Y-93390000I0J150000D01*
G01*
X20575000Y-92140000D01*
G75*
G02*
X20725000Y-91990000I150000J0D01*
G01*
X21025000Y-91990000D01*
G75*
G02*
X21175000Y-92140000I0J-150000D01*
G01*
X21175000Y-93390000D01*
G75*
G02*
X21025000Y-93540000I-150000J0D01*
G01*
G37*
%TD.AperFunction*%
%TO.P,U2,11*%
%TO.N,Net-(R20-Pad1)*%
%TA.AperFunction,SMDPad,CuDef*%
G36*
G01*
X20025000Y-93540000D02*
X19725000Y-93540000D01*
G75*
G02*
X19575000Y-93390000I0J150000D01*
G01*
X19575000Y-92140000D01*
G75*
G02*
X19725000Y-91990000I150000J0D01*
G01*
X20025000Y-91990000D01*
G75*
G02*
X20175000Y-92140000I0J-150000D01*
G01*
X20175000Y-93390000D01*
G75*
G02*
X20025000Y-93540000I-150000J0D01*
G01*
G37*
%TD.AperFunction*%
%TO.P,U2,10*%
%TO.N,Net-(R21-Pad1)*%
%TA.AperFunction,SMDPad,CuDef*%
G36*
G01*
X19025000Y-93540000D02*
X18725000Y-93540000D01*
G75*
G02*
X18575000Y-93390000I0J150000D01*
G01*
X18575000Y-92140000D01*
G75*
G02*
X18725000Y-91990000I150000J0D01*
G01*
X19025000Y-91990000D01*
G75*
G02*
X19175000Y-92140000I0J-150000D01*
G01*
X19175000Y-93390000D01*
G75*
G02*
X19025000Y-93540000I-150000J0D01*
G01*
G37*
%TD.AperFunction*%
%TO.P,U2,9*%
%TO.N,Net-(R22-Pad1)*%
%TA.AperFunction,SMDPad,CuDef*%
G36*
G01*
X18025000Y-93540000D02*
X17725000Y-93540000D01*
G75*
G02*
X17575000Y-93390000I0J150000D01*
G01*
X17575000Y-92140000D01*
G75*
G02*
X17725000Y-91990000I150000J0D01*
G01*
X18025000Y-91990000D01*
G75*
G02*
X18175000Y-92140000I0J-150000D01*
G01*
X18175000Y-93390000D01*
G75*
G02*
X18025000Y-93540000I-150000J0D01*
G01*
G37*
%TD.AperFunction*%
%TO.P,U2,8*%
%TO.N,Net-(R23-Pad1)*%
%TA.AperFunction,SMDPad,CuDef*%
G36*
G01*
X17025000Y-93540000D02*
X16725000Y-93540000D01*
G75*
G02*
X16575000Y-93390000I0J150000D01*
G01*
X16575000Y-92140000D01*
G75*
G02*
X16725000Y-91990000I150000J0D01*
G01*
X17025000Y-91990000D01*
G75*
G02*
X17175000Y-92140000I0J-150000D01*
G01*
X17175000Y-93390000D01*
G75*
G02*
X17025000Y-93540000I-150000J0D01*
G01*
G37*
%TD.AperFunction*%
%TO.P,U2,7*%
%TO.N,/3.3V*%
%TA.AperFunction,SMDPad,CuDef*%
G36*
G01*
X16025000Y-93540000D02*
X15725000Y-93540000D01*
G75*
G02*
X15575000Y-93390000I0J150000D01*
G01*
X15575000Y-92140000D01*
G75*
G02*
X15725000Y-91990000I150000J0D01*
G01*
X16025000Y-91990000D01*
G75*
G02*
X16175000Y-92140000I0J-150000D01*
G01*
X16175000Y-93390000D01*
G75*
G02*
X16025000Y-93540000I-150000J0D01*
G01*
G37*
%TD.AperFunction*%
%TO.P,U2,6*%
%TO.N,Net-(R24-Pad1)*%
%TA.AperFunction,SMDPad,CuDef*%
G36*
G01*
X15025000Y-93540000D02*
X14725000Y-93540000D01*
G75*
G02*
X14575000Y-93390000I0J150000D01*
G01*
X14575000Y-92140000D01*
G75*
G02*
X14725000Y-91990000I150000J0D01*
G01*
X15025000Y-91990000D01*
G75*
G02*
X15175000Y-92140000I0J-150000D01*
G01*
X15175000Y-93390000D01*
G75*
G02*
X15025000Y-93540000I-150000J0D01*
G01*
G37*
%TD.AperFunction*%
%TO.P,U2,5*%
%TO.N,Net-(R25-Pad1)*%
%TA.AperFunction,SMDPad,CuDef*%
G36*
G01*
X14025000Y-93540000D02*
X13725000Y-93540000D01*
G75*
G02*
X13575000Y-93390000I0J150000D01*
G01*
X13575000Y-92140000D01*
G75*
G02*
X13725000Y-91990000I150000J0D01*
G01*
X14025000Y-91990000D01*
G75*
G02*
X14175000Y-92140000I0J-150000D01*
G01*
X14175000Y-93390000D01*
G75*
G02*
X14025000Y-93540000I-150000J0D01*
G01*
G37*
%TD.AperFunction*%
%TO.P,U2,4*%
%TO.N,Net-(R26-Pad1)*%
%TA.AperFunction,SMDPad,CuDef*%
G36*
G01*
X13025000Y-93540000D02*
X12725000Y-93540000D01*
G75*
G02*
X12575000Y-93390000I0J150000D01*
G01*
X12575000Y-92140000D01*
G75*
G02*
X12725000Y-91990000I150000J0D01*
G01*
X13025000Y-91990000D01*
G75*
G02*
X13175000Y-92140000I0J-150000D01*
G01*
X13175000Y-93390000D01*
G75*
G02*
X13025000Y-93540000I-150000J0D01*
G01*
G37*
%TD.AperFunction*%
%TO.P,U2,3*%
%TO.N,Net-(R27-Pad1)*%
%TA.AperFunction,SMDPad,CuDef*%
G36*
G01*
X12025000Y-93540000D02*
X11725000Y-93540000D01*
G75*
G02*
X11575000Y-93390000I0J150000D01*
G01*
X11575000Y-92140000D01*
G75*
G02*
X11725000Y-91990000I150000J0D01*
G01*
X12025000Y-91990000D01*
G75*
G02*
X12175000Y-92140000I0J-150000D01*
G01*
X12175000Y-93390000D01*
G75*
G02*
X12025000Y-93540000I-150000J0D01*
G01*
G37*
%TD.AperFunction*%
%TO.P,U2,2*%
%TO.N,Net-(R28-Pad1)*%
%TA.AperFunction,SMDPad,CuDef*%
G36*
G01*
X11025000Y-93540000D02*
X10725000Y-93540000D01*
G75*
G02*
X10575000Y-93390000I0J150000D01*
G01*
X10575000Y-92140000D01*
G75*
G02*
X10725000Y-91990000I150000J0D01*
G01*
X11025000Y-91990000D01*
G75*
G02*
X11175000Y-92140000I0J-150000D01*
G01*
X11175000Y-93390000D01*
G75*
G02*
X11025000Y-93540000I-150000J0D01*
G01*
G37*
%TD.AperFunction*%
%TO.P,U2,1*%
%TO.N,Net-(R29-Pad1)*%
%TA.AperFunction,SMDPad,CuDef*%
G36*
G01*
X10025000Y-93540000D02*
X9725000Y-93540000D01*
G75*
G02*
X9575000Y-93390000I0J150000D01*
G01*
X9575000Y-92140000D01*
G75*
G02*
X9725000Y-91990000I150000J0D01*
G01*
X10025000Y-91990000D01*
G75*
G02*
X10175000Y-92140000I0J-150000D01*
G01*
X10175000Y-93390000D01*
G75*
G02*
X10025000Y-93540000I-150000J0D01*
G01*
G37*
%TD.AperFunction*%
%TD*%
%TO.P,U1,52*%
%TO.N,Net-(R13-Pad1)*%
%TA.AperFunction,SMDPad,CuDef*%
G36*
G01*
X61660000Y-74853000D02*
X62910000Y-74853000D01*
G75*
G02*
X63060000Y-75003000I0J-150000D01*
G01*
X63060000Y-75303000D01*
G75*
G02*
X62910000Y-75453000I-150000J0D01*
G01*
X61660000Y-75453000D01*
G75*
G02*
X61510000Y-75303000I0J150000D01*
G01*
X61510000Y-75003000D01*
G75*
G02*
X61660000Y-74853000I150000J0D01*
G01*
G37*
%TD.AperFunction*%
%TO.P,U1,51*%
%TO.N,Net-(R14-Pad1)*%
%TA.AperFunction,SMDPad,CuDef*%
G36*
G01*
X61660000Y-75853000D02*
X62910000Y-75853000D01*
G75*
G02*
X63060000Y-76003000I0J-150000D01*
G01*
X63060000Y-76303000D01*
G75*
G02*
X62910000Y-76453000I-150000J0D01*
G01*
X61660000Y-76453000D01*
G75*
G02*
X61510000Y-76303000I0J150000D01*
G01*
X61510000Y-76003000D01*
G75*
G02*
X61660000Y-75853000I150000J0D01*
G01*
G37*
%TD.AperFunction*%
%TO.P,U1,50*%
%TO.N,Net-(R15-Pad1)*%
%TA.AperFunction,SMDPad,CuDef*%
G36*
G01*
X61660000Y-76853000D02*
X62910000Y-76853000D01*
G75*
G02*
X63060000Y-77003000I0J-150000D01*
G01*
X63060000Y-77303000D01*
G75*
G02*
X62910000Y-77453000I-150000J0D01*
G01*
X61660000Y-77453000D01*
G75*
G02*
X61510000Y-77303000I0J150000D01*
G01*
X61510000Y-77003000D01*
G75*
G02*
X61660000Y-76853000I150000J0D01*
G01*
G37*
%TD.AperFunction*%
%TO.P,U1,49*%
%TO.N,Net-(R16-Pad1)*%
%TA.AperFunction,SMDPad,CuDef*%
G36*
G01*
X61660000Y-77853000D02*
X62910000Y-77853000D01*
G75*
G02*
X63060000Y-78003000I0J-150000D01*
G01*
X63060000Y-78303000D01*
G75*
G02*
X62910000Y-78453000I-150000J0D01*
G01*
X61660000Y-78453000D01*
G75*
G02*
X61510000Y-78303000I0J150000D01*
G01*
X61510000Y-78003000D01*
G75*
G02*
X61660000Y-77853000I150000J0D01*
G01*
G37*
%TD.AperFunction*%
%TO.P,U1,48*%
%TO.N,Net-(R17-Pad1)*%
%TA.AperFunction,SMDPad,CuDef*%
G36*
G01*
X61660000Y-78853000D02*
X62910000Y-78853000D01*
G75*
G02*
X63060000Y-79003000I0J-150000D01*
G01*
X63060000Y-79303000D01*
G75*
G02*
X62910000Y-79453000I-150000J0D01*
G01*
X61660000Y-79453000D01*
G75*
G02*
X61510000Y-79303000I0J150000D01*
G01*
X61510000Y-79003000D01*
G75*
G02*
X61660000Y-78853000I150000J0D01*
G01*
G37*
%TD.AperFunction*%
%TO.P,U1,47*%
%TO.N,Net-(U1-Pad47)*%
%TA.AperFunction,SMDPad,CuDef*%
G36*
G01*
X61660000Y-79853000D02*
X62910000Y-79853000D01*
G75*
G02*
X63060000Y-80003000I0J-150000D01*
G01*
X63060000Y-80303000D01*
G75*
G02*
X62910000Y-80453000I-150000J0D01*
G01*
X61660000Y-80453000D01*
G75*
G02*
X61510000Y-80303000I0J150000D01*
G01*
X61510000Y-80003000D01*
G75*
G02*
X61660000Y-79853000I150000J0D01*
G01*
G37*
%TD.AperFunction*%
%TO.P,U1,46*%
%TO.N,Net-(U1-Pad46)*%
%TA.AperFunction,SMDPad,CuDef*%
G36*
G01*
X61660000Y-80853000D02*
X62910000Y-80853000D01*
G75*
G02*
X63060000Y-81003000I0J-150000D01*
G01*
X63060000Y-81303000D01*
G75*
G02*
X62910000Y-81453000I-150000J0D01*
G01*
X61660000Y-81453000D01*
G75*
G02*
X61510000Y-81303000I0J150000D01*
G01*
X61510000Y-81003000D01*
G75*
G02*
X61660000Y-80853000I150000J0D01*
G01*
G37*
%TD.AperFunction*%
%TO.P,U1,45*%
%TO.N,Net-(U1-Pad45)*%
%TA.AperFunction,SMDPad,CuDef*%
G36*
G01*
X61660000Y-81853000D02*
X62910000Y-81853000D01*
G75*
G02*
X63060000Y-82003000I0J-150000D01*
G01*
X63060000Y-82303000D01*
G75*
G02*
X62910000Y-82453000I-150000J0D01*
G01*
X61660000Y-82453000D01*
G75*
G02*
X61510000Y-82303000I0J150000D01*
G01*
X61510000Y-82003000D01*
G75*
G02*
X61660000Y-81853000I150000J0D01*
G01*
G37*
%TD.AperFunction*%
%TO.P,U1,44*%
%TO.N,Net-(U1-Pad44)*%
%TA.AperFunction,SMDPad,CuDef*%
G36*
G01*
X61660000Y-82853000D02*
X62910000Y-82853000D01*
G75*
G02*
X63060000Y-83003000I0J-150000D01*
G01*
X63060000Y-83303000D01*
G75*
G02*
X62910000Y-83453000I-150000J0D01*
G01*
X61660000Y-83453000D01*
G75*
G02*
X61510000Y-83303000I0J150000D01*
G01*
X61510000Y-83003000D01*
G75*
G02*
X61660000Y-82853000I150000J0D01*
G01*
G37*
%TD.AperFunction*%
%TO.P,U1,43*%
%TO.N,Net-(U1-Pad43)*%
%TA.AperFunction,SMDPad,CuDef*%
G36*
G01*
X61660000Y-83853000D02*
X62910000Y-83853000D01*
G75*
G02*
X63060000Y-84003000I0J-150000D01*
G01*
X63060000Y-84303000D01*
G75*
G02*
X62910000Y-84453000I-150000J0D01*
G01*
X61660000Y-84453000D01*
G75*
G02*
X61510000Y-84303000I0J150000D01*
G01*
X61510000Y-84003000D01*
G75*
G02*
X61660000Y-83853000I150000J0D01*
G01*
G37*
%TD.AperFunction*%
%TO.P,U1,42*%
%TO.N,Net-(U1-Pad42)*%
%TA.AperFunction,SMDPad,CuDef*%
G36*
G01*
X61660000Y-84853000D02*
X62910000Y-84853000D01*
G75*
G02*
X63060000Y-85003000I0J-150000D01*
G01*
X63060000Y-85303000D01*
G75*
G02*
X62910000Y-85453000I-150000J0D01*
G01*
X61660000Y-85453000D01*
G75*
G02*
X61510000Y-85303000I0J150000D01*
G01*
X61510000Y-85003000D01*
G75*
G02*
X61660000Y-84853000I150000J0D01*
G01*
G37*
%TD.AperFunction*%
%TO.P,U1,41*%
%TO.N,Net-(U1-Pad41)*%
%TA.AperFunction,SMDPad,CuDef*%
G36*
G01*
X61660000Y-85853000D02*
X62910000Y-85853000D01*
G75*
G02*
X63060000Y-86003000I0J-150000D01*
G01*
X63060000Y-86303000D01*
G75*
G02*
X62910000Y-86453000I-150000J0D01*
G01*
X61660000Y-86453000D01*
G75*
G02*
X61510000Y-86303000I0J150000D01*
G01*
X61510000Y-86003000D01*
G75*
G02*
X61660000Y-85853000I150000J0D01*
G01*
G37*
%TD.AperFunction*%
%TO.P,U1,40*%
%TO.N,/COM15-1*%
%TA.AperFunction,SMDPad,CuDef*%
G36*
G01*
X61660000Y-86853000D02*
X62910000Y-86853000D01*
G75*
G02*
X63060000Y-87003000I0J-150000D01*
G01*
X63060000Y-87303000D01*
G75*
G02*
X62910000Y-87453000I-150000J0D01*
G01*
X61660000Y-87453000D01*
G75*
G02*
X61510000Y-87303000I0J150000D01*
G01*
X61510000Y-87003000D01*
G75*
G02*
X61660000Y-86853000I150000J0D01*
G01*
G37*
%TD.AperFunction*%
%TO.P,U1,39*%
%TO.N,/COM14-1*%
%TA.AperFunction,SMDPad,CuDef*%
G36*
G01*
X60460000Y-88053000D02*
X60760000Y-88053000D01*
G75*
G02*
X60910000Y-88203000I0J-150000D01*
G01*
X60910000Y-89453000D01*
G75*
G02*
X60760000Y-89603000I-150000J0D01*
G01*
X60460000Y-89603000D01*
G75*
G02*
X60310000Y-89453000I0J150000D01*
G01*
X60310000Y-88203000D01*
G75*
G02*
X60460000Y-88053000I150000J0D01*
G01*
G37*
%TD.AperFunction*%
%TO.P,U1,38*%
%TO.N,/3.3V*%
%TA.AperFunction,SMDPad,CuDef*%
G36*
G01*
X59460000Y-88053000D02*
X59760000Y-88053000D01*
G75*
G02*
X59910000Y-88203000I0J-150000D01*
G01*
X59910000Y-89453000D01*
G75*
G02*
X59760000Y-89603000I-150000J0D01*
G01*
X59460000Y-89603000D01*
G75*
G02*
X59310000Y-89453000I0J150000D01*
G01*
X59310000Y-88203000D01*
G75*
G02*
X59460000Y-88053000I150000J0D01*
G01*
G37*
%TD.AperFunction*%
%TO.P,U1,37*%
%TO.N,/COM13-1*%
%TA.AperFunction,SMDPad,CuDef*%
G36*
G01*
X58460000Y-88053000D02*
X58760000Y-88053000D01*
G75*
G02*
X58910000Y-88203000I0J-150000D01*
G01*
X58910000Y-89453000D01*
G75*
G02*
X58760000Y-89603000I-150000J0D01*
G01*
X58460000Y-89603000D01*
G75*
G02*
X58310000Y-89453000I0J150000D01*
G01*
X58310000Y-88203000D01*
G75*
G02*
X58460000Y-88053000I150000J0D01*
G01*
G37*
%TD.AperFunction*%
%TO.P,U1,36*%
%TO.N,/GND*%
%TA.AperFunction,SMDPad,CuDef*%
G36*
G01*
X57460000Y-88053000D02*
X57760000Y-88053000D01*
G75*
G02*
X57910000Y-88203000I0J-150000D01*
G01*
X57910000Y-89453000D01*
G75*
G02*
X57760000Y-89603000I-150000J0D01*
G01*
X57460000Y-89603000D01*
G75*
G02*
X57310000Y-89453000I0J150000D01*
G01*
X57310000Y-88203000D01*
G75*
G02*
X57460000Y-88053000I150000J0D01*
G01*
G37*
%TD.AperFunction*%
%TO.P,U1,35*%
%TO.N,/COM12-1*%
%TA.AperFunction,SMDPad,CuDef*%
G36*
G01*
X56460000Y-88053000D02*
X56760000Y-88053000D01*
G75*
G02*
X56910000Y-88203000I0J-150000D01*
G01*
X56910000Y-89453000D01*
G75*
G02*
X56760000Y-89603000I-150000J0D01*
G01*
X56460000Y-89603000D01*
G75*
G02*
X56310000Y-89453000I0J150000D01*
G01*
X56310000Y-88203000D01*
G75*
G02*
X56460000Y-88053000I150000J0D01*
G01*
G37*
%TD.AperFunction*%
%TO.P,U1,34*%
%TO.N,/COM11-1*%
%TA.AperFunction,SMDPad,CuDef*%
G36*
G01*
X55460000Y-88053000D02*
X55760000Y-88053000D01*
G75*
G02*
X55910000Y-88203000I0J-150000D01*
G01*
X55910000Y-89453000D01*
G75*
G02*
X55760000Y-89603000I-150000J0D01*
G01*
X55460000Y-89603000D01*
G75*
G02*
X55310000Y-89453000I0J150000D01*
G01*
X55310000Y-88203000D01*
G75*
G02*
X55460000Y-88053000I150000J0D01*
G01*
G37*
%TD.AperFunction*%
%TO.P,U1,33*%
%TO.N,/COM10-1*%
%TA.AperFunction,SMDPad,CuDef*%
G36*
G01*
X54460000Y-88053000D02*
X54760000Y-88053000D01*
G75*
G02*
X54910000Y-88203000I0J-150000D01*
G01*
X54910000Y-89453000D01*
G75*
G02*
X54760000Y-89603000I-150000J0D01*
G01*
X54460000Y-89603000D01*
G75*
G02*
X54310000Y-89453000I0J150000D01*
G01*
X54310000Y-88203000D01*
G75*
G02*
X54460000Y-88053000I150000J0D01*
G01*
G37*
%TD.AperFunction*%
%TO.P,U1,32*%
%TO.N,/COM9-1*%
%TA.AperFunction,SMDPad,CuDef*%
G36*
G01*
X53460000Y-88053000D02*
X53760000Y-88053000D01*
G75*
G02*
X53910000Y-88203000I0J-150000D01*
G01*
X53910000Y-89453000D01*
G75*
G02*
X53760000Y-89603000I-150000J0D01*
G01*
X53460000Y-89603000D01*
G75*
G02*
X53310000Y-89453000I0J150000D01*
G01*
X53310000Y-88203000D01*
G75*
G02*
X53460000Y-88053000I150000J0D01*
G01*
G37*
%TD.AperFunction*%
%TO.P,U1,31*%
%TO.N,/COM8-1*%
%TA.AperFunction,SMDPad,CuDef*%
G36*
G01*
X52460000Y-88053000D02*
X52760000Y-88053000D01*
G75*
G02*
X52910000Y-88203000I0J-150000D01*
G01*
X52910000Y-89453000D01*
G75*
G02*
X52760000Y-89603000I-150000J0D01*
G01*
X52460000Y-89603000D01*
G75*
G02*
X52310000Y-89453000I0J150000D01*
G01*
X52310000Y-88203000D01*
G75*
G02*
X52460000Y-88053000I150000J0D01*
G01*
G37*
%TD.AperFunction*%
%TO.P,U1,30*%
%TO.N,/COM7-1*%
%TA.AperFunction,SMDPad,CuDef*%
G36*
G01*
X51460000Y-88053000D02*
X51760000Y-88053000D01*
G75*
G02*
X51910000Y-88203000I0J-150000D01*
G01*
X51910000Y-89453000D01*
G75*
G02*
X51760000Y-89603000I-150000J0D01*
G01*
X51460000Y-89603000D01*
G75*
G02*
X51310000Y-89453000I0J150000D01*
G01*
X51310000Y-88203000D01*
G75*
G02*
X51460000Y-88053000I150000J0D01*
G01*
G37*
%TD.AperFunction*%
%TO.P,U1,29*%
%TO.N,/COM6-1*%
%TA.AperFunction,SMDPad,CuDef*%
G36*
G01*
X50460000Y-88053000D02*
X50760000Y-88053000D01*
G75*
G02*
X50910000Y-88203000I0J-150000D01*
G01*
X50910000Y-89453000D01*
G75*
G02*
X50760000Y-89603000I-150000J0D01*
G01*
X50460000Y-89603000D01*
G75*
G02*
X50310000Y-89453000I0J150000D01*
G01*
X50310000Y-88203000D01*
G75*
G02*
X50460000Y-88053000I150000J0D01*
G01*
G37*
%TD.AperFunction*%
%TO.P,U1,28*%
%TO.N,/COM5-1*%
%TA.AperFunction,SMDPad,CuDef*%
G36*
G01*
X49460000Y-88053000D02*
X49760000Y-88053000D01*
G75*
G02*
X49910000Y-88203000I0J-150000D01*
G01*
X49910000Y-89453000D01*
G75*
G02*
X49760000Y-89603000I-150000J0D01*
G01*
X49460000Y-89603000D01*
G75*
G02*
X49310000Y-89453000I0J150000D01*
G01*
X49310000Y-88203000D01*
G75*
G02*
X49460000Y-88053000I150000J0D01*
G01*
G37*
%TD.AperFunction*%
%TO.P,U1,27*%
%TO.N,/COM4-1*%
%TA.AperFunction,SMDPad,CuDef*%
G36*
G01*
X48460000Y-88053000D02*
X48760000Y-88053000D01*
G75*
G02*
X48910000Y-88203000I0J-150000D01*
G01*
X48910000Y-89453000D01*
G75*
G02*
X48760000Y-89603000I-150000J0D01*
G01*
X48460000Y-89603000D01*
G75*
G02*
X48310000Y-89453000I0J150000D01*
G01*
X48310000Y-88203000D01*
G75*
G02*
X48460000Y-88053000I150000J0D01*
G01*
G37*
%TD.AperFunction*%
%TO.P,U1,26*%
%TO.N,/COM3-1*%
%TA.AperFunction,SMDPad,CuDef*%
G36*
G01*
X46310000Y-86853000D02*
X47560000Y-86853000D01*
G75*
G02*
X47710000Y-87003000I0J-150000D01*
G01*
X47710000Y-87303000D01*
G75*
G02*
X47560000Y-87453000I-150000J0D01*
G01*
X46310000Y-87453000D01*
G75*
G02*
X46160000Y-87303000I0J150000D01*
G01*
X46160000Y-87003000D01*
G75*
G02*
X46310000Y-86853000I150000J0D01*
G01*
G37*
%TD.AperFunction*%
%TO.P,U1,25*%
%TO.N,/GND*%
%TA.AperFunction,SMDPad,CuDef*%
G36*
G01*
X46310000Y-85853000D02*
X47560000Y-85853000D01*
G75*
G02*
X47710000Y-86003000I0J-150000D01*
G01*
X47710000Y-86303000D01*
G75*
G02*
X47560000Y-86453000I-150000J0D01*
G01*
X46310000Y-86453000D01*
G75*
G02*
X46160000Y-86303000I0J150000D01*
G01*
X46160000Y-86003000D01*
G75*
G02*
X46310000Y-85853000I150000J0D01*
G01*
G37*
%TD.AperFunction*%
%TO.P,U1,24*%
%TO.N,/COM2-1*%
%TA.AperFunction,SMDPad,CuDef*%
G36*
G01*
X46310000Y-84853000D02*
X47560000Y-84853000D01*
G75*
G02*
X47710000Y-85003000I0J-150000D01*
G01*
X47710000Y-85303000D01*
G75*
G02*
X47560000Y-85453000I-150000J0D01*
G01*
X46310000Y-85453000D01*
G75*
G02*
X46160000Y-85303000I0J150000D01*
G01*
X46160000Y-85003000D01*
G75*
G02*
X46310000Y-84853000I150000J0D01*
G01*
G37*
%TD.AperFunction*%
%TO.P,U1,23*%
%TO.N,/COM1-1*%
%TA.AperFunction,SMDPad,CuDef*%
G36*
G01*
X46310000Y-83853000D02*
X47560000Y-83853000D01*
G75*
G02*
X47710000Y-84003000I0J-150000D01*
G01*
X47710000Y-84303000D01*
G75*
G02*
X47560000Y-84453000I-150000J0D01*
G01*
X46310000Y-84453000D01*
G75*
G02*
X46160000Y-84303000I0J150000D01*
G01*
X46160000Y-84003000D01*
G75*
G02*
X46310000Y-83853000I150000J0D01*
G01*
G37*
%TD.AperFunction*%
%TO.P,U1,22*%
%TO.N,/COM0-1*%
%TA.AperFunction,SMDPad,CuDef*%
G36*
G01*
X46310000Y-82853000D02*
X47560000Y-82853000D01*
G75*
G02*
X47710000Y-83003000I0J-150000D01*
G01*
X47710000Y-83303000D01*
G75*
G02*
X47560000Y-83453000I-150000J0D01*
G01*
X46310000Y-83453000D01*
G75*
G02*
X46160000Y-83303000I0J150000D01*
G01*
X46160000Y-83003000D01*
G75*
G02*
X46310000Y-82853000I150000J0D01*
G01*
G37*
%TD.AperFunction*%
%TO.P,U1,21*%
%TO.N,/3.3V*%
%TA.AperFunction,SMDPad,CuDef*%
G36*
G01*
X46310000Y-81853000D02*
X47560000Y-81853000D01*
G75*
G02*
X47710000Y-82003000I0J-150000D01*
G01*
X47710000Y-82303000D01*
G75*
G02*
X47560000Y-82453000I-150000J0D01*
G01*
X46310000Y-82453000D01*
G75*
G02*
X46160000Y-82303000I0J150000D01*
G01*
X46160000Y-82003000D01*
G75*
G02*
X46310000Y-81853000I150000J0D01*
G01*
G37*
%TD.AperFunction*%
%TO.P,U1,20*%
%TO.N,/SYNC*%
%TA.AperFunction,SMDPad,CuDef*%
G36*
G01*
X46310000Y-80853000D02*
X47560000Y-80853000D01*
G75*
G02*
X47710000Y-81003000I0J-150000D01*
G01*
X47710000Y-81303000D01*
G75*
G02*
X47560000Y-81453000I-150000J0D01*
G01*
X46310000Y-81453000D01*
G75*
G02*
X46160000Y-81303000I0J150000D01*
G01*
X46160000Y-81003000D01*
G75*
G02*
X46310000Y-80853000I150000J0D01*
G01*
G37*
%TD.AperFunction*%
%TO.P,U1,19*%
%TO.N,/CS1*%
%TA.AperFunction,SMDPad,CuDef*%
G36*
G01*
X46310000Y-79853000D02*
X47560000Y-79853000D01*
G75*
G02*
X47710000Y-80003000I0J-150000D01*
G01*
X47710000Y-80303000D01*
G75*
G02*
X47560000Y-80453000I-150000J0D01*
G01*
X46310000Y-80453000D01*
G75*
G02*
X46160000Y-80303000I0J150000D01*
G01*
X46160000Y-80003000D01*
G75*
G02*
X46310000Y-79853000I150000J0D01*
G01*
G37*
%TD.AperFunction*%
%TO.P,U1,18*%
%TO.N,/RD*%
%TA.AperFunction,SMDPad,CuDef*%
G36*
G01*
X46310000Y-78853000D02*
X47560000Y-78853000D01*
G75*
G02*
X47710000Y-79003000I0J-150000D01*
G01*
X47710000Y-79303000D01*
G75*
G02*
X47560000Y-79453000I-150000J0D01*
G01*
X46310000Y-79453000D01*
G75*
G02*
X46160000Y-79303000I0J150000D01*
G01*
X46160000Y-79003000D01*
G75*
G02*
X46310000Y-78853000I150000J0D01*
G01*
G37*
%TD.AperFunction*%
%TO.P,U1,17*%
%TO.N,/WR*%
%TA.AperFunction,SMDPad,CuDef*%
G36*
G01*
X46310000Y-77853000D02*
X47560000Y-77853000D01*
G75*
G02*
X47710000Y-78003000I0J-150000D01*
G01*
X47710000Y-78303000D01*
G75*
G02*
X47560000Y-78453000I-150000J0D01*
G01*
X46310000Y-78453000D01*
G75*
G02*
X46160000Y-78303000I0J150000D01*
G01*
X46160000Y-78003000D01*
G75*
G02*
X46310000Y-77853000I150000J0D01*
G01*
G37*
%TD.AperFunction*%
%TO.P,U1,16*%
%TO.N,/DATA*%
%TA.AperFunction,SMDPad,CuDef*%
G36*
G01*
X46310000Y-76853000D02*
X47560000Y-76853000D01*
G75*
G02*
X47710000Y-77003000I0J-150000D01*
G01*
X47710000Y-77303000D01*
G75*
G02*
X47560000Y-77453000I-150000J0D01*
G01*
X46310000Y-77453000D01*
G75*
G02*
X46160000Y-77303000I0J150000D01*
G01*
X46160000Y-77003000D01*
G75*
G02*
X46310000Y-76853000I150000J0D01*
G01*
G37*
%TD.AperFunction*%
%TO.P,U1,15*%
%TO.N,/OSC*%
%TA.AperFunction,SMDPad,CuDef*%
G36*
G01*
X46310000Y-75853000D02*
X47560000Y-75853000D01*
G75*
G02*
X47710000Y-76003000I0J-150000D01*
G01*
X47710000Y-76303000D01*
G75*
G02*
X47560000Y-76453000I-150000J0D01*
G01*
X46310000Y-76453000D01*
G75*
G02*
X46160000Y-76303000I0J150000D01*
G01*
X46160000Y-76003000D01*
G75*
G02*
X46310000Y-75853000I150000J0D01*
G01*
G37*
%TD.AperFunction*%
%TO.P,U1,14*%
%TO.N,/GND*%
%TA.AperFunction,SMDPad,CuDef*%
G36*
G01*
X46310000Y-74853000D02*
X47560000Y-74853000D01*
G75*
G02*
X47710000Y-75003000I0J-150000D01*
G01*
X47710000Y-75303000D01*
G75*
G02*
X47560000Y-75453000I-150000J0D01*
G01*
X46310000Y-75453000D01*
G75*
G02*
X46160000Y-75303000I0J150000D01*
G01*
X46160000Y-75003000D01*
G75*
G02*
X46310000Y-74853000I150000J0D01*
G01*
G37*
%TD.AperFunction*%
%TO.P,U1,13*%
%TO.N,Net-(R1-Pad1)*%
%TA.AperFunction,SMDPad,CuDef*%
G36*
G01*
X48460000Y-72703000D02*
X48760000Y-72703000D01*
G75*
G02*
X48910000Y-72853000I0J-150000D01*
G01*
X48910000Y-74103000D01*
G75*
G02*
X48760000Y-74253000I-150000J0D01*
G01*
X48460000Y-74253000D01*
G75*
G02*
X48310000Y-74103000I0J150000D01*
G01*
X48310000Y-72853000D01*
G75*
G02*
X48460000Y-72703000I150000J0D01*
G01*
G37*
%TD.AperFunction*%
%TO.P,U1,12*%
%TO.N,Net-(R2-Pad1)*%
%TA.AperFunction,SMDPad,CuDef*%
G36*
G01*
X49460000Y-72703000D02*
X49760000Y-72703000D01*
G75*
G02*
X49910000Y-72853000I0J-150000D01*
G01*
X49910000Y-74103000D01*
G75*
G02*
X49760000Y-74253000I-150000J0D01*
G01*
X49460000Y-74253000D01*
G75*
G02*
X49310000Y-74103000I0J150000D01*
G01*
X49310000Y-72853000D01*
G75*
G02*
X49460000Y-72703000I150000J0D01*
G01*
G37*
%TD.AperFunction*%
%TO.P,U1,11*%
%TO.N,Net-(R3-Pad1)*%
%TA.AperFunction,SMDPad,CuDef*%
G36*
G01*
X50460000Y-72703000D02*
X50760000Y-72703000D01*
G75*
G02*
X50910000Y-72853000I0J-150000D01*
G01*
X50910000Y-74103000D01*
G75*
G02*
X50760000Y-74253000I-150000J0D01*
G01*
X50460000Y-74253000D01*
G75*
G02*
X50310000Y-74103000I0J150000D01*
G01*
X50310000Y-72853000D01*
G75*
G02*
X50460000Y-72703000I150000J0D01*
G01*
G37*
%TD.AperFunction*%
%TO.P,U1,10*%
%TO.N,Net-(R4-Pad1)*%
%TA.AperFunction,SMDPad,CuDef*%
G36*
G01*
X51460000Y-72703000D02*
X51760000Y-72703000D01*
G75*
G02*
X51910000Y-72853000I0J-150000D01*
G01*
X51910000Y-74103000D01*
G75*
G02*
X51760000Y-74253000I-150000J0D01*
G01*
X51460000Y-74253000D01*
G75*
G02*
X51310000Y-74103000I0J150000D01*
G01*
X51310000Y-72853000D01*
G75*
G02*
X51460000Y-72703000I150000J0D01*
G01*
G37*
%TD.AperFunction*%
%TO.P,U1,9*%
%TO.N,Net-(R5-Pad1)*%
%TA.AperFunction,SMDPad,CuDef*%
G36*
G01*
X52460000Y-72703000D02*
X52760000Y-72703000D01*
G75*
G02*
X52910000Y-72853000I0J-150000D01*
G01*
X52910000Y-74103000D01*
G75*
G02*
X52760000Y-74253000I-150000J0D01*
G01*
X52460000Y-74253000D01*
G75*
G02*
X52310000Y-74103000I0J150000D01*
G01*
X52310000Y-72853000D01*
G75*
G02*
X52460000Y-72703000I150000J0D01*
G01*
G37*
%TD.AperFunction*%
%TO.P,U1,8*%
%TO.N,Net-(R6-Pad1)*%
%TA.AperFunction,SMDPad,CuDef*%
G36*
G01*
X53460000Y-72703000D02*
X53760000Y-72703000D01*
G75*
G02*
X53910000Y-72853000I0J-150000D01*
G01*
X53910000Y-74103000D01*
G75*
G02*
X53760000Y-74253000I-150000J0D01*
G01*
X53460000Y-74253000D01*
G75*
G02*
X53310000Y-74103000I0J150000D01*
G01*
X53310000Y-72853000D01*
G75*
G02*
X53460000Y-72703000I150000J0D01*
G01*
G37*
%TD.AperFunction*%
%TO.P,U1,7*%
%TO.N,/3.3V*%
%TA.AperFunction,SMDPad,CuDef*%
G36*
G01*
X54460000Y-72703000D02*
X54760000Y-72703000D01*
G75*
G02*
X54910000Y-72853000I0J-150000D01*
G01*
X54910000Y-74103000D01*
G75*
G02*
X54760000Y-74253000I-150000J0D01*
G01*
X54460000Y-74253000D01*
G75*
G02*
X54310000Y-74103000I0J150000D01*
G01*
X54310000Y-72853000D01*
G75*
G02*
X54460000Y-72703000I150000J0D01*
G01*
G37*
%TD.AperFunction*%
%TO.P,U1,6*%
%TO.N,Net-(R7-Pad1)*%
%TA.AperFunction,SMDPad,CuDef*%
G36*
G01*
X55460000Y-72703000D02*
X55760000Y-72703000D01*
G75*
G02*
X55910000Y-72853000I0J-150000D01*
G01*
X55910000Y-74103000D01*
G75*
G02*
X55760000Y-74253000I-150000J0D01*
G01*
X55460000Y-74253000D01*
G75*
G02*
X55310000Y-74103000I0J150000D01*
G01*
X55310000Y-72853000D01*
G75*
G02*
X55460000Y-72703000I150000J0D01*
G01*
G37*
%TD.AperFunction*%
%TO.P,U1,5*%
%TO.N,Net-(R8-Pad1)*%
%TA.AperFunction,SMDPad,CuDef*%
G36*
G01*
X56460000Y-72703000D02*
X56760000Y-72703000D01*
G75*
G02*
X56910000Y-72853000I0J-150000D01*
G01*
X56910000Y-74103000D01*
G75*
G02*
X56760000Y-74253000I-150000J0D01*
G01*
X56460000Y-74253000D01*
G75*
G02*
X56310000Y-74103000I0J150000D01*
G01*
X56310000Y-72853000D01*
G75*
G02*
X56460000Y-72703000I150000J0D01*
G01*
G37*
%TD.AperFunction*%
%TO.P,U1,4*%
%TO.N,Net-(R9-Pad1)*%
%TA.AperFunction,SMDPad,CuDef*%
G36*
G01*
X57460000Y-72703000D02*
X57760000Y-72703000D01*
G75*
G02*
X57910000Y-72853000I0J-150000D01*
G01*
X57910000Y-74103000D01*
G75*
G02*
X57760000Y-74253000I-150000J0D01*
G01*
X57460000Y-74253000D01*
G75*
G02*
X57310000Y-74103000I0J150000D01*
G01*
X57310000Y-72853000D01*
G75*
G02*
X57460000Y-72703000I150000J0D01*
G01*
G37*
%TD.AperFunction*%
%TO.P,U1,3*%
%TO.N,Net-(R10-Pad1)*%
%TA.AperFunction,SMDPad,CuDef*%
G36*
G01*
X58460000Y-72703000D02*
X58760000Y-72703000D01*
G75*
G02*
X58910000Y-72853000I0J-150000D01*
G01*
X58910000Y-74103000D01*
G75*
G02*
X58760000Y-74253000I-150000J0D01*
G01*
X58460000Y-74253000D01*
G75*
G02*
X58310000Y-74103000I0J150000D01*
G01*
X58310000Y-72853000D01*
G75*
G02*
X58460000Y-72703000I150000J0D01*
G01*
G37*
%TD.AperFunction*%
%TO.P,U1,2*%
%TO.N,Net-(R11-Pad1)*%
%TA.AperFunction,SMDPad,CuDef*%
G36*
G01*
X59460000Y-72703000D02*
X59760000Y-72703000D01*
G75*
G02*
X59910000Y-72853000I0J-150000D01*
G01*
X59910000Y-74103000D01*
G75*
G02*
X59760000Y-74253000I-150000J0D01*
G01*
X59460000Y-74253000D01*
G75*
G02*
X59310000Y-74103000I0J150000D01*
G01*
X59310000Y-72853000D01*
G75*
G02*
X59460000Y-72703000I150000J0D01*
G01*
G37*
%TD.AperFunction*%
%TO.P,U1,1*%
%TO.N,Net-(R12-Pad1)*%
%TA.AperFunction,SMDPad,CuDef*%
G36*
G01*
X60460000Y-72703000D02*
X60760000Y-72703000D01*
G75*
G02*
X60910000Y-72853000I0J-150000D01*
G01*
X60910000Y-74103000D01*
G75*
G02*
X60760000Y-74253000I-150000J0D01*
G01*
X60460000Y-74253000D01*
G75*
G02*
X60310000Y-74103000I0J150000D01*
G01*
X60310000Y-72853000D01*
G75*
G02*
X60460000Y-72703000I150000J0D01*
G01*
G37*
%TD.AperFunction*%
%TD*%
%TO.P,R35,2*%
%TO.N,Net-(R35-Pad2)*%
%TA.AperFunction,SMDPad,CuDef*%
G36*
G01*
X112765000Y-107959999D02*
X112765000Y-109210001D01*
G75*
G02*
X112515001Y-109460000I-249999J0D01*
G01*
X111889999Y-109460000D01*
G75*
G02*
X111640000Y-109210001I0J249999D01*
G01*
X111640000Y-107959999D01*
G75*
G02*
X111889999Y-107710000I249999J0D01*
G01*
X112515001Y-107710000D01*
G75*
G02*
X112765000Y-107959999I0J-249999D01*
G01*
G37*
%TD.AperFunction*%
%TO.P,R35,1*%
%TO.N,/LEDPWM*%
%TA.AperFunction,SMDPad,CuDef*%
G36*
G01*
X115690000Y-107959999D02*
X115690000Y-109210001D01*
G75*
G02*
X115440001Y-109460000I-249999J0D01*
G01*
X114814999Y-109460000D01*
G75*
G02*
X114565000Y-109210001I0J249999D01*
G01*
X114565000Y-107959999D01*
G75*
G02*
X114814999Y-107710000I249999J0D01*
G01*
X115440001Y-107710000D01*
G75*
G02*
X115690000Y-107959999I0J-249999D01*
G01*
G37*
%TD.AperFunction*%
%TD*%
%TO.P,R34,2*%
%TO.N,/DOT2*%
%TA.AperFunction,SMDPad,CuDef*%
G36*
G01*
X1447500Y-82559999D02*
X1447500Y-83810001D01*
G75*
G02*
X1197501Y-84060000I-249999J0D01*
G01*
X572499Y-84060000D01*
G75*
G02*
X322500Y-83810001I0J249999D01*
G01*
X322500Y-82559999D01*
G75*
G02*
X572499Y-82310000I249999J0D01*
G01*
X1197501Y-82310000D01*
G75*
G02*
X1447500Y-82559999I0J-249999D01*
G01*
G37*
%TD.AperFunction*%
%TO.P,R34,1*%
%TO.N,Net-(R34-Pad1)*%
%TA.AperFunction,SMDPad,CuDef*%
G36*
G01*
X4372500Y-82559999D02*
X4372500Y-83810001D01*
G75*
G02*
X4122501Y-84060000I-249999J0D01*
G01*
X3497499Y-84060000D01*
G75*
G02*
X3247500Y-83810001I0J249999D01*
G01*
X3247500Y-82559999D01*
G75*
G02*
X3497499Y-82310000I249999J0D01*
G01*
X4122501Y-82310000D01*
G75*
G02*
X4372500Y-82559999I0J-249999D01*
G01*
G37*
%TD.AperFunction*%
%TD*%
%TO.P,R33,2*%
%TO.N,/DP2*%
%TA.AperFunction,SMDPad,CuDef*%
G36*
G01*
X1447500Y-85099999D02*
X1447500Y-86350001D01*
G75*
G02*
X1197501Y-86600000I-249999J0D01*
G01*
X572499Y-86600000D01*
G75*
G02*
X322500Y-86350001I0J249999D01*
G01*
X322500Y-85099999D01*
G75*
G02*
X572499Y-84850000I249999J0D01*
G01*
X1197501Y-84850000D01*
G75*
G02*
X1447500Y-85099999I0J-249999D01*
G01*
G37*
%TD.AperFunction*%
%TO.P,R33,1*%
%TO.N,Net-(R33-Pad1)*%
%TA.AperFunction,SMDPad,CuDef*%
G36*
G01*
X4372500Y-85099999D02*
X4372500Y-86350001D01*
G75*
G02*
X4122501Y-86600000I-249999J0D01*
G01*
X3497499Y-86600000D01*
G75*
G02*
X3247500Y-86350001I0J249999D01*
G01*
X3247500Y-85099999D01*
G75*
G02*
X3497499Y-84850000I249999J0D01*
G01*
X4122501Y-84850000D01*
G75*
G02*
X4372500Y-85099999I0J-249999D01*
G01*
G37*
%TD.AperFunction*%
%TD*%
%TO.P,R32,2*%
%TO.N,/Q2*%
%TA.AperFunction,SMDPad,CuDef*%
G36*
G01*
X1447500Y-87639999D02*
X1447500Y-88890001D01*
G75*
G02*
X1197501Y-89140000I-249999J0D01*
G01*
X572499Y-89140000D01*
G75*
G02*
X322500Y-88890001I0J249999D01*
G01*
X322500Y-87639999D01*
G75*
G02*
X572499Y-87390000I249999J0D01*
G01*
X1197501Y-87390000D01*
G75*
G02*
X1447500Y-87639999I0J-249999D01*
G01*
G37*
%TD.AperFunction*%
%TO.P,R32,1*%
%TO.N,Net-(R32-Pad1)*%
%TA.AperFunction,SMDPad,CuDef*%
G36*
G01*
X4372500Y-87639999D02*
X4372500Y-88890001D01*
G75*
G02*
X4122501Y-89140000I-249999J0D01*
G01*
X3497499Y-89140000D01*
G75*
G02*
X3247500Y-88890001I0J249999D01*
G01*
X3247500Y-87639999D01*
G75*
G02*
X3497499Y-87390000I249999J0D01*
G01*
X4122501Y-87390000D01*
G75*
G02*
X4372500Y-87639999I0J-249999D01*
G01*
G37*
%TD.AperFunction*%
%TD*%
%TO.P,R31,2*%
%TO.N,/P2*%
%TA.AperFunction,SMDPad,CuDef*%
G36*
G01*
X1447500Y-90179999D02*
X1447500Y-91430001D01*
G75*
G02*
X1197501Y-91680000I-249999J0D01*
G01*
X572499Y-91680000D01*
G75*
G02*
X322500Y-91430001I0J249999D01*
G01*
X322500Y-90179999D01*
G75*
G02*
X572499Y-89930000I249999J0D01*
G01*
X1197501Y-89930000D01*
G75*
G02*
X1447500Y-90179999I0J-249999D01*
G01*
G37*
%TD.AperFunction*%
%TO.P,R31,1*%
%TO.N,Net-(R31-Pad1)*%
%TA.AperFunction,SMDPad,CuDef*%
G36*
G01*
X4372500Y-90179999D02*
X4372500Y-91430001D01*
G75*
G02*
X4122501Y-91680000I-249999J0D01*
G01*
X3497499Y-91680000D01*
G75*
G02*
X3247500Y-91430001I0J249999D01*
G01*
X3247500Y-90179999D01*
G75*
G02*
X3497499Y-89930000I249999J0D01*
G01*
X4122501Y-89930000D01*
G75*
G02*
X4372500Y-90179999I0J-249999D01*
G01*
G37*
%TD.AperFunction*%
%TD*%
%TO.P,R30,2*%
%TO.N,/N2*%
%TA.AperFunction,SMDPad,CuDef*%
G36*
G01*
X1447500Y-92719999D02*
X1447500Y-93970001D01*
G75*
G02*
X1197501Y-94220000I-249999J0D01*
G01*
X572499Y-94220000D01*
G75*
G02*
X322500Y-93970001I0J249999D01*
G01*
X322500Y-92719999D01*
G75*
G02*
X572499Y-92470000I249999J0D01*
G01*
X1197501Y-92470000D01*
G75*
G02*
X1447500Y-92719999I0J-249999D01*
G01*
G37*
%TD.AperFunction*%
%TO.P,R30,1*%
%TO.N,Net-(R30-Pad1)*%
%TA.AperFunction,SMDPad,CuDef*%
G36*
G01*
X4372500Y-92719999D02*
X4372500Y-93970001D01*
G75*
G02*
X4122501Y-94220000I-249999J0D01*
G01*
X3497499Y-94220000D01*
G75*
G02*
X3247500Y-93970001I0J249999D01*
G01*
X3247500Y-92719999D01*
G75*
G02*
X3497499Y-92470000I249999J0D01*
G01*
X4122501Y-92470000D01*
G75*
G02*
X4372500Y-92719999I0J-249999D01*
G01*
G37*
%TD.AperFunction*%
%TD*%
%TO.P,R29,2*%
%TO.N,/M2*%
%TA.AperFunction,SMDPad,CuDef*%
G36*
G01*
X5089999Y-100152500D02*
X6340001Y-100152500D01*
G75*
G02*
X6590000Y-100402499I0J-249999D01*
G01*
X6590000Y-101027501D01*
G75*
G02*
X6340001Y-101277500I-249999J0D01*
G01*
X5089999Y-101277500D01*
G75*
G02*
X4840000Y-101027501I0J249999D01*
G01*
X4840000Y-100402499D01*
G75*
G02*
X5089999Y-100152500I249999J0D01*
G01*
G37*
%TD.AperFunction*%
%TO.P,R29,1*%
%TO.N,Net-(R29-Pad1)*%
%TA.AperFunction,SMDPad,CuDef*%
G36*
G01*
X5089999Y-97227500D02*
X6340001Y-97227500D01*
G75*
G02*
X6590000Y-97477499I0J-249999D01*
G01*
X6590000Y-98102501D01*
G75*
G02*
X6340001Y-98352500I-249999J0D01*
G01*
X5089999Y-98352500D01*
G75*
G02*
X4840000Y-98102501I0J249999D01*
G01*
X4840000Y-97477499D01*
G75*
G02*
X5089999Y-97227500I249999J0D01*
G01*
G37*
%TD.AperFunction*%
%TD*%
%TO.P,R28,2*%
%TO.N,/L2*%
%TA.AperFunction,SMDPad,CuDef*%
G36*
G01*
X6994999Y-106502500D02*
X8245001Y-106502500D01*
G75*
G02*
X8495000Y-106752499I0J-249999D01*
G01*
X8495000Y-107377501D01*
G75*
G02*
X8245001Y-107627500I-249999J0D01*
G01*
X6994999Y-107627500D01*
G75*
G02*
X6745000Y-107377501I0J249999D01*
G01*
X6745000Y-106752499D01*
G75*
G02*
X6994999Y-106502500I249999J0D01*
G01*
G37*
%TD.AperFunction*%
%TO.P,R28,1*%
%TO.N,Net-(R28-Pad1)*%
%TA.AperFunction,SMDPad,CuDef*%
G36*
G01*
X6994999Y-103577500D02*
X8245001Y-103577500D01*
G75*
G02*
X8495000Y-103827499I0J-249999D01*
G01*
X8495000Y-104452501D01*
G75*
G02*
X8245001Y-104702500I-249999J0D01*
G01*
X6994999Y-104702500D01*
G75*
G02*
X6745000Y-104452501I0J249999D01*
G01*
X6745000Y-103827499D01*
G75*
G02*
X6994999Y-103577500I249999J0D01*
G01*
G37*
%TD.AperFunction*%
%TD*%
%TO.P,R27,2*%
%TO.N,/K2*%
%TA.AperFunction,SMDPad,CuDef*%
G36*
G01*
X8899999Y-100152500D02*
X10150001Y-100152500D01*
G75*
G02*
X10400000Y-100402499I0J-249999D01*
G01*
X10400000Y-101027501D01*
G75*
G02*
X10150001Y-101277500I-249999J0D01*
G01*
X8899999Y-101277500D01*
G75*
G02*
X8650000Y-101027501I0J249999D01*
G01*
X8650000Y-100402499D01*
G75*
G02*
X8899999Y-100152500I249999J0D01*
G01*
G37*
%TD.AperFunction*%
%TO.P,R27,1*%
%TO.N,Net-(R27-Pad1)*%
%TA.AperFunction,SMDPad,CuDef*%
G36*
G01*
X8899999Y-97227500D02*
X10150001Y-97227500D01*
G75*
G02*
X10400000Y-97477499I0J-249999D01*
G01*
X10400000Y-98102501D01*
G75*
G02*
X10150001Y-98352500I-249999J0D01*
G01*
X8899999Y-98352500D01*
G75*
G02*
X8650000Y-98102501I0J249999D01*
G01*
X8650000Y-97477499D01*
G75*
G02*
X8899999Y-97227500I249999J0D01*
G01*
G37*
%TD.AperFunction*%
%TD*%
%TO.P,R26,2*%
%TO.N,/J2*%
%TA.AperFunction,SMDPad,CuDef*%
G36*
G01*
X10804999Y-106502500D02*
X12055001Y-106502500D01*
G75*
G02*
X12305000Y-106752499I0J-249999D01*
G01*
X12305000Y-107377501D01*
G75*
G02*
X12055001Y-107627500I-249999J0D01*
G01*
X10804999Y-107627500D01*
G75*
G02*
X10555000Y-107377501I0J249999D01*
G01*
X10555000Y-106752499D01*
G75*
G02*
X10804999Y-106502500I249999J0D01*
G01*
G37*
%TD.AperFunction*%
%TO.P,R26,1*%
%TO.N,Net-(R26-Pad1)*%
%TA.AperFunction,SMDPad,CuDef*%
G36*
G01*
X10804999Y-103577500D02*
X12055001Y-103577500D01*
G75*
G02*
X12305000Y-103827499I0J-249999D01*
G01*
X12305000Y-104452501D01*
G75*
G02*
X12055001Y-104702500I-249999J0D01*
G01*
X10804999Y-104702500D01*
G75*
G02*
X10555000Y-104452501I0J249999D01*
G01*
X10555000Y-103827499D01*
G75*
G02*
X10804999Y-103577500I249999J0D01*
G01*
G37*
%TD.AperFunction*%
%TD*%
%TO.P,R25,2*%
%TO.N,/H2*%
%TA.AperFunction,SMDPad,CuDef*%
G36*
G01*
X12709999Y-100152500D02*
X13960001Y-100152500D01*
G75*
G02*
X14210000Y-100402499I0J-249999D01*
G01*
X14210000Y-101027501D01*
G75*
G02*
X13960001Y-101277500I-249999J0D01*
G01*
X12709999Y-101277500D01*
G75*
G02*
X12460000Y-101027501I0J249999D01*
G01*
X12460000Y-100402499D01*
G75*
G02*
X12709999Y-100152500I249999J0D01*
G01*
G37*
%TD.AperFunction*%
%TO.P,R25,1*%
%TO.N,Net-(R25-Pad1)*%
%TA.AperFunction,SMDPad,CuDef*%
G36*
G01*
X12709999Y-97227500D02*
X13960001Y-97227500D01*
G75*
G02*
X14210000Y-97477499I0J-249999D01*
G01*
X14210000Y-98102501D01*
G75*
G02*
X13960001Y-98352500I-249999J0D01*
G01*
X12709999Y-98352500D01*
G75*
G02*
X12460000Y-98102501I0J249999D01*
G01*
X12460000Y-97477499D01*
G75*
G02*
X12709999Y-97227500I249999J0D01*
G01*
G37*
%TD.AperFunction*%
%TD*%
%TO.P,R24,2*%
%TO.N,/G2*%
%TA.AperFunction,SMDPad,CuDef*%
G36*
G01*
X14614999Y-106502500D02*
X15865001Y-106502500D01*
G75*
G02*
X16115000Y-106752499I0J-249999D01*
G01*
X16115000Y-107377501D01*
G75*
G02*
X15865001Y-107627500I-249999J0D01*
G01*
X14614999Y-107627500D01*
G75*
G02*
X14365000Y-107377501I0J249999D01*
G01*
X14365000Y-106752499D01*
G75*
G02*
X14614999Y-106502500I249999J0D01*
G01*
G37*
%TD.AperFunction*%
%TO.P,R24,1*%
%TO.N,Net-(R24-Pad1)*%
%TA.AperFunction,SMDPad,CuDef*%
G36*
G01*
X14614999Y-103577500D02*
X15865001Y-103577500D01*
G75*
G02*
X16115000Y-103827499I0J-249999D01*
G01*
X16115000Y-104452501D01*
G75*
G02*
X15865001Y-104702500I-249999J0D01*
G01*
X14614999Y-104702500D01*
G75*
G02*
X14365000Y-104452501I0J249999D01*
G01*
X14365000Y-103827499D01*
G75*
G02*
X14614999Y-103577500I249999J0D01*
G01*
G37*
%TD.AperFunction*%
%TD*%
%TO.P,R23,2*%
%TO.N,/F2*%
%TA.AperFunction,SMDPad,CuDef*%
G36*
G01*
X17789999Y-100152500D02*
X19040001Y-100152500D01*
G75*
G02*
X19290000Y-100402499I0J-249999D01*
G01*
X19290000Y-101027501D01*
G75*
G02*
X19040001Y-101277500I-249999J0D01*
G01*
X17789999Y-101277500D01*
G75*
G02*
X17540000Y-101027501I0J249999D01*
G01*
X17540000Y-100402499D01*
G75*
G02*
X17789999Y-100152500I249999J0D01*
G01*
G37*
%TD.AperFunction*%
%TO.P,R23,1*%
%TO.N,Net-(R23-Pad1)*%
%TA.AperFunction,SMDPad,CuDef*%
G36*
G01*
X17789999Y-97227500D02*
X19040001Y-97227500D01*
G75*
G02*
X19290000Y-97477499I0J-249999D01*
G01*
X19290000Y-98102501D01*
G75*
G02*
X19040001Y-98352500I-249999J0D01*
G01*
X17789999Y-98352500D01*
G75*
G02*
X17540000Y-98102501I0J249999D01*
G01*
X17540000Y-97477499D01*
G75*
G02*
X17789999Y-97227500I249999J0D01*
G01*
G37*
%TD.AperFunction*%
%TD*%
%TO.P,R22,2*%
%TO.N,/E2*%
%TA.AperFunction,SMDPad,CuDef*%
G36*
G01*
X19694999Y-106502500D02*
X20945001Y-106502500D01*
G75*
G02*
X21195000Y-106752499I0J-249999D01*
G01*
X21195000Y-107377501D01*
G75*
G02*
X20945001Y-107627500I-249999J0D01*
G01*
X19694999Y-107627500D01*
G75*
G02*
X19445000Y-107377501I0J249999D01*
G01*
X19445000Y-106752499D01*
G75*
G02*
X19694999Y-106502500I249999J0D01*
G01*
G37*
%TD.AperFunction*%
%TO.P,R22,1*%
%TO.N,Net-(R22-Pad1)*%
%TA.AperFunction,SMDPad,CuDef*%
G36*
G01*
X19694999Y-103577500D02*
X20945001Y-103577500D01*
G75*
G02*
X21195000Y-103827499I0J-249999D01*
G01*
X21195000Y-104452501D01*
G75*
G02*
X20945001Y-104702500I-249999J0D01*
G01*
X19694999Y-104702500D01*
G75*
G02*
X19445000Y-104452501I0J249999D01*
G01*
X19445000Y-103827499D01*
G75*
G02*
X19694999Y-103577500I249999J0D01*
G01*
G37*
%TD.AperFunction*%
%TD*%
%TO.P,R21,2*%
%TO.N,/D2*%
%TA.AperFunction,SMDPad,CuDef*%
G36*
G01*
X21599999Y-100152500D02*
X22850001Y-100152500D01*
G75*
G02*
X23100000Y-100402499I0J-249999D01*
G01*
X23100000Y-101027501D01*
G75*
G02*
X22850001Y-101277500I-249999J0D01*
G01*
X21599999Y-101277500D01*
G75*
G02*
X21350000Y-101027501I0J249999D01*
G01*
X21350000Y-100402499D01*
G75*
G02*
X21599999Y-100152500I249999J0D01*
G01*
G37*
%TD.AperFunction*%
%TO.P,R21,1*%
%TO.N,Net-(R21-Pad1)*%
%TA.AperFunction,SMDPad,CuDef*%
G36*
G01*
X21599999Y-97227500D02*
X22850001Y-97227500D01*
G75*
G02*
X23100000Y-97477499I0J-249999D01*
G01*
X23100000Y-98102501D01*
G75*
G02*
X22850001Y-98352500I-249999J0D01*
G01*
X21599999Y-98352500D01*
G75*
G02*
X21350000Y-98102501I0J249999D01*
G01*
X21350000Y-97477499D01*
G75*
G02*
X21599999Y-97227500I249999J0D01*
G01*
G37*
%TD.AperFunction*%
%TD*%
%TO.P,R20,2*%
%TO.N,/C2*%
%TA.AperFunction,SMDPad,CuDef*%
G36*
G01*
X23504999Y-106502500D02*
X24755001Y-106502500D01*
G75*
G02*
X25005000Y-106752499I0J-249999D01*
G01*
X25005000Y-107377501D01*
G75*
G02*
X24755001Y-107627500I-249999J0D01*
G01*
X23504999Y-107627500D01*
G75*
G02*
X23255000Y-107377501I0J249999D01*
G01*
X23255000Y-106752499D01*
G75*
G02*
X23504999Y-106502500I249999J0D01*
G01*
G37*
%TD.AperFunction*%
%TO.P,R20,1*%
%TO.N,Net-(R20-Pad1)*%
%TA.AperFunction,SMDPad,CuDef*%
G36*
G01*
X23504999Y-103577500D02*
X24755001Y-103577500D01*
G75*
G02*
X25005000Y-103827499I0J-249999D01*
G01*
X25005000Y-104452501D01*
G75*
G02*
X24755001Y-104702500I-249999J0D01*
G01*
X23504999Y-104702500D01*
G75*
G02*
X23255000Y-104452501I0J249999D01*
G01*
X23255000Y-103827499D01*
G75*
G02*
X23504999Y-103577500I249999J0D01*
G01*
G37*
%TD.AperFunction*%
%TD*%
%TO.P,R19,2*%
%TO.N,/B2*%
%TA.AperFunction,SMDPad,CuDef*%
G36*
G01*
X25409999Y-100152500D02*
X26660001Y-100152500D01*
G75*
G02*
X26910000Y-100402499I0J-249999D01*
G01*
X26910000Y-101027501D01*
G75*
G02*
X26660001Y-101277500I-249999J0D01*
G01*
X25409999Y-101277500D01*
G75*
G02*
X25160000Y-101027501I0J249999D01*
G01*
X25160000Y-100402499D01*
G75*
G02*
X25409999Y-100152500I249999J0D01*
G01*
G37*
%TD.AperFunction*%
%TO.P,R19,1*%
%TO.N,Net-(R19-Pad1)*%
%TA.AperFunction,SMDPad,CuDef*%
G36*
G01*
X25409999Y-97227500D02*
X26660001Y-97227500D01*
G75*
G02*
X26910000Y-97477499I0J-249999D01*
G01*
X26910000Y-98102501D01*
G75*
G02*
X26660001Y-98352500I-249999J0D01*
G01*
X25409999Y-98352500D01*
G75*
G02*
X25160000Y-98102501I0J249999D01*
G01*
X25160000Y-97477499D01*
G75*
G02*
X25409999Y-97227500I249999J0D01*
G01*
G37*
%TD.AperFunction*%
%TD*%
%TO.P,R18,2*%
%TO.N,/A2*%
%TA.AperFunction,SMDPad,CuDef*%
G36*
G01*
X27314999Y-106502500D02*
X28565001Y-106502500D01*
G75*
G02*
X28815000Y-106752499I0J-249999D01*
G01*
X28815000Y-107377501D01*
G75*
G02*
X28565001Y-107627500I-249999J0D01*
G01*
X27314999Y-107627500D01*
G75*
G02*
X27065000Y-107377501I0J249999D01*
G01*
X27065000Y-106752499D01*
G75*
G02*
X27314999Y-106502500I249999J0D01*
G01*
G37*
%TD.AperFunction*%
%TO.P,R18,1*%
%TO.N,Net-(R18-Pad1)*%
%TA.AperFunction,SMDPad,CuDef*%
G36*
G01*
X27314999Y-103577500D02*
X28565001Y-103577500D01*
G75*
G02*
X28815000Y-103827499I0J-249999D01*
G01*
X28815000Y-104452501D01*
G75*
G02*
X28565001Y-104702500I-249999J0D01*
G01*
X27314999Y-104702500D01*
G75*
G02*
X27065000Y-104452501I0J249999D01*
G01*
X27065000Y-103827499D01*
G75*
G02*
X27314999Y-103577500I249999J0D01*
G01*
G37*
%TD.AperFunction*%
%TD*%
%TO.P,R17,2*%
%TO.N,/A1*%
%TA.AperFunction,SMDPad,CuDef*%
G36*
G01*
X70307500Y-83048001D02*
X70307500Y-81797999D01*
G75*
G02*
X70557499Y-81548000I249999J0D01*
G01*
X71182501Y-81548000D01*
G75*
G02*
X71432500Y-81797999I0J-249999D01*
G01*
X71432500Y-83048001D01*
G75*
G02*
X71182501Y-83298000I-249999J0D01*
G01*
X70557499Y-83298000D01*
G75*
G02*
X70307500Y-83048001I0J249999D01*
G01*
G37*
%TD.AperFunction*%
%TO.P,R17,1*%
%TO.N,Net-(R17-Pad1)*%
%TA.AperFunction,SMDPad,CuDef*%
G36*
G01*
X67382500Y-83048001D02*
X67382500Y-81797999D01*
G75*
G02*
X67632499Y-81548000I249999J0D01*
G01*
X68257501Y-81548000D01*
G75*
G02*
X68507500Y-81797999I0J-249999D01*
G01*
X68507500Y-83048001D01*
G75*
G02*
X68257501Y-83298000I-249999J0D01*
G01*
X67632499Y-83298000D01*
G75*
G02*
X67382500Y-83048001I0J249999D01*
G01*
G37*
%TD.AperFunction*%
%TD*%
%TO.P,R16,2*%
%TO.N,/B1*%
%TA.AperFunction,SMDPad,CuDef*%
G36*
G01*
X70307500Y-80508001D02*
X70307500Y-79257999D01*
G75*
G02*
X70557499Y-79008000I249999J0D01*
G01*
X71182501Y-79008000D01*
G75*
G02*
X71432500Y-79257999I0J-249999D01*
G01*
X71432500Y-80508001D01*
G75*
G02*
X71182501Y-80758000I-249999J0D01*
G01*
X70557499Y-80758000D01*
G75*
G02*
X70307500Y-80508001I0J249999D01*
G01*
G37*
%TD.AperFunction*%
%TO.P,R16,1*%
%TO.N,Net-(R16-Pad1)*%
%TA.AperFunction,SMDPad,CuDef*%
G36*
G01*
X67382500Y-80508001D02*
X67382500Y-79257999D01*
G75*
G02*
X67632499Y-79008000I249999J0D01*
G01*
X68257501Y-79008000D01*
G75*
G02*
X68507500Y-79257999I0J-249999D01*
G01*
X68507500Y-80508001D01*
G75*
G02*
X68257501Y-80758000I-249999J0D01*
G01*
X67632499Y-80758000D01*
G75*
G02*
X67382500Y-80508001I0J249999D01*
G01*
G37*
%TD.AperFunction*%
%TD*%
%TO.P,R15,2*%
%TO.N,/C1*%
%TA.AperFunction,SMDPad,CuDef*%
G36*
G01*
X70307500Y-77968001D02*
X70307500Y-76717999D01*
G75*
G02*
X70557499Y-76468000I249999J0D01*
G01*
X71182501Y-76468000D01*
G75*
G02*
X71432500Y-76717999I0J-249999D01*
G01*
X71432500Y-77968001D01*
G75*
G02*
X71182501Y-78218000I-249999J0D01*
G01*
X70557499Y-78218000D01*
G75*
G02*
X70307500Y-77968001I0J249999D01*
G01*
G37*
%TD.AperFunction*%
%TO.P,R15,1*%
%TO.N,Net-(R15-Pad1)*%
%TA.AperFunction,SMDPad,CuDef*%
G36*
G01*
X67382500Y-77968001D02*
X67382500Y-76717999D01*
G75*
G02*
X67632499Y-76468000I249999J0D01*
G01*
X68257501Y-76468000D01*
G75*
G02*
X68507500Y-76717999I0J-249999D01*
G01*
X68507500Y-77968001D01*
G75*
G02*
X68257501Y-78218000I-249999J0D01*
G01*
X67632499Y-78218000D01*
G75*
G02*
X67382500Y-77968001I0J249999D01*
G01*
G37*
%TD.AperFunction*%
%TD*%
%TO.P,R14,2*%
%TO.N,/D1*%
%TA.AperFunction,SMDPad,CuDef*%
G36*
G01*
X70307500Y-75428001D02*
X70307500Y-74177999D01*
G75*
G02*
X70557499Y-73928000I249999J0D01*
G01*
X71182501Y-73928000D01*
G75*
G02*
X71432500Y-74177999I0J-249999D01*
G01*
X71432500Y-75428001D01*
G75*
G02*
X71182501Y-75678000I-249999J0D01*
G01*
X70557499Y-75678000D01*
G75*
G02*
X70307500Y-75428001I0J249999D01*
G01*
G37*
%TD.AperFunction*%
%TO.P,R14,1*%
%TO.N,Net-(R14-Pad1)*%
%TA.AperFunction,SMDPad,CuDef*%
G36*
G01*
X67382500Y-75428001D02*
X67382500Y-74177999D01*
G75*
G02*
X67632499Y-73928000I249999J0D01*
G01*
X68257501Y-73928000D01*
G75*
G02*
X68507500Y-74177999I0J-249999D01*
G01*
X68507500Y-75428001D01*
G75*
G02*
X68257501Y-75678000I-249999J0D01*
G01*
X67632499Y-75678000D01*
G75*
G02*
X67382500Y-75428001I0J249999D01*
G01*
G37*
%TD.AperFunction*%
%TD*%
%TO.P,R13,2*%
%TO.N,/E1*%
%TA.AperFunction,SMDPad,CuDef*%
G36*
G01*
X70307500Y-72888001D02*
X70307500Y-71637999D01*
G75*
G02*
X70557499Y-71388000I249999J0D01*
G01*
X71182501Y-71388000D01*
G75*
G02*
X71432500Y-71637999I0J-249999D01*
G01*
X71432500Y-72888001D01*
G75*
G02*
X71182501Y-73138000I-249999J0D01*
G01*
X70557499Y-73138000D01*
G75*
G02*
X70307500Y-72888001I0J249999D01*
G01*
G37*
%TD.AperFunction*%
%TO.P,R13,1*%
%TO.N,Net-(R13-Pad1)*%
%TA.AperFunction,SMDPad,CuDef*%
G36*
G01*
X67382500Y-72888001D02*
X67382500Y-71637999D01*
G75*
G02*
X67632499Y-71388000I249999J0D01*
G01*
X68257501Y-71388000D01*
G75*
G02*
X68507500Y-71637999I0J-249999D01*
G01*
X68507500Y-72888001D01*
G75*
G02*
X68257501Y-73138000I-249999J0D01*
G01*
X67632499Y-73138000D01*
G75*
G02*
X67382500Y-72888001I0J249999D01*
G01*
G37*
%TD.AperFunction*%
%TD*%
%TO.P,R12,2*%
%TO.N,/F1*%
%TA.AperFunction,SMDPad,CuDef*%
G36*
G01*
X66030001Y-66090500D02*
X64779999Y-66090500D01*
G75*
G02*
X64530000Y-65840501I0J249999D01*
G01*
X64530000Y-65215499D01*
G75*
G02*
X64779999Y-64965500I249999J0D01*
G01*
X66030001Y-64965500D01*
G75*
G02*
X66280000Y-65215499I0J-249999D01*
G01*
X66280000Y-65840501D01*
G75*
G02*
X66030001Y-66090500I-249999J0D01*
G01*
G37*
%TD.AperFunction*%
%TO.P,R12,1*%
%TO.N,Net-(R12-Pad1)*%
%TA.AperFunction,SMDPad,CuDef*%
G36*
G01*
X66030001Y-69015500D02*
X64779999Y-69015500D01*
G75*
G02*
X64530000Y-68765501I0J249999D01*
G01*
X64530000Y-68140499D01*
G75*
G02*
X64779999Y-67890500I249999J0D01*
G01*
X66030001Y-67890500D01*
G75*
G02*
X66280000Y-68140499I0J-249999D01*
G01*
X66280000Y-68765501D01*
G75*
G02*
X66030001Y-69015500I-249999J0D01*
G01*
G37*
%TD.AperFunction*%
%TD*%
%TO.P,R11,2*%
%TO.N,/G1*%
%TA.AperFunction,SMDPad,CuDef*%
G36*
G01*
X64125001Y-59740500D02*
X62874999Y-59740500D01*
G75*
G02*
X62625000Y-59490501I0J249999D01*
G01*
X62625000Y-58865499D01*
G75*
G02*
X62874999Y-58615500I249999J0D01*
G01*
X64125001Y-58615500D01*
G75*
G02*
X64375000Y-58865499I0J-249999D01*
G01*
X64375000Y-59490501D01*
G75*
G02*
X64125001Y-59740500I-249999J0D01*
G01*
G37*
%TD.AperFunction*%
%TO.P,R11,1*%
%TO.N,Net-(R11-Pad1)*%
%TA.AperFunction,SMDPad,CuDef*%
G36*
G01*
X64125001Y-62665500D02*
X62874999Y-62665500D01*
G75*
G02*
X62625000Y-62415501I0J249999D01*
G01*
X62625000Y-61790499D01*
G75*
G02*
X62874999Y-61540500I249999J0D01*
G01*
X64125001Y-61540500D01*
G75*
G02*
X64375000Y-61790499I0J-249999D01*
G01*
X64375000Y-62415501D01*
G75*
G02*
X64125001Y-62665500I-249999J0D01*
G01*
G37*
%TD.AperFunction*%
%TD*%
%TO.P,R10,2*%
%TO.N,/H1*%
%TA.AperFunction,SMDPad,CuDef*%
G36*
G01*
X62220001Y-66090500D02*
X60969999Y-66090500D01*
G75*
G02*
X60720000Y-65840501I0J249999D01*
G01*
X60720000Y-65215499D01*
G75*
G02*
X60969999Y-64965500I249999J0D01*
G01*
X62220001Y-64965500D01*
G75*
G02*
X62470000Y-65215499I0J-249999D01*
G01*
X62470000Y-65840501D01*
G75*
G02*
X62220001Y-66090500I-249999J0D01*
G01*
G37*
%TD.AperFunction*%
%TO.P,R10,1*%
%TO.N,Net-(R10-Pad1)*%
%TA.AperFunction,SMDPad,CuDef*%
G36*
G01*
X62220001Y-69015500D02*
X60969999Y-69015500D01*
G75*
G02*
X60720000Y-68765501I0J249999D01*
G01*
X60720000Y-68140499D01*
G75*
G02*
X60969999Y-67890500I249999J0D01*
G01*
X62220001Y-67890500D01*
G75*
G02*
X62470000Y-68140499I0J-249999D01*
G01*
X62470000Y-68765501D01*
G75*
G02*
X62220001Y-69015500I-249999J0D01*
G01*
G37*
%TD.AperFunction*%
%TD*%
%TO.P,R9,2*%
%TO.N,/J1*%
%TA.AperFunction,SMDPad,CuDef*%
G36*
G01*
X60315001Y-59740500D02*
X59064999Y-59740500D01*
G75*
G02*
X58815000Y-59490501I0J249999D01*
G01*
X58815000Y-58865499D01*
G75*
G02*
X59064999Y-58615500I249999J0D01*
G01*
X60315001Y-58615500D01*
G75*
G02*
X60565000Y-58865499I0J-249999D01*
G01*
X60565000Y-59490501D01*
G75*
G02*
X60315001Y-59740500I-249999J0D01*
G01*
G37*
%TD.AperFunction*%
%TO.P,R9,1*%
%TO.N,Net-(R9-Pad1)*%
%TA.AperFunction,SMDPad,CuDef*%
G36*
G01*
X60315001Y-62665500D02*
X59064999Y-62665500D01*
G75*
G02*
X58815000Y-62415501I0J249999D01*
G01*
X58815000Y-61790499D01*
G75*
G02*
X59064999Y-61540500I249999J0D01*
G01*
X60315001Y-61540500D01*
G75*
G02*
X60565000Y-61790499I0J-249999D01*
G01*
X60565000Y-62415501D01*
G75*
G02*
X60315001Y-62665500I-249999J0D01*
G01*
G37*
%TD.AperFunction*%
%TD*%
%TO.P,R8,2*%
%TO.N,/K1*%
%TA.AperFunction,SMDPad,CuDef*%
G36*
G01*
X58410001Y-66090500D02*
X57159999Y-66090500D01*
G75*
G02*
X56910000Y-65840501I0J249999D01*
G01*
X56910000Y-65215499D01*
G75*
G02*
X57159999Y-64965500I249999J0D01*
G01*
X58410001Y-64965500D01*
G75*
G02*
X58660000Y-65215499I0J-249999D01*
G01*
X58660000Y-65840501D01*
G75*
G02*
X58410001Y-66090500I-249999J0D01*
G01*
G37*
%TD.AperFunction*%
%TO.P,R8,1*%
%TO.N,Net-(R8-Pad1)*%
%TA.AperFunction,SMDPad,CuDef*%
G36*
G01*
X58410001Y-69015500D02*
X57159999Y-69015500D01*
G75*
G02*
X56910000Y-68765501I0J249999D01*
G01*
X56910000Y-68140499D01*
G75*
G02*
X57159999Y-67890500I249999J0D01*
G01*
X58410001Y-67890500D01*
G75*
G02*
X58660000Y-68140499I0J-249999D01*
G01*
X58660000Y-68765501D01*
G75*
G02*
X58410001Y-69015500I-249999J0D01*
G01*
G37*
%TD.AperFunction*%
%TD*%
%TO.P,R7,2*%
%TO.N,/L1*%
%TA.AperFunction,SMDPad,CuDef*%
G36*
G01*
X56505001Y-59740500D02*
X55254999Y-59740500D01*
G75*
G02*
X55005000Y-59490501I0J249999D01*
G01*
X55005000Y-58865499D01*
G75*
G02*
X55254999Y-58615500I249999J0D01*
G01*
X56505001Y-58615500D01*
G75*
G02*
X56755000Y-58865499I0J-249999D01*
G01*
X56755000Y-59490501D01*
G75*
G02*
X56505001Y-59740500I-249999J0D01*
G01*
G37*
%TD.AperFunction*%
%TO.P,R7,1*%
%TO.N,Net-(R7-Pad1)*%
%TA.AperFunction,SMDPad,CuDef*%
G36*
G01*
X56505001Y-62665500D02*
X55254999Y-62665500D01*
G75*
G02*
X55005000Y-62415501I0J249999D01*
G01*
X55005000Y-61790499D01*
G75*
G02*
X55254999Y-61540500I249999J0D01*
G01*
X56505001Y-61540500D01*
G75*
G02*
X56755000Y-61790499I0J-249999D01*
G01*
X56755000Y-62415501D01*
G75*
G02*
X56505001Y-62665500I-249999J0D01*
G01*
G37*
%TD.AperFunction*%
%TD*%
%TO.P,R6,2*%
%TO.N,/M1*%
%TA.AperFunction,SMDPad,CuDef*%
G36*
G01*
X53330001Y-66090500D02*
X52079999Y-66090500D01*
G75*
G02*
X51830000Y-65840501I0J249999D01*
G01*
X51830000Y-65215499D01*
G75*
G02*
X52079999Y-64965500I249999J0D01*
G01*
X53330001Y-64965500D01*
G75*
G02*
X53580000Y-65215499I0J-249999D01*
G01*
X53580000Y-65840501D01*
G75*
G02*
X53330001Y-66090500I-249999J0D01*
G01*
G37*
%TD.AperFunction*%
%TO.P,R6,1*%
%TO.N,Net-(R6-Pad1)*%
%TA.AperFunction,SMDPad,CuDef*%
G36*
G01*
X53330001Y-69015500D02*
X52079999Y-69015500D01*
G75*
G02*
X51830000Y-68765501I0J249999D01*
G01*
X51830000Y-68140499D01*
G75*
G02*
X52079999Y-67890500I249999J0D01*
G01*
X53330001Y-67890500D01*
G75*
G02*
X53580000Y-68140499I0J-249999D01*
G01*
X53580000Y-68765501D01*
G75*
G02*
X53330001Y-69015500I-249999J0D01*
G01*
G37*
%TD.AperFunction*%
%TD*%
%TO.P,R5,2*%
%TO.N,/N1*%
%TA.AperFunction,SMDPad,CuDef*%
G36*
G01*
X51425001Y-59740500D02*
X50174999Y-59740500D01*
G75*
G02*
X49925000Y-59490501I0J249999D01*
G01*
X49925000Y-58865499D01*
G75*
G02*
X50174999Y-58615500I249999J0D01*
G01*
X51425001Y-58615500D01*
G75*
G02*
X51675000Y-58865499I0J-249999D01*
G01*
X51675000Y-59490501D01*
G75*
G02*
X51425001Y-59740500I-249999J0D01*
G01*
G37*
%TD.AperFunction*%
%TO.P,R5,1*%
%TO.N,Net-(R5-Pad1)*%
%TA.AperFunction,SMDPad,CuDef*%
G36*
G01*
X51425001Y-62665500D02*
X50174999Y-62665500D01*
G75*
G02*
X49925000Y-62415501I0J249999D01*
G01*
X49925000Y-61790499D01*
G75*
G02*
X50174999Y-61540500I249999J0D01*
G01*
X51425001Y-61540500D01*
G75*
G02*
X51675000Y-61790499I0J-249999D01*
G01*
X51675000Y-62415501D01*
G75*
G02*
X51425001Y-62665500I-249999J0D01*
G01*
G37*
%TD.AperFunction*%
%TD*%
%TO.P,R4,2*%
%TO.N,/P1*%
%TA.AperFunction,SMDPad,CuDef*%
G36*
G01*
X49520001Y-66090500D02*
X48269999Y-66090500D01*
G75*
G02*
X48020000Y-65840501I0J249999D01*
G01*
X48020000Y-65215499D01*
G75*
G02*
X48269999Y-64965500I249999J0D01*
G01*
X49520001Y-64965500D01*
G75*
G02*
X49770000Y-65215499I0J-249999D01*
G01*
X49770000Y-65840501D01*
G75*
G02*
X49520001Y-66090500I-249999J0D01*
G01*
G37*
%TD.AperFunction*%
%TO.P,R4,1*%
%TO.N,Net-(R4-Pad1)*%
%TA.AperFunction,SMDPad,CuDef*%
G36*
G01*
X49520001Y-69015500D02*
X48269999Y-69015500D01*
G75*
G02*
X48020000Y-68765501I0J249999D01*
G01*
X48020000Y-68140499D01*
G75*
G02*
X48269999Y-67890500I249999J0D01*
G01*
X49520001Y-67890500D01*
G75*
G02*
X49770000Y-68140499I0J-249999D01*
G01*
X49770000Y-68765501D01*
G75*
G02*
X49520001Y-69015500I-249999J0D01*
G01*
G37*
%TD.AperFunction*%
%TD*%
%TO.P,R3,2*%
%TO.N,/Q1*%
%TA.AperFunction,SMDPad,CuDef*%
G36*
G01*
X47615001Y-59740500D02*
X46364999Y-59740500D01*
G75*
G02*
X46115000Y-59490501I0J249999D01*
G01*
X46115000Y-58865499D01*
G75*
G02*
X46364999Y-58615500I249999J0D01*
G01*
X47615001Y-58615500D01*
G75*
G02*
X47865000Y-58865499I0J-249999D01*
G01*
X47865000Y-59490501D01*
G75*
G02*
X47615001Y-59740500I-249999J0D01*
G01*
G37*
%TD.AperFunction*%
%TO.P,R3,1*%
%TO.N,Net-(R3-Pad1)*%
%TA.AperFunction,SMDPad,CuDef*%
G36*
G01*
X47615001Y-62665500D02*
X46364999Y-62665500D01*
G75*
G02*
X46115000Y-62415501I0J249999D01*
G01*
X46115000Y-61790499D01*
G75*
G02*
X46364999Y-61540500I249999J0D01*
G01*
X47615001Y-61540500D01*
G75*
G02*
X47865000Y-61790499I0J-249999D01*
G01*
X47865000Y-62415501D01*
G75*
G02*
X47615001Y-62665500I-249999J0D01*
G01*
G37*
%TD.AperFunction*%
%TD*%
%TO.P,R2,2*%
%TO.N,/DP1*%
%TA.AperFunction,SMDPad,CuDef*%
G36*
G01*
X45710001Y-66090500D02*
X44459999Y-66090500D01*
G75*
G02*
X44210000Y-65840501I0J249999D01*
G01*
X44210000Y-65215499D01*
G75*
G02*
X44459999Y-64965500I249999J0D01*
G01*
X45710001Y-64965500D01*
G75*
G02*
X45960000Y-65215499I0J-249999D01*
G01*
X45960000Y-65840501D01*
G75*
G02*
X45710001Y-66090500I-249999J0D01*
G01*
G37*
%TD.AperFunction*%
%TO.P,R2,1*%
%TO.N,Net-(R2-Pad1)*%
%TA.AperFunction,SMDPad,CuDef*%
G36*
G01*
X45710001Y-69015500D02*
X44459999Y-69015500D01*
G75*
G02*
X44210000Y-68765501I0J249999D01*
G01*
X44210000Y-68140499D01*
G75*
G02*
X44459999Y-67890500I249999J0D01*
G01*
X45710001Y-67890500D01*
G75*
G02*
X45960000Y-68140499I0J-249999D01*
G01*
X45960000Y-68765501D01*
G75*
G02*
X45710001Y-69015500I-249999J0D01*
G01*
G37*
%TD.AperFunction*%
%TD*%
%TO.P,R1,2*%
%TO.N,/DOT1*%
%TA.AperFunction,SMDPad,CuDef*%
G36*
G01*
X43805001Y-59740500D02*
X42554999Y-59740500D01*
G75*
G02*
X42305000Y-59490501I0J249999D01*
G01*
X42305000Y-58865499D01*
G75*
G02*
X42554999Y-58615500I249999J0D01*
G01*
X43805001Y-58615500D01*
G75*
G02*
X44055000Y-58865499I0J-249999D01*
G01*
X44055000Y-59490501D01*
G75*
G02*
X43805001Y-59740500I-249999J0D01*
G01*
G37*
%TD.AperFunction*%
%TO.P,R1,1*%
%TO.N,Net-(R1-Pad1)*%
%TA.AperFunction,SMDPad,CuDef*%
G36*
G01*
X43805001Y-62665500D02*
X42554999Y-62665500D01*
G75*
G02*
X42305000Y-62415501I0J249999D01*
G01*
X42305000Y-61790499D01*
G75*
G02*
X42554999Y-61540500I249999J0D01*
G01*
X43805001Y-61540500D01*
G75*
G02*
X44055000Y-61790499I0J-249999D01*
G01*
X44055000Y-62415501D01*
G75*
G02*
X43805001Y-62665500I-249999J0D01*
G01*
G37*
%TD.AperFunction*%
%TD*%
D10*
%TO.P,J7,33*%
%TO.N,/COM15-2*%
X-15900000Y-138430000D03*
%TO.P,J7,32*%
%TO.N,/COM14-2*%
X-15900000Y-135890000D03*
%TO.P,J7,31*%
%TO.N,/COM13-2*%
X-15900000Y-133350000D03*
%TO.P,J7,30*%
%TO.N,/COM12-2*%
X-15900000Y-130810000D03*
%TO.P,J7,29*%
%TO.N,/A2*%
X-15900000Y-128270000D03*
%TO.P,J7,28*%
%TO.N,/B2*%
X-15900000Y-125730000D03*
%TO.P,J7,27*%
%TO.N,/C2*%
X-15900000Y-123190000D03*
%TO.P,J7,26*%
%TO.N,/D2*%
X-15900000Y-120650000D03*
%TO.P,J7,25*%
%TO.N,/L2*%
X-15900000Y-118110000D03*
%TO.P,J7,24*%
%TO.N,/COM11-2*%
X-15900000Y-115570000D03*
%TO.P,J7,23*%
%TO.N,/COM10-2*%
X-15900000Y-113030000D03*
%TO.P,J7,22*%
%TO.N,/COM9-2*%
X-15900000Y-110490000D03*
%TO.P,J7,21*%
%TO.N,/COM8-2*%
X-15900000Y-107950000D03*
%TO.P,J7,20*%
%TO.N,/E2*%
X-15900000Y-105410000D03*
%TO.P,J7,19*%
%TO.N,/G2*%
X-15900000Y-102870000D03*
%TO.P,J7,18*%
%TO.N,/Q2*%
X-15900000Y-100330000D03*
%TO.P,J7,17*%
%TO.N,/J2*%
X-15900000Y-97790000D03*
%TO.P,J7,16*%
%TO.N,/COM7-2*%
X-15900000Y-95250000D03*
%TO.P,J7,15*%
%TO.N,/COM6-2*%
X-15900000Y-92710000D03*
%TO.P,J7,14*%
%TO.N,/COM5-2*%
X-15900000Y-90170000D03*
%TO.P,J7,13*%
%TO.N,/COM4-2*%
X-15900000Y-87630000D03*
%TO.P,J7,12*%
%TO.N,/K2*%
X-15900000Y-85090000D03*
%TO.P,J7,11*%
%TO.N,/F2*%
X-15900000Y-82550000D03*
%TO.P,J7,10*%
%TO.N,/M2*%
X-15900000Y-80010000D03*
%TO.P,J7,9*%
%TO.N,/N2*%
X-15900000Y-77470000D03*
%TO.P,J7,8*%
%TO.N,/P2*%
X-15900000Y-74930000D03*
%TO.P,J7,7*%
%TO.N,/H2*%
X-15900000Y-72390000D03*
%TO.P,J7,6*%
%TO.N,/DP2*%
X-15900000Y-69850000D03*
%TO.P,J7,5*%
%TO.N,/DOT2*%
X-15900000Y-67310000D03*
%TO.P,J7,4*%
%TO.N,/COM3-2*%
X-15900000Y-64770000D03*
%TO.P,J7,3*%
%TO.N,/COM2-2*%
X-15900000Y-62230000D03*
%TO.P,J7,2*%
%TO.N,/COM1-2*%
X-15900000Y-59690000D03*
D11*
%TO.P,J7,1*%
%TO.N,/COM0-2*%
X-15900000Y-57150000D03*
%TD*%
D10*
%TO.P,J5,9*%
%TO.N,/ROW4*%
X125070000Y-118110000D03*
%TO.P,J5,8*%
%TO.N,/ROW3*%
X125070000Y-115570000D03*
%TO.P,J5,7*%
%TO.N,/ROW2*%
X125070000Y-113030000D03*
%TO.P,J5,6*%
%TO.N,/ROW1*%
X125070000Y-110490000D03*
%TO.P,J5,5*%
%TO.N,/ROW0*%
X125070000Y-107950000D03*
%TO.P,J5,4*%
%TO.N,/COL1*%
X125070000Y-105410000D03*
%TO.P,J5,3*%
%TO.N,/COL2*%
X125070000Y-102870000D03*
%TO.P,J5,2*%
%TO.N,/COL3*%
X125070000Y-100330000D03*
D11*
%TO.P,J5,1*%
%TO.N,/COL4*%
X125070000Y-97790000D03*
%TD*%
D10*
%TO.P,J3,3*%
%TO.N,/GND*%
X125070000Y-90170000D03*
%TO.P,J3,2*%
%TO.N,/LEDPWM*%
X125070000Y-87630000D03*
D11*
%TO.P,J3,1*%
%TO.N,/3.3V*%
X125070000Y-85090000D03*
%TD*%
D10*
%TO.P,J1,9*%
%TO.N,/GND*%
X50419000Y-112395000D03*
%TO.P,J1,8*%
%TO.N,/SW18*%
X52959000Y-112395000D03*
%TO.P,J1,7*%
%TO.N,/SW19*%
X55499000Y-112395000D03*
%TO.P,J1,6*%
%TO.N,/SW20*%
X58039000Y-112395000D03*
%TO.P,J1,5*%
%TO.N,/SW21*%
X60579000Y-112395000D03*
%TO.P,J1,4*%
%TO.N,/SW22*%
X63119000Y-112395000D03*
%TO.P,J1,3*%
%TO.N,/SW23*%
X65659000Y-112395000D03*
%TO.P,J1,2*%
%TO.N,/SW24*%
X68199000Y-112395000D03*
D11*
%TO.P,J1,1*%
%TO.N,/LEDPWM*%
X70739000Y-112395000D03*
%TD*%
%TO.P,C2,2*%
%TO.N,/GND*%
%TA.AperFunction,SMDPad,CuDef*%
G36*
G01*
X11032500Y-73107500D02*
X10557500Y-73107500D01*
G75*
G02*
X10320000Y-72870000I0J237500D01*
G01*
X10320000Y-72270000D01*
G75*
G02*
X10557500Y-72032500I237500J0D01*
G01*
X11032500Y-72032500D01*
G75*
G02*
X11270000Y-72270000I0J-237500D01*
G01*
X11270000Y-72870000D01*
G75*
G02*
X11032500Y-73107500I-237500J0D01*
G01*
G37*
%TD.AperFunction*%
%TO.P,C2,1*%
%TO.N,/3.3V*%
%TA.AperFunction,SMDPad,CuDef*%
G36*
G01*
X11032500Y-74832500D02*
X10557500Y-74832500D01*
G75*
G02*
X10320000Y-74595000I0J237500D01*
G01*
X10320000Y-73995000D01*
G75*
G02*
X10557500Y-73757500I237500J0D01*
G01*
X11032500Y-73757500D01*
G75*
G02*
X11270000Y-73995000I0J-237500D01*
G01*
X11270000Y-74595000D01*
G75*
G02*
X11032500Y-74832500I-237500J0D01*
G01*
G37*
%TD.AperFunction*%
%TD*%
%TO.P,C1,2*%
%TO.N,/GND*%
%TA.AperFunction,SMDPad,CuDef*%
G36*
G01*
X59452500Y-93135500D02*
X59927500Y-93135500D01*
G75*
G02*
X60165000Y-93373000I0J-237500D01*
G01*
X60165000Y-93973000D01*
G75*
G02*
X59927500Y-94210500I-237500J0D01*
G01*
X59452500Y-94210500D01*
G75*
G02*
X59215000Y-93973000I0J237500D01*
G01*
X59215000Y-93373000D01*
G75*
G02*
X59452500Y-93135500I237500J0D01*
G01*
G37*
%TD.AperFunction*%
%TO.P,C1,1*%
%TO.N,/3.3V*%
%TA.AperFunction,SMDPad,CuDef*%
G36*
G01*
X59452500Y-91410500D02*
X59927500Y-91410500D01*
G75*
G02*
X60165000Y-91648000I0J-237500D01*
G01*
X60165000Y-92248000D01*
G75*
G02*
X59927500Y-92485500I-237500J0D01*
G01*
X59452500Y-92485500D01*
G75*
G02*
X59215000Y-92248000I0J237500D01*
G01*
X59215000Y-91648000D01*
G75*
G02*
X59452500Y-91410500I237500J0D01*
G01*
G37*
%TD.AperFunction*%
%TD*%
D14*
%TO.N,/GND*%
X19812000Y-86360000D03*
X13208000Y-86360000D03*
X12875000Y-74650000D03*
X25750000Y-91090000D03*
X43815004Y-74803000D03*
X79121020Y-123825000D03*
X115390000Y-129085000D03*
X94795000Y-129085000D03*
X10160000Y-118110000D03*
X3810000Y-113030000D03*
X57465990Y-92709991D03*
D15*
%TO.N,/3.3V*%
X44449994Y-80518000D03*
X59593400Y-79090600D03*
D14*
X86868000Y-73152000D03*
X89535000Y-126365000D03*
D15*
X49800000Y-82153000D03*
D14*
%TO.N,/LEDPWM*%
X116713000Y-108585000D03*
X80264000Y-120904000D03*
%TO.N,/COL1*%
X120015000Y-98425000D03*
%TO.N,/COL2*%
X119380000Y-95250026D03*
%TO.N,/COL3*%
X119380000Y-92710012D03*
%TO.N,/COL4*%
X120015000Y-90805010D03*
D15*
%TO.N,/H2*%
X13335000Y-102870000D03*
X-2540000Y-85725000D03*
X-2540000Y-93980000D03*
X3175000Y-99695000D03*
%TO.N,/K2*%
X9525000Y-102870000D03*
X3175000Y-104140000D03*
%TO.N,/L2*%
X5330000Y-107065000D03*
X0Y-112395000D03*
%TO.N,/Q2*%
X-4445014Y-88900000D03*
%TO.N,/COM15-2*%
X7620000Y-76835000D03*
%TO.N,/COM14-2*%
X8255000Y-74930000D03*
%TO.N,/COM13-2*%
X12065000Y-81280001D03*
X-9525000Y-129540000D03*
%TO.N,/COM12-2*%
X15239984Y-80644988D03*
%TO.N,/COM11-2*%
X13970000Y-73025000D03*
%TO.N,/COM10-2*%
X15240000Y-72390000D03*
%TO.N,/COM9-2*%
X16510000Y-73025000D03*
%TO.N,/COM8-2*%
X17780000Y-72390000D03*
%TO.N,/COM7-2*%
X-25000Y-79375000D03*
%TO.N,/COM6-2*%
X-1295000Y-78105000D03*
%TO.N,/COM5-2*%
X-2552500Y-76822500D03*
%TO.N,/COM4-2*%
X-3822500Y-75552500D03*
%TO.N,/COM9-1*%
X43815000Y-72898010D03*
X52705000Y-86360008D03*
%TO.N,/COM10-1*%
X41275010Y-71628000D03*
X54417138Y-86858961D03*
%TO.N,/COM11-1*%
X55245000Y-90678000D03*
X39369992Y-70358000D03*
%TO.N,/COM12-1*%
X56567605Y-90659875D03*
X38735000Y-74803000D03*
%TO.N,/COM13-1*%
X58420000Y-86360000D03*
X35779010Y-73660000D03*
%TO.N,/COM14-1*%
X61595000Y-90170000D03*
X34290006Y-75565000D03*
%TO.N,/F1*%
X65405000Y-59309002D03*
%TO.N,/E1*%
X67818000Y-64008000D03*
%TO.N,/CS1*%
X52705000Y-75438000D03*
%TO.N,/RD*%
X35840855Y-87020172D03*
X36830008Y-82550000D03*
%TO.N,/WR*%
X33655000Y-88090000D03*
X34036000Y-82931000D03*
%TO.N,/DATA*%
X30925000Y-89090000D03*
X32003996Y-82804000D03*
%TO.N,/OSC*%
X30139587Y-82404648D03*
X27478996Y-90090000D03*
%TO.N,/SRMISO*%
X83058000Y-114046000D03*
%TO.N,/SRCS*%
X84328000Y-111252010D03*
%TO.N,/Analog7*%
X96520000Y-117475000D03*
%TO.N,/Analog6*%
X98425000Y-117475000D03*
%TO.N,/Analog5*%
X100330000Y-117475000D03*
%TO.N,/Analog4*%
X102235000Y-117475000D03*
%TO.N,/Analog3*%
X104140000Y-117475000D03*
%TO.N,/Analog2*%
X106045000Y-117475000D03*
%TO.N,/Analog1*%
X107950000Y-117475000D03*
%TD*%
D16*
%TO.N,/GND*%
X15240000Y-82550000D02*
X20315000Y-82550000D01*
X22775000Y-80090000D02*
X23550000Y-80090000D01*
X12875000Y-80185000D02*
X15240000Y-82550000D01*
X20315000Y-82550000D02*
X22775000Y-80090000D01*
X12875000Y-77415000D02*
X12875000Y-80185000D01*
X12875000Y-74650000D02*
X12875000Y-74650000D01*
X12875000Y-77415000D02*
X12875000Y-74650000D01*
X12875000Y-74650000D02*
X10795000Y-72570000D01*
X23550000Y-91090000D02*
X25750000Y-91090000D01*
X25750000Y-91090000D02*
X25750000Y-91090000D01*
X46585000Y-74803000D02*
X43815004Y-74803000D01*
X46935000Y-75153000D02*
X46585000Y-74803000D01*
D17*
X77544000Y-123825000D02*
X79121020Y-123825000D01*
X13208000Y-86360000D02*
X19812000Y-86360000D01*
D16*
X113030000Y-129085000D02*
X110490000Y-129085000D01*
X110490000Y-129085000D02*
X107950000Y-129085000D01*
X107950000Y-129085000D02*
X105410000Y-129085000D01*
X105410000Y-129085000D02*
X102870000Y-129085000D01*
X102870000Y-129085000D02*
X100330000Y-129085000D01*
X100330000Y-129085000D02*
X97790000Y-129085000D01*
X97790000Y-129085000D02*
X94795000Y-129085000D01*
X113030000Y-129085000D02*
X115390000Y-129085000D01*
X115390000Y-129085000D02*
X115390000Y-129085000D01*
X94795000Y-129085000D02*
X94795000Y-129085000D01*
D17*
X10160000Y-118110000D02*
X8890000Y-118110000D01*
X8890000Y-118110000D02*
X3810000Y-113030000D01*
D16*
X57610000Y-88828000D02*
X57610000Y-92565981D01*
X59690000Y-93673000D02*
X58428999Y-93673000D01*
X58428999Y-93673000D02*
X57465990Y-92709991D01*
X57610000Y-92565981D02*
X57465990Y-92709991D01*
X47015000Y-86233000D02*
X46935000Y-86153000D01*
X50755190Y-84328000D02*
X48850190Y-86233000D01*
X54483000Y-84328000D02*
X50755190Y-84328000D01*
X57610000Y-87455000D02*
X54483000Y-84328000D01*
X48850190Y-86233000D02*
X47015000Y-86233000D01*
X57610000Y-88828000D02*
X57610000Y-87455000D01*
%TO.N,/3.3V*%
X15875000Y-92135800D02*
X15875000Y-92765000D01*
X10875000Y-87135800D02*
X15875000Y-92135800D01*
X10875000Y-77415000D02*
X10875000Y-87135800D01*
X10875000Y-74375000D02*
X10795000Y-74295000D01*
X10875000Y-77415000D02*
X10875000Y-74375000D01*
X54610000Y-74107200D02*
X54610000Y-73478000D01*
X59610000Y-79107200D02*
X59593400Y-79090600D01*
X59610000Y-88828000D02*
X59610000Y-79107200D01*
X59610000Y-91868000D02*
X59690000Y-91948000D01*
X59610000Y-88828000D02*
X59610000Y-91868000D01*
D17*
X115545000Y-75565000D02*
X125070000Y-85090000D01*
X109855000Y-75565000D02*
X115545000Y-75565000D01*
D16*
X59593400Y-79090600D02*
X54610000Y-74107200D01*
D17*
X75814000Y-123820000D02*
X75819000Y-123825000D01*
X72385000Y-123820000D02*
X75814000Y-123820000D01*
D16*
X23550000Y-84090000D02*
X12368002Y-84090000D01*
X12368002Y-84090000D02*
X10875000Y-82596998D01*
X10875000Y-82596998D02*
X10875000Y-77415000D01*
D17*
X98080000Y-139065000D02*
X100620000Y-139065000D01*
X100620000Y-139065000D02*
X103160000Y-139065000D01*
X103160000Y-139065000D02*
X105700000Y-139065000D01*
X105700000Y-139065000D02*
X108240000Y-139065000D01*
X108240000Y-139065000D02*
X110780000Y-139065000D01*
X110780000Y-139065000D02*
X113320000Y-139065000D01*
X89535000Y-130520000D02*
X89535000Y-126365000D01*
X98080000Y-139065000D02*
X89535000Y-130520000D01*
X117348000Y-73762000D02*
X115545000Y-75565000D01*
X117348000Y-70104000D02*
X117348000Y-73762000D01*
X113284000Y-66040000D02*
X117348000Y-70104000D01*
X93980000Y-66040000D02*
X113284000Y-66040000D01*
X86868000Y-73152000D02*
X93980000Y-66040000D01*
D16*
X44325993Y-80393999D02*
X44449994Y-80518000D01*
X41526001Y-80393999D02*
X44325993Y-80393999D01*
X37830000Y-84090000D02*
X41526001Y-80393999D01*
X23550000Y-84090000D02*
X37830000Y-84090000D01*
X49800000Y-82153000D02*
X46935000Y-82153000D01*
X59610000Y-88828000D02*
X59610000Y-83613000D01*
X59610000Y-83613000D02*
X58150000Y-82153000D01*
X58150000Y-82153000D02*
X49800000Y-82153000D01*
D17*
%TO.N,/SW18*%
X52955000Y-112399000D02*
X52959000Y-112395000D01*
X52955000Y-122940000D02*
X52955000Y-112399000D01*
%TO.N,/SW19*%
X55495000Y-112399000D02*
X55499000Y-112395000D01*
X55495000Y-122940000D02*
X55495000Y-112399000D01*
%TO.N,/SW20*%
X58035000Y-112399000D02*
X58039000Y-112395000D01*
X58035000Y-122940000D02*
X58035000Y-112399000D01*
%TO.N,/SW21*%
X61087000Y-112903000D02*
X60579000Y-112395000D01*
X61087000Y-114427000D02*
X61087000Y-112903000D01*
X61715000Y-115055000D02*
X61087000Y-114427000D01*
X61715000Y-122940000D02*
X61715000Y-115055000D01*
%TO.N,/SW22*%
X63627000Y-112903000D02*
X63119000Y-112395000D01*
X63627000Y-114173000D02*
X63627000Y-112903000D01*
X64255000Y-114801000D02*
X63627000Y-114173000D01*
X64255000Y-122940000D02*
X64255000Y-114801000D01*
%TO.N,/SW23*%
X66167000Y-113919000D02*
X66167000Y-112903000D01*
X66795000Y-114547000D02*
X66167000Y-113919000D01*
X66167000Y-112903000D02*
X65659000Y-112395000D01*
X66795000Y-122940000D02*
X66795000Y-114547000D01*
%TO.N,/SW24*%
X68199000Y-113531000D02*
X68199000Y-112395000D01*
X69335000Y-114667000D02*
X68199000Y-113531000D01*
X69335000Y-122940000D02*
X69335000Y-114667000D01*
%TO.N,/LEDPWM*%
X116713000Y-108585000D02*
X116713000Y-108585000D01*
X121731020Y-103566980D02*
X116713000Y-108585000D01*
X121731020Y-90968980D02*
X121731020Y-103566980D01*
X125070000Y-87630000D02*
X121731020Y-90968980D01*
X116713000Y-108585000D02*
X115127500Y-108585000D01*
X71755000Y-112395000D02*
X80264000Y-120904000D01*
X70739000Y-112395000D02*
X71755000Y-112395000D01*
%TO.N,/ROW4*%
X117450000Y-125730000D02*
X125070000Y-118110000D01*
X91948000Y-125730000D02*
X117450000Y-125730000D01*
X87630000Y-121412000D02*
X91948000Y-125730000D01*
X87630000Y-107950000D02*
X87630000Y-121412000D01*
X94615000Y-100965000D02*
X87630000Y-107950000D01*
%TO.N,/ROW3*%
X92710000Y-124460000D02*
X116180000Y-124460000D01*
X88900000Y-120650000D02*
X92710000Y-124460000D01*
X116180000Y-124460000D02*
X125070000Y-115570000D01*
X88900000Y-109220000D02*
X88900000Y-120650000D01*
X94615000Y-103505000D02*
X88900000Y-109220000D01*
%TO.N,/ROW2*%
X114910000Y-123190000D02*
X125070000Y-113030000D01*
X93345000Y-123190000D02*
X114910000Y-123190000D01*
X90170000Y-120015000D02*
X93345000Y-123190000D01*
X90170000Y-110490000D02*
X90170000Y-120015000D01*
X94615000Y-106045000D02*
X90170000Y-110490000D01*
%TO.N,/ROW1*%
X113640000Y-121920000D02*
X125070000Y-110490000D01*
X93893436Y-121920000D02*
X113640000Y-121920000D01*
X91440000Y-119466564D02*
X93893436Y-121920000D01*
X91440000Y-111760000D02*
X91440000Y-119466564D01*
X94615000Y-108585000D02*
X91440000Y-111760000D01*
%TO.N,/ROW0*%
X94256179Y-120650000D02*
X112370000Y-120650000D01*
X92710000Y-113030000D02*
X92710000Y-119103821D01*
X112370000Y-120650000D02*
X125070000Y-107950000D01*
X92710000Y-119103821D02*
X94256179Y-120650000D01*
X94615000Y-111125000D02*
X92710000Y-113030000D01*
%TO.N,/COL1*%
X109855000Y-88265000D02*
X118745000Y-97155000D01*
X118745000Y-97155000D02*
X120015000Y-98425000D01*
%TO.N,/COL2*%
X109855000Y-85725000D02*
X118745000Y-94615000D01*
X118745000Y-94615000D02*
X119380000Y-95250000D01*
X119380000Y-95250000D02*
X119380000Y-95250026D01*
%TO.N,/COL3*%
X119380000Y-92710000D02*
X119380000Y-92710012D01*
X109855000Y-83185000D02*
X119380000Y-92710000D01*
%TO.N,/COL4*%
X109855000Y-80645000D02*
X119380000Y-90170000D01*
X119380000Y-90170000D02*
X120015000Y-90805000D01*
X120015000Y-90805000D02*
X120015000Y-90805010D01*
D16*
%TO.N,/A2*%
X-14664001Y-127034001D02*
X-15900000Y-128270000D01*
X11395999Y-127034001D02*
X-14664001Y-127034001D01*
X27940000Y-110490000D02*
X11395999Y-127034001D01*
X27940000Y-107065000D02*
X27940000Y-110490000D01*
%TO.N,/B2*%
X10160000Y-125730000D02*
X-15900000Y-125730000D01*
X26035000Y-109855000D02*
X10160000Y-125730000D01*
X26035000Y-100715000D02*
X26035000Y-109855000D01*
%TO.N,/C2*%
X10160000Y-123190000D02*
X-15900000Y-123190000D01*
X24130000Y-109220000D02*
X10160000Y-123190000D01*
X24130000Y-107065000D02*
X24130000Y-109220000D01*
%TO.N,/D2*%
X10160000Y-120650000D02*
X-15900000Y-120650000D01*
X22225000Y-108585000D02*
X10160000Y-120650000D01*
X22225000Y-100715000D02*
X22225000Y-108585000D01*
%TO.N,/E2*%
X-10185000Y-111125000D02*
X-15900000Y-105410000D01*
X16260000Y-111125000D02*
X-10185000Y-111125000D01*
X20320000Y-107065000D02*
X16260000Y-111125000D01*
%TO.N,/F2*%
X18415000Y-103201561D02*
X18415000Y-100715000D01*
X16206561Y-105410000D02*
X18415000Y-103201561D01*
X6479971Y-105410000D02*
X16206561Y-105410000D01*
X2144507Y-102799039D02*
X3869010Y-102799039D01*
X3869010Y-102799039D02*
X6479971Y-105410000D01*
X-12700000Y-85725000D02*
X-12700000Y-87954532D01*
X-12700000Y-87954532D02*
X2144507Y-102799039D01*
X-15875000Y-82550000D02*
X-12700000Y-85725000D01*
X-15900000Y-82550000D02*
X-15875000Y-82550000D01*
%TO.N,/G2*%
X-8915000Y-109855000D02*
X-15900000Y-102870000D01*
X12450000Y-109855000D02*
X-8915000Y-109855000D01*
X15240000Y-107065000D02*
X12450000Y-109855000D01*
%TO.N,/H2*%
X13335000Y-100715000D02*
X13335000Y-102870000D01*
X13335000Y-102870000D02*
X13335000Y-102870000D01*
X-15875000Y-72390000D02*
X-15900000Y-72390000D01*
X-2540000Y-85725000D02*
X-15875000Y-72390000D01*
X3175000Y-99695000D02*
X-2540000Y-93980000D01*
%TO.N,/J2*%
X-5105000Y-108585000D02*
X-15900000Y-97790000D01*
X9910000Y-108585000D02*
X-5105000Y-108585000D01*
X11430000Y-107065000D02*
X9910000Y-108585000D01*
%TO.N,/K2*%
X9525000Y-100715000D02*
X9525000Y-102870000D01*
X9525000Y-102870000D02*
X9525000Y-102870000D01*
X-13970000Y-87020000D02*
X-15900000Y-85090000D01*
X-13970000Y-88265000D02*
X-13970000Y-87020000D01*
X1905000Y-104140000D02*
X-13970000Y-88265000D01*
X3175000Y-104140000D02*
X1905000Y-104140000D01*
%TO.N,/L2*%
X7620000Y-107065000D02*
X5330000Y-107065000D01*
X5330000Y-107065000D02*
X5330000Y-107065000D01*
X-5715000Y-118110000D02*
X0Y-112395000D01*
X-15900000Y-118110000D02*
X-5715000Y-118110000D01*
%TO.N,/M2*%
X2540000Y-101600000D02*
X4830000Y-101600000D01*
X4830000Y-101600000D02*
X5715000Y-100715000D01*
X-11430000Y-87630000D02*
X2540000Y-101600000D01*
X-15900000Y-80019079D02*
X-11430000Y-84489079D01*
X-15900000Y-80010000D02*
X-15900000Y-80019079D01*
X-11430000Y-84489079D02*
X-11430000Y-87630000D01*
%TO.N,/N2*%
X-385000Y-92075000D02*
X885000Y-93345000D01*
X-10160000Y-86995000D02*
X-5080000Y-92075000D01*
X-10160000Y-83185000D02*
X-10160000Y-86995000D01*
X-10185000Y-83185000D02*
X-10160000Y-83185000D01*
X-5080000Y-92075000D02*
X-385000Y-92075000D01*
X-15900000Y-77470000D02*
X-10185000Y-83185000D01*
%TO.N,/P2*%
X250000Y-90170000D02*
X885000Y-90805000D01*
X-5221924Y-90170000D02*
X250000Y-90170000D01*
X-8890000Y-86501924D02*
X-5221924Y-90170000D01*
X-8890000Y-81940000D02*
X-8890000Y-86501924D01*
X-15900000Y-74930000D02*
X-8890000Y-81940000D01*
%TO.N,/Q2*%
X885000Y-88265000D02*
X-3810014Y-88265000D01*
X-3810014Y-88265000D02*
X-4445014Y-88900000D01*
%TO.N,/DP2*%
X-25000Y-85725000D02*
X-15900000Y-69850000D01*
X885000Y-85725000D02*
X-25000Y-85725000D01*
%TO.N,/DOT2*%
X-25000Y-83185000D02*
X-15900000Y-67310000D01*
X885000Y-83185000D02*
X-25000Y-83185000D01*
%TO.N,/COM15-2*%
X6985000Y-77470000D02*
X7620000Y-76835000D01*
X6985000Y-78740000D02*
X6985000Y-77470000D01*
X7335000Y-79090000D02*
X6985000Y-78740000D01*
X8200000Y-79090000D02*
X7335000Y-79090000D01*
%TO.N,/COM14-2*%
X9875000Y-77415000D02*
X9875000Y-76550000D01*
X9875000Y-76550000D02*
X8255000Y-74930000D01*
X8255000Y-74930000D02*
X8255000Y-74930000D01*
%TO.N,/COM13-2*%
X11875000Y-77415000D02*
X11875000Y-81090001D01*
X11875000Y-81090001D02*
X12065000Y-81280001D01*
X-15900000Y-133350000D02*
X-13335000Y-133350000D01*
X-13335000Y-133350000D02*
X-9525000Y-129540000D01*
%TO.N,/COM12-2*%
X13875000Y-79280004D02*
X15239984Y-80644988D01*
X13875000Y-77415000D02*
X13875000Y-79280004D01*
%TO.N,/COM11-2*%
X14875000Y-73930000D02*
X14875000Y-77415000D01*
X13970000Y-73025000D02*
X14875000Y-73930000D01*
%TO.N,/COM10-2*%
X15240000Y-73166922D02*
X15240000Y-72390000D01*
X15875000Y-73801922D02*
X15240000Y-73166922D01*
X15875000Y-77415000D02*
X15875000Y-73801922D01*
%TO.N,/COM9-2*%
X16875000Y-73390000D02*
X16875000Y-77415000D01*
X16510000Y-73025000D02*
X16875000Y-73390000D01*
%TO.N,/COM8-2*%
X17780000Y-77320000D02*
X17875000Y-77415000D01*
X17780000Y-72390000D02*
X17780000Y-77320000D01*
%TO.N,/COM7-2*%
X18875000Y-71580000D02*
X18875000Y-77415000D01*
X15875000Y-68580000D02*
X18875000Y-71580000D01*
X10770000Y-68580000D02*
X15875000Y-68580000D01*
X-25000Y-79375000D02*
X10770000Y-68580000D01*
%TO.N,/COM6-2*%
X19875000Y-74740000D02*
X19875000Y-77415000D01*
X20955000Y-73660000D02*
X19875000Y-74740000D01*
X20955000Y-71755000D02*
X20955000Y-73660000D01*
X16510000Y-67310000D02*
X20955000Y-71755000D01*
X9500000Y-67310000D02*
X16510000Y-67310000D01*
X-1295000Y-78105000D02*
X9500000Y-67310000D01*
%TO.N,/COM5-2*%
X20955000Y-77335000D02*
X20875000Y-77415000D01*
X20955000Y-75565000D02*
X20955000Y-77335000D01*
X22225000Y-71120000D02*
X22225000Y-74295000D01*
X17145000Y-66040000D02*
X22225000Y-71120000D01*
X22225000Y-74295000D02*
X20955000Y-75565000D01*
X8230000Y-66040000D02*
X17145000Y-66040000D01*
X-2552500Y-76822500D02*
X8230000Y-66040000D01*
%TO.N,/COM4-2*%
X24765000Y-74525000D02*
X21875000Y-77415000D01*
X24765000Y-71755000D02*
X24765000Y-74525000D01*
X17780000Y-64770000D02*
X24765000Y-71755000D01*
X6985000Y-64770000D02*
X17780000Y-64770000D01*
X4445000Y-67310000D02*
X6985000Y-64770000D01*
X4420000Y-67310000D02*
X4445000Y-67310000D01*
X-3822500Y-75552500D02*
X4420000Y-67310000D01*
%TO.N,/COM3-2*%
X23550000Y-79090000D02*
X26035000Y-76605000D01*
X26035000Y-76605000D02*
X26035000Y-71120000D01*
X26035000Y-71120000D02*
X18415000Y-63500000D01*
X18415000Y-63500000D02*
X-14630000Y-63500000D01*
X-14630000Y-63500000D02*
X-15900000Y-64770000D01*
%TO.N,/COM2-2*%
X26225000Y-81090000D02*
X23550000Y-81090000D01*
X27305000Y-80010000D02*
X26225000Y-81090000D01*
X27305000Y-70485000D02*
X27305000Y-80010000D01*
X18415000Y-61595000D02*
X27305000Y-70485000D01*
X-15265000Y-61595000D02*
X18415000Y-61595000D01*
X-15900000Y-62230000D02*
X-15265000Y-61595000D01*
%TO.N,/COM1-2*%
X26495000Y-82090000D02*
X23550000Y-82090000D01*
X28648010Y-79936990D02*
X26495000Y-82090000D01*
X28648010Y-69923010D02*
X28648010Y-79936990D01*
X18415000Y-59690000D02*
X28648010Y-69923010D01*
X-15900000Y-59690000D02*
X18415000Y-59690000D01*
%TO.N,/COM0-2*%
X29845000Y-80645000D02*
X27400000Y-83090000D01*
X17413722Y-57150000D02*
X29845000Y-69581278D01*
X-15900000Y-57150000D02*
X17413722Y-57150000D01*
X27400000Y-83090000D02*
X23550000Y-83090000D01*
X29845000Y-69581278D02*
X29845000Y-80645000D01*
%TO.N,/COM0-1*%
X42545000Y-84963000D02*
X44355000Y-83153000D01*
X42545000Y-92837000D02*
X42545000Y-84963000D01*
X52832000Y-103124000D02*
X42545000Y-92837000D01*
X62738000Y-103124000D02*
X52832000Y-103124000D01*
X44355000Y-83153000D02*
X46935000Y-83153000D01*
X84836000Y-81026000D02*
X62738000Y-103124000D01*
X84836000Y-58649000D02*
X92685000Y-50800000D01*
X84836000Y-81026000D02*
X84836000Y-58649000D01*
%TO.N,/COM1-1*%
X45260000Y-84153000D02*
X46935000Y-84153000D01*
X43815000Y-85598000D02*
X45260000Y-84153000D01*
X43815000Y-92837000D02*
X43815000Y-85598000D01*
X53086000Y-102108000D02*
X43815000Y-92837000D01*
X62484000Y-102108000D02*
X53086000Y-102108000D01*
X83820000Y-80772000D02*
X62484000Y-102108000D01*
X83820000Y-57125000D02*
X90145000Y-50800000D01*
X83820000Y-80772000D02*
X83820000Y-57125000D01*
%TO.N,/COM2-1*%
X46160000Y-85153000D02*
X46935000Y-85153000D01*
X53340000Y-101092000D02*
X45527500Y-93279500D01*
X62230000Y-101092000D02*
X53340000Y-101092000D01*
X82804000Y-80518000D02*
X62230000Y-101092000D01*
X45527500Y-85785500D02*
X46160000Y-85153000D01*
X45527500Y-93279500D02*
X45527500Y-85785500D01*
X82804000Y-55601000D02*
X87605000Y-50800000D01*
X82804000Y-80518000D02*
X82804000Y-55601000D01*
%TO.N,/COM3-1*%
X53594000Y-100076000D02*
X46935000Y-93417000D01*
X61976000Y-100076000D02*
X53594000Y-100076000D01*
X81788000Y-80264000D02*
X61976000Y-100076000D01*
X46935000Y-93417000D02*
X46935000Y-87153000D01*
X81788000Y-54077000D02*
X85065000Y-50800000D01*
X81788000Y-80264000D02*
X81788000Y-54077000D01*
%TO.N,/COM4-1*%
X48610000Y-93822000D02*
X48610000Y-88828000D01*
X53848000Y-99060000D02*
X48610000Y-93822000D01*
X61722000Y-99060000D02*
X53848000Y-99060000D01*
X80772000Y-80010000D02*
X61722000Y-99060000D01*
X80772000Y-52553000D02*
X82525000Y-50800000D01*
X80772000Y-80010000D02*
X80772000Y-52553000D01*
%TO.N,/COM5-1*%
X49610000Y-93488500D02*
X49610000Y-88828000D01*
X61468000Y-98044000D02*
X54165500Y-98044000D01*
X54165500Y-98044000D02*
X49610000Y-93488500D01*
X79756000Y-79756000D02*
X61468000Y-98044000D01*
X79756000Y-51029000D02*
X79985000Y-50800000D01*
X79756000Y-79756000D02*
X79756000Y-51029000D01*
%TO.N,/COM6-1*%
X50610000Y-93028000D02*
X50610000Y-88828000D01*
X54610000Y-97028000D02*
X50610000Y-93028000D01*
X61214000Y-97028000D02*
X54610000Y-97028000D01*
X78740000Y-79502000D02*
X61214000Y-97028000D01*
X78740000Y-52095000D02*
X77445000Y-50800000D01*
X78740000Y-79502000D02*
X78740000Y-52095000D01*
%TO.N,/COM7-1*%
X51435000Y-90043000D02*
X51610000Y-89868000D01*
X54864000Y-96012000D02*
X51435000Y-92583000D01*
X51435000Y-92583000D02*
X51435000Y-90043000D01*
X60960000Y-96012000D02*
X54864000Y-96012000D01*
X51610000Y-89868000D02*
X51610000Y-88828000D01*
X77724000Y-79248000D02*
X60960000Y-96012000D01*
X77724000Y-53619000D02*
X74905000Y-50800000D01*
X77724000Y-79248000D02*
X77724000Y-53619000D01*
%TO.N,/COM8-1*%
X76835000Y-55270000D02*
X72365000Y-50800000D01*
X76835000Y-78819561D02*
X76835000Y-55270000D01*
X60531561Y-95123000D02*
X76835000Y-78819561D01*
X55245000Y-95123000D02*
X60531561Y-95123000D01*
X52610000Y-92488000D02*
X55245000Y-95123000D01*
X52610000Y-88828000D02*
X52610000Y-92488000D01*
%TO.N,/COM9-1*%
X41910000Y-70993010D02*
X43815000Y-72898010D01*
X41910000Y-66065000D02*
X41910000Y-70993010D01*
X26645000Y-50800000D02*
X41910000Y-66065000D01*
X53610000Y-88828000D02*
X53610000Y-87265008D01*
X53610000Y-87265008D02*
X52705000Y-86360008D01*
%TO.N,/COM10-1*%
X40566990Y-67261990D02*
X24105000Y-50800000D01*
X40566990Y-70919980D02*
X40566990Y-67261990D01*
X41275010Y-71628000D02*
X40566990Y-70919980D01*
X54610000Y-88828000D02*
X54610000Y-87051823D01*
X54610000Y-87051823D02*
X54417138Y-86858961D01*
%TO.N,/COM11-1*%
X55610000Y-90313000D02*
X55245000Y-90678000D01*
X55610000Y-88828000D02*
X55610000Y-90313000D01*
X38735000Y-69723008D02*
X39369992Y-70358000D01*
X21565000Y-51283000D02*
X21565000Y-50800000D01*
X38735000Y-68453000D02*
X21565000Y-51283000D01*
X38735000Y-69723008D02*
X38735000Y-68453000D01*
%TO.N,/COM12-1*%
X56610000Y-90617480D02*
X56567605Y-90659875D01*
X56610000Y-88828000D02*
X56610000Y-90617480D01*
X37391989Y-73459989D02*
X38735000Y-74803000D01*
X37391989Y-69166989D02*
X19025000Y-50800000D01*
X37391989Y-73459989D02*
X37391989Y-69166989D01*
%TO.N,/COM13-1*%
X58610000Y-86550000D02*
X58420000Y-86360000D01*
X58610000Y-88828000D02*
X58610000Y-86550000D01*
X35779010Y-70704010D02*
X35779010Y-73660000D01*
X16510000Y-51435000D02*
X35779010Y-70704010D01*
X16510000Y-50163899D02*
X16510000Y-51435000D01*
X19683899Y-46990000D02*
X16510000Y-50163899D01*
X29210000Y-46990000D02*
X19683899Y-46990000D01*
%TO.N,/COM14-1*%
X61595000Y-89813000D02*
X60610000Y-88828000D01*
X61595000Y-90170000D02*
X61595000Y-89813000D01*
X29210000Y-44450000D02*
X20320000Y-44450000D01*
X20320000Y-44450000D02*
X15240000Y-49530000D01*
X15240000Y-49530000D02*
X15240000Y-52070000D01*
X15240000Y-52070000D02*
X34290006Y-71120006D01*
X34290006Y-71120006D02*
X34290006Y-75565000D01*
%TO.N,/DOT1*%
X29185000Y-51025000D02*
X29185000Y-50800000D01*
X37563000Y-59178000D02*
X29185000Y-50800000D01*
X43180000Y-59178000D02*
X37563000Y-59178000D01*
%TO.N,/DP1*%
X32335078Y-50800000D02*
X31725000Y-50800000D01*
X45085000Y-65528000D02*
X45085000Y-58547000D01*
X45085000Y-58547000D02*
X44196000Y-57658000D01*
X38583000Y-57658000D02*
X31725000Y-50800000D01*
X44196000Y-57658000D02*
X38583000Y-57658000D01*
D17*
X31725000Y-47015000D02*
X31750000Y-46990000D01*
X31725000Y-50800000D02*
X31725000Y-47015000D01*
X31750000Y-46990000D02*
X31750000Y-44450000D01*
D16*
%TO.N,/Q1*%
X46990000Y-59178000D02*
X46990000Y-57683000D01*
X46990000Y-57683000D02*
X45695000Y-56388000D01*
X39853000Y-56388000D02*
X34265000Y-50800000D01*
X45695000Y-56388000D02*
X39853000Y-56388000D01*
D17*
X34265000Y-47015000D02*
X34290000Y-46990000D01*
X34265000Y-50800000D02*
X34265000Y-47015000D01*
X34290000Y-46990000D02*
X34290000Y-44450000D01*
D16*
%TO.N,/P1*%
X48895000Y-65528000D02*
X48895000Y-58039000D01*
X48895000Y-58039000D02*
X46228000Y-55372000D01*
X41377000Y-55372000D02*
X36805000Y-50800000D01*
X46228000Y-55372000D02*
X41377000Y-55372000D01*
D17*
X36805000Y-47015000D02*
X36830000Y-46990000D01*
X36805000Y-50800000D02*
X36805000Y-47015000D01*
X36830000Y-46990000D02*
X36830000Y-44450000D01*
D16*
%TO.N,/N1*%
X50800000Y-59178000D02*
X50800000Y-58674000D01*
X50800000Y-58674000D02*
X46736000Y-54610000D01*
X43155000Y-54610000D02*
X39345000Y-50800000D01*
X46736000Y-54610000D02*
X43155000Y-54610000D01*
D17*
X39345000Y-47015000D02*
X39370000Y-46990000D01*
X39345000Y-50800000D02*
X39345000Y-47015000D01*
X39370000Y-44450000D02*
X39370000Y-46990000D01*
D16*
%TO.N,/M1*%
X44933000Y-53848000D02*
X41885000Y-50800000D01*
X47498000Y-53848000D02*
X44933000Y-53848000D01*
X52705000Y-59055000D02*
X47498000Y-53848000D01*
X52705000Y-65528000D02*
X52705000Y-59055000D01*
D17*
X41910000Y-44450000D02*
X41910000Y-46990000D01*
X41910000Y-50775000D02*
X41885000Y-50800000D01*
X41910000Y-46990000D02*
X41910000Y-50775000D01*
D16*
%TO.N,/L1*%
X48327872Y-53032011D02*
X46657011Y-53032011D01*
X46657011Y-53032011D02*
X44425000Y-50800000D01*
X54473861Y-59178000D02*
X48327872Y-53032011D01*
X55880000Y-59178000D02*
X54473861Y-59178000D01*
D17*
X44425000Y-47015000D02*
X44450000Y-46990000D01*
X44425000Y-50800000D02*
X44425000Y-47015000D01*
X44450000Y-46990000D02*
X44450000Y-44450000D01*
D16*
%TO.N,/K1*%
X47498000Y-50800000D02*
X46965000Y-50800000D01*
X54356000Y-57658000D02*
X47498000Y-50800000D01*
X56896000Y-57658000D02*
X54356000Y-57658000D01*
X57785000Y-58547000D02*
X56896000Y-57658000D01*
X57785000Y-65528000D02*
X57785000Y-58547000D01*
D17*
X46990000Y-44450000D02*
X46990000Y-46990000D01*
X46990000Y-50775000D02*
X46965000Y-50800000D01*
X46990000Y-46990000D02*
X46990000Y-50775000D01*
D16*
%TO.N,/J1*%
X55347000Y-56642000D02*
X49505000Y-50800000D01*
X57406000Y-56642000D02*
X55347000Y-56642000D01*
X59690000Y-59178000D02*
X59690000Y-58926000D01*
X59690000Y-58926000D02*
X57406000Y-56642000D01*
D17*
X49505000Y-47015000D02*
X49530000Y-46990000D01*
X49505000Y-50800000D02*
X49505000Y-47015000D01*
X49530000Y-46990000D02*
X49530000Y-44450000D01*
D16*
%TO.N,/H1*%
X56871000Y-55626000D02*
X52045000Y-50800000D01*
X58420000Y-55626000D02*
X56871000Y-55626000D01*
X61595000Y-58801000D02*
X58420000Y-55626000D01*
X61595000Y-65528000D02*
X61595000Y-58801000D01*
D17*
X52045000Y-47015000D02*
X52070000Y-46990000D01*
X52045000Y-50800000D02*
X52045000Y-47015000D01*
X52070000Y-46990000D02*
X52070000Y-44450000D01*
D16*
%TO.N,/G1*%
X63500000Y-54635000D02*
X59665000Y-50800000D01*
X63500000Y-59178000D02*
X63500000Y-54635000D01*
D17*
X59665000Y-47015000D02*
X59690000Y-46990000D01*
X59665000Y-50800000D02*
X59665000Y-47015000D01*
X59690000Y-46990000D02*
X59690000Y-44450000D01*
D16*
%TO.N,/F1*%
X65405000Y-65528000D02*
X65405000Y-64965500D01*
X65405000Y-64965500D02*
X65405000Y-59309002D01*
D17*
X57125000Y-47015000D02*
X57150000Y-46990000D01*
X57125000Y-50800000D02*
X57125000Y-47015000D01*
X57150000Y-46990000D02*
X57150000Y-44450000D01*
D16*
%TO.N,/E1*%
X67818000Y-69211000D02*
X67818000Y-64008000D01*
X70870000Y-72263000D02*
X67818000Y-69211000D01*
D17*
X54585000Y-47015000D02*
X54610000Y-46990000D01*
X54585000Y-50800000D02*
X54585000Y-47015000D01*
X54610000Y-46990000D02*
X54610000Y-44450000D01*
D16*
%TO.N,/D1*%
X70870000Y-74803000D02*
X71886510Y-73786490D01*
X71886510Y-60481510D02*
X62205000Y-50800000D01*
X71886510Y-73786490D02*
X71886510Y-60481510D01*
D17*
X62205000Y-47015000D02*
X62230000Y-46990000D01*
X62205000Y-50800000D02*
X62205000Y-47015000D01*
X62230000Y-46990000D02*
X62230000Y-44450000D01*
D16*
%TO.N,/C1*%
X70870000Y-77343000D02*
X73025000Y-75188000D01*
X73025000Y-59080000D02*
X64745000Y-50800000D01*
X73025000Y-75188000D02*
X73025000Y-59080000D01*
D17*
X64745000Y-47015000D02*
X64770000Y-46990000D01*
X64745000Y-50800000D02*
X64745000Y-47015000D01*
X64770000Y-46990000D02*
X64770000Y-44450000D01*
D16*
%TO.N,/B1*%
X70870000Y-79883000D02*
X74295000Y-76458000D01*
X74295000Y-57810000D02*
X67285000Y-50800000D01*
X74295000Y-76458000D02*
X74295000Y-57810000D01*
D17*
X67285000Y-47015000D02*
X67310000Y-46990000D01*
X67285000Y-50800000D02*
X67285000Y-47015000D01*
X67310000Y-46990000D02*
X67310000Y-44450000D01*
D16*
%TO.N,/A1*%
X70870000Y-82423000D02*
X75565000Y-77728000D01*
X75565000Y-56540000D02*
X69825000Y-50800000D01*
X75565000Y-77728000D02*
X75565000Y-56540000D01*
D17*
X69825000Y-47015000D02*
X69850000Y-46990000D01*
X69825000Y-50800000D02*
X69825000Y-47015000D01*
X69850000Y-46990000D02*
X69850000Y-44450000D01*
D16*
%TO.N,Net-(R1-Pad1)*%
X43180000Y-69088000D02*
X47570000Y-73478000D01*
X47570000Y-73478000D02*
X48610000Y-73478000D01*
X43180000Y-62103000D02*
X43180000Y-69088000D01*
%TO.N,Net-(R2-Pad1)*%
X49610000Y-72848800D02*
X49610000Y-73478000D01*
X45214200Y-68453000D02*
X49610000Y-72848800D01*
X45085000Y-68453000D02*
X45214200Y-68453000D01*
%TO.N,Net-(R3-Pad1)*%
X46990000Y-68453000D02*
X46990000Y-62103000D01*
X47565990Y-69028990D02*
X46990000Y-68453000D01*
X47565990Y-69057112D02*
X47565990Y-69028990D01*
X47978388Y-69469510D02*
X47565990Y-69057112D01*
X48006510Y-69469510D02*
X47978388Y-69469510D01*
X50610000Y-72073000D02*
X48006510Y-69469510D01*
X50610000Y-73478000D02*
X50610000Y-72073000D01*
%TO.N,Net-(R4-Pad1)*%
X51610000Y-71168000D02*
X48895000Y-68453000D01*
X51610000Y-73478000D02*
X51610000Y-71168000D01*
%TO.N,Net-(R5-Pad1)*%
X50800000Y-69088000D02*
X50800000Y-62103000D01*
X52610000Y-70898000D02*
X50800000Y-69088000D01*
X52610000Y-73478000D02*
X52610000Y-70898000D01*
%TO.N,Net-(R6-Pad1)*%
X53610000Y-69358000D02*
X52705000Y-68453000D01*
X53610000Y-73478000D02*
X53610000Y-69358000D01*
%TO.N,Net-(R7-Pad1)*%
X55610000Y-69358000D02*
X55610000Y-73478000D01*
X55880000Y-69088000D02*
X55610000Y-69358000D01*
X55880000Y-69088000D02*
X55880000Y-62103000D01*
%TO.N,Net-(R8-Pad1)*%
X57785000Y-68453000D02*
X57785000Y-69723000D01*
X56610000Y-70898000D02*
X56610000Y-73478000D01*
X57785000Y-69723000D02*
X56610000Y-70898000D01*
%TO.N,Net-(R9-Pad1)*%
X57610000Y-71436724D02*
X57610000Y-73478000D01*
X59690000Y-69356724D02*
X57610000Y-71436724D01*
X59690000Y-69356724D02*
X59690000Y-62103000D01*
%TO.N,Net-(R10-Pad1)*%
X58610000Y-71438000D02*
X58610000Y-73478000D01*
X61595000Y-68453000D02*
X58610000Y-71438000D01*
%TO.N,Net-(R11-Pad1)*%
X59610000Y-72371122D02*
X59610000Y-73478000D01*
X63500000Y-68481122D02*
X59610000Y-72371122D01*
X63500000Y-68481122D02*
X63500000Y-62103000D01*
%TO.N,Net-(R12-Pad1)*%
X60610000Y-73248000D02*
X60610000Y-73478000D01*
X65405000Y-68453000D02*
X60610000Y-73248000D01*
%TO.N,Net-(R13-Pad1)*%
X65055000Y-75153000D02*
X67945000Y-72263000D01*
X62285000Y-75153000D02*
X65055000Y-75153000D01*
%TO.N,Net-(R14-Pad1)*%
X66595000Y-76153000D02*
X62285000Y-76153000D01*
X67945000Y-74803000D02*
X66595000Y-76153000D01*
%TO.N,Net-(R15-Pad1)*%
X67755000Y-77153000D02*
X67945000Y-77343000D01*
X62285000Y-77153000D02*
X67755000Y-77153000D01*
%TO.N,Net-(R16-Pad1)*%
X66215000Y-78153000D02*
X62285000Y-78153000D01*
X67945000Y-79883000D02*
X66215000Y-78153000D01*
%TO.N,Net-(R17-Pad1)*%
X64675000Y-79153000D02*
X62285000Y-79153000D01*
X67945000Y-82423000D02*
X64675000Y-79153000D01*
%TO.N,Net-(R18-Pad1)*%
X27940000Y-104140000D02*
X27940000Y-97155000D01*
X23550000Y-92765000D02*
X21875000Y-92765000D01*
X27940000Y-97155000D02*
X23550000Y-92765000D01*
%TO.N,Net-(R19-Pad1)*%
X20875000Y-93900000D02*
X20875000Y-92765000D01*
X21907500Y-94932500D02*
X20875000Y-93900000D01*
X23812500Y-94932500D02*
X21907500Y-94932500D01*
X26035000Y-97155000D02*
X23812500Y-94932500D01*
X26035000Y-97790000D02*
X26035000Y-97155000D01*
%TO.N,Net-(R20-Pad1)*%
X24130000Y-104140000D02*
X24130000Y-97155000D01*
X24130000Y-97155000D02*
X22860000Y-95885000D01*
X22860000Y-95885000D02*
X21590000Y-95885000D01*
X19875000Y-94170000D02*
X19875000Y-92765000D01*
X21590000Y-95885000D02*
X19875000Y-94170000D01*
%TO.N,Net-(R21-Pad1)*%
X18875000Y-94440000D02*
X18875000Y-92765000D01*
X22225000Y-97790000D02*
X18875000Y-94440000D01*
%TO.N,Net-(R22-Pad1)*%
X20320000Y-104140000D02*
X20320000Y-97155000D01*
X17875000Y-94710000D02*
X17875000Y-92765000D01*
X20320000Y-97155000D02*
X17875000Y-94710000D01*
%TO.N,Net-(R23-Pad1)*%
X16875000Y-92765000D02*
X16875000Y-94980000D01*
X18415000Y-96520000D02*
X18415000Y-97790000D01*
X16875000Y-94980000D02*
X18415000Y-96520000D01*
%TO.N,Net-(R24-Pad1)*%
X14875000Y-93394200D02*
X14875000Y-92765000D01*
X15240000Y-93759200D02*
X14875000Y-93394200D01*
X15240000Y-104140000D02*
X15240000Y-93759200D01*
%TO.N,Net-(R25-Pad1)*%
X13875000Y-97250000D02*
X13875000Y-92765000D01*
X13335000Y-97790000D02*
X13875000Y-97250000D01*
%TO.N,Net-(R26-Pad1)*%
X12875000Y-94171276D02*
X12875000Y-92765000D01*
X11430000Y-95616276D02*
X12875000Y-94171276D01*
X11430000Y-104140000D02*
X11430000Y-95616276D01*
%TO.N,Net-(R27-Pad1)*%
X11875000Y-92765000D02*
X11875000Y-94170000D01*
X9525000Y-96520000D02*
X9525000Y-97790000D01*
X11875000Y-94170000D02*
X9525000Y-96520000D01*
%TO.N,Net-(R28-Pad1)*%
X10875000Y-93631276D02*
X10875000Y-92765000D01*
X7620000Y-96886276D02*
X10875000Y-93631276D01*
X7620000Y-104140000D02*
X7620000Y-96886276D01*
%TO.N,Net-(R29-Pad1)*%
X9875000Y-93630000D02*
X5715000Y-97790000D01*
X9875000Y-92765000D02*
X9875000Y-93630000D01*
%TO.N,Net-(R30-Pad1)*%
X6065000Y-91090000D02*
X3810000Y-93345000D01*
X8200000Y-91090000D02*
X6065000Y-91090000D01*
%TO.N,Net-(R31-Pad1)*%
X4525000Y-90090000D02*
X8200000Y-90090000D01*
X3810000Y-90805000D02*
X4525000Y-90090000D01*
%TO.N,Net-(R32-Pad1)*%
X4635000Y-89090000D02*
X8200000Y-89090000D01*
X3810000Y-88265000D02*
X4635000Y-89090000D01*
%TO.N,Net-(R33-Pad1)*%
X6175000Y-88090000D02*
X8200000Y-88090000D01*
X3810000Y-85725000D02*
X6175000Y-88090000D01*
%TO.N,Net-(R34-Pad1)*%
X7570800Y-87090000D02*
X8200000Y-87090000D01*
X3810000Y-83329200D02*
X7570800Y-87090000D01*
X3810000Y-83185000D02*
X3810000Y-83329200D01*
%TO.N,Net-(R35-Pad2)*%
X109855000Y-108585000D02*
X112202500Y-108585000D01*
%TO.N,/SYNC*%
X23550000Y-85090000D02*
X24325000Y-85090000D01*
X45525000Y-81788000D02*
X46160000Y-81153000D01*
X43310039Y-81788000D02*
X45525000Y-81788000D01*
X40008039Y-85090000D02*
X43310039Y-81788000D01*
X46160000Y-81153000D02*
X46935000Y-81153000D01*
X23550000Y-85090000D02*
X40008039Y-85090000D01*
%TO.N,/CS1*%
X46935000Y-80153000D02*
X47990000Y-80153000D01*
X47990000Y-80153000D02*
X52705000Y-75438000D01*
%TO.N,/RD*%
X42005000Y-79153000D02*
X42005000Y-79153000D01*
X23844000Y-87090000D02*
X23876000Y-87122000D01*
X23550000Y-87090000D02*
X23844000Y-87090000D01*
X35771027Y-87090000D02*
X35840855Y-87020172D01*
X23550000Y-87090000D02*
X35771027Y-87090000D01*
X64262000Y-105918000D02*
X94615000Y-75565000D01*
X36830000Y-91186000D02*
X51562000Y-105918000D01*
X51562000Y-105918000D02*
X64262000Y-105918000D01*
X36830000Y-88009317D02*
X36830000Y-91186000D01*
X35840855Y-87020172D02*
X36830000Y-88009317D01*
X40227008Y-79153000D02*
X36830008Y-82550000D01*
X46935000Y-79153000D02*
X40227008Y-79153000D01*
%TO.N,/WR*%
X40465000Y-78153000D02*
X40465000Y-78153000D01*
X33655000Y-88090000D02*
X33655000Y-88090000D01*
X23550000Y-88090000D02*
X33655000Y-88090000D01*
X65532000Y-107188000D02*
X94615000Y-78105000D01*
X50800000Y-107188000D02*
X65532000Y-107188000D01*
X34925000Y-91313000D02*
X50800000Y-107188000D01*
X34925000Y-89360000D02*
X34925000Y-91313000D01*
X33655000Y-88090000D02*
X34925000Y-89360000D01*
X38814000Y-78153000D02*
X34036000Y-82931000D01*
X46935000Y-78153000D02*
X38814000Y-78153000D01*
%TO.N,/DATA*%
X38925000Y-77153000D02*
X38925000Y-77153000D01*
X23550000Y-89090000D02*
X30925000Y-89090000D01*
X66802000Y-108458000D02*
X94615000Y-80645000D01*
X50293000Y-108458000D02*
X66802000Y-108458000D01*
X30925000Y-89090000D02*
X50293000Y-108458000D01*
X46935000Y-77153000D02*
X37654996Y-77153000D01*
X37654996Y-77153000D02*
X32003996Y-82804000D01*
%TO.N,/OSC*%
X30139587Y-82364688D02*
X30139587Y-82404648D01*
X36351275Y-76153000D02*
X30139587Y-82364688D01*
X46935000Y-76153000D02*
X36351275Y-76153000D01*
X23550000Y-90090000D02*
X27478996Y-90090000D01*
%TO.N,/CS2*%
X89154000Y-78486000D02*
X94615000Y-73025000D01*
X62992000Y-104648000D02*
X89154000Y-78486000D01*
X38354000Y-87122000D02*
X38354000Y-90932000D01*
X52070000Y-104648000D02*
X62992000Y-104648000D01*
X37322000Y-86090000D02*
X38354000Y-87122000D01*
X38354000Y-90932000D02*
X52070000Y-104648000D01*
X23550000Y-86090000D02*
X37322000Y-86090000D01*
D17*
%TO.N,/DIN17*%
X28067000Y-139663000D02*
X33819000Y-145415000D01*
X28067000Y-121031000D02*
X28067000Y-139663000D01*
X33655000Y-115443000D02*
X28067000Y-121031000D01*
X42918000Y-115443000D02*
X33655000Y-115443000D01*
X50415000Y-122940000D02*
X42918000Y-115443000D01*
%TO.N,/DIN16*%
X29591000Y-138647000D02*
X36359000Y-145415000D01*
X29591000Y-121539000D02*
X29591000Y-138647000D01*
X34163000Y-116967000D02*
X29591000Y-121539000D01*
X40762000Y-116967000D02*
X34163000Y-116967000D01*
X46735000Y-122940000D02*
X40762000Y-116967000D01*
%TO.N,/DIN15*%
X31115000Y-137631000D02*
X38899000Y-145415000D01*
X31115000Y-122047000D02*
X31115000Y-137631000D01*
X34671000Y-118491000D02*
X31115000Y-122047000D01*
X39746000Y-118491000D02*
X34671000Y-118491000D01*
X44195000Y-122940000D02*
X39746000Y-118491000D01*
%TO.N,/DIN14*%
X32639000Y-136615000D02*
X41439000Y-145415000D01*
X35179000Y-120015000D02*
X32639000Y-122555000D01*
X38730000Y-120015000D02*
X35179000Y-120015000D01*
X32639000Y-122555000D02*
X32639000Y-136615000D01*
X41655000Y-122940000D02*
X38730000Y-120015000D01*
%TO.N,/DIN13*%
X34163000Y-135599000D02*
X43979000Y-145415000D01*
X34163000Y-123063000D02*
X34163000Y-135599000D01*
X35687000Y-121539000D02*
X34163000Y-123063000D01*
X37714000Y-121539000D02*
X35687000Y-121539000D01*
X39115000Y-122940000D02*
X37714000Y-121539000D01*
%TO.N,/DIN12*%
X74459000Y-139994000D02*
X69335000Y-134870000D01*
X74459000Y-145415000D02*
X74459000Y-139994000D01*
%TO.N,/DIN11*%
X71919000Y-139994000D02*
X66795000Y-134870000D01*
X71919000Y-145415000D02*
X71919000Y-139994000D01*
%TO.N,/DIN10*%
X69379000Y-139994000D02*
X64255000Y-134870000D01*
X69379000Y-145415000D02*
X69379000Y-139994000D01*
%TO.N,/DIN9*%
X66839000Y-139994000D02*
X61715000Y-134870000D01*
X66839000Y-145415000D02*
X66839000Y-139994000D01*
%TO.N,/DIN8*%
X64299000Y-141134000D02*
X58035000Y-134870000D01*
X64299000Y-145415000D02*
X64299000Y-141134000D01*
%TO.N,/DIN7*%
X61759000Y-141134000D02*
X55495000Y-134870000D01*
X61759000Y-145415000D02*
X61759000Y-141134000D01*
%TO.N,/DIN6*%
X59219000Y-141134000D02*
X52955000Y-134870000D01*
X59219000Y-145415000D02*
X59219000Y-141134000D01*
%TO.N,/DIN5*%
X56679000Y-141134000D02*
X50415000Y-134870000D01*
X56679000Y-145415000D02*
X56679000Y-141134000D01*
%TO.N,/DIN4*%
X54139000Y-142274000D02*
X46735000Y-134870000D01*
X54139000Y-145415000D02*
X54139000Y-142274000D01*
%TO.N,/DIN3*%
X51599000Y-142274000D02*
X44195000Y-134870000D01*
X51599000Y-145415000D02*
X51599000Y-142274000D01*
%TO.N,/DIN2*%
X49059000Y-142274000D02*
X41655000Y-134870000D01*
X49059000Y-145415000D02*
X49059000Y-142274000D01*
%TO.N,/DIN1*%
X46519000Y-142274000D02*
X39115000Y-134870000D01*
X46519000Y-145415000D02*
X46519000Y-142274000D01*
D16*
%TO.N,/SRMISO*%
X83058000Y-121299942D02*
X83058000Y-114046000D01*
X72385000Y-126360000D02*
X77997942Y-126360000D01*
X77997942Y-126360000D02*
X83058000Y-121299942D01*
%TO.N,/SRCS*%
X72385000Y-128900000D02*
X77602000Y-128900000D01*
X77602000Y-128900000D02*
X84328000Y-122174000D01*
X84328000Y-122174000D02*
X84328000Y-111252010D01*
%TO.N,/SRCLK*%
X91186000Y-99314000D02*
X94615000Y-95885000D01*
X91186000Y-100584000D02*
X91186000Y-99314000D01*
X86106000Y-105664000D02*
X91186000Y-100584000D01*
X86106000Y-122682000D02*
X86106000Y-105664000D01*
X77348000Y-131440000D02*
X86106000Y-122682000D01*
X72385000Y-131440000D02*
X77348000Y-131440000D01*
D17*
%TO.N,/DigInt4*%
X94062642Y-83185000D02*
X94615000Y-83185000D01*
X85090000Y-92157642D02*
X94062642Y-83185000D01*
X85090000Y-96302000D02*
X83820000Y-97572000D01*
X85090000Y-92157642D02*
X85090000Y-96302000D01*
%TO.N,/DigInt3*%
X94615000Y-85725000D02*
X86614000Y-93726000D01*
X86614000Y-97318000D02*
X83820000Y-100112000D01*
X86614000Y-93726000D02*
X86614000Y-97318000D01*
%TO.N,/DigInt2*%
X88138000Y-94742000D02*
X88138000Y-98334000D01*
X88138000Y-98334000D02*
X83820000Y-102652000D01*
X94615000Y-88265000D02*
X88138000Y-94742000D01*
%TO.N,/DigInt1*%
X89662000Y-95758000D02*
X94615000Y-90805000D01*
X89662000Y-99350000D02*
X83820000Y-105192000D01*
X89662000Y-95758000D02*
X89662000Y-99350000D01*
D16*
%TO.N,/Analog7*%
X98044000Y-133985000D02*
X98044000Y-131191000D01*
X97790000Y-130937000D02*
X97790000Y-130810000D01*
X98044000Y-131191000D02*
X97790000Y-130937000D01*
X96520000Y-104140000D02*
X109855000Y-90805000D01*
X96520000Y-117475000D02*
X96520000Y-104140000D01*
%TO.N,/Analog6*%
X100584000Y-131064000D02*
X100330000Y-130810000D01*
X100584000Y-133985000D02*
X100584000Y-131064000D01*
X98425000Y-104775000D02*
X109855000Y-93345000D01*
X98425000Y-117475000D02*
X98425000Y-104775000D01*
%TO.N,/Analog5*%
X103124000Y-131064000D02*
X102870000Y-130810000D01*
X103124000Y-133985000D02*
X103124000Y-131064000D01*
X100330000Y-105410000D02*
X109855000Y-95885000D01*
X100330000Y-117475000D02*
X100330000Y-105410000D01*
%TO.N,/Analog4*%
X105664000Y-131064000D02*
X105410000Y-130810000D01*
X105664000Y-133985000D02*
X105664000Y-131064000D01*
X102235000Y-106045000D02*
X109855000Y-98425000D01*
X102235000Y-117475000D02*
X102235000Y-106045000D01*
%TO.N,/Analog3*%
X108204000Y-131064000D02*
X107950000Y-130810000D01*
X108204000Y-133985000D02*
X108204000Y-131064000D01*
X104140000Y-106680000D02*
X109855000Y-100965000D01*
X104140000Y-117475000D02*
X104140000Y-106680000D01*
%TO.N,/Analog2*%
X110744000Y-131064000D02*
X110490000Y-130810000D01*
X110744000Y-133985000D02*
X110744000Y-131064000D01*
X106045000Y-117475000D02*
X106045000Y-107315000D01*
X106045000Y-107315000D02*
X109855000Y-103505000D01*
%TO.N,/Analog1*%
X113284000Y-131064000D02*
X113030000Y-130810000D01*
X113284000Y-133985000D02*
X113284000Y-131064000D01*
X107950000Y-117475000D02*
X107950000Y-107950000D01*
X107950000Y-107950000D02*
X109855000Y-106045000D01*
%TD*%
M02*
