M48
; DRILL file {KiCad (5.1.9)-1} date 05/29/21 21:33:35
; FORMAT={-:-/ absolute / inch / decimal}
; #@! TF.CreationDate,2021-05-29T21:33:35-04:00
; #@! TF.GenerationSoftware,Kicad,Pcbnew,(5.1.9)-1
; #@! TF.FileFunction,Plated,1,2,PTH
FMAT,2
INCH
T1C0.0157
T2C0.0197
T3C0.0300
T4C0.0354
T5C0.0394
%
G90
G05
T1
X-0.375Y-5.1
X-0.35Y-4.5
X-0.175Y-3.5
X-0.1505Y-2.9745
X-0.1005Y-3.0245
X-0.1Y-3.375
X-0.1Y-3.7
X-0.051Y-3.075
X-0.025Y-4.175
X-0.001Y-3.125
X0.0Y-4.425
X0.125Y-3.925
X0.125Y-4.1
X0.2098Y-4.2152
X0.3Y-3.025
X0.325Y-2.95
X0.375Y-4.05
X0.475Y-3.2
X0.525Y-4.05
X0.55Y-2.875
X0.6Y-3.175
X0.6Y-2.85
X0.65Y-2.875
X0.7Y-2.85
X1.0819Y-3.5469
X1.1866Y-3.2443
X1.2175Y-3.5075
X1.26Y-3.26
X1.325Y-3.4681
X1.34Y-3.265
X1.35Y-2.975
X1.4086Y-2.9
X1.4111Y-3.426
X1.45Y-3.25
X1.525Y-2.945
X1.55Y-2.77
X1.625Y-2.82
X1.725Y-2.87
X1.75Y-3.17
X1.9606Y-3.2344
X2.075Y-2.97
X2.075Y-3.4
X2.1424Y-3.4196
X2.175Y-3.57
X2.2271Y-3.5693
X2.3Y-3.4
X2.3462Y-3.1138
X2.425Y-3.55
X2.575Y-2.335
X2.575Y-3.375
X2.67Y-2.52
X3.27Y-4.49
X3.32Y-4.38
X3.8Y-4.625
X3.875Y-4.625
X3.95Y-4.625
X4.025Y-4.625
X4.1Y-4.625
X4.175Y-4.625
X4.25Y-4.625
X4.65Y-3.275
T2
X0.15Y-4.45
X0.4Y-4.65
X0.5069Y-2.939
X0.52Y-3.4
X0.78Y-3.4
X1.0138Y-3.5862
X1.725Y-2.945
X2.2624Y-3.65
X3.115Y-4.875
X3.16Y-4.76
X3.42Y-2.88
X3.525Y-4.975
X3.7321Y-5.0821
X4.5429Y-5.0821
X4.595Y-4.275
X4.7Y-3.65
X4.7Y-3.75
X4.725Y-3.575
X4.725Y-3.875
T3
X3.725Y-2.775
X3.725Y-2.875
X3.725Y-2.975
X3.725Y-3.075
X3.725Y-3.175
X3.725Y-3.275
X3.725Y-3.375
X3.725Y-3.475
X3.725Y-3.575
X3.725Y-3.675
X3.725Y-3.775
X3.725Y-3.875
X3.725Y-3.975
X3.725Y-4.075
X3.725Y-4.175
X3.725Y-4.275
X3.725Y-4.375
X3.725Y-4.475
X3.725Y-4.575
X3.725Y-4.675
X4.325Y-2.775
X4.325Y-2.875
X4.325Y-2.975
X4.325Y-3.075
X4.325Y-3.175
X4.325Y-3.275
X4.325Y-3.375
X4.325Y-3.475
X4.325Y-3.575
X4.325Y-3.675
X4.325Y-3.775
X4.325Y-3.875
X4.325Y-3.975
X4.325Y-4.075
X4.325Y-4.175
X4.325Y-4.275
X4.325Y-4.375
X4.325Y-4.475
X4.325Y-4.575
X4.325Y-4.675
T4
X1.4152Y-4.8748
X1.4152Y-4.9748
X1.4152Y-5.0748
X1.4152Y-5.1748
X1.4152Y-5.2748
X1.54Y-4.8402
X1.54Y-5.3098
X1.64Y-4.8402
X1.64Y-5.3098
X1.74Y-4.8402
X1.74Y-5.3098
X1.84Y-4.8402
X1.84Y-5.3098
X1.9848Y-4.8402
X1.9848Y-5.3098
X2.0848Y-4.8402
X2.0848Y-5.3098
X2.1848Y-4.8402
X2.1848Y-5.3098
X2.2848Y-4.8402
X2.2848Y-5.3098
X2.4297Y-4.8402
X2.4297Y-5.3098
X2.5297Y-4.8402
X2.5297Y-5.3098
X2.6297Y-4.8402
X2.6297Y-5.3098
X2.7297Y-4.8402
X2.7297Y-5.3098
X2.8498Y-4.8748
X2.8498Y-4.9748
X2.8498Y-5.0748
X2.8498Y-5.1748
X2.8498Y-5.2748
T5
X-0.626Y-2.25
X-0.626Y-2.35
X-0.626Y-2.45
X-0.626Y-2.55
X-0.626Y-2.65
X-0.626Y-2.75
X-0.626Y-2.85
X-0.626Y-2.95
X-0.626Y-3.05
X-0.626Y-3.15
X-0.626Y-3.25
X-0.626Y-3.35
X-0.626Y-3.45
X-0.626Y-3.55
X-0.626Y-3.65
X-0.626Y-3.75
X-0.626Y-3.85
X-0.626Y-3.95
X-0.626Y-4.05
X-0.626Y-4.15
X-0.626Y-4.25
X-0.626Y-4.35
X-0.626Y-4.45
X-0.626Y-4.55
X-0.626Y-4.65
X-0.626Y-4.75
X-0.626Y-4.85
X-0.626Y-4.95
X-0.626Y-5.05
X-0.626Y-5.15
X-0.626Y-5.25
X-0.626Y-5.35
X-0.626Y-5.45
X0.749Y-2.0
X0.849Y-2.0
X0.949Y-2.0
X1.049Y-2.0
X1.149Y-2.0
X1.15Y-1.75
X1.15Y-1.85
X1.249Y-2.0
X1.25Y-1.75
X1.25Y-1.85
X1.3315Y-5.725
X1.3315Y-5.825
X1.349Y-2.0
X1.35Y-1.75
X1.35Y-1.85
X1.4315Y-5.725
X1.4315Y-5.825
X1.449Y-2.0
X1.45Y-1.75
X1.45Y-1.85
X1.5315Y-5.725
X1.5315Y-5.825
X1.549Y-2.0
X1.55Y-1.75
X1.55Y-1.85
X1.6315Y-5.725
X1.6315Y-5.825
X1.649Y-2.0
X1.65Y-1.75
X1.65Y-1.85
X1.7315Y-5.725
X1.7315Y-5.825
X1.749Y-2.0
X1.75Y-1.75
X1.75Y-1.85
X1.8315Y-5.725
X1.8315Y-5.825
X1.849Y-2.0
X1.85Y-1.75
X1.85Y-1.85
X1.9315Y-5.725
X1.9315Y-5.825
X1.949Y-2.0
X1.95Y-1.75
X1.95Y-1.85
X1.985Y-4.425
X2.0315Y-5.725
X2.0315Y-5.825
X2.049Y-2.0
X2.05Y-1.75
X2.05Y-1.85
X2.085Y-4.425
X2.1315Y-5.725
X2.1315Y-5.825
X2.149Y-2.0
X2.15Y-1.75
X2.15Y-1.85
X2.185Y-4.425
X2.2315Y-5.725
X2.2315Y-5.825
X2.249Y-2.0
X2.25Y-1.75
X2.25Y-1.85
X2.285Y-4.425
X2.3315Y-5.725
X2.3315Y-5.825
X2.349Y-2.0
X2.35Y-1.75
X2.35Y-1.85
X2.385Y-4.425
X2.4315Y-5.725
X2.4315Y-5.825
X2.449Y-2.0
X2.45Y-1.75
X2.45Y-1.85
X2.485Y-4.425
X2.5315Y-5.725
X2.5315Y-5.825
X2.549Y-2.0
X2.55Y-1.75
X2.55Y-1.85
X2.585Y-4.425
X2.6315Y-5.725
X2.6315Y-5.825
X2.649Y-2.0
X2.65Y-1.75
X2.65Y-1.85
X2.685Y-4.425
X2.7315Y-5.725
X2.7315Y-5.825
X2.749Y-2.0
X2.75Y-1.75
X2.75Y-1.85
X2.785Y-4.425
X2.8315Y-5.725
X2.8315Y-5.825
X2.849Y-2.0
X2.9315Y-5.725
X2.9315Y-5.825
X2.949Y-2.0
X3.049Y-2.0
X3.149Y-2.0
X3.2Y-3.8414
X3.2Y-3.9414
X3.2Y-4.0414
X3.2Y-4.1414
X3.249Y-2.0
X3.3Y-3.8414
X3.3Y-3.9414
X3.3Y-4.0414
X3.3Y-4.1414
X3.349Y-2.0
X3.449Y-2.0
X3.549Y-2.0
X3.649Y-2.0
X3.86Y-5.275
X3.8614Y-5.375
X3.8614Y-5.475
X3.96Y-5.275
X3.9614Y-5.375
X3.9614Y-5.475
X4.06Y-5.275
X4.0614Y-5.375
X4.0614Y-5.475
X4.16Y-5.275
X4.1614Y-5.375
X4.1614Y-5.475
X4.26Y-5.275
X4.2614Y-5.375
X4.2614Y-5.475
X4.36Y-5.275
X4.3614Y-5.375
X4.3614Y-5.475
X4.46Y-5.275
X4.4614Y-5.375
X4.4614Y-5.475
X4.924Y-3.35
X4.924Y-3.45
X4.924Y-3.55
X4.924Y-3.85
X4.924Y-3.95
X4.924Y-4.05
X4.924Y-4.15
X4.924Y-4.25
X4.924Y-4.35
X4.924Y-4.45
X4.924Y-4.55
X4.924Y-4.65
T0
M30
