%TF.GenerationSoftware,KiCad,Pcbnew,(5.1.9)-1*%
%TF.CreationDate,2021-06-11T11:16:04-04:00*%
%TF.ProjectId,backside,6261636b-7369-4646-952e-6b696361645f,rev?*%
%TF.SameCoordinates,Original*%
%TF.FileFunction,Soldermask,Bot*%
%TF.FilePolarity,Negative*%
%FSLAX46Y46*%
G04 Gerber Fmt 4.6, Leading zero omitted, Abs format (unit mm)*
G04 Created by KiCad (PCBNEW (5.1.9)-1) date 2021-06-11 11:16:04*
%MOMM*%
%LPD*%
G01*
G04 APERTURE LIST*
%ADD10O,2.000000X1.905000*%
%ADD11R,2.000000X1.905000*%
%ADD12O,1.700000X1.700000*%
%ADD13R,1.700000X1.700000*%
%ADD14C,1.700000*%
%ADD15C,3.200000*%
%ADD16C,1.524000*%
G04 APERTURE END LIST*
D10*
%TO.C,Q1*%
X122555000Y-132080000D03*
X122555000Y-129540000D03*
D11*
X122555000Y-127000000D03*
%TD*%
D12*
%TO.C,J17*%
X81280000Y-97790000D03*
D13*
X81280000Y-100330000D03*
%TD*%
D12*
%TO.C,J8*%
X83820000Y-97790000D03*
D13*
X83820000Y-100330000D03*
%TD*%
D12*
%TO.C,J18*%
X29210000Y-44450000D03*
X29210000Y-46990000D03*
X31750000Y-44450000D03*
X31750000Y-46990000D03*
X34290000Y-44450000D03*
X34290000Y-46990000D03*
X36830000Y-44450000D03*
X36830000Y-46990000D03*
X39370000Y-44450000D03*
X39370000Y-46990000D03*
X41910000Y-44450000D03*
X41910000Y-46990000D03*
X44450000Y-44450000D03*
X44450000Y-46990000D03*
X46990000Y-44450000D03*
X46990000Y-46990000D03*
X49530000Y-44450000D03*
X49530000Y-46990000D03*
X52070000Y-44450000D03*
X52070000Y-46990000D03*
X54610000Y-44450000D03*
X54610000Y-46990000D03*
X57150000Y-44450000D03*
X57150000Y-46990000D03*
X59690000Y-44450000D03*
X59690000Y-46990000D03*
X62230000Y-44450000D03*
X62230000Y-46990000D03*
X64770000Y-44450000D03*
X64770000Y-46990000D03*
X67310000Y-44450000D03*
X67310000Y-46990000D03*
X69850000Y-44450000D03*
D13*
X69850000Y-46990000D03*
%TD*%
D14*
%TO.C,A1*%
X69335000Y-122940000D03*
X66795000Y-122940000D03*
X64255000Y-122940000D03*
X61715000Y-122940000D03*
X58035000Y-122940000D03*
X55495000Y-122940000D03*
X52955000Y-122940000D03*
X50415000Y-122940000D03*
X46735000Y-122940000D03*
X44195000Y-122940000D03*
X41655000Y-122940000D03*
X39115000Y-122940000D03*
X69335000Y-134870000D03*
X66795000Y-134870000D03*
X64255000Y-134870000D03*
X61715000Y-134870000D03*
X58035000Y-134870000D03*
X55495000Y-134870000D03*
X50415000Y-134870000D03*
X52955000Y-134870000D03*
X46735000Y-134870000D03*
X44195000Y-134870000D03*
X41655000Y-134870000D03*
X39115000Y-134870000D03*
X72385000Y-123820000D03*
X72385000Y-126360000D03*
X72385000Y-128900000D03*
X72385000Y-131440000D03*
X72385000Y-133980000D03*
X35945000Y-123820000D03*
X35945000Y-126360000D03*
X35945000Y-128900000D03*
X35945000Y-131440000D03*
X35945000Y-133980000D03*
%TD*%
D15*
%TO.C,MH1*%
X125070000Y-52070000D03*
%TD*%
%TO.C,MH4*%
X-10820000Y-52070000D03*
%TD*%
%TO.C,MH2*%
X121260000Y-148590000D03*
%TD*%
%TO.C,MH3*%
X-13360000Y-148590000D03*
%TD*%
D12*
%TO.C,J16*%
X98080000Y-139065000D03*
X100620000Y-139065000D03*
X103160000Y-139065000D03*
X105700000Y-139065000D03*
X108240000Y-139065000D03*
X110780000Y-139065000D03*
D13*
X113320000Y-139065000D03*
%TD*%
D12*
%TO.C,J15*%
X98080000Y-136525000D03*
X100620000Y-136525000D03*
X103160000Y-136525000D03*
X105700000Y-136525000D03*
X108240000Y-136525000D03*
X110780000Y-136525000D03*
D13*
X113320000Y-136525000D03*
%TD*%
D12*
%TO.C,J14*%
X98044000Y-133985000D03*
X100584000Y-133985000D03*
X103124000Y-133985000D03*
X105664000Y-133985000D03*
X108204000Y-133985000D03*
X110744000Y-133985000D03*
D13*
X113284000Y-133985000D03*
%TD*%
D12*
%TO.C,J9*%
X92685000Y-50800000D03*
X90145000Y-50800000D03*
X87605000Y-50800000D03*
X85065000Y-50800000D03*
X82525000Y-50800000D03*
X79985000Y-50800000D03*
X77445000Y-50800000D03*
X74905000Y-50800000D03*
X72365000Y-50800000D03*
X69825000Y-50800000D03*
X67285000Y-50800000D03*
X64745000Y-50800000D03*
X62205000Y-50800000D03*
X59665000Y-50800000D03*
X57125000Y-50800000D03*
X54585000Y-50800000D03*
X52045000Y-50800000D03*
X49505000Y-50800000D03*
X46965000Y-50800000D03*
X44425000Y-50800000D03*
X41885000Y-50800000D03*
X39345000Y-50800000D03*
X36805000Y-50800000D03*
X34265000Y-50800000D03*
X31725000Y-50800000D03*
X29185000Y-50800000D03*
X26645000Y-50800000D03*
X24105000Y-50800000D03*
X21565000Y-50800000D03*
D13*
X19025000Y-50800000D03*
%TD*%
D12*
%TO.C,J6*%
X74459000Y-147955000D03*
X71919000Y-147955000D03*
X69379000Y-147955000D03*
X66839000Y-147955000D03*
X64299000Y-147955000D03*
X61759000Y-147955000D03*
X59219000Y-147955000D03*
X56679000Y-147955000D03*
X54139000Y-147955000D03*
X51599000Y-147955000D03*
X49059000Y-147955000D03*
X46519000Y-147955000D03*
X43979000Y-147955000D03*
X41439000Y-147955000D03*
X38899000Y-147955000D03*
X36359000Y-147955000D03*
D13*
X33819000Y-147955000D03*
%TD*%
D12*
%TO.C,J4*%
X74459000Y-145415000D03*
X71919000Y-145415000D03*
X69379000Y-145415000D03*
X66839000Y-145415000D03*
X64299000Y-145415000D03*
X61759000Y-145415000D03*
X59219000Y-145415000D03*
X56679000Y-145415000D03*
X54139000Y-145415000D03*
X51599000Y-145415000D03*
X49059000Y-145415000D03*
X46519000Y-145415000D03*
X43979000Y-145415000D03*
X41439000Y-145415000D03*
X38899000Y-145415000D03*
X36359000Y-145415000D03*
D13*
X33819000Y-145415000D03*
%TD*%
D16*
%TO.C,U3*%
X109855000Y-88265000D03*
X109855000Y-90805000D03*
X109855000Y-93345000D03*
X109855000Y-95885000D03*
X109855000Y-98425000D03*
X109855000Y-100965000D03*
X109855000Y-103505000D03*
X109855000Y-106045000D03*
X109855000Y-108585000D03*
X109855000Y-111125000D03*
X109855000Y-113665000D03*
X109855000Y-116205000D03*
X109855000Y-118745000D03*
X109855000Y-85725000D03*
X109855000Y-83185000D03*
X109855000Y-80645000D03*
X109855000Y-78105000D03*
X109855000Y-75565000D03*
X109855000Y-73025000D03*
X109855000Y-70485000D03*
X94615000Y-118745000D03*
X94615000Y-116205000D03*
X94615000Y-113665000D03*
X94615000Y-111125000D03*
X94615000Y-108585000D03*
X94615000Y-106045000D03*
X94615000Y-103505000D03*
X94615000Y-100965000D03*
X94615000Y-98425000D03*
X94615000Y-95885000D03*
X94615000Y-93345000D03*
X94615000Y-90805000D03*
X94615000Y-88265000D03*
X94615000Y-85725000D03*
X94615000Y-83185000D03*
X94615000Y-80645000D03*
X94615000Y-78105000D03*
X94615000Y-75565000D03*
X94615000Y-73025000D03*
X94615000Y-70485000D03*
%TD*%
D12*
%TO.C,J7*%
X-15900000Y-138430000D03*
X-15900000Y-135890000D03*
X-15900000Y-133350000D03*
X-15900000Y-130810000D03*
X-15900000Y-128270000D03*
X-15900000Y-125730000D03*
X-15900000Y-123190000D03*
X-15900000Y-120650000D03*
X-15900000Y-118110000D03*
X-15900000Y-115570000D03*
X-15900000Y-113030000D03*
X-15900000Y-110490000D03*
X-15900000Y-107950000D03*
X-15900000Y-105410000D03*
X-15900000Y-102870000D03*
X-15900000Y-100330000D03*
X-15900000Y-97790000D03*
X-15900000Y-95250000D03*
X-15900000Y-92710000D03*
X-15900000Y-90170000D03*
X-15900000Y-87630000D03*
X-15900000Y-85090000D03*
X-15900000Y-82550000D03*
X-15900000Y-80010000D03*
X-15900000Y-77470000D03*
X-15900000Y-74930000D03*
X-15900000Y-72390000D03*
X-15900000Y-69850000D03*
X-15900000Y-67310000D03*
X-15900000Y-64770000D03*
X-15900000Y-62230000D03*
X-15900000Y-59690000D03*
D13*
X-15900000Y-57150000D03*
%TD*%
D12*
%TO.C,J5*%
X125070000Y-118110000D03*
X125070000Y-115570000D03*
X125070000Y-113030000D03*
X125070000Y-110490000D03*
X125070000Y-107950000D03*
X125070000Y-105410000D03*
X125070000Y-102870000D03*
X125070000Y-100330000D03*
D13*
X125070000Y-97790000D03*
%TD*%
D12*
%TO.C,J3*%
X125070000Y-90170000D03*
X125070000Y-87630000D03*
D13*
X125070000Y-85090000D03*
%TD*%
D12*
%TO.C,J1*%
X50419000Y-112395000D03*
X52959000Y-112395000D03*
X55499000Y-112395000D03*
X58039000Y-112395000D03*
X60579000Y-112395000D03*
X63119000Y-112395000D03*
X65659000Y-112395000D03*
X68199000Y-112395000D03*
D13*
X70739000Y-112395000D03*
%TD*%
M02*
