%TF.GenerationSoftware,KiCad,Pcbnew,(5.1.9)-1*%
%TF.CreationDate,2021-06-14T18:57:01-04:00*%
%TF.ProjectId,backside,6261636b-7369-4646-952e-6b696361645f,rev?*%
%TF.SameCoordinates,Original*%
%TF.FileFunction,Legend,Top*%
%TF.FilePolarity,Positive*%
%FSLAX46Y46*%
G04 Gerber Fmt 4.6, Leading zero omitted, Abs format (unit mm)*
G04 Created by KiCad (PCBNEW (5.1.9)-1) date 2021-06-14 18:57:01*
%MOMM*%
%LPD*%
G01*
G04 APERTURE LIST*
%ADD10C,0.150000*%
%ADD11C,0.120000*%
G04 APERTURE END LIST*
D10*
X45537380Y-88138095D02*
X45585000Y-88185714D01*
X45632619Y-88280952D01*
X45632619Y-88519047D01*
X45585000Y-88614285D01*
X45537380Y-88661904D01*
X45442142Y-88709523D01*
X45346904Y-88709523D01*
X45204047Y-88661904D01*
X44632619Y-88090476D01*
X44632619Y-88709523D01*
X45632619Y-89566666D02*
X45632619Y-89376190D01*
X45585000Y-89280952D01*
X45537380Y-89233333D01*
X45394523Y-89138095D01*
X45204047Y-89090476D01*
X44823095Y-89090476D01*
X44727857Y-89138095D01*
X44680238Y-89185714D01*
X44632619Y-89280952D01*
X44632619Y-89471428D01*
X44680238Y-89566666D01*
X44727857Y-89614285D01*
X44823095Y-89661904D01*
X45061190Y-89661904D01*
X45156428Y-89614285D01*
X45204047Y-89566666D01*
X45251666Y-89471428D01*
X45251666Y-89280952D01*
X45204047Y-89185714D01*
X45156428Y-89138095D01*
X45061190Y-89090476D01*
X44632619Y-73469523D02*
X44632619Y-72898095D01*
X44632619Y-73183809D02*
X45632619Y-73183809D01*
X45489761Y-73088571D01*
X45394523Y-72993333D01*
X45346904Y-72898095D01*
X45299285Y-74326666D02*
X44632619Y-74326666D01*
X45680238Y-74088571D02*
X44965952Y-73850476D01*
X44965952Y-74469523D01*
X47180476Y-71302619D02*
X47751904Y-71302619D01*
X47466190Y-71302619D02*
X47466190Y-72302619D01*
X47561428Y-72159761D01*
X47656666Y-72064523D01*
X47751904Y-72016904D01*
X46847142Y-72302619D02*
X46228095Y-72302619D01*
X46561428Y-71921666D01*
X46418571Y-71921666D01*
X46323333Y-71874047D01*
X46275714Y-71826428D01*
X46228095Y-71731190D01*
X46228095Y-71493095D01*
X46275714Y-71397857D01*
X46323333Y-71350238D01*
X46418571Y-71302619D01*
X46704285Y-71302619D01*
X46799523Y-71350238D01*
X46847142Y-71397857D01*
X61309285Y-71302619D02*
X61880714Y-71302619D01*
X61595000Y-71302619D02*
X61595000Y-72302619D01*
X61690238Y-72159761D01*
X61785476Y-72064523D01*
X61880714Y-72016904D01*
X63587380Y-73898095D02*
X63587380Y-74374285D01*
X64063571Y-74421904D01*
X64015952Y-74374285D01*
X63968333Y-74279047D01*
X63968333Y-74040952D01*
X64015952Y-73945714D01*
X64063571Y-73898095D01*
X64158809Y-73850476D01*
X64396904Y-73850476D01*
X64492142Y-73898095D01*
X64539761Y-73945714D01*
X64587380Y-74040952D01*
X64587380Y-74279047D01*
X64539761Y-74374285D01*
X64492142Y-74421904D01*
X63682619Y-73469523D02*
X63635000Y-73421904D01*
X63587380Y-73326666D01*
X63587380Y-73088571D01*
X63635000Y-72993333D01*
X63682619Y-72945714D01*
X63777857Y-72898095D01*
X63873095Y-72898095D01*
X64015952Y-72945714D01*
X64587380Y-73517142D01*
X64587380Y-72898095D01*
X63920714Y-89185714D02*
X64587380Y-89185714D01*
X63539761Y-89423809D02*
X64254047Y-89661904D01*
X64254047Y-89042857D01*
X63587380Y-88471428D02*
X63587380Y-88376190D01*
X63635000Y-88280952D01*
X63682619Y-88233333D01*
X63777857Y-88185714D01*
X63968333Y-88138095D01*
X64206428Y-88138095D01*
X64396904Y-88185714D01*
X64492142Y-88233333D01*
X64539761Y-88280952D01*
X64587380Y-88376190D01*
X64587380Y-88471428D01*
X64539761Y-88566666D01*
X64492142Y-88614285D01*
X64396904Y-88661904D01*
X64206428Y-88709523D01*
X63968333Y-88709523D01*
X63777857Y-88661904D01*
X63682619Y-88614285D01*
X63635000Y-88566666D01*
X63587380Y-88471428D01*
X62055476Y-90257380D02*
X62674523Y-90257380D01*
X62341190Y-90638333D01*
X62484047Y-90638333D01*
X62579285Y-90685952D01*
X62626904Y-90733571D01*
X62674523Y-90828809D01*
X62674523Y-91066904D01*
X62626904Y-91162142D01*
X62579285Y-91209761D01*
X62484047Y-91257380D01*
X62198333Y-91257380D01*
X62103095Y-91209761D01*
X62055476Y-91162142D01*
X63150714Y-91257380D02*
X63341190Y-91257380D01*
X63436428Y-91209761D01*
X63484047Y-91162142D01*
X63579285Y-91019285D01*
X63626904Y-90828809D01*
X63626904Y-90447857D01*
X63579285Y-90352619D01*
X63531666Y-90305000D01*
X63436428Y-90257380D01*
X63245952Y-90257380D01*
X63150714Y-90305000D01*
X63103095Y-90352619D01*
X63055476Y-90447857D01*
X63055476Y-90685952D01*
X63103095Y-90781190D01*
X63150714Y-90828809D01*
X63245952Y-90876428D01*
X63436428Y-90876428D01*
X63531666Y-90828809D01*
X63579285Y-90781190D01*
X63626904Y-90685952D01*
X46228095Y-90352619D02*
X46275714Y-90305000D01*
X46370952Y-90257380D01*
X46609047Y-90257380D01*
X46704285Y-90305000D01*
X46751904Y-90352619D01*
X46799523Y-90447857D01*
X46799523Y-90543095D01*
X46751904Y-90685952D01*
X46180476Y-91257380D01*
X46799523Y-91257380D01*
X47132857Y-90257380D02*
X47799523Y-90257380D01*
X47370952Y-91257380D01*
X6897619Y-92471904D02*
X6897619Y-91995714D01*
X6421428Y-91948095D01*
X6469047Y-91995714D01*
X6516666Y-92090952D01*
X6516666Y-92329047D01*
X6469047Y-92424285D01*
X6421428Y-92471904D01*
X6326190Y-92519523D01*
X6088095Y-92519523D01*
X5992857Y-92471904D01*
X5945238Y-92424285D01*
X5897619Y-92329047D01*
X5897619Y-92090952D01*
X5945238Y-91995714D01*
X5992857Y-91948095D01*
X6802380Y-92900476D02*
X6850000Y-92948095D01*
X6897619Y-93043333D01*
X6897619Y-93281428D01*
X6850000Y-93376666D01*
X6802380Y-93424285D01*
X6707142Y-93471904D01*
X6611904Y-93471904D01*
X6469047Y-93424285D01*
X5897619Y-92852857D01*
X5897619Y-93471904D01*
X6564285Y-77184285D02*
X5897619Y-77184285D01*
X6945238Y-76946190D02*
X6230952Y-76708095D01*
X6230952Y-77327142D01*
X6897619Y-77898571D02*
X6897619Y-77993809D01*
X6850000Y-78089047D01*
X6802380Y-78136666D01*
X6707142Y-78184285D01*
X6516666Y-78231904D01*
X6278571Y-78231904D01*
X6088095Y-78184285D01*
X5992857Y-78136666D01*
X5945238Y-78089047D01*
X5897619Y-77993809D01*
X5897619Y-77898571D01*
X5945238Y-77803333D01*
X5992857Y-77755714D01*
X6088095Y-77708095D01*
X6278571Y-77660476D01*
X6516666Y-77660476D01*
X6707142Y-77708095D01*
X6802380Y-77755714D01*
X6850000Y-77803333D01*
X6897619Y-77898571D01*
X9064523Y-76112619D02*
X8445476Y-76112619D01*
X8778809Y-75731666D01*
X8635952Y-75731666D01*
X8540714Y-75684047D01*
X8493095Y-75636428D01*
X8445476Y-75541190D01*
X8445476Y-75303095D01*
X8493095Y-75207857D01*
X8540714Y-75160238D01*
X8635952Y-75112619D01*
X8921666Y-75112619D01*
X9016904Y-75160238D01*
X9064523Y-75207857D01*
X7969285Y-75112619D02*
X7778809Y-75112619D01*
X7683571Y-75160238D01*
X7635952Y-75207857D01*
X7540714Y-75350714D01*
X7493095Y-75541190D01*
X7493095Y-75922142D01*
X7540714Y-76017380D01*
X7588333Y-76065000D01*
X7683571Y-76112619D01*
X7874047Y-76112619D01*
X7969285Y-76065000D01*
X8016904Y-76017380D01*
X8064523Y-75922142D01*
X8064523Y-75684047D01*
X8016904Y-75588809D01*
X7969285Y-75541190D01*
X7874047Y-75493571D01*
X7683571Y-75493571D01*
X7588333Y-75541190D01*
X7540714Y-75588809D01*
X7493095Y-75684047D01*
X24256904Y-76017380D02*
X24209285Y-76065000D01*
X24114047Y-76112619D01*
X23875952Y-76112619D01*
X23780714Y-76065000D01*
X23733095Y-76017380D01*
X23685476Y-75922142D01*
X23685476Y-75826904D01*
X23733095Y-75684047D01*
X24304523Y-75112619D01*
X23685476Y-75112619D01*
X23352142Y-76112619D02*
X22685476Y-76112619D01*
X23114047Y-75112619D01*
X24947619Y-78231904D02*
X24900000Y-78184285D01*
X24852380Y-78089047D01*
X24852380Y-77850952D01*
X24900000Y-77755714D01*
X24947619Y-77708095D01*
X25042857Y-77660476D01*
X25138095Y-77660476D01*
X25280952Y-77708095D01*
X25852380Y-78279523D01*
X25852380Y-77660476D01*
X24852380Y-76803333D02*
X24852380Y-76993809D01*
X24900000Y-77089047D01*
X24947619Y-77136666D01*
X25090476Y-77231904D01*
X25280952Y-77279523D01*
X25661904Y-77279523D01*
X25757142Y-77231904D01*
X25804761Y-77184285D01*
X25852380Y-77089047D01*
X25852380Y-76898571D01*
X25804761Y-76803333D01*
X25757142Y-76755714D01*
X25661904Y-76708095D01*
X25423809Y-76708095D01*
X25328571Y-76755714D01*
X25280952Y-76803333D01*
X25233333Y-76898571D01*
X25233333Y-77089047D01*
X25280952Y-77184285D01*
X25328571Y-77231904D01*
X25423809Y-77279523D01*
X25852380Y-92900476D02*
X25852380Y-93471904D01*
X25852380Y-93186190D02*
X24852380Y-93186190D01*
X24995238Y-93281428D01*
X25090476Y-93376666D01*
X25138095Y-93471904D01*
X25185714Y-92043333D02*
X25852380Y-92043333D01*
X24804761Y-92281428D02*
X25519047Y-92519523D01*
X25519047Y-91900476D01*
X22669523Y-95067380D02*
X22098095Y-95067380D01*
X22383809Y-95067380D02*
X22383809Y-94067380D01*
X22288571Y-94210238D01*
X22193333Y-94305476D01*
X22098095Y-94353095D01*
X23002857Y-94067380D02*
X23621904Y-94067380D01*
X23288571Y-94448333D01*
X23431428Y-94448333D01*
X23526666Y-94495952D01*
X23574285Y-94543571D01*
X23621904Y-94638809D01*
X23621904Y-94876904D01*
X23574285Y-94972142D01*
X23526666Y-95019761D01*
X23431428Y-95067380D01*
X23145714Y-95067380D01*
X23050476Y-95019761D01*
X23002857Y-94972142D01*
X9175714Y-95067380D02*
X8604285Y-95067380D01*
X8890000Y-95067380D02*
X8890000Y-94067380D01*
X8794761Y-94210238D01*
X8699523Y-94305476D01*
X8604285Y-94353095D01*
X-12993333Y-138787142D02*
X-13040952Y-138834761D01*
X-13183809Y-138882380D01*
X-13279047Y-138882380D01*
X-13421904Y-138834761D01*
X-13517142Y-138739523D01*
X-13564761Y-138644285D01*
X-13612380Y-138453809D01*
X-13612380Y-138310952D01*
X-13564761Y-138120476D01*
X-13517142Y-138025238D01*
X-13421904Y-137930000D01*
X-13279047Y-137882380D01*
X-13183809Y-137882380D01*
X-13040952Y-137930000D01*
X-12993333Y-137977619D01*
X-12374285Y-137882380D02*
X-12183809Y-137882380D01*
X-12088571Y-137930000D01*
X-11993333Y-138025238D01*
X-11945714Y-138215714D01*
X-11945714Y-138549047D01*
X-11993333Y-138739523D01*
X-12088571Y-138834761D01*
X-12183809Y-138882380D01*
X-12374285Y-138882380D01*
X-12469523Y-138834761D01*
X-12564761Y-138739523D01*
X-12612380Y-138549047D01*
X-12612380Y-138215714D01*
X-12564761Y-138025238D01*
X-12469523Y-137930000D01*
X-12374285Y-137882380D01*
X-11517142Y-138882380D02*
X-11517142Y-137882380D01*
X-11183809Y-138596666D01*
X-10850476Y-137882380D01*
X-10850476Y-138882380D01*
X-9850476Y-138882380D02*
X-10421904Y-138882380D01*
X-10136190Y-138882380D02*
X-10136190Y-137882380D01*
X-10231428Y-138025238D01*
X-10326666Y-138120476D01*
X-10421904Y-138168095D01*
X-8945714Y-137882380D02*
X-9421904Y-137882380D01*
X-9469523Y-138358571D01*
X-9421904Y-138310952D01*
X-9326666Y-138263333D01*
X-9088571Y-138263333D01*
X-8993333Y-138310952D01*
X-8945714Y-138358571D01*
X-8898095Y-138453809D01*
X-8898095Y-138691904D01*
X-8945714Y-138787142D01*
X-8993333Y-138834761D01*
X-9088571Y-138882380D01*
X-9326666Y-138882380D01*
X-9421904Y-138834761D01*
X-9469523Y-138787142D01*
X-8469523Y-138501428D02*
X-7707619Y-138501428D01*
X-7279047Y-137977619D02*
X-7231428Y-137930000D01*
X-7136190Y-137882380D01*
X-6898095Y-137882380D01*
X-6802857Y-137930000D01*
X-6755238Y-137977619D01*
X-6707619Y-138072857D01*
X-6707619Y-138168095D01*
X-6755238Y-138310952D01*
X-7326666Y-138882380D01*
X-6707619Y-138882380D01*
X-12993333Y-136247142D02*
X-13040952Y-136294761D01*
X-13183809Y-136342380D01*
X-13279047Y-136342380D01*
X-13421904Y-136294761D01*
X-13517142Y-136199523D01*
X-13564761Y-136104285D01*
X-13612380Y-135913809D01*
X-13612380Y-135770952D01*
X-13564761Y-135580476D01*
X-13517142Y-135485238D01*
X-13421904Y-135390000D01*
X-13279047Y-135342380D01*
X-13183809Y-135342380D01*
X-13040952Y-135390000D01*
X-12993333Y-135437619D01*
X-12374285Y-135342380D02*
X-12183809Y-135342380D01*
X-12088571Y-135390000D01*
X-11993333Y-135485238D01*
X-11945714Y-135675714D01*
X-11945714Y-136009047D01*
X-11993333Y-136199523D01*
X-12088571Y-136294761D01*
X-12183809Y-136342380D01*
X-12374285Y-136342380D01*
X-12469523Y-136294761D01*
X-12564761Y-136199523D01*
X-12612380Y-136009047D01*
X-12612380Y-135675714D01*
X-12564761Y-135485238D01*
X-12469523Y-135390000D01*
X-12374285Y-135342380D01*
X-11517142Y-136342380D02*
X-11517142Y-135342380D01*
X-11183809Y-136056666D01*
X-10850476Y-135342380D01*
X-10850476Y-136342380D01*
X-9850476Y-136342380D02*
X-10421904Y-136342380D01*
X-10136190Y-136342380D02*
X-10136190Y-135342380D01*
X-10231428Y-135485238D01*
X-10326666Y-135580476D01*
X-10421904Y-135628095D01*
X-8993333Y-135675714D02*
X-8993333Y-136342380D01*
X-9231428Y-135294761D02*
X-9469523Y-136009047D01*
X-8850476Y-136009047D01*
X-8469523Y-135961428D02*
X-7707619Y-135961428D01*
X-7279047Y-135437619D02*
X-7231428Y-135390000D01*
X-7136190Y-135342380D01*
X-6898095Y-135342380D01*
X-6802857Y-135390000D01*
X-6755238Y-135437619D01*
X-6707619Y-135532857D01*
X-6707619Y-135628095D01*
X-6755238Y-135770952D01*
X-7326666Y-136342380D01*
X-6707619Y-136342380D01*
X-12993333Y-133707142D02*
X-13040952Y-133754761D01*
X-13183809Y-133802380D01*
X-13279047Y-133802380D01*
X-13421904Y-133754761D01*
X-13517142Y-133659523D01*
X-13564761Y-133564285D01*
X-13612380Y-133373809D01*
X-13612380Y-133230952D01*
X-13564761Y-133040476D01*
X-13517142Y-132945238D01*
X-13421904Y-132850000D01*
X-13279047Y-132802380D01*
X-13183809Y-132802380D01*
X-13040952Y-132850000D01*
X-12993333Y-132897619D01*
X-12374285Y-132802380D02*
X-12183809Y-132802380D01*
X-12088571Y-132850000D01*
X-11993333Y-132945238D01*
X-11945714Y-133135714D01*
X-11945714Y-133469047D01*
X-11993333Y-133659523D01*
X-12088571Y-133754761D01*
X-12183809Y-133802380D01*
X-12374285Y-133802380D01*
X-12469523Y-133754761D01*
X-12564761Y-133659523D01*
X-12612380Y-133469047D01*
X-12612380Y-133135714D01*
X-12564761Y-132945238D01*
X-12469523Y-132850000D01*
X-12374285Y-132802380D01*
X-11517142Y-133802380D02*
X-11517142Y-132802380D01*
X-11183809Y-133516666D01*
X-10850476Y-132802380D01*
X-10850476Y-133802380D01*
X-9850476Y-133802380D02*
X-10421904Y-133802380D01*
X-10136190Y-133802380D02*
X-10136190Y-132802380D01*
X-10231428Y-132945238D01*
X-10326666Y-133040476D01*
X-10421904Y-133088095D01*
X-9517142Y-132802380D02*
X-8898095Y-132802380D01*
X-9231428Y-133183333D01*
X-9088571Y-133183333D01*
X-8993333Y-133230952D01*
X-8945714Y-133278571D01*
X-8898095Y-133373809D01*
X-8898095Y-133611904D01*
X-8945714Y-133707142D01*
X-8993333Y-133754761D01*
X-9088571Y-133802380D01*
X-9374285Y-133802380D01*
X-9469523Y-133754761D01*
X-9517142Y-133707142D01*
X-8469523Y-133421428D02*
X-7707619Y-133421428D01*
X-7279047Y-132897619D02*
X-7231428Y-132850000D01*
X-7136190Y-132802380D01*
X-6898095Y-132802380D01*
X-6802857Y-132850000D01*
X-6755238Y-132897619D01*
X-6707619Y-132992857D01*
X-6707619Y-133088095D01*
X-6755238Y-133230952D01*
X-7326666Y-133802380D01*
X-6707619Y-133802380D01*
X-12993333Y-131167142D02*
X-13040952Y-131214761D01*
X-13183809Y-131262380D01*
X-13279047Y-131262380D01*
X-13421904Y-131214761D01*
X-13517142Y-131119523D01*
X-13564761Y-131024285D01*
X-13612380Y-130833809D01*
X-13612380Y-130690952D01*
X-13564761Y-130500476D01*
X-13517142Y-130405238D01*
X-13421904Y-130310000D01*
X-13279047Y-130262380D01*
X-13183809Y-130262380D01*
X-13040952Y-130310000D01*
X-12993333Y-130357619D01*
X-12374285Y-130262380D02*
X-12183809Y-130262380D01*
X-12088571Y-130310000D01*
X-11993333Y-130405238D01*
X-11945714Y-130595714D01*
X-11945714Y-130929047D01*
X-11993333Y-131119523D01*
X-12088571Y-131214761D01*
X-12183809Y-131262380D01*
X-12374285Y-131262380D01*
X-12469523Y-131214761D01*
X-12564761Y-131119523D01*
X-12612380Y-130929047D01*
X-12612380Y-130595714D01*
X-12564761Y-130405238D01*
X-12469523Y-130310000D01*
X-12374285Y-130262380D01*
X-11517142Y-131262380D02*
X-11517142Y-130262380D01*
X-11183809Y-130976666D01*
X-10850476Y-130262380D01*
X-10850476Y-131262380D01*
X-9850476Y-131262380D02*
X-10421904Y-131262380D01*
X-10136190Y-131262380D02*
X-10136190Y-130262380D01*
X-10231428Y-130405238D01*
X-10326666Y-130500476D01*
X-10421904Y-130548095D01*
X-9469523Y-130357619D02*
X-9421904Y-130310000D01*
X-9326666Y-130262380D01*
X-9088571Y-130262380D01*
X-8993333Y-130310000D01*
X-8945714Y-130357619D01*
X-8898095Y-130452857D01*
X-8898095Y-130548095D01*
X-8945714Y-130690952D01*
X-9517142Y-131262380D01*
X-8898095Y-131262380D01*
X-8469523Y-130881428D02*
X-7707619Y-130881428D01*
X-7279047Y-130357619D02*
X-7231428Y-130310000D01*
X-7136190Y-130262380D01*
X-6898095Y-130262380D01*
X-6802857Y-130310000D01*
X-6755238Y-130357619D01*
X-6707619Y-130452857D01*
X-6707619Y-130548095D01*
X-6755238Y-130690952D01*
X-7326666Y-131262380D01*
X-6707619Y-131262380D01*
X-13414285Y-128436666D02*
X-12938095Y-128436666D01*
X-13509523Y-128722380D02*
X-13176190Y-127722380D01*
X-12842857Y-128722380D01*
X-12557142Y-127817619D02*
X-12509523Y-127770000D01*
X-12414285Y-127722380D01*
X-12176190Y-127722380D01*
X-12080952Y-127770000D01*
X-12033333Y-127817619D01*
X-11985714Y-127912857D01*
X-11985714Y-128008095D01*
X-12033333Y-128150952D01*
X-12604761Y-128722380D01*
X-11985714Y-128722380D01*
X-13104761Y-125658571D02*
X-12961904Y-125706190D01*
X-12914285Y-125753809D01*
X-12866666Y-125849047D01*
X-12866666Y-125991904D01*
X-12914285Y-126087142D01*
X-12961904Y-126134761D01*
X-13057142Y-126182380D01*
X-13438095Y-126182380D01*
X-13438095Y-125182380D01*
X-13104761Y-125182380D01*
X-13009523Y-125230000D01*
X-12961904Y-125277619D01*
X-12914285Y-125372857D01*
X-12914285Y-125468095D01*
X-12961904Y-125563333D01*
X-13009523Y-125610952D01*
X-13104761Y-125658571D01*
X-13438095Y-125658571D01*
X-12485714Y-125277619D02*
X-12438095Y-125230000D01*
X-12342857Y-125182380D01*
X-12104761Y-125182380D01*
X-12009523Y-125230000D01*
X-11961904Y-125277619D01*
X-11914285Y-125372857D01*
X-11914285Y-125468095D01*
X-11961904Y-125610952D01*
X-12533333Y-126182380D01*
X-11914285Y-126182380D01*
X-12866666Y-123547142D02*
X-12914285Y-123594761D01*
X-13057142Y-123642380D01*
X-13152380Y-123642380D01*
X-13295238Y-123594761D01*
X-13390476Y-123499523D01*
X-13438095Y-123404285D01*
X-13485714Y-123213809D01*
X-13485714Y-123070952D01*
X-13438095Y-122880476D01*
X-13390476Y-122785238D01*
X-13295238Y-122690000D01*
X-13152380Y-122642380D01*
X-13057142Y-122642380D01*
X-12914285Y-122690000D01*
X-12866666Y-122737619D01*
X-12485714Y-122737619D02*
X-12438095Y-122690000D01*
X-12342857Y-122642380D01*
X-12104761Y-122642380D01*
X-12009523Y-122690000D01*
X-11961904Y-122737619D01*
X-11914285Y-122832857D01*
X-11914285Y-122928095D01*
X-11961904Y-123070952D01*
X-12533333Y-123642380D01*
X-11914285Y-123642380D01*
X-13438095Y-121102380D02*
X-13438095Y-120102380D01*
X-13200000Y-120102380D01*
X-13057142Y-120150000D01*
X-12961904Y-120245238D01*
X-12914285Y-120340476D01*
X-12866666Y-120530952D01*
X-12866666Y-120673809D01*
X-12914285Y-120864285D01*
X-12961904Y-120959523D01*
X-13057142Y-121054761D01*
X-13200000Y-121102380D01*
X-13438095Y-121102380D01*
X-12485714Y-120197619D02*
X-12438095Y-120150000D01*
X-12342857Y-120102380D01*
X-12104761Y-120102380D01*
X-12009523Y-120150000D01*
X-11961904Y-120197619D01*
X-11914285Y-120292857D01*
X-11914285Y-120388095D01*
X-11961904Y-120530952D01*
X-12533333Y-121102380D01*
X-11914285Y-121102380D01*
X-12866666Y-118562380D02*
X-13342857Y-118562380D01*
X-13342857Y-117562380D01*
X-12580952Y-117657619D02*
X-12533333Y-117610000D01*
X-12438095Y-117562380D01*
X-12200000Y-117562380D01*
X-12104761Y-117610000D01*
X-12057142Y-117657619D01*
X-12009523Y-117752857D01*
X-12009523Y-117848095D01*
X-12057142Y-117990952D01*
X-12628571Y-118562380D01*
X-12009523Y-118562380D01*
X-12993333Y-115927142D02*
X-13040952Y-115974761D01*
X-13183809Y-116022380D01*
X-13279047Y-116022380D01*
X-13421904Y-115974761D01*
X-13517142Y-115879523D01*
X-13564761Y-115784285D01*
X-13612380Y-115593809D01*
X-13612380Y-115450952D01*
X-13564761Y-115260476D01*
X-13517142Y-115165238D01*
X-13421904Y-115070000D01*
X-13279047Y-115022380D01*
X-13183809Y-115022380D01*
X-13040952Y-115070000D01*
X-12993333Y-115117619D01*
X-12374285Y-115022380D02*
X-12183809Y-115022380D01*
X-12088571Y-115070000D01*
X-11993333Y-115165238D01*
X-11945714Y-115355714D01*
X-11945714Y-115689047D01*
X-11993333Y-115879523D01*
X-12088571Y-115974761D01*
X-12183809Y-116022380D01*
X-12374285Y-116022380D01*
X-12469523Y-115974761D01*
X-12564761Y-115879523D01*
X-12612380Y-115689047D01*
X-12612380Y-115355714D01*
X-12564761Y-115165238D01*
X-12469523Y-115070000D01*
X-12374285Y-115022380D01*
X-11517142Y-116022380D02*
X-11517142Y-115022380D01*
X-11183809Y-115736666D01*
X-10850476Y-115022380D01*
X-10850476Y-116022380D01*
X-9850476Y-116022380D02*
X-10421904Y-116022380D01*
X-10136190Y-116022380D02*
X-10136190Y-115022380D01*
X-10231428Y-115165238D01*
X-10326666Y-115260476D01*
X-10421904Y-115308095D01*
X-8898095Y-116022380D02*
X-9469523Y-116022380D01*
X-9183809Y-116022380D02*
X-9183809Y-115022380D01*
X-9279047Y-115165238D01*
X-9374285Y-115260476D01*
X-9469523Y-115308095D01*
X-8469523Y-115641428D02*
X-7707619Y-115641428D01*
X-7279047Y-115117619D02*
X-7231428Y-115070000D01*
X-7136190Y-115022380D01*
X-6898095Y-115022380D01*
X-6802857Y-115070000D01*
X-6755238Y-115117619D01*
X-6707619Y-115212857D01*
X-6707619Y-115308095D01*
X-6755238Y-115450952D01*
X-7326666Y-116022380D01*
X-6707619Y-116022380D01*
X-12993333Y-113387142D02*
X-13040952Y-113434761D01*
X-13183809Y-113482380D01*
X-13279047Y-113482380D01*
X-13421904Y-113434761D01*
X-13517142Y-113339523D01*
X-13564761Y-113244285D01*
X-13612380Y-113053809D01*
X-13612380Y-112910952D01*
X-13564761Y-112720476D01*
X-13517142Y-112625238D01*
X-13421904Y-112530000D01*
X-13279047Y-112482380D01*
X-13183809Y-112482380D01*
X-13040952Y-112530000D01*
X-12993333Y-112577619D01*
X-12374285Y-112482380D02*
X-12183809Y-112482380D01*
X-12088571Y-112530000D01*
X-11993333Y-112625238D01*
X-11945714Y-112815714D01*
X-11945714Y-113149047D01*
X-11993333Y-113339523D01*
X-12088571Y-113434761D01*
X-12183809Y-113482380D01*
X-12374285Y-113482380D01*
X-12469523Y-113434761D01*
X-12564761Y-113339523D01*
X-12612380Y-113149047D01*
X-12612380Y-112815714D01*
X-12564761Y-112625238D01*
X-12469523Y-112530000D01*
X-12374285Y-112482380D01*
X-11517142Y-113482380D02*
X-11517142Y-112482380D01*
X-11183809Y-113196666D01*
X-10850476Y-112482380D01*
X-10850476Y-113482380D01*
X-9850476Y-113482380D02*
X-10421904Y-113482380D01*
X-10136190Y-113482380D02*
X-10136190Y-112482380D01*
X-10231428Y-112625238D01*
X-10326666Y-112720476D01*
X-10421904Y-112768095D01*
X-9231428Y-112482380D02*
X-9136190Y-112482380D01*
X-9040952Y-112530000D01*
X-8993333Y-112577619D01*
X-8945714Y-112672857D01*
X-8898095Y-112863333D01*
X-8898095Y-113101428D01*
X-8945714Y-113291904D01*
X-8993333Y-113387142D01*
X-9040952Y-113434761D01*
X-9136190Y-113482380D01*
X-9231428Y-113482380D01*
X-9326666Y-113434761D01*
X-9374285Y-113387142D01*
X-9421904Y-113291904D01*
X-9469523Y-113101428D01*
X-9469523Y-112863333D01*
X-9421904Y-112672857D01*
X-9374285Y-112577619D01*
X-9326666Y-112530000D01*
X-9231428Y-112482380D01*
X-8469523Y-113101428D02*
X-7707619Y-113101428D01*
X-7279047Y-112577619D02*
X-7231428Y-112530000D01*
X-7136190Y-112482380D01*
X-6898095Y-112482380D01*
X-6802857Y-112530000D01*
X-6755238Y-112577619D01*
X-6707619Y-112672857D01*
X-6707619Y-112768095D01*
X-6755238Y-112910952D01*
X-7326666Y-113482380D01*
X-6707619Y-113482380D01*
X-13152142Y-110847142D02*
X-13199761Y-110894761D01*
X-13342619Y-110942380D01*
X-13437857Y-110942380D01*
X-13580714Y-110894761D01*
X-13675952Y-110799523D01*
X-13723571Y-110704285D01*
X-13771190Y-110513809D01*
X-13771190Y-110370952D01*
X-13723571Y-110180476D01*
X-13675952Y-110085238D01*
X-13580714Y-109990000D01*
X-13437857Y-109942380D01*
X-13342619Y-109942380D01*
X-13199761Y-109990000D01*
X-13152142Y-110037619D01*
X-12533095Y-109942380D02*
X-12342619Y-109942380D01*
X-12247380Y-109990000D01*
X-12152142Y-110085238D01*
X-12104523Y-110275714D01*
X-12104523Y-110609047D01*
X-12152142Y-110799523D01*
X-12247380Y-110894761D01*
X-12342619Y-110942380D01*
X-12533095Y-110942380D01*
X-12628333Y-110894761D01*
X-12723571Y-110799523D01*
X-12771190Y-110609047D01*
X-12771190Y-110275714D01*
X-12723571Y-110085238D01*
X-12628333Y-109990000D01*
X-12533095Y-109942380D01*
X-11675952Y-110942380D02*
X-11675952Y-109942380D01*
X-11342619Y-110656666D01*
X-11009285Y-109942380D01*
X-11009285Y-110942380D01*
X-10485476Y-110942380D02*
X-10295000Y-110942380D01*
X-10199761Y-110894761D01*
X-10152142Y-110847142D01*
X-10056904Y-110704285D01*
X-10009285Y-110513809D01*
X-10009285Y-110132857D01*
X-10056904Y-110037619D01*
X-10104523Y-109990000D01*
X-10199761Y-109942380D01*
X-10390238Y-109942380D01*
X-10485476Y-109990000D01*
X-10533095Y-110037619D01*
X-10580714Y-110132857D01*
X-10580714Y-110370952D01*
X-10533095Y-110466190D01*
X-10485476Y-110513809D01*
X-10390238Y-110561428D01*
X-10199761Y-110561428D01*
X-10104523Y-110513809D01*
X-10056904Y-110466190D01*
X-10009285Y-110370952D01*
X-9580714Y-110561428D02*
X-8818809Y-110561428D01*
X-8390238Y-110037619D02*
X-8342619Y-109990000D01*
X-8247380Y-109942380D01*
X-8009285Y-109942380D01*
X-7914047Y-109990000D01*
X-7866428Y-110037619D01*
X-7818809Y-110132857D01*
X-7818809Y-110228095D01*
X-7866428Y-110370952D01*
X-8437857Y-110942380D01*
X-7818809Y-110942380D01*
X-13152142Y-108307142D02*
X-13199761Y-108354761D01*
X-13342619Y-108402380D01*
X-13437857Y-108402380D01*
X-13580714Y-108354761D01*
X-13675952Y-108259523D01*
X-13723571Y-108164285D01*
X-13771190Y-107973809D01*
X-13771190Y-107830952D01*
X-13723571Y-107640476D01*
X-13675952Y-107545238D01*
X-13580714Y-107450000D01*
X-13437857Y-107402380D01*
X-13342619Y-107402380D01*
X-13199761Y-107450000D01*
X-13152142Y-107497619D01*
X-12533095Y-107402380D02*
X-12342619Y-107402380D01*
X-12247380Y-107450000D01*
X-12152142Y-107545238D01*
X-12104523Y-107735714D01*
X-12104523Y-108069047D01*
X-12152142Y-108259523D01*
X-12247380Y-108354761D01*
X-12342619Y-108402380D01*
X-12533095Y-108402380D01*
X-12628333Y-108354761D01*
X-12723571Y-108259523D01*
X-12771190Y-108069047D01*
X-12771190Y-107735714D01*
X-12723571Y-107545238D01*
X-12628333Y-107450000D01*
X-12533095Y-107402380D01*
X-11675952Y-108402380D02*
X-11675952Y-107402380D01*
X-11342619Y-108116666D01*
X-11009285Y-107402380D01*
X-11009285Y-108402380D01*
X-10390238Y-107830952D02*
X-10485476Y-107783333D01*
X-10533095Y-107735714D01*
X-10580714Y-107640476D01*
X-10580714Y-107592857D01*
X-10533095Y-107497619D01*
X-10485476Y-107450000D01*
X-10390238Y-107402380D01*
X-10199761Y-107402380D01*
X-10104523Y-107450000D01*
X-10056904Y-107497619D01*
X-10009285Y-107592857D01*
X-10009285Y-107640476D01*
X-10056904Y-107735714D01*
X-10104523Y-107783333D01*
X-10199761Y-107830952D01*
X-10390238Y-107830952D01*
X-10485476Y-107878571D01*
X-10533095Y-107926190D01*
X-10580714Y-108021428D01*
X-10580714Y-108211904D01*
X-10533095Y-108307142D01*
X-10485476Y-108354761D01*
X-10390238Y-108402380D01*
X-10199761Y-108402380D01*
X-10104523Y-108354761D01*
X-10056904Y-108307142D01*
X-10009285Y-108211904D01*
X-10009285Y-108021428D01*
X-10056904Y-107926190D01*
X-10104523Y-107878571D01*
X-10199761Y-107830952D01*
X-9580714Y-108021428D02*
X-8818809Y-108021428D01*
X-8390238Y-107497619D02*
X-8342619Y-107450000D01*
X-8247380Y-107402380D01*
X-8009285Y-107402380D01*
X-7914047Y-107450000D01*
X-7866428Y-107497619D01*
X-7818809Y-107592857D01*
X-7818809Y-107688095D01*
X-7866428Y-107830952D01*
X-8437857Y-108402380D01*
X-7818809Y-108402380D01*
X-13390476Y-105338571D02*
X-13057142Y-105338571D01*
X-12914285Y-105862380D02*
X-13390476Y-105862380D01*
X-13390476Y-104862380D01*
X-12914285Y-104862380D01*
X-12533333Y-104957619D02*
X-12485714Y-104910000D01*
X-12390476Y-104862380D01*
X-12152380Y-104862380D01*
X-12057142Y-104910000D01*
X-12009523Y-104957619D01*
X-11961904Y-105052857D01*
X-11961904Y-105148095D01*
X-12009523Y-105290952D01*
X-12580952Y-105862380D01*
X-11961904Y-105862380D01*
X-12914285Y-102370000D02*
X-13009523Y-102322380D01*
X-13152380Y-102322380D01*
X-13295238Y-102370000D01*
X-13390476Y-102465238D01*
X-13438095Y-102560476D01*
X-13485714Y-102750952D01*
X-13485714Y-102893809D01*
X-13438095Y-103084285D01*
X-13390476Y-103179523D01*
X-13295238Y-103274761D01*
X-13152380Y-103322380D01*
X-13057142Y-103322380D01*
X-12914285Y-103274761D01*
X-12866666Y-103227142D01*
X-12866666Y-102893809D01*
X-13057142Y-102893809D01*
X-12485714Y-102417619D02*
X-12438095Y-102370000D01*
X-12342857Y-102322380D01*
X-12104761Y-102322380D01*
X-12009523Y-102370000D01*
X-11961904Y-102417619D01*
X-11914285Y-102512857D01*
X-11914285Y-102608095D01*
X-11961904Y-102750952D01*
X-12533333Y-103322380D01*
X-11914285Y-103322380D01*
X-12795238Y-100877619D02*
X-12890476Y-100830000D01*
X-12985714Y-100734761D01*
X-13128571Y-100591904D01*
X-13223809Y-100544285D01*
X-13319047Y-100544285D01*
X-13271428Y-100782380D02*
X-13366666Y-100734761D01*
X-13461904Y-100639523D01*
X-13509523Y-100449047D01*
X-13509523Y-100115714D01*
X-13461904Y-99925238D01*
X-13366666Y-99830000D01*
X-13271428Y-99782380D01*
X-13080952Y-99782380D01*
X-12985714Y-99830000D01*
X-12890476Y-99925238D01*
X-12842857Y-100115714D01*
X-12842857Y-100449047D01*
X-12890476Y-100639523D01*
X-12985714Y-100734761D01*
X-13080952Y-100782380D01*
X-13271428Y-100782380D01*
X-12461904Y-99877619D02*
X-12414285Y-99830000D01*
X-12319047Y-99782380D01*
X-12080952Y-99782380D01*
X-11985714Y-99830000D01*
X-11938095Y-99877619D01*
X-11890476Y-99972857D01*
X-11890476Y-100068095D01*
X-11938095Y-100210952D01*
X-12509523Y-100782380D01*
X-11890476Y-100782380D01*
X-13033333Y-97242380D02*
X-13033333Y-97956666D01*
X-13080952Y-98099523D01*
X-13176190Y-98194761D01*
X-13319047Y-98242380D01*
X-13414285Y-98242380D01*
X-12604761Y-97337619D02*
X-12557142Y-97290000D01*
X-12461904Y-97242380D01*
X-12223809Y-97242380D01*
X-12128571Y-97290000D01*
X-12080952Y-97337619D01*
X-12033333Y-97432857D01*
X-12033333Y-97528095D01*
X-12080952Y-97670952D01*
X-12652380Y-98242380D01*
X-12033333Y-98242380D01*
X-13152142Y-95607142D02*
X-13199761Y-95654761D01*
X-13342619Y-95702380D01*
X-13437857Y-95702380D01*
X-13580714Y-95654761D01*
X-13675952Y-95559523D01*
X-13723571Y-95464285D01*
X-13771190Y-95273809D01*
X-13771190Y-95130952D01*
X-13723571Y-94940476D01*
X-13675952Y-94845238D01*
X-13580714Y-94750000D01*
X-13437857Y-94702380D01*
X-13342619Y-94702380D01*
X-13199761Y-94750000D01*
X-13152142Y-94797619D01*
X-12533095Y-94702380D02*
X-12342619Y-94702380D01*
X-12247380Y-94750000D01*
X-12152142Y-94845238D01*
X-12104523Y-95035714D01*
X-12104523Y-95369047D01*
X-12152142Y-95559523D01*
X-12247380Y-95654761D01*
X-12342619Y-95702380D01*
X-12533095Y-95702380D01*
X-12628333Y-95654761D01*
X-12723571Y-95559523D01*
X-12771190Y-95369047D01*
X-12771190Y-95035714D01*
X-12723571Y-94845238D01*
X-12628333Y-94750000D01*
X-12533095Y-94702380D01*
X-11675952Y-95702380D02*
X-11675952Y-94702380D01*
X-11342619Y-95416666D01*
X-11009285Y-94702380D01*
X-11009285Y-95702380D01*
X-10628333Y-94702380D02*
X-9961666Y-94702380D01*
X-10390238Y-95702380D01*
X-9580714Y-95321428D02*
X-8818809Y-95321428D01*
X-8390238Y-94797619D02*
X-8342619Y-94750000D01*
X-8247380Y-94702380D01*
X-8009285Y-94702380D01*
X-7914047Y-94750000D01*
X-7866428Y-94797619D01*
X-7818809Y-94892857D01*
X-7818809Y-94988095D01*
X-7866428Y-95130952D01*
X-8437857Y-95702380D01*
X-7818809Y-95702380D01*
X-13152142Y-93067142D02*
X-13199761Y-93114761D01*
X-13342619Y-93162380D01*
X-13437857Y-93162380D01*
X-13580714Y-93114761D01*
X-13675952Y-93019523D01*
X-13723571Y-92924285D01*
X-13771190Y-92733809D01*
X-13771190Y-92590952D01*
X-13723571Y-92400476D01*
X-13675952Y-92305238D01*
X-13580714Y-92210000D01*
X-13437857Y-92162380D01*
X-13342619Y-92162380D01*
X-13199761Y-92210000D01*
X-13152142Y-92257619D01*
X-12533095Y-92162380D02*
X-12342619Y-92162380D01*
X-12247380Y-92210000D01*
X-12152142Y-92305238D01*
X-12104523Y-92495714D01*
X-12104523Y-92829047D01*
X-12152142Y-93019523D01*
X-12247380Y-93114761D01*
X-12342619Y-93162380D01*
X-12533095Y-93162380D01*
X-12628333Y-93114761D01*
X-12723571Y-93019523D01*
X-12771190Y-92829047D01*
X-12771190Y-92495714D01*
X-12723571Y-92305238D01*
X-12628333Y-92210000D01*
X-12533095Y-92162380D01*
X-11675952Y-93162380D02*
X-11675952Y-92162380D01*
X-11342619Y-92876666D01*
X-11009285Y-92162380D01*
X-11009285Y-93162380D01*
X-10104523Y-92162380D02*
X-10295000Y-92162380D01*
X-10390238Y-92210000D01*
X-10437857Y-92257619D01*
X-10533095Y-92400476D01*
X-10580714Y-92590952D01*
X-10580714Y-92971904D01*
X-10533095Y-93067142D01*
X-10485476Y-93114761D01*
X-10390238Y-93162380D01*
X-10199761Y-93162380D01*
X-10104523Y-93114761D01*
X-10056904Y-93067142D01*
X-10009285Y-92971904D01*
X-10009285Y-92733809D01*
X-10056904Y-92638571D01*
X-10104523Y-92590952D01*
X-10199761Y-92543333D01*
X-10390238Y-92543333D01*
X-10485476Y-92590952D01*
X-10533095Y-92638571D01*
X-10580714Y-92733809D01*
X-9580714Y-92781428D02*
X-8818809Y-92781428D01*
X-8390238Y-92257619D02*
X-8342619Y-92210000D01*
X-8247380Y-92162380D01*
X-8009285Y-92162380D01*
X-7914047Y-92210000D01*
X-7866428Y-92257619D01*
X-7818809Y-92352857D01*
X-7818809Y-92448095D01*
X-7866428Y-92590952D01*
X-8437857Y-93162380D01*
X-7818809Y-93162380D01*
X-13152142Y-90527142D02*
X-13199761Y-90574761D01*
X-13342619Y-90622380D01*
X-13437857Y-90622380D01*
X-13580714Y-90574761D01*
X-13675952Y-90479523D01*
X-13723571Y-90384285D01*
X-13771190Y-90193809D01*
X-13771190Y-90050952D01*
X-13723571Y-89860476D01*
X-13675952Y-89765238D01*
X-13580714Y-89670000D01*
X-13437857Y-89622380D01*
X-13342619Y-89622380D01*
X-13199761Y-89670000D01*
X-13152142Y-89717619D01*
X-12533095Y-89622380D02*
X-12342619Y-89622380D01*
X-12247380Y-89670000D01*
X-12152142Y-89765238D01*
X-12104523Y-89955714D01*
X-12104523Y-90289047D01*
X-12152142Y-90479523D01*
X-12247380Y-90574761D01*
X-12342619Y-90622380D01*
X-12533095Y-90622380D01*
X-12628333Y-90574761D01*
X-12723571Y-90479523D01*
X-12771190Y-90289047D01*
X-12771190Y-89955714D01*
X-12723571Y-89765238D01*
X-12628333Y-89670000D01*
X-12533095Y-89622380D01*
X-11675952Y-90622380D02*
X-11675952Y-89622380D01*
X-11342619Y-90336666D01*
X-11009285Y-89622380D01*
X-11009285Y-90622380D01*
X-10056904Y-89622380D02*
X-10533095Y-89622380D01*
X-10580714Y-90098571D01*
X-10533095Y-90050952D01*
X-10437857Y-90003333D01*
X-10199761Y-90003333D01*
X-10104523Y-90050952D01*
X-10056904Y-90098571D01*
X-10009285Y-90193809D01*
X-10009285Y-90431904D01*
X-10056904Y-90527142D01*
X-10104523Y-90574761D01*
X-10199761Y-90622380D01*
X-10437857Y-90622380D01*
X-10533095Y-90574761D01*
X-10580714Y-90527142D01*
X-9580714Y-90241428D02*
X-8818809Y-90241428D01*
X-8390238Y-89717619D02*
X-8342619Y-89670000D01*
X-8247380Y-89622380D01*
X-8009285Y-89622380D01*
X-7914047Y-89670000D01*
X-7866428Y-89717619D01*
X-7818809Y-89812857D01*
X-7818809Y-89908095D01*
X-7866428Y-90050952D01*
X-8437857Y-90622380D01*
X-7818809Y-90622380D01*
X-13152142Y-87987142D02*
X-13199761Y-88034761D01*
X-13342619Y-88082380D01*
X-13437857Y-88082380D01*
X-13580714Y-88034761D01*
X-13675952Y-87939523D01*
X-13723571Y-87844285D01*
X-13771190Y-87653809D01*
X-13771190Y-87510952D01*
X-13723571Y-87320476D01*
X-13675952Y-87225238D01*
X-13580714Y-87130000D01*
X-13437857Y-87082380D01*
X-13342619Y-87082380D01*
X-13199761Y-87130000D01*
X-13152142Y-87177619D01*
X-12533095Y-87082380D02*
X-12342619Y-87082380D01*
X-12247380Y-87130000D01*
X-12152142Y-87225238D01*
X-12104523Y-87415714D01*
X-12104523Y-87749047D01*
X-12152142Y-87939523D01*
X-12247380Y-88034761D01*
X-12342619Y-88082380D01*
X-12533095Y-88082380D01*
X-12628333Y-88034761D01*
X-12723571Y-87939523D01*
X-12771190Y-87749047D01*
X-12771190Y-87415714D01*
X-12723571Y-87225238D01*
X-12628333Y-87130000D01*
X-12533095Y-87082380D01*
X-11675952Y-88082380D02*
X-11675952Y-87082380D01*
X-11342619Y-87796666D01*
X-11009285Y-87082380D01*
X-11009285Y-88082380D01*
X-10104523Y-87415714D02*
X-10104523Y-88082380D01*
X-10342619Y-87034761D02*
X-10580714Y-87749047D01*
X-9961666Y-87749047D01*
X-9580714Y-87701428D02*
X-8818809Y-87701428D01*
X-8390238Y-87177619D02*
X-8342619Y-87130000D01*
X-8247380Y-87082380D01*
X-8009285Y-87082380D01*
X-7914047Y-87130000D01*
X-7866428Y-87177619D01*
X-7818809Y-87272857D01*
X-7818809Y-87368095D01*
X-7866428Y-87510952D01*
X-8437857Y-88082380D01*
X-7818809Y-88082380D01*
X-13438095Y-85542380D02*
X-13438095Y-84542380D01*
X-12866666Y-85542380D02*
X-13295238Y-84970952D01*
X-12866666Y-84542380D02*
X-13438095Y-85113809D01*
X-12485714Y-84637619D02*
X-12438095Y-84590000D01*
X-12342857Y-84542380D01*
X-12104761Y-84542380D01*
X-12009523Y-84590000D01*
X-11961904Y-84637619D01*
X-11914285Y-84732857D01*
X-11914285Y-84828095D01*
X-11961904Y-84970952D01*
X-12533333Y-85542380D01*
X-11914285Y-85542380D01*
X-13033333Y-82478571D02*
X-13366666Y-82478571D01*
X-13366666Y-83002380D02*
X-13366666Y-82002380D01*
X-12890476Y-82002380D01*
X-12557142Y-82097619D02*
X-12509523Y-82050000D01*
X-12414285Y-82002380D01*
X-12176190Y-82002380D01*
X-12080952Y-82050000D01*
X-12033333Y-82097619D01*
X-11985714Y-82192857D01*
X-11985714Y-82288095D01*
X-12033333Y-82430952D01*
X-12604761Y-83002380D01*
X-11985714Y-83002380D01*
X-13509523Y-80462380D02*
X-13509523Y-79462380D01*
X-13176190Y-80176666D01*
X-12842857Y-79462380D01*
X-12842857Y-80462380D01*
X-12414285Y-79557619D02*
X-12366666Y-79510000D01*
X-12271428Y-79462380D01*
X-12033333Y-79462380D01*
X-11938095Y-79510000D01*
X-11890476Y-79557619D01*
X-11842857Y-79652857D01*
X-11842857Y-79748095D01*
X-11890476Y-79890952D01*
X-12461904Y-80462380D01*
X-11842857Y-80462380D01*
X-13461904Y-77922380D02*
X-13461904Y-76922380D01*
X-12890476Y-77922380D01*
X-12890476Y-76922380D01*
X-12461904Y-77017619D02*
X-12414285Y-76970000D01*
X-12319047Y-76922380D01*
X-12080952Y-76922380D01*
X-11985714Y-76970000D01*
X-11938095Y-77017619D01*
X-11890476Y-77112857D01*
X-11890476Y-77208095D01*
X-11938095Y-77350952D01*
X-12509523Y-77922380D01*
X-11890476Y-77922380D01*
X-13438095Y-75382380D02*
X-13438095Y-74382380D01*
X-13057142Y-74382380D01*
X-12961904Y-74430000D01*
X-12914285Y-74477619D01*
X-12866666Y-74572857D01*
X-12866666Y-74715714D01*
X-12914285Y-74810952D01*
X-12961904Y-74858571D01*
X-13057142Y-74906190D01*
X-13438095Y-74906190D01*
X-12485714Y-74477619D02*
X-12438095Y-74430000D01*
X-12342857Y-74382380D01*
X-12104761Y-74382380D01*
X-12009523Y-74430000D01*
X-11961904Y-74477619D01*
X-11914285Y-74572857D01*
X-11914285Y-74668095D01*
X-11961904Y-74810952D01*
X-12533333Y-75382380D01*
X-11914285Y-75382380D01*
X-13461904Y-72842380D02*
X-13461904Y-71842380D01*
X-13461904Y-72318571D02*
X-12890476Y-72318571D01*
X-12890476Y-72842380D02*
X-12890476Y-71842380D01*
X-12461904Y-71937619D02*
X-12414285Y-71890000D01*
X-12319047Y-71842380D01*
X-12080952Y-71842380D01*
X-11985714Y-71890000D01*
X-11938095Y-71937619D01*
X-11890476Y-72032857D01*
X-11890476Y-72128095D01*
X-11938095Y-72270952D01*
X-12509523Y-72842380D01*
X-11890476Y-72842380D01*
X-13938095Y-70302380D02*
X-13938095Y-69302380D01*
X-13700000Y-69302380D01*
X-13557142Y-69350000D01*
X-13461904Y-69445238D01*
X-13414285Y-69540476D01*
X-13366666Y-69730952D01*
X-13366666Y-69873809D01*
X-13414285Y-70064285D01*
X-13461904Y-70159523D01*
X-13557142Y-70254761D01*
X-13700000Y-70302380D01*
X-13938095Y-70302380D01*
X-12938095Y-70302380D02*
X-12938095Y-69302380D01*
X-12557142Y-69302380D01*
X-12461904Y-69350000D01*
X-12414285Y-69397619D01*
X-12366666Y-69492857D01*
X-12366666Y-69635714D01*
X-12414285Y-69730952D01*
X-12461904Y-69778571D01*
X-12557142Y-69826190D01*
X-12938095Y-69826190D01*
X-11985714Y-69397619D02*
X-11938095Y-69350000D01*
X-11842857Y-69302380D01*
X-11604761Y-69302380D01*
X-11509523Y-69350000D01*
X-11461904Y-69397619D01*
X-11414285Y-69492857D01*
X-11414285Y-69588095D01*
X-11461904Y-69730952D01*
X-12033333Y-70302380D01*
X-11414285Y-70302380D01*
X-13707857Y-67762380D02*
X-13707857Y-66762380D01*
X-13469761Y-66762380D01*
X-13326904Y-66810000D01*
X-13231666Y-66905238D01*
X-13184047Y-67000476D01*
X-13136428Y-67190952D01*
X-13136428Y-67333809D01*
X-13184047Y-67524285D01*
X-13231666Y-67619523D01*
X-13326904Y-67714761D01*
X-13469761Y-67762380D01*
X-13707857Y-67762380D01*
X-12517380Y-66762380D02*
X-12326904Y-66762380D01*
X-12231666Y-66810000D01*
X-12136428Y-66905238D01*
X-12088809Y-67095714D01*
X-12088809Y-67429047D01*
X-12136428Y-67619523D01*
X-12231666Y-67714761D01*
X-12326904Y-67762380D01*
X-12517380Y-67762380D01*
X-12612619Y-67714761D01*
X-12707857Y-67619523D01*
X-12755476Y-67429047D01*
X-12755476Y-67095714D01*
X-12707857Y-66905238D01*
X-12612619Y-66810000D01*
X-12517380Y-66762380D01*
X-11803095Y-66762380D02*
X-11231666Y-66762380D01*
X-11517380Y-67762380D02*
X-11517380Y-66762380D01*
X-10945952Y-66857619D02*
X-10898333Y-66810000D01*
X-10803095Y-66762380D01*
X-10565000Y-66762380D01*
X-10469761Y-66810000D01*
X-10422142Y-66857619D01*
X-10374523Y-66952857D01*
X-10374523Y-67048095D01*
X-10422142Y-67190952D01*
X-10993571Y-67762380D01*
X-10374523Y-67762380D01*
X-13152142Y-65127142D02*
X-13199761Y-65174761D01*
X-13342619Y-65222380D01*
X-13437857Y-65222380D01*
X-13580714Y-65174761D01*
X-13675952Y-65079523D01*
X-13723571Y-64984285D01*
X-13771190Y-64793809D01*
X-13771190Y-64650952D01*
X-13723571Y-64460476D01*
X-13675952Y-64365238D01*
X-13580714Y-64270000D01*
X-13437857Y-64222380D01*
X-13342619Y-64222380D01*
X-13199761Y-64270000D01*
X-13152142Y-64317619D01*
X-12533095Y-64222380D02*
X-12342619Y-64222380D01*
X-12247380Y-64270000D01*
X-12152142Y-64365238D01*
X-12104523Y-64555714D01*
X-12104523Y-64889047D01*
X-12152142Y-65079523D01*
X-12247380Y-65174761D01*
X-12342619Y-65222380D01*
X-12533095Y-65222380D01*
X-12628333Y-65174761D01*
X-12723571Y-65079523D01*
X-12771190Y-64889047D01*
X-12771190Y-64555714D01*
X-12723571Y-64365238D01*
X-12628333Y-64270000D01*
X-12533095Y-64222380D01*
X-11675952Y-65222380D02*
X-11675952Y-64222380D01*
X-11342619Y-64936666D01*
X-11009285Y-64222380D01*
X-11009285Y-65222380D01*
X-10628333Y-64222380D02*
X-10009285Y-64222380D01*
X-10342619Y-64603333D01*
X-10199761Y-64603333D01*
X-10104523Y-64650952D01*
X-10056904Y-64698571D01*
X-10009285Y-64793809D01*
X-10009285Y-65031904D01*
X-10056904Y-65127142D01*
X-10104523Y-65174761D01*
X-10199761Y-65222380D01*
X-10485476Y-65222380D01*
X-10580714Y-65174761D01*
X-10628333Y-65127142D01*
X-9580714Y-64841428D02*
X-8818809Y-64841428D01*
X-8390238Y-64317619D02*
X-8342619Y-64270000D01*
X-8247380Y-64222380D01*
X-8009285Y-64222380D01*
X-7914047Y-64270000D01*
X-7866428Y-64317619D01*
X-7818809Y-64412857D01*
X-7818809Y-64508095D01*
X-7866428Y-64650952D01*
X-8437857Y-65222380D01*
X-7818809Y-65222380D01*
X-13152142Y-62587142D02*
X-13199761Y-62634761D01*
X-13342619Y-62682380D01*
X-13437857Y-62682380D01*
X-13580714Y-62634761D01*
X-13675952Y-62539523D01*
X-13723571Y-62444285D01*
X-13771190Y-62253809D01*
X-13771190Y-62110952D01*
X-13723571Y-61920476D01*
X-13675952Y-61825238D01*
X-13580714Y-61730000D01*
X-13437857Y-61682380D01*
X-13342619Y-61682380D01*
X-13199761Y-61730000D01*
X-13152142Y-61777619D01*
X-12533095Y-61682380D02*
X-12342619Y-61682380D01*
X-12247380Y-61730000D01*
X-12152142Y-61825238D01*
X-12104523Y-62015714D01*
X-12104523Y-62349047D01*
X-12152142Y-62539523D01*
X-12247380Y-62634761D01*
X-12342619Y-62682380D01*
X-12533095Y-62682380D01*
X-12628333Y-62634761D01*
X-12723571Y-62539523D01*
X-12771190Y-62349047D01*
X-12771190Y-62015714D01*
X-12723571Y-61825238D01*
X-12628333Y-61730000D01*
X-12533095Y-61682380D01*
X-11675952Y-62682380D02*
X-11675952Y-61682380D01*
X-11342619Y-62396666D01*
X-11009285Y-61682380D01*
X-11009285Y-62682380D01*
X-10580714Y-61777619D02*
X-10533095Y-61730000D01*
X-10437857Y-61682380D01*
X-10199761Y-61682380D01*
X-10104523Y-61730000D01*
X-10056904Y-61777619D01*
X-10009285Y-61872857D01*
X-10009285Y-61968095D01*
X-10056904Y-62110952D01*
X-10628333Y-62682380D01*
X-10009285Y-62682380D01*
X-9580714Y-62301428D02*
X-8818809Y-62301428D01*
X-8390238Y-61777619D02*
X-8342619Y-61730000D01*
X-8247380Y-61682380D01*
X-8009285Y-61682380D01*
X-7914047Y-61730000D01*
X-7866428Y-61777619D01*
X-7818809Y-61872857D01*
X-7818809Y-61968095D01*
X-7866428Y-62110952D01*
X-8437857Y-62682380D01*
X-7818809Y-62682380D01*
X-13152142Y-60047142D02*
X-13199761Y-60094761D01*
X-13342619Y-60142380D01*
X-13437857Y-60142380D01*
X-13580714Y-60094761D01*
X-13675952Y-59999523D01*
X-13723571Y-59904285D01*
X-13771190Y-59713809D01*
X-13771190Y-59570952D01*
X-13723571Y-59380476D01*
X-13675952Y-59285238D01*
X-13580714Y-59190000D01*
X-13437857Y-59142380D01*
X-13342619Y-59142380D01*
X-13199761Y-59190000D01*
X-13152142Y-59237619D01*
X-12533095Y-59142380D02*
X-12342619Y-59142380D01*
X-12247380Y-59190000D01*
X-12152142Y-59285238D01*
X-12104523Y-59475714D01*
X-12104523Y-59809047D01*
X-12152142Y-59999523D01*
X-12247380Y-60094761D01*
X-12342619Y-60142380D01*
X-12533095Y-60142380D01*
X-12628333Y-60094761D01*
X-12723571Y-59999523D01*
X-12771190Y-59809047D01*
X-12771190Y-59475714D01*
X-12723571Y-59285238D01*
X-12628333Y-59190000D01*
X-12533095Y-59142380D01*
X-11675952Y-60142380D02*
X-11675952Y-59142380D01*
X-11342619Y-59856666D01*
X-11009285Y-59142380D01*
X-11009285Y-60142380D01*
X-10009285Y-60142380D02*
X-10580714Y-60142380D01*
X-10295000Y-60142380D02*
X-10295000Y-59142380D01*
X-10390238Y-59285238D01*
X-10485476Y-59380476D01*
X-10580714Y-59428095D01*
X-9580714Y-59761428D02*
X-8818809Y-59761428D01*
X-8390238Y-59237619D02*
X-8342619Y-59190000D01*
X-8247380Y-59142380D01*
X-8009285Y-59142380D01*
X-7914047Y-59190000D01*
X-7866428Y-59237619D01*
X-7818809Y-59332857D01*
X-7818809Y-59428095D01*
X-7866428Y-59570952D01*
X-8437857Y-60142380D01*
X-7818809Y-60142380D01*
X-13152142Y-57507142D02*
X-13199761Y-57554761D01*
X-13342619Y-57602380D01*
X-13437857Y-57602380D01*
X-13580714Y-57554761D01*
X-13675952Y-57459523D01*
X-13723571Y-57364285D01*
X-13771190Y-57173809D01*
X-13771190Y-57030952D01*
X-13723571Y-56840476D01*
X-13675952Y-56745238D01*
X-13580714Y-56650000D01*
X-13437857Y-56602380D01*
X-13342619Y-56602380D01*
X-13199761Y-56650000D01*
X-13152142Y-56697619D01*
X-12533095Y-56602380D02*
X-12342619Y-56602380D01*
X-12247380Y-56650000D01*
X-12152142Y-56745238D01*
X-12104523Y-56935714D01*
X-12104523Y-57269047D01*
X-12152142Y-57459523D01*
X-12247380Y-57554761D01*
X-12342619Y-57602380D01*
X-12533095Y-57602380D01*
X-12628333Y-57554761D01*
X-12723571Y-57459523D01*
X-12771190Y-57269047D01*
X-12771190Y-56935714D01*
X-12723571Y-56745238D01*
X-12628333Y-56650000D01*
X-12533095Y-56602380D01*
X-11675952Y-57602380D02*
X-11675952Y-56602380D01*
X-11342619Y-57316666D01*
X-11009285Y-56602380D01*
X-11009285Y-57602380D01*
X-10342619Y-56602380D02*
X-10247380Y-56602380D01*
X-10152142Y-56650000D01*
X-10104523Y-56697619D01*
X-10056904Y-56792857D01*
X-10009285Y-56983333D01*
X-10009285Y-57221428D01*
X-10056904Y-57411904D01*
X-10104523Y-57507142D01*
X-10152142Y-57554761D01*
X-10247380Y-57602380D01*
X-10342619Y-57602380D01*
X-10437857Y-57554761D01*
X-10485476Y-57507142D01*
X-10533095Y-57411904D01*
X-10580714Y-57221428D01*
X-10580714Y-56983333D01*
X-10533095Y-56792857D01*
X-10485476Y-56697619D01*
X-10437857Y-56650000D01*
X-10342619Y-56602380D01*
X-9580714Y-57221428D02*
X-8818809Y-57221428D01*
X-8390238Y-56697619D02*
X-8342619Y-56650000D01*
X-8247380Y-56602380D01*
X-8009285Y-56602380D01*
X-7914047Y-56650000D01*
X-7866428Y-56697619D01*
X-7818809Y-56792857D01*
X-7818809Y-56888095D01*
X-7866428Y-57030952D01*
X-8437857Y-57602380D01*
X-7818809Y-57602380D01*
X93067142Y-58237142D02*
X93114761Y-58284761D01*
X93162380Y-58427619D01*
X93162380Y-58522857D01*
X93114761Y-58665714D01*
X93019523Y-58760952D01*
X92924285Y-58808571D01*
X92733809Y-58856190D01*
X92590952Y-58856190D01*
X92400476Y-58808571D01*
X92305238Y-58760952D01*
X92210000Y-58665714D01*
X92162380Y-58522857D01*
X92162380Y-58427619D01*
X92210000Y-58284761D01*
X92257619Y-58237142D01*
X92162380Y-57618095D02*
X92162380Y-57427619D01*
X92210000Y-57332380D01*
X92305238Y-57237142D01*
X92495714Y-57189523D01*
X92829047Y-57189523D01*
X93019523Y-57237142D01*
X93114761Y-57332380D01*
X93162380Y-57427619D01*
X93162380Y-57618095D01*
X93114761Y-57713333D01*
X93019523Y-57808571D01*
X92829047Y-57856190D01*
X92495714Y-57856190D01*
X92305238Y-57808571D01*
X92210000Y-57713333D01*
X92162380Y-57618095D01*
X93162380Y-56760952D02*
X92162380Y-56760952D01*
X92876666Y-56427619D01*
X92162380Y-56094285D01*
X93162380Y-56094285D01*
X92162380Y-55427619D02*
X92162380Y-55332380D01*
X92210000Y-55237142D01*
X92257619Y-55189523D01*
X92352857Y-55141904D01*
X92543333Y-55094285D01*
X92781428Y-55094285D01*
X92971904Y-55141904D01*
X93067142Y-55189523D01*
X93114761Y-55237142D01*
X93162380Y-55332380D01*
X93162380Y-55427619D01*
X93114761Y-55522857D01*
X93067142Y-55570476D01*
X92971904Y-55618095D01*
X92781428Y-55665714D01*
X92543333Y-55665714D01*
X92352857Y-55618095D01*
X92257619Y-55570476D01*
X92210000Y-55522857D01*
X92162380Y-55427619D01*
X92781428Y-54665714D02*
X92781428Y-53903809D01*
X93162380Y-52903809D02*
X93162380Y-53475238D01*
X93162380Y-53189523D02*
X92162380Y-53189523D01*
X92305238Y-53284761D01*
X92400476Y-53380000D01*
X92448095Y-53475238D01*
X90527142Y-58237142D02*
X90574761Y-58284761D01*
X90622380Y-58427619D01*
X90622380Y-58522857D01*
X90574761Y-58665714D01*
X90479523Y-58760952D01*
X90384285Y-58808571D01*
X90193809Y-58856190D01*
X90050952Y-58856190D01*
X89860476Y-58808571D01*
X89765238Y-58760952D01*
X89670000Y-58665714D01*
X89622380Y-58522857D01*
X89622380Y-58427619D01*
X89670000Y-58284761D01*
X89717619Y-58237142D01*
X89622380Y-57618095D02*
X89622380Y-57427619D01*
X89670000Y-57332380D01*
X89765238Y-57237142D01*
X89955714Y-57189523D01*
X90289047Y-57189523D01*
X90479523Y-57237142D01*
X90574761Y-57332380D01*
X90622380Y-57427619D01*
X90622380Y-57618095D01*
X90574761Y-57713333D01*
X90479523Y-57808571D01*
X90289047Y-57856190D01*
X89955714Y-57856190D01*
X89765238Y-57808571D01*
X89670000Y-57713333D01*
X89622380Y-57618095D01*
X90622380Y-56760952D02*
X89622380Y-56760952D01*
X90336666Y-56427619D01*
X89622380Y-56094285D01*
X90622380Y-56094285D01*
X90622380Y-55094285D02*
X90622380Y-55665714D01*
X90622380Y-55380000D02*
X89622380Y-55380000D01*
X89765238Y-55475238D01*
X89860476Y-55570476D01*
X89908095Y-55665714D01*
X90241428Y-54665714D02*
X90241428Y-53903809D01*
X90622380Y-52903809D02*
X90622380Y-53475238D01*
X90622380Y-53189523D02*
X89622380Y-53189523D01*
X89765238Y-53284761D01*
X89860476Y-53380000D01*
X89908095Y-53475238D01*
X87987142Y-58237142D02*
X88034761Y-58284761D01*
X88082380Y-58427619D01*
X88082380Y-58522857D01*
X88034761Y-58665714D01*
X87939523Y-58760952D01*
X87844285Y-58808571D01*
X87653809Y-58856190D01*
X87510952Y-58856190D01*
X87320476Y-58808571D01*
X87225238Y-58760952D01*
X87130000Y-58665714D01*
X87082380Y-58522857D01*
X87082380Y-58427619D01*
X87130000Y-58284761D01*
X87177619Y-58237142D01*
X87082380Y-57618095D02*
X87082380Y-57427619D01*
X87130000Y-57332380D01*
X87225238Y-57237142D01*
X87415714Y-57189523D01*
X87749047Y-57189523D01*
X87939523Y-57237142D01*
X88034761Y-57332380D01*
X88082380Y-57427619D01*
X88082380Y-57618095D01*
X88034761Y-57713333D01*
X87939523Y-57808571D01*
X87749047Y-57856190D01*
X87415714Y-57856190D01*
X87225238Y-57808571D01*
X87130000Y-57713333D01*
X87082380Y-57618095D01*
X88082380Y-56760952D02*
X87082380Y-56760952D01*
X87796666Y-56427619D01*
X87082380Y-56094285D01*
X88082380Y-56094285D01*
X87177619Y-55665714D02*
X87130000Y-55618095D01*
X87082380Y-55522857D01*
X87082380Y-55284761D01*
X87130000Y-55189523D01*
X87177619Y-55141904D01*
X87272857Y-55094285D01*
X87368095Y-55094285D01*
X87510952Y-55141904D01*
X88082380Y-55713333D01*
X88082380Y-55094285D01*
X87701428Y-54665714D02*
X87701428Y-53903809D01*
X88082380Y-52903809D02*
X88082380Y-53475238D01*
X88082380Y-53189523D02*
X87082380Y-53189523D01*
X87225238Y-53284761D01*
X87320476Y-53380000D01*
X87368095Y-53475238D01*
X85447142Y-58237142D02*
X85494761Y-58284761D01*
X85542380Y-58427619D01*
X85542380Y-58522857D01*
X85494761Y-58665714D01*
X85399523Y-58760952D01*
X85304285Y-58808571D01*
X85113809Y-58856190D01*
X84970952Y-58856190D01*
X84780476Y-58808571D01*
X84685238Y-58760952D01*
X84590000Y-58665714D01*
X84542380Y-58522857D01*
X84542380Y-58427619D01*
X84590000Y-58284761D01*
X84637619Y-58237142D01*
X84542380Y-57618095D02*
X84542380Y-57427619D01*
X84590000Y-57332380D01*
X84685238Y-57237142D01*
X84875714Y-57189523D01*
X85209047Y-57189523D01*
X85399523Y-57237142D01*
X85494761Y-57332380D01*
X85542380Y-57427619D01*
X85542380Y-57618095D01*
X85494761Y-57713333D01*
X85399523Y-57808571D01*
X85209047Y-57856190D01*
X84875714Y-57856190D01*
X84685238Y-57808571D01*
X84590000Y-57713333D01*
X84542380Y-57618095D01*
X85542380Y-56760952D02*
X84542380Y-56760952D01*
X85256666Y-56427619D01*
X84542380Y-56094285D01*
X85542380Y-56094285D01*
X84542380Y-55713333D02*
X84542380Y-55094285D01*
X84923333Y-55427619D01*
X84923333Y-55284761D01*
X84970952Y-55189523D01*
X85018571Y-55141904D01*
X85113809Y-55094285D01*
X85351904Y-55094285D01*
X85447142Y-55141904D01*
X85494761Y-55189523D01*
X85542380Y-55284761D01*
X85542380Y-55570476D01*
X85494761Y-55665714D01*
X85447142Y-55713333D01*
X85161428Y-54665714D02*
X85161428Y-53903809D01*
X85542380Y-52903809D02*
X85542380Y-53475238D01*
X85542380Y-53189523D02*
X84542380Y-53189523D01*
X84685238Y-53284761D01*
X84780476Y-53380000D01*
X84828095Y-53475238D01*
X82907142Y-58237142D02*
X82954761Y-58284761D01*
X83002380Y-58427619D01*
X83002380Y-58522857D01*
X82954761Y-58665714D01*
X82859523Y-58760952D01*
X82764285Y-58808571D01*
X82573809Y-58856190D01*
X82430952Y-58856190D01*
X82240476Y-58808571D01*
X82145238Y-58760952D01*
X82050000Y-58665714D01*
X82002380Y-58522857D01*
X82002380Y-58427619D01*
X82050000Y-58284761D01*
X82097619Y-58237142D01*
X82002380Y-57618095D02*
X82002380Y-57427619D01*
X82050000Y-57332380D01*
X82145238Y-57237142D01*
X82335714Y-57189523D01*
X82669047Y-57189523D01*
X82859523Y-57237142D01*
X82954761Y-57332380D01*
X83002380Y-57427619D01*
X83002380Y-57618095D01*
X82954761Y-57713333D01*
X82859523Y-57808571D01*
X82669047Y-57856190D01*
X82335714Y-57856190D01*
X82145238Y-57808571D01*
X82050000Y-57713333D01*
X82002380Y-57618095D01*
X83002380Y-56760952D02*
X82002380Y-56760952D01*
X82716666Y-56427619D01*
X82002380Y-56094285D01*
X83002380Y-56094285D01*
X82335714Y-55189523D02*
X83002380Y-55189523D01*
X81954761Y-55427619D02*
X82669047Y-55665714D01*
X82669047Y-55046666D01*
X82621428Y-54665714D02*
X82621428Y-53903809D01*
X83002380Y-52903809D02*
X83002380Y-53475238D01*
X83002380Y-53189523D02*
X82002380Y-53189523D01*
X82145238Y-53284761D01*
X82240476Y-53380000D01*
X82288095Y-53475238D01*
X80367142Y-58237142D02*
X80414761Y-58284761D01*
X80462380Y-58427619D01*
X80462380Y-58522857D01*
X80414761Y-58665714D01*
X80319523Y-58760952D01*
X80224285Y-58808571D01*
X80033809Y-58856190D01*
X79890952Y-58856190D01*
X79700476Y-58808571D01*
X79605238Y-58760952D01*
X79510000Y-58665714D01*
X79462380Y-58522857D01*
X79462380Y-58427619D01*
X79510000Y-58284761D01*
X79557619Y-58237142D01*
X79462380Y-57618095D02*
X79462380Y-57427619D01*
X79510000Y-57332380D01*
X79605238Y-57237142D01*
X79795714Y-57189523D01*
X80129047Y-57189523D01*
X80319523Y-57237142D01*
X80414761Y-57332380D01*
X80462380Y-57427619D01*
X80462380Y-57618095D01*
X80414761Y-57713333D01*
X80319523Y-57808571D01*
X80129047Y-57856190D01*
X79795714Y-57856190D01*
X79605238Y-57808571D01*
X79510000Y-57713333D01*
X79462380Y-57618095D01*
X80462380Y-56760952D02*
X79462380Y-56760952D01*
X80176666Y-56427619D01*
X79462380Y-56094285D01*
X80462380Y-56094285D01*
X79462380Y-55141904D02*
X79462380Y-55618095D01*
X79938571Y-55665714D01*
X79890952Y-55618095D01*
X79843333Y-55522857D01*
X79843333Y-55284761D01*
X79890952Y-55189523D01*
X79938571Y-55141904D01*
X80033809Y-55094285D01*
X80271904Y-55094285D01*
X80367142Y-55141904D01*
X80414761Y-55189523D01*
X80462380Y-55284761D01*
X80462380Y-55522857D01*
X80414761Y-55618095D01*
X80367142Y-55665714D01*
X80081428Y-54665714D02*
X80081428Y-53903809D01*
X80462380Y-52903809D02*
X80462380Y-53475238D01*
X80462380Y-53189523D02*
X79462380Y-53189523D01*
X79605238Y-53284761D01*
X79700476Y-53380000D01*
X79748095Y-53475238D01*
X77827142Y-58237142D02*
X77874761Y-58284761D01*
X77922380Y-58427619D01*
X77922380Y-58522857D01*
X77874761Y-58665714D01*
X77779523Y-58760952D01*
X77684285Y-58808571D01*
X77493809Y-58856190D01*
X77350952Y-58856190D01*
X77160476Y-58808571D01*
X77065238Y-58760952D01*
X76970000Y-58665714D01*
X76922380Y-58522857D01*
X76922380Y-58427619D01*
X76970000Y-58284761D01*
X77017619Y-58237142D01*
X76922380Y-57618095D02*
X76922380Y-57427619D01*
X76970000Y-57332380D01*
X77065238Y-57237142D01*
X77255714Y-57189523D01*
X77589047Y-57189523D01*
X77779523Y-57237142D01*
X77874761Y-57332380D01*
X77922380Y-57427619D01*
X77922380Y-57618095D01*
X77874761Y-57713333D01*
X77779523Y-57808571D01*
X77589047Y-57856190D01*
X77255714Y-57856190D01*
X77065238Y-57808571D01*
X76970000Y-57713333D01*
X76922380Y-57618095D01*
X77922380Y-56760952D02*
X76922380Y-56760952D01*
X77636666Y-56427619D01*
X76922380Y-56094285D01*
X77922380Y-56094285D01*
X76922380Y-55189523D02*
X76922380Y-55380000D01*
X76970000Y-55475238D01*
X77017619Y-55522857D01*
X77160476Y-55618095D01*
X77350952Y-55665714D01*
X77731904Y-55665714D01*
X77827142Y-55618095D01*
X77874761Y-55570476D01*
X77922380Y-55475238D01*
X77922380Y-55284761D01*
X77874761Y-55189523D01*
X77827142Y-55141904D01*
X77731904Y-55094285D01*
X77493809Y-55094285D01*
X77398571Y-55141904D01*
X77350952Y-55189523D01*
X77303333Y-55284761D01*
X77303333Y-55475238D01*
X77350952Y-55570476D01*
X77398571Y-55618095D01*
X77493809Y-55665714D01*
X77541428Y-54665714D02*
X77541428Y-53903809D01*
X77922380Y-52903809D02*
X77922380Y-53475238D01*
X77922380Y-53189523D02*
X76922380Y-53189523D01*
X77065238Y-53284761D01*
X77160476Y-53380000D01*
X77208095Y-53475238D01*
X75287142Y-58237142D02*
X75334761Y-58284761D01*
X75382380Y-58427619D01*
X75382380Y-58522857D01*
X75334761Y-58665714D01*
X75239523Y-58760952D01*
X75144285Y-58808571D01*
X74953809Y-58856190D01*
X74810952Y-58856190D01*
X74620476Y-58808571D01*
X74525238Y-58760952D01*
X74430000Y-58665714D01*
X74382380Y-58522857D01*
X74382380Y-58427619D01*
X74430000Y-58284761D01*
X74477619Y-58237142D01*
X74382380Y-57618095D02*
X74382380Y-57427619D01*
X74430000Y-57332380D01*
X74525238Y-57237142D01*
X74715714Y-57189523D01*
X75049047Y-57189523D01*
X75239523Y-57237142D01*
X75334761Y-57332380D01*
X75382380Y-57427619D01*
X75382380Y-57618095D01*
X75334761Y-57713333D01*
X75239523Y-57808571D01*
X75049047Y-57856190D01*
X74715714Y-57856190D01*
X74525238Y-57808571D01*
X74430000Y-57713333D01*
X74382380Y-57618095D01*
X75382380Y-56760952D02*
X74382380Y-56760952D01*
X75096666Y-56427619D01*
X74382380Y-56094285D01*
X75382380Y-56094285D01*
X74382380Y-55713333D02*
X74382380Y-55046666D01*
X75382380Y-55475238D01*
X75001428Y-54665714D02*
X75001428Y-53903809D01*
X75382380Y-52903809D02*
X75382380Y-53475238D01*
X75382380Y-53189523D02*
X74382380Y-53189523D01*
X74525238Y-53284761D01*
X74620476Y-53380000D01*
X74668095Y-53475238D01*
X72747142Y-58237142D02*
X72794761Y-58284761D01*
X72842380Y-58427619D01*
X72842380Y-58522857D01*
X72794761Y-58665714D01*
X72699523Y-58760952D01*
X72604285Y-58808571D01*
X72413809Y-58856190D01*
X72270952Y-58856190D01*
X72080476Y-58808571D01*
X71985238Y-58760952D01*
X71890000Y-58665714D01*
X71842380Y-58522857D01*
X71842380Y-58427619D01*
X71890000Y-58284761D01*
X71937619Y-58237142D01*
X71842380Y-57618095D02*
X71842380Y-57427619D01*
X71890000Y-57332380D01*
X71985238Y-57237142D01*
X72175714Y-57189523D01*
X72509047Y-57189523D01*
X72699523Y-57237142D01*
X72794761Y-57332380D01*
X72842380Y-57427619D01*
X72842380Y-57618095D01*
X72794761Y-57713333D01*
X72699523Y-57808571D01*
X72509047Y-57856190D01*
X72175714Y-57856190D01*
X71985238Y-57808571D01*
X71890000Y-57713333D01*
X71842380Y-57618095D01*
X72842380Y-56760952D02*
X71842380Y-56760952D01*
X72556666Y-56427619D01*
X71842380Y-56094285D01*
X72842380Y-56094285D01*
X72270952Y-55475238D02*
X72223333Y-55570476D01*
X72175714Y-55618095D01*
X72080476Y-55665714D01*
X72032857Y-55665714D01*
X71937619Y-55618095D01*
X71890000Y-55570476D01*
X71842380Y-55475238D01*
X71842380Y-55284761D01*
X71890000Y-55189523D01*
X71937619Y-55141904D01*
X72032857Y-55094285D01*
X72080476Y-55094285D01*
X72175714Y-55141904D01*
X72223333Y-55189523D01*
X72270952Y-55284761D01*
X72270952Y-55475238D01*
X72318571Y-55570476D01*
X72366190Y-55618095D01*
X72461428Y-55665714D01*
X72651904Y-55665714D01*
X72747142Y-55618095D01*
X72794761Y-55570476D01*
X72842380Y-55475238D01*
X72842380Y-55284761D01*
X72794761Y-55189523D01*
X72747142Y-55141904D01*
X72651904Y-55094285D01*
X72461428Y-55094285D01*
X72366190Y-55141904D01*
X72318571Y-55189523D01*
X72270952Y-55284761D01*
X72461428Y-54665714D02*
X72461428Y-53903809D01*
X72842380Y-52903809D02*
X72842380Y-53475238D01*
X72842380Y-53189523D02*
X71842380Y-53189523D01*
X71985238Y-53284761D01*
X72080476Y-53380000D01*
X72128095Y-53475238D01*
X19407142Y-59348333D02*
X19454761Y-59395952D01*
X19502380Y-59538809D01*
X19502380Y-59634047D01*
X19454761Y-59776904D01*
X19359523Y-59872142D01*
X19264285Y-59919761D01*
X19073809Y-59967380D01*
X18930952Y-59967380D01*
X18740476Y-59919761D01*
X18645238Y-59872142D01*
X18550000Y-59776904D01*
X18502380Y-59634047D01*
X18502380Y-59538809D01*
X18550000Y-59395952D01*
X18597619Y-59348333D01*
X18502380Y-58729285D02*
X18502380Y-58538809D01*
X18550000Y-58443571D01*
X18645238Y-58348333D01*
X18835714Y-58300714D01*
X19169047Y-58300714D01*
X19359523Y-58348333D01*
X19454761Y-58443571D01*
X19502380Y-58538809D01*
X19502380Y-58729285D01*
X19454761Y-58824523D01*
X19359523Y-58919761D01*
X19169047Y-58967380D01*
X18835714Y-58967380D01*
X18645238Y-58919761D01*
X18550000Y-58824523D01*
X18502380Y-58729285D01*
X19502380Y-57872142D02*
X18502380Y-57872142D01*
X19216666Y-57538809D01*
X18502380Y-57205476D01*
X19502380Y-57205476D01*
X19502380Y-56205476D02*
X19502380Y-56776904D01*
X19502380Y-56491190D02*
X18502380Y-56491190D01*
X18645238Y-56586428D01*
X18740476Y-56681666D01*
X18788095Y-56776904D01*
X18597619Y-55824523D02*
X18550000Y-55776904D01*
X18502380Y-55681666D01*
X18502380Y-55443571D01*
X18550000Y-55348333D01*
X18597619Y-55300714D01*
X18692857Y-55253095D01*
X18788095Y-55253095D01*
X18930952Y-55300714D01*
X19502380Y-55872142D01*
X19502380Y-55253095D01*
X19121428Y-54824523D02*
X19121428Y-54062619D01*
X19502380Y-53062619D02*
X19502380Y-53634047D01*
X19502380Y-53348333D02*
X18502380Y-53348333D01*
X18645238Y-53443571D01*
X18740476Y-53538809D01*
X18788095Y-53634047D01*
X21947142Y-59348333D02*
X21994761Y-59395952D01*
X22042380Y-59538809D01*
X22042380Y-59634047D01*
X21994761Y-59776904D01*
X21899523Y-59872142D01*
X21804285Y-59919761D01*
X21613809Y-59967380D01*
X21470952Y-59967380D01*
X21280476Y-59919761D01*
X21185238Y-59872142D01*
X21090000Y-59776904D01*
X21042380Y-59634047D01*
X21042380Y-59538809D01*
X21090000Y-59395952D01*
X21137619Y-59348333D01*
X21042380Y-58729285D02*
X21042380Y-58538809D01*
X21090000Y-58443571D01*
X21185238Y-58348333D01*
X21375714Y-58300714D01*
X21709047Y-58300714D01*
X21899523Y-58348333D01*
X21994761Y-58443571D01*
X22042380Y-58538809D01*
X22042380Y-58729285D01*
X21994761Y-58824523D01*
X21899523Y-58919761D01*
X21709047Y-58967380D01*
X21375714Y-58967380D01*
X21185238Y-58919761D01*
X21090000Y-58824523D01*
X21042380Y-58729285D01*
X22042380Y-57872142D02*
X21042380Y-57872142D01*
X21756666Y-57538809D01*
X21042380Y-57205476D01*
X22042380Y-57205476D01*
X22042380Y-56205476D02*
X22042380Y-56776904D01*
X22042380Y-56491190D02*
X21042380Y-56491190D01*
X21185238Y-56586428D01*
X21280476Y-56681666D01*
X21328095Y-56776904D01*
X22042380Y-55253095D02*
X22042380Y-55824523D01*
X22042380Y-55538809D02*
X21042380Y-55538809D01*
X21185238Y-55634047D01*
X21280476Y-55729285D01*
X21328095Y-55824523D01*
X21661428Y-54824523D02*
X21661428Y-54062619D01*
X22042380Y-53062619D02*
X22042380Y-53634047D01*
X22042380Y-53348333D02*
X21042380Y-53348333D01*
X21185238Y-53443571D01*
X21280476Y-53538809D01*
X21328095Y-53634047D01*
X24487142Y-59348333D02*
X24534761Y-59395952D01*
X24582380Y-59538809D01*
X24582380Y-59634047D01*
X24534761Y-59776904D01*
X24439523Y-59872142D01*
X24344285Y-59919761D01*
X24153809Y-59967380D01*
X24010952Y-59967380D01*
X23820476Y-59919761D01*
X23725238Y-59872142D01*
X23630000Y-59776904D01*
X23582380Y-59634047D01*
X23582380Y-59538809D01*
X23630000Y-59395952D01*
X23677619Y-59348333D01*
X23582380Y-58729285D02*
X23582380Y-58538809D01*
X23630000Y-58443571D01*
X23725238Y-58348333D01*
X23915714Y-58300714D01*
X24249047Y-58300714D01*
X24439523Y-58348333D01*
X24534761Y-58443571D01*
X24582380Y-58538809D01*
X24582380Y-58729285D01*
X24534761Y-58824523D01*
X24439523Y-58919761D01*
X24249047Y-58967380D01*
X23915714Y-58967380D01*
X23725238Y-58919761D01*
X23630000Y-58824523D01*
X23582380Y-58729285D01*
X24582380Y-57872142D02*
X23582380Y-57872142D01*
X24296666Y-57538809D01*
X23582380Y-57205476D01*
X24582380Y-57205476D01*
X24582380Y-56205476D02*
X24582380Y-56776904D01*
X24582380Y-56491190D02*
X23582380Y-56491190D01*
X23725238Y-56586428D01*
X23820476Y-56681666D01*
X23868095Y-56776904D01*
X23582380Y-55586428D02*
X23582380Y-55491190D01*
X23630000Y-55395952D01*
X23677619Y-55348333D01*
X23772857Y-55300714D01*
X23963333Y-55253095D01*
X24201428Y-55253095D01*
X24391904Y-55300714D01*
X24487142Y-55348333D01*
X24534761Y-55395952D01*
X24582380Y-55491190D01*
X24582380Y-55586428D01*
X24534761Y-55681666D01*
X24487142Y-55729285D01*
X24391904Y-55776904D01*
X24201428Y-55824523D01*
X23963333Y-55824523D01*
X23772857Y-55776904D01*
X23677619Y-55729285D01*
X23630000Y-55681666D01*
X23582380Y-55586428D01*
X24201428Y-54824523D02*
X24201428Y-54062619D01*
X24582380Y-53062619D02*
X24582380Y-53634047D01*
X24582380Y-53348333D02*
X23582380Y-53348333D01*
X23725238Y-53443571D01*
X23820476Y-53538809D01*
X23868095Y-53634047D01*
X27027142Y-58237142D02*
X27074761Y-58284761D01*
X27122380Y-58427619D01*
X27122380Y-58522857D01*
X27074761Y-58665714D01*
X26979523Y-58760952D01*
X26884285Y-58808571D01*
X26693809Y-58856190D01*
X26550952Y-58856190D01*
X26360476Y-58808571D01*
X26265238Y-58760952D01*
X26170000Y-58665714D01*
X26122380Y-58522857D01*
X26122380Y-58427619D01*
X26170000Y-58284761D01*
X26217619Y-58237142D01*
X26122380Y-57618095D02*
X26122380Y-57427619D01*
X26170000Y-57332380D01*
X26265238Y-57237142D01*
X26455714Y-57189523D01*
X26789047Y-57189523D01*
X26979523Y-57237142D01*
X27074761Y-57332380D01*
X27122380Y-57427619D01*
X27122380Y-57618095D01*
X27074761Y-57713333D01*
X26979523Y-57808571D01*
X26789047Y-57856190D01*
X26455714Y-57856190D01*
X26265238Y-57808571D01*
X26170000Y-57713333D01*
X26122380Y-57618095D01*
X27122380Y-56760952D02*
X26122380Y-56760952D01*
X26836666Y-56427619D01*
X26122380Y-56094285D01*
X27122380Y-56094285D01*
X27122380Y-55570476D02*
X27122380Y-55380000D01*
X27074761Y-55284761D01*
X27027142Y-55237142D01*
X26884285Y-55141904D01*
X26693809Y-55094285D01*
X26312857Y-55094285D01*
X26217619Y-55141904D01*
X26170000Y-55189523D01*
X26122380Y-55284761D01*
X26122380Y-55475238D01*
X26170000Y-55570476D01*
X26217619Y-55618095D01*
X26312857Y-55665714D01*
X26550952Y-55665714D01*
X26646190Y-55618095D01*
X26693809Y-55570476D01*
X26741428Y-55475238D01*
X26741428Y-55284761D01*
X26693809Y-55189523D01*
X26646190Y-55141904D01*
X26550952Y-55094285D01*
X26741428Y-54665714D02*
X26741428Y-53903809D01*
X27122380Y-52903809D02*
X27122380Y-53475238D01*
X27122380Y-53189523D02*
X26122380Y-53189523D01*
X26265238Y-53284761D01*
X26360476Y-53380000D01*
X26408095Y-53475238D01*
X29662380Y-56252857D02*
X28662380Y-56252857D01*
X28662380Y-56014761D01*
X28710000Y-55871904D01*
X28805238Y-55776666D01*
X28900476Y-55729047D01*
X29090952Y-55681428D01*
X29233809Y-55681428D01*
X29424285Y-55729047D01*
X29519523Y-55776666D01*
X29614761Y-55871904D01*
X29662380Y-56014761D01*
X29662380Y-56252857D01*
X28662380Y-55062380D02*
X28662380Y-54871904D01*
X28710000Y-54776666D01*
X28805238Y-54681428D01*
X28995714Y-54633809D01*
X29329047Y-54633809D01*
X29519523Y-54681428D01*
X29614761Y-54776666D01*
X29662380Y-54871904D01*
X29662380Y-55062380D01*
X29614761Y-55157619D01*
X29519523Y-55252857D01*
X29329047Y-55300476D01*
X28995714Y-55300476D01*
X28805238Y-55252857D01*
X28710000Y-55157619D01*
X28662380Y-55062380D01*
X28662380Y-54348095D02*
X28662380Y-53776666D01*
X29662380Y-54062380D02*
X28662380Y-54062380D01*
X29662380Y-52919523D02*
X29662380Y-53490952D01*
X29662380Y-53205238D02*
X28662380Y-53205238D01*
X28805238Y-53300476D01*
X28900476Y-53395714D01*
X28948095Y-53490952D01*
X37282380Y-54713095D02*
X36282380Y-54713095D01*
X36282380Y-54332142D01*
X36330000Y-54236904D01*
X36377619Y-54189285D01*
X36472857Y-54141666D01*
X36615714Y-54141666D01*
X36710952Y-54189285D01*
X36758571Y-54236904D01*
X36806190Y-54332142D01*
X36806190Y-54713095D01*
X37282380Y-53189285D02*
X37282380Y-53760714D01*
X37282380Y-53475000D02*
X36282380Y-53475000D01*
X36425238Y-53570238D01*
X36520476Y-53665476D01*
X36568095Y-53760714D01*
X39822380Y-54736904D02*
X38822380Y-54736904D01*
X39822380Y-54165476D01*
X38822380Y-54165476D01*
X39822380Y-53165476D02*
X39822380Y-53736904D01*
X39822380Y-53451190D02*
X38822380Y-53451190D01*
X38965238Y-53546428D01*
X39060476Y-53641666D01*
X39108095Y-53736904D01*
X42362380Y-54784523D02*
X41362380Y-54784523D01*
X42076666Y-54451190D01*
X41362380Y-54117857D01*
X42362380Y-54117857D01*
X42362380Y-53117857D02*
X42362380Y-53689285D01*
X42362380Y-53403571D02*
X41362380Y-53403571D01*
X41505238Y-53498809D01*
X41600476Y-53594047D01*
X41648095Y-53689285D01*
X44902380Y-54141666D02*
X44902380Y-54617857D01*
X43902380Y-54617857D01*
X44902380Y-53284523D02*
X44902380Y-53855952D01*
X44902380Y-53570238D02*
X43902380Y-53570238D01*
X44045238Y-53665476D01*
X44140476Y-53760714D01*
X44188095Y-53855952D01*
X47442380Y-54713095D02*
X46442380Y-54713095D01*
X47442380Y-54141666D02*
X46870952Y-54570238D01*
X46442380Y-54141666D02*
X47013809Y-54713095D01*
X47442380Y-53189285D02*
X47442380Y-53760714D01*
X47442380Y-53475000D02*
X46442380Y-53475000D01*
X46585238Y-53570238D01*
X46680476Y-53665476D01*
X46728095Y-53760714D01*
X48982380Y-54308333D02*
X49696666Y-54308333D01*
X49839523Y-54355952D01*
X49934761Y-54451190D01*
X49982380Y-54594047D01*
X49982380Y-54689285D01*
X49982380Y-53308333D02*
X49982380Y-53879761D01*
X49982380Y-53594047D02*
X48982380Y-53594047D01*
X49125238Y-53689285D01*
X49220476Y-53784523D01*
X49268095Y-53879761D01*
X57078571Y-54308333D02*
X57078571Y-54641666D01*
X57602380Y-54641666D02*
X56602380Y-54641666D01*
X56602380Y-54165476D01*
X57602380Y-53260714D02*
X57602380Y-53832142D01*
X57602380Y-53546428D02*
X56602380Y-53546428D01*
X56745238Y-53641666D01*
X56840476Y-53736904D01*
X56888095Y-53832142D01*
X65127142Y-54141666D02*
X65174761Y-54189285D01*
X65222380Y-54332142D01*
X65222380Y-54427380D01*
X65174761Y-54570238D01*
X65079523Y-54665476D01*
X64984285Y-54713095D01*
X64793809Y-54760714D01*
X64650952Y-54760714D01*
X64460476Y-54713095D01*
X64365238Y-54665476D01*
X64270000Y-54570238D01*
X64222380Y-54427380D01*
X64222380Y-54332142D01*
X64270000Y-54189285D01*
X64317619Y-54141666D01*
X65222380Y-53189285D02*
X65222380Y-53760714D01*
X65222380Y-53475000D02*
X64222380Y-53475000D01*
X64365238Y-53570238D01*
X64460476Y-53665476D01*
X64508095Y-53760714D01*
X67238571Y-54379761D02*
X67286190Y-54236904D01*
X67333809Y-54189285D01*
X67429047Y-54141666D01*
X67571904Y-54141666D01*
X67667142Y-54189285D01*
X67714761Y-54236904D01*
X67762380Y-54332142D01*
X67762380Y-54713095D01*
X66762380Y-54713095D01*
X66762380Y-54379761D01*
X66810000Y-54284523D01*
X66857619Y-54236904D01*
X66952857Y-54189285D01*
X67048095Y-54189285D01*
X67143333Y-54236904D01*
X67190952Y-54284523D01*
X67238571Y-54379761D01*
X67238571Y-54713095D01*
X67762380Y-53189285D02*
X67762380Y-53760714D01*
X67762380Y-53475000D02*
X66762380Y-53475000D01*
X66905238Y-53570238D01*
X67000476Y-53665476D01*
X67048095Y-53760714D01*
X20661666Y-44807142D02*
X20614047Y-44854761D01*
X20471190Y-44902380D01*
X20375952Y-44902380D01*
X20233095Y-44854761D01*
X20137857Y-44759523D01*
X20090238Y-44664285D01*
X20042619Y-44473809D01*
X20042619Y-44330952D01*
X20090238Y-44140476D01*
X20137857Y-44045238D01*
X20233095Y-43950000D01*
X20375952Y-43902380D01*
X20471190Y-43902380D01*
X20614047Y-43950000D01*
X20661666Y-43997619D01*
X21280714Y-43902380D02*
X21471190Y-43902380D01*
X21566428Y-43950000D01*
X21661666Y-44045238D01*
X21709285Y-44235714D01*
X21709285Y-44569047D01*
X21661666Y-44759523D01*
X21566428Y-44854761D01*
X21471190Y-44902380D01*
X21280714Y-44902380D01*
X21185476Y-44854761D01*
X21090238Y-44759523D01*
X21042619Y-44569047D01*
X21042619Y-44235714D01*
X21090238Y-44045238D01*
X21185476Y-43950000D01*
X21280714Y-43902380D01*
X22137857Y-44902380D02*
X22137857Y-43902380D01*
X22471190Y-44616666D01*
X22804523Y-43902380D01*
X22804523Y-44902380D01*
X23804523Y-44902380D02*
X23233095Y-44902380D01*
X23518809Y-44902380D02*
X23518809Y-43902380D01*
X23423571Y-44045238D01*
X23328333Y-44140476D01*
X23233095Y-44188095D01*
X24661666Y-44235714D02*
X24661666Y-44902380D01*
X24423571Y-43854761D02*
X24185476Y-44569047D01*
X24804523Y-44569047D01*
X25185476Y-44521428D02*
X25947380Y-44521428D01*
X26947380Y-44902380D02*
X26375952Y-44902380D01*
X26661666Y-44902380D02*
X26661666Y-43902380D01*
X26566428Y-44045238D01*
X26471190Y-44140476D01*
X26375952Y-44188095D01*
X20661666Y-47347142D02*
X20614047Y-47394761D01*
X20471190Y-47442380D01*
X20375952Y-47442380D01*
X20233095Y-47394761D01*
X20137857Y-47299523D01*
X20090238Y-47204285D01*
X20042619Y-47013809D01*
X20042619Y-46870952D01*
X20090238Y-46680476D01*
X20137857Y-46585238D01*
X20233095Y-46490000D01*
X20375952Y-46442380D01*
X20471190Y-46442380D01*
X20614047Y-46490000D01*
X20661666Y-46537619D01*
X21280714Y-46442380D02*
X21471190Y-46442380D01*
X21566428Y-46490000D01*
X21661666Y-46585238D01*
X21709285Y-46775714D01*
X21709285Y-47109047D01*
X21661666Y-47299523D01*
X21566428Y-47394761D01*
X21471190Y-47442380D01*
X21280714Y-47442380D01*
X21185476Y-47394761D01*
X21090238Y-47299523D01*
X21042619Y-47109047D01*
X21042619Y-46775714D01*
X21090238Y-46585238D01*
X21185476Y-46490000D01*
X21280714Y-46442380D01*
X22137857Y-47442380D02*
X22137857Y-46442380D01*
X22471190Y-47156666D01*
X22804523Y-46442380D01*
X22804523Y-47442380D01*
X23804523Y-47442380D02*
X23233095Y-47442380D01*
X23518809Y-47442380D02*
X23518809Y-46442380D01*
X23423571Y-46585238D01*
X23328333Y-46680476D01*
X23233095Y-46728095D01*
X24137857Y-46442380D02*
X24756904Y-46442380D01*
X24423571Y-46823333D01*
X24566428Y-46823333D01*
X24661666Y-46870952D01*
X24709285Y-46918571D01*
X24756904Y-47013809D01*
X24756904Y-47251904D01*
X24709285Y-47347142D01*
X24661666Y-47394761D01*
X24566428Y-47442380D01*
X24280714Y-47442380D01*
X24185476Y-47394761D01*
X24137857Y-47347142D01*
X25185476Y-47061428D02*
X25947380Y-47061428D01*
X26947380Y-47442380D02*
X26375952Y-47442380D01*
X26661666Y-47442380D02*
X26661666Y-46442380D01*
X26566428Y-46585238D01*
X26471190Y-46680476D01*
X26375952Y-46728095D01*
X32202380Y-55213095D02*
X31202380Y-55213095D01*
X31202380Y-54975000D01*
X31250000Y-54832142D01*
X31345238Y-54736904D01*
X31440476Y-54689285D01*
X31630952Y-54641666D01*
X31773809Y-54641666D01*
X31964285Y-54689285D01*
X32059523Y-54736904D01*
X32154761Y-54832142D01*
X32202380Y-54975000D01*
X32202380Y-55213095D01*
X32202380Y-54213095D02*
X31202380Y-54213095D01*
X31202380Y-53832142D01*
X31250000Y-53736904D01*
X31297619Y-53689285D01*
X31392857Y-53641666D01*
X31535714Y-53641666D01*
X31630952Y-53689285D01*
X31678571Y-53736904D01*
X31726190Y-53832142D01*
X31726190Y-54213095D01*
X32202380Y-52689285D02*
X32202380Y-53260714D01*
X32202380Y-52975000D02*
X31202380Y-52975000D01*
X31345238Y-53070238D01*
X31440476Y-53165476D01*
X31488095Y-53260714D01*
X34837619Y-54070238D02*
X34790000Y-54165476D01*
X34694761Y-54260714D01*
X34551904Y-54403571D01*
X34504285Y-54498809D01*
X34504285Y-54594047D01*
X34742380Y-54546428D02*
X34694761Y-54641666D01*
X34599523Y-54736904D01*
X34409047Y-54784523D01*
X34075714Y-54784523D01*
X33885238Y-54736904D01*
X33790000Y-54641666D01*
X33742380Y-54546428D01*
X33742380Y-54355952D01*
X33790000Y-54260714D01*
X33885238Y-54165476D01*
X34075714Y-54117857D01*
X34409047Y-54117857D01*
X34599523Y-54165476D01*
X34694761Y-54260714D01*
X34742380Y-54355952D01*
X34742380Y-54546428D01*
X34742380Y-53165476D02*
X34742380Y-53736904D01*
X34742380Y-53451190D02*
X33742380Y-53451190D01*
X33885238Y-53546428D01*
X33980476Y-53641666D01*
X34028095Y-53736904D01*
X52522380Y-54736904D02*
X51522380Y-54736904D01*
X51998571Y-54736904D02*
X51998571Y-54165476D01*
X52522380Y-54165476D02*
X51522380Y-54165476D01*
X52522380Y-53165476D02*
X52522380Y-53736904D01*
X52522380Y-53451190D02*
X51522380Y-53451190D01*
X51665238Y-53546428D01*
X51760476Y-53641666D01*
X51808095Y-53736904D01*
X54538571Y-54665476D02*
X54538571Y-54332142D01*
X55062380Y-54189285D02*
X55062380Y-54665476D01*
X54062380Y-54665476D01*
X54062380Y-54189285D01*
X55062380Y-53236904D02*
X55062380Y-53808333D01*
X55062380Y-53522619D02*
X54062380Y-53522619D01*
X54205238Y-53617857D01*
X54300476Y-53713095D01*
X54348095Y-53808333D01*
X59190000Y-54189285D02*
X59142380Y-54284523D01*
X59142380Y-54427380D01*
X59190000Y-54570238D01*
X59285238Y-54665476D01*
X59380476Y-54713095D01*
X59570952Y-54760714D01*
X59713809Y-54760714D01*
X59904285Y-54713095D01*
X59999523Y-54665476D01*
X60094761Y-54570238D01*
X60142380Y-54427380D01*
X60142380Y-54332142D01*
X60094761Y-54189285D01*
X60047142Y-54141666D01*
X59713809Y-54141666D01*
X59713809Y-54332142D01*
X60142380Y-53189285D02*
X60142380Y-53760714D01*
X60142380Y-53475000D02*
X59142380Y-53475000D01*
X59285238Y-53570238D01*
X59380476Y-53665476D01*
X59428095Y-53760714D01*
X62682380Y-54713095D02*
X61682380Y-54713095D01*
X61682380Y-54475000D01*
X61730000Y-54332142D01*
X61825238Y-54236904D01*
X61920476Y-54189285D01*
X62110952Y-54141666D01*
X62253809Y-54141666D01*
X62444285Y-54189285D01*
X62539523Y-54236904D01*
X62634761Y-54332142D01*
X62682380Y-54475000D01*
X62682380Y-54713095D01*
X62682380Y-53189285D02*
X62682380Y-53760714D01*
X62682380Y-53475000D02*
X61682380Y-53475000D01*
X61825238Y-53570238D01*
X61920476Y-53665476D01*
X61968095Y-53760714D01*
X70016666Y-54689285D02*
X70016666Y-54213095D01*
X70302380Y-54784523D02*
X69302380Y-54451190D01*
X70302380Y-54117857D01*
X70302380Y-53260714D02*
X70302380Y-53832142D01*
X70302380Y-53546428D02*
X69302380Y-53546428D01*
X69445238Y-53641666D01*
X69540476Y-53736904D01*
X69588095Y-53832142D01*
X66834523Y-101417380D02*
X66834523Y-100417380D01*
X67072619Y-100417380D01*
X67215476Y-100465000D01*
X67310714Y-100560238D01*
X67358333Y-100655476D01*
X67405952Y-100845952D01*
X67405952Y-100988809D01*
X67358333Y-101179285D01*
X67310714Y-101274523D01*
X67215476Y-101369761D01*
X67072619Y-101417380D01*
X66834523Y-101417380D01*
X67834523Y-101417380D02*
X67834523Y-100750714D01*
X67834523Y-100417380D02*
X67786904Y-100465000D01*
X67834523Y-100512619D01*
X67882142Y-100465000D01*
X67834523Y-100417380D01*
X67834523Y-100512619D01*
X68739285Y-100750714D02*
X68739285Y-101560238D01*
X68691666Y-101655476D01*
X68644047Y-101703095D01*
X68548809Y-101750714D01*
X68405952Y-101750714D01*
X68310714Y-101703095D01*
X68739285Y-101369761D02*
X68644047Y-101417380D01*
X68453571Y-101417380D01*
X68358333Y-101369761D01*
X68310714Y-101322142D01*
X68263095Y-101226904D01*
X68263095Y-100941190D01*
X68310714Y-100845952D01*
X68358333Y-100798333D01*
X68453571Y-100750714D01*
X68644047Y-100750714D01*
X68739285Y-100798333D01*
X69215476Y-101417380D02*
X69215476Y-100750714D01*
X69215476Y-100417380D02*
X69167857Y-100465000D01*
X69215476Y-100512619D01*
X69263095Y-100465000D01*
X69215476Y-100417380D01*
X69215476Y-100512619D01*
X69548809Y-100750714D02*
X69929761Y-100750714D01*
X69691666Y-100417380D02*
X69691666Y-101274523D01*
X69739285Y-101369761D01*
X69834523Y-101417380D01*
X69929761Y-101417380D01*
X70691666Y-101417380D02*
X70691666Y-100893571D01*
X70644047Y-100798333D01*
X70548809Y-100750714D01*
X70358333Y-100750714D01*
X70263095Y-100798333D01*
X70691666Y-101369761D02*
X70596428Y-101417380D01*
X70358333Y-101417380D01*
X70263095Y-101369761D01*
X70215476Y-101274523D01*
X70215476Y-101179285D01*
X70263095Y-101084047D01*
X70358333Y-101036428D01*
X70596428Y-101036428D01*
X70691666Y-100988809D01*
X71310714Y-101417380D02*
X71215476Y-101369761D01*
X71167857Y-101274523D01*
X71167857Y-100417380D01*
X72453571Y-101417380D02*
X72453571Y-100417380D01*
X72929761Y-100750714D02*
X72929761Y-101417380D01*
X72929761Y-100845952D02*
X72977380Y-100798333D01*
X73072619Y-100750714D01*
X73215476Y-100750714D01*
X73310714Y-100798333D01*
X73358333Y-100893571D01*
X73358333Y-101417380D01*
X73691666Y-100750714D02*
X74072619Y-100750714D01*
X73834523Y-100417380D02*
X73834523Y-101274523D01*
X73882142Y-101369761D01*
X73977380Y-101417380D01*
X74072619Y-101417380D01*
X74786904Y-101369761D02*
X74691666Y-101417380D01*
X74501190Y-101417380D01*
X74405952Y-101369761D01*
X74358333Y-101274523D01*
X74358333Y-100893571D01*
X74405952Y-100798333D01*
X74501190Y-100750714D01*
X74691666Y-100750714D01*
X74786904Y-100798333D01*
X74834523Y-100893571D01*
X74834523Y-100988809D01*
X74358333Y-101084047D01*
X75263095Y-101417380D02*
X75263095Y-100750714D01*
X75263095Y-100941190D02*
X75310714Y-100845952D01*
X75358333Y-100798333D01*
X75453571Y-100750714D01*
X75548809Y-100750714D01*
X75882142Y-101417380D02*
X75882142Y-100750714D01*
X75882142Y-100941190D02*
X75929761Y-100845952D01*
X75977380Y-100798333D01*
X76072619Y-100750714D01*
X76167857Y-100750714D01*
X76929761Y-100750714D02*
X76929761Y-101417380D01*
X76501190Y-100750714D02*
X76501190Y-101274523D01*
X76548809Y-101369761D01*
X76644047Y-101417380D01*
X76786904Y-101417380D01*
X76882142Y-101369761D01*
X76929761Y-101322142D01*
X77405952Y-100750714D02*
X77405952Y-101750714D01*
X77405952Y-100798333D02*
X77501190Y-100750714D01*
X77691666Y-100750714D01*
X77786904Y-100798333D01*
X77834523Y-100845952D01*
X77882142Y-100941190D01*
X77882142Y-101226904D01*
X77834523Y-101322142D01*
X77786904Y-101369761D01*
X77691666Y-101417380D01*
X77501190Y-101417380D01*
X77405952Y-101369761D01*
X78167857Y-100750714D02*
X78548809Y-100750714D01*
X78310714Y-100417380D02*
X78310714Y-101274523D01*
X78358333Y-101369761D01*
X78453571Y-101417380D01*
X78548809Y-101417380D01*
X78834523Y-101369761D02*
X78929761Y-101417380D01*
X79120238Y-101417380D01*
X79215476Y-101369761D01*
X79263095Y-101274523D01*
X79263095Y-101226904D01*
X79215476Y-101131666D01*
X79120238Y-101084047D01*
X78977380Y-101084047D01*
X78882142Y-101036428D01*
X78834523Y-100941190D01*
X78834523Y-100893571D01*
X78882142Y-100798333D01*
X78977380Y-100750714D01*
X79120238Y-100750714D01*
X79215476Y-100798333D01*
X100044523Y-64539761D02*
X100187380Y-64587380D01*
X100425476Y-64587380D01*
X100520714Y-64539761D01*
X100568333Y-64492142D01*
X100615952Y-64396904D01*
X100615952Y-64301666D01*
X100568333Y-64206428D01*
X100520714Y-64158809D01*
X100425476Y-64111190D01*
X100235000Y-64063571D01*
X100139761Y-64015952D01*
X100092142Y-63968333D01*
X100044523Y-63873095D01*
X100044523Y-63777857D01*
X100092142Y-63682619D01*
X100139761Y-63635000D01*
X100235000Y-63587380D01*
X100473095Y-63587380D01*
X100615952Y-63635000D01*
X100901666Y-63587380D02*
X101473095Y-63587380D01*
X101187380Y-64587380D02*
X101187380Y-63587380D01*
X101806428Y-64587380D02*
X101806428Y-63587380D01*
X102139761Y-64301666D01*
X102473095Y-63587380D01*
X102473095Y-64587380D01*
X102854047Y-63587380D02*
X103473095Y-63587380D01*
X103139761Y-63968333D01*
X103282619Y-63968333D01*
X103377857Y-64015952D01*
X103425476Y-64063571D01*
X103473095Y-64158809D01*
X103473095Y-64396904D01*
X103425476Y-64492142D01*
X103377857Y-64539761D01*
X103282619Y-64587380D01*
X102996904Y-64587380D01*
X102901666Y-64539761D01*
X102854047Y-64492142D01*
X103854047Y-63682619D02*
X103901666Y-63635000D01*
X103996904Y-63587380D01*
X104235000Y-63587380D01*
X104330238Y-63635000D01*
X104377857Y-63682619D01*
X104425476Y-63777857D01*
X104425476Y-63873095D01*
X104377857Y-64015952D01*
X103806428Y-64587380D01*
X104425476Y-64587380D01*
X42418095Y-148090000D02*
X42322857Y-148042380D01*
X42180000Y-148042380D01*
X42037142Y-148090000D01*
X41941904Y-148185238D01*
X41894285Y-148280476D01*
X41846666Y-148470952D01*
X41846666Y-148613809D01*
X41894285Y-148804285D01*
X41941904Y-148899523D01*
X42037142Y-148994761D01*
X42180000Y-149042380D01*
X42275238Y-149042380D01*
X42418095Y-148994761D01*
X42465714Y-148947142D01*
X42465714Y-148613809D01*
X42275238Y-148613809D01*
X42894285Y-149042380D02*
X42894285Y-148042380D01*
X43465714Y-149042380D01*
X43465714Y-148042380D01*
X43941904Y-149042380D02*
X43941904Y-148042380D01*
X44180000Y-148042380D01*
X44322857Y-148090000D01*
X44418095Y-148185238D01*
X44465714Y-148280476D01*
X44513333Y-148470952D01*
X44513333Y-148613809D01*
X44465714Y-148804285D01*
X44418095Y-148899523D01*
X44322857Y-148994761D01*
X44180000Y-149042380D01*
X43941904Y-149042380D01*
X35338333Y-146454761D02*
X35481190Y-146502380D01*
X35719285Y-146502380D01*
X35814523Y-146454761D01*
X35862142Y-146407142D01*
X35909761Y-146311904D01*
X35909761Y-146216666D01*
X35862142Y-146121428D01*
X35814523Y-146073809D01*
X35719285Y-146026190D01*
X35528809Y-145978571D01*
X35433571Y-145930952D01*
X35385952Y-145883333D01*
X35338333Y-145788095D01*
X35338333Y-145692857D01*
X35385952Y-145597619D01*
X35433571Y-145550000D01*
X35528809Y-145502380D01*
X35766904Y-145502380D01*
X35909761Y-145550000D01*
X36909761Y-146502380D02*
X36576428Y-146026190D01*
X36338333Y-146502380D02*
X36338333Y-145502380D01*
X36719285Y-145502380D01*
X36814523Y-145550000D01*
X36862142Y-145597619D01*
X36909761Y-145692857D01*
X36909761Y-145835714D01*
X36862142Y-145930952D01*
X36814523Y-145978571D01*
X36719285Y-146026190D01*
X36338333Y-146026190D01*
X38100238Y-146502380D02*
X38100238Y-145502380D01*
X38338333Y-145502380D01*
X38481190Y-145550000D01*
X38576428Y-145645238D01*
X38624047Y-145740476D01*
X38671666Y-145930952D01*
X38671666Y-146073809D01*
X38624047Y-146264285D01*
X38576428Y-146359523D01*
X38481190Y-146454761D01*
X38338333Y-146502380D01*
X38100238Y-146502380D01*
X39100238Y-146502380D02*
X39100238Y-145835714D01*
X39100238Y-145502380D02*
X39052619Y-145550000D01*
X39100238Y-145597619D01*
X39147857Y-145550000D01*
X39100238Y-145502380D01*
X39100238Y-145597619D01*
X40005000Y-145835714D02*
X40005000Y-146645238D01*
X39957380Y-146740476D01*
X39909761Y-146788095D01*
X39814523Y-146835714D01*
X39671666Y-146835714D01*
X39576428Y-146788095D01*
X40005000Y-146454761D02*
X39909761Y-146502380D01*
X39719285Y-146502380D01*
X39624047Y-146454761D01*
X39576428Y-146407142D01*
X39528809Y-146311904D01*
X39528809Y-146026190D01*
X39576428Y-145930952D01*
X39624047Y-145883333D01*
X39719285Y-145835714D01*
X39909761Y-145835714D01*
X40005000Y-145883333D01*
X40481190Y-146502380D02*
X40481190Y-145835714D01*
X40481190Y-145502380D02*
X40433571Y-145550000D01*
X40481190Y-145597619D01*
X40528809Y-145550000D01*
X40481190Y-145502380D01*
X40481190Y-145597619D01*
X40814523Y-145835714D02*
X41195476Y-145835714D01*
X40957380Y-145502380D02*
X40957380Y-146359523D01*
X41005000Y-146454761D01*
X41100238Y-146502380D01*
X41195476Y-146502380D01*
X41957380Y-146502380D02*
X41957380Y-145978571D01*
X41909761Y-145883333D01*
X41814523Y-145835714D01*
X41624047Y-145835714D01*
X41528809Y-145883333D01*
X41957380Y-146454761D02*
X41862142Y-146502380D01*
X41624047Y-146502380D01*
X41528809Y-146454761D01*
X41481190Y-146359523D01*
X41481190Y-146264285D01*
X41528809Y-146169047D01*
X41624047Y-146121428D01*
X41862142Y-146121428D01*
X41957380Y-146073809D01*
X42576428Y-146502380D02*
X42481190Y-146454761D01*
X42433571Y-146359523D01*
X42433571Y-145502380D01*
X43719285Y-146502380D02*
X43719285Y-145502380D01*
X44195476Y-145835714D02*
X44195476Y-146502380D01*
X44195476Y-145930952D02*
X44243095Y-145883333D01*
X44338333Y-145835714D01*
X44481190Y-145835714D01*
X44576428Y-145883333D01*
X44624047Y-145978571D01*
X44624047Y-146502380D01*
X73279285Y-112847380D02*
X72803095Y-112847380D01*
X72803095Y-111847380D01*
X73612619Y-112323571D02*
X73945952Y-112323571D01*
X74088809Y-112847380D02*
X73612619Y-112847380D01*
X73612619Y-111847380D01*
X74088809Y-111847380D01*
X74517380Y-112847380D02*
X74517380Y-111847380D01*
X74755476Y-111847380D01*
X74898333Y-111895000D01*
X74993571Y-111990238D01*
X75041190Y-112085476D01*
X75088809Y-112275952D01*
X75088809Y-112418809D01*
X75041190Y-112609285D01*
X74993571Y-112704523D01*
X74898333Y-112799761D01*
X74755476Y-112847380D01*
X74517380Y-112847380D01*
X75517380Y-112847380D02*
X75517380Y-111847380D01*
X75898333Y-111847380D01*
X75993571Y-111895000D01*
X76041190Y-111942619D01*
X76088809Y-112037857D01*
X76088809Y-112180714D01*
X76041190Y-112275952D01*
X75993571Y-112323571D01*
X75898333Y-112371190D01*
X75517380Y-112371190D01*
X76422142Y-111847380D02*
X76660238Y-112847380D01*
X76850714Y-112133095D01*
X77041190Y-112847380D01*
X77279285Y-111847380D01*
X77660238Y-112847380D02*
X77660238Y-111847380D01*
X77993571Y-112561666D01*
X78326904Y-111847380D01*
X78326904Y-112847380D01*
X46228095Y-111895000D02*
X46132857Y-111847380D01*
X45990000Y-111847380D01*
X45847142Y-111895000D01*
X45751904Y-111990238D01*
X45704285Y-112085476D01*
X45656666Y-112275952D01*
X45656666Y-112418809D01*
X45704285Y-112609285D01*
X45751904Y-112704523D01*
X45847142Y-112799761D01*
X45990000Y-112847380D01*
X46085238Y-112847380D01*
X46228095Y-112799761D01*
X46275714Y-112752142D01*
X46275714Y-112418809D01*
X46085238Y-112418809D01*
X46704285Y-112847380D02*
X46704285Y-111847380D01*
X47275714Y-112847380D01*
X47275714Y-111847380D01*
X47751904Y-112847380D02*
X47751904Y-111847380D01*
X47990000Y-111847380D01*
X48132857Y-111895000D01*
X48228095Y-111990238D01*
X48275714Y-112085476D01*
X48323333Y-112275952D01*
X48323333Y-112418809D01*
X48275714Y-112609285D01*
X48228095Y-112704523D01*
X48132857Y-112799761D01*
X47990000Y-112847380D01*
X47751904Y-112847380D01*
X55444047Y-109307380D02*
X56015476Y-109307380D01*
X55729761Y-110307380D02*
X55729761Y-109307380D01*
X56491666Y-110307380D02*
X56396428Y-110259761D01*
X56348809Y-110212142D01*
X56301190Y-110116904D01*
X56301190Y-109831190D01*
X56348809Y-109735952D01*
X56396428Y-109688333D01*
X56491666Y-109640714D01*
X56634523Y-109640714D01*
X56729761Y-109688333D01*
X56777380Y-109735952D01*
X56825000Y-109831190D01*
X56825000Y-110116904D01*
X56777380Y-110212142D01*
X56729761Y-110259761D01*
X56634523Y-110307380D01*
X56491666Y-110307380D01*
X58491666Y-110307380D02*
X58015476Y-110307380D01*
X58015476Y-109307380D01*
X58967857Y-110307380D02*
X58872619Y-110259761D01*
X58825000Y-110212142D01*
X58777380Y-110116904D01*
X58777380Y-109831190D01*
X58825000Y-109735952D01*
X58872619Y-109688333D01*
X58967857Y-109640714D01*
X59110714Y-109640714D01*
X59205952Y-109688333D01*
X59253571Y-109735952D01*
X59301190Y-109831190D01*
X59301190Y-110116904D01*
X59253571Y-110212142D01*
X59205952Y-110259761D01*
X59110714Y-110307380D01*
X58967857Y-110307380D01*
X59634523Y-109640714D02*
X59825000Y-110307380D01*
X60015476Y-109831190D01*
X60205952Y-110307380D01*
X60396428Y-109640714D01*
X61158333Y-110259761D02*
X61063095Y-110307380D01*
X60872619Y-110307380D01*
X60777380Y-110259761D01*
X60729761Y-110164523D01*
X60729761Y-109783571D01*
X60777380Y-109688333D01*
X60872619Y-109640714D01*
X61063095Y-109640714D01*
X61158333Y-109688333D01*
X61205952Y-109783571D01*
X61205952Y-109878809D01*
X60729761Y-109974047D01*
X61634523Y-110307380D02*
X61634523Y-109640714D01*
X61634523Y-109831190D02*
X61682142Y-109735952D01*
X61729761Y-109688333D01*
X61825000Y-109640714D01*
X61920238Y-109640714D01*
X63348809Y-109783571D02*
X63491666Y-109831190D01*
X63539285Y-109878809D01*
X63586904Y-109974047D01*
X63586904Y-110116904D01*
X63539285Y-110212142D01*
X63491666Y-110259761D01*
X63396428Y-110307380D01*
X63015476Y-110307380D01*
X63015476Y-109307380D01*
X63348809Y-109307380D01*
X63444047Y-109355000D01*
X63491666Y-109402619D01*
X63539285Y-109497857D01*
X63539285Y-109593095D01*
X63491666Y-109688333D01*
X63444047Y-109735952D01*
X63348809Y-109783571D01*
X63015476Y-109783571D01*
X64444047Y-110307380D02*
X64444047Y-109783571D01*
X64396428Y-109688333D01*
X64301190Y-109640714D01*
X64110714Y-109640714D01*
X64015476Y-109688333D01*
X64444047Y-110259761D02*
X64348809Y-110307380D01*
X64110714Y-110307380D01*
X64015476Y-110259761D01*
X63967857Y-110164523D01*
X63967857Y-110069285D01*
X64015476Y-109974047D01*
X64110714Y-109926428D01*
X64348809Y-109926428D01*
X64444047Y-109878809D01*
X64920238Y-110307380D02*
X64920238Y-109640714D01*
X64920238Y-109831190D02*
X64967857Y-109735952D01*
X65015476Y-109688333D01*
X65110714Y-109640714D01*
X65205952Y-109640714D01*
X99806190Y-131897380D02*
X99806190Y-130897380D01*
X100282380Y-131897380D02*
X100282380Y-130897380D01*
X100853809Y-131897380D01*
X100853809Y-130897380D01*
X98218809Y-135977380D02*
X98837857Y-135977380D01*
X98504523Y-136358333D01*
X98647380Y-136358333D01*
X98742619Y-136405952D01*
X98790238Y-136453571D01*
X98837857Y-136548809D01*
X98837857Y-136786904D01*
X98790238Y-136882142D01*
X98742619Y-136929761D01*
X98647380Y-136977380D01*
X98361666Y-136977380D01*
X98266428Y-136929761D01*
X98218809Y-136882142D01*
X99266428Y-136882142D02*
X99314047Y-136929761D01*
X99266428Y-136977380D01*
X99218809Y-136929761D01*
X99266428Y-136882142D01*
X99266428Y-136977380D01*
X99647380Y-135977380D02*
X100266428Y-135977380D01*
X99933095Y-136358333D01*
X100075952Y-136358333D01*
X100171190Y-136405952D01*
X100218809Y-136453571D01*
X100266428Y-136548809D01*
X100266428Y-136786904D01*
X100218809Y-136882142D01*
X100171190Y-136929761D01*
X100075952Y-136977380D01*
X99790238Y-136977380D01*
X99695000Y-136929761D01*
X99647380Y-136882142D01*
X100552142Y-135977380D02*
X100885476Y-136977380D01*
X101218809Y-135977380D01*
X98933095Y-133485000D02*
X98837857Y-133437380D01*
X98695000Y-133437380D01*
X98552142Y-133485000D01*
X98456904Y-133580238D01*
X98409285Y-133675476D01*
X98361666Y-133865952D01*
X98361666Y-134008809D01*
X98409285Y-134199285D01*
X98456904Y-134294523D01*
X98552142Y-134389761D01*
X98695000Y-134437380D01*
X98790238Y-134437380D01*
X98933095Y-134389761D01*
X98980714Y-134342142D01*
X98980714Y-134008809D01*
X98790238Y-134008809D01*
X99409285Y-134437380D02*
X99409285Y-133437380D01*
X99980714Y-134437380D01*
X99980714Y-133437380D01*
X100456904Y-134437380D02*
X100456904Y-133437380D01*
X100695000Y-133437380D01*
X100837857Y-133485000D01*
X100933095Y-133580238D01*
X100980714Y-133675476D01*
X101028333Y-133865952D01*
X101028333Y-134008809D01*
X100980714Y-134199285D01*
X100933095Y-134294523D01*
X100837857Y-134389761D01*
X100695000Y-134437380D01*
X100456904Y-134437380D01*
X96917857Y-139231666D02*
X97394047Y-139231666D01*
X96822619Y-139517380D02*
X97155952Y-138517380D01*
X97489285Y-139517380D01*
X97822619Y-138850714D02*
X97822619Y-139517380D01*
X97822619Y-138945952D02*
X97870238Y-138898333D01*
X97965476Y-138850714D01*
X98108333Y-138850714D01*
X98203571Y-138898333D01*
X98251190Y-138993571D01*
X98251190Y-139517380D01*
X99155952Y-139517380D02*
X99155952Y-138993571D01*
X99108333Y-138898333D01*
X99013095Y-138850714D01*
X98822619Y-138850714D01*
X98727380Y-138898333D01*
X99155952Y-139469761D02*
X99060714Y-139517380D01*
X98822619Y-139517380D01*
X98727380Y-139469761D01*
X98679761Y-139374523D01*
X98679761Y-139279285D01*
X98727380Y-139184047D01*
X98822619Y-139136428D01*
X99060714Y-139136428D01*
X99155952Y-139088809D01*
X99775000Y-139517380D02*
X99679761Y-139469761D01*
X99632142Y-139374523D01*
X99632142Y-138517380D01*
X100298809Y-139517380D02*
X100203571Y-139469761D01*
X100155952Y-139422142D01*
X100108333Y-139326904D01*
X100108333Y-139041190D01*
X100155952Y-138945952D01*
X100203571Y-138898333D01*
X100298809Y-138850714D01*
X100441666Y-138850714D01*
X100536904Y-138898333D01*
X100584523Y-138945952D01*
X100632142Y-139041190D01*
X100632142Y-139326904D01*
X100584523Y-139422142D01*
X100536904Y-139469761D01*
X100441666Y-139517380D01*
X100298809Y-139517380D01*
X101489285Y-138850714D02*
X101489285Y-139660238D01*
X101441666Y-139755476D01*
X101394047Y-139803095D01*
X101298809Y-139850714D01*
X101155952Y-139850714D01*
X101060714Y-139803095D01*
X101489285Y-139469761D02*
X101394047Y-139517380D01*
X101203571Y-139517380D01*
X101108333Y-139469761D01*
X101060714Y-139422142D01*
X101013095Y-139326904D01*
X101013095Y-139041190D01*
X101060714Y-138945952D01*
X101108333Y-138898333D01*
X101203571Y-138850714D01*
X101394047Y-138850714D01*
X101489285Y-138898333D01*
X102727380Y-139517380D02*
X102727380Y-138517380D01*
X103203571Y-138850714D02*
X103203571Y-139517380D01*
X103203571Y-138945952D02*
X103251190Y-138898333D01*
X103346428Y-138850714D01*
X103489285Y-138850714D01*
X103584523Y-138898333D01*
X103632142Y-138993571D01*
X103632142Y-139517380D01*
X105155952Y-139898333D02*
X105108333Y-139850714D01*
X105013095Y-139707857D01*
X104965476Y-139612619D01*
X104917857Y-139469761D01*
X104870238Y-139231666D01*
X104870238Y-139041190D01*
X104917857Y-138803095D01*
X104965476Y-138660238D01*
X105013095Y-138565000D01*
X105108333Y-138422142D01*
X105155952Y-138374523D01*
X105536904Y-139517380D02*
X105536904Y-138517380D01*
X105917857Y-138517380D01*
X106013095Y-138565000D01*
X106060714Y-138612619D01*
X106108333Y-138707857D01*
X106108333Y-138850714D01*
X106060714Y-138945952D01*
X106013095Y-138993571D01*
X105917857Y-139041190D01*
X105536904Y-139041190D01*
X106489285Y-139231666D02*
X106965476Y-139231666D01*
X106394047Y-139517380D02*
X106727380Y-138517380D01*
X107060714Y-139517380D01*
X107298809Y-138517380D02*
X107917857Y-138517380D01*
X107584523Y-138898333D01*
X107727380Y-138898333D01*
X107822619Y-138945952D01*
X107870238Y-138993571D01*
X107917857Y-139088809D01*
X107917857Y-139326904D01*
X107870238Y-139422142D01*
X107822619Y-139469761D01*
X107727380Y-139517380D01*
X107441666Y-139517380D01*
X107346428Y-139469761D01*
X107298809Y-139422142D01*
X108346428Y-139136428D02*
X109108333Y-139136428D01*
X109584523Y-139517380D02*
X109584523Y-138517380D01*
X109965476Y-138517380D01*
X110060714Y-138565000D01*
X110108333Y-138612619D01*
X110155952Y-138707857D01*
X110155952Y-138850714D01*
X110108333Y-138945952D01*
X110060714Y-138993571D01*
X109965476Y-139041190D01*
X109584523Y-139041190D01*
X110536904Y-139231666D02*
X111013095Y-139231666D01*
X110441666Y-139517380D02*
X110775000Y-138517380D01*
X111108333Y-139517380D01*
X111965476Y-139517380D02*
X111394047Y-139517380D01*
X111679761Y-139517380D02*
X111679761Y-138517380D01*
X111584523Y-138660238D01*
X111489285Y-138755476D01*
X111394047Y-138803095D01*
X112298809Y-139898333D02*
X112346428Y-139850714D01*
X112441666Y-139707857D01*
X112489285Y-139612619D01*
X112536904Y-139469761D01*
X112584523Y-139231666D01*
X112584523Y-139041190D01*
X112536904Y-138803095D01*
X112489285Y-138660238D01*
X112441666Y-138565000D01*
X112346428Y-138422142D01*
X112298809Y-138374523D01*
X97362380Y-57682380D02*
X97933809Y-57682380D01*
X97648095Y-58682380D02*
X97648095Y-57682380D01*
X98219523Y-58396666D02*
X98695714Y-58396666D01*
X98124285Y-58682380D02*
X98457619Y-57682380D01*
X98790952Y-58682380D01*
X99695714Y-58587142D02*
X99648095Y-58634761D01*
X99505238Y-58682380D01*
X99410000Y-58682380D01*
X99267142Y-58634761D01*
X99171904Y-58539523D01*
X99124285Y-58444285D01*
X99076666Y-58253809D01*
X99076666Y-58110952D01*
X99124285Y-57920476D01*
X99171904Y-57825238D01*
X99267142Y-57730000D01*
X99410000Y-57682380D01*
X99505238Y-57682380D01*
X99648095Y-57730000D01*
X99695714Y-57777619D01*
X100886190Y-57682380D02*
X100886190Y-58491904D01*
X100933809Y-58587142D01*
X100981428Y-58634761D01*
X101076666Y-58682380D01*
X101267142Y-58682380D01*
X101362380Y-58634761D01*
X101410000Y-58587142D01*
X101457619Y-58491904D01*
X101457619Y-57682380D01*
X102267142Y-58158571D02*
X101933809Y-58158571D01*
X101933809Y-58682380D02*
X101933809Y-57682380D01*
X102410000Y-57682380D01*
X103362380Y-58587142D02*
X103314761Y-58634761D01*
X103171904Y-58682380D01*
X103076666Y-58682380D01*
X102933809Y-58634761D01*
X102838571Y-58539523D01*
X102790952Y-58444285D01*
X102743333Y-58253809D01*
X102743333Y-58110952D01*
X102790952Y-57920476D01*
X102838571Y-57825238D01*
X102933809Y-57730000D01*
X103076666Y-57682380D01*
X103171904Y-57682380D01*
X103314761Y-57730000D01*
X103362380Y-57777619D01*
X104886190Y-58158571D02*
X105029047Y-58206190D01*
X105076666Y-58253809D01*
X105124285Y-58349047D01*
X105124285Y-58491904D01*
X105076666Y-58587142D01*
X105029047Y-58634761D01*
X104933809Y-58682380D01*
X104552857Y-58682380D01*
X104552857Y-57682380D01*
X104886190Y-57682380D01*
X104981428Y-57730000D01*
X105029047Y-57777619D01*
X105076666Y-57872857D01*
X105076666Y-57968095D01*
X105029047Y-58063333D01*
X104981428Y-58110952D01*
X104886190Y-58158571D01*
X104552857Y-58158571D01*
X105505238Y-58396666D02*
X105981428Y-58396666D01*
X105410000Y-58682380D02*
X105743333Y-57682380D01*
X106076666Y-58682380D01*
X106981428Y-58587142D02*
X106933809Y-58634761D01*
X106790952Y-58682380D01*
X106695714Y-58682380D01*
X106552857Y-58634761D01*
X106457619Y-58539523D01*
X106410000Y-58444285D01*
X106362380Y-58253809D01*
X106362380Y-58110952D01*
X106410000Y-57920476D01*
X106457619Y-57825238D01*
X106552857Y-57730000D01*
X106695714Y-57682380D01*
X106790952Y-57682380D01*
X106933809Y-57730000D01*
X106981428Y-57777619D01*
X107410000Y-58682380D02*
X107410000Y-57682380D01*
X107981428Y-58682380D02*
X107552857Y-58110952D01*
X107981428Y-57682380D02*
X107410000Y-58253809D01*
X109171904Y-58682380D02*
X109171904Y-57682380D01*
X109552857Y-57682380D01*
X109648095Y-57730000D01*
X109695714Y-57777619D01*
X109743333Y-57872857D01*
X109743333Y-58015714D01*
X109695714Y-58110952D01*
X109648095Y-58158571D01*
X109552857Y-58206190D01*
X109171904Y-58206190D01*
X110124285Y-58396666D02*
X110600476Y-58396666D01*
X110029047Y-58682380D02*
X110362380Y-57682380D01*
X110695714Y-58682380D01*
X111029047Y-58682380D02*
X111029047Y-57682380D01*
X111600476Y-58682380D01*
X111600476Y-57682380D01*
X112076666Y-58158571D02*
X112409999Y-58158571D01*
X112552857Y-58682380D02*
X112076666Y-58682380D01*
X112076666Y-57682380D01*
X112552857Y-57682380D01*
X113457619Y-58682380D02*
X112981428Y-58682380D01*
X112981428Y-57682380D01*
X104195714Y-60332380D02*
X103862380Y-59856190D01*
X103624285Y-60332380D02*
X103624285Y-59332380D01*
X104005238Y-59332380D01*
X104100476Y-59380000D01*
X104148095Y-59427619D01*
X104195714Y-59522857D01*
X104195714Y-59665714D01*
X104148095Y-59760952D01*
X104100476Y-59808571D01*
X104005238Y-59856190D01*
X103624285Y-59856190D01*
X105005238Y-60284761D02*
X104910000Y-60332380D01*
X104719523Y-60332380D01*
X104624285Y-60284761D01*
X104576666Y-60189523D01*
X104576666Y-59808571D01*
X104624285Y-59713333D01*
X104719523Y-59665714D01*
X104910000Y-59665714D01*
X105005238Y-59713333D01*
X105052857Y-59808571D01*
X105052857Y-59903809D01*
X104576666Y-59999047D01*
X105386190Y-59665714D02*
X105624285Y-60332380D01*
X105862380Y-59665714D01*
X106243333Y-60237142D02*
X106290952Y-60284761D01*
X106243333Y-60332380D01*
X106195714Y-60284761D01*
X106243333Y-60237142D01*
X106243333Y-60332380D01*
X106671904Y-59427619D02*
X106719523Y-59380000D01*
X106814761Y-59332380D01*
X107052857Y-59332380D01*
X107148095Y-59380000D01*
X107195714Y-59427619D01*
X107243333Y-59522857D01*
X107243333Y-59618095D01*
X107195714Y-59760952D01*
X106624285Y-60332380D01*
X107243333Y-60332380D01*
D11*
%TO.C,C5*%
X104015000Y-127781267D02*
X104015000Y-127488733D01*
X102995000Y-127781267D02*
X102995000Y-127488733D01*
%TO.C,C4*%
X106555000Y-127781267D02*
X106555000Y-127488733D01*
X105535000Y-127781267D02*
X105535000Y-127488733D01*
%TO.C,C3*%
X109095000Y-127781267D02*
X109095000Y-127488733D01*
X108075000Y-127781267D02*
X108075000Y-127488733D01*
%TO.C,U5*%
X80070000Y-132190000D02*
X80070000Y-130540000D01*
X59630000Y-132190000D02*
X80070000Y-132190000D01*
X59630000Y-126890000D02*
X59630000Y-132190000D01*
X80070000Y-126890000D02*
X59630000Y-126890000D01*
X80070000Y-128540000D02*
X80070000Y-126890000D01*
X80070000Y-130540000D02*
G75*
G02*
X80070000Y-128540000I0J1000000D01*
G01*
%TO.C,C6*%
X78251267Y-136015000D02*
X77958733Y-136015000D01*
X78251267Y-137035000D02*
X77958733Y-137035000D01*
%TO.C,U3*%
X93345000Y-120015000D02*
X93345000Y-69215000D01*
X111125000Y-120015000D02*
X93345000Y-120015000D01*
X111125000Y-69215000D02*
X111125000Y-120015000D01*
X93345000Y-69215000D02*
X111125000Y-69215000D01*
%TO.C,U4*%
X55940000Y-132190000D02*
X55940000Y-130540000D01*
X35500000Y-132190000D02*
X55940000Y-132190000D01*
X35500000Y-126890000D02*
X35500000Y-132190000D01*
X55940000Y-126890000D02*
X35500000Y-126890000D01*
X55940000Y-128540000D02*
X55940000Y-126890000D01*
X55940000Y-130540000D02*
G75*
G02*
X55940000Y-128540000I0J1000000D01*
G01*
%TO.C,R65*%
X66950000Y-122012064D02*
X66950000Y-120557936D01*
X65130000Y-122012064D02*
X65130000Y-120557936D01*
%TO.C,R64*%
X69490000Y-122012064D02*
X69490000Y-120557936D01*
X67670000Y-122012064D02*
X67670000Y-120557936D01*
%TO.C,R63*%
X72030000Y-122012064D02*
X72030000Y-120557936D01*
X70210000Y-122012064D02*
X70210000Y-120557936D01*
%TO.C,R62*%
X74570000Y-122012064D02*
X74570000Y-120557936D01*
X72750000Y-122012064D02*
X72750000Y-120557936D01*
%TO.C,R61*%
X72750000Y-137067936D02*
X72750000Y-138522064D01*
X74570000Y-137067936D02*
X74570000Y-138522064D01*
%TO.C,R60*%
X70210000Y-137067936D02*
X70210000Y-138522064D01*
X72030000Y-137067936D02*
X72030000Y-138522064D01*
%TO.C,R59*%
X67670000Y-137067936D02*
X67670000Y-138522064D01*
X69490000Y-137067936D02*
X69490000Y-138522064D01*
%TO.C,R58*%
X65130000Y-137067936D02*
X65130000Y-138522064D01*
X66950000Y-137067936D02*
X66950000Y-138522064D01*
%TO.C,R57*%
X42820000Y-122012064D02*
X42820000Y-120557936D01*
X41000000Y-122012064D02*
X41000000Y-120557936D01*
%TO.C,R56*%
X45360000Y-122012064D02*
X45360000Y-120557936D01*
X43540000Y-122012064D02*
X43540000Y-120557936D01*
%TO.C,R55*%
X47900000Y-122012064D02*
X47900000Y-120557936D01*
X46080000Y-122012064D02*
X46080000Y-120557936D01*
%TO.C,R54*%
X50440000Y-122012064D02*
X50440000Y-120557936D01*
X48620000Y-122012064D02*
X48620000Y-120557936D01*
%TO.C,R53*%
X48620000Y-137067936D02*
X48620000Y-138522064D01*
X50440000Y-137067936D02*
X50440000Y-138522064D01*
%TO.C,R52*%
X46080000Y-137067936D02*
X46080000Y-138522064D01*
X47900000Y-137067936D02*
X47900000Y-138522064D01*
%TO.C,R51*%
X43540000Y-137067936D02*
X43540000Y-138522064D01*
X45360000Y-137067936D02*
X45360000Y-138522064D01*
%TO.C,R50*%
X41000000Y-137067936D02*
X41000000Y-138522064D01*
X42820000Y-137067936D02*
X42820000Y-138522064D01*
%TO.C,J20*%
X13970000Y-152680000D02*
X26670000Y-152680000D01*
X13970000Y-134600000D02*
X26670000Y-134600000D01*
%TO.C,J19*%
X-5435001Y-152790000D02*
X7264999Y-152790000D01*
X-5435001Y-134710000D02*
X7264999Y-134710000D01*
%TO.C,J17*%
X79950000Y-94555000D02*
X81280000Y-94555000D01*
X79950000Y-95885000D02*
X79950000Y-94555000D01*
X79950000Y-97155000D02*
X82610000Y-97155000D01*
X82610000Y-97155000D02*
X82610000Y-104835000D01*
X79950000Y-97155000D02*
X79950000Y-104835000D01*
X79950000Y-104835000D02*
X82610000Y-104835000D01*
%TO.C,J16*%
X109915000Y-135195000D02*
X109915000Y-136525000D01*
X108585000Y-135195000D02*
X109915000Y-135195000D01*
X107315000Y-135195000D02*
X107315000Y-137855000D01*
X107315000Y-137855000D02*
X102175000Y-137855000D01*
X107315000Y-135195000D02*
X102175000Y-135195000D01*
X102175000Y-135195000D02*
X102175000Y-137855000D01*
%TO.C,J15*%
X109915000Y-132655000D02*
X109915000Y-133985000D01*
X108585000Y-132655000D02*
X109915000Y-132655000D01*
X107315000Y-132655000D02*
X107315000Y-135315000D01*
X107315000Y-135315000D02*
X102175000Y-135315000D01*
X107315000Y-132655000D02*
X102175000Y-132655000D01*
X102175000Y-132655000D02*
X102175000Y-135315000D01*
%TO.C,J14*%
X109915000Y-130115000D02*
X109915000Y-131445000D01*
X108585000Y-130115000D02*
X109915000Y-130115000D01*
X107315000Y-130115000D02*
X107315000Y-132775000D01*
X107315000Y-132775000D02*
X102175000Y-132775000D01*
X107315000Y-130115000D02*
X102175000Y-130115000D01*
X102175000Y-130115000D02*
X102175000Y-132775000D01*
%TO.C,J8*%
X82490000Y-94555000D02*
X83820000Y-94555000D01*
X82490000Y-95885000D02*
X82490000Y-94555000D01*
X82490000Y-97155000D02*
X85150000Y-97155000D01*
X85150000Y-97155000D02*
X85150000Y-104835000D01*
X82490000Y-97155000D02*
X82490000Y-104835000D01*
X82490000Y-104835000D02*
X85150000Y-104835000D01*
%TO.C,J4*%
X69275000Y-144720000D02*
X69275000Y-146050000D01*
X67945000Y-144720000D02*
X69275000Y-144720000D01*
X69275000Y-147320000D02*
X69275000Y-149920000D01*
X66675000Y-147320000D02*
X69275000Y-147320000D01*
X66675000Y-144720000D02*
X66675000Y-147320000D01*
X69275000Y-149920000D02*
X46295000Y-149920000D01*
X66675000Y-144720000D02*
X46295000Y-144720000D01*
X46295000Y-144720000D02*
X46295000Y-149920000D01*
%TO.C,C7*%
X54121267Y-136015000D02*
X53828733Y-136015000D01*
X54121267Y-137035000D02*
X53828733Y-137035000D01*
%TO.C,Q1*%
X125825000Y-131391000D02*
X124315000Y-131391000D01*
X125825000Y-127690000D02*
X124315000Y-127690000D01*
X124315000Y-124420000D02*
X124315000Y-134660000D01*
X125825000Y-134660000D02*
X121184000Y-134660000D01*
X125825000Y-124420000D02*
X121184000Y-124420000D01*
X121184000Y-124420000D02*
X121184000Y-134660000D01*
X125825000Y-124420000D02*
X125825000Y-134660000D01*
%TO.C,R36*%
X117997579Y-110360645D02*
X116969355Y-109332421D01*
X116710645Y-111647579D02*
X115682421Y-110619355D01*
%TO.C,J18*%
X71180000Y-46990000D02*
X71180000Y-48320000D01*
X71180000Y-48320000D02*
X69850000Y-48320000D01*
X71180000Y-45720000D02*
X68580000Y-45720000D01*
X68580000Y-45720000D02*
X68580000Y-48320000D01*
X68580000Y-48320000D02*
X27880000Y-48320000D01*
X27880000Y-43120000D02*
X27880000Y-48320000D01*
X71180000Y-43120000D02*
X27880000Y-43120000D01*
X71180000Y-43120000D02*
X71180000Y-45720000D01*
%TO.C,J9*%
X17695000Y-50800000D02*
X17695000Y-49470000D01*
X17695000Y-49470000D02*
X19025000Y-49470000D01*
X20295000Y-49470000D02*
X94015000Y-49470000D01*
X94015000Y-52130000D02*
X94015000Y-49470000D01*
X20295000Y-52130000D02*
X94015000Y-52130000D01*
X20295000Y-52130000D02*
X20295000Y-49470000D01*
%TO.C,U2*%
X9315000Y-92200000D02*
X9315000Y-93540000D01*
X8765000Y-92200000D02*
X9315000Y-92200000D01*
X8765000Y-91650000D02*
X8765000Y-92200000D01*
X8765000Y-77980000D02*
X9315000Y-77980000D01*
X8765000Y-78530000D02*
X8765000Y-77980000D01*
X22985000Y-92200000D02*
X22435000Y-92200000D01*
X22985000Y-91650000D02*
X22985000Y-92200000D01*
X22985000Y-77980000D02*
X22435000Y-77980000D01*
X22985000Y-78530000D02*
X22985000Y-77980000D01*
%TO.C,U1*%
X61170000Y-74043000D02*
X61170000Y-72703000D01*
X61720000Y-74043000D02*
X61170000Y-74043000D01*
X61720000Y-74593000D02*
X61720000Y-74043000D01*
X61720000Y-88263000D02*
X61170000Y-88263000D01*
X61720000Y-87713000D02*
X61720000Y-88263000D01*
X47500000Y-74043000D02*
X48050000Y-74043000D01*
X47500000Y-74593000D02*
X47500000Y-74043000D01*
X47500000Y-88263000D02*
X48050000Y-88263000D01*
X47500000Y-87713000D02*
X47500000Y-88263000D01*
%TO.C,J7*%
X-15900000Y-55820000D02*
X-14570000Y-55820000D01*
X-14570000Y-55820000D02*
X-14570000Y-57150000D01*
X-14570000Y-58420000D02*
X-14570000Y-139760000D01*
X-17230000Y-139760000D02*
X-14570000Y-139760000D01*
X-17230000Y-58420000D02*
X-17230000Y-139760000D01*
X-17230000Y-58420000D02*
X-14570000Y-58420000D01*
%TO.C,J5*%
X125070000Y-96460000D02*
X126400000Y-96460000D01*
X126400000Y-96460000D02*
X126400000Y-97790000D01*
X126400000Y-99060000D02*
X126400000Y-119440000D01*
X123740000Y-119440000D02*
X126400000Y-119440000D01*
X123740000Y-99060000D02*
X123740000Y-119440000D01*
X123740000Y-99060000D02*
X126400000Y-99060000D01*
%TO.C,J3*%
X125070000Y-83760000D02*
X126400000Y-83760000D01*
X126400000Y-83760000D02*
X126400000Y-85090000D01*
X126400000Y-86360000D02*
X126400000Y-91500000D01*
X123740000Y-91500000D02*
X126400000Y-91500000D01*
X123740000Y-86360000D02*
X123740000Y-91500000D01*
X123740000Y-86360000D02*
X126400000Y-86360000D01*
%TO.C,J1*%
X72069000Y-112395000D02*
X72069000Y-113725000D01*
X72069000Y-113725000D02*
X70739000Y-113725000D01*
X69469000Y-113725000D02*
X49089000Y-113725000D01*
X49089000Y-111065000D02*
X49089000Y-113725000D01*
X69469000Y-111065000D02*
X49089000Y-111065000D01*
X69469000Y-111065000D02*
X69469000Y-113725000D01*
%TO.C,C2*%
X11305000Y-73578767D02*
X11305000Y-73286233D01*
X10285000Y-73578767D02*
X10285000Y-73286233D01*
%TO.C,C1*%
X59180000Y-92664233D02*
X59180000Y-92956767D01*
X60200000Y-92664233D02*
X60200000Y-92956767D01*
%TO.C,R1*%
X44090000Y-61367564D02*
X44090000Y-59913436D01*
X42270000Y-61367564D02*
X42270000Y-59913436D01*
%TO.C,R2*%
X45995000Y-67717564D02*
X45995000Y-66263436D01*
X44175000Y-67717564D02*
X44175000Y-66263436D01*
%TO.C,R3*%
X47900000Y-61367564D02*
X47900000Y-59913436D01*
X46080000Y-61367564D02*
X46080000Y-59913436D01*
%TO.C,R4*%
X49805000Y-67717564D02*
X49805000Y-66263436D01*
X47985000Y-67717564D02*
X47985000Y-66263436D01*
%TO.C,R5*%
X51710000Y-61367564D02*
X51710000Y-59913436D01*
X49890000Y-61367564D02*
X49890000Y-59913436D01*
%TO.C,R6*%
X53615000Y-67717564D02*
X53615000Y-66263436D01*
X51795000Y-67717564D02*
X51795000Y-66263436D01*
%TO.C,R7*%
X56790000Y-61367564D02*
X56790000Y-59913436D01*
X54970000Y-61367564D02*
X54970000Y-59913436D01*
%TO.C,R8*%
X58695000Y-67717564D02*
X58695000Y-66263436D01*
X56875000Y-67717564D02*
X56875000Y-66263436D01*
%TO.C,R9*%
X60600000Y-61367564D02*
X60600000Y-59913436D01*
X58780000Y-61367564D02*
X58780000Y-59913436D01*
%TO.C,R10*%
X62505000Y-67717564D02*
X62505000Y-66263436D01*
X60685000Y-67717564D02*
X60685000Y-66263436D01*
%TO.C,R11*%
X64410000Y-61367564D02*
X64410000Y-59913436D01*
X62590000Y-61367564D02*
X62590000Y-59913436D01*
%TO.C,R12*%
X66315000Y-67717564D02*
X66315000Y-66263436D01*
X64495000Y-67717564D02*
X64495000Y-66263436D01*
%TO.C,R13*%
X68680436Y-73173000D02*
X70134564Y-73173000D01*
X68680436Y-71353000D02*
X70134564Y-71353000D01*
%TO.C,R14*%
X68680436Y-75713000D02*
X70134564Y-75713000D01*
X68680436Y-73893000D02*
X70134564Y-73893000D01*
%TO.C,R15*%
X68680436Y-78253000D02*
X70134564Y-78253000D01*
X68680436Y-76433000D02*
X70134564Y-76433000D01*
%TO.C,R16*%
X68680436Y-80793000D02*
X70134564Y-80793000D01*
X68680436Y-78973000D02*
X70134564Y-78973000D01*
%TO.C,R17*%
X68680436Y-83333000D02*
X70134564Y-83333000D01*
X68680436Y-81513000D02*
X70134564Y-81513000D01*
%TO.C,R18*%
X27030000Y-104875436D02*
X27030000Y-106329564D01*
X28850000Y-104875436D02*
X28850000Y-106329564D01*
%TO.C,R19*%
X25125000Y-98525436D02*
X25125000Y-99979564D01*
X26945000Y-98525436D02*
X26945000Y-99979564D01*
%TO.C,R20*%
X23220000Y-104875436D02*
X23220000Y-106329564D01*
X25040000Y-104875436D02*
X25040000Y-106329564D01*
%TO.C,R21*%
X21315000Y-98525436D02*
X21315000Y-99979564D01*
X23135000Y-98525436D02*
X23135000Y-99979564D01*
%TO.C,R22*%
X19410000Y-104875436D02*
X19410000Y-106329564D01*
X21230000Y-104875436D02*
X21230000Y-106329564D01*
%TO.C,R23*%
X17505000Y-98525436D02*
X17505000Y-99979564D01*
X19325000Y-98525436D02*
X19325000Y-99979564D01*
%TO.C,R24*%
X14330000Y-104875436D02*
X14330000Y-106329564D01*
X16150000Y-104875436D02*
X16150000Y-106329564D01*
%TO.C,R25*%
X12425000Y-98525436D02*
X12425000Y-99979564D01*
X14245000Y-98525436D02*
X14245000Y-99979564D01*
%TO.C,R26*%
X10520000Y-104875436D02*
X10520000Y-106329564D01*
X12340000Y-104875436D02*
X12340000Y-106329564D01*
%TO.C,R27*%
X8615000Y-98525436D02*
X8615000Y-99979564D01*
X10435000Y-98525436D02*
X10435000Y-99979564D01*
%TO.C,R28*%
X6710000Y-104875436D02*
X6710000Y-106329564D01*
X8530000Y-104875436D02*
X8530000Y-106329564D01*
%TO.C,R29*%
X4805000Y-98525436D02*
X4805000Y-99979564D01*
X6625000Y-98525436D02*
X6625000Y-99979564D01*
%TO.C,R30*%
X3074564Y-92435000D02*
X1620436Y-92435000D01*
X3074564Y-94255000D02*
X1620436Y-94255000D01*
%TO.C,R31*%
X3074564Y-89895000D02*
X1620436Y-89895000D01*
X3074564Y-91715000D02*
X1620436Y-91715000D01*
%TO.C,R32*%
X3074564Y-87355000D02*
X1620436Y-87355000D01*
X3074564Y-89175000D02*
X1620436Y-89175000D01*
%TO.C,R33*%
X3074564Y-84815000D02*
X1620436Y-84815000D01*
X3074564Y-86635000D02*
X1620436Y-86635000D01*
%TO.C,R34*%
X3074564Y-82275000D02*
X1620436Y-82275000D01*
X3074564Y-84095000D02*
X1620436Y-84095000D01*
%TO.C,C5*%
D10*
X102432142Y-127801666D02*
X102479761Y-127849285D01*
X102527380Y-127992142D01*
X102527380Y-128087380D01*
X102479761Y-128230238D01*
X102384523Y-128325476D01*
X102289285Y-128373095D01*
X102098809Y-128420714D01*
X101955952Y-128420714D01*
X101765476Y-128373095D01*
X101670238Y-128325476D01*
X101575000Y-128230238D01*
X101527380Y-128087380D01*
X101527380Y-127992142D01*
X101575000Y-127849285D01*
X101622619Y-127801666D01*
X101527380Y-126896904D02*
X101527380Y-127373095D01*
X102003571Y-127420714D01*
X101955952Y-127373095D01*
X101908333Y-127277857D01*
X101908333Y-127039761D01*
X101955952Y-126944523D01*
X102003571Y-126896904D01*
X102098809Y-126849285D01*
X102336904Y-126849285D01*
X102432142Y-126896904D01*
X102479761Y-126944523D01*
X102527380Y-127039761D01*
X102527380Y-127277857D01*
X102479761Y-127373095D01*
X102432142Y-127420714D01*
%TO.C,C4*%
X104972142Y-127801666D02*
X105019761Y-127849285D01*
X105067380Y-127992142D01*
X105067380Y-128087380D01*
X105019761Y-128230238D01*
X104924523Y-128325476D01*
X104829285Y-128373095D01*
X104638809Y-128420714D01*
X104495952Y-128420714D01*
X104305476Y-128373095D01*
X104210238Y-128325476D01*
X104115000Y-128230238D01*
X104067380Y-128087380D01*
X104067380Y-127992142D01*
X104115000Y-127849285D01*
X104162619Y-127801666D01*
X104400714Y-126944523D02*
X105067380Y-126944523D01*
X104019761Y-127182619D02*
X104734047Y-127420714D01*
X104734047Y-126801666D01*
%TO.C,C3*%
X107512142Y-127801666D02*
X107559761Y-127849285D01*
X107607380Y-127992142D01*
X107607380Y-128087380D01*
X107559761Y-128230238D01*
X107464523Y-128325476D01*
X107369285Y-128373095D01*
X107178809Y-128420714D01*
X107035952Y-128420714D01*
X106845476Y-128373095D01*
X106750238Y-128325476D01*
X106655000Y-128230238D01*
X106607380Y-128087380D01*
X106607380Y-127992142D01*
X106655000Y-127849285D01*
X106702619Y-127801666D01*
X106607380Y-127468333D02*
X106607380Y-126849285D01*
X106988333Y-127182619D01*
X106988333Y-127039761D01*
X107035952Y-126944523D01*
X107083571Y-126896904D01*
X107178809Y-126849285D01*
X107416904Y-126849285D01*
X107512142Y-126896904D01*
X107559761Y-126944523D01*
X107607380Y-127039761D01*
X107607380Y-127325476D01*
X107559761Y-127420714D01*
X107512142Y-127468333D01*
%TO.C,U5*%
X80522380Y-130301904D02*
X81331904Y-130301904D01*
X81427142Y-130254285D01*
X81474761Y-130206666D01*
X81522380Y-130111428D01*
X81522380Y-129920952D01*
X81474761Y-129825714D01*
X81427142Y-129778095D01*
X81331904Y-129730476D01*
X80522380Y-129730476D01*
X80522380Y-128778095D02*
X80522380Y-129254285D01*
X80998571Y-129301904D01*
X80950952Y-129254285D01*
X80903333Y-129159047D01*
X80903333Y-128920952D01*
X80950952Y-128825714D01*
X80998571Y-128778095D01*
X81093809Y-128730476D01*
X81331904Y-128730476D01*
X81427142Y-128778095D01*
X81474761Y-128825714D01*
X81522380Y-128920952D01*
X81522380Y-129159047D01*
X81474761Y-129254285D01*
X81427142Y-129301904D01*
%TO.C,C6*%
X77938333Y-138312142D02*
X77890714Y-138359761D01*
X77747857Y-138407380D01*
X77652619Y-138407380D01*
X77509761Y-138359761D01*
X77414523Y-138264523D01*
X77366904Y-138169285D01*
X77319285Y-137978809D01*
X77319285Y-137835952D01*
X77366904Y-137645476D01*
X77414523Y-137550238D01*
X77509761Y-137455000D01*
X77652619Y-137407380D01*
X77747857Y-137407380D01*
X77890714Y-137455000D01*
X77938333Y-137502619D01*
X78795476Y-137407380D02*
X78605000Y-137407380D01*
X78509761Y-137455000D01*
X78462142Y-137502619D01*
X78366904Y-137645476D01*
X78319285Y-137835952D01*
X78319285Y-138216904D01*
X78366904Y-138312142D01*
X78414523Y-138359761D01*
X78509761Y-138407380D01*
X78700238Y-138407380D01*
X78795476Y-138359761D01*
X78843095Y-138312142D01*
X78890714Y-138216904D01*
X78890714Y-137978809D01*
X78843095Y-137883571D01*
X78795476Y-137835952D01*
X78700238Y-137788333D01*
X78509761Y-137788333D01*
X78414523Y-137835952D01*
X78366904Y-137883571D01*
X78319285Y-137978809D01*
%TO.C,U3*%
X101473095Y-67397380D02*
X101473095Y-68206904D01*
X101520714Y-68302142D01*
X101568333Y-68349761D01*
X101663571Y-68397380D01*
X101854047Y-68397380D01*
X101949285Y-68349761D01*
X101996904Y-68302142D01*
X102044523Y-68206904D01*
X102044523Y-67397380D01*
X102425476Y-67397380D02*
X103044523Y-67397380D01*
X102711190Y-67778333D01*
X102854047Y-67778333D01*
X102949285Y-67825952D01*
X102996904Y-67873571D01*
X103044523Y-67968809D01*
X103044523Y-68206904D01*
X102996904Y-68302142D01*
X102949285Y-68349761D01*
X102854047Y-68397380D01*
X102568333Y-68397380D01*
X102473095Y-68349761D01*
X102425476Y-68302142D01*
%TO.C,U4*%
X56392380Y-130301904D02*
X57201904Y-130301904D01*
X57297142Y-130254285D01*
X57344761Y-130206666D01*
X57392380Y-130111428D01*
X57392380Y-129920952D01*
X57344761Y-129825714D01*
X57297142Y-129778095D01*
X57201904Y-129730476D01*
X56392380Y-129730476D01*
X56725714Y-128825714D02*
X57392380Y-128825714D01*
X56344761Y-129063809D02*
X57059047Y-129301904D01*
X57059047Y-128682857D01*
%TO.C,R65*%
X66492380Y-118117857D02*
X66016190Y-118451190D01*
X66492380Y-118689285D02*
X65492380Y-118689285D01*
X65492380Y-118308333D01*
X65540000Y-118213095D01*
X65587619Y-118165476D01*
X65682857Y-118117857D01*
X65825714Y-118117857D01*
X65920952Y-118165476D01*
X65968571Y-118213095D01*
X66016190Y-118308333D01*
X66016190Y-118689285D01*
X65492380Y-117260714D02*
X65492380Y-117451190D01*
X65540000Y-117546428D01*
X65587619Y-117594047D01*
X65730476Y-117689285D01*
X65920952Y-117736904D01*
X66301904Y-117736904D01*
X66397142Y-117689285D01*
X66444761Y-117641666D01*
X66492380Y-117546428D01*
X66492380Y-117355952D01*
X66444761Y-117260714D01*
X66397142Y-117213095D01*
X66301904Y-117165476D01*
X66063809Y-117165476D01*
X65968571Y-117213095D01*
X65920952Y-117260714D01*
X65873333Y-117355952D01*
X65873333Y-117546428D01*
X65920952Y-117641666D01*
X65968571Y-117689285D01*
X66063809Y-117736904D01*
X65492380Y-116260714D02*
X65492380Y-116736904D01*
X65968571Y-116784523D01*
X65920952Y-116736904D01*
X65873333Y-116641666D01*
X65873333Y-116403571D01*
X65920952Y-116308333D01*
X65968571Y-116260714D01*
X66063809Y-116213095D01*
X66301904Y-116213095D01*
X66397142Y-116260714D01*
X66444761Y-116308333D01*
X66492380Y-116403571D01*
X66492380Y-116641666D01*
X66444761Y-116736904D01*
X66397142Y-116784523D01*
%TO.C,R64*%
X69032380Y-118117857D02*
X68556190Y-118451190D01*
X69032380Y-118689285D02*
X68032380Y-118689285D01*
X68032380Y-118308333D01*
X68080000Y-118213095D01*
X68127619Y-118165476D01*
X68222857Y-118117857D01*
X68365714Y-118117857D01*
X68460952Y-118165476D01*
X68508571Y-118213095D01*
X68556190Y-118308333D01*
X68556190Y-118689285D01*
X68032380Y-117260714D02*
X68032380Y-117451190D01*
X68080000Y-117546428D01*
X68127619Y-117594047D01*
X68270476Y-117689285D01*
X68460952Y-117736904D01*
X68841904Y-117736904D01*
X68937142Y-117689285D01*
X68984761Y-117641666D01*
X69032380Y-117546428D01*
X69032380Y-117355952D01*
X68984761Y-117260714D01*
X68937142Y-117213095D01*
X68841904Y-117165476D01*
X68603809Y-117165476D01*
X68508571Y-117213095D01*
X68460952Y-117260714D01*
X68413333Y-117355952D01*
X68413333Y-117546428D01*
X68460952Y-117641666D01*
X68508571Y-117689285D01*
X68603809Y-117736904D01*
X68365714Y-116308333D02*
X69032380Y-116308333D01*
X67984761Y-116546428D02*
X68699047Y-116784523D01*
X68699047Y-116165476D01*
%TO.C,R63*%
X71572380Y-118117857D02*
X71096190Y-118451190D01*
X71572380Y-118689285D02*
X70572380Y-118689285D01*
X70572380Y-118308333D01*
X70620000Y-118213095D01*
X70667619Y-118165476D01*
X70762857Y-118117857D01*
X70905714Y-118117857D01*
X71000952Y-118165476D01*
X71048571Y-118213095D01*
X71096190Y-118308333D01*
X71096190Y-118689285D01*
X70572380Y-117260714D02*
X70572380Y-117451190D01*
X70620000Y-117546428D01*
X70667619Y-117594047D01*
X70810476Y-117689285D01*
X71000952Y-117736904D01*
X71381904Y-117736904D01*
X71477142Y-117689285D01*
X71524761Y-117641666D01*
X71572380Y-117546428D01*
X71572380Y-117355952D01*
X71524761Y-117260714D01*
X71477142Y-117213095D01*
X71381904Y-117165476D01*
X71143809Y-117165476D01*
X71048571Y-117213095D01*
X71000952Y-117260714D01*
X70953333Y-117355952D01*
X70953333Y-117546428D01*
X71000952Y-117641666D01*
X71048571Y-117689285D01*
X71143809Y-117736904D01*
X70572380Y-116832142D02*
X70572380Y-116213095D01*
X70953333Y-116546428D01*
X70953333Y-116403571D01*
X71000952Y-116308333D01*
X71048571Y-116260714D01*
X71143809Y-116213095D01*
X71381904Y-116213095D01*
X71477142Y-116260714D01*
X71524761Y-116308333D01*
X71572380Y-116403571D01*
X71572380Y-116689285D01*
X71524761Y-116784523D01*
X71477142Y-116832142D01*
%TO.C,R62*%
X74112380Y-118117857D02*
X73636190Y-118451190D01*
X74112380Y-118689285D02*
X73112380Y-118689285D01*
X73112380Y-118308333D01*
X73160000Y-118213095D01*
X73207619Y-118165476D01*
X73302857Y-118117857D01*
X73445714Y-118117857D01*
X73540952Y-118165476D01*
X73588571Y-118213095D01*
X73636190Y-118308333D01*
X73636190Y-118689285D01*
X73112380Y-117260714D02*
X73112380Y-117451190D01*
X73160000Y-117546428D01*
X73207619Y-117594047D01*
X73350476Y-117689285D01*
X73540952Y-117736904D01*
X73921904Y-117736904D01*
X74017142Y-117689285D01*
X74064761Y-117641666D01*
X74112380Y-117546428D01*
X74112380Y-117355952D01*
X74064761Y-117260714D01*
X74017142Y-117213095D01*
X73921904Y-117165476D01*
X73683809Y-117165476D01*
X73588571Y-117213095D01*
X73540952Y-117260714D01*
X73493333Y-117355952D01*
X73493333Y-117546428D01*
X73540952Y-117641666D01*
X73588571Y-117689285D01*
X73683809Y-117736904D01*
X73207619Y-116784523D02*
X73160000Y-116736904D01*
X73112380Y-116641666D01*
X73112380Y-116403571D01*
X73160000Y-116308333D01*
X73207619Y-116260714D01*
X73302857Y-116213095D01*
X73398095Y-116213095D01*
X73540952Y-116260714D01*
X74112380Y-116832142D01*
X74112380Y-116213095D01*
%TO.C,R61*%
X74112380Y-142247857D02*
X73636190Y-142581190D01*
X74112380Y-142819285D02*
X73112380Y-142819285D01*
X73112380Y-142438333D01*
X73160000Y-142343095D01*
X73207619Y-142295476D01*
X73302857Y-142247857D01*
X73445714Y-142247857D01*
X73540952Y-142295476D01*
X73588571Y-142343095D01*
X73636190Y-142438333D01*
X73636190Y-142819285D01*
X73112380Y-141390714D02*
X73112380Y-141581190D01*
X73160000Y-141676428D01*
X73207619Y-141724047D01*
X73350476Y-141819285D01*
X73540952Y-141866904D01*
X73921904Y-141866904D01*
X74017142Y-141819285D01*
X74064761Y-141771666D01*
X74112380Y-141676428D01*
X74112380Y-141485952D01*
X74064761Y-141390714D01*
X74017142Y-141343095D01*
X73921904Y-141295476D01*
X73683809Y-141295476D01*
X73588571Y-141343095D01*
X73540952Y-141390714D01*
X73493333Y-141485952D01*
X73493333Y-141676428D01*
X73540952Y-141771666D01*
X73588571Y-141819285D01*
X73683809Y-141866904D01*
X74112380Y-140343095D02*
X74112380Y-140914523D01*
X74112380Y-140628809D02*
X73112380Y-140628809D01*
X73255238Y-140724047D01*
X73350476Y-140819285D01*
X73398095Y-140914523D01*
%TO.C,R60*%
X71572380Y-142247857D02*
X71096190Y-142581190D01*
X71572380Y-142819285D02*
X70572380Y-142819285D01*
X70572380Y-142438333D01*
X70620000Y-142343095D01*
X70667619Y-142295476D01*
X70762857Y-142247857D01*
X70905714Y-142247857D01*
X71000952Y-142295476D01*
X71048571Y-142343095D01*
X71096190Y-142438333D01*
X71096190Y-142819285D01*
X70572380Y-141390714D02*
X70572380Y-141581190D01*
X70620000Y-141676428D01*
X70667619Y-141724047D01*
X70810476Y-141819285D01*
X71000952Y-141866904D01*
X71381904Y-141866904D01*
X71477142Y-141819285D01*
X71524761Y-141771666D01*
X71572380Y-141676428D01*
X71572380Y-141485952D01*
X71524761Y-141390714D01*
X71477142Y-141343095D01*
X71381904Y-141295476D01*
X71143809Y-141295476D01*
X71048571Y-141343095D01*
X71000952Y-141390714D01*
X70953333Y-141485952D01*
X70953333Y-141676428D01*
X71000952Y-141771666D01*
X71048571Y-141819285D01*
X71143809Y-141866904D01*
X70572380Y-140676428D02*
X70572380Y-140581190D01*
X70620000Y-140485952D01*
X70667619Y-140438333D01*
X70762857Y-140390714D01*
X70953333Y-140343095D01*
X71191428Y-140343095D01*
X71381904Y-140390714D01*
X71477142Y-140438333D01*
X71524761Y-140485952D01*
X71572380Y-140581190D01*
X71572380Y-140676428D01*
X71524761Y-140771666D01*
X71477142Y-140819285D01*
X71381904Y-140866904D01*
X71191428Y-140914523D01*
X70953333Y-140914523D01*
X70762857Y-140866904D01*
X70667619Y-140819285D01*
X70620000Y-140771666D01*
X70572380Y-140676428D01*
%TO.C,R59*%
X69032380Y-142247857D02*
X68556190Y-142581190D01*
X69032380Y-142819285D02*
X68032380Y-142819285D01*
X68032380Y-142438333D01*
X68080000Y-142343095D01*
X68127619Y-142295476D01*
X68222857Y-142247857D01*
X68365714Y-142247857D01*
X68460952Y-142295476D01*
X68508571Y-142343095D01*
X68556190Y-142438333D01*
X68556190Y-142819285D01*
X68032380Y-141343095D02*
X68032380Y-141819285D01*
X68508571Y-141866904D01*
X68460952Y-141819285D01*
X68413333Y-141724047D01*
X68413333Y-141485952D01*
X68460952Y-141390714D01*
X68508571Y-141343095D01*
X68603809Y-141295476D01*
X68841904Y-141295476D01*
X68937142Y-141343095D01*
X68984761Y-141390714D01*
X69032380Y-141485952D01*
X69032380Y-141724047D01*
X68984761Y-141819285D01*
X68937142Y-141866904D01*
X69032380Y-140819285D02*
X69032380Y-140628809D01*
X68984761Y-140533571D01*
X68937142Y-140485952D01*
X68794285Y-140390714D01*
X68603809Y-140343095D01*
X68222857Y-140343095D01*
X68127619Y-140390714D01*
X68080000Y-140438333D01*
X68032380Y-140533571D01*
X68032380Y-140724047D01*
X68080000Y-140819285D01*
X68127619Y-140866904D01*
X68222857Y-140914523D01*
X68460952Y-140914523D01*
X68556190Y-140866904D01*
X68603809Y-140819285D01*
X68651428Y-140724047D01*
X68651428Y-140533571D01*
X68603809Y-140438333D01*
X68556190Y-140390714D01*
X68460952Y-140343095D01*
%TO.C,R58*%
X66492380Y-142247857D02*
X66016190Y-142581190D01*
X66492380Y-142819285D02*
X65492380Y-142819285D01*
X65492380Y-142438333D01*
X65540000Y-142343095D01*
X65587619Y-142295476D01*
X65682857Y-142247857D01*
X65825714Y-142247857D01*
X65920952Y-142295476D01*
X65968571Y-142343095D01*
X66016190Y-142438333D01*
X66016190Y-142819285D01*
X65492380Y-141343095D02*
X65492380Y-141819285D01*
X65968571Y-141866904D01*
X65920952Y-141819285D01*
X65873333Y-141724047D01*
X65873333Y-141485952D01*
X65920952Y-141390714D01*
X65968571Y-141343095D01*
X66063809Y-141295476D01*
X66301904Y-141295476D01*
X66397142Y-141343095D01*
X66444761Y-141390714D01*
X66492380Y-141485952D01*
X66492380Y-141724047D01*
X66444761Y-141819285D01*
X66397142Y-141866904D01*
X65920952Y-140724047D02*
X65873333Y-140819285D01*
X65825714Y-140866904D01*
X65730476Y-140914523D01*
X65682857Y-140914523D01*
X65587619Y-140866904D01*
X65540000Y-140819285D01*
X65492380Y-140724047D01*
X65492380Y-140533571D01*
X65540000Y-140438333D01*
X65587619Y-140390714D01*
X65682857Y-140343095D01*
X65730476Y-140343095D01*
X65825714Y-140390714D01*
X65873333Y-140438333D01*
X65920952Y-140533571D01*
X65920952Y-140724047D01*
X65968571Y-140819285D01*
X66016190Y-140866904D01*
X66111428Y-140914523D01*
X66301904Y-140914523D01*
X66397142Y-140866904D01*
X66444761Y-140819285D01*
X66492380Y-140724047D01*
X66492380Y-140533571D01*
X66444761Y-140438333D01*
X66397142Y-140390714D01*
X66301904Y-140343095D01*
X66111428Y-140343095D01*
X66016190Y-140390714D01*
X65968571Y-140438333D01*
X65920952Y-140533571D01*
%TO.C,R57*%
X42362380Y-118117857D02*
X41886190Y-118451190D01*
X42362380Y-118689285D02*
X41362380Y-118689285D01*
X41362380Y-118308333D01*
X41410000Y-118213095D01*
X41457619Y-118165476D01*
X41552857Y-118117857D01*
X41695714Y-118117857D01*
X41790952Y-118165476D01*
X41838571Y-118213095D01*
X41886190Y-118308333D01*
X41886190Y-118689285D01*
X41362380Y-117213095D02*
X41362380Y-117689285D01*
X41838571Y-117736904D01*
X41790952Y-117689285D01*
X41743333Y-117594047D01*
X41743333Y-117355952D01*
X41790952Y-117260714D01*
X41838571Y-117213095D01*
X41933809Y-117165476D01*
X42171904Y-117165476D01*
X42267142Y-117213095D01*
X42314761Y-117260714D01*
X42362380Y-117355952D01*
X42362380Y-117594047D01*
X42314761Y-117689285D01*
X42267142Y-117736904D01*
X41362380Y-116832142D02*
X41362380Y-116165476D01*
X42362380Y-116594047D01*
%TO.C,R56*%
X44902380Y-118117857D02*
X44426190Y-118451190D01*
X44902380Y-118689285D02*
X43902380Y-118689285D01*
X43902380Y-118308333D01*
X43950000Y-118213095D01*
X43997619Y-118165476D01*
X44092857Y-118117857D01*
X44235714Y-118117857D01*
X44330952Y-118165476D01*
X44378571Y-118213095D01*
X44426190Y-118308333D01*
X44426190Y-118689285D01*
X43902380Y-117213095D02*
X43902380Y-117689285D01*
X44378571Y-117736904D01*
X44330952Y-117689285D01*
X44283333Y-117594047D01*
X44283333Y-117355952D01*
X44330952Y-117260714D01*
X44378571Y-117213095D01*
X44473809Y-117165476D01*
X44711904Y-117165476D01*
X44807142Y-117213095D01*
X44854761Y-117260714D01*
X44902380Y-117355952D01*
X44902380Y-117594047D01*
X44854761Y-117689285D01*
X44807142Y-117736904D01*
X43902380Y-116308333D02*
X43902380Y-116498809D01*
X43950000Y-116594047D01*
X43997619Y-116641666D01*
X44140476Y-116736904D01*
X44330952Y-116784523D01*
X44711904Y-116784523D01*
X44807142Y-116736904D01*
X44854761Y-116689285D01*
X44902380Y-116594047D01*
X44902380Y-116403571D01*
X44854761Y-116308333D01*
X44807142Y-116260714D01*
X44711904Y-116213095D01*
X44473809Y-116213095D01*
X44378571Y-116260714D01*
X44330952Y-116308333D01*
X44283333Y-116403571D01*
X44283333Y-116594047D01*
X44330952Y-116689285D01*
X44378571Y-116736904D01*
X44473809Y-116784523D01*
%TO.C,R55*%
X47442380Y-118117857D02*
X46966190Y-118451190D01*
X47442380Y-118689285D02*
X46442380Y-118689285D01*
X46442380Y-118308333D01*
X46490000Y-118213095D01*
X46537619Y-118165476D01*
X46632857Y-118117857D01*
X46775714Y-118117857D01*
X46870952Y-118165476D01*
X46918571Y-118213095D01*
X46966190Y-118308333D01*
X46966190Y-118689285D01*
X46442380Y-117213095D02*
X46442380Y-117689285D01*
X46918571Y-117736904D01*
X46870952Y-117689285D01*
X46823333Y-117594047D01*
X46823333Y-117355952D01*
X46870952Y-117260714D01*
X46918571Y-117213095D01*
X47013809Y-117165476D01*
X47251904Y-117165476D01*
X47347142Y-117213095D01*
X47394761Y-117260714D01*
X47442380Y-117355952D01*
X47442380Y-117594047D01*
X47394761Y-117689285D01*
X47347142Y-117736904D01*
X46442380Y-116260714D02*
X46442380Y-116736904D01*
X46918571Y-116784523D01*
X46870952Y-116736904D01*
X46823333Y-116641666D01*
X46823333Y-116403571D01*
X46870952Y-116308333D01*
X46918571Y-116260714D01*
X47013809Y-116213095D01*
X47251904Y-116213095D01*
X47347142Y-116260714D01*
X47394761Y-116308333D01*
X47442380Y-116403571D01*
X47442380Y-116641666D01*
X47394761Y-116736904D01*
X47347142Y-116784523D01*
%TO.C,R54*%
X49982380Y-118117857D02*
X49506190Y-118451190D01*
X49982380Y-118689285D02*
X48982380Y-118689285D01*
X48982380Y-118308333D01*
X49030000Y-118213095D01*
X49077619Y-118165476D01*
X49172857Y-118117857D01*
X49315714Y-118117857D01*
X49410952Y-118165476D01*
X49458571Y-118213095D01*
X49506190Y-118308333D01*
X49506190Y-118689285D01*
X48982380Y-117213095D02*
X48982380Y-117689285D01*
X49458571Y-117736904D01*
X49410952Y-117689285D01*
X49363333Y-117594047D01*
X49363333Y-117355952D01*
X49410952Y-117260714D01*
X49458571Y-117213095D01*
X49553809Y-117165476D01*
X49791904Y-117165476D01*
X49887142Y-117213095D01*
X49934761Y-117260714D01*
X49982380Y-117355952D01*
X49982380Y-117594047D01*
X49934761Y-117689285D01*
X49887142Y-117736904D01*
X49315714Y-116308333D02*
X49982380Y-116308333D01*
X48934761Y-116546428D02*
X49649047Y-116784523D01*
X49649047Y-116165476D01*
%TO.C,R53*%
X49982380Y-142247857D02*
X49506190Y-142581190D01*
X49982380Y-142819285D02*
X48982380Y-142819285D01*
X48982380Y-142438333D01*
X49030000Y-142343095D01*
X49077619Y-142295476D01*
X49172857Y-142247857D01*
X49315714Y-142247857D01*
X49410952Y-142295476D01*
X49458571Y-142343095D01*
X49506190Y-142438333D01*
X49506190Y-142819285D01*
X48982380Y-141343095D02*
X48982380Y-141819285D01*
X49458571Y-141866904D01*
X49410952Y-141819285D01*
X49363333Y-141724047D01*
X49363333Y-141485952D01*
X49410952Y-141390714D01*
X49458571Y-141343095D01*
X49553809Y-141295476D01*
X49791904Y-141295476D01*
X49887142Y-141343095D01*
X49934761Y-141390714D01*
X49982380Y-141485952D01*
X49982380Y-141724047D01*
X49934761Y-141819285D01*
X49887142Y-141866904D01*
X48982380Y-140962142D02*
X48982380Y-140343095D01*
X49363333Y-140676428D01*
X49363333Y-140533571D01*
X49410952Y-140438333D01*
X49458571Y-140390714D01*
X49553809Y-140343095D01*
X49791904Y-140343095D01*
X49887142Y-140390714D01*
X49934761Y-140438333D01*
X49982380Y-140533571D01*
X49982380Y-140819285D01*
X49934761Y-140914523D01*
X49887142Y-140962142D01*
%TO.C,R52*%
X47442380Y-142247857D02*
X46966190Y-142581190D01*
X47442380Y-142819285D02*
X46442380Y-142819285D01*
X46442380Y-142438333D01*
X46490000Y-142343095D01*
X46537619Y-142295476D01*
X46632857Y-142247857D01*
X46775714Y-142247857D01*
X46870952Y-142295476D01*
X46918571Y-142343095D01*
X46966190Y-142438333D01*
X46966190Y-142819285D01*
X46442380Y-141343095D02*
X46442380Y-141819285D01*
X46918571Y-141866904D01*
X46870952Y-141819285D01*
X46823333Y-141724047D01*
X46823333Y-141485952D01*
X46870952Y-141390714D01*
X46918571Y-141343095D01*
X47013809Y-141295476D01*
X47251904Y-141295476D01*
X47347142Y-141343095D01*
X47394761Y-141390714D01*
X47442380Y-141485952D01*
X47442380Y-141724047D01*
X47394761Y-141819285D01*
X47347142Y-141866904D01*
X46537619Y-140914523D02*
X46490000Y-140866904D01*
X46442380Y-140771666D01*
X46442380Y-140533571D01*
X46490000Y-140438333D01*
X46537619Y-140390714D01*
X46632857Y-140343095D01*
X46728095Y-140343095D01*
X46870952Y-140390714D01*
X47442380Y-140962142D01*
X47442380Y-140343095D01*
%TO.C,R51*%
X44902380Y-142247857D02*
X44426190Y-142581190D01*
X44902380Y-142819285D02*
X43902380Y-142819285D01*
X43902380Y-142438333D01*
X43950000Y-142343095D01*
X43997619Y-142295476D01*
X44092857Y-142247857D01*
X44235714Y-142247857D01*
X44330952Y-142295476D01*
X44378571Y-142343095D01*
X44426190Y-142438333D01*
X44426190Y-142819285D01*
X43902380Y-141343095D02*
X43902380Y-141819285D01*
X44378571Y-141866904D01*
X44330952Y-141819285D01*
X44283333Y-141724047D01*
X44283333Y-141485952D01*
X44330952Y-141390714D01*
X44378571Y-141343095D01*
X44473809Y-141295476D01*
X44711904Y-141295476D01*
X44807142Y-141343095D01*
X44854761Y-141390714D01*
X44902380Y-141485952D01*
X44902380Y-141724047D01*
X44854761Y-141819285D01*
X44807142Y-141866904D01*
X44902380Y-140343095D02*
X44902380Y-140914523D01*
X44902380Y-140628809D02*
X43902380Y-140628809D01*
X44045238Y-140724047D01*
X44140476Y-140819285D01*
X44188095Y-140914523D01*
%TO.C,R50*%
X42362380Y-142247857D02*
X41886190Y-142581190D01*
X42362380Y-142819285D02*
X41362380Y-142819285D01*
X41362380Y-142438333D01*
X41410000Y-142343095D01*
X41457619Y-142295476D01*
X41552857Y-142247857D01*
X41695714Y-142247857D01*
X41790952Y-142295476D01*
X41838571Y-142343095D01*
X41886190Y-142438333D01*
X41886190Y-142819285D01*
X41362380Y-141343095D02*
X41362380Y-141819285D01*
X41838571Y-141866904D01*
X41790952Y-141819285D01*
X41743333Y-141724047D01*
X41743333Y-141485952D01*
X41790952Y-141390714D01*
X41838571Y-141343095D01*
X41933809Y-141295476D01*
X42171904Y-141295476D01*
X42267142Y-141343095D01*
X42314761Y-141390714D01*
X42362380Y-141485952D01*
X42362380Y-141724047D01*
X42314761Y-141819285D01*
X42267142Y-141866904D01*
X41362380Y-140676428D02*
X41362380Y-140581190D01*
X41410000Y-140485952D01*
X41457619Y-140438333D01*
X41552857Y-140390714D01*
X41743333Y-140343095D01*
X41981428Y-140343095D01*
X42171904Y-140390714D01*
X42267142Y-140438333D01*
X42314761Y-140485952D01*
X42362380Y-140581190D01*
X42362380Y-140676428D01*
X42314761Y-140771666D01*
X42267142Y-140819285D01*
X42171904Y-140866904D01*
X41981428Y-140914523D01*
X41743333Y-140914523D01*
X41552857Y-140866904D01*
X41457619Y-140819285D01*
X41410000Y-140771666D01*
X41362380Y-140676428D01*
%TO.C,J20*%
X19510476Y-132802380D02*
X19510476Y-133516666D01*
X19462857Y-133659523D01*
X19367619Y-133754761D01*
X19224761Y-133802380D01*
X19129523Y-133802380D01*
X19939047Y-132897619D02*
X19986666Y-132850000D01*
X20081904Y-132802380D01*
X20320000Y-132802380D01*
X20415238Y-132850000D01*
X20462857Y-132897619D01*
X20510476Y-132992857D01*
X20510476Y-133088095D01*
X20462857Y-133230952D01*
X19891428Y-133802380D01*
X20510476Y-133802380D01*
X21129523Y-132802380D02*
X21224761Y-132802380D01*
X21320000Y-132850000D01*
X21367619Y-132897619D01*
X21415238Y-132992857D01*
X21462857Y-133183333D01*
X21462857Y-133421428D01*
X21415238Y-133611904D01*
X21367619Y-133707142D01*
X21320000Y-133754761D01*
X21224761Y-133802380D01*
X21129523Y-133802380D01*
X21034285Y-133754761D01*
X20986666Y-133707142D01*
X20939047Y-133611904D01*
X20891428Y-133421428D01*
X20891428Y-133183333D01*
X20939047Y-132992857D01*
X20986666Y-132897619D01*
X21034285Y-132850000D01*
X21129523Y-132802380D01*
%TO.C,J19*%
X105475Y-132912380D02*
X105475Y-133626666D01*
X57856Y-133769523D01*
X-37381Y-133864761D01*
X-180239Y-133912380D01*
X-275477Y-133912380D01*
X1105475Y-133912380D02*
X534046Y-133912380D01*
X819760Y-133912380D02*
X819760Y-132912380D01*
X724522Y-133055238D01*
X629284Y-133150476D01*
X534046Y-133198095D01*
X1581665Y-133912380D02*
X1772141Y-133912380D01*
X1867379Y-133864761D01*
X1914998Y-133817142D01*
X2010237Y-133674285D01*
X2057856Y-133483809D01*
X2057856Y-133102857D01*
X2010237Y-133007619D01*
X1962618Y-132960000D01*
X1867379Y-132912380D01*
X1676903Y-132912380D01*
X1581665Y-132960000D01*
X1534046Y-133007619D01*
X1486427Y-133102857D01*
X1486427Y-133340952D01*
X1534046Y-133436190D01*
X1581665Y-133483809D01*
X1676903Y-133531428D01*
X1867379Y-133531428D01*
X1962618Y-133483809D01*
X2010237Y-133436190D01*
X2057856Y-133340952D01*
%TO.C,J17*%
X80470476Y-93007380D02*
X80470476Y-93721666D01*
X80422857Y-93864523D01*
X80327619Y-93959761D01*
X80184761Y-94007380D01*
X80089523Y-94007380D01*
X81470476Y-94007380D02*
X80899047Y-94007380D01*
X81184761Y-94007380D02*
X81184761Y-93007380D01*
X81089523Y-93150238D01*
X80994285Y-93245476D01*
X80899047Y-93293095D01*
X81803809Y-93007380D02*
X82470476Y-93007380D01*
X82041904Y-94007380D01*
%TO.C,J16*%
X110367380Y-137334523D02*
X111081666Y-137334523D01*
X111224523Y-137382142D01*
X111319761Y-137477380D01*
X111367380Y-137620238D01*
X111367380Y-137715476D01*
X111367380Y-136334523D02*
X111367380Y-136905952D01*
X111367380Y-136620238D02*
X110367380Y-136620238D01*
X110510238Y-136715476D01*
X110605476Y-136810714D01*
X110653095Y-136905952D01*
X110367380Y-135477380D02*
X110367380Y-135667857D01*
X110415000Y-135763095D01*
X110462619Y-135810714D01*
X110605476Y-135905952D01*
X110795952Y-135953571D01*
X111176904Y-135953571D01*
X111272142Y-135905952D01*
X111319761Y-135858333D01*
X111367380Y-135763095D01*
X111367380Y-135572619D01*
X111319761Y-135477380D01*
X111272142Y-135429761D01*
X111176904Y-135382142D01*
X110938809Y-135382142D01*
X110843571Y-135429761D01*
X110795952Y-135477380D01*
X110748333Y-135572619D01*
X110748333Y-135763095D01*
X110795952Y-135858333D01*
X110843571Y-135905952D01*
X110938809Y-135953571D01*
%TO.C,J15*%
X110367380Y-134794523D02*
X111081666Y-134794523D01*
X111224523Y-134842142D01*
X111319761Y-134937380D01*
X111367380Y-135080238D01*
X111367380Y-135175476D01*
X111367380Y-133794523D02*
X111367380Y-134365952D01*
X111367380Y-134080238D02*
X110367380Y-134080238D01*
X110510238Y-134175476D01*
X110605476Y-134270714D01*
X110653095Y-134365952D01*
X110367380Y-132889761D02*
X110367380Y-133365952D01*
X110843571Y-133413571D01*
X110795952Y-133365952D01*
X110748333Y-133270714D01*
X110748333Y-133032619D01*
X110795952Y-132937380D01*
X110843571Y-132889761D01*
X110938809Y-132842142D01*
X111176904Y-132842142D01*
X111272142Y-132889761D01*
X111319761Y-132937380D01*
X111367380Y-133032619D01*
X111367380Y-133270714D01*
X111319761Y-133365952D01*
X111272142Y-133413571D01*
%TO.C,J14*%
X110367380Y-132254523D02*
X111081666Y-132254523D01*
X111224523Y-132302142D01*
X111319761Y-132397380D01*
X111367380Y-132540238D01*
X111367380Y-132635476D01*
X111367380Y-131254523D02*
X111367380Y-131825952D01*
X111367380Y-131540238D02*
X110367380Y-131540238D01*
X110510238Y-131635476D01*
X110605476Y-131730714D01*
X110653095Y-131825952D01*
X110700714Y-130397380D02*
X111367380Y-130397380D01*
X110319761Y-130635476D02*
X111034047Y-130873571D01*
X111034047Y-130254523D01*
%TO.C,J8*%
X83486666Y-93007380D02*
X83486666Y-93721666D01*
X83439047Y-93864523D01*
X83343809Y-93959761D01*
X83200952Y-94007380D01*
X83105714Y-94007380D01*
X84105714Y-93435952D02*
X84010476Y-93388333D01*
X83962857Y-93340714D01*
X83915238Y-93245476D01*
X83915238Y-93197857D01*
X83962857Y-93102619D01*
X84010476Y-93055000D01*
X84105714Y-93007380D01*
X84296190Y-93007380D01*
X84391428Y-93055000D01*
X84439047Y-93102619D01*
X84486666Y-93197857D01*
X84486666Y-93245476D01*
X84439047Y-93340714D01*
X84391428Y-93388333D01*
X84296190Y-93435952D01*
X84105714Y-93435952D01*
X84010476Y-93483571D01*
X83962857Y-93531190D01*
X83915238Y-93626428D01*
X83915238Y-93816904D01*
X83962857Y-93912142D01*
X84010476Y-93959761D01*
X84105714Y-94007380D01*
X84296190Y-94007380D01*
X84391428Y-93959761D01*
X84439047Y-93912142D01*
X84486666Y-93816904D01*
X84486666Y-93626428D01*
X84439047Y-93531190D01*
X84391428Y-93483571D01*
X84296190Y-93435952D01*
%TO.C,J4*%
X69727380Y-147653333D02*
X70441666Y-147653333D01*
X70584523Y-147700952D01*
X70679761Y-147796190D01*
X70727380Y-147939047D01*
X70727380Y-148034285D01*
X70060714Y-146748571D02*
X70727380Y-146748571D01*
X69679761Y-146986666D02*
X70394047Y-147224761D01*
X70394047Y-146605714D01*
%TO.C,C7*%
X53808333Y-138312142D02*
X53760714Y-138359761D01*
X53617857Y-138407380D01*
X53522619Y-138407380D01*
X53379761Y-138359761D01*
X53284523Y-138264523D01*
X53236904Y-138169285D01*
X53189285Y-137978809D01*
X53189285Y-137835952D01*
X53236904Y-137645476D01*
X53284523Y-137550238D01*
X53379761Y-137455000D01*
X53522619Y-137407380D01*
X53617857Y-137407380D01*
X53760714Y-137455000D01*
X53808333Y-137502619D01*
X54141666Y-137407380D02*
X54808333Y-137407380D01*
X54379761Y-138407380D01*
%TO.C,Q1*%
X127372619Y-129635238D02*
X127325000Y-129730476D01*
X127229761Y-129825714D01*
X127086904Y-129968571D01*
X127039285Y-130063809D01*
X127039285Y-130159047D01*
X127277380Y-130111428D02*
X127229761Y-130206666D01*
X127134523Y-130301904D01*
X126944047Y-130349523D01*
X126610714Y-130349523D01*
X126420238Y-130301904D01*
X126325000Y-130206666D01*
X126277380Y-130111428D01*
X126277380Y-129920952D01*
X126325000Y-129825714D01*
X126420238Y-129730476D01*
X126610714Y-129682857D01*
X126944047Y-129682857D01*
X127134523Y-129730476D01*
X127229761Y-129825714D01*
X127277380Y-129920952D01*
X127277380Y-130111428D01*
X127277380Y-128730476D02*
X127277380Y-129301904D01*
X127277380Y-129016190D02*
X126277380Y-129016190D01*
X126420238Y-129111428D01*
X126515476Y-129206666D01*
X126563095Y-129301904D01*
%TO.C,R36*%
X114778615Y-111642246D02*
X114879630Y-111069827D01*
X114374554Y-111238185D02*
X115081661Y-110531079D01*
X115351035Y-110800453D01*
X115384707Y-110901468D01*
X115384707Y-110968811D01*
X115351035Y-111069827D01*
X115250020Y-111170842D01*
X115149004Y-111204514D01*
X115081661Y-111204514D01*
X114980646Y-111170842D01*
X114711272Y-110901468D01*
X115721424Y-111170842D02*
X116159157Y-111608575D01*
X115654081Y-111642246D01*
X115755096Y-111743262D01*
X115788768Y-111844277D01*
X115788768Y-111911621D01*
X115755096Y-112012636D01*
X115586737Y-112180995D01*
X115485722Y-112214666D01*
X115418378Y-112214666D01*
X115317363Y-112180995D01*
X115115333Y-111978964D01*
X115081661Y-111877949D01*
X115081661Y-111810605D01*
X116765249Y-112214666D02*
X116630562Y-112079979D01*
X116529546Y-112046308D01*
X116462203Y-112046308D01*
X116293844Y-112079979D01*
X116125485Y-112180995D01*
X115856111Y-112450369D01*
X115822440Y-112551384D01*
X115822440Y-112618727D01*
X115856111Y-112719743D01*
X115990798Y-112854430D01*
X116091814Y-112888101D01*
X116159157Y-112888101D01*
X116260172Y-112854430D01*
X116428531Y-112686071D01*
X116462203Y-112585056D01*
X116462203Y-112517712D01*
X116428531Y-112416697D01*
X116293844Y-112282010D01*
X116192829Y-112248338D01*
X116125485Y-112248338D01*
X116024470Y-112282010D01*
%TO.C,J18*%
X72072380Y-46529523D02*
X72786666Y-46529523D01*
X72929523Y-46577142D01*
X73024761Y-46672380D01*
X73072380Y-46815238D01*
X73072380Y-46910476D01*
X73072380Y-45529523D02*
X73072380Y-46100952D01*
X73072380Y-45815238D02*
X72072380Y-45815238D01*
X72215238Y-45910476D01*
X72310476Y-46005714D01*
X72358095Y-46100952D01*
X72500952Y-44958095D02*
X72453333Y-45053333D01*
X72405714Y-45100952D01*
X72310476Y-45148571D01*
X72262857Y-45148571D01*
X72167619Y-45100952D01*
X72120000Y-45053333D01*
X72072380Y-44958095D01*
X72072380Y-44767619D01*
X72120000Y-44672380D01*
X72167619Y-44624761D01*
X72262857Y-44577142D01*
X72310476Y-44577142D01*
X72405714Y-44624761D01*
X72453333Y-44672380D01*
X72500952Y-44767619D01*
X72500952Y-44958095D01*
X72548571Y-45053333D01*
X72596190Y-45100952D01*
X72691428Y-45148571D01*
X72881904Y-45148571D01*
X72977142Y-45100952D01*
X73024761Y-45053333D01*
X73072380Y-44958095D01*
X73072380Y-44767619D01*
X73024761Y-44672380D01*
X72977142Y-44624761D01*
X72881904Y-44577142D01*
X72691428Y-44577142D01*
X72596190Y-44624761D01*
X72548571Y-44672380D01*
X72500952Y-44767619D01*
%TO.C,MH1*%
X116776666Y-52522380D02*
X116776666Y-51522380D01*
X117110000Y-52236666D01*
X117443333Y-51522380D01*
X117443333Y-52522380D01*
X117919523Y-52522380D02*
X117919523Y-51522380D01*
X117919523Y-51998571D02*
X118490952Y-51998571D01*
X118490952Y-52522380D02*
X118490952Y-51522380D01*
X119490952Y-52522380D02*
X118919523Y-52522380D01*
X119205238Y-52522380D02*
X119205238Y-51522380D01*
X119110000Y-51665238D01*
X119014761Y-51760476D01*
X118919523Y-51808095D01*
%TO.C,MH4*%
X-7048333Y-52522380D02*
X-7048333Y-51522380D01*
X-6715000Y-52236666D01*
X-6381666Y-51522380D01*
X-6381666Y-52522380D01*
X-5905476Y-52522380D02*
X-5905476Y-51522380D01*
X-5905476Y-51998571D02*
X-5334047Y-51998571D01*
X-5334047Y-52522380D02*
X-5334047Y-51522380D01*
X-4429285Y-51855714D02*
X-4429285Y-52522380D01*
X-4667380Y-51474761D02*
X-4905476Y-52189047D01*
X-4286428Y-52189047D01*
%TO.C,MH2*%
X119926666Y-144842380D02*
X119926666Y-143842380D01*
X120260000Y-144556666D01*
X120593333Y-143842380D01*
X120593333Y-144842380D01*
X121069523Y-144842380D02*
X121069523Y-143842380D01*
X121069523Y-144318571D02*
X121640952Y-144318571D01*
X121640952Y-144842380D02*
X121640952Y-143842380D01*
X122069523Y-143937619D02*
X122117142Y-143890000D01*
X122212380Y-143842380D01*
X122450476Y-143842380D01*
X122545714Y-143890000D01*
X122593333Y-143937619D01*
X122640952Y-144032857D01*
X122640952Y-144128095D01*
X122593333Y-144270952D01*
X122021904Y-144842380D01*
X122640952Y-144842380D01*
%TO.C,MH3*%
X-14693333Y-144842380D02*
X-14693333Y-143842380D01*
X-14360000Y-144556666D01*
X-14026666Y-143842380D01*
X-14026666Y-144842380D01*
X-13550476Y-144842380D02*
X-13550476Y-143842380D01*
X-13550476Y-144318571D02*
X-12979047Y-144318571D01*
X-12979047Y-144842380D02*
X-12979047Y-143842380D01*
X-12598095Y-143842380D02*
X-11979047Y-143842380D01*
X-12312380Y-144223333D01*
X-12169523Y-144223333D01*
X-12074285Y-144270952D01*
X-12026666Y-144318571D01*
X-11979047Y-144413809D01*
X-11979047Y-144651904D01*
X-12026666Y-144747142D01*
X-12074285Y-144794761D01*
X-12169523Y-144842380D01*
X-12455238Y-144842380D01*
X-12550476Y-144794761D01*
X-12598095Y-144747142D01*
%TO.C,J9*%
X15707380Y-51133333D02*
X16421666Y-51133333D01*
X16564523Y-51180952D01*
X16659761Y-51276190D01*
X16707380Y-51419047D01*
X16707380Y-51514285D01*
X16707380Y-50609523D02*
X16707380Y-50419047D01*
X16659761Y-50323809D01*
X16612142Y-50276190D01*
X16469285Y-50180952D01*
X16278809Y-50133333D01*
X15897857Y-50133333D01*
X15802619Y-50180952D01*
X15755000Y-50228571D01*
X15707380Y-50323809D01*
X15707380Y-50514285D01*
X15755000Y-50609523D01*
X15802619Y-50657142D01*
X15897857Y-50704761D01*
X16135952Y-50704761D01*
X16231190Y-50657142D01*
X16278809Y-50609523D01*
X16326428Y-50514285D01*
X16326428Y-50323809D01*
X16278809Y-50228571D01*
X16231190Y-50180952D01*
X16135952Y-50133333D01*
%TO.C,U2*%
X5927380Y-85851904D02*
X6736904Y-85851904D01*
X6832142Y-85804285D01*
X6879761Y-85756666D01*
X6927380Y-85661428D01*
X6927380Y-85470952D01*
X6879761Y-85375714D01*
X6832142Y-85328095D01*
X6736904Y-85280476D01*
X5927380Y-85280476D01*
X6022619Y-84851904D02*
X5975000Y-84804285D01*
X5927380Y-84709047D01*
X5927380Y-84470952D01*
X5975000Y-84375714D01*
X6022619Y-84328095D01*
X6117857Y-84280476D01*
X6213095Y-84280476D01*
X6355952Y-84328095D01*
X6927380Y-84899523D01*
X6927380Y-84280476D01*
%TO.C,U1*%
X63462380Y-81914904D02*
X64271904Y-81914904D01*
X64367142Y-81867285D01*
X64414761Y-81819666D01*
X64462380Y-81724428D01*
X64462380Y-81533952D01*
X64414761Y-81438714D01*
X64367142Y-81391095D01*
X64271904Y-81343476D01*
X63462380Y-81343476D01*
X64462380Y-80343476D02*
X64462380Y-80914904D01*
X64462380Y-80629190D02*
X63462380Y-80629190D01*
X63605238Y-80724428D01*
X63700476Y-80819666D01*
X63748095Y-80914904D01*
%TO.C,J7*%
X-16233333Y-53832380D02*
X-16233333Y-54546666D01*
X-16280952Y-54689523D01*
X-16376190Y-54784761D01*
X-16519047Y-54832380D01*
X-16614285Y-54832380D01*
X-15852380Y-53832380D02*
X-15185714Y-53832380D01*
X-15614285Y-54832380D01*
%TO.C,J5*%
X124736666Y-94472380D02*
X124736666Y-95186666D01*
X124689047Y-95329523D01*
X124593809Y-95424761D01*
X124450952Y-95472380D01*
X124355714Y-95472380D01*
X125689047Y-94472380D02*
X125212857Y-94472380D01*
X125165238Y-94948571D01*
X125212857Y-94900952D01*
X125308095Y-94853333D01*
X125546190Y-94853333D01*
X125641428Y-94900952D01*
X125689047Y-94948571D01*
X125736666Y-95043809D01*
X125736666Y-95281904D01*
X125689047Y-95377142D01*
X125641428Y-95424761D01*
X125546190Y-95472380D01*
X125308095Y-95472380D01*
X125212857Y-95424761D01*
X125165238Y-95377142D01*
%TO.C,J3*%
X124736666Y-81772380D02*
X124736666Y-82486666D01*
X124689047Y-82629523D01*
X124593809Y-82724761D01*
X124450952Y-82772380D01*
X124355714Y-82772380D01*
X125117619Y-81772380D02*
X125736666Y-81772380D01*
X125403333Y-82153333D01*
X125546190Y-82153333D01*
X125641428Y-82200952D01*
X125689047Y-82248571D01*
X125736666Y-82343809D01*
X125736666Y-82581904D01*
X125689047Y-82677142D01*
X125641428Y-82724761D01*
X125546190Y-82772380D01*
X125260476Y-82772380D01*
X125165238Y-82724761D01*
X125117619Y-82677142D01*
%TO.C,J1*%
X59991666Y-108037380D02*
X59991666Y-108751666D01*
X59944047Y-108894523D01*
X59848809Y-108989761D01*
X59705952Y-109037380D01*
X59610714Y-109037380D01*
X60991666Y-109037380D02*
X60420238Y-109037380D01*
X60705952Y-109037380D02*
X60705952Y-108037380D01*
X60610714Y-108180238D01*
X60515476Y-108275476D01*
X60420238Y-108323095D01*
%TO.C,C2*%
X9722142Y-73599166D02*
X9769761Y-73646785D01*
X9817380Y-73789642D01*
X9817380Y-73884880D01*
X9769761Y-74027738D01*
X9674523Y-74122976D01*
X9579285Y-74170595D01*
X9388809Y-74218214D01*
X9245952Y-74218214D01*
X9055476Y-74170595D01*
X8960238Y-74122976D01*
X8865000Y-74027738D01*
X8817380Y-73884880D01*
X8817380Y-73789642D01*
X8865000Y-73646785D01*
X8912619Y-73599166D01*
X8912619Y-73218214D02*
X8865000Y-73170595D01*
X8817380Y-73075357D01*
X8817380Y-72837261D01*
X8865000Y-72742023D01*
X8912619Y-72694404D01*
X9007857Y-72646785D01*
X9103095Y-72646785D01*
X9245952Y-72694404D01*
X9817380Y-73265833D01*
X9817380Y-72646785D01*
%TO.C,C1*%
X61477142Y-92977166D02*
X61524761Y-93024785D01*
X61572380Y-93167642D01*
X61572380Y-93262880D01*
X61524761Y-93405738D01*
X61429523Y-93500976D01*
X61334285Y-93548595D01*
X61143809Y-93596214D01*
X61000952Y-93596214D01*
X60810476Y-93548595D01*
X60715238Y-93500976D01*
X60620000Y-93405738D01*
X60572380Y-93262880D01*
X60572380Y-93167642D01*
X60620000Y-93024785D01*
X60667619Y-92977166D01*
X61572380Y-92024785D02*
X61572380Y-92596214D01*
X61572380Y-92310500D02*
X60572380Y-92310500D01*
X60715238Y-92405738D01*
X60810476Y-92500976D01*
X60858095Y-92596214D01*
%TO.C,R1*%
X41812380Y-60807166D02*
X41336190Y-61140500D01*
X41812380Y-61378595D02*
X40812380Y-61378595D01*
X40812380Y-60997642D01*
X40860000Y-60902404D01*
X40907619Y-60854785D01*
X41002857Y-60807166D01*
X41145714Y-60807166D01*
X41240952Y-60854785D01*
X41288571Y-60902404D01*
X41336190Y-60997642D01*
X41336190Y-61378595D01*
X41812380Y-59854785D02*
X41812380Y-60426214D01*
X41812380Y-60140500D02*
X40812380Y-60140500D01*
X40955238Y-60235738D01*
X41050476Y-60330976D01*
X41098095Y-60426214D01*
%TO.C,R2*%
X43717380Y-67157166D02*
X43241190Y-67490500D01*
X43717380Y-67728595D02*
X42717380Y-67728595D01*
X42717380Y-67347642D01*
X42765000Y-67252404D01*
X42812619Y-67204785D01*
X42907857Y-67157166D01*
X43050714Y-67157166D01*
X43145952Y-67204785D01*
X43193571Y-67252404D01*
X43241190Y-67347642D01*
X43241190Y-67728595D01*
X42812619Y-66776214D02*
X42765000Y-66728595D01*
X42717380Y-66633357D01*
X42717380Y-66395261D01*
X42765000Y-66300023D01*
X42812619Y-66252404D01*
X42907857Y-66204785D01*
X43003095Y-66204785D01*
X43145952Y-66252404D01*
X43717380Y-66823833D01*
X43717380Y-66204785D01*
%TO.C,R3*%
X45622380Y-60807166D02*
X45146190Y-61140500D01*
X45622380Y-61378595D02*
X44622380Y-61378595D01*
X44622380Y-60997642D01*
X44670000Y-60902404D01*
X44717619Y-60854785D01*
X44812857Y-60807166D01*
X44955714Y-60807166D01*
X45050952Y-60854785D01*
X45098571Y-60902404D01*
X45146190Y-60997642D01*
X45146190Y-61378595D01*
X44622380Y-60473833D02*
X44622380Y-59854785D01*
X45003333Y-60188119D01*
X45003333Y-60045261D01*
X45050952Y-59950023D01*
X45098571Y-59902404D01*
X45193809Y-59854785D01*
X45431904Y-59854785D01*
X45527142Y-59902404D01*
X45574761Y-59950023D01*
X45622380Y-60045261D01*
X45622380Y-60330976D01*
X45574761Y-60426214D01*
X45527142Y-60473833D01*
%TO.C,R4*%
X47527380Y-67157166D02*
X47051190Y-67490500D01*
X47527380Y-67728595D02*
X46527380Y-67728595D01*
X46527380Y-67347642D01*
X46575000Y-67252404D01*
X46622619Y-67204785D01*
X46717857Y-67157166D01*
X46860714Y-67157166D01*
X46955952Y-67204785D01*
X47003571Y-67252404D01*
X47051190Y-67347642D01*
X47051190Y-67728595D01*
X46860714Y-66300023D02*
X47527380Y-66300023D01*
X46479761Y-66538119D02*
X47194047Y-66776214D01*
X47194047Y-66157166D01*
%TO.C,R5*%
X49432380Y-60807166D02*
X48956190Y-61140500D01*
X49432380Y-61378595D02*
X48432380Y-61378595D01*
X48432380Y-60997642D01*
X48480000Y-60902404D01*
X48527619Y-60854785D01*
X48622857Y-60807166D01*
X48765714Y-60807166D01*
X48860952Y-60854785D01*
X48908571Y-60902404D01*
X48956190Y-60997642D01*
X48956190Y-61378595D01*
X48432380Y-59902404D02*
X48432380Y-60378595D01*
X48908571Y-60426214D01*
X48860952Y-60378595D01*
X48813333Y-60283357D01*
X48813333Y-60045261D01*
X48860952Y-59950023D01*
X48908571Y-59902404D01*
X49003809Y-59854785D01*
X49241904Y-59854785D01*
X49337142Y-59902404D01*
X49384761Y-59950023D01*
X49432380Y-60045261D01*
X49432380Y-60283357D01*
X49384761Y-60378595D01*
X49337142Y-60426214D01*
%TO.C,R6*%
X51337380Y-67157166D02*
X50861190Y-67490500D01*
X51337380Y-67728595D02*
X50337380Y-67728595D01*
X50337380Y-67347642D01*
X50385000Y-67252404D01*
X50432619Y-67204785D01*
X50527857Y-67157166D01*
X50670714Y-67157166D01*
X50765952Y-67204785D01*
X50813571Y-67252404D01*
X50861190Y-67347642D01*
X50861190Y-67728595D01*
X50337380Y-66300023D02*
X50337380Y-66490500D01*
X50385000Y-66585738D01*
X50432619Y-66633357D01*
X50575476Y-66728595D01*
X50765952Y-66776214D01*
X51146904Y-66776214D01*
X51242142Y-66728595D01*
X51289761Y-66680976D01*
X51337380Y-66585738D01*
X51337380Y-66395261D01*
X51289761Y-66300023D01*
X51242142Y-66252404D01*
X51146904Y-66204785D01*
X50908809Y-66204785D01*
X50813571Y-66252404D01*
X50765952Y-66300023D01*
X50718333Y-66395261D01*
X50718333Y-66585738D01*
X50765952Y-66680976D01*
X50813571Y-66728595D01*
X50908809Y-66776214D01*
%TO.C,R7*%
X54512380Y-60807166D02*
X54036190Y-61140500D01*
X54512380Y-61378595D02*
X53512380Y-61378595D01*
X53512380Y-60997642D01*
X53560000Y-60902404D01*
X53607619Y-60854785D01*
X53702857Y-60807166D01*
X53845714Y-60807166D01*
X53940952Y-60854785D01*
X53988571Y-60902404D01*
X54036190Y-60997642D01*
X54036190Y-61378595D01*
X53512380Y-60473833D02*
X53512380Y-59807166D01*
X54512380Y-60235738D01*
%TO.C,R8*%
X56417380Y-67157166D02*
X55941190Y-67490500D01*
X56417380Y-67728595D02*
X55417380Y-67728595D01*
X55417380Y-67347642D01*
X55465000Y-67252404D01*
X55512619Y-67204785D01*
X55607857Y-67157166D01*
X55750714Y-67157166D01*
X55845952Y-67204785D01*
X55893571Y-67252404D01*
X55941190Y-67347642D01*
X55941190Y-67728595D01*
X55845952Y-66585738D02*
X55798333Y-66680976D01*
X55750714Y-66728595D01*
X55655476Y-66776214D01*
X55607857Y-66776214D01*
X55512619Y-66728595D01*
X55465000Y-66680976D01*
X55417380Y-66585738D01*
X55417380Y-66395261D01*
X55465000Y-66300023D01*
X55512619Y-66252404D01*
X55607857Y-66204785D01*
X55655476Y-66204785D01*
X55750714Y-66252404D01*
X55798333Y-66300023D01*
X55845952Y-66395261D01*
X55845952Y-66585738D01*
X55893571Y-66680976D01*
X55941190Y-66728595D01*
X56036428Y-66776214D01*
X56226904Y-66776214D01*
X56322142Y-66728595D01*
X56369761Y-66680976D01*
X56417380Y-66585738D01*
X56417380Y-66395261D01*
X56369761Y-66300023D01*
X56322142Y-66252404D01*
X56226904Y-66204785D01*
X56036428Y-66204785D01*
X55941190Y-66252404D01*
X55893571Y-66300023D01*
X55845952Y-66395261D01*
%TO.C,R9*%
X58322380Y-60807166D02*
X57846190Y-61140500D01*
X58322380Y-61378595D02*
X57322380Y-61378595D01*
X57322380Y-60997642D01*
X57370000Y-60902404D01*
X57417619Y-60854785D01*
X57512857Y-60807166D01*
X57655714Y-60807166D01*
X57750952Y-60854785D01*
X57798571Y-60902404D01*
X57846190Y-60997642D01*
X57846190Y-61378595D01*
X58322380Y-60330976D02*
X58322380Y-60140500D01*
X58274761Y-60045261D01*
X58227142Y-59997642D01*
X58084285Y-59902404D01*
X57893809Y-59854785D01*
X57512857Y-59854785D01*
X57417619Y-59902404D01*
X57370000Y-59950023D01*
X57322380Y-60045261D01*
X57322380Y-60235738D01*
X57370000Y-60330976D01*
X57417619Y-60378595D01*
X57512857Y-60426214D01*
X57750952Y-60426214D01*
X57846190Y-60378595D01*
X57893809Y-60330976D01*
X57941428Y-60235738D01*
X57941428Y-60045261D01*
X57893809Y-59950023D01*
X57846190Y-59902404D01*
X57750952Y-59854785D01*
%TO.C,R10*%
X60227380Y-67633357D02*
X59751190Y-67966690D01*
X60227380Y-68204785D02*
X59227380Y-68204785D01*
X59227380Y-67823833D01*
X59275000Y-67728595D01*
X59322619Y-67680976D01*
X59417857Y-67633357D01*
X59560714Y-67633357D01*
X59655952Y-67680976D01*
X59703571Y-67728595D01*
X59751190Y-67823833D01*
X59751190Y-68204785D01*
X60227380Y-66680976D02*
X60227380Y-67252404D01*
X60227380Y-66966690D02*
X59227380Y-66966690D01*
X59370238Y-67061928D01*
X59465476Y-67157166D01*
X59513095Y-67252404D01*
X59227380Y-66061928D02*
X59227380Y-65966690D01*
X59275000Y-65871452D01*
X59322619Y-65823833D01*
X59417857Y-65776214D01*
X59608333Y-65728595D01*
X59846428Y-65728595D01*
X60036904Y-65776214D01*
X60132142Y-65823833D01*
X60179761Y-65871452D01*
X60227380Y-65966690D01*
X60227380Y-66061928D01*
X60179761Y-66157166D01*
X60132142Y-66204785D01*
X60036904Y-66252404D01*
X59846428Y-66300023D01*
X59608333Y-66300023D01*
X59417857Y-66252404D01*
X59322619Y-66204785D01*
X59275000Y-66157166D01*
X59227380Y-66061928D01*
%TO.C,R11*%
X62132380Y-61283357D02*
X61656190Y-61616690D01*
X62132380Y-61854785D02*
X61132380Y-61854785D01*
X61132380Y-61473833D01*
X61180000Y-61378595D01*
X61227619Y-61330976D01*
X61322857Y-61283357D01*
X61465714Y-61283357D01*
X61560952Y-61330976D01*
X61608571Y-61378595D01*
X61656190Y-61473833D01*
X61656190Y-61854785D01*
X62132380Y-60330976D02*
X62132380Y-60902404D01*
X62132380Y-60616690D02*
X61132380Y-60616690D01*
X61275238Y-60711928D01*
X61370476Y-60807166D01*
X61418095Y-60902404D01*
X62132380Y-59378595D02*
X62132380Y-59950023D01*
X62132380Y-59664309D02*
X61132380Y-59664309D01*
X61275238Y-59759547D01*
X61370476Y-59854785D01*
X61418095Y-59950023D01*
%TO.C,R12*%
X64037380Y-67633357D02*
X63561190Y-67966690D01*
X64037380Y-68204785D02*
X63037380Y-68204785D01*
X63037380Y-67823833D01*
X63085000Y-67728595D01*
X63132619Y-67680976D01*
X63227857Y-67633357D01*
X63370714Y-67633357D01*
X63465952Y-67680976D01*
X63513571Y-67728595D01*
X63561190Y-67823833D01*
X63561190Y-68204785D01*
X64037380Y-66680976D02*
X64037380Y-67252404D01*
X64037380Y-66966690D02*
X63037380Y-66966690D01*
X63180238Y-67061928D01*
X63275476Y-67157166D01*
X63323095Y-67252404D01*
X63132619Y-66300023D02*
X63085000Y-66252404D01*
X63037380Y-66157166D01*
X63037380Y-65919071D01*
X63085000Y-65823833D01*
X63132619Y-65776214D01*
X63227857Y-65728595D01*
X63323095Y-65728595D01*
X63465952Y-65776214D01*
X64037380Y-66347642D01*
X64037380Y-65728595D01*
%TO.C,R13*%
X68764642Y-70895380D02*
X68431309Y-70419190D01*
X68193214Y-70895380D02*
X68193214Y-69895380D01*
X68574166Y-69895380D01*
X68669404Y-69943000D01*
X68717023Y-69990619D01*
X68764642Y-70085857D01*
X68764642Y-70228714D01*
X68717023Y-70323952D01*
X68669404Y-70371571D01*
X68574166Y-70419190D01*
X68193214Y-70419190D01*
X69717023Y-70895380D02*
X69145595Y-70895380D01*
X69431309Y-70895380D02*
X69431309Y-69895380D01*
X69336071Y-70038238D01*
X69240833Y-70133476D01*
X69145595Y-70181095D01*
X70050357Y-69895380D02*
X70669404Y-69895380D01*
X70336071Y-70276333D01*
X70478928Y-70276333D01*
X70574166Y-70323952D01*
X70621785Y-70371571D01*
X70669404Y-70466809D01*
X70669404Y-70704904D01*
X70621785Y-70800142D01*
X70574166Y-70847761D01*
X70478928Y-70895380D01*
X70193214Y-70895380D01*
X70097976Y-70847761D01*
X70050357Y-70800142D01*
%TO.C,R14*%
X68764642Y-73435380D02*
X68431309Y-72959190D01*
X68193214Y-73435380D02*
X68193214Y-72435380D01*
X68574166Y-72435380D01*
X68669404Y-72483000D01*
X68717023Y-72530619D01*
X68764642Y-72625857D01*
X68764642Y-72768714D01*
X68717023Y-72863952D01*
X68669404Y-72911571D01*
X68574166Y-72959190D01*
X68193214Y-72959190D01*
X69717023Y-73435380D02*
X69145595Y-73435380D01*
X69431309Y-73435380D02*
X69431309Y-72435380D01*
X69336071Y-72578238D01*
X69240833Y-72673476D01*
X69145595Y-72721095D01*
X70574166Y-72768714D02*
X70574166Y-73435380D01*
X70336071Y-72387761D02*
X70097976Y-73102047D01*
X70717023Y-73102047D01*
%TO.C,R15*%
X68764642Y-75975380D02*
X68431309Y-75499190D01*
X68193214Y-75975380D02*
X68193214Y-74975380D01*
X68574166Y-74975380D01*
X68669404Y-75023000D01*
X68717023Y-75070619D01*
X68764642Y-75165857D01*
X68764642Y-75308714D01*
X68717023Y-75403952D01*
X68669404Y-75451571D01*
X68574166Y-75499190D01*
X68193214Y-75499190D01*
X69717023Y-75975380D02*
X69145595Y-75975380D01*
X69431309Y-75975380D02*
X69431309Y-74975380D01*
X69336071Y-75118238D01*
X69240833Y-75213476D01*
X69145595Y-75261095D01*
X70621785Y-74975380D02*
X70145595Y-74975380D01*
X70097976Y-75451571D01*
X70145595Y-75403952D01*
X70240833Y-75356333D01*
X70478928Y-75356333D01*
X70574166Y-75403952D01*
X70621785Y-75451571D01*
X70669404Y-75546809D01*
X70669404Y-75784904D01*
X70621785Y-75880142D01*
X70574166Y-75927761D01*
X70478928Y-75975380D01*
X70240833Y-75975380D01*
X70145595Y-75927761D01*
X70097976Y-75880142D01*
%TO.C,R16*%
X68764642Y-78515380D02*
X68431309Y-78039190D01*
X68193214Y-78515380D02*
X68193214Y-77515380D01*
X68574166Y-77515380D01*
X68669404Y-77563000D01*
X68717023Y-77610619D01*
X68764642Y-77705857D01*
X68764642Y-77848714D01*
X68717023Y-77943952D01*
X68669404Y-77991571D01*
X68574166Y-78039190D01*
X68193214Y-78039190D01*
X69717023Y-78515380D02*
X69145595Y-78515380D01*
X69431309Y-78515380D02*
X69431309Y-77515380D01*
X69336071Y-77658238D01*
X69240833Y-77753476D01*
X69145595Y-77801095D01*
X70574166Y-77515380D02*
X70383690Y-77515380D01*
X70288452Y-77563000D01*
X70240833Y-77610619D01*
X70145595Y-77753476D01*
X70097976Y-77943952D01*
X70097976Y-78324904D01*
X70145595Y-78420142D01*
X70193214Y-78467761D01*
X70288452Y-78515380D01*
X70478928Y-78515380D01*
X70574166Y-78467761D01*
X70621785Y-78420142D01*
X70669404Y-78324904D01*
X70669404Y-78086809D01*
X70621785Y-77991571D01*
X70574166Y-77943952D01*
X70478928Y-77896333D01*
X70288452Y-77896333D01*
X70193214Y-77943952D01*
X70145595Y-77991571D01*
X70097976Y-78086809D01*
%TO.C,R17*%
X68764642Y-81055380D02*
X68431309Y-80579190D01*
X68193214Y-81055380D02*
X68193214Y-80055380D01*
X68574166Y-80055380D01*
X68669404Y-80103000D01*
X68717023Y-80150619D01*
X68764642Y-80245857D01*
X68764642Y-80388714D01*
X68717023Y-80483952D01*
X68669404Y-80531571D01*
X68574166Y-80579190D01*
X68193214Y-80579190D01*
X69717023Y-81055380D02*
X69145595Y-81055380D01*
X69431309Y-81055380D02*
X69431309Y-80055380D01*
X69336071Y-80198238D01*
X69240833Y-80293476D01*
X69145595Y-80341095D01*
X70050357Y-80055380D02*
X70717023Y-80055380D01*
X70288452Y-81055380D01*
%TO.C,R18*%
X30212380Y-106245357D02*
X29736190Y-106578690D01*
X30212380Y-106816785D02*
X29212380Y-106816785D01*
X29212380Y-106435833D01*
X29260000Y-106340595D01*
X29307619Y-106292976D01*
X29402857Y-106245357D01*
X29545714Y-106245357D01*
X29640952Y-106292976D01*
X29688571Y-106340595D01*
X29736190Y-106435833D01*
X29736190Y-106816785D01*
X30212380Y-105292976D02*
X30212380Y-105864404D01*
X30212380Y-105578690D02*
X29212380Y-105578690D01*
X29355238Y-105673928D01*
X29450476Y-105769166D01*
X29498095Y-105864404D01*
X29640952Y-104721547D02*
X29593333Y-104816785D01*
X29545714Y-104864404D01*
X29450476Y-104912023D01*
X29402857Y-104912023D01*
X29307619Y-104864404D01*
X29260000Y-104816785D01*
X29212380Y-104721547D01*
X29212380Y-104531071D01*
X29260000Y-104435833D01*
X29307619Y-104388214D01*
X29402857Y-104340595D01*
X29450476Y-104340595D01*
X29545714Y-104388214D01*
X29593333Y-104435833D01*
X29640952Y-104531071D01*
X29640952Y-104721547D01*
X29688571Y-104816785D01*
X29736190Y-104864404D01*
X29831428Y-104912023D01*
X30021904Y-104912023D01*
X30117142Y-104864404D01*
X30164761Y-104816785D01*
X30212380Y-104721547D01*
X30212380Y-104531071D01*
X30164761Y-104435833D01*
X30117142Y-104388214D01*
X30021904Y-104340595D01*
X29831428Y-104340595D01*
X29736190Y-104388214D01*
X29688571Y-104435833D01*
X29640952Y-104531071D01*
%TO.C,R19*%
X28307380Y-99895357D02*
X27831190Y-100228690D01*
X28307380Y-100466785D02*
X27307380Y-100466785D01*
X27307380Y-100085833D01*
X27355000Y-99990595D01*
X27402619Y-99942976D01*
X27497857Y-99895357D01*
X27640714Y-99895357D01*
X27735952Y-99942976D01*
X27783571Y-99990595D01*
X27831190Y-100085833D01*
X27831190Y-100466785D01*
X28307380Y-98942976D02*
X28307380Y-99514404D01*
X28307380Y-99228690D02*
X27307380Y-99228690D01*
X27450238Y-99323928D01*
X27545476Y-99419166D01*
X27593095Y-99514404D01*
X28307380Y-98466785D02*
X28307380Y-98276309D01*
X28259761Y-98181071D01*
X28212142Y-98133452D01*
X28069285Y-98038214D01*
X27878809Y-97990595D01*
X27497857Y-97990595D01*
X27402619Y-98038214D01*
X27355000Y-98085833D01*
X27307380Y-98181071D01*
X27307380Y-98371547D01*
X27355000Y-98466785D01*
X27402619Y-98514404D01*
X27497857Y-98562023D01*
X27735952Y-98562023D01*
X27831190Y-98514404D01*
X27878809Y-98466785D01*
X27926428Y-98371547D01*
X27926428Y-98181071D01*
X27878809Y-98085833D01*
X27831190Y-98038214D01*
X27735952Y-97990595D01*
%TO.C,R20*%
X26402380Y-106245357D02*
X25926190Y-106578690D01*
X26402380Y-106816785D02*
X25402380Y-106816785D01*
X25402380Y-106435833D01*
X25450000Y-106340595D01*
X25497619Y-106292976D01*
X25592857Y-106245357D01*
X25735714Y-106245357D01*
X25830952Y-106292976D01*
X25878571Y-106340595D01*
X25926190Y-106435833D01*
X25926190Y-106816785D01*
X25497619Y-105864404D02*
X25450000Y-105816785D01*
X25402380Y-105721547D01*
X25402380Y-105483452D01*
X25450000Y-105388214D01*
X25497619Y-105340595D01*
X25592857Y-105292976D01*
X25688095Y-105292976D01*
X25830952Y-105340595D01*
X26402380Y-105912023D01*
X26402380Y-105292976D01*
X25402380Y-104673928D02*
X25402380Y-104578690D01*
X25450000Y-104483452D01*
X25497619Y-104435833D01*
X25592857Y-104388214D01*
X25783333Y-104340595D01*
X26021428Y-104340595D01*
X26211904Y-104388214D01*
X26307142Y-104435833D01*
X26354761Y-104483452D01*
X26402380Y-104578690D01*
X26402380Y-104673928D01*
X26354761Y-104769166D01*
X26307142Y-104816785D01*
X26211904Y-104864404D01*
X26021428Y-104912023D01*
X25783333Y-104912023D01*
X25592857Y-104864404D01*
X25497619Y-104816785D01*
X25450000Y-104769166D01*
X25402380Y-104673928D01*
%TO.C,R21*%
X24497380Y-99895357D02*
X24021190Y-100228690D01*
X24497380Y-100466785D02*
X23497380Y-100466785D01*
X23497380Y-100085833D01*
X23545000Y-99990595D01*
X23592619Y-99942976D01*
X23687857Y-99895357D01*
X23830714Y-99895357D01*
X23925952Y-99942976D01*
X23973571Y-99990595D01*
X24021190Y-100085833D01*
X24021190Y-100466785D01*
X23592619Y-99514404D02*
X23545000Y-99466785D01*
X23497380Y-99371547D01*
X23497380Y-99133452D01*
X23545000Y-99038214D01*
X23592619Y-98990595D01*
X23687857Y-98942976D01*
X23783095Y-98942976D01*
X23925952Y-98990595D01*
X24497380Y-99562023D01*
X24497380Y-98942976D01*
X24497380Y-97990595D02*
X24497380Y-98562023D01*
X24497380Y-98276309D02*
X23497380Y-98276309D01*
X23640238Y-98371547D01*
X23735476Y-98466785D01*
X23783095Y-98562023D01*
%TO.C,R22*%
X22592380Y-106245357D02*
X22116190Y-106578690D01*
X22592380Y-106816785D02*
X21592380Y-106816785D01*
X21592380Y-106435833D01*
X21640000Y-106340595D01*
X21687619Y-106292976D01*
X21782857Y-106245357D01*
X21925714Y-106245357D01*
X22020952Y-106292976D01*
X22068571Y-106340595D01*
X22116190Y-106435833D01*
X22116190Y-106816785D01*
X21687619Y-105864404D02*
X21640000Y-105816785D01*
X21592380Y-105721547D01*
X21592380Y-105483452D01*
X21640000Y-105388214D01*
X21687619Y-105340595D01*
X21782857Y-105292976D01*
X21878095Y-105292976D01*
X22020952Y-105340595D01*
X22592380Y-105912023D01*
X22592380Y-105292976D01*
X21687619Y-104912023D02*
X21640000Y-104864404D01*
X21592380Y-104769166D01*
X21592380Y-104531071D01*
X21640000Y-104435833D01*
X21687619Y-104388214D01*
X21782857Y-104340595D01*
X21878095Y-104340595D01*
X22020952Y-104388214D01*
X22592380Y-104959642D01*
X22592380Y-104340595D01*
%TO.C,R23*%
X20687380Y-99895357D02*
X20211190Y-100228690D01*
X20687380Y-100466785D02*
X19687380Y-100466785D01*
X19687380Y-100085833D01*
X19735000Y-99990595D01*
X19782619Y-99942976D01*
X19877857Y-99895357D01*
X20020714Y-99895357D01*
X20115952Y-99942976D01*
X20163571Y-99990595D01*
X20211190Y-100085833D01*
X20211190Y-100466785D01*
X19782619Y-99514404D02*
X19735000Y-99466785D01*
X19687380Y-99371547D01*
X19687380Y-99133452D01*
X19735000Y-99038214D01*
X19782619Y-98990595D01*
X19877857Y-98942976D01*
X19973095Y-98942976D01*
X20115952Y-98990595D01*
X20687380Y-99562023D01*
X20687380Y-98942976D01*
X19687380Y-98609642D02*
X19687380Y-97990595D01*
X20068333Y-98323928D01*
X20068333Y-98181071D01*
X20115952Y-98085833D01*
X20163571Y-98038214D01*
X20258809Y-97990595D01*
X20496904Y-97990595D01*
X20592142Y-98038214D01*
X20639761Y-98085833D01*
X20687380Y-98181071D01*
X20687380Y-98466785D01*
X20639761Y-98562023D01*
X20592142Y-98609642D01*
%TO.C,R24*%
X17512380Y-106245357D02*
X17036190Y-106578690D01*
X17512380Y-106816785D02*
X16512380Y-106816785D01*
X16512380Y-106435833D01*
X16560000Y-106340595D01*
X16607619Y-106292976D01*
X16702857Y-106245357D01*
X16845714Y-106245357D01*
X16940952Y-106292976D01*
X16988571Y-106340595D01*
X17036190Y-106435833D01*
X17036190Y-106816785D01*
X16607619Y-105864404D02*
X16560000Y-105816785D01*
X16512380Y-105721547D01*
X16512380Y-105483452D01*
X16560000Y-105388214D01*
X16607619Y-105340595D01*
X16702857Y-105292976D01*
X16798095Y-105292976D01*
X16940952Y-105340595D01*
X17512380Y-105912023D01*
X17512380Y-105292976D01*
X16845714Y-104435833D02*
X17512380Y-104435833D01*
X16464761Y-104673928D02*
X17179047Y-104912023D01*
X17179047Y-104292976D01*
%TO.C,R25*%
X15607380Y-99895357D02*
X15131190Y-100228690D01*
X15607380Y-100466785D02*
X14607380Y-100466785D01*
X14607380Y-100085833D01*
X14655000Y-99990595D01*
X14702619Y-99942976D01*
X14797857Y-99895357D01*
X14940714Y-99895357D01*
X15035952Y-99942976D01*
X15083571Y-99990595D01*
X15131190Y-100085833D01*
X15131190Y-100466785D01*
X14702619Y-99514404D02*
X14655000Y-99466785D01*
X14607380Y-99371547D01*
X14607380Y-99133452D01*
X14655000Y-99038214D01*
X14702619Y-98990595D01*
X14797857Y-98942976D01*
X14893095Y-98942976D01*
X15035952Y-98990595D01*
X15607380Y-99562023D01*
X15607380Y-98942976D01*
X14607380Y-98038214D02*
X14607380Y-98514404D01*
X15083571Y-98562023D01*
X15035952Y-98514404D01*
X14988333Y-98419166D01*
X14988333Y-98181071D01*
X15035952Y-98085833D01*
X15083571Y-98038214D01*
X15178809Y-97990595D01*
X15416904Y-97990595D01*
X15512142Y-98038214D01*
X15559761Y-98085833D01*
X15607380Y-98181071D01*
X15607380Y-98419166D01*
X15559761Y-98514404D01*
X15512142Y-98562023D01*
%TO.C,R26*%
X13702380Y-106245357D02*
X13226190Y-106578690D01*
X13702380Y-106816785D02*
X12702380Y-106816785D01*
X12702380Y-106435833D01*
X12750000Y-106340595D01*
X12797619Y-106292976D01*
X12892857Y-106245357D01*
X13035714Y-106245357D01*
X13130952Y-106292976D01*
X13178571Y-106340595D01*
X13226190Y-106435833D01*
X13226190Y-106816785D01*
X12797619Y-105864404D02*
X12750000Y-105816785D01*
X12702380Y-105721547D01*
X12702380Y-105483452D01*
X12750000Y-105388214D01*
X12797619Y-105340595D01*
X12892857Y-105292976D01*
X12988095Y-105292976D01*
X13130952Y-105340595D01*
X13702380Y-105912023D01*
X13702380Y-105292976D01*
X12702380Y-104435833D02*
X12702380Y-104626309D01*
X12750000Y-104721547D01*
X12797619Y-104769166D01*
X12940476Y-104864404D01*
X13130952Y-104912023D01*
X13511904Y-104912023D01*
X13607142Y-104864404D01*
X13654761Y-104816785D01*
X13702380Y-104721547D01*
X13702380Y-104531071D01*
X13654761Y-104435833D01*
X13607142Y-104388214D01*
X13511904Y-104340595D01*
X13273809Y-104340595D01*
X13178571Y-104388214D01*
X13130952Y-104435833D01*
X13083333Y-104531071D01*
X13083333Y-104721547D01*
X13130952Y-104816785D01*
X13178571Y-104864404D01*
X13273809Y-104912023D01*
%TO.C,R27*%
X11797380Y-99895357D02*
X11321190Y-100228690D01*
X11797380Y-100466785D02*
X10797380Y-100466785D01*
X10797380Y-100085833D01*
X10845000Y-99990595D01*
X10892619Y-99942976D01*
X10987857Y-99895357D01*
X11130714Y-99895357D01*
X11225952Y-99942976D01*
X11273571Y-99990595D01*
X11321190Y-100085833D01*
X11321190Y-100466785D01*
X10892619Y-99514404D02*
X10845000Y-99466785D01*
X10797380Y-99371547D01*
X10797380Y-99133452D01*
X10845000Y-99038214D01*
X10892619Y-98990595D01*
X10987857Y-98942976D01*
X11083095Y-98942976D01*
X11225952Y-98990595D01*
X11797380Y-99562023D01*
X11797380Y-98942976D01*
X10797380Y-98609642D02*
X10797380Y-97942976D01*
X11797380Y-98371547D01*
%TO.C,R28*%
X9892380Y-106245357D02*
X9416190Y-106578690D01*
X9892380Y-106816785D02*
X8892380Y-106816785D01*
X8892380Y-106435833D01*
X8940000Y-106340595D01*
X8987619Y-106292976D01*
X9082857Y-106245357D01*
X9225714Y-106245357D01*
X9320952Y-106292976D01*
X9368571Y-106340595D01*
X9416190Y-106435833D01*
X9416190Y-106816785D01*
X8987619Y-105864404D02*
X8940000Y-105816785D01*
X8892380Y-105721547D01*
X8892380Y-105483452D01*
X8940000Y-105388214D01*
X8987619Y-105340595D01*
X9082857Y-105292976D01*
X9178095Y-105292976D01*
X9320952Y-105340595D01*
X9892380Y-105912023D01*
X9892380Y-105292976D01*
X9320952Y-104721547D02*
X9273333Y-104816785D01*
X9225714Y-104864404D01*
X9130476Y-104912023D01*
X9082857Y-104912023D01*
X8987619Y-104864404D01*
X8940000Y-104816785D01*
X8892380Y-104721547D01*
X8892380Y-104531071D01*
X8940000Y-104435833D01*
X8987619Y-104388214D01*
X9082857Y-104340595D01*
X9130476Y-104340595D01*
X9225714Y-104388214D01*
X9273333Y-104435833D01*
X9320952Y-104531071D01*
X9320952Y-104721547D01*
X9368571Y-104816785D01*
X9416190Y-104864404D01*
X9511428Y-104912023D01*
X9701904Y-104912023D01*
X9797142Y-104864404D01*
X9844761Y-104816785D01*
X9892380Y-104721547D01*
X9892380Y-104531071D01*
X9844761Y-104435833D01*
X9797142Y-104388214D01*
X9701904Y-104340595D01*
X9511428Y-104340595D01*
X9416190Y-104388214D01*
X9368571Y-104435833D01*
X9320952Y-104531071D01*
%TO.C,R29*%
X7987380Y-99895357D02*
X7511190Y-100228690D01*
X7987380Y-100466785D02*
X6987380Y-100466785D01*
X6987380Y-100085833D01*
X7035000Y-99990595D01*
X7082619Y-99942976D01*
X7177857Y-99895357D01*
X7320714Y-99895357D01*
X7415952Y-99942976D01*
X7463571Y-99990595D01*
X7511190Y-100085833D01*
X7511190Y-100466785D01*
X7082619Y-99514404D02*
X7035000Y-99466785D01*
X6987380Y-99371547D01*
X6987380Y-99133452D01*
X7035000Y-99038214D01*
X7082619Y-98990595D01*
X7177857Y-98942976D01*
X7273095Y-98942976D01*
X7415952Y-98990595D01*
X7987380Y-99562023D01*
X7987380Y-98942976D01*
X7987380Y-98466785D02*
X7987380Y-98276309D01*
X7939761Y-98181071D01*
X7892142Y-98133452D01*
X7749285Y-98038214D01*
X7558809Y-97990595D01*
X7177857Y-97990595D01*
X7082619Y-98038214D01*
X7035000Y-98085833D01*
X6987380Y-98181071D01*
X6987380Y-98371547D01*
X7035000Y-98466785D01*
X7082619Y-98514404D01*
X7177857Y-98562023D01*
X7415952Y-98562023D01*
X7511190Y-98514404D01*
X7558809Y-98466785D01*
X7606428Y-98371547D01*
X7606428Y-98181071D01*
X7558809Y-98085833D01*
X7511190Y-98038214D01*
X7415952Y-97990595D01*
%TO.C,R30*%
X1704642Y-95617380D02*
X1371309Y-95141190D01*
X1133214Y-95617380D02*
X1133214Y-94617380D01*
X1514166Y-94617380D01*
X1609404Y-94665000D01*
X1657023Y-94712619D01*
X1704642Y-94807857D01*
X1704642Y-94950714D01*
X1657023Y-95045952D01*
X1609404Y-95093571D01*
X1514166Y-95141190D01*
X1133214Y-95141190D01*
X2037976Y-94617380D02*
X2657023Y-94617380D01*
X2323690Y-94998333D01*
X2466547Y-94998333D01*
X2561785Y-95045952D01*
X2609404Y-95093571D01*
X2657023Y-95188809D01*
X2657023Y-95426904D01*
X2609404Y-95522142D01*
X2561785Y-95569761D01*
X2466547Y-95617380D01*
X2180833Y-95617380D01*
X2085595Y-95569761D01*
X2037976Y-95522142D01*
X3276071Y-94617380D02*
X3371309Y-94617380D01*
X3466547Y-94665000D01*
X3514166Y-94712619D01*
X3561785Y-94807857D01*
X3609404Y-94998333D01*
X3609404Y-95236428D01*
X3561785Y-95426904D01*
X3514166Y-95522142D01*
X3466547Y-95569761D01*
X3371309Y-95617380D01*
X3276071Y-95617380D01*
X3180833Y-95569761D01*
X3133214Y-95522142D01*
X3085595Y-95426904D01*
X3037976Y-95236428D01*
X3037976Y-94998333D01*
X3085595Y-94807857D01*
X3133214Y-94712619D01*
X3180833Y-94665000D01*
X3276071Y-94617380D01*
%TO.C,R31*%
X1704642Y-93077380D02*
X1371309Y-92601190D01*
X1133214Y-93077380D02*
X1133214Y-92077380D01*
X1514166Y-92077380D01*
X1609404Y-92125000D01*
X1657023Y-92172619D01*
X1704642Y-92267857D01*
X1704642Y-92410714D01*
X1657023Y-92505952D01*
X1609404Y-92553571D01*
X1514166Y-92601190D01*
X1133214Y-92601190D01*
X2037976Y-92077380D02*
X2657023Y-92077380D01*
X2323690Y-92458333D01*
X2466547Y-92458333D01*
X2561785Y-92505952D01*
X2609404Y-92553571D01*
X2657023Y-92648809D01*
X2657023Y-92886904D01*
X2609404Y-92982142D01*
X2561785Y-93029761D01*
X2466547Y-93077380D01*
X2180833Y-93077380D01*
X2085595Y-93029761D01*
X2037976Y-92982142D01*
X3609404Y-93077380D02*
X3037976Y-93077380D01*
X3323690Y-93077380D02*
X3323690Y-92077380D01*
X3228452Y-92220238D01*
X3133214Y-92315476D01*
X3037976Y-92363095D01*
%TO.C,R32*%
X1704642Y-90537380D02*
X1371309Y-90061190D01*
X1133214Y-90537380D02*
X1133214Y-89537380D01*
X1514166Y-89537380D01*
X1609404Y-89585000D01*
X1657023Y-89632619D01*
X1704642Y-89727857D01*
X1704642Y-89870714D01*
X1657023Y-89965952D01*
X1609404Y-90013571D01*
X1514166Y-90061190D01*
X1133214Y-90061190D01*
X2037976Y-89537380D02*
X2657023Y-89537380D01*
X2323690Y-89918333D01*
X2466547Y-89918333D01*
X2561785Y-89965952D01*
X2609404Y-90013571D01*
X2657023Y-90108809D01*
X2657023Y-90346904D01*
X2609404Y-90442142D01*
X2561785Y-90489761D01*
X2466547Y-90537380D01*
X2180833Y-90537380D01*
X2085595Y-90489761D01*
X2037976Y-90442142D01*
X3037976Y-89632619D02*
X3085595Y-89585000D01*
X3180833Y-89537380D01*
X3418928Y-89537380D01*
X3514166Y-89585000D01*
X3561785Y-89632619D01*
X3609404Y-89727857D01*
X3609404Y-89823095D01*
X3561785Y-89965952D01*
X2990357Y-90537380D01*
X3609404Y-90537380D01*
%TO.C,R33*%
X1704642Y-87997380D02*
X1371309Y-87521190D01*
X1133214Y-87997380D02*
X1133214Y-86997380D01*
X1514166Y-86997380D01*
X1609404Y-87045000D01*
X1657023Y-87092619D01*
X1704642Y-87187857D01*
X1704642Y-87330714D01*
X1657023Y-87425952D01*
X1609404Y-87473571D01*
X1514166Y-87521190D01*
X1133214Y-87521190D01*
X2037976Y-86997380D02*
X2657023Y-86997380D01*
X2323690Y-87378333D01*
X2466547Y-87378333D01*
X2561785Y-87425952D01*
X2609404Y-87473571D01*
X2657023Y-87568809D01*
X2657023Y-87806904D01*
X2609404Y-87902142D01*
X2561785Y-87949761D01*
X2466547Y-87997380D01*
X2180833Y-87997380D01*
X2085595Y-87949761D01*
X2037976Y-87902142D01*
X2990357Y-86997380D02*
X3609404Y-86997380D01*
X3276071Y-87378333D01*
X3418928Y-87378333D01*
X3514166Y-87425952D01*
X3561785Y-87473571D01*
X3609404Y-87568809D01*
X3609404Y-87806904D01*
X3561785Y-87902142D01*
X3514166Y-87949761D01*
X3418928Y-87997380D01*
X3133214Y-87997380D01*
X3037976Y-87949761D01*
X2990357Y-87902142D01*
%TO.C,R34*%
X1704642Y-85457380D02*
X1371309Y-84981190D01*
X1133214Y-85457380D02*
X1133214Y-84457380D01*
X1514166Y-84457380D01*
X1609404Y-84505000D01*
X1657023Y-84552619D01*
X1704642Y-84647857D01*
X1704642Y-84790714D01*
X1657023Y-84885952D01*
X1609404Y-84933571D01*
X1514166Y-84981190D01*
X1133214Y-84981190D01*
X2037976Y-84457380D02*
X2657023Y-84457380D01*
X2323690Y-84838333D01*
X2466547Y-84838333D01*
X2561785Y-84885952D01*
X2609404Y-84933571D01*
X2657023Y-85028809D01*
X2657023Y-85266904D01*
X2609404Y-85362142D01*
X2561785Y-85409761D01*
X2466547Y-85457380D01*
X2180833Y-85457380D01*
X2085595Y-85409761D01*
X2037976Y-85362142D01*
X3514166Y-84790714D02*
X3514166Y-85457380D01*
X3276071Y-84409761D02*
X3037976Y-85124047D01*
X3657023Y-85124047D01*
%TD*%
M02*
