M48
; DRILL file {KiCad (5.1.10)-1} date 06/21/21 01:13:11
; FORMAT={-:-/ absolute / inch / decimal}
; #@! TF.CreationDate,2021-06-21T01:13:11-04:00
; #@! TF.GenerationSoftware,Kicad,Pcbnew,(5.1.10)-1
; #@! TF.FileFunction,Plated,1,2,PTH
FMAT,2
INCH
T1C0.0157
T2C0.0197
T3C0.0300
T4C0.0315
T5C0.0350
T6C0.0394
T7C0.0433
T8C0.1280
%
G90
G05
T1
X-0.375Y-5.1
X-0.35Y-4.5
X-0.175Y-3.5
X-0.1505Y-2.9745
X-0.1005Y-3.0245
X-0.1Y-3.375
X-0.1Y-3.7
X-0.051Y-3.075
X-0.025Y-4.175
X-0.001Y-3.125
X0.0Y-4.425
X0.125Y-3.925
X0.125Y-4.1
X0.2098Y-4.2152
X0.3Y-3.025
X0.3Y-5.35
X0.325Y-2.95
X0.375Y-4.05
X0.475Y-3.2
X0.5Y-5.5
X0.525Y-4.05
X0.55Y-2.875
X0.6Y-3.175
X0.6Y-2.85
X0.65Y-2.875
X0.7Y-2.85
X0.7Y-5.15
X0.775Y-5.2
X0.95Y-4.9
X0.95Y-5.525
X1.0819Y-3.5469
X1.175Y-5.2
X1.1866Y-3.2443
X1.2Y-5.05
X1.2175Y-3.5075
X1.26Y-3.26
X1.2875Y-5.3375
X1.325Y-3.4681
X1.34Y-3.265
X1.35Y-5.225
X1.35Y-2.975
X1.4086Y-2.9
X1.4111Y-3.426
X1.45Y-3.25
X1.525Y-2.945
X1.55Y-2.77
X1.575Y-5.625
X1.625Y-2.82
X1.725Y-2.87
X1.75Y-3.17
X1.9606Y-3.2344
X2.025Y-5.375
X2.075Y-2.97
X2.075Y-3.4
X2.125Y-5.075
X2.1424Y-3.4196
X2.175Y-3.57
X2.2271Y-3.5693
X2.25Y-5.625
X2.3Y-3.4
X2.3462Y-3.1138
X2.425Y-3.55
X2.575Y-2.335
X2.575Y-3.375
X2.67Y-2.52
X2.775Y-2.55
X2.775Y-2.725
X2.775Y-2.725
X2.875Y-5.625
X2.975Y-5.375
X3.0Y-4.6
X3.05Y-4.8
X3.2Y-5.125
X3.275Y-5.35
X3.375Y-5.05
X3.4Y-4.3
X3.45Y-4.05
X3.5Y-4.85
X3.975Y-5.0
X4.1Y-4.625
X4.175Y-4.625
X4.25Y-4.625
X4.35Y-4.75
X4.375Y-5.0
X4.625Y-4.875
X4.65Y-3.275
X4.725Y-4.475
X4.8Y-3.574
T2
X0.15Y-4.45
X0.4Y-4.65
X0.5069Y-2.939
X0.52Y-3.4
X0.78Y-3.4
X1.0138Y-3.5862
X1.725Y-2.945
X2.2624Y-3.65
X3.15Y-4.675
X3.42Y-2.88
X3.725Y-4.875
T3
X3.725Y-2.775
X3.725Y-2.875
X3.725Y-2.975
X3.725Y-3.075
X3.725Y-3.175
X3.725Y-3.275
X3.725Y-3.375
X3.725Y-3.475
X3.725Y-3.575
X3.725Y-3.675
X3.725Y-3.775
X3.725Y-3.875
X3.725Y-3.975
X3.725Y-4.075
X3.725Y-4.175
X3.725Y-4.275
X3.725Y-4.375
X3.725Y-4.475
X3.725Y-4.575
X3.725Y-4.675
X4.325Y-2.775
X4.325Y-2.875
X4.325Y-2.975
X4.325Y-3.075
X4.325Y-3.175
X4.325Y-3.275
X4.325Y-3.375
X4.325Y-3.475
X4.325Y-3.575
X4.325Y-3.675
X4.325Y-3.775
X4.325Y-3.875
X4.325Y-3.975
X4.325Y-4.075
X4.325Y-4.175
X4.325Y-4.275
X4.325Y-4.375
X4.325Y-4.475
X4.325Y-4.575
X4.325Y-4.675
T4
X1.45Y-4.95
X1.45Y-5.25
X1.55Y-4.95
X1.55Y-5.25
X1.65Y-4.95
X1.65Y-5.25
X1.75Y-4.95
X1.75Y-5.25
X1.85Y-4.95
X1.85Y-5.25
X1.95Y-4.95
X1.95Y-5.25
X2.05Y-4.95
X2.05Y-5.25
X2.15Y-4.95
X2.15Y-5.25
X2.4Y-4.95
X2.4Y-5.25
X2.5Y-4.95
X2.5Y-5.25
X2.6Y-4.95
X2.6Y-5.25
X2.7Y-4.95
X2.7Y-5.25
X2.8Y-4.95
X2.8Y-5.25
X2.9Y-4.95
X2.9Y-5.25
X3.0Y-4.95
X3.0Y-5.25
X3.1Y-4.95
X3.1Y-5.25
T5
X-0.089Y-5.3543
X-0.039Y-5.4543
X0.011Y-5.3543
X0.061Y-5.4543
X0.111Y-5.3543
X0.161Y-5.4543
X0.675Y-5.35
X0.725Y-5.45
X0.775Y-5.35
X0.825Y-5.45
X0.875Y-5.35
X0.925Y-5.45
T6
X-0.626Y-2.25
X-0.626Y-2.35
X-0.626Y-2.45
X-0.626Y-2.55
X-0.626Y-2.65
X-0.626Y-2.75
X-0.626Y-2.85
X-0.626Y-2.95
X-0.626Y-3.05
X-0.626Y-3.15
X-0.626Y-3.25
X-0.626Y-3.35
X-0.626Y-3.45
X-0.626Y-3.55
X-0.626Y-3.65
X-0.626Y-3.75
X-0.626Y-3.85
X-0.626Y-3.95
X-0.626Y-4.05
X-0.626Y-4.15
X-0.626Y-4.25
X-0.626Y-4.35
X-0.626Y-4.45
X-0.626Y-4.55
X-0.626Y-4.65
X-0.626Y-4.75
X-0.626Y-4.85
X-0.626Y-4.95
X-0.626Y-5.05
X-0.626Y-5.15
X-0.626Y-5.25
X-0.626Y-5.35
X-0.626Y-5.45
X0.749Y-2.0
X0.849Y-2.0
X0.949Y-2.0
X1.049Y-2.0
X1.149Y-2.0
X1.15Y-1.75
X1.15Y-1.85
X1.249Y-2.0
X1.25Y-1.75
X1.25Y-1.85
X1.349Y-2.0
X1.35Y-1.75
X1.35Y-1.85
X1.449Y-2.0
X1.45Y-1.75
X1.45Y-1.85
X1.549Y-2.0
X1.55Y-1.75
X1.55Y-1.85
X1.649Y-2.0
X1.65Y-1.75
X1.65Y-1.85
X1.749Y-2.0
X1.75Y-1.75
X1.75Y-1.85
X1.849Y-2.0
X1.85Y-1.75
X1.85Y-1.85
X1.875Y-5.75
X1.875Y-5.85
X1.949Y-2.0
X1.95Y-1.75
X1.95Y-1.85
X1.975Y-5.75
X1.975Y-5.85
X1.985Y-4.425
X2.049Y-2.0
X2.05Y-1.75
X2.05Y-1.85
X2.075Y-5.75
X2.075Y-5.85
X2.085Y-4.425
X2.149Y-2.0
X2.15Y-1.75
X2.15Y-1.85
X2.175Y-5.75
X2.175Y-5.85
X2.185Y-4.425
X2.249Y-2.0
X2.25Y-1.75
X2.25Y-1.85
X2.275Y-5.75
X2.275Y-5.85
X2.285Y-4.425
X2.349Y-2.0
X2.35Y-1.75
X2.35Y-1.85
X2.375Y-5.75
X2.375Y-5.85
X2.385Y-4.425
X2.449Y-2.0
X2.45Y-1.75
X2.45Y-1.85
X2.475Y-5.75
X2.475Y-5.85
X2.485Y-4.425
X2.549Y-2.0
X2.55Y-1.75
X2.55Y-1.85
X2.575Y-5.75
X2.575Y-5.85
X2.585Y-4.425
X2.649Y-2.0
X2.65Y-1.75
X2.65Y-1.85
X2.675Y-5.75
X2.675Y-5.85
X2.685Y-4.425
X2.749Y-2.0
X2.75Y-1.75
X2.75Y-1.85
X2.785Y-4.425
X2.849Y-2.0
X2.949Y-2.0
X3.049Y-2.0
X3.149Y-2.0
X3.2Y-3.775
X3.2Y-3.875
X3.2Y-3.975
X3.2Y-4.075
X3.249Y-2.0
X3.3Y-3.775
X3.3Y-3.875
X3.3Y-3.975
X3.3Y-4.075
X3.349Y-2.0
X3.449Y-2.0
X3.549Y-2.0
X3.649Y-2.0
X4.075Y-5.175
X4.075Y-5.275
X4.075Y-5.375
X4.175Y-5.175
X4.175Y-5.275
X4.175Y-5.375
X4.275Y-5.175
X4.275Y-5.275
X4.275Y-5.375
X4.924Y-3.35
X4.924Y-3.45
X4.924Y-3.55
X4.924Y-3.85
X4.924Y-3.95
X4.924Y-4.05
X4.924Y-4.15
X4.924Y-4.25
X4.924Y-4.35
X4.924Y-4.45
X4.924Y-4.55
X4.924Y-4.65
T7
X4.825Y-5.0
X4.825Y-5.1
X4.825Y-5.2
T8
X-0.1638Y-5.7043
X0.2362Y-5.7043
X0.6002Y-5.7
X1.0002Y-5.7
T0
M30
